<svg width="347" height="90" viewBox="0 0 347 90" fill="none" xmlns="http://www.w3.org/2000/svg">
<rect width="152" height="2" transform="matrix(1 0 0 -1 17.082 25.9815)" fill="#D72B2B"/>
<path d="M27.4642 1.90144V7.08144H34.7842V10.2214H27.4642V17.1014H35.8042V20.2214H16.8442V17.1014H24.2442V1.90144H27.4642ZM46.1042 2.50144H55.0442V11.7814H49.2642V16.8414C49.2642 17.7214 49.3042 17.8214 50.0042 17.8214H52.0642C52.3842 17.8214 52.6642 17.6814 52.8042 16.8014C52.9242 16.0614 52.9442 15.3414 52.9642 14.6014L55.8442 15.4014C55.8242 15.9814 55.8042 16.7414 55.7242 17.5014C55.6442 18.2414 55.5442 18.8614 55.3242 19.3814C55.0042 20.1614 54.4642 20.6414 53.5042 20.6414H48.4042C46.9642 20.6414 46.2642 19.9014 46.2642 18.4814V9.00145H52.0042V5.38145H46.1042V2.50144ZM37.4042 2.50144H45.0042V4.64145H37.4042V2.50144ZM36.7642 5.40144H45.6842V7.70145H36.7642V5.40144ZM37.4042 8.42145H45.0042V10.6214H37.4042V8.42145ZM37.4042 11.3814H45.0042V13.5814H37.4042V11.3814ZM37.4042 14.4014H45.0042V20.1814H40.1642V20.8814H37.4042V14.4014ZM42.3442 16.5214H40.1642V17.9814H42.3442V16.5214ZM96.5998 4.26144C97.0198 3.46144 97.4398 2.64144 97.8398 1.80144L100.98 2.56144C100.66 3.08144 100.34 3.60144 100.02 4.12144C102.08 3.96144 104.1 3.70144 106.12 3.32144L106.06 6.28144C103.46 6.62144 100.86 6.94144 98.2398 7.04145C98.0598 7.34144 97.8598 7.64144 97.6798 7.96145C98.1798 7.82144 98.6998 7.74144 99.1998 7.74144C100.68 7.74144 101.96 8.32144 102.62 9.70144C104.22 9.02144 105.82 8.38144 107.44 7.78145L108.6 10.5814C106.78 11.2214 104.98 11.8614 103.2 12.5814C103.2 13.0214 103.22 13.4414 103.22 13.8814C103.22 14.6814 103.2 15.5014 103.18 16.3214H100.16C100.2 15.5214 100.24 14.7214 100.26 13.9214C99.2598 14.4414 97.7798 15.2614 97.7798 16.2814C97.7798 17.4614 99.7798 17.5214 100.84 17.5214C103.08 17.5214 104.86 17.3414 107.2 16.9414L106.88 20.1014C105.26 20.2814 103.62 20.4014 101.98 20.4014C99.6598 20.4014 94.7598 20.3414 94.7598 16.4414C94.7598 13.5814 97.7598 12.0414 99.9598 10.9214C99.6598 10.4414 99.0798 10.2414 98.5198 10.2414C96.3198 10.2414 94.7598 12.3614 93.3798 14.4414L90.9398 12.7014C92.3998 10.9414 93.7198 9.08144 94.9398 7.14145C94.3798 7.16144 93.7998 7.16144 93.2398 7.16144C92.7998 7.16144 92.3598 7.16144 91.8998 7.16144L91.9798 4.18145C93.2798 4.22144 94.5798 4.26144 95.8798 4.26144C96.1198 4.26144 96.3598 4.26144 96.5998 4.26144ZM115.2 3.50144V3.04144H117.66V1.90144H120.52V3.04144H123.86V1.90144H126.7V3.04144H129.2V5.52144H126.7V6.70144H129V9.16144H123.34V10.1414H128.68V18.8614C128.68 20.2014 128.06 20.8614 126.72 20.8614H123.9L123.42 18.1014H125.32C125.96 18.1014 126.06 18.0414 126.06 17.3614V12.5014H123.18V15.3814H123.9V13.2214H125.4V17.7614H118.96V13.2214H120.48V15.3814H121.24V12.5014H118.3V20.8614H115.7V10.1414H121.08V9.16144H115.38V6.70144H117.66V5.52144H115.2V4.00145L113.78 6.16144C112.84 5.34144 111.76 4.68144 110.64 4.10144L112.24 1.86144C113.3 2.28144 114.3 2.82144 115.2 3.50144ZM123.86 5.52144H120.52V6.70144H123.86V5.52144ZM111.76 6.86145C112.88 7.44144 113.98 8.10144 114.94 8.94144L113.22 11.3214C112.32 10.5214 111.22 9.72144 110.14 9.18145L111.76 6.86145ZM115.22 13.5814C114.62 16.0014 113.5 18.5614 112.18 20.7014L110.1 18.2414C111.02 16.9414 111.66 15.5414 112.22 14.1014C112.46 13.4614 112.68 12.8014 112.9 12.1414L115.22 13.5814ZM135.32 5.02145C135.56 3.96144 135.74 2.88144 135.92 1.80144L139.24 2.14144C139.08 3.02144 138.86 3.88144 138.68 4.76144C139.96 4.60144 141.22 4.36145 142.46 4.08144L142.58 7.20144C141.04 7.48144 139.5 7.74144 137.94 7.90144C136.9 12.1214 135.58 16.3214 133.8 20.3214L130.6 19.0614C131.5 17.2214 132.32 15.3214 133 13.3814C133.6 11.6614 134.1 9.92145 134.58 8.16145C133.62 8.22144 132.64 8.22144 131.68 8.22144C131.52 8.22144 131.38 8.22144 131.24 8.22144L131.2 5.02145C131.9 5.04144 132.58 5.08144 133.26 5.08144C133.94 5.08144 134.64 5.06144 135.32 5.02145ZM138.68 13.5214L141.26 14.5814C140.84 15.0014 140.24 15.5814 140.24 16.2414C140.24 17.2414 142.6 17.2814 143.52 17.2814C145.48 17.2814 147.02 17.1014 148.6 16.8614V20.0814C147.04 20.2414 145.48 20.3414 143.9 20.3414C142.34 20.3414 140.68 20.2814 139.24 19.6814C138.04 19.1814 137.1 18.1014 137.1 16.7614C137.1 15.5014 137.82 14.4014 138.68 13.5214ZM139.86 8.30144C141.34 8.08144 142.84 7.96145 144.36 7.96145C145.68 7.96145 147.02 8.04144 148.34 8.18144L148.04 11.2214C146.68 11.0814 145.32 10.9814 143.94 10.9814C142.46 10.9814 140.98 11.0614 139.5 11.2614L139.86 8.30144ZM160.36 4.28145L160.32 1.94144H163.56L163.58 4.20144L164.98 4.18145C166.34 4.14144 167.68 4.06144 169.02 3.94144L169.06 7.18144C168.54 7.14145 168 7.14145 167.48 7.12144C166.66 7.12144 165.84 7.10144 165.02 7.12144L163.62 7.14145L163.68 13.1414C163.68 13.2014 163.68 13.2814 163.68 13.3414C163.68 15.4614 163.22 17.4614 161.66 19.0014C160.56 20.0814 159.18 20.7814 157.74 21.2814L155.4 18.8414C157.04 18.3414 158.72 17.5214 159.88 16.2214C159.32 16.4614 158.76 16.6214 158.14 16.6214C155.74 16.6214 154.1 14.6614 154.1 12.3414C154.1 9.76144 156.08 8.02144 158.6 8.02144C159.24 8.02144 159.88 8.14144 160.46 8.40144L160.44 7.22145L154.92 7.36144C153.5 7.38144 152.08 7.44144 150.66 7.54144L150.62 4.34144C151.82 4.38144 153.04 4.40144 154.24 4.40144C154.42 4.40144 154.6 4.40144 154.78 4.38144L160.36 4.28145ZM158.82 14.0214C159.78 14.0214 160.34 13.1414 160.34 12.2614C160.34 11.3814 159.74 10.6014 158.82 10.6014C157.86 10.6014 157.18 11.4214 157.18 12.3414C157.18 13.2614 157.88 14.0214 158.82 14.0214ZM177.54 5.72144C177.6 4.48144 177.64 3.22144 177.64 1.96145H180.92C180.92 3.22144 180.92 4.48144 180.84 5.72144H188.06C187.94 8.62145 187.66 15.3414 186.6 17.8214C185.78 19.7214 184.28 20.1814 182.34 20.1814C181.78 20.1814 181.2 20.1614 180.62 20.1214L179.96 16.8414C180.72 16.9214 181.46 17.0014 182.22 17.0014C183.48 17.0014 183.78 16.1614 184 15.0814C184.44 13.0614 184.58 10.9414 184.68 8.88145H180.54C179.92 13.9614 177.84 17.6414 173.5 20.4414L171.08 18.0414C172.88 16.9214 174.54 15.4814 175.64 13.6414C176.52 12.1814 176.98 10.5614 177.26 8.88145H171.16V5.72144H177.54ZM190.72 9.82144H208.96V13.0014H190.72V9.82144ZM218.58 9.92145L219.64 7.90144C222.48 9.24144 225.16 10.8614 227.68 12.7214L225.76 15.6014C223.52 13.8414 221.12 12.2614 218.58 11.0014V20.6414H215.2V2.12144H218.58V9.92145ZM223.1 5.34144L224.24 4.26144C225.02 4.90144 225.7 5.58144 226.32 6.36144L225.1 7.46144C224.5 6.68145 223.84 6.00144 223.1 5.34144ZM225 3.68144L226.16 2.58144C226.92 3.22144 227.6 3.92144 228.22 4.70144L227.02 5.80144C226.4 5.02145 225.76 4.32144 225 3.68144ZM244.62 18.8214H235.06V19.9414H231.78V3.76144H247.9V19.9414H244.62V18.8214ZM244.62 15.7014V6.94144H235.06V15.7014H244.62ZM250.72 9.82144H268.96V13.0014H250.72V9.82144ZM273.22 2.72144C275.42 3.80144 277.48 5.14144 279.38 6.72144L277.24 9.40144C275.4 7.84144 273.42 6.50145 271.32 5.36144L273.22 2.72144ZM271.56 17.2214C278.52 15.9214 283.22 12.6014 286.82 6.52144L289.16 9.22144C285.46 15.1614 280 19.0814 273.1 20.5014L271.56 17.2214ZM295.08 4.98144C295.42 3.92144 295.74 2.86144 296.02 1.78145L299.36 2.44144C299.12 3.20144 298.86 3.94144 298.6 4.70144C299.44 4.60144 300.26 4.46145 301.08 4.30144L300.92 7.44144C299.78 7.62144 298.64 7.76144 297.5 7.88145C296.3 11.1414 294.96 14.3614 293.5 17.5214L290.38 16.1214C291.76 13.5414 293 10.8614 294 8.10144C293.1 8.14144 292.2 8.14144 291.3 8.14144L291.2 4.94144C291.98 4.98144 292.76 5.00144 293.56 5.00144C294.06 5.00144 294.58 5.00144 295.08 4.98144ZM302.7 4.84144C304.9 5.34144 307.02 6.02145 309.08 6.90144L308.02 9.90144C307.42 9.58144 306.74 9.22144 306.02 9.22144C304.84 9.22144 304.28 10.1614 304.28 11.2414C304.28 12.1014 304.42 12.9814 304.56 13.8214C306.24 14.4814 307.64 15.2214 309.14 16.2414L307.6 19.0614C306.72 18.4214 305.8 17.8414 304.84 17.3014C304.74 19.7214 302.52 20.7014 300.38 20.7014C298.06 20.7014 295.36 19.6614 295.36 16.9414C295.36 15.8614 295.84 14.8214 296.66 14.1214C297.68 13.2614 299.06 13.0214 300.34 13.0214C300.66 13.0214 300.98 13.0414 301.3 13.0814C301.22 12.4414 301.16 11.8014 301.16 11.1614C301.16 9.60145 301.74 8.68144 303.1 7.96145C302.56 7.82144 302 7.70145 301.42 7.60145L302.7 4.84144ZM301.62 16.0014C301.12 15.8814 300.62 15.8014 300.12 15.8014C299.44 15.8014 298.24 15.9214 298.24 16.8414C298.24 17.7214 299.42 17.9414 300.1 17.9414C300.94 17.9414 301.68 17.6814 301.68 16.7014C301.68 16.4814 301.66 16.2414 301.62 16.0014ZM316.02 2.02144C319 2.34144 321.92 2.96144 324.76 3.90145L323.64 6.86145C320.82 5.82144 317.92 5.18144 314.94 4.84144L316.02 2.02144ZM313.56 5.36144L316.8 6.06144C316.4 7.54144 316.06 9.02144 315.74 10.5214C317.58 9.58144 319.62 8.98145 321.68 8.98145C324.94 8.98145 328.04 10.5814 328.04 14.2214C328.04 16.8414 326.38 18.8214 323.98 19.6814C322.1 20.3614 320.02 20.5214 318.02 20.5214C316.84 20.5214 315.68 20.4414 314.52 20.2814L313.88 16.9414C315.36 17.2214 316.84 17.3814 318.34 17.3814C320.42 17.3814 324.66 17.0614 324.66 14.1814C324.66 12.4814 323.08 11.9614 321.64 11.9614C318.98 11.9614 316.5 13.1214 314.56 14.8814L311.9 14.1014C312.36 11.1614 312.9 8.26145 313.56 5.36144Z" fill="#3F3F3F"/>
<path d="M57.4842 8.54145C57.5042 7.00144 57.6242 5.46144 58.5042 4.14144C59.6442 2.42144 61.4642 1.72144 63.4642 1.72144C66.6642 1.72144 69.0242 3.62145 69.0242 6.96145C69.0242 9.66144 67.2442 11.2414 65.1842 12.6414L63.0242 14.1214C62.3442 14.5814 61.6642 15.1214 61.4442 15.9614H69.1242V18.9814H57.0842C57.1242 17.9014 57.2242 16.8214 57.5842 15.7814C58.1842 14.0614 59.4642 12.7414 60.9442 11.7214L63.1242 10.2414C64.3042 9.46145 65.4642 8.56144 65.4642 7.02144C65.4642 5.72144 64.7042 4.80144 63.3642 4.80144C61.2242 4.80144 61.0842 6.90144 61.0842 8.54145H57.4842ZM89.3198 6.10144H81.0598V7.22145H87.6998V14.9414H71.9198V7.22145H77.8198V1.86144H81.0598V3.14144H89.3198V6.10144ZM84.5398 10.0614H75.1198V12.0614H84.5398V10.0614ZM89.5998 19.5614L86.7198 21.0614C86.1798 19.5214 85.3798 17.6214 84.5198 16.2614L87.1598 14.9814C88.1798 16.4814 88.8798 17.9014 89.5998 19.5614ZM72.3998 21.1814L69.8598 19.2814C70.9598 18.1014 71.7798 16.6014 72.1598 15.0414L74.8398 16.0814C74.2598 18.0614 73.6798 19.5214 72.3998 21.1814ZM84.1198 20.4414L80.8798 20.8014C80.7598 19.0814 80.4398 17.6014 79.8998 15.9614L82.7598 15.6414C83.2798 16.8614 83.8998 19.1214 84.1198 20.4414ZM78.7198 20.7614L75.4998 20.8214C75.7198 19.7414 75.7798 18.6414 75.7798 17.5414C75.7798 16.9414 75.7598 16.4414 75.6798 15.8614H78.5598C78.6998 17.0614 78.7398 18.4814 78.7398 19.7214C78.7398 20.0614 78.7398 20.4014 78.7198 20.7614Z" fill="#D72B2B"/>
<rect x="0.0820312" y="76.9814" width="346" height="13" fill="#FFEA05"/>
<path d="M337.269 48.7533H345.234V58.5647L343.894 70.6932H338.609L337.269 58.5647V48.7533ZM337.45 72.5034H345.053V79.7443H337.45V72.5034Z" fill="#D72B2B"/>
<path d="M303.961 47.1241L311.854 47.5586L311.057 67.5796C311.057 67.8331 311.057 68.0865 311.057 68.3399C311.057 71.707 311.962 73.7706 315.691 73.7706C321.991 73.7706 324.742 67.5072 326.444 62.4386L333.069 66.0591C330.137 74.1327 324.96 81.2287 315.583 81.2287C311.383 81.2287 307.219 79.9254 304.902 76.1601C303.563 74.024 303.201 71.5259 303.201 69.0278C303.201 68.5934 303.237 68.1589 303.237 67.6883L303.961 47.1241Z" fill="#D72B2B"/>
<path d="M270.508 52.0479C271.088 50.2015 271.558 48.3188 272.029 46.4724L279.632 47.8844C279.234 49.0791 278.835 50.2377 278.437 51.4324C279.632 51.2514 280.827 51.0704 282.057 50.817L281.587 57.9854C279.704 58.2389 277.822 58.4561 275.939 58.6733C273.839 64.5022 271.558 70.295 268.915 75.9067L261.892 73.0465C264.281 68.5571 266.345 63.923 268.155 59.144C266.743 59.144 265.331 59.1802 263.955 59.1802L263.738 51.9393C265.512 52.0117 267.286 52.0479 269.06 52.0479C269.567 52.0479 270.038 52.0479 270.508 52.0479ZM284.954 51.8669C289.081 52.8082 293.136 54.0754 297.046 55.7408L294.765 62.5834C293.571 61.8955 292.195 61.1714 290.783 61.1714C289.117 61.1714 288.611 62.4024 288.611 63.8506C288.611 65.2263 288.828 66.5659 289.045 67.9055C291.978 69.1002 294.693 70.7294 297.3 72.5034L293.896 78.7668C292.484 77.7893 291.036 76.848 289.552 75.9067C288.864 80.1064 284.918 81.5183 281.152 81.5183C276.518 81.5183 271.703 79.3099 271.703 74.0602C271.703 71.7793 272.753 69.5347 274.563 68.1589C276.337 66.8193 278.763 66.3125 280.935 66.3125C281.189 66.3125 281.442 66.3487 281.695 66.3487C281.587 65.4798 281.514 64.6109 281.514 63.7057C281.514 61.1352 282.311 59.687 284.628 58.4923C283.832 58.2751 283.035 58.094 282.239 57.9492L284.954 51.8669ZM282.347 72.7207C281.659 72.5034 280.971 72.3586 280.247 72.3586C279.27 72.3586 277.858 72.7207 277.858 73.9516C277.858 75.1826 279.378 75.4722 280.356 75.4722C281.406 75.4722 282.456 75.074 282.456 73.843C282.456 73.481 282.42 73.1189 282.347 72.7207Z" fill="#D72B2B"/>
<path d="M245.672 59.3974H253.202V54.365H245.744V47.8844H259.755V65.5522H252.08V74.0964C252.08 74.3498 252.116 74.9291 252.804 74.9291H253.854C254.397 74.9291 254.65 74.6033 254.723 73.2275C254.759 72.431 254.759 71.4173 254.759 69.9329V69.5347L261.24 71.2363C261.131 72.9741 260.841 77.1738 260.298 78.6582C259.429 81.0839 257.981 81.3373 255.99 81.3373H249.618C246.613 81.3373 245.672 80.4684 245.672 77.4272V59.3974ZM226.013 47.8844H244.911V53.7133H239.553V55.3787H244.622V81.3373H239.951V80.4322H231.588V81.5907H226.809V55.3787H232.059V53.7133H226.013V47.8844ZM236.403 53.7133H235.209V55.3787H236.403V53.7133ZM232.855 60.3387H231.588V64.7557C232.53 64.3936 232.638 63.0541 232.711 62.2213L232.855 60.3387ZM236.259 60.3387H235.353V64.2126C235.353 66.0952 235.028 67.29 233.688 68.6295L231.588 65.7694V69.5347H239.951V68.2675H237.996C236.295 68.2675 236.259 67.3986 236.259 66.2038V60.3387ZM239.951 60.3387H238.684V63.1989C238.684 63.7781 238.829 63.8868 239.445 63.8868H239.951V60.3387ZM239.951 74.024H231.588V75.1825H239.951V74.024Z" fill="#D72B2B"/>
<path d="M200.851 46.8705C207.042 48.029 210.518 49.0065 216.383 51.215L213.233 58.0577C207.15 55.1251 204.508 54.5096 197.991 53.2063L200.851 46.8705ZM216.491 70.1862C216.383 72.1774 216.057 76.2323 215.405 78.0425C214.826 79.5269 214.138 80.613 212.509 81.0475C211.676 81.3009 210.843 81.3371 210.011 81.3371H203.82C202.589 81.3371 201.322 81.0113 200.525 80.0338C199.873 79.2373 199.837 78.0063 199.837 77.0288V56.8267H206.499V73.9152C206.499 74.5669 206.535 74.7841 207.368 74.7841H208.599C209.106 74.7841 209.431 74.6031 209.576 74.0962C209.793 73.2997 209.902 69.8603 209.902 68.8828V68.1587L216.455 70.0413C215.659 66.0226 214.717 62.8004 213.341 58.9266L219.967 56.8267C222.682 63.5607 223.696 69.1362 224.673 76.2685L217.469 77.8977C217.288 75.291 217.034 72.7567 216.491 70.1862ZM199.041 58.7817C198.715 65.8416 198.498 71.5619 195.493 78.0787L189.338 72.7929C191.51 68.1949 192.162 63.1263 192.415 58.0939L199.041 58.7817Z" fill="#D72B2B"/>
<path d="M167.21 56.4673C168.059 56.5204 168.935 56.547 169.812 56.547C173.9 56.547 178.016 56.3346 182.051 55.6974L184.281 59.6533C182.157 60.9808 180.06 62.388 178.016 63.8217C178.573 63.742 179.157 63.6889 179.741 63.6889C184.149 63.6889 187.68 66.8218 187.68 71.3088C187.68 74.4682 186.06 77.3356 183.326 78.9286C181.228 80.1233 178.865 80.6012 176.476 80.6012C174.431 80.6012 172.281 80.2296 170.635 78.9552C169.493 78.0525 168.829 76.6453 168.829 75.2116C168.829 72.0787 172.015 70.2999 174.83 70.2999C177.591 70.2999 179.98 71.6539 181.573 73.8576C182.025 73.1938 182.29 72.4239 182.29 71.6274C182.29 68.9989 179.821 67.8307 177.511 67.8307C173.29 67.8307 169.52 71.2822 166.652 74.0169L163.413 69.822L174.538 61.087C172.228 61.3791 169.944 61.5915 167.635 61.7242L167.21 56.4673ZM177.724 76.194C176.98 75.1054 175.865 74.2027 174.484 74.2027C173.953 74.2027 173.263 74.4417 173.263 75.1054C173.263 76.2205 175.281 76.3533 176.077 76.3533C176.635 76.3533 177.166 76.2736 177.724 76.194Z" fill="#D72B2B"/>
<path d="M131.905 47.5223H139.581V72.1052C146.568 70.0415 152.506 65.5521 156.778 59.687L161.955 65.1539C154.497 74.6757 143.889 80.0701 131.905 81.1925V47.5223Z" fill="#D72B2B"/>
<path d="M107.105 51.6136C105.874 61.4974 103.086 71.7071 97.511 80.1065L90.2339 76.4136C95.2663 68.6297 98.0178 59.4699 99.3574 50.3464L107.105 51.6136ZM116.084 49.8396C120.971 58.2752 124.121 66.8557 125.823 76.4498L117.93 78.9117C116.41 69.8606 113.767 61.244 109.603 53.0255L116.084 49.8396ZM121.551 49.5861L124.049 48.0293C125.207 49.2603 126.113 50.6723 126.873 52.1928L124.375 53.7496C123.651 52.229 122.673 50.8533 121.551 49.5861ZM118.184 51.7222L120.682 50.1292C121.804 51.3963 122.745 52.8083 123.506 54.3289L120.971 55.8857C120.247 54.3651 119.306 52.9531 118.184 51.7222Z" fill="#D72B2B"/>
<path d="M66.7904 56.0956L72.4455 56.7328C71.4101 61.4587 70.7994 66.2642 70.7994 71.1229C70.7994 71.8397 70.826 72.5566 70.8525 73.2469C71.118 72.6097 71.4101 71.9459 71.7021 71.2822L73.242 73.5655C72.3659 75.5567 71.7552 77.6276 71.357 79.7516L66.7638 80.2029C65.6753 76.8577 65.4629 73.3 65.4629 69.8219C65.4629 65.2288 65.9673 60.6356 66.7904 56.0956ZM74.5695 58.3258C76.3218 58.4585 78.1007 58.5382 79.853 58.5382C82.6142 58.5382 85.3488 58.3523 88.0569 57.9541L87.9507 63.2375C85.2426 63.5827 82.508 63.7685 79.7468 63.7685C77.9679 63.7685 76.2156 63.6889 74.4368 63.5296L74.5695 58.3258ZM78.9237 69.9016C78.5255 70.5122 78.1538 71.2291 78.1538 71.999C78.1538 73.592 81.207 73.4327 82.2956 73.4327C84.632 73.4327 86.9684 73.1672 89.2517 72.7424L89.0392 78.2117C86.8887 78.5303 84.7382 78.7162 82.5876 78.7162C78.5786 78.7162 73.3748 78.3179 73.3748 73.1141C73.3748 71.6273 73.8792 70.2467 74.5961 68.9989L78.9237 69.9016Z" fill="#D72B2B"/>
<path d="M41.4885 55.83L47.0639 56.4141C46.4002 59.4673 46.0816 62.5737 45.8957 65.68C46.3736 64.8304 46.8781 63.9808 47.356 63.1312L49.7986 65.4145C48.179 68.0695 46.9312 70.9104 46.2143 73.9105L41.8336 74.3619C40.8778 71.4414 40.6123 68.2819 40.6123 65.2021C40.6123 62.0692 40.9309 58.9363 41.4885 55.83ZM53.9138 55.9362H59.6486C59.9407 59.0425 60.1265 62.1754 60.1265 65.3083C60.1265 72.8751 58.3477 77.4682 51.3385 80.9993L46.7188 77.1496C49.4003 75.9018 52.1881 74.1495 53.4625 71.3617C54.3917 69.2908 54.4714 66.9013 54.4714 64.6977C54.4714 61.7506 54.2059 58.8301 53.9138 55.9362Z" fill="#D72B2B"/>
<path d="M16.0632 54.0389H10.4153V66.4933C10.4153 72.3222 9.76358 76.5581 7.08445 81.8078L0.929688 77.9701C3.13816 74.0962 4.00707 70.9464 4.00707 66.4933V47.9204H34.5636V77.1736C34.5636 80.432 33.1879 81.8078 29.8933 81.8078H24.7522L24.1368 79.0924H11.4652V67.688H26.8521V75.1099H27.2865C27.902 75.1099 28.083 74.8203 28.083 74.241V54.0389H22.1455V55.1613H27.2141V60.2299H22.1455V61.316H27.359V66.5295H11.1393V61.316H16.0632V60.2299H11.2842V55.1613H16.0632V54.0389ZM20.7697 72.3946H17.4751V74.241H20.7697V72.3946Z" fill="#D72B2B"/>
<circle cx="108.582" cy="37.4814" r="2.5" fill="#D72B2B"/>
<circle cx="143.582" cy="37.4814" r="2.5" fill="#D72B2B"/>
<circle cx="174.582" cy="37.4814" r="2.5" fill="#D72B2B"/>
<circle cx="205.582" cy="37.4814" r="2.5" fill="#D72B2B"/>
<circle cx="242.582" cy="37.4814" r="2.5" fill="#D72B2B"/>
</svg>
