<svg width="346" height="71" viewBox="0 0 346 71" fill="none" xmlns="http://www.w3.org/2000/svg">
<path d="M101.038 7.498C101.304 6.602 101.486 5.692 101.556 4.754L103.782 5.3C103.642 6.476 103.376 7.61 102.998 8.73C103.586 9.178 104.174 9.626 104.748 10.116L103.544 12.272C103.054 11.824 102.536 11.376 102.018 10.942C101.332 12.244 100.422 13.434 99.302 14.386L97.356 13.07C98.532 12.118 99.456 10.956 100.17 9.612C99.414 9.136 98.63 8.688 97.762 8.422C97.272 9.458 96.684 10.48 96.012 11.404C95.438 12.174 94.682 12.986 93.632 12.986C92.176 12.986 91.532 11.558 91.532 10.298C91.532 7.862 93.562 5.916 95.97 5.916C96.166 5.916 96.362 5.944 96.558 5.958C96.852 5.272 97.132 4.586 97.398 3.886C96.39 3.998 95.368 4.068 94.346 4.068C94.15 4.068 93.954 4.068 93.758 4.068L93.73 1.828C94.29 1.856 94.864 1.87 95.438 1.87C96.614 1.87 97.804 1.842 98.952 1.576L100.31 2.626C99.764 3.886 99.246 5.16 98.714 6.434C99.512 6.714 100.296 7.078 101.038 7.498ZM95.578 8.016C95.228 8.044 94.892 8.114 94.584 8.31C93.912 8.702 93.45 9.5 93.45 10.27C93.45 10.41 93.464 10.732 93.66 10.732C94.038 10.732 94.766 9.556 95.578 8.016ZM112.504 0.987999L114.646 2.01C113.82 3.466 113.022 4.936 112.28 6.434C112.742 6.168 113.246 6.014 113.778 6.014C114.996 6.014 116.004 6.826 116.004 8.086C116.004 8.716 115.892 9.332 115.808 9.934C115.752 10.326 115.668 10.732 115.668 11.124C115.668 11.474 115.878 11.726 116.242 11.726C117.432 11.726 118.146 9.64 118.384 8.702L120.288 9.92C119.644 11.908 118.384 13.994 116.032 13.994C114.38 13.994 113.372 13.028 113.372 11.376C113.372 10.69 113.512 10.004 113.624 9.332C113.652 9.122 113.694 8.926 113.694 8.73C113.694 8.38 113.4 8.17 113.078 8.17C112.644 8.17 112.21 8.422 111.86 8.646C111.3 9.024 110.894 9.542 110.544 10.116C109.83 11.306 109.242 12.72 108.682 13.994L106.624 12.874L112.504 0.987999ZM125.468 3.2C125.706 2.458 125.93 1.716 126.126 0.96L128.464 1.422C128.296 1.954 128.114 2.472 127.932 3.004C128.52 2.934 129.094 2.836 129.668 2.724L129.556 4.922C128.758 5.048 127.96 5.146 127.162 5.23C126.322 7.512 125.384 9.766 124.362 11.978L122.178 10.998C123.144 9.192 124.012 7.316 124.712 5.384C124.082 5.412 123.452 5.412 122.822 5.412L122.752 3.172C123.298 3.2 123.844 3.214 124.404 3.214C124.754 3.214 125.118 3.214 125.468 3.2ZM130.802 3.102C132.342 3.452 133.826 3.928 135.268 4.544L134.526 6.644C134.106 6.42 133.63 6.168 133.126 6.168C132.3 6.168 131.908 6.826 131.908 7.582C131.908 8.184 132.006 8.8 132.104 9.388C133.28 9.85 134.26 10.368 135.31 11.082L134.232 13.056C133.616 12.608 132.972 12.202 132.3 11.824C132.23 13.518 130.676 14.204 129.178 14.204C127.554 14.204 125.664 13.476 125.664 11.572C125.664 10.816 126 10.088 126.574 9.598C127.288 8.996 128.254 8.828 129.15 8.828C129.374 8.828 129.598 8.842 129.822 8.87C129.766 8.422 129.724 7.974 129.724 7.526C129.724 6.434 130.13 5.79 131.082 5.286C130.704 5.188 130.312 5.104 129.906 5.034L130.802 3.102ZM130.046 10.914C129.696 10.83 129.346 10.774 128.996 10.774C128.52 10.774 127.68 10.858 127.68 11.502C127.68 12.118 128.506 12.272 128.982 12.272C129.57 12.272 130.088 12.09 130.088 11.404C130.088 11.25 130.074 11.082 130.046 10.914ZM143.402 4.124C146.384 4.11 147.126 5.636 147.126 8.352C147.126 9.64 146.986 11.642 146.3 12.748C145.754 13.602 144.732 13.924 143.766 13.924C143.178 13.924 142.59 13.854 142.002 13.756L142.016 11.544C142.492 11.656 142.982 11.726 143.472 11.726C144.284 11.726 144.522 11.292 144.662 10.564C144.802 9.752 144.858 8.912 144.858 8.086C144.858 7.064 144.76 6.252 143.514 6.252C143.304 6.252 143.094 6.266 142.884 6.28C142.156 9.038 141.134 11.74 139.636 14.176L137.662 12.888C138.922 10.9 139.86 8.772 140.518 6.532C139.636 6.63 138.768 6.77 137.886 6.91L137.634 4.698L141.064 4.306C141.274 3.242 141.456 2.178 141.596 1.1L143.906 1.506C143.766 2.388 143.598 3.256 143.402 4.124ZM147.462 2.808C149.268 4.446 150.36 6.728 150.612 9.15L148.456 9.92C148.246 7.652 147.532 5.594 145.894 3.956L147.462 2.808ZM148.064 2.78L148.848 2.122C149.324 2.556 149.744 3.032 150.122 3.564L149.296 4.222C148.932 3.69 148.526 3.228 148.064 2.78ZM149.198 1.87L149.968 1.198C150.444 1.646 150.864 2.122 151.242 2.654L150.43 3.298C150.066 2.78 149.66 2.318 149.198 1.87ZM156.646 3.48L155.246 4.866C154.658 4.068 153.804 3.2 153.006 2.598L154.476 1.128C155.176 1.632 156.086 2.5 156.646 3.158V2.99H159.026V2.528H156.548V1.352H160.804V4.026H158.438V4.432C158.438 4.6 158.466 4.698 158.676 4.698H159.222C159.446 4.698 159.558 4.6 159.6 4.18L161.098 4.362C161.07 4.684 161.014 5.062 160.86 5.37C160.72 5.65 160.496 5.86 160.118 5.86H157.612C156.94 5.86 156.646 5.552 156.646 4.894V3.48ZM161.336 1.352H165.718V4.026H163.142V4.418C163.142 4.544 163.156 4.698 163.464 4.698H164.346C164.556 4.698 164.668 4.544 164.682 4.166L166.25 4.376C166.208 4.684 166.152 5.062 165.998 5.356C165.844 5.65 165.62 5.86 165.228 5.86H162.372C161.798 5.86 161.392 5.524 161.392 5.034V2.99H163.94V2.528H161.336V1.352ZM165.326 12.048H166.432L165.984 14.022H159.418C158.69 14.022 157.92 13.938 157.22 13.728C156.52 13.518 156.016 13.14 155.554 12.566C154.98 13.238 154.252 13.868 153.496 14.344L152.74 12.16C153.216 11.936 153.748 11.586 154.154 11.25V8.184H152.936V6.21H156.198V10.312C156.45 11.194 156.954 11.614 157.822 11.866L156.898 10.648C157.682 10.494 158.368 10.284 159.096 9.962H156.59V8.478H158.424V7.792H156.814V6.448H158.424V6.084H160.342V6.448H162.274V6.084H164.178V6.448H165.83V7.792H164.178V8.478H166.18V9.962H163.898C164.598 10.27 165.424 10.564 166.166 10.704L165.326 12.048ZM162.274 7.792H160.342V8.478H162.274V7.792ZM164.668 12.048C163.758 11.726 162.806 11.264 162.008 10.732L162.904 9.962H159.894L160.902 10.732C160.16 11.236 159.348 11.656 158.522 11.992C158.9 12.048 159.502 12.048 159.88 12.048H164.668ZM174.104 0.987999L176.246 2.01C175.42 3.466 174.622 4.936 173.88 6.434C174.342 6.168 174.846 6.014 175.378 6.014C176.596 6.014 177.604 6.826 177.604 8.086C177.604 8.716 177.492 9.332 177.408 9.934C177.352 10.326 177.268 10.732 177.268 11.124C177.268 11.474 177.478 11.726 177.842 11.726C179.032 11.726 179.746 9.64 179.984 8.702L181.888 9.92C181.244 11.908 179.984 13.994 177.632 13.994C175.98 13.994 174.972 13.028 174.972 11.376C174.972 10.69 175.112 10.004 175.224 9.332C175.252 9.122 175.294 8.926 175.294 8.73C175.294 8.38 175 8.17 174.678 8.17C174.244 8.17 173.81 8.422 173.46 8.646C172.9 9.024 172.494 9.542 172.144 10.116C171.43 11.306 170.842 12.72 170.282 13.994L168.224 12.874L174.104 0.987999ZM187.236 3.228C187.404 2.486 187.53 1.73 187.656 0.974L189.98 1.212C189.868 1.828 189.714 2.43 189.588 3.046C190.484 2.934 191.366 2.766 192.234 2.57L192.318 4.754C191.24 4.95 190.162 5.132 189.07 5.244C188.342 8.198 187.418 11.138 186.172 13.938L183.932 13.056C184.562 11.768 185.136 10.438 185.612 9.08C186.032 7.876 186.382 6.658 186.718 5.426C186.046 5.468 185.36 5.468 184.688 5.468C184.576 5.468 184.478 5.468 184.38 5.468L184.352 3.228C184.842 3.242 185.318 3.27 185.794 3.27C186.27 3.27 186.76 3.256 187.236 3.228ZM193.256 3.074L194.026 2.36C194.516 2.78 194.95 3.228 195.356 3.746L194.544 4.446C194.166 3.942 193.732 3.494 193.256 3.074ZM189.588 9.178L191.394 9.92C191.1 10.214 190.68 10.62 190.68 11.082C190.68 11.768 192.234 11.81 192.976 11.81C194.18 11.81 195.132 11.726 196.532 11.516V13.77C195.44 13.882 194.348 13.952 193.242 13.952C192.15 13.952 190.988 13.91 189.98 13.49C189.14 13.14 188.482 12.384 188.482 11.446C188.482 10.564 188.986 9.794 189.588 9.178ZM194.46 1.996L195.216 1.282C195.72 1.702 196.154 2.15 196.546 2.668L195.748 3.368C195.37 2.864 194.936 2.416 194.46 1.996ZM190.414 5.524C191.45 5.37 192.5 5.286 193.564 5.286C194.488 5.286 195.426 5.342 196.35 5.44L196.14 7.568C195.188 7.47 194.236 7.4 193.27 7.4C192.234 7.4 191.198 7.456 190.162 7.596L190.414 5.524ZM205.996 12.02C208.096 11.362 209.874 10.018 209.874 7.624C209.874 5.664 208.838 4.264 206.906 3.9C206.556 6.434 205.996 9.262 204.75 11.516C204.26 12.37 203.546 13.168 202.482 13.168C201.768 13.168 201.152 12.79 200.69 12.272C199.724 11.222 199.36 9.752 199.36 8.366C199.36 4.502 202.244 1.744 206.094 1.744C209.58 1.744 212.24 4.068 212.24 7.652C212.24 9.486 211.498 11.236 210.112 12.454C209.286 13.196 208.25 13.686 207.214 14.022L205.996 12.02ZM204.624 4.012C202.678 4.642 201.586 6.448 201.586 8.436C201.586 9.038 201.656 9.668 201.908 10.214C202.006 10.41 202.16 10.69 202.398 10.69C202.832 10.69 203.252 9.5 203.434 8.968C204.008 7.358 204.358 5.692 204.624 4.012ZM222.866 3.942L222.796 1.324H225.05L225.106 3.816C225.848 3.732 226.576 3.634 227.318 3.508L227.304 5.776C226.59 5.874 225.876 5.944 225.148 6.014L225.204 8.912C225.204 8.996 225.204 9.08 225.218 9.164C226.184 9.542 227.094 10.06 227.934 10.676L227.052 12.748C226.478 12.272 225.862 11.866 225.204 11.502C225.134 13.294 223.916 13.994 222.25 13.994C220.542 13.994 218.806 13.21 218.806 11.264C218.806 9.388 220.318 8.52 222.026 8.52C222.334 8.52 222.656 8.534 222.964 8.59C222.964 8.534 222.964 8.464 222.964 8.408L222.908 6.14C222.474 6.154 222.04 6.168 221.606 6.168C220.71 6.168 219.828 6.126 218.932 6.084L218.946 3.816C219.968 3.914 221.004 3.956 222.04 3.956C222.32 3.956 222.586 3.956 222.866 3.942ZM223.02 10.592C222.684 10.494 222.348 10.438 221.998 10.438C221.494 10.438 220.794 10.606 220.794 11.222C220.794 11.852 221.508 12.062 222.026 12.062C223.034 12.062 223.034 11.404 223.02 10.592ZM215.964 1.38L218.274 1.66C217.77 4.012 217.42 6.406 217.42 8.814C217.42 9.346 217.434 9.878 217.49 10.41C217.658 10.088 217.812 9.766 217.98 9.458L218.834 10.424C218.33 11.474 217.882 12.58 217.784 13.756L215.908 13.938C215.376 12.23 215.222 10.396 215.222 8.604C215.222 6.182 215.516 3.76 215.964 1.38ZM230.916 2.542H242.13V13.546H239.82V12.832H230.804V10.578H239.82V4.796H230.916V2.542ZM247.38 1.31H249.76V11.18C252.686 10.382 255.22 8.562 257.012 6.126L258.622 7.778C255.822 11.418 251.916 13.462 247.38 14.022V1.31Z" fill="white"/>
<line x1="89" y1="19.9285" x2="261" y2="19.9285" stroke="white" stroke-width="2"/>
<g filter="url(#filter0_d_665_6262)">
<path d="M340.108 62.2311L339.169 66.5682L335.11 65.6895L336.049 61.3524L340.108 62.2311ZM343.81 45.133L340.245 59.5831L336.992 58.8789L339.75 44.2543L343.81 45.133Z" fill="white"/>
<path d="M332.027 38.1499V43.4431V65.9053H326.035V43.4431H321.747V38.1499H326.035H332.027Z" fill="url(#paint0_linear_665_6262)"/>
<path d="M310.465 60.1635C310.465 61.8151 311.185 62.6409 312.626 62.6409C313.112 62.6409 313.606 62.6409 314.108 62.6409C314.594 62.6409 315.079 62.6409 315.565 62.6409C317.023 62.6409 317.759 61.8151 317.775 60.1635C317.775 59.5967 317.775 59.0462 317.775 58.5118C317.775 57.9451 317.775 57.3946 317.775 56.8602C317.775 55.2248 317.047 54.399 315.59 54.3828C315.104 54.3828 314.61 54.3828 314.108 54.3828C313.622 54.3828 313.128 54.3828 312.626 54.3828C311.169 54.3828 310.448 55.2086 310.465 56.8602C310.465 57.4108 310.465 57.9613 310.465 58.5118C310.465 59.0624 310.465 59.6129 310.465 60.1635ZM310.975 50.8367C312.027 50.8367 313.072 50.8367 314.108 50.8367C315.128 50.8367 316.164 50.8367 317.217 50.8367C320.358 50.8367 321.921 52.3668 321.905 55.4272C321.905 56.4635 321.905 57.4917 321.905 58.5118C321.905 59.532 321.905 60.5521 321.905 61.5722C321.905 64.6649 320.342 66.2113 317.217 66.2113C316.181 66.2113 315.144 66.2113 314.108 66.2113C313.072 66.2113 312.027 66.2113 310.975 66.2113C307.866 66.2113 306.319 64.6649 306.336 61.5722C306.336 60.5521 306.336 59.532 306.336 58.5118C306.336 57.4593 306.336 56.4311 306.336 55.4272C306.336 52.3668 307.882 50.8367 310.975 50.8367Z" fill="url(#paint1_linear_665_6262)"/>
<path d="M289.235 46.3432H289.697L299.728 60.4306V46.3432H303.833V66.2112H299.728H299.631L289.235 52.0024V66.2112H285.13V46.3432H289.235Z" fill="url(#paint2_linear_665_6262)"/>
<path d="M305.438 32.0887C304.913 32.6452 304.484 33.0426 303.864 33.4878L302.401 30.5943C303.403 29.8471 304.198 28.9885 304.85 27.9233L308.172 28.1936C308.077 28.4003 307.998 28.5752 307.902 28.7819H317.934V31.262H306.185C306.058 31.4051 305.931 31.5482 305.804 31.6913H316.726V33.6945H305.438V32.0887ZM305.47 39.5451C304.786 39.0681 304.198 38.6866 303.451 38.305L305.152 36.4608H302.688V34.1555H315.263C315.215 35.1571 315.184 36.1428 315.184 37.1285C315.184 37.844 315.231 39.1317 315.406 39.7518C315.438 39.879 315.549 40.0697 315.692 40.0697C316.09 40.0697 316.869 38.623 317.092 38.1619L318.204 41.4211C317.6 42.375 316.63 43.4561 315.406 43.4561C314.548 43.4561 313.737 42.9315 313.276 42.2478C312.322 40.8329 312.242 38.146 312.211 36.4608H309.81L311.654 37.4942C311.193 38.2573 310.748 38.8297 310.128 39.4815C310.748 40.0061 311.368 40.5308 311.972 41.0872L309.715 43.2176C309.111 42.5499 308.459 41.9458 307.775 41.3734C306.694 42.0888 305.549 42.7089 304.373 43.2812L302.799 40.7057C303.753 40.4036 304.595 40.0538 305.47 39.5451ZM307.886 37.7645C308.331 37.367 308.681 36.9378 309.047 36.4608H305.804C306.519 36.8583 307.219 37.3034 307.886 37.7645Z" fill="white"/>
<path d="M291.036 28.1619H294.215V31.0236C294.215 33.1222 294.565 34.9505 295.71 36.7312C296.87 38.5277 298.492 39.6883 300.416 40.5468L298.46 43.3926C295.487 41.6438 293.77 39.8791 292.609 36.5881C291.369 39.8632 289.621 41.5961 286.679 43.3926L284.74 40.6263C288.778 38.9569 291.036 35.3798 291.036 31.0395V28.1619Z" fill="white"/>
</g>
<path d="M341.748 35.6243C341.748 35.9923 341.452 36.2883 341.084 36.2883C340.716 36.2883 340.42 35.9923 340.42 35.6243C340.42 35.2563 340.716 34.9603 341.084 34.9603C341.452 34.9603 341.748 35.2563 341.748 35.6243ZM343.988 40.4163L343.612 40.7923L341.084 38.2563L338.556 40.7923L338.18 40.4163L340.716 37.8883L338.18 35.3603L338.556 34.9843L341.084 37.5203L343.612 34.9843L343.988 35.3603L341.452 37.8883L343.988 40.4163ZM339.484 37.8883C339.484 38.2563 339.188 38.5523 338.82 38.5523C338.452 38.5523 338.156 38.2563 338.156 37.8883C338.156 37.5203 338.452 37.2243 338.82 37.2243C339.188 37.2243 339.484 37.5203 339.484 37.8883ZM344.012 37.8883C344.012 38.2563 343.716 38.5523 343.348 38.5523C342.98 38.5523 342.684 38.2563 342.684 37.8883C342.684 37.5203 342.98 37.2243 343.348 37.2243C343.716 37.2243 344.012 37.5203 344.012 37.8883ZM341.748 40.1523C341.748 40.5203 341.452 40.8163 341.084 40.8163C340.716 40.8163 340.42 40.5203 340.42 40.1523C340.42 39.7843 340.716 39.4883 341.084 39.4883C341.452 39.4883 341.748 39.7843 341.748 40.1523Z" fill="white"/>
<path d="M253.396 42.5093L259.205 43.2017C258.141 48.3368 257.514 53.5585 257.514 58.8378C257.514 59.6168 257.541 60.3957 257.569 61.1458C257.841 60.4534 258.141 59.7322 258.441 59.0109L260.023 61.492C259.123 63.6556 258.496 65.9059 258.087 68.2138L253.369 68.7042C252.251 65.0692 252.033 61.2035 252.033 57.4242C252.033 52.4334 252.551 47.4425 253.396 42.5093ZM261.387 44.9326C263.186 45.0768 265.014 45.1634 266.813 45.1634C269.65 45.1634 272.459 44.9614 275.24 44.5287L275.131 50.2697C272.349 50.6447 269.541 50.8467 266.704 50.8467C264.877 50.8467 263.077 50.7601 261.25 50.587L261.387 44.9326ZM265.859 57.5108C265.45 58.1743 265.068 58.9532 265.068 59.7899C265.068 61.5208 268.204 61.3477 269.322 61.3477C271.722 61.3477 274.122 61.0592 276.467 60.5976L276.249 66.5405C274.04 66.8867 271.831 67.0887 269.622 67.0887C265.504 67.0887 260.159 66.6559 260.159 61.0015C260.159 59.386 260.678 57.8858 261.414 56.5299L265.859 57.5108Z" fill="white"/>
<path d="M234.988 56.8473C234.361 59.8764 233.298 62.2998 231.389 64.6654C229.862 66.5694 228.198 68.0407 226.18 69.3678L223.017 63.8576C229.098 60.4534 230.107 56.6165 230.107 49.7216H223.562V44.3268H233.843V41.615H239.079V44.3268H249.578V49.7216H235.588C235.588 50.3274 235.588 50.9621 235.561 51.5679H247.26C247.178 54.7413 246.933 63.7711 245.87 66.3386C244.942 68.56 243.279 69.1658 241.152 69.1658H235.588L234.498 63.6268H238.561C239.734 63.6268 240.661 63.5691 241.152 61.9247C241.452 60.915 241.615 59.3572 241.615 56.8473H234.988Z" fill="white"/>
<path d="M202.373 45.6538C202.809 44.1825 203.164 42.6824 203.518 41.2111L209.245 42.3362C208.945 43.2882 208.645 44.2114 208.345 45.1634C209.245 45.0191 210.145 44.8749 211.072 44.6729L210.718 50.3851C209.3 50.587 207.881 50.7601 206.463 50.9332C204.882 55.5779 203.164 60.1937 201.173 64.6653L195.882 62.3863C197.682 58.809 199.237 55.1163 200.6 51.3082C199.537 51.3082 198.473 51.3371 197.437 51.3371L197.273 45.5673C198.609 45.625 199.946 45.6538 201.282 45.6538C201.664 45.6538 202.018 45.6538 202.373 45.6538ZM213.254 45.5096C216.363 46.2596 219.417 47.2694 222.362 48.5964L220.644 54.0489C219.744 53.5008 218.708 52.9238 217.644 52.9238C216.39 52.9238 216.008 53.9046 216.008 55.0586C216.008 56.1549 216.172 57.2223 216.335 58.2897C218.544 59.2417 220.59 60.5399 222.553 61.9535L219.99 66.9444C218.926 66.1655 217.835 65.4154 216.717 64.6653C216.199 68.0118 213.227 69.1369 210.39 69.1369C206.9 69.1369 203.273 67.3771 203.273 63.194C203.273 61.3765 204.064 59.5879 205.427 58.4916C206.763 57.4242 208.59 57.0203 210.227 57.0203C210.418 57.0203 210.609 57.0492 210.799 57.0492C210.718 56.3568 210.663 55.6644 210.663 54.9432C210.663 52.8949 211.263 51.741 213.008 50.7889C212.408 50.6158 211.808 50.4716 211.208 50.3562L213.254 45.5096ZM211.29 62.1266C210.772 61.9535 210.254 61.8381 209.709 61.8381C208.972 61.8381 207.909 62.1266 207.909 63.1075C207.909 64.0884 209.054 64.3191 209.79 64.3191C210.581 64.3191 211.372 64.0018 211.372 63.0209C211.372 62.7324 211.345 62.444 211.29 62.1266Z" fill="white"/>
<path d="M155.71 30.9532H170.703V28.2949H178.87V30.9532H193.737V42.6051H185.78V38.3962H163.751V42.6051H155.71V30.9532ZM174.64 43.7127H194.784V51.7317H189.131C188.293 54.5228 187.372 56.6494 185.738 59.0418C188.754 60.1937 191.434 61.4342 194.324 62.9406L189.256 70.6494C185.99 68.5229 182.849 66.8836 179.331 65.333C176.315 67.1494 172.714 68.3899 169.028 69.2317C165.133 70.1178 161.071 70.6051 157.469 70.871L154.957 61.9659C156.171 62.0102 157.427 62.0545 158.642 62.0545C161.825 62.0545 164.924 61.833 168.023 61.0798C164.421 59.9722 160.778 58.9975 157.051 58.2C158.684 56.0292 159.982 54.0798 161.322 51.7317H154.58V43.7127H165.301C166.013 42.0734 166.641 40.3899 167.269 38.7506L175.98 39.9911C175.603 41.276 175.143 42.4722 174.64 43.7127ZM170.913 51.7317C170.452 52.5735 169.991 53.3709 169.531 54.1684C172.127 54.833 174.724 55.4532 177.279 56.2507C178.619 54.833 179.414 53.5038 180.294 51.7317H170.913Z" fill="white"/>
<path d="M136.739 48.4533V70.7381H128.656V51.4659C125.096 55.5419 121.076 59.352 116.469 62.0103L112.281 53.5482C118.605 50.314 125.766 44.4216 129.033 37.6874H112.867V29.4026H152.821V37.6874H137.66C137.199 38.795 136.655 39.8583 136.069 40.9216H136.739V43.7127L141.346 41.2317C145.24 46.9026 147.879 50.0925 153.407 54.1242L148.675 62.1432C144.068 58.2887 139.964 53.6811 136.739 48.4533Z" fill="white"/>
<path d="M91.2874 48.1059C91.6964 45.9423 91.9964 43.7786 92.2964 41.5861L98.0232 42.4804C97.7233 44.2402 97.396 45.9711 97.0415 47.6732C98.5959 47.7309 100.232 47.9328 101.514 48.9714C103.914 50.9331 104.132 53.9911 104.132 56.9337C104.132 59.5879 103.832 64.0595 102.305 66.1943C101.05 68.0118 99.2504 68.6176 97.2051 68.6176C96.0052 68.6176 94.8053 68.4734 93.6054 68.2137L93.6326 62.5305C94.4508 62.7613 95.3507 62.9632 96.2234 62.9632C97.0142 62.9632 97.7505 62.7036 98.0232 61.8381C98.5141 60.3379 98.5687 57.6838 98.5687 56.0683C98.5687 54.2796 98.4323 53.068 96.4415 53.068C96.2234 53.068 96.0052 53.0968 95.787 53.0968C94.3417 58.7512 92.4327 64.2614 89.4875 69.2523L84.6333 66.0212C86.8968 62.1843 88.7785 58.1166 89.9784 53.7892C88.533 53.9911 87.0604 54.2219 85.6151 54.5104L85.0151 48.8272L91.2874 48.1059ZM108.25 43.0285L109.831 41.6149C110.813 42.4804 111.659 43.5189 112.395 44.6441L110.731 46.0288C110.022 44.9325 109.204 43.9228 108.25 43.0285ZM106.095 44.9325L107.677 43.5189C108.659 44.4133 109.504 45.423 110.241 46.5769L108.577 47.9617C107.868 46.8366 107.05 45.8269 106.095 44.9325ZM104.977 44.9037C108.741 48.2213 110.759 53.2699 111.113 58.3762L106.041 60.2514C105.714 55.2605 104.732 51.337 101.378 47.5867L104.977 44.9037Z" fill="white"/>
<path d="M49.3283 48.719C48.3232 49.3393 47.2762 49.9152 46.2292 50.4469L42.8369 42.6051C45.7685 41.4975 48.6582 39.9025 51.0873 37.8646H44.0933V30.6873H59.9659V28.3392H67.6299V30.6873H83.2931V37.8646H76.3829C78.7282 39.9912 81.6598 41.4532 84.6332 42.295L81.3666 50.4469C80.2358 49.9595 79.1888 49.3836 78.1 48.8076V62.0545H83.6281V69.4532H43.7583V62.0545H49.3283V48.719ZM57.5787 41.9405H59.9659V39.0608C59.212 40.0798 58.4163 41.0101 57.5787 41.9405ZM67.6299 41.9405H69.8077C69.0539 41.0545 68.3419 40.1241 67.6299 39.1494V41.9405ZM70.7291 48.0988H56.8249V49.5165H70.7291V48.0988ZM70.7291 54.4342H56.8249V55.8519H70.7291V54.4342ZM70.7291 60.6811H56.8249V62.0988H70.7291V60.6811Z" fill="white"/>
<path d="M7.86713 42.3835C7.28081 42.3392 6.73637 42.3392 6.19193 42.2506L5.68937 40.3456H2.8834V30.1114H17.8765V28.162H25.7499V30.1114H40.743V40.3456H36.6806L37.3088 41.3645C36.9319 41.4532 36.5131 41.4975 36.0524 41.4975C35.843 42.1177 35.3405 43.4025 35.0473 44.0228H41.7062V50.0481H34.2935C37.1413 51.4658 39.5704 52.3076 42.6695 53.0608L38.984 59.9279C38.3558 59.7064 37.8952 59.5291 37.3088 59.219V70.6937H29.6867V69.6747H13.6047V70.6937H6.19193V59.0418C5.60561 59.3076 5.06117 59.5734 4.47485 59.795L0.915039 52.5734C3.55348 52.3076 6.27569 51.2443 8.66286 50.0481H1.8364V44.0228H8.45346C8.28593 43.4911 8.07653 42.9152 7.86713 42.3835ZM10.5056 37.1114C12.3902 37.1557 14.3167 37.1557 16.2432 37.1557C21.8132 37.1557 27.4251 37.1114 32.9952 36.4911V35.8266H10.5056V37.1114ZM25.1636 42.0734V44.0228H27.8439C28.0952 43.4025 28.3465 42.6494 28.5559 41.8962L25.1636 42.0734ZM15.3637 42.4278C15.5312 43.0038 15.6987 43.5797 15.8244 44.0228H18.1278V42.3835C17.1226 42.4278 16.285 42.4278 15.3637 42.4278ZM15.4893 52.8836H18.1278V50.0481H18.044C17.3739 50.9342 16.4526 51.9975 15.4893 52.8836ZM25.3311 50.0481H25.1636V52.8836H28.0952C27.0901 51.9975 26.1687 51.0671 25.3311 50.0481ZM18.1278 57.5355H13.6047V58.9532H18.1278V57.5355ZM29.6867 57.5355H25.1636V58.9532H29.6867V57.5355ZM18.1278 62.6747H13.6047V64.0924H18.1278V62.6747ZM29.6867 62.6747H25.1636V64.0924H29.6867V62.6747Z" fill="white"/>
<defs>
<filter id="filter0_d_665_6262" x="284.74" y="27.9233" width="61.0698" height="40.6449" filterUnits="userSpaceOnUse" color-interpolation-filters="sRGB">
<feFlood flood-opacity="0" result="BackgroundImageFix"/>
<feColorMatrix in="SourceAlpha" type="matrix" values="0 0 0 0 0 0 0 0 0 0 0 0 0 0 0 0 0 0 127 0" result="hardAlpha"/>
<feOffset dx="2" dy="2"/>
<feComposite in2="hardAlpha" operator="out"/>
<feColorMatrix type="matrix" values="0 0 0 0 0.758333 0 0 0 0 0.126389 0 0 0 0 0.126389 0 0 0 1 0"/>
<feBlend mode="normal" in2="BackgroundImageFix" result="effect1_dropShadow_665_6262"/>
<feBlend mode="normal" in="SourceGraphic" in2="effect1_dropShadow_665_6262" result="shape"/>
</filter>
<linearGradient id="paint0_linear_665_6262" x1="324.878" y1="38.1499" x2="333.226" y2="39.5201" gradientUnits="userSpaceOnUse">
<stop stop-color="white"/>
<stop offset="0.525" stop-color="#FAE60F"/>
<stop offset="0.585" stop-color="#E6D737"/>
<stop offset="1" stop-color="#FFEA05"/>
</linearGradient>
<linearGradient id="paint1_linear_665_6262" x1="311.077" y1="50.8367" x2="321.886" y2="55.6867" gradientUnits="userSpaceOnUse">
<stop stop-color="white"/>
<stop offset="0.525" stop-color="#FAE60F"/>
<stop offset="0.585" stop-color="#E6D737"/>
<stop offset="1" stop-color="#FFEA05"/>
</linearGradient>
<linearGradient id="paint2_linear_665_6262" x1="290.827" y1="46.3432" x2="304.112" y2="51.8851" gradientUnits="userSpaceOnUse">
<stop stop-color="white"/>
<stop offset="0.525" stop-color="#FAE60F"/>
<stop offset="0.585" stop-color="#E6D737"/>
<stop offset="1" stop-color="#FFEA05"/>
</linearGradient>
</defs>
</svg>
