<svg width="352" height="78" viewBox="0 0 352 78" fill="none" xmlns="http://www.w3.org/2000/svg">
<path d="M63.12 14.2327C63.386 13.3367 63.568 12.4267 63.638 11.4887L65.864 12.0347C65.724 13.2107 65.458 14.3447 65.08 15.4647C65.668 15.9127 66.256 16.3607 66.83 16.8507L65.626 19.0067C65.136 18.5587 64.618 18.1107 64.1 17.6767C63.414 18.9787 62.504 20.1687 61.384 21.1207L59.438 19.8047C60.614 18.8527 61.538 17.6907 62.252 16.3467C61.496 15.8707 60.712 15.4227 59.844 15.1567C59.354 16.1927 58.766 17.2147 58.094 18.1387C57.52 18.9087 56.764 19.7207 55.714 19.7207C54.258 19.7207 53.614 18.2927 53.614 17.0327C53.614 14.5967 55.644 12.6507 58.052 12.6507C58.248 12.6507 58.444 12.6787 58.64 12.6927C58.934 12.0067 59.214 11.3207 59.48 10.6207C58.472 10.7327 57.45 10.8027 56.428 10.8027C56.232 10.8027 56.036 10.8027 55.84 10.8027L55.812 8.56274C56.372 8.59074 56.946 8.60474 57.52 8.60474C58.696 8.60474 59.886 8.57674 61.034 8.31074L62.392 9.36074C61.846 10.6207 61.328 11.8947 60.796 13.1687C61.594 13.4487 62.378 13.8127 63.12 14.2327ZM57.66 14.7507C57.31 14.7787 56.974 14.8487 56.666 15.0447C55.994 15.4367 55.532 16.2347 55.532 17.0047C55.532 17.1447 55.546 17.4667 55.742 17.4667C56.12 17.4667 56.848 16.2907 57.66 14.7507ZM74.586 7.72274L76.728 8.74474C75.902 10.2007 75.104 11.6707 74.362 13.1687C74.824 12.9027 75.328 12.7487 75.86 12.7487C77.078 12.7487 78.086 13.5607 78.086 14.8207C78.086 15.4507 77.974 16.0667 77.89 16.6687C77.834 17.0607 77.75 17.4667 77.75 17.8587C77.75 18.2087 77.96 18.4607 78.324 18.4607C79.514 18.4607 80.228 16.3747 80.466 15.4367L82.37 16.6547C81.726 18.6427 80.466 20.7287 78.114 20.7287C76.462 20.7287 75.454 19.7627 75.454 18.1107C75.454 17.4247 75.594 16.7387 75.706 16.0667C75.734 15.8567 75.776 15.6607 75.776 15.4647C75.776 15.1147 75.482 14.9047 75.16 14.9047C74.726 14.9047 74.292 15.1567 73.942 15.3807C73.382 15.7587 72.976 16.2767 72.626 16.8507C71.912 18.0407 71.324 19.4547 70.764 20.7287L68.706 19.6087L74.586 7.72274ZM87.55 9.93474C87.788 9.19274 88.012 8.45074 88.208 7.69474L90.546 8.15674C90.378 8.68874 90.196 9.20674 90.014 9.73874C90.602 9.66874 91.176 9.57074 91.75 9.45874L91.638 11.6567C90.84 11.7827 90.042 11.8807 89.244 11.9647C88.404 14.2467 87.466 16.5007 86.444 18.7127L84.26 17.7327C85.226 15.9267 86.094 14.0507 86.794 12.1187C86.164 12.1467 85.534 12.1467 84.904 12.1467L84.834 9.90674C85.38 9.93474 85.926 9.94874 86.486 9.94874C86.836 9.94874 87.2 9.94874 87.55 9.93474ZM92.884 9.83674C94.424 10.1867 95.908 10.6627 97.35 11.2787L96.608 13.3787C96.188 13.1547 95.712 12.9027 95.208 12.9027C94.382 12.9027 93.99 13.5607 93.99 14.3167C93.99 14.9187 94.088 15.5347 94.186 16.1227C95.362 16.5847 96.342 17.1027 97.392 17.8167L96.314 19.7907C95.698 19.3427 95.054 18.9367 94.382 18.5587C94.312 20.2527 92.758 20.9387 91.26 20.9387C89.636 20.9387 87.746 20.2107 87.746 18.3067C87.746 17.5507 88.082 16.8227 88.656 16.3327C89.37 15.7307 90.336 15.5627 91.232 15.5627C91.456 15.5627 91.68 15.5767 91.904 15.6047C91.848 15.1567 91.806 14.7087 91.806 14.2607C91.806 13.1687 92.212 12.5247 93.164 12.0207C92.786 11.9227 92.394 11.8387 91.988 11.7687L92.884 9.83674ZM92.128 17.6487C91.778 17.5647 91.428 17.5087 91.078 17.5087C90.602 17.5087 89.762 17.5927 89.762 18.2367C89.762 18.8527 90.588 19.0067 91.064 19.0067C91.652 19.0067 92.17 18.8247 92.17 18.1387C92.17 17.9847 92.156 17.8167 92.128 17.6487ZM105.484 10.8587C108.466 10.8447 109.208 12.3707 109.208 15.0867C109.208 16.3747 109.068 18.3767 108.382 19.4827C107.836 20.3367 106.814 20.6587 105.848 20.6587C105.26 20.6587 104.672 20.5887 104.084 20.4907L104.098 18.2787C104.574 18.3907 105.064 18.4607 105.554 18.4607C106.366 18.4607 106.604 18.0267 106.744 17.2987C106.884 16.4867 106.94 15.6467 106.94 14.8207C106.94 13.7987 106.842 12.9867 105.596 12.9867C105.386 12.9867 105.176 13.0007 104.966 13.0147C104.238 15.7727 103.216 18.4747 101.718 20.9107L99.744 19.6227C101.004 17.6347 101.942 15.5067 102.6 13.2667C101.718 13.3647 100.85 13.5047 99.968 13.6447L99.716 11.4327L103.146 11.0407C103.356 9.97674 103.538 8.91274 103.678 7.83474L105.988 8.24074C105.848 9.12274 105.68 9.99074 105.484 10.8587ZM109.544 9.54274C111.35 11.1807 112.442 13.4627 112.694 15.8847L110.538 16.6547C110.328 14.3867 109.614 12.3287 107.976 10.6907L109.544 9.54274ZM110.146 9.51474L110.93 8.85674C111.406 9.29074 111.826 9.76674 112.204 10.2987L111.378 10.9567C111.014 10.4247 110.608 9.96274 110.146 9.51474ZM111.28 8.60474L112.05 7.93274C112.526 8.38074 112.946 8.85674 113.324 9.38874L112.512 10.0327C112.148 9.51474 111.742 9.05274 111.28 8.60474ZM118.728 10.2147L117.328 11.6007C116.74 10.8027 115.886 9.93474 115.088 9.33274L116.558 7.86274C117.258 8.36674 118.168 9.23474 118.728 9.89274V9.72474H121.108V9.26274H118.63V8.08674H122.886V10.7607H120.52V11.1667C120.52 11.3347 120.548 11.4327 120.758 11.4327H121.304C121.528 11.4327 121.64 11.3347 121.682 10.9147L123.18 11.0967C123.152 11.4187 123.096 11.7967 122.942 12.1047C122.802 12.3847 122.578 12.5947 122.2 12.5947H119.694C119.022 12.5947 118.728 12.2867 118.728 11.6287V10.2147ZM123.418 8.08674H127.8V10.7607H125.224V11.1527C125.224 11.2787 125.238 11.4327 125.546 11.4327H126.428C126.638 11.4327 126.75 11.2787 126.764 10.9007L128.332 11.1107C128.29 11.4187 128.234 11.7967 128.08 12.0907C127.926 12.3847 127.702 12.5947 127.31 12.5947H124.454C123.88 12.5947 123.474 12.2587 123.474 11.7687V9.72474H126.022V9.26274H123.418V8.08674ZM127.408 18.7827H128.514L128.066 20.7567H121.5C120.772 20.7567 120.002 20.6727 119.302 20.4627C118.602 20.2527 118.098 19.8747 117.636 19.3007C117.062 19.9727 116.334 20.6027 115.578 21.0787L114.822 18.8947C115.298 18.6707 115.83 18.3207 116.236 17.9847V14.9187H115.018V12.9447H118.28V17.0467C118.532 17.9287 119.036 18.3487 119.904 18.6007L118.98 17.3827C119.764 17.2287 120.45 17.0187 121.178 16.6967H118.672V15.2127H120.506V14.5267H118.896V13.1827H120.506V12.8187H122.424V13.1827H124.356V12.8187H126.26V13.1827H127.912V14.5267H126.26V15.2127H128.262V16.6967H125.98C126.68 17.0047 127.506 17.2987 128.248 17.4387L127.408 18.7827ZM124.356 14.5267H122.424V15.2127H124.356V14.5267ZM126.75 18.7827C125.84 18.4607 124.888 17.9987 124.09 17.4667L124.986 16.6967H121.976L122.984 17.4667C122.242 17.9707 121.43 18.3907 120.604 18.7267C120.982 18.7827 121.584 18.7827 121.962 18.7827H126.75ZM136.186 7.72274L138.328 8.74474C137.502 10.2007 136.704 11.6707 135.962 13.1687C136.424 12.9027 136.928 12.7487 137.46 12.7487C138.678 12.7487 139.686 13.5607 139.686 14.8207C139.686 15.4507 139.574 16.0667 139.49 16.6687C139.434 17.0607 139.35 17.4667 139.35 17.8587C139.35 18.2087 139.56 18.4607 139.924 18.4607C141.114 18.4607 141.828 16.3747 142.066 15.4367L143.97 16.6547C143.326 18.6427 142.066 20.7287 139.714 20.7287C138.062 20.7287 137.054 19.7627 137.054 18.1107C137.054 17.4247 137.194 16.7387 137.306 16.0667C137.334 15.8567 137.376 15.6607 137.376 15.4647C137.376 15.1147 137.082 14.9047 136.76 14.9047C136.326 14.9047 135.892 15.1567 135.542 15.3807C134.982 15.7587 134.576 16.2767 134.226 16.8507C133.512 18.0407 132.924 19.4547 132.364 20.7287L130.306 19.6087L136.186 7.72274ZM149.318 9.96274C149.486 9.22074 149.612 8.46474 149.738 7.70874L152.062 7.94674C151.95 8.56274 151.796 9.16474 151.67 9.78074C152.566 9.66874 153.448 9.50074 154.316 9.30474L154.4 11.4887C153.322 11.6847 152.244 11.8667 151.152 11.9787C150.424 14.9327 149.5 17.8727 148.254 20.6727L146.014 19.7907C146.644 18.5027 147.218 17.1727 147.694 15.8147C148.114 14.6107 148.464 13.3927 148.8 12.1607C148.128 12.2027 147.442 12.2027 146.77 12.2027C146.658 12.2027 146.56 12.2027 146.462 12.2027L146.434 9.96274C146.924 9.97674 147.4 10.0047 147.876 10.0047C148.352 10.0047 148.842 9.99074 149.318 9.96274ZM155.338 9.80874L156.108 9.09474C156.598 9.51474 157.032 9.96274 157.438 10.4807L156.626 11.1807C156.248 10.6767 155.814 10.2287 155.338 9.80874ZM151.67 15.9127L153.476 16.6547C153.182 16.9487 152.762 17.3547 152.762 17.8167C152.762 18.5027 154.316 18.5447 155.058 18.5447C156.262 18.5447 157.214 18.4607 158.614 18.2507V20.5047C157.522 20.6167 156.43 20.6867 155.324 20.6867C154.232 20.6867 153.07 20.6447 152.062 20.2247C151.222 19.8747 150.564 19.1187 150.564 18.1807C150.564 17.2987 151.068 16.5287 151.67 15.9127ZM156.542 8.73074L157.298 8.01674C157.802 8.43674 158.236 8.88474 158.628 9.40274L157.83 10.1027C157.452 9.59874 157.018 9.15074 156.542 8.73074ZM152.496 12.2587C153.532 12.1047 154.582 12.0207 155.646 12.0207C156.57 12.0207 157.508 12.0767 158.432 12.1747L158.222 14.3027C157.27 14.2047 156.318 14.1347 155.352 14.1347C154.316 14.1347 153.28 14.1907 152.244 14.3307L152.496 12.2587ZM166.272 10.4527C166.314 9.58474 166.342 8.70274 166.342 7.82074H168.638C168.638 8.70274 168.638 9.58474 168.582 10.4527H173.636C173.552 12.4827 173.356 17.1867 172.614 18.9227C172.04 20.2527 170.99 20.5747 169.632 20.5747C169.24 20.5747 168.834 20.5607 168.428 20.5327L167.966 18.2367C168.498 18.2927 169.016 18.3487 169.548 18.3487C170.43 18.3487 170.64 17.7607 170.794 17.0047C171.102 15.5907 171.2 14.1067 171.27 12.6647H168.372C167.938 16.2207 166.482 18.7967 163.444 20.7567L161.75 19.0767C163.01 18.2927 164.172 17.2847 164.942 15.9967C165.558 14.9747 165.88 13.8407 166.076 12.6647H161.806V10.4527H166.272ZM176.898 13.3227H189.666V15.5487H176.898V13.3227ZM197.8 13.3927L198.542 11.9787C200.53 12.9167 202.406 14.0507 204.17 15.3527L202.826 17.3687C201.258 16.1367 199.578 15.0307 197.8 14.1487V20.8967H195.434V7.93274H197.8V13.3927ZM200.964 10.1867L201.762 9.43074C202.308 9.87874 202.784 10.3547 203.218 10.9007L202.364 11.6707C201.944 11.1247 201.482 10.6487 200.964 10.1867ZM202.294 9.02474L203.106 8.25474C203.638 8.70274 204.114 9.19274 204.548 9.73874L203.708 10.5087C203.274 9.96274 202.826 9.47274 202.294 9.02474ZM217.428 19.6227H210.736V20.4067H208.44V9.08074H219.724V20.4067H217.428V19.6227ZM217.428 17.4387V11.3067H210.736V17.4387H217.428ZM223.098 13.3227H235.866V15.5487H223.098V13.3227ZM240.248 8.35274C241.788 9.10874 243.23 10.0467 244.56 11.1527L243.062 13.0287C241.774 11.9367 240.388 10.9987 238.918 10.2007L240.248 8.35274ZM239.086 18.5027C243.958 17.5927 247.248 15.2687 249.768 11.0127L251.406 12.9027C248.816 17.0607 244.994 19.8047 240.164 20.7987L239.086 18.5027ZM261.948 10.6767L261.878 8.05874H264.132L264.188 10.5507C264.93 10.4667 265.658 10.3687 266.4 10.2427L266.386 12.5107C265.672 12.6087 264.958 12.6787 264.23 12.7487L264.286 15.6467C264.286 15.7307 264.286 15.8147 264.3 15.8987C265.266 16.2767 266.176 16.7947 267.016 17.4107L266.134 19.4827C265.56 19.0067 264.944 18.6007 264.286 18.2367C264.216 20.0287 262.998 20.7287 261.332 20.7287C259.624 20.7287 257.888 19.9447 257.888 17.9987C257.888 16.1227 259.4 15.2547 261.108 15.2547C261.416 15.2547 261.738 15.2687 262.046 15.3247C262.046 15.2687 262.046 15.1987 262.046 15.1427L261.99 12.8747C261.556 12.8887 261.122 12.9027 260.688 12.9027C259.792 12.9027 258.91 12.8607 258.014 12.8187L258.028 10.5507C259.05 10.6487 260.086 10.6907 261.122 10.6907C261.402 10.6907 261.668 10.6907 261.948 10.6767ZM262.102 17.3267C261.766 17.2287 261.43 17.1727 261.08 17.1727C260.576 17.1727 259.876 17.3407 259.876 17.9567C259.876 18.5867 260.59 18.7967 261.108 18.7967C262.116 18.7967 262.116 18.1387 262.102 17.3267ZM255.046 8.11474L257.356 8.39474C256.852 10.7467 256.502 13.1407 256.502 15.5487C256.502 16.0807 256.516 16.6127 256.572 17.1447C256.74 16.8227 256.894 16.5007 257.062 16.1927L257.916 17.1587C257.412 18.2087 256.964 19.3147 256.866 20.4907L254.99 20.6727C254.458 18.9647 254.304 17.1307 254.304 15.3387C254.304 12.9167 254.598 10.4947 255.046 8.11474ZM269.998 9.27674H281.212V20.2807H278.902V19.5667H269.886V17.3127H278.902V11.5307H269.998V9.27674ZM286.462 8.04474H288.842V17.9147C291.768 17.1167 294.302 15.2967 296.094 12.8607L297.704 14.5127C294.904 18.1527 290.998 20.1967 286.462 20.7567V8.04474Z" fill="white"/>
<line x1="53.082" y1="26.7347" x2="300.082" y2="26.7347" stroke="white" stroke-width="2"/>
<g filter="url(#filter0_d_665_7541)">
<path d="M345.854 71.3513L344.958 75.488L341.087 74.6499L341.982 70.5132L345.854 71.3513ZM349.384 55.0432L345.984 68.8256L342.882 68.154L345.513 54.2052L349.384 55.0432Z" fill="white"/>
<path d="M338.146 48.3828V53.4314V74.8557H332.431V53.4314H328.341V48.3828H332.431H338.146Z" fill="url(#paint0_linear_665_7541)"/>
<path d="M317.58 69.3792C317.58 70.9545 318.267 71.7421 319.642 71.7421C320.105 71.7421 320.576 71.7421 321.055 71.7421C321.518 71.7421 321.982 71.7421 322.445 71.7421C323.835 71.7421 324.538 70.9545 324.553 69.3792C324.553 68.8386 324.553 68.3135 324.553 67.8039C324.553 67.2633 324.553 66.7382 324.553 66.2286C324.553 64.6687 323.858 63.8811 322.468 63.8656C322.005 63.8656 321.534 63.8656 321.055 63.8656C320.592 63.8656 320.121 63.8656 319.642 63.8656C318.252 63.8656 317.565 64.6533 317.58 66.2286C317.58 66.7537 317.58 67.2788 317.58 67.8039C317.58 68.329 317.58 68.8541 317.58 69.3792ZM318.066 60.4833C319.07 60.4833 320.066 60.4833 321.055 60.4833C322.028 60.4833 323.016 60.4833 324.02 60.4833C327.016 60.4833 328.507 61.9428 328.491 64.8618C328.491 65.8502 328.491 66.8309 328.491 67.8039C328.491 68.7769 328.491 69.7498 328.491 70.7228C328.491 73.6727 327.001 75.1476 324.02 75.1476C323.032 75.1476 322.043 75.1476 321.055 75.1476C320.066 75.1476 319.07 75.1476 318.066 75.1476C315.101 75.1476 313.626 73.6727 313.642 70.7228C313.642 69.7498 313.642 68.7769 313.642 67.8039C313.642 66.8 313.642 65.8193 313.642 64.8618C313.642 61.9428 315.117 60.4833 318.066 60.4833Z" fill="url(#paint1_linear_665_7541)"/>
<path d="M297.332 56.1975H297.772L307.34 69.6339V56.1975H311.255V75.1475H307.34H307.247L297.332 61.5952V75.1475H293.417V56.1975H297.332Z" fill="url(#paint2_linear_665_7541)"/>
<path d="M312.785 42.6017C312.285 43.1324 311.876 43.5115 311.284 43.9361L309.889 41.1763C310.844 40.4636 311.603 39.6448 312.224 38.6288L315.394 38.8866C315.303 39.0837 315.227 39.2505 315.136 39.4476H324.704V41.8132H313.498C313.377 41.9497 313.256 42.0861 313.134 42.2226H323.552V44.1332H312.785V42.6017ZM312.816 49.7135C312.164 49.2586 311.603 48.8947 310.89 48.5308L312.512 46.7718H310.162V44.573H322.157C322.111 45.5283 322.081 46.4685 322.081 47.4086C322.081 48.091 322.126 49.3193 322.293 49.9107C322.323 50.032 322.43 50.2139 322.566 50.2139C322.945 50.2139 323.688 48.834 323.901 48.3943L324.962 51.5029C324.386 52.4127 323.461 53.4438 322.293 53.4438C321.474 53.4438 320.701 52.9434 320.261 52.2914C319.351 50.9418 319.276 48.3791 319.245 46.7718H316.955L318.714 47.7574C318.275 48.4853 317.85 49.0312 317.259 49.6529C317.85 50.1533 318.442 50.6537 319.018 51.1844L316.865 53.2164C316.288 52.5795 315.667 52.0033 315.015 51.4574C313.983 52.1397 312.892 52.7311 311.769 53.277L310.268 50.8205C311.178 50.5324 311.982 50.1988 312.816 49.7135ZM315.121 48.0152C315.545 47.6361 315.879 47.2267 316.228 46.7718H313.134C313.817 47.1508 314.484 47.5754 315.121 48.0152Z" fill="white"/>
<path d="M299.049 38.8564H302.082V41.5859C302.082 43.5875 302.415 45.3313 303.507 47.0297C304.614 48.7432 306.161 49.8501 307.995 50.669L306.13 53.3833C303.295 51.7153 301.657 50.0321 300.55 46.8932C299.367 50.0169 297.699 51.6698 294.894 53.3833L293.044 50.7448C296.896 49.1526 299.049 45.7407 299.049 41.601V38.8564Z" fill="white"/>
</g>
<path d="M347.192 46.4633C347.192 46.8313 346.896 47.1273 346.528 47.1273C346.16 47.1273 345.864 46.8313 345.864 46.4633C345.864 46.0953 346.16 45.7993 346.528 45.7993C346.896 45.7993 347.192 46.0953 347.192 46.4633ZM349.432 51.2553L349.056 51.6313L346.528 49.0953L344 51.6313L343.624 51.2553L346.16 48.7273L343.624 46.1993L344 45.8233L346.528 48.3593L349.056 45.8233L349.432 46.1993L346.896 48.7273L349.432 51.2553ZM344.928 48.7273C344.928 49.0953 344.632 49.3913 344.264 49.3913C343.896 49.3913 343.6 49.0953 343.6 48.7273C343.6 48.3593 343.896 48.0633 344.264 48.0633C344.632 48.0633 344.928 48.3593 344.928 48.7273ZM349.456 48.7273C349.456 49.0953 349.16 49.3913 348.792 49.3913C348.424 49.3913 348.128 49.0953 348.128 48.7273C348.128 48.3593 348.424 48.0633 348.792 48.0633C349.16 48.0633 349.456 48.3593 349.456 48.7273ZM347.192 50.9913C347.192 51.3593 346.896 51.6553 346.528 51.6553C346.16 51.6553 345.864 51.3593 345.864 50.9913C345.864 50.6233 346.16 50.3273 346.528 50.3273C346.896 50.3273 347.192 50.6233 347.192 50.9913Z" fill="white"/>
<path d="M277.289 51.5947L283.2 41.5896H290.617L282.234 55.2012L290.532 74.7847H283.512L278.17 61.7936L277.289 63.2285V74.7847H270.952V41.5896H277.289V51.5947Z" fill="white"/>
<path d="M259.141 40.9691C266.36 40.9691 270.026 49.1515 270.026 58.1871C270.026 67.2227 266.331 75.4051 259.141 75.4051C251.952 75.4051 248.257 67.2227 248.257 58.1871C248.257 49.1515 251.923 40.9691 259.141 40.9691ZM259.141 48.1433C255.475 48.1433 254.793 54.3479 254.793 58.1871C254.793 62.0262 255.475 68.2309 259.141 68.2309C262.807 68.2309 263.489 62.0262 263.489 58.1871C263.489 54.3479 262.807 48.1433 259.141 48.1433Z" fill="white"/>
<path d="M225.689 42.5364H238.25C238.222 43.3019 238.222 44.1037 238.222 44.8691C238.222 49.0972 238.563 52.9972 239.529 56.8607C241.035 62.9476 244.701 67.3579 249.219 69.7999L245.696 76.47C239.927 72.3878 237.994 69.2168 235.124 61.7448C233.163 68.4513 229.554 73.299 224.553 76.47L221.313 70.0915C228.332 65.171 231.998 59.9953 232.851 49.4981H225.689V42.5364Z" fill="white"/>
<path d="M195.806 61.8177C195.436 62.328 195.124 62.6925 194.697 63.1663L193.788 52.6692C195.948 49.3159 196.8 45.5617 197.198 41.2972L202.228 41.8075C201.944 44.7963 201.489 47.4935 200.779 50.3729V76.3607H195.806V61.8177ZM204.786 41.6253H209.93V44.3225H212.771V41.6253H218.057V44.3225H220.643V50.2271H218.057V51.9766H221.24V57.8084H201.518V51.9766H204.786V50.2271H202.228V44.3225H204.786V41.6253ZM212.771 50.2271H209.93V51.9766H212.771V50.2271ZM219.62 58.8654V76.3607H214.42V75.3401H208.281V76.3607H203.138V58.8654H219.62ZM214.42 63.3486H208.281V64.5514H214.42V63.3486ZM214.42 68.743H208.281V70.0187H214.42V68.743Z" fill="white"/>
<path d="M189.663 62.4851L190.767 61.5473C191.304 62.2767 191.726 63.0686 192.083 63.9438L190.962 64.8607C190.621 63.9855 190.182 63.1936 189.663 62.4851ZM188.054 63.8188L189.159 62.881C189.679 63.6104 190.117 64.4022 190.475 65.2566L189.354 66.1944C189.013 65.3192 188.558 64.5273 188.054 63.8188ZM176.794 57.8171C177.964 57.7963 179.15 57.7963 180.32 57.6921L191.596 56.6918L191.856 60.8596C190.15 60.8805 188.558 61.1305 187.079 62.235C185.682 63.2769 184.496 65.0274 184.496 67.1947C184.496 68.7784 185.243 69.7995 186.332 70.383C187.29 70.904 188.346 71.1332 189.386 71.2166L187.875 75.4052C184.268 74.8634 180.873 72.7378 180.873 67.4656C180.873 64.6315 181.766 62.756 183.407 60.9847L177.038 62.1516L176.794 57.8171Z" fill="white"/>
<path d="M163.177 55.5595L166.869 55.8202L166.497 67.8332C166.497 67.9852 166.497 68.1373 166.497 68.2894C166.497 70.3096 166.92 71.5478 168.665 71.5478C171.612 71.5478 172.899 67.7897 173.695 64.7484L176.794 66.9208C175.423 71.7651 173.001 76.0229 168.614 76.0229C166.649 76.0229 164.701 75.2408 163.617 72.9816C162.991 71.6999 162.821 70.201 162.821 68.7021C162.821 68.4414 162.838 68.1807 162.838 67.8983L163.177 55.5595Z" fill="white"/>
<path d="M146.854 56.6733C147.154 55.4489 147.397 54.2006 147.64 52.9762L151.571 53.9125C151.365 54.7047 151.159 55.4729 150.953 56.2652C151.571 56.1451 152.189 56.0251 152.825 55.857L152.582 60.6104C151.609 60.7785 150.635 60.9225 149.662 61.0666C148.576 64.9317 147.397 68.7728 146.031 72.4939L142.399 70.5974C143.635 67.6205 144.702 64.5476 145.638 61.3787C144.908 61.3787 144.178 61.4027 143.466 61.4027L143.354 56.6013C144.271 56.6493 145.188 56.6733 146.106 56.6733C146.368 56.6733 146.611 56.6733 146.854 56.6733ZM154.323 56.5532C156.456 57.1774 158.553 58.0177 160.574 59.122L159.395 63.6593C158.777 63.2032 158.066 62.7231 157.336 62.7231C156.475 62.7231 156.213 63.5393 156.213 64.4996C156.213 65.4119 156.325 66.3001 156.438 67.1884C157.954 67.9806 159.358 69.0609 160.705 70.2373L158.946 74.3905C158.216 73.7423 157.467 73.1181 156.7 72.4939C156.344 75.2788 154.304 76.215 152.357 76.215C149.961 76.215 147.472 74.7506 147.472 71.2696C147.472 69.7571 148.015 68.2687 148.951 67.3564C149.868 66.4682 151.122 66.1321 152.245 66.1321C152.376 66.1321 152.507 66.1561 152.638 66.1561C152.582 65.5799 152.544 65.0037 152.544 64.4036C152.544 62.6991 152.956 61.7388 154.154 60.9465C153.742 60.8025 153.331 60.6825 152.919 60.5864L154.323 56.5532ZM152.975 70.3813C152.619 70.2373 152.264 70.1412 151.889 70.1412C151.384 70.1412 150.654 70.3813 150.654 71.1976C150.654 72.0138 151.44 72.2059 151.945 72.2059C152.488 72.2059 153.031 71.9418 153.031 71.1255C153.031 70.8855 153.012 70.6454 152.975 70.3813Z" fill="white"/>
<path d="M114.18 46.4366H124.666V45.5619H116.397V42.3544H124.666V41.1151H130.378V42.3544H139.728V46.2179H141.746V50.774H139.728V54.3095H130.378V55.1843H140.495V57.8086H130.378V58.6833H141.746V62.9842H114.18V58.6833H124.666V57.8086H115.885V55.1843H124.666V54.3095H116.397V51.503H124.666V50.6282H114.18V46.4366ZM134.101 45.5619H130.378V46.7282H134.101V45.5619ZM134.101 50.3366H130.378V51.503H134.101V50.3366ZM116.766 63.859H139.046V76.5795H133.448V75.8506H122.308V76.5795H116.766V63.859ZM133.448 66.9936H122.308V68.0141H133.448V66.9936ZM133.448 70.9665H122.308V71.987H133.448V70.9665Z" fill="white"/>
<path d="M96.2774 68.7794H91.4463V71.2943H86.6152V42.7916H97.9824V66.0093C98.835 63.8588 99.0908 60.8701 99.0908 58.5009V42.4636H112.476V72.3149C112.476 74.8663 111.822 76.3971 109.634 76.3971H104.803L103.808 69.6177H106.565C107.275 69.6177 107.446 69.2897 107.446 68.4149V65.3897H103.496C102.444 70.8205 100.512 74.028 96.7605 76.871L92.924 71.513C94.1744 70.7841 95.2259 69.9457 96.2774 68.7794ZM107.446 48.6598H103.95V51.029H107.446V48.6598ZM93.3787 49.0243H91.4463V52.8149H93.3787V49.0243ZM107.446 56.8972H103.95V59.4121H107.446V56.8972ZM93.3787 58.428H91.4463V62.6925H93.3787V58.428Z" fill="white"/>
<path d="M75.589 48.8785H69.4223V42.4636H84.1713V48.8785H80.5622V54.9654H83.4608V61.0887H80.5622V68.9616H84.5975V75.4859H68.9108V68.9616H69.6496V51.5757H74.3954V68.9616H75.589V48.8785ZM58.2824 42.4636H68.1719V46.8374H58.2824V42.4636ZM57.6572 47.7121H69.0529V52.5962H57.6572V47.7121ZM58.2824 53.471H68.1719V58.0635H58.2824V53.471ZM58.2824 58.9383H68.1719V63.6401H58.2824V58.9383ZM58.2824 64.5149H68.1719V75.2672H63.0282V76.3971H58.2824V64.5149ZM64.1365 68.9616H63.0282V70.4925H64.1365V68.9616Z" fill="white"/>
<path d="M33.1606 42.5364H45.7213C45.6929 43.3019 45.6929 44.1037 45.6929 44.8691C45.6929 49.0972 46.0339 52.9972 47.0001 56.8607C48.5063 62.9476 52.1722 67.3579 56.6907 69.7999L53.1669 76.47C47.398 72.3878 45.4656 69.2168 42.5953 61.7448C40.6345 68.4513 37.0254 73.299 32.0238 76.47L28.7842 70.0915C35.8034 65.171 39.4694 59.9953 40.3219 49.4981H33.1606V42.5364Z" fill="white"/>
<path d="M1.33242 64.5878V44.2131H6.19191V62.7654C6.58976 62.5831 6.84552 62.4373 7.24338 62.2187V41.5159H12.4155V69.2897C13.9784 68.1962 15.3425 66.9205 16.6213 65.3532C14.7173 61.3074 13.5522 56.9336 12.7565 52.3047L17.4454 49.5346C17.957 53.0701 18.6958 56.2775 19.9747 59.4486C21.1682 56.2411 21.6229 53.0336 21.7934 49.4981H13.1827V42.828H27.2497C27.2213 49.0972 26.6813 55.3663 24.9194 61.0887C24.4931 62.5102 23.9248 63.8953 23.2711 65.171C24.9478 67.2485 26.454 68.5971 28.4716 70.0551L25.2036 76.3242C23.1291 74.5747 21.5092 72.971 19.8041 70.6383C18.0991 72.8981 16.2803 74.7205 14.2626 76.4336L12.4155 72.7523V76.3242H7.24338V68.2327C5.36779 69.5448 3.00909 70.7841 0.991408 71.7317L0.0820312 64.9523C0.508302 64.8429 0.906154 64.7336 1.33242 64.5878Z" fill="white"/>
<defs>
<filter id="filter0_d_665_7541" x="293.044" y="38.6288" width="58.3403" height="38.8592" filterUnits="userSpaceOnUse" color-interpolation-filters="sRGB">
<feFlood flood-opacity="0" result="BackgroundImageFix"/>
<feColorMatrix in="SourceAlpha" type="matrix" values="0 0 0 0 0 0 0 0 0 0 0 0 0 0 0 0 0 0 127 0" result="hardAlpha"/>
<feOffset dx="2" dy="2"/>
<feComposite in2="hardAlpha" operator="out"/>
<feColorMatrix type="matrix" values="0 0 0 0 0.758333 0 0 0 0 0.126389 0 0 0 0 0.126389 0 0 0 1 0"/>
<feBlend mode="normal" in2="BackgroundImageFix" result="effect1_dropShadow_665_7541"/>
<feBlend mode="normal" in="SourceGraphic" in2="effect1_dropShadow_665_7541" result="shape"/>
</filter>
<linearGradient id="paint0_linear_665_7541" x1="331.328" y1="48.3828" x2="339.29" y2="49.6896" gradientUnits="userSpaceOnUse">
<stop stop-color="white"/>
<stop offset="0.525" stop-color="#FAE60F"/>
<stop offset="0.585" stop-color="#E6D737"/>
<stop offset="1" stop-color="#FFEA05"/>
</linearGradient>
<linearGradient id="paint1_linear_665_7541" x1="318.164" y1="60.4833" x2="328.473" y2="65.1093" gradientUnits="userSpaceOnUse">
<stop stop-color="white"/>
<stop offset="0.525" stop-color="#FAE60F"/>
<stop offset="0.585" stop-color="#E6D737"/>
<stop offset="1" stop-color="#FFEA05"/>
</linearGradient>
<linearGradient id="paint2_linear_665_7541" x1="298.85" y1="56.1975" x2="311.522" y2="61.4833" gradientUnits="userSpaceOnUse">
<stop stop-color="white"/>
<stop offset="0.525" stop-color="#FAE60F"/>
<stop offset="0.585" stop-color="#E6D737"/>
<stop offset="1" stop-color="#FFEA05"/>
</linearGradient>
</defs>
</svg>
