<svg width="341" height="86" viewBox="0 0 341 86" fill="none" xmlns="http://www.w3.org/2000/svg">
<path d="M57.2066 13.44C56.6666 13.94 56.2866 14.24 55.6466 14.58L53.9466 12.24C55.3466 11.42 56.8266 10.24 57.5066 8.72L60.4866 9.08C60.3066 9.54 60.1666 9.8 59.9266 10.22H72.7266V12.92H71.1066V14.88H73.2266V17.62H71.1066V19.6H72.7266V22.3H54.7266V19.6H56.9666V17.62H54.2666V14.88H57.2066V13.44ZM60.9666 12.92H59.5266V14.88H60.9666V12.92ZM64.7066 12.92H63.2466V14.88H64.7066V12.92ZM68.4466 12.92H66.9866V14.88H68.4466V12.92ZM60.9666 17.62H59.5266V19.6H60.9666V17.62ZM64.7066 17.62H63.2466V19.6H64.7066V17.62ZM68.4466 17.62H66.9866V19.6H68.4466V17.62ZM58.9666 23.3C58.3866 25.12 57.7866 26.62 56.5666 28.1L54.0266 26.36C55.1266 25.2 55.8066 23.84 56.3466 22.34L58.9666 23.3ZM70.7266 22.34C71.8866 23.88 72.5466 24.98 73.3866 26.72L70.5866 28.06C69.9466 26.44 69.0666 24.9 68.1266 23.44L70.7266 22.34ZM66.5266 22.86C67.0666 24.14 67.8066 26.26 68.0066 27.6L65.0266 27.84C64.8266 26.16 64.4266 24.64 63.8666 23.06L66.5266 22.86ZM62.4466 23C62.6866 24.34 62.8266 26.36 62.8266 27.72L59.8066 27.8C59.9666 26.84 59.9666 25.6 59.9666 24.62C59.9666 24.08 59.9666 23.6 59.9266 23.08L62.4466 23ZM77.9066 12.24C76.8266 12.3 75.7266 12.36 74.6266 12.38L74.2666 9.62C77.3066 9.62 80.2866 9.38 83.2866 8.74L84.1466 11.44C83.0266 11.72 81.9866 11.84 80.8466 11.98V14.02H83.9466V16.82H81.0266C81.7666 18.24 82.8666 19.84 84.0066 20.96L82.4866 23.52C81.8466 22.66 81.3066 21.76 80.8466 20.8V27.9H77.9066V21.04C77.0666 22.76 76.2466 23.9 74.9666 25.32L73.9066 21.62C75.4066 20.38 76.7466 18.54 77.6266 16.82H74.1666V14.02H77.9066V12.24ZM92.5266 8.86V25.58C92.5266 26.18 92.4666 26.82 92.0266 27.28C91.6066 27.68 91.0266 27.9 90.4466 27.9H86.3866L85.8266 24.7H88.9066C89.3666 24.7 89.5066 24.62 89.5066 24.18V8.86H92.5266ZM87.7666 10.38V23.38H84.7866V10.38H87.7666ZM102.027 20.98H95.9466V10.24H101.567C101.767 9.8 101.887 9.3 101.947 8.84H105.347C105.247 9.28 105.067 9.8 104.867 10.24H111.567V20.98H104.247C105.167 21.48 105.707 21.84 106.507 22.5L104.487 24.52C103.627 23.72 102.767 23.12 101.767 22.54V24.38C101.767 24.7 101.967 24.86 102.247 24.86H105.287C105.967 24.86 106.047 24.5 106.187 23.5L109.127 24.2C108.947 25.66 108.647 27.6 106.787 27.6H100.487C99.5466 27.6 98.8466 27.02 98.8466 26.16V22.48H101.647C101.407 22.34 101.147 22.22 100.887 22.1L102.027 20.98ZM108.567 12.4H98.8466V13.28H108.567V12.4ZM108.567 15.1H98.8466V16H108.567V15.1ZM108.567 17.84H98.8466V18.76H108.567V17.84ZM110.807 21.22C111.987 22.64 112.787 24.28 113.407 26L110.467 27.54C110.007 25.92 109.267 23.82 108.227 22.5L110.807 21.22ZM98.5666 22.3C98.2266 23.98 97.5666 26.16 96.5866 27.56L94.0466 25.68C95.1066 24.2 95.5266 23.26 96.0466 21.52L98.5666 22.3ZM123.047 25.92L121.727 27.02C121.207 26.12 120.307 24.9 119.607 24.12L121.467 22.86H116.867L118.967 24C118.487 25.24 117.067 27.12 115.987 27.92L113.987 25.96C115.007 25.2 115.927 23.94 116.627 22.86H114.207V20.3H115.447V12.86H114.447V10.28H115.447V8.96H118.247V10.28H120.827V8.96H123.607V10.28H124.687V12.86H123.607V20.3H124.827C124.947 19.26 125.007 18.22 125.007 17.18V9.36H132.567V26C132.567 27.4 131.987 27.82 130.647 27.82H127.947L127.447 25H129.147C129.647 25 129.727 24.72 129.727 24.28V21.82H127.427C127.227 23.82 126.507 26.28 125.267 27.9L123.047 25.92ZM129.727 12.28H127.627V14.46H129.727V12.28ZM120.827 12.86H118.247V13.84H120.827V12.86ZM120.827 16.02H118.247V17.08H120.827V16.02ZM129.727 17.04H127.627L127.567 19.16H129.727V17.04ZM120.827 19.12H118.247V20.3H120.827V19.12ZM123.447 24.92C123.827 24.24 124.107 23.6 124.327 22.86H121.707C122.287 23.4 122.987 24.26 123.447 24.92ZM148.187 25H149.167C149.707 25 149.767 24.78 149.767 24.34V17.3H144.247V9.56H152.627V25.74C152.627 27.2 151.767 27.88 150.847 27.88H147.007L146.687 26.04H139.207V18.2H148.187V25ZM134.827 9.56H143.027V17.3H137.647V27.88H134.827V9.56ZM149.767 11.62H147.007V12.54H149.767V11.62ZM140.267 11.62H137.647V12.54H140.267V11.62ZM149.767 14.28H147.007V15.22H149.767V14.28ZM140.267 14.28H137.647V15.22H140.267V14.28ZM145.467 20.26H141.907V21.2H145.467V20.26ZM145.467 22.84H141.907V23.84H145.467V22.84ZM216.553 19.02C216.193 19.48 215.813 19.88 215.413 20.3L214.413 16.26C216.233 14.14 217.353 11.6 217.793 8.84L220.753 9.1C220.453 10.66 220.073 12.08 219.533 13.6V27.9H216.553V19.02ZM228.653 8.9H231.773V12.5H233.733V15.38H231.773V25.56C231.773 27.2 231.113 27.9 229.473 27.9H225.113L224.573 24.84H228.093C228.593 24.84 228.653 24.68 228.653 24.2V15.38H220.353V12.5H228.653V8.9ZM223.013 16.26C224.333 17.76 225.553 19.46 226.553 21.18L223.893 22.9C223.133 21.4 221.653 19.16 220.553 17.88L223.013 16.26ZM242.093 11.32C241.793 10.7 241.493 10.08 241.193 9.44L244.453 8.8C244.753 9.52 245.073 10.22 245.393 10.9C247.073 10.64 248.713 10.24 250.293 9.6L251.273 12.22C249.753 12.76 248.213 13.14 246.653 13.46C246.833 13.8 247.033 14.16 247.213 14.5C248.873 14.16 250.513 13.74 252.093 13.12L253.153 15.82C251.693 16.3 250.213 16.72 248.693 17.02C249.593 18.46 250.593 19.82 251.673 21.16L249.653 22.82C247.953 21.8 245.993 21.34 244.013 21.34C242.933 21.34 240.213 21.42 240.213 22.98C240.213 24.66 243.773 24.64 244.913 24.64C246.833 24.64 248.753 24.36 250.633 23.94L250.533 27.1C248.733 27.42 246.913 27.58 245.093 27.58C242.013 27.58 236.973 27.2 236.973 23.1C236.973 19.64 240.913 18.88 243.633 18.88C244.613 18.88 245.593 18.98 246.573 19.14C246.213 18.62 245.873 18.1 245.553 17.58C242.393 18.08 239.173 18.28 235.993 18.34L235.573 15.5C236.013 15.5 236.433 15.5 236.853 15.5C239.253 15.5 241.653 15.32 244.033 15.04C243.833 14.68 243.633 14.32 243.453 13.96C241.173 14.24 238.893 14.36 236.613 14.36L236.153 11.52C236.573 11.52 237.013 11.54 237.433 11.54C238.993 11.54 240.553 11.48 242.093 11.32ZM268.893 16.36L270.153 15.48C270.813 16.18 271.353 16.94 271.833 17.76L270.513 18.64C270.053 17.82 269.513 17.08 268.893 16.36ZM270.913 15.02L272.173 14.14C272.813 14.84 273.353 15.6 273.833 16.42L272.533 17.3C272.073 16.48 271.533 15.72 270.913 15.02ZM255.093 11.28C256.313 11.26 257.553 11.24 258.773 11.16L273.133 10.14L273.393 13.4C271.073 13.46 269.033 13.8 267.053 15.06C265.313 16.14 263.813 17.88 263.813 20.04C263.813 23.2 267.533 24.2 270.073 24.42L268.513 27.64C266.793 27.42 265.113 26.88 263.613 26C261.473 24.74 260.333 22.66 260.333 20.2C260.333 17.36 261.873 15.16 264.133 13.58L255.353 14.66L255.093 11.28Z" fill="white"/>
<path d="M155.077 8.93C155.167 7.31 155.287 5.75 156.007 4.28C157.507 1.16 160.747 0.109999 164.017 0.109999C168.457 0.109999 172.477 2.36 172.477 7.28C172.477 9.41 171.607 11.15 169.777 12.29C171.967 13.58 173.137 15.98 173.137 18.47C173.137 21.2 171.757 23.78 169.417 25.19C167.797 26.18 165.787 26.51 163.927 26.51C159.697 26.51 156.067 24.62 155.017 20.27C154.747 19.22 154.657 18.14 154.627 17.06H160.147C160.177 19.91 160.897 21.86 164.137 21.86C166.357 21.86 167.857 20.63 167.857 18.35C167.857 15.8 165.967 15.02 163.717 15.02H161.137V10.58H163.627C165.607 10.58 167.107 9.92 167.107 7.73C167.107 5.78 165.787 4.76 163.927 4.76C161.287 4.76 160.597 6.62 160.537 8.93H155.077ZM184.11 0.109999C191.46 0.109999 193.32 7.28 193.32 13.31C193.32 19.34 191.46 26.51 184.11 26.51C176.76 26.51 174.87 19.34 174.87 13.31C174.87 7.28 176.76 0.109999 184.11 0.109999ZM184.11 4.67C182.61 4.67 181.74 5.51 181.2 6.83C180.39 8.84 180.33 11.15 180.33 13.31C180.33 15.44 180.39 17.78 181.23 19.79C181.74 21.08 182.61 21.92 184.11 21.92C185.58 21.92 186.48 21.08 186.99 19.76C187.8 17.81 187.89 15.41 187.89 13.31C187.89 11.15 187.8 8.84 186.99 6.83C186.45 5.51 185.58 4.67 184.11 4.67ZM196.553 9.68H211.993V27.74H208.793V26.94H199.753V27.74H196.553V9.68ZM208.793 16.66V12.68H199.753V16.66H208.793ZM208.793 19.56H199.753V23.96H208.793V19.56Z" fill="#FFEA05"/>
<line x1="50.5" y1="32.9922" x2="277.5" y2="32.9922" stroke="white" stroke-width="2"/>
<path d="M284.901 57.4084C285.046 54.5664 285.48 51.7718 286.977 49.3087C289.729 44.7141 294.944 43.3405 300.11 43.3405C304.648 43.3405 309.428 44.6667 312.277 48.3614C313.774 50.3034 314.498 52.7665 314.498 55.1822C314.498 58.64 313.339 60.9136 310.587 62.9504C313.87 65.3661 315.464 68.3976 315.464 72.4711C315.464 76.9236 313.194 80.9024 309.38 83.2708C306.58 85.0234 302.717 85.4023 299.482 85.4023C295.33 85.4023 291.322 84.4076 288.329 81.4709C286.929 80.0025 285.866 78.2499 285.287 76.3079C284.659 74.3184 284.466 72.2817 284.418 70.1975H295.137C295.137 73.9869 295.571 76.7342 300.206 76.7342C303.103 76.7342 305.131 75.2658 305.131 72.2817C305.131 68.6818 302.379 68.0186 299.289 68.0186H295.764V59.7294H300.11C302.379 59.7294 303.924 58.4031 303.924 56.1769C303.924 53.6665 302.427 52.1507 299.917 52.1507C296.585 52.1507 295.668 54.6138 295.62 57.4084H284.901Z" fill="url(#paint0_linear_697_1044)"/>
<path d="M324.928 77.5287V85.4023H320.479V78.5537C319.78 79.136 319.058 79.6718 318.312 80.1843L317.474 74.71C319.291 73.7084 321.41 71.8914 322.435 70.0744H318.009V66.0677H320.479V63.1792H324.928V66.0677H327.024V70.0744C326.652 71.1693 326.279 71.8914 325.65 72.8698C326.512 73.8481 327.514 74.5936 328.632 75.2691L326.489 79.4156C325.836 78.7866 325.44 78.2974 324.928 77.5287ZM331.078 63.1792H335.62V68.3506H339.79V72.7766H335.62V80.5104H340V84.8432H326.116V80.5104H331.078V72.7766H327.397V68.3506H331.078V63.1792Z" fill="url(#paint1_linear_697_1044)"/>
<path d="M331.368 44.8081C331.032 45.2034 330.757 45.4858 330.36 45.8021L329.424 43.7462C330.065 43.2153 330.574 42.6053 330.991 41.8484L333.118 42.0404C333.057 42.1873 333.006 42.3115 332.945 42.4584H339.368V44.2206H331.846C331.765 44.3223 331.683 44.424 331.602 44.5256H338.594V45.949H331.368V44.8081ZM331.388 50.1061C330.951 49.7672 330.574 49.4961 330.096 49.225L331.185 47.9146H329.607V46.2766H337.658C337.627 46.9883 337.607 47.6887 337.607 48.389C337.607 48.8974 337.637 49.8124 337.749 50.253C337.77 50.3433 337.841 50.4789 337.933 50.4789C338.187 50.4789 338.686 49.4509 338.828 49.1233L339.541 51.4391C339.154 52.1169 338.533 52.885 337.749 52.885C337.2 52.885 336.681 52.5122 336.386 52.0265C335.775 51.0211 335.724 49.112 335.704 47.9146H334.167L335.347 48.6489C335.052 49.1911 334.767 49.5978 334.37 50.0609C334.767 50.4337 335.164 50.8065 335.551 51.2019L334.106 52.7156C333.719 52.2411 333.302 51.8119 332.864 51.4052C332.172 51.9135 331.439 52.3541 330.686 52.7608L329.678 50.9307C330.289 50.7161 330.828 50.4676 331.388 50.1061ZM332.935 48.8409C333.22 48.5585 333.444 48.2535 333.678 47.9146H331.602C332.06 48.197 332.508 48.5133 332.935 48.8409Z" fill="white"/>
<path d="M323.37 41.8484H325.422V43.9221C325.422 45.4428 325.648 46.7676 326.386 48.0579C327.135 49.3598 328.182 50.2008 329.424 50.8229L328.162 52.885C326.243 51.6178 325.135 50.339 324.386 47.9543C323.585 50.3275 322.457 51.5832 320.558 52.885L319.307 50.8805C321.913 49.6708 323.37 47.0787 323.37 43.9336V41.8484Z" fill="white"/>
<path d="M317.467 43.228V55.1843H323.445L321.606 58.8632L327.124 55.1843H340" stroke="white" stroke-linecap="round" stroke-linejoin="round"/>
<path d="M264.328 60.9857C264.889 61.0103 265.45 61.0349 266.011 61.0349C269.293 61.0349 272.555 60.838 275.775 60.2717L277.354 63.5216C275.505 64.9249 273.76 66.4513 271.973 67.9532C272.555 67.8054 273.157 67.7316 273.739 67.7316C277.187 67.7316 280.033 70.4152 280.033 74.6498C280.033 80.2385 275.775 83.0452 271.537 83.0452C269.023 83.0452 265.658 81.8881 265.658 78.2689C265.658 75.5361 267.984 73.9604 270.062 73.9604C272.264 73.9604 274.32 75.4376 275.484 77.6534C276.066 76.9394 276.398 76.0285 276.398 75.0191C276.398 72.2863 274.32 71.2276 272.305 71.2276C270.602 71.2276 269.044 71.9416 267.631 73.0249C266.219 74.1328 264.951 75.4869 263.726 76.8656L261.44 73.4188L270.602 64.6787C268.628 64.9988 266.634 65.1957 264.64 65.2942L264.328 60.9857ZM272.555 79.3768C271.931 78.2935 270.997 77.4072 269.833 77.4072C269.439 77.4072 268.795 77.5549 268.795 78.1704C268.795 79.3276 270.685 79.5492 271.371 79.5492C271.786 79.5492 272.181 79.4753 272.555 79.3768Z" fill="white"/>
<path d="M250.16 71.4246C250.16 73.0741 250.139 74.7483 250.139 76.3978C250.139 78.589 250.18 80.7555 250.201 82.9221H246.566L246.607 77.0133C246.026 77.9981 245.465 79.0075 244.924 80.0169L242.286 77.0872L246.649 70.1443L246.67 68.4456C245.61 68.6425 244.551 68.7656 243.491 68.8887L243.096 64.4571C244.301 64.4325 245.506 64.3833 246.69 64.2355L246.732 60.0748H250.367C250.305 62.1182 250.263 64.1617 250.222 66.2051C251.759 64.4325 253.525 62.9553 255.748 62.9553C258.116 62.9553 260.09 64.9741 260.09 67.8547C260.09 68.9872 259.965 70.1197 259.737 71.8924C259.591 73.1234 259.342 74.8221 259.342 76.0285C259.342 76.447 259.446 76.9887 259.882 76.9887C260.36 76.9887 261.025 76.5209 261.98 75.5853L262.79 79.7215C261.627 80.8048 260.297 81.6172 258.781 81.6172C256.703 81.6172 255.436 79.9677 255.436 77.5303C255.436 76.0039 255.769 73.4188 255.956 71.8431C256.143 70.3167 256.226 69.4057 256.226 68.5933C256.226 67.7316 255.81 67.1899 255.062 67.1899C253.359 67.1899 251.24 69.9966 250.16 71.4246Z" fill="white"/>
<path d="M230.05 59.8287C233.208 60.198 236.282 60.9858 239.295 62.1676L238.027 66.156C235.057 64.8511 232.003 64.0141 228.866 63.5463L230.05 59.8287ZM227.391 64.1372L231.089 65.0481C230.715 66.7223 230.362 68.421 230.071 70.1198C231.878 69.0365 233.914 68.3472 235.95 68.3472C239.419 68.3472 242.66 70.3906 242.66 74.9453C242.66 82.3067 235.659 82.873 232.065 82.873C230.86 82.873 229.635 82.7745 228.43 82.6021L227.723 78.0967C229.261 78.4414 230.798 78.6137 232.356 78.6137C234.371 78.6137 238.775 78.3183 238.775 74.9453C238.775 72.9757 237.238 72.4095 235.846 72.4095C233.145 72.4095 230.653 73.8128 228.7 75.9301L225.688 74.8961C226.145 71.277 226.705 67.6824 227.391 64.1372Z" fill="white"/>
<path d="M208.777 60.3458L212.599 60.8382C212.08 63.8665 211.81 66.944 211.706 70.0461C212.142 69.1105 212.558 68.175 212.973 67.2394L214.822 69.2583C213.638 71.671 212.641 74.2315 212.08 76.9397L209.026 77.3336C208.299 74.65 208.07 71.8187 208.07 69.0121C208.07 66.1069 208.32 63.2017 208.777 60.3458ZM218.644 60.3951H222.592C222.82 63.2756 222.965 66.1808 222.965 69.0859C222.965 75.9795 221.49 80.2634 216.089 83.4393L212.911 80.2634C214.967 79.1062 217.086 77.5306 218.146 75.0193C218.977 73.0497 219.039 70.7354 219.039 68.5689C219.039 65.8361 218.852 63.1033 218.644 60.3951Z" fill="white"/>
<path d="M188.46 72.902C188.127 73.3698 187.92 73.616 187.567 74.0099L186.798 67.9288C188.024 66.1807 188.73 64.088 189.125 61.8969C189.249 61.1583 189.353 60.4443 189.415 59.7057L192.76 60.0258C192.532 61.9707 192.199 63.7434 191.701 65.6391V83.2178H188.46V72.902ZM194.921 59.8534H198.244V61.8969H200.82V59.8534H204.248V61.8969H206.326V65.4175H204.248V67.0178H206.783V70.5631H192.324V67.0178H194.921V65.4175H192.822V61.8969H194.921V59.8534ZM200.82 65.4175H198.244V67.0178H200.82V65.4175ZM205.536 71.4986V83.2178H202.15V82.4299H196.915V83.2178H193.57V71.4986H205.536ZM202.15 74.3053H196.915V75.4625H202.15V74.3053ZM202.15 78.0722H196.915V79.2293H202.15V78.0722Z" fill="white"/>
<path d="M176.702 82.8755H162.4V84.2749H156.726V48.9777H182.508V84.2749H176.702V82.8755ZM162.4 55.3529V62.5446H176.702V55.3529H162.4ZM176.702 76.4613V68.7255H162.4V76.4613H176.702Z" fill="white"/>
<path d="M131.403 80.3486C127.893 81.3594 124.416 82.3312 120.841 83.0698L120.054 76.6945C120.644 76.6556 121.235 76.5779 121.792 76.4613V48.7444H136.126V68.2978H126.909V75.7227C127.959 75.5672 128.976 75.3728 130.025 75.1784C129.599 73.8567 129.14 72.535 128.681 71.2522L133.371 69.6195C135.142 73.7401 136.126 77.1221 137.176 81.5926L131.928 83.303C131.797 82.3312 131.633 81.3205 131.403 80.3486ZM150.756 48.7444V75.7616C150.756 78.7159 149.542 80.1543 147.049 80.1543H143.868L142.588 73.468H144.294C145.147 73.468 145.475 73.1959 145.475 72.1852V55.0808H142.457V84.5859H137.406V48.7444H150.756ZM130.845 54.2644H126.909V56.1304H130.845V54.2644ZM130.845 60.6397H126.909V62.6611H130.845V60.6397Z" fill="white"/>
<path d="M99.3166 60.6903L103.243 61.2073C102.869 63.1769 102.537 65.1219 102.329 67.1161C102.059 69.455 101.913 71.7939 101.913 74.1574C101.913 74.8468 101.934 75.5361 101.955 76.2501C102.163 75.6592 102.37 75.0684 102.557 74.4775L103.928 76.5209C103.305 78.2936 102.724 80.4355 102.516 82.3559L99.3581 82.7252C98.4441 79.6969 98.2363 76.4225 98.2363 73.2219C98.2363 69.0119 98.6726 64.8265 99.3166 60.6903ZM105.258 62.7091C106.588 62.8569 107.938 62.9307 109.267 62.9307C111.386 62.9307 113.485 62.7338 115.583 62.3645L115.521 66.7714C113.381 67.0669 111.241 67.2392 109.081 67.2392C107.772 67.2392 106.463 67.1654 105.175 67.0423L105.258 62.7091ZM108.166 73.5173C107.896 74.1328 107.626 74.7975 107.626 75.4869C107.626 76.8656 109.517 76.9641 110.659 76.9641C112.799 76.9641 114.336 76.7671 116.497 76.324L116.393 80.8294C114.648 81.1249 112.903 81.2972 111.137 81.2972C108.125 81.2972 104.261 80.8787 104.261 76.2501C104.261 75.0191 104.593 73.8866 105.071 72.8033L108.166 73.5173Z" fill="white"/>
<path d="M82.4625 52.1265L82.3641 47.6949H88.3012L88.334 52.0099L90.3348 51.971C90.8925 51.971 91.4501 51.971 92.0077 51.9322C91.2861 50.5327 90.4333 49.2887 89.482 48.0837L91.4501 46.3343C92.4341 47.5006 93.3198 48.7834 94.0414 50.2217L92.0733 51.9322C93.7462 51.8933 95.4191 51.7767 97.0592 51.66L97.1576 58.3074C94.9271 58.1908 92.6638 58.1519 90.4333 58.2297L88.3996 58.2686L88.498 69.4642C88.5308 72.7295 88.17 76.1115 86.6283 78.9104C84.7914 82.2536 81.6753 84.1973 78.5919 85.4023L74.2293 80.3876C76.8534 79.4547 79.4448 78.0164 81.5112 75.8394C80.724 76.1893 79.9368 76.3837 79.1167 76.3837C75.115 76.3837 72.3268 72.7295 72.3268 68.1036C72.3268 63.0111 75.6726 59.668 79.8384 59.668C80.7896 59.668 81.7081 59.8624 82.6265 60.2122L82.5937 58.424L73.7373 58.6962C71.4412 58.735 69.1123 58.8517 66.8162 59.046L66.7178 52.2431C68.4563 52.3209 70.1947 52.3209 71.9332 52.3209C72.4908 52.3209 73.0157 52.3209 73.5733 52.3209L82.4625 52.1265ZM82.4297 67.9481C82.4297 66.432 81.5769 65.0326 80.1992 65.0326C78.8543 65.0326 77.9031 66.3931 77.9031 67.9481C77.9031 69.5419 78.8543 70.9414 80.232 70.9414C81.6097 70.9414 82.4297 69.4642 82.4297 67.9481ZM93.6806 47.5783L95.7143 45.9067C96.6983 47.1507 97.4856 48.5113 98.2072 49.9496L96.1407 51.6212C95.3863 50.1828 94.6318 48.8611 93.6806 47.5783Z" fill="white"/>
<path d="M38.7061 48.2393H44.8727V75.2176C51.597 72.924 57.1077 68.1037 61.2407 61.4952L65.4065 66.6265C58.7806 76.8114 49.4321 82.4869 38.7061 83.9252V48.2393Z" fill="white"/>
<path d="M8.52839 51.3102L14.7607 52.5152C13.5798 63.1277 10.9557 73.818 5.80587 82.72L0 79.1437C4.75622 70.9025 7.28193 61.1063 8.52839 51.3102ZM22.961 50.6882C27.4221 59.7457 30.3742 68.9199 31.9159 79.2214L25.5852 81.4761C24.1091 71.6799 21.649 62.7001 17.7128 53.8758L22.961 50.6882ZM25.1259 52.6319L27.2908 50.9992C28.2749 52.3597 29.0949 53.8369 29.8166 55.4308L27.6189 57.0635C26.93 55.4696 26.11 54.0313 25.1259 52.6319ZM28.2421 50.2994L30.3742 48.6667C31.391 50.0662 32.2111 51.5045 32.9327 53.0983L30.735 54.731C30.0462 53.1372 29.2261 51.6989 28.2421 50.2994Z" fill="white"/>
<defs>
<linearGradient id="paint0_linear_697_1044" x1="293.874" y1="43.3405" x2="317.263" y2="50.9906" gradientUnits="userSpaceOnUse">
<stop stop-color="white"/>
<stop offset="0.525" stop-color="#FAE60F"/>
<stop offset="0.585" stop-color="#E6D737"/>
<stop offset="1" stop-color="#FFEA05"/>
</linearGradient>
<linearGradient id="paint1_linear_697_1044" x1="324.334" y1="63.1792" x2="339.967" y2="70.2009" gradientUnits="userSpaceOnUse">
<stop stop-color="white"/>
<stop offset="0.525" stop-color="#FAE60F"/>
<stop offset="0.585" stop-color="#E6D737"/>
<stop offset="1" stop-color="#FFEA05"/>
</linearGradient>
</defs>
</svg>
