<svg width="343" height="65" viewBox="0 0 343 65" fill="none" xmlns="http://www.w3.org/2000/svg">
<path d="M0.802031 13.5139C0.850031 12.6499 0.914031 11.8179 1.29803 11.0339C2.09803 9.36992 3.82603 8.80992 5.57003 8.80992C7.93803 8.80992 10.082 10.0099 10.082 12.6339C10.082 13.7699 9.61803 14.6979 8.64203 15.3059C9.81003 15.9939 10.434 17.2739 10.434 18.6019C10.434 20.0579 9.69803 21.4339 8.45003 22.1859C7.58603 22.7139 6.51403 22.8899 5.52203 22.8899C3.26603 22.8899 1.33003 21.8819 0.770031 19.5619C0.626031 19.0019 0.578031 18.4259 0.562031 17.8499H3.50603C3.52203 19.3699 3.90603 20.4099 5.63403 20.4099C6.81803 20.4099 7.61803 19.7539 7.61803 18.5379C7.61803 17.1779 6.61003 16.7619 5.41003 16.7619H4.03403V14.3939H5.36203C6.41803 14.3939 7.21803 14.0419 7.21803 12.8739C7.21803 11.8339 6.51403 11.2899 5.52203 11.2899C4.11403 11.2899 3.74603 12.2819 3.71403 13.5139H0.802031ZM16.2865 8.80992C20.2065 8.80992 21.1985 12.6339 21.1985 15.8499C21.1985 19.0659 20.2065 22.8899 16.2865 22.8899C12.3665 22.8899 11.3585 19.0659 11.3585 15.8499C11.3585 12.6339 12.3665 8.80992 16.2865 8.80992ZM16.2865 11.2419C15.4865 11.2419 15.0225 11.6899 14.7345 12.3939C14.3025 13.4659 14.2705 14.6979 14.2705 15.8499C14.2705 16.9859 14.3025 18.2339 14.7505 19.3059C15.0225 19.9939 15.4865 20.4419 16.2865 20.4419C17.0705 20.4419 17.5505 19.9939 17.8225 19.2899C18.2545 18.2499 18.3025 16.9699 18.3025 15.8499C18.3025 14.6979 18.2545 13.4659 17.8225 12.3939C17.5345 11.6899 17.0705 11.2419 16.2865 11.2419ZM23.531 9.56192H35.883V24.0099H33.323V23.3699H26.091V24.0099H23.531V9.56192ZM33.323 15.1459V11.9619H26.091V15.1459H33.323ZM33.323 17.4659H26.091V20.9859H33.323V17.4659ZM49.275 21.8179H50.059C50.491 21.8179 50.539 21.6419 50.539 21.2899V15.6579H46.123V9.46592H52.827V22.4099C52.827 23.5779 52.139 24.1219 51.403 24.1219H48.331L48.075 22.6499H42.091V16.3779H49.275V21.8179ZM38.587 9.46592H45.147V15.6579H40.843V24.1219H38.587V9.46592ZM50.539 11.1139H48.331V11.8499H50.539V11.1139ZM42.939 11.1139H40.843V11.8499H42.939V11.1139ZM50.539 13.2419H48.331V13.9939H50.539V13.2419ZM42.939 13.2419H40.843V13.9939H42.939V13.2419ZM47.099 18.0259H44.251V18.7779H47.099V18.0259ZM47.099 20.0899H44.251V20.8899H47.099V20.0899ZM56.491 12.5699C56.059 12.9699 55.755 13.2099 55.243 13.4819L53.883 11.6099C55.003 10.9539 56.187 10.0099 56.731 8.79392L59.115 9.08192C58.971 9.44992 58.859 9.65792 58.667 9.99392H68.907V12.1539H67.611V13.7219H69.307V15.9139H67.611V17.4979H68.907V19.6579H54.507V17.4979H56.299V15.9139H54.139V13.7219H56.491V12.5699ZM59.499 12.1539H58.347V13.7219H59.499V12.1539ZM62.491 12.1539H61.323V13.7219H62.491V12.1539ZM65.483 12.1539H64.315V13.7219H65.483V12.1539ZM59.499 15.9139H58.347V17.4979H59.499V15.9139ZM62.491 15.9139H61.323V17.4979H62.491V15.9139ZM65.483 15.9139H64.315V17.4979H65.483V15.9139ZM57.899 20.4579C57.435 21.9139 56.955 23.1139 55.979 24.2979L53.947 22.9059C54.827 21.9779 55.371 20.8899 55.803 19.6899L57.899 20.4579ZM67.307 19.6899C68.235 20.9219 68.763 21.8019 69.435 23.1939L67.195 24.2659C66.683 22.9699 65.979 21.7379 65.227 20.5699L67.307 19.6899ZM63.947 20.1059C64.379 21.1299 64.971 22.8259 65.131 23.8979L62.747 24.0899C62.587 22.7459 62.267 21.5299 61.819 20.2659L63.947 20.1059ZM60.683 20.2179C60.875 21.2899 60.987 22.9059 60.987 23.9939L58.571 24.0579C58.699 23.2899 58.699 22.2979 58.699 21.5139C58.699 21.0819 58.699 20.6979 58.667 20.2819L60.683 20.2179ZM73.051 11.6099C72.187 11.6579 71.307 11.7059 70.427 11.7219L70.139 9.51392C72.571 9.51392 74.955 9.32192 77.355 8.80992L78.043 10.9699C77.147 11.1939 76.315 11.2899 75.403 11.4019V13.0339H77.883V15.2739H75.547C76.139 16.4099 77.019 17.6899 77.931 18.5859L76.715 20.6339C76.203 19.9459 75.771 19.2259 75.403 18.4579V24.1379H73.051V18.6499C72.379 20.0259 71.723 20.9379 70.699 22.0739L69.851 19.1139C71.051 18.1219 72.123 16.6499 72.827 15.2739H70.059V13.0339H73.051V11.6099ZM84.747 8.90592V22.2819C84.747 22.7619 84.699 23.2739 84.347 23.6419C84.011 23.9619 83.547 24.1379 83.083 24.1379H79.835L79.387 21.5779H81.851C82.219 21.5779 82.331 21.5139 82.331 21.1619V8.90592H84.747ZM80.939 10.1219V20.5219H78.555V10.1219H80.939ZM92.347 18.6019H87.483V10.0099H91.979C92.139 9.65792 92.235 9.25792 92.283 8.88992H95.003C94.923 9.24192 94.779 9.65792 94.619 10.0099H99.979V18.6019H94.123C94.859 19.0019 95.291 19.2899 95.931 19.8179L94.315 21.4339C93.627 20.7939 92.939 20.3139 92.139 19.8499V21.3219C92.139 21.5779 92.299 21.7059 92.523 21.7059H94.955C95.499 21.7059 95.563 21.4179 95.675 20.6179L98.027 21.1779C97.883 22.3459 97.643 23.8979 96.155 23.8979H91.115C90.363 23.8979 89.803 23.4339 89.803 22.7459V19.8019H92.043C91.851 19.6899 91.643 19.5939 91.435 19.4979L92.347 18.6019ZM97.579 11.7379H89.803V12.4419H97.579V11.7379ZM97.579 13.8979H89.803V14.6179H97.579V13.8979ZM97.579 16.0899H89.803V16.8259H97.579V16.0899ZM99.371 18.7939C100.315 19.9299 100.955 21.2419 101.451 22.6179L99.099 23.8499C98.731 22.5539 98.139 20.8739 97.307 19.8179L99.371 18.7939ZM89.579 19.6579C89.307 21.0019 88.779 22.7459 87.995 23.8659L85.963 22.3619C86.811 21.1779 87.147 20.4259 87.563 19.0339L89.579 19.6579ZM110.479 16.8339L111.235 16.3059C111.631 16.7259 111.955 17.1819 112.243 17.6739L111.451 18.2019C111.175 17.7099 110.851 17.2659 110.479 16.8339ZM111.691 16.0299L112.447 15.5019C112.831 15.9219 113.155 16.3779 113.443 16.8699L112.663 17.3979C112.387 16.9059 112.063 16.4499 111.691 16.0299ZM102.199 13.7859C102.931 13.7739 103.675 13.7619 104.407 13.7139L113.023 13.1019L113.179 15.0579C111.787 15.0939 110.563 15.2979 109.375 16.0539C108.331 16.7019 107.431 17.7459 107.431 19.0419C107.431 20.9379 109.663 21.5379 111.187 21.6699L110.251 23.6019C109.219 23.4699 108.211 23.1459 107.311 22.6179C106.027 21.8619 105.343 20.6139 105.343 19.1379C105.343 17.4339 106.267 16.1139 107.623 15.1659L102.355 15.8139L102.199 13.7859ZM118.795 19.4259V18.5139H115.087V12.7179H124.327V18.5139H120.619V19.4259H125.371V21.1299H120.619V23.7339H118.795V21.1299H114.043V19.4259H118.795ZM122.515 14.2779H116.863V14.9979H122.515V14.2779ZM122.515 16.3419H116.863V17.0859H122.515V16.3419ZM134.431 12.2739L135.883 13.8459C134.023 15.1539 131.887 16.4259 129.955 17.5539C129.595 17.7579 129.475 17.8899 129.475 18.0219C129.475 18.1179 129.535 18.1899 129.607 18.2379C129.907 18.4179 130.243 18.5739 130.555 18.7299C132.547 19.7139 134.467 20.8659 136.243 22.1979L134.803 23.8419C133.939 23.1819 133.063 22.5459 132.151 21.9459C130.927 21.1539 129.655 20.4339 128.371 19.7499C127.687 19.3779 127.027 18.9219 127.027 18.0579C127.027 16.9779 128.179 16.4139 128.983 15.9219C130.843 14.7939 132.691 13.6059 134.431 12.2739ZM144.091 17.1099L143.623 15.6339C144.055 15.5859 144.415 15.5259 144.835 15.4059C144.535 15.1299 144.307 14.9019 144.031 14.5899L144.883 14.1219H144.031V12.7059H149.035V14.1219C148.639 14.6979 148.255 15.0819 147.703 15.4899C148.315 15.7179 148.855 15.8379 149.503 15.9339L148.891 17.4819C148.687 17.4339 148.483 17.3739 148.291 17.3019V21.9579H146.503C147.475 22.2099 148.399 22.3779 149.419 22.3899L148.759 23.8419C147.127 23.6379 146.203 23.4339 144.679 22.7859L145.447 21.9579H141.883L142.687 22.7619C141.331 23.3979 140.083 23.6619 138.607 23.8299L137.947 22.3779C138.931 22.3539 139.987 22.2579 140.935 21.9579H139.063V17.2899H138.355V12.7059H143.719V13.6419H142.279V14.0379H143.479V16.0059H142.279V16.3899H143.719V17.1099H144.091ZM140.851 13.6419H139.903V14.0379H140.851V13.6419ZM146.239 14.8059C146.623 14.5899 146.887 14.3979 147.247 14.1219H145.339C145.627 14.3979 145.903 14.6019 146.239 14.8059ZM141.919 14.8059H139.903V15.2259H141.919V14.8059ZM140.851 15.9819H139.903V16.3899H140.851V15.9819ZM144.319 17.1099H147.751C147.283 16.9179 146.647 16.6419 146.215 16.3899C145.591 16.6899 144.979 16.9179 144.319 17.1099ZM146.515 18.0699H140.851V18.4539H146.515V18.0699ZM146.515 19.3179H140.851V19.7019H146.515V19.3179ZM146.515 20.5299H140.851V20.9139H146.515V20.5299ZM158.431 12.2739L159.883 13.8459C158.023 15.1539 155.887 16.4259 153.955 17.5539C153.595 17.7579 153.475 17.8899 153.475 18.0219C153.475 18.1179 153.535 18.1899 153.607 18.2379C153.907 18.4179 154.243 18.5739 154.555 18.7299C156.547 19.7139 158.467 20.8659 160.243 22.1979L158.803 23.8419C157.939 23.1819 157.063 22.5459 156.151 21.9459C154.927 21.1539 153.655 20.4339 152.371 19.7499C151.687 19.3779 151.027 18.9219 151.027 18.0579C151.027 16.9779 152.179 16.4139 152.983 15.9219C154.843 14.7939 156.691 13.6059 158.431 12.2739ZM162.847 18.5379C162.643 18.7779 162.511 18.9339 162.295 19.1499L161.815 16.5459C162.763 15.3939 163.219 13.7979 163.387 12.3339L165.163 12.4779C165.031 13.4139 164.851 14.2779 164.563 15.1779V23.7339H162.847V18.5379ZM166.543 12.3939H168.283V13.4619H169.987V12.3939H171.763V13.4619H173.047V15.0219H171.763V15.9579H173.323V17.5179H164.947V15.9579H166.543V15.0219H165.235V13.4619H166.543V12.3939ZM169.987 15.0219H168.283V15.9579H169.987V15.0219ZM172.567 18.0819V23.7339H170.803V23.3379H167.455V23.7339H165.691V18.0819H172.567ZM170.803 19.3539H167.455V20.0259H170.803V19.3539ZM170.803 21.2139H167.455V21.8979H170.803V21.2139ZM175.879 12.6699L177.859 12.8859C177.547 14.4459 177.391 16.0179 177.367 17.6019C177.631 17.0979 177.883 16.5819 178.147 16.0779L179.167 17.0139C178.519 18.1779 177.943 19.4019 177.619 20.6979L176.023 20.8659C175.603 19.5579 175.471 18.1779 175.471 16.8099C175.471 15.4179 175.615 14.0379 175.879 12.6699ZM181.639 12.6699H183.691C183.811 14.0739 183.919 15.4899 183.919 16.8939C183.919 20.2299 183.031 22.3179 179.935 23.8419L178.279 22.4379C179.299 21.9579 180.307 21.3459 180.979 20.4339C181.771 19.3419 181.867 17.9979 181.867 16.7019C181.867 15.3579 181.759 14.0139 181.639 12.6699ZM187.903 13.0059C188.203 13.0059 188.515 13.0059 188.827 13.0059C190.699 13.0059 192.583 12.9219 194.443 12.6459L195.271 14.0859C194.143 14.8299 193.063 15.6459 191.971 16.4499C192.379 16.3539 192.787 16.2939 193.207 16.2939C195.235 16.2939 196.843 17.5539 196.843 19.6659C196.843 22.2699 194.455 23.6499 192.091 23.6499C190.711 23.6499 188.695 23.1099 188.695 21.3939C188.695 20.1219 189.943 19.3899 191.095 19.3899C192.403 19.3899 193.591 20.1459 194.227 21.2619C194.683 20.9019 194.947 20.3619 194.947 19.7739C194.947 18.3459 193.687 17.8659 192.475 17.8659C191.311 17.8659 190.327 18.2979 189.403 18.9579C188.719 19.4499 188.083 20.0139 187.471 20.5899L186.271 19.0779L191.767 14.5899C190.543 14.7579 189.307 14.8539 188.071 14.8899L187.903 13.0059ZM192.667 22.0059C192.331 21.4059 191.719 20.9019 190.999 20.9019C190.735 20.9019 190.363 21.0099 190.363 21.3459C190.363 21.9459 191.563 22.0899 192.007 22.0899C192.223 22.0899 192.439 22.0539 192.667 22.0059ZM202.603 12.9579H204.811V16.2699L204.355 20.4459H203.059L202.603 16.2699V12.9579ZM202.663 21.0339H204.763V23.1219H202.663V21.0339Z" fill="white"/>
<path d="M9.76023 37.4615V42.2715H5.41823V61.4595H0.608228V37.4615H9.76023ZM8.40823 40.9195V38.8135H1.96023V60.1075H4.06623V40.9195H8.40823ZM13.2442 37.2795C14.6482 37.8515 16.7022 38.9695 17.8462 39.9315L15.5582 43.1555C14.7002 42.3755 12.1522 40.7895 11.0602 40.3215L13.2442 37.2795ZM28.5322 44.0655H34.3822V59.7695C34.3822 61.2515 33.5242 62.1355 32.0422 62.1355H27.2842L26.6342 58.4955H29.9362C30.5082 58.4955 30.5602 58.3395 30.5602 57.8195V56.2335H22.7082V62.1355H18.8342V44.0655H24.8142V37.4875H28.5322V44.0655ZM21.5642 37.5395C22.6042 38.8915 23.6182 41.0235 24.0862 42.6615L20.4202 43.8575C19.8222 42.0895 19.1202 40.3475 18.0542 38.8135L21.5642 37.5395ZM35.4482 38.8135C34.9282 40.3735 33.8102 42.6355 32.7702 43.9355L29.3382 42.4795C30.3522 41.1535 31.2882 39.2035 31.7822 37.5915L35.4482 38.8135ZM12.4382 43.9615C13.8422 44.5595 15.7662 45.7295 16.9362 46.7175L14.7262 49.9415C13.5042 48.8755 11.9182 47.8355 10.4622 47.1075L12.4382 43.9615ZM30.5602 47.2895H22.7082V48.8755H30.5602V47.2895ZM12.8542 62.0575L10.3842 58.3655C11.8922 56.5975 14.1022 53.0095 15.0122 50.8515L18.0282 53.0615C16.9102 55.7655 14.7002 59.7955 12.8542 62.0575ZM30.5602 51.7875H22.7082V53.3735H30.5602V51.7875ZM39.4002 51.5275C38.7762 51.7875 38.1262 52.0215 37.4762 52.2295L36.2802 48.6415C38.1002 48.1735 40.6222 47.3675 42.0782 46.1455H37.3202C37.6062 44.6375 37.8662 43.2075 38.0742 41.6735H44.1842V40.7375H37.2942V38.4755H44.1842V37.4355H47.9542V38.4755H50.0602V37.4355H53.8302V38.4755H60.2262V43.2075H53.8302V44.1435H61.6042C61.5782 45.1315 61.5262 46.1195 61.4222 47.0815C61.3702 47.6535 61.1882 48.4335 60.9542 48.8755C60.6162 49.5255 59.9922 49.9155 59.2642 49.9155H58.7442V57.9495H54.5842C56.8722 58.7815 59.2382 58.9895 61.6562 59.0675L59.6542 62.4995C56.6382 62.2395 53.8562 61.4335 51.1522 60.1335L52.7382 57.9495H45.0422L46.6542 60.0555C44.4702 61.4335 40.7522 62.1875 38.1782 62.3955L36.4102 59.0155C38.6722 58.8855 40.9862 58.7295 43.1442 57.9495H39.4002V51.5275ZM47.9542 40.7375V41.6735H50.0602V40.7375H47.9542ZM53.8302 40.7375V41.6735H56.3782V40.7375H53.8302ZM50.0602 44.1435V43.2075H47.7982C47.7202 43.5195 47.6422 43.8315 47.5382 44.1435H50.0602ZM43.5082 44.1435C43.6382 43.8575 43.7682 43.5455 43.8722 43.2075H41.7922C41.7402 43.5195 41.6882 43.8315 41.6102 44.1435H43.5082ZM45.8482 47.2895H50.0602V46.1455H46.6542C46.3942 46.5615 46.1602 46.9255 45.8482 47.2895ZM53.8302 47.2895H55.6242L55.5722 46.9515H57.0022C57.3662 46.9515 57.6782 46.8995 57.6782 46.1455H53.8302V47.2895ZM43.3002 49.4215V50.3055H54.8442V49.3955H43.3782L43.3002 49.4215ZM54.8442 52.0215H43.3002V53.0095H54.8442V52.0215ZM54.8442 54.6995H43.3002V55.7395H54.8442V54.6995ZM71.0942 48.0435H62.6962V44.6115H71.0162V42.7135H64.6462V39.4115H71.0162V37.4615H74.9942V39.4115H80.0902V41.3615C81.3122 40.0355 82.2742 38.8135 83.2882 37.3055L86.8762 39.1255C85.4462 41.1795 83.9902 42.9215 82.1702 44.6115H87.4482V48.0435H77.9842C77.3342 48.5115 76.6582 48.9795 75.9822 49.4215H84.8482V62.1355H81.0002V61.1475H71.1462V62.1355H67.2462V53.9715C66.2322 54.4135 65.1922 54.7775 64.1262 55.1415L62.3062 51.4235C65.4262 50.5655 68.2082 49.4995 71.0942 48.0435ZM76.5282 44.6115C77.2822 44.0135 78.0362 43.3895 78.7382 42.7135H74.9942V44.6115H76.5282ZM81.0002 52.3595H71.1462V53.8675H81.0002V52.3595ZM81.0002 56.5195H71.1462V58.0795H81.0002V56.5195ZM93.6362 45.9895C92.5442 46.5355 91.4262 47.0555 90.3082 47.5235L88.4102 43.6235C92.1282 42.4795 96.4702 40.3475 99.0702 37.4355H103.126C106.246 40.3215 109.73 42.2715 113.734 43.6755L111.862 47.6795C110.744 47.1855 109.652 46.6655 108.586 46.0675V47.6795H103.048V49.4475H112.408V53.1135H103.048V57.8975H104.66C105.258 56.3635 105.752 54.8295 106.168 53.2435L110.12 54.3095C109.678 55.5315 109.184 56.7275 108.69 57.8975H112.98V61.5895H89.1122V57.8975H93.2982C93.0122 56.8575 92.5182 55.6355 91.9462 54.3875L95.7682 53.2955C96.4702 54.7515 96.9902 56.3115 97.4062 57.8975H99.0962V53.1135H89.7362V49.4475H99.0962V47.6795H93.6362V45.9895ZM96.8342 44.1435H105.388C103.802 43.0515 102.45 41.9075 101.072 40.5555C99.7462 41.9595 98.4462 43.1035 96.8342 44.1435ZM136.744 60.4975C134.872 60.9135 130.738 61.6935 128.762 61.9535L128.372 57.8715C129.62 57.8455 130.868 57.6895 132.142 57.5335V53.1135H128.658V40.9715H132.142V37.4615H135.522V40.9715H138.902V53.1135H135.34V57.0915C135.704 57.0395 136.042 56.9875 136.406 56.9095C136.328 56.1035 136.198 55.2975 136.068 54.4915L138.616 54.1275C139.24 56.3635 139.63 59.5095 139.708 61.8235L136.77 62.1875C136.77 61.9275 136.796 61.6675 136.796 61.4075C136.796 61.0955 136.77 60.7835 136.744 60.4975ZM114.67 38.2155H128.242V41.1795H114.67V38.2155ZM115.788 42.1415H127.436V47.9135H115.788V42.1415ZM123.848 44.3255H119.272V45.5735H123.848V44.3255ZM132.246 44.5335H131.154V49.5515H132.246V44.5335ZM136.406 44.5335H135.34V49.5515H136.406V44.5335ZM118.206 54.1275V62.1095H115.216V48.7975H127.982V60.0815C127.982 60.4715 127.93 60.8355 127.748 61.1995C127.436 61.8495 126.656 62.1095 126.214 62.1095H123.978L123.406 58.9895H124.654C125.018 58.9895 125.148 58.9375 125.148 58.5735V54.7255H123.068C122.47 54.7255 121.924 54.3095 121.924 53.3735V51.4235H121.248C121.196 52.8015 120.832 54.2575 119.974 55.3495L118.206 54.1275ZM118.206 53.9455C118.934 53.2435 119.272 52.4375 119.402 51.4235H118.206V53.9455ZM125.148 51.4235H123.952V52.2555C123.952 52.5935 124.082 52.7755 124.446 52.7755H125.148V51.4235ZM124.654 55.5315V57.6635H123.042V61.1735H120.312V57.6635H118.726V55.5315H124.654ZM140.384 62.1095V57.2995H144.726V38.1115H149.536V62.1095H140.384ZM141.736 58.6515V60.7575H148.184V39.4635H146.078V58.6515H141.736ZM160.772 46.4055C160.832 45.1655 160.872 43.9055 160.872 42.6455H164.152C164.152 43.9055 164.152 45.1655 164.072 46.4055H171.292C171.172 49.3055 170.892 56.0255 169.832 58.5055C169.012 60.4055 167.512 60.8655 165.572 60.8655C165.012 60.8655 164.432 60.8455 163.852 60.8055L163.192 57.5255C163.952 57.6055 164.692 57.6855 165.452 57.6855C166.712 57.6855 167.012 56.8455 167.232 55.7655C167.672 53.7455 167.812 51.6255 167.912 49.5655H163.772C163.152 54.6455 161.072 58.3255 156.732 61.1255L154.312 58.7255C156.112 57.6055 157.772 56.1655 158.872 54.3255C159.752 52.8655 160.212 51.2455 160.492 49.5655H154.392V46.4055H160.772ZM173.952 50.5055H192.192V53.6855H173.952V50.5055ZM201.812 50.6055L202.872 48.5855C205.712 49.9255 208.392 51.5455 210.912 53.4055L208.992 56.2855C206.752 54.5255 204.352 52.9455 201.812 51.6855V61.3255H198.432V42.8055H201.812V50.6055ZM206.332 46.0255L207.472 44.9455C208.252 45.5855 208.932 46.2655 209.552 47.0455L208.332 48.1455C207.732 47.3655 207.072 46.6855 206.332 46.0255ZM208.232 44.3655L209.392 43.2655C210.152 43.9055 210.832 44.6055 211.452 45.3855L210.252 46.4855C209.632 45.7055 208.992 45.0055 208.232 44.3655ZM227.852 59.5055H218.292V60.6255H215.012V44.4455H231.132V60.6255H227.852V59.5055ZM227.852 56.3855V47.6255H218.292V56.3855H227.852ZM233.952 50.5055H252.192V53.6855H233.952V50.5055ZM256.452 43.4055C258.652 44.4855 260.712 45.8255 262.612 47.4055L260.472 50.0855C258.632 48.5255 256.652 47.1855 254.552 46.0455L256.452 43.4055ZM254.792 57.9055C261.752 56.6055 266.452 53.2855 270.052 47.2055L272.392 49.9055C268.692 55.8455 263.232 59.7655 256.332 61.1855L254.792 57.9055Z" fill="white"/>
<line x1="0.374023" y1="28.1116" x2="206.966" y2="28.1116" stroke="white" stroke-width="2"/>
<g filter="url(#filter0_d_665_10759)">
<path d="M324.481 45.5556H323.588C322.065 45.5556 321.697 45.0566 321.697 43.5595V40.9332L318.887 43.9535C317.495 42.2989 316.287 41.1433 314.396 40.0402L317.626 36.4158C319.307 37.4663 320.778 38.5431 322.144 39.9877H325.847V39.3573H321.697V36.941H329.813V42.1413H325.689V42.7716C325.689 42.9817 325.689 43.2969 326.057 43.2969H326.32C326.74 43.2969 326.819 42.8767 326.845 42.3251L330.023 42.7716C329.918 43.9272 329.681 45.3455 328.29 45.5293H328.92V46.2122H331.914V45.5293C330.837 45.4243 330.574 44.7677 330.574 43.7959V39.9877H334.961V39.3573H330.574V36.941H338.9V42.1413H334.54V42.7716C334.54 43.1393 334.619 43.2969 335.144 43.2969H335.959C336.353 43.2969 336.458 42.9292 336.484 42.2989L339.819 42.7716C339.688 44.3737 339.189 45.5556 337.377 45.5556H336.3V46.2122H338.9V49.2325H336.3V49.8629H339.557V53.0408H335.985C337.088 53.5136 338.375 53.8025 339.557 53.9338L337.981 56.5076H340.082L339.058 61.1038H327.003C325.768 61.1038 323.93 60.9725 322.748 60.6573C321.461 60.3159 320.358 59.5542 319.36 58.6613C318.073 59.9219 317.022 60.8149 315.42 61.6816L314.002 56.6127C314.869 56.245 315.552 55.9036 316.339 55.3783V50.3619H314.396V45.8182H321.067V53.6711C321.54 55.0369 322.38 55.7722 323.746 56.1662L322.065 53.96C323.273 53.7499 324.455 53.461 325.584 53.0408H321.697V49.8629H324.481V49.2325H321.907V46.2122H324.481V45.5556ZM331.914 49.0224H328.92V49.8629H331.914V49.0224ZM326.792 56.5076H334.829C333.569 55.9561 332.439 55.3258 331.31 54.5904L333.017 53.0408H328.29L330.128 54.5904C329.077 55.3258 327.948 55.9561 326.792 56.5076Z" fill="url(#paint0_linear_665_10759)"/>
<path d="M275.692 30.4981C275.858 27.2347 276.357 24.0256 278.076 21.1973C281.236 15.9213 287.224 14.344 293.156 14.344C298.368 14.344 303.857 15.8669 307.128 20.1094C308.847 22.3395 309.678 25.1678 309.678 27.9417C309.678 31.9123 308.348 34.5231 305.187 36.8619C308.958 39.6358 310.787 43.1168 310.787 47.7945C310.787 52.9072 308.181 57.4761 303.801 60.1956C300.586 62.2081 296.15 62.6432 292.436 62.6432C287.668 62.6432 283.066 61.501 279.629 58.1288C278.021 56.4426 276.801 54.4302 276.136 52.2001C275.415 49.9157 275.193 47.5769 275.138 45.1837H287.446C287.446 49.535 287.945 52.6897 293.267 52.6897C296.594 52.6897 298.922 51.0035 298.922 47.5769C298.922 43.4432 295.762 42.6817 292.214 42.6817H288.167V33.1633H293.156C295.762 33.1633 297.536 31.6403 297.536 29.084C297.536 26.2012 295.818 24.4607 292.935 24.4607C289.109 24.4607 288.056 27.2891 288 30.4981H275.692Z" fill="url(#paint1_linear_665_10759)"/>
</g>
<defs>
<filter id="filter0_d_665_10759" x="275.138" y="14.344" width="66.9443" height="50.2993" filterUnits="userSpaceOnUse" color-interpolation-filters="sRGB">
<feFlood flood-opacity="0" result="BackgroundImageFix"/>
<feColorMatrix in="SourceAlpha" type="matrix" values="0 0 0 0 0 0 0 0 0 0 0 0 0 0 0 0 0 0 127 0" result="hardAlpha"/>
<feOffset dx="2" dy="2"/>
<feComposite in2="hardAlpha" operator="out"/>
<feColorMatrix type="matrix" values="0 0 0 0 0.758333 0 0 0 0 0.126389 0 0 0 0 0.126389 0 0 0 1 0"/>
<feBlend mode="normal" in2="BackgroundImageFix" result="effect1_dropShadow_665_10759"/>
<feBlend mode="normal" in="SourceGraphic" in2="effect1_dropShadow_665_10759" result="shape"/>
</filter>
<linearGradient id="paint0_linear_665_10759" x1="321.945" y1="36.4158" x2="339.932" y2="44.6433" gradientUnits="userSpaceOnUse">
<stop stop-color="white"/>
<stop offset="0.525" stop-color="#FAE60F"/>
<stop offset="0.585" stop-color="#E6D737"/>
<stop offset="1" stop-color="#FFEA05"/>
</linearGradient>
<linearGradient id="paint1_linear_665_10759" x1="285.995" y1="14.344" x2="312.854" y2="23.1286" gradientUnits="userSpaceOnUse">
<stop stop-color="white"/>
<stop offset="0.525" stop-color="#FAE60F"/>
<stop offset="0.585" stop-color="#E6D737"/>
<stop offset="1" stop-color="#FFEA05"/>
</linearGradient>
</defs>
</svg>
