<svg width="331" height="122" viewBox="0 0 331 122" fill="none" xmlns="http://www.w3.org/2000/svg">
<rect x="1.08203" y="23" width="158" height="98" rx="4" fill="#FFF7E9" stroke="#3F3F3F" stroke-width="2"/>
<path d="M114.172 60.5724C117.301 60.5577 118.08 62.1594 118.08 65.01C118.08 66.3619 117.933 68.4631 117.213 69.624C116.64 70.5203 115.568 70.8583 114.554 70.8583C113.937 70.8583 113.319 70.7848 112.702 70.682L112.717 68.3603C113.217 68.4778 113.731 68.5513 114.245 68.5513C115.097 68.5513 115.347 68.0958 115.494 67.3317C115.641 66.4794 115.7 65.5978 115.7 64.7308C115.7 63.6582 115.597 62.8059 114.289 62.8059C114.069 62.8059 113.848 62.8206 113.628 62.8353C112.864 65.73 111.791 68.566 110.219 71.1228L108.147 69.7709C109.47 67.6844 110.454 65.4509 111.145 63.0998C110.219 63.2027 109.308 63.3496 108.382 63.4965L108.118 61.1749L111.718 60.7634C111.938 59.6467 112.129 58.5299 112.276 57.3985L114.701 57.8246C114.554 58.7504 114.377 59.6614 114.172 60.5724ZM118.433 59.1912C120.328 60.9104 121.475 63.3055 121.739 65.8476L119.476 66.6558C119.256 64.2753 118.506 62.1153 116.787 60.3961L118.433 59.1912ZM119.065 59.1618L119.888 58.4712C120.387 58.9267 120.828 59.4263 121.225 59.9847L120.358 60.6753C119.976 60.1169 119.55 59.632 119.065 59.1618ZM120.255 58.2067L121.063 57.5014C121.563 57.9716 122.004 58.4712 122.4 59.0295L121.548 59.7055C121.166 59.1618 120.74 58.6769 120.255 58.2067Z" fill="#3F3F3F"/>
<path d="M95.6273 64.3781C95.3922 64.1137 95.1865 63.8345 94.9808 63.5406C94.7163 63.7463 94.4518 63.9373 94.1726 64.1137L93.1734 62.4532C93.8787 62.1446 94.4077 61.7332 94.922 61.1748H93.7171V58.236H95.9947V57.3544H98.14V58.236H100.403V61.1748H99.9915V62.5267C99.5507 63.2614 99.1245 63.8345 98.5221 64.4369C99.198 64.8337 99.918 65.1716 100.682 65.3626V60.4107H102.387C102.489 60.205 102.563 59.9699 102.622 59.7495H100.638V57.7217H107.236V59.7201H104.694C104.605 59.9699 104.532 60.1609 104.429 60.4107H106.839V68.2574H105.252C106.031 68.8451 106.619 69.0803 107.53 69.3888L106.56 71.3431C105.561 70.8729 104.605 70.2558 103.841 69.4476L105.017 68.2574H102.401L103.533 69.4329C102.783 70.2264 101.711 70.9464 100.682 71.3431L99.8739 70.0207V70.7554H96.0094V71.2697H94.011V67.361C93.9816 67.3904 93.9375 67.4051 93.8934 67.4051L93.144 65.3333C94.0698 65.1275 94.8045 64.8337 95.6273 64.3781ZM97.1555 60.9838H98.5809V59.9552H95.7155V60.2344L97.42 60.4548C97.3319 60.6312 97.2437 60.8075 97.1555 60.9838ZM104.723 61.9095H102.725V62.6295H104.723V61.9095ZM97.0674 63.3789C97.42 63.0704 97.611 62.894 97.8755 62.4973H96.2004C96.4649 62.8206 96.7588 63.0998 97.0674 63.3789ZM104.723 63.9079H102.725V64.6426H104.723V63.9079ZM99.8739 67.0672V69.5211C100.8 69.2125 101.417 68.8892 102.166 68.2574H100.682V65.5831L99.8739 67.0672ZM97.0086 65.7153C96.5237 66.0533 96.0094 66.3618 95.4804 66.6557H98.4045C97.9049 66.3765 97.4494 66.068 97.0086 65.7153ZM104.723 65.921H102.725V66.6557H104.723V65.921ZM97.9049 68.1545H96.0094V69.1684H97.9049V68.1545Z" fill="#3F3F3F"/>
<path d="M79.5669 58.2507H84.7833V57.325H87.0021V58.2507H92.5859V60.1756H90.6903V60.8956H92.6299V62.5707H90.6903V64.7602H83.2551V62.5707H81.7269V64.6426C81.7269 66.9055 81.4624 69.3006 80.4192 71.3284L78.4648 69.7121C78.8763 68.9627 79.1408 68.272 79.3024 67.4345C79.464 66.5381 79.5669 65.4802 79.5669 64.5544V58.2507ZM83.211 60.1756H81.6828V60.8956H83.211V60.1756ZM88.5744 60.1756H85.3417V60.8956H88.5744V60.1756ZM88.5744 62.5707H85.3417V63.3054H88.5744V62.5707ZM84.0927 67.0965H82.0943V65.3038H91.425V67.0965C90.9254 67.8606 90.4111 68.3602 89.6617 68.8745C90.6609 69.0949 91.6748 69.1831 92.6887 69.2566L91.8952 71.3431C90.3524 71.1521 88.4274 70.77 87.0021 70.2117C85.3123 70.7994 83.74 71.1227 81.9767 71.299L81.242 69.3447C82.3294 69.2566 83.3874 69.139 84.4453 68.8745C83.9898 68.5365 83.6519 68.2574 83.2698 67.8312L84.0927 67.0965ZM85.327 67.0965C85.856 67.4933 86.3556 67.8018 86.958 68.081C87.487 67.7871 87.825 67.5373 88.2658 67.0965H85.327Z" fill="#3F3F3F"/>
<path d="M70.1334 68.8892V57.6923H77.4217V64.7749H77.1278L78.083 66.4206C77.5099 66.9202 77.025 67.2582 76.3784 67.6402C76.8927 68.2868 77.4217 68.7717 78.0683 69.3007L76.7164 71.3137C74.718 69.7562 73.4837 67.2435 73.0723 64.7749H72.2494V68.5659C72.8812 68.4631 73.4984 68.3455 74.1302 68.1986L74.2772 70.1676C72.6314 70.6231 70.9269 70.8876 69.2371 71.1815L68.9432 69.0362C69.34 68.9921 69.7367 68.948 70.1334 68.8892ZM64.2705 57.6923H69.5898V59.7201C69.3106 60.734 68.9579 61.7773 68.5465 62.7324C69.3841 63.6287 69.7367 64.9071 69.7367 66.112C69.7367 66.7733 69.5898 67.5521 69.0902 68.0076C68.8257 68.2574 68.3849 68.4631 68.0175 68.4631H66.8126L66.4893 66.3618H66.9007C67.4591 66.3618 67.5767 66.1414 67.5767 65.6124C67.5767 64.5692 67.224 63.7757 66.4893 63.0557C66.9301 61.9242 67.2093 60.8809 67.4738 59.7054H66.3865V71.2844H64.2705V57.6923ZM75.3058 59.6172H72.2494V60.5283H75.3058V59.6172ZM75.3058 62.0418H72.2494V62.9969H75.3058V62.0418ZM75.438 66.0386C75.9523 65.6418 76.4519 65.2598 76.8927 64.7749H74.9825C75.1147 65.2304 75.247 65.5977 75.438 66.0386Z" fill="#3F3F3F"/>
<path d="M60.2736 67.0084H57.5258V71.1521H55.454V67.0084H52.7503C52.5445 68.5366 52.1184 70.1382 51.0457 71.2991L49.209 69.624C49.6939 68.9627 50.0612 68.3603 50.311 67.5815C50.5315 66.8762 50.7225 65.7594 50.7225 65.0247V57.8687H62.5218V69.7709C62.5218 70.7407 61.9635 71.2844 60.9936 71.2844H58.8336L58.481 69.0215H59.8916C60.2149 69.0215 60.2736 68.9186 60.2736 68.6101V67.0084ZM60.2736 59.9405H57.5258V61.5128H60.2736V59.9405ZM55.454 59.9405H52.8825V61.5128H55.454V59.9405ZM52.8825 65.0394H55.454V63.4524H52.8825V65.0394ZM60.2736 63.4524H57.5258V65.0394H60.2736V63.4524Z" fill="#3F3F3F"/>
<path d="M37.2625 59.7789C36.4691 59.823 35.6609 59.8671 34.8527 59.8818L34.5882 57.854C36.8217 57.854 39.0111 57.6777 41.2153 57.2075L41.8471 59.1912C41.0242 59.3969 40.2601 59.485 39.4226 59.5879V61.0867H41.7002V63.1439H39.5548C40.0985 64.1872 40.9067 65.3627 41.7442 66.1855L40.6275 68.0664C40.1573 67.4345 39.7605 66.7733 39.4226 66.068V71.2844H37.2625V66.2443C36.6454 67.508 36.0429 68.3456 35.1025 69.3889L34.3237 66.6705C35.4258 65.7594 36.4103 64.4076 37.0568 63.1439H34.5148V61.0867H37.2625V59.7789ZM48.0039 57.2956V69.5799C48.0039 70.0207 47.9598 70.4909 47.6366 70.8289C47.328 71.1228 46.9019 71.2844 46.4757 71.2844H43.4928L43.0814 68.9333H45.3443C45.6823 68.9333 45.7851 68.8746 45.7851 68.5513V57.2956H48.0039ZM44.5067 58.4124V67.9635H42.3173V58.4124H44.5067Z" fill="#3F3F3F"/>
<path d="M117.398 89.384V89.0166H119V88.4142H121.571V89.0166H123.496V88.4142H126.082V89.0166H127.816V91.2207H126.082V91.7644H127.552V93.9538H123.672V94.424H127.331V100.772C127.331 101.198 127.243 101.845 126.89 102.138C126.538 102.418 126.244 102.418 125.818 102.418H123.702L123.378 100.596H120.322V96.922H121.439V98.4502H121.791V96.5253H119.969V102.418H117.751V94.424H121.395V93.9538H117.633V91.7644H119V91.2207H117.398V90.3979L116.355 91.8526C115.591 91.1767 114.782 90.7211 113.886 90.2656L115.311 88.2525C116.046 88.5611 116.722 88.9725 117.398 89.384ZM123.496 91.2207H121.571V91.7644H123.496V91.2207ZM115.179 91.7203C115.987 92.2199 116.81 92.7048 117.515 93.322L115.958 95.4967C115.297 94.8796 114.474 94.2183 113.68 93.7922L115.179 91.7203ZM117.706 96.922C117.266 98.9057 116.472 100.581 115.444 102.329L113.636 100.096C114.665 98.5678 115.062 97.3335 115.649 95.629L117.706 96.922ZM123.276 96.5253V98.4502H123.628V96.922H124.716V99.9637C125.068 99.949 125.068 99.6551 125.068 99.2731V96.5253H123.276Z" fill="#3F3F3F"/>
<path d="M99.9412 89.7514H104.614V88.3408H107.332V89.7514H112.093V92.2935H107.332V93.5425H112.99V96.0845H108.802C109.963 97.407 111.564 98.5091 113.225 99.1262L111.594 101.889C109.933 100.934 108.596 99.8021 107.332 98.3474V102.447H104.614V98.3474C103.189 99.8756 102.175 100.875 100.323 101.889L98.751 99.1262C100.382 98.4503 102.116 97.4364 103.262 96.0845H99.0302V93.5425H104.614V92.2935H99.9412V89.7514Z" fill="#3F3F3F"/>
<path d="M94.7688 97.1865H87.5834V102.374H84.7915V88.708H97.546V100.596C97.546 101.624 97.1345 102.374 96.0031 102.374H92.9614L92.4912 99.4935H94.3427C94.7688 99.4935 94.7688 99.2878 94.7688 99.0086V97.1865ZM87.5834 91.4118V94.5857H89.7875V91.4118H87.5834ZM92.5353 91.4118V94.5857H94.7688V91.4118H92.5353Z" fill="#D72B2B"/>
<path d="M73.5065 100.184C72.713 101.139 71.8607 101.83 70.8028 102.462L69.0688 99.905C72.1399 98.3474 73.0803 95.6437 73.0803 92.3669V91.3237H69.3627V88.7228H83.2927V91.3237H75.9751V92.4845H82.2347C82.2201 94.4388 82.1466 96.4078 81.9115 98.3474C81.8086 99.2438 81.6764 100.507 81.2649 101.316C80.8976 102.021 80.1041 102.359 79.3253 102.359H76.313L75.784 99.5524H77.9147C78.4437 99.5524 78.7082 99.376 78.8551 98.8617C79.0902 98.127 79.2078 95.9376 79.2225 95.1H75.6665C75.2991 97.0691 74.7995 98.6119 73.5065 100.184Z" fill="#D72B2B"/>
<path d="M59.5879 77.6515C66.2938 77.6515 68.1907 83.9031 68.1907 89.5136C68.1907 95.1241 66.2938 101.376 59.5879 101.376C52.8554 101.376 50.9585 95.1241 50.9585 89.5136C50.9585 83.9031 52.8554 77.6515 59.5879 77.6515ZM59.5879 82.4337C58.3055 82.4337 57.7712 83.4222 57.4773 84.5176C57.0231 86.1206 56.9964 87.8572 56.9964 89.5136C56.9964 91.17 57.0231 92.9066 57.4773 94.5096C57.7712 95.605 58.3055 96.5935 59.5879 96.5935C60.8169 96.5935 61.4047 95.5782 61.6985 94.5096C62.126 92.9066 62.1527 91.17 62.1527 89.5136C62.1527 87.8572 62.126 86.1206 61.6985 84.5176C61.4047 83.4222 60.8703 82.4337 59.5879 82.4337Z" fill="#D72B2B"/>
<path d="M48.9129 78.0789V82.8879H39.7758L39.3751 85.6931C40.3102 85.2657 41.2987 85.1054 42.3406 85.1054C47.016 85.1054 49.7144 88.4716 49.7144 92.96C49.7144 95.8187 48.6724 98.4636 46.2412 100.067C44.7184 101.082 42.7414 101.376 40.9514 101.376C37.7721 101.376 34.4325 100.227 33.1501 97.0744C32.7227 96.0057 32.4822 94.8569 32.3486 93.6814H38.4934C38.5201 94.1088 38.5736 94.5363 38.7072 94.937C39.1079 96.0057 40.0964 96.4599 41.1918 96.4599C43.1421 96.4599 43.997 95.0706 43.997 93.2539C43.997 91.4105 43.1688 90.0212 41.1651 90.0212C39.8827 90.0212 38.9743 90.6891 38.6003 91.9181L32.9631 91.5975L34.673 78.0789H48.9129Z" fill="#D72B2B"/>
<circle cx="80.082" cy="20.5" r="19.5" fill="#26B4FC" stroke="#3F3F3F" stroke-width="2"/>
<path fill-rule="evenodd" clip-rule="evenodd" d="M91.0354 16.5236L78.5755 28.0551L69.8638 19.9925L73.0442 17.049L78.5755 22.1682L87.855 13.5802L91.0354 16.5236Z" fill="white"/>
<rect x="171.082" y="23" width="158" height="98" rx="4" fill="#FFF7E9" stroke="#3F3F3F" stroke-width="2"/>
<path d="M260.733 69.0639C263.863 69.0492 264.641 70.6508 264.641 73.5015C264.641 74.8533 264.494 76.9546 263.774 78.1154C263.201 79.0118 262.129 79.3497 261.115 79.3497C260.498 79.3497 259.88 79.2763 259.263 79.1734L259.278 76.8517C259.778 76.9693 260.292 77.0428 260.806 77.0428C261.658 77.0428 261.908 76.5872 262.055 75.8232C262.202 74.9709 262.261 74.0893 262.261 73.2223C262.261 72.1496 262.158 71.2974 260.85 71.2974C260.63 71.2974 260.409 71.3121 260.189 71.3268C259.425 74.2215 258.352 77.0575 256.78 79.6142L254.708 78.2624C256.031 76.1758 257.015 73.9423 257.706 71.5913C256.78 71.6941 255.869 71.8411 254.943 71.988L254.679 69.6663L258.279 69.2549C258.499 68.1381 258.69 67.0214 258.837 65.89L261.262 66.3161C261.115 67.2418 260.938 68.1528 260.733 69.0639ZM264.994 67.6826C266.889 69.4018 268.036 71.797 268.3 74.3391L266.037 75.1472C265.817 72.7668 265.067 70.6068 263.348 68.8875L264.994 67.6826ZM265.626 67.6532L266.449 66.9626C266.948 67.4181 267.389 67.9177 267.786 68.4761L266.919 69.1667C266.537 68.6084 266.111 68.1235 265.626 67.6532ZM266.816 66.6981L267.624 65.9928C268.124 66.463 268.565 66.9626 268.961 67.521L268.109 68.1969C267.727 67.6532 267.301 67.1683 266.816 66.6981Z" fill="#3F3F3F"/>
<path d="M242.189 72.8696C241.954 72.6051 241.748 72.3259 241.542 72.0321C241.278 72.2378 241.013 72.4288 240.734 72.6051L239.735 70.9447C240.44 70.6361 240.969 70.2247 241.484 69.6663H240.279V66.7275H242.556V65.8459H244.702V66.7275H246.964V69.6663H246.553V71.0182C246.112 71.7529 245.686 72.3259 245.084 72.9284C245.76 73.3251 246.48 73.6631 247.244 73.8541V68.9022H248.948C249.051 68.6965 249.124 68.4614 249.183 68.241H247.2V66.2132H253.797V68.2116H251.255C251.167 68.4614 251.093 68.6524 250.991 68.9022H253.4V76.7489H251.813C252.592 77.3366 253.18 77.5717 254.091 77.8803L253.121 79.8346C252.122 79.3644 251.167 78.7473 250.403 77.9391L251.578 76.7489H248.963L250.094 77.9244C249.345 78.7179 248.272 79.4379 247.244 79.8346L246.435 78.5122V79.2469H242.571V79.7612H240.573V75.8525C240.543 75.8819 240.499 75.8966 240.455 75.8966L239.706 73.8247C240.631 73.619 241.366 73.3251 242.189 72.8696ZM243.717 69.4753H245.142V68.4467H242.277V68.7259L243.982 68.9463C243.893 69.1226 243.805 69.299 243.717 69.4753ZM251.285 70.401H249.286V71.121H251.285V70.401ZM243.629 71.8704C243.982 71.5619 244.173 71.3855 244.437 70.9888H242.762C243.026 71.3121 243.32 71.5912 243.629 71.8704ZM251.285 72.3994H249.286V73.1341H251.285V72.3994ZM246.435 75.5586V78.0126C247.361 77.704 247.978 77.3807 248.728 76.7489H247.244V74.0745L246.435 75.5586ZM243.57 74.2068C243.085 74.5448 242.571 74.8533 242.042 75.1472H244.966C244.466 74.868 244.011 74.5594 243.57 74.2068ZM251.285 74.4125H249.286V75.1472H251.285V74.4125ZM244.466 76.646H242.571V77.6599H244.466V76.646Z" fill="#3F3F3F"/>
<path d="M238.236 70.1953C236.884 69.2255 235.767 67.9471 235.077 66.4483L236.943 65.7724C237.692 66.9038 238.265 67.5504 239.382 68.3439L238.236 70.1953ZM226.672 71.077C226.172 70.4451 225.629 69.9014 224.982 69.3871L225.864 67.5063C226.011 67.6239 226.099 67.6973 226.231 67.8149C226.569 67.1243 226.819 66.5512 227.069 65.8165L228.891 66.2279C228.494 67.1536 227.891 68.1235 227.348 68.9757C227.524 69.152 227.642 69.2843 227.789 69.49C228.259 68.7994 228.685 68.0794 229.096 67.33L230.58 68.1088C231.3 67.4622 231.962 66.7275 232.358 65.8459L234.313 66.4483C234.034 67.1096 233.666 67.6826 233.24 68.2557L235.18 68.5937C234.592 69.7398 234.283 70.2247 233.578 71.2974C234.283 71.2974 235.003 71.2827 235.709 71.2533C235.415 70.7978 235.15 70.4157 234.812 69.9896L236.296 69.152C237.325 70.0925 238.368 71.4443 239.015 72.6786L237.207 73.8395C237.061 73.5456 236.914 73.2517 236.752 72.9725C235.944 73.0901 235.136 73.1488 234.327 73.1782C235.003 73.4574 235.591 73.7513 236.208 74.1774L235.121 75.7644C234.239 75.0885 233.402 74.6476 232.358 74.2656L233.034 73.2517C232.388 73.2958 231.741 73.3399 231.095 73.3545C231.124 73.4427 231.139 73.5309 231.153 73.619L229.655 74.1186C229.625 73.9276 229.596 73.7366 229.537 73.5309C229.331 73.5603 229.126 73.5897 228.905 73.6043V79.7906H227.215V73.7954C226.584 73.8688 225.952 73.9423 225.32 74.0011L225.158 72.0468C225.423 72.0468 225.687 72.0468 225.966 72.0321C226.216 71.7382 226.466 71.4002 226.672 71.077ZM230.066 69.0345C229.376 70.0484 228.656 71.0035 227.877 71.9586C228.303 71.9439 228.714 71.9292 229.14 71.8998C229.038 71.5766 228.92 71.2386 228.802 70.9447L230.11 70.5333C230.463 71.1945 230.683 71.9292 230.904 72.6492L230.845 71.2974C230.962 71.3121 231.065 71.3121 231.183 71.3121H231.624C232.109 70.4157 232.505 69.6369 232.887 68.6965C232.344 69.3137 231.874 69.7839 231.212 70.2982L230.066 69.0345ZM230.125 77.3513L229.42 77.4983C229.42 76.8224 229.361 75.3676 229.258 74.6623L230.61 74.3978C230.669 74.6329 230.713 74.8827 230.757 75.1325L232.314 75.4999C232.182 76.9252 232.006 78.1742 231.374 79.482L229.625 78.4387C229.846 78.0567 229.978 77.7775 230.125 77.3513ZM226.833 74.6329C226.819 76.073 226.731 77.6011 226.363 78.9971L224.967 78.1301C225.291 77.1309 225.437 75.4852 225.437 74.4272L226.833 74.6329ZM236.943 77.2044C236.884 77.7628 236.781 78.3358 236.678 78.762C236.546 79.3057 236.267 79.673 235.694 79.673H233.622C232.99 79.673 232.417 79.4673 232.417 78.7326V75.3823H234.18V77.322C234.18 77.513 234.21 77.7187 234.445 77.7187H234.856C235.047 77.7187 235.165 77.6599 235.224 77.2926C235.253 77.1015 235.268 76.837 235.283 76.4697L236.84 76.837C236.678 76.264 236.517 75.8379 236.267 75.3236L237.986 74.6035C238.53 75.6174 239.074 77.2485 239.279 78.3799L237.369 79.2616C237.237 78.571 237.09 77.8362 236.943 77.2044Z" fill="#3F3F3F"/>
<path d="M212.624 66.2867H218.737C218.737 68.3292 218.855 70.4011 219.545 72.326C220.427 74.7652 222.411 76.4844 224.688 77.5718L223.189 79.7612C220.339 78.2183 218.252 75.9848 217.488 72.855C216.592 75.9995 214.549 78.1889 211.728 79.7612L210.303 77.6599C212.139 76.7636 213.55 75.6468 214.711 73.9423C215.828 72.2672 216.371 70.5333 216.445 68.5202H212.624V66.2867Z" fill="#3F3F3F"/>
<path d="M196.843 73.3839C196.593 73.6778 196.431 73.8688 196.167 74.1333L195.579 70.9447C196.74 69.5341 197.298 67.5798 197.504 65.7871L199.679 65.9634C199.517 67.1095 199.297 68.1675 198.944 69.2696V79.7465H196.843V73.3839ZM201.369 65.8605H203.499V67.1683H205.586V65.8605H207.761V67.1683H209.333V69.0786H207.761V70.2247H209.671V72.1349H199.414V70.2247H201.369V69.0786H199.767V67.1683H201.369V65.8605ZM205.586 69.0786H203.499V70.2247H205.586V69.0786ZM208.745 72.8255V79.7465H206.585V79.2616H202.485V79.7465H200.325V72.8255H208.745ZM206.585 74.3831H202.485V75.206H206.585V74.3831ZM206.585 76.6607H202.485V77.4983H206.585V76.6607Z" fill="#3F3F3F"/>
<path d="M287.638 49.4219C287.814 48.6431 287.946 47.8496 288.079 47.0562L290.518 47.306C290.4 47.9525 290.239 48.5843 290.106 49.2309C291.047 49.1133 291.972 48.937 292.884 48.7313L292.972 51.0236C291.84 51.2293 290.709 51.4203 289.563 51.5378C288.799 54.6383 287.829 57.7241 286.521 60.6629L284.17 59.7371C284.831 58.3853 285.434 56.9894 285.933 55.564C286.374 54.3003 286.741 53.022 287.094 51.7289C286.389 51.773 285.669 51.773 284.963 51.773C284.846 51.773 284.743 51.773 284.64 51.773L284.611 49.4219C285.125 49.4366 285.625 49.466 286.124 49.466C286.624 49.466 287.138 49.4513 287.638 49.4219ZM290.106 55.6669L292.002 56.4457C291.693 56.7542 291.252 57.1804 291.252 57.6653C291.252 58.4 292.986 58.4294 293.662 58.4294C295.102 58.4294 296.234 58.2971 297.395 58.1208V60.4865C296.248 60.6041 295.102 60.6776 293.941 60.6776C292.795 60.6776 291.576 60.6335 290.518 60.1927C289.636 59.8253 288.946 59.0318 288.946 58.0473C288.946 57.1216 289.474 56.3134 290.106 55.6669ZM290.973 51.8317C292.061 51.6701 293.163 51.5819 294.279 51.5819C295.249 51.5819 296.234 51.6407 297.204 51.7436L296.983 53.9771C295.984 53.8742 294.985 53.8007 293.971 53.8007C292.884 53.8007 291.796 53.8595 290.709 54.0065L290.973 51.8317Z" fill="#3F3F3F"/>
<path d="M278.307 50.5681L278.219 47.2325H280.584L280.643 50.377C281.451 50.3036 282.259 50.2007 283.053 50.0832L283.215 52.5077C282.362 52.5077 281.51 52.5665 280.672 52.6105C280.628 54.0506 280.687 55.9167 279.203 56.6955C278.557 57.0335 277.234 57.0922 276.499 57.0922L275.882 54.8881C276.205 54.9028 276.529 54.9175 276.852 54.9175C277.396 54.9175 278.086 54.9175 278.233 54.271C278.336 53.8008 278.321 53.2865 278.336 52.8016L274.236 53.1395V55.3583C274.236 58.1649 274.663 58.3265 277.381 58.3265C278.85 58.3265 280.305 58.1943 281.76 58.0621L281.495 60.4425C280.202 60.5454 278.953 60.6041 277.293 60.6041C275.794 60.6041 274.016 60.56 272.929 59.4727C272.032 58.5617 271.885 57.2833 271.871 56.0784L271.856 53.3453C271.063 53.4187 270.269 53.5069 269.476 53.6097L269.314 51.2146C270.166 51.1999 271.004 51.1411 271.841 51.0971L271.827 47.5999H274.236V50.906L278.307 50.5681Z" fill="#3F3F3F"/>
<path d="M259.998 51.0236C261.129 50.2889 262.422 49.8334 263.774 49.8334C266.61 49.8334 268.315 51.7436 268.315 54.5355C268.315 58.1355 265.567 59.9723 262.275 60.4278L261.438 58.1649C263.524 57.9298 265.92 56.9306 265.92 54.462C265.92 53.022 264.994 52.0816 263.554 52.0816C262.173 52.0816 260.88 52.8604 259.88 53.7567C259.88 54.9175 259.88 56.0784 259.88 57.2392C259.88 58.4441 259.895 59.649 259.91 60.8539H257.588L257.617 56.3282C257.088 57.0188 256.604 57.7388 256.133 58.4588L254.399 56.7837L257.632 52.493L257.647 51.9493C256.824 52.0669 256.001 52.1844 255.178 52.2579L254.928 49.8774C255.839 49.8628 256.75 49.804 257.662 49.7158L257.676 47.2913H259.998C259.983 48.0113 259.954 48.7313 259.939 49.4513L260.688 50.377C260.453 50.5828 260.218 50.8032 259.998 51.0236Z" fill="#3F3F3F"/>
<path d="M243.129 51.9346C242.365 52.3901 241.616 52.7868 240.793 53.1395L239.72 50.8766C241.939 50.1566 244.202 48.9517 245.701 47.1149H248.125C249.668 48.9223 251.887 50.0978 254.091 50.8766L252.945 53.1395C252.166 52.7868 251.402 52.4048 250.682 51.964V53.1542H243.129V51.9346ZM244.349 51.1411H249.418C248.449 50.4505 247.67 49.7305 246.862 48.8635C246.097 49.7893 245.319 50.4505 244.349 51.1411ZM241.175 54.124H252.578V61.0743H250.285V60.5894H243.467V61.0743H241.175V54.124ZM250.285 56.1518H243.467V58.591H250.285V56.1518Z" fill="#3F3F3F"/>
<path d="M232.124 51.7583C233.813 51.1705 235.547 50.7003 237.281 50.2154L238.016 52.5959C236.929 52.8457 235.856 53.1101 234.783 53.404C233.564 53.742 232.344 54.0947 231.183 54.5796C230.287 54.9616 228.803 55.6816 228.803 56.8278C228.803 58.2237 231.286 58.2678 232.271 58.2678C234.196 58.2678 236.12 58.0474 238.016 57.7241L238.192 60.2368C236.37 60.4425 234.548 60.6041 232.711 60.6041C231.33 60.6041 229.802 60.56 228.509 60.0605C227.172 59.5315 226.275 58.5323 226.275 57.0335C226.275 54.9469 228.083 53.551 229.787 52.7134C229.626 52.1991 229.508 51.6701 229.391 51.1411L228.685 47.6733L231.198 47.1737L231.83 50.5828C231.903 50.9795 232.021 51.3762 232.124 51.7583Z" fill="#3F3F3F"/>
<path d="M214.638 55.6229V61.0744H212.404V56.1812C211.904 56.6074 211.375 56.9894 210.846 57.3568L210.288 54.7559C211.537 54.0065 213.109 52.5518 213.771 51.2293H210.553V49.1721H212.404V47.1591H214.638V49.1721H216.136V51.2293C215.798 52.0375 215.46 52.6546 214.961 53.36C215.593 54.0359 216.166 54.4914 216.974 54.9322L215.872 57.0335C215.372 56.578 215.034 56.1812 214.638 55.6229ZM219.002 47.1591H221.294V50.8032H224.159V53.0661H221.294V58.4441H224.365V60.6776H215.637V58.4441H219.002V53.0661H216.357V50.8032H219.002V47.1591Z" fill="#3F3F3F"/>
<path d="M202.456 50.9354L203.808 50.6121V47.1443H205.909V50.1125L209.362 49.2896C209.362 52.0374 209.333 54.8587 209.083 55.9901C208.951 56.5779 208.598 56.9599 207.981 57.0334L209.803 57.7387C209.759 58.2971 209.583 59.5167 209.377 60.0016C209.068 60.7216 208.569 60.8686 207.834 60.8686H202.192C200.943 60.8686 200.384 60.4865 200.384 59.1934V53.6832L199.458 53.9036L199.238 51.6995L200.384 51.4203V48.0553H202.456V50.9354ZM196.872 54.697C196.593 55.0203 196.446 55.182 196.138 55.4611L195.55 52.3166C196.696 50.906 197.475 48.9517 197.68 47.1443L199.811 47.2765C199.649 48.5255 199.4 49.657 198.959 50.8472V61.0449H196.872V54.697ZM203.25 58.7673H206.908C207.584 58.7673 207.658 58.4734 207.731 57.0481H206.57L206.174 54.9909H206.659C206.938 54.9909 207.114 54.9762 207.173 54.6236C207.232 54.1387 207.276 52.7574 207.276 52.2284V52.008L205.909 52.346V57.8122H203.808V52.8456L202.456 53.1836V58.0326C202.456 58.6498 202.574 58.7673 203.25 58.7673Z" fill="#3F3F3F"/>
<path d="M294.538 98.1138V97.7464H296.14V97.144H298.711V97.7464H300.636V97.144H303.222V97.7464H304.956V99.9505H303.222V100.494H304.692V102.684H300.812V103.154H304.471V109.502C304.471 109.928 304.383 110.574 304.03 110.868C303.678 111.147 303.384 111.147 302.958 111.147H300.842L300.519 109.325H297.462V105.652H298.579V107.18H298.932V105.255H297.11V111.147H294.891V103.154H298.535V102.684H294.773V100.494H296.14V99.9505H294.538V99.1277L293.495 100.582C292.731 99.9065 291.923 99.4509 291.026 98.9954L292.451 96.9823C293.186 97.2909 293.862 97.7023 294.538 98.1138ZM300.636 99.9505H298.711V100.494H300.636V99.9505ZM292.319 100.45C293.127 100.95 293.95 101.435 294.656 102.052L293.098 104.227C292.437 103.609 291.614 102.948 290.82 102.522L292.319 100.45ZM294.847 105.652C294.406 107.636 293.612 109.311 292.584 111.059L290.776 108.826C291.805 107.298 292.202 106.063 292.789 104.359L294.847 105.652ZM300.416 105.255V107.18H300.768V105.652H301.856V108.694C302.208 108.679 302.208 108.385 302.208 108.003V105.255H300.416Z" fill="#3F3F3F"/>
<path d="M277.081 98.4812H281.754V97.0706H284.472V98.4812H289.233V101.023H284.472V102.272H290.13V104.814H285.942C287.103 106.137 288.704 107.239 290.365 107.856L288.734 110.619C287.073 109.663 285.736 108.532 284.472 107.077V111.177H281.754V107.077C280.329 108.605 279.315 109.605 277.463 110.619L275.891 107.856C277.522 107.18 279.256 106.166 280.402 104.814H276.17V102.272H281.754V101.023H277.081V98.4812Z" fill="#3F3F3F"/>
<path d="M271.909 105.916H264.724V111.103H261.932V97.4379H274.686V109.325C274.686 110.354 274.275 111.103 273.143 111.103H270.102L269.631 108.223H271.483C271.909 108.223 271.909 108.018 271.909 107.738V105.916ZM264.724 100.142V103.316H266.928V100.142H264.724ZM269.675 100.142V103.316H271.909V100.142H269.675Z" fill="#D72B2B"/>
<path d="M250.647 108.914C249.853 109.869 249.001 110.56 247.943 111.192L246.209 108.635C249.28 107.077 250.22 104.374 250.22 101.097V100.053H246.503V97.4526H260.433V100.053H253.115V101.214H259.375C259.36 103.169 259.287 105.138 259.052 107.077C258.949 107.974 258.817 109.237 258.405 110.045C258.038 110.751 257.244 111.089 256.465 111.089H253.453L252.924 108.282H255.055C255.584 108.282 255.848 108.106 255.995 107.592C256.23 106.857 256.348 104.667 256.363 103.83H252.807C252.439 105.799 251.94 107.342 250.647 108.914Z" fill="#D72B2B"/>
<path d="M236.194 86.3813C242.9 86.3813 244.797 92.6329 244.797 98.2434C244.797 103.854 242.9 110.106 236.194 110.106C229.461 110.106 227.564 103.854 227.564 98.2434C227.564 92.6329 229.461 86.3813 236.194 86.3813ZM236.194 91.1635C234.911 91.1635 234.377 92.152 234.083 93.2474C233.629 94.8504 233.602 96.587 233.602 98.2434C233.602 99.8998 233.629 101.636 234.083 103.239C234.377 104.335 234.911 105.323 236.194 105.323C237.423 105.323 238.011 104.308 238.304 103.239C238.732 101.636 238.759 99.8998 238.759 98.2434C238.759 96.587 238.732 94.8504 238.304 93.2474C238.011 92.152 237.476 91.1635 236.194 91.1635Z" fill="#D72B2B"/>
<path d="M217.637 86.3813C224.343 86.3813 226.24 92.6329 226.24 98.2434C226.24 103.854 224.343 110.106 217.637 110.106C210.905 110.106 209.008 103.854 209.008 98.2434C209.008 92.6329 210.905 86.3813 217.637 86.3813ZM217.637 91.1635C216.355 91.1635 215.821 92.152 215.527 93.2474C215.072 94.8504 215.046 96.587 215.046 98.2434C215.046 99.8998 215.072 101.636 215.527 103.239C215.821 104.335 216.355 105.323 217.637 105.323C218.866 105.323 219.454 104.308 219.748 103.239C220.175 101.636 220.202 99.8998 220.202 98.2434C220.202 96.587 220.175 94.8504 219.748 93.2474C219.454 92.152 218.92 91.1635 217.637 91.1635Z" fill="#D72B2B"/>
<path d="M195.207 90.4154C198.039 90.4154 200.39 90.175 200.684 86.8087H205.894V109.678H199.963V94.6634C198.413 95.0374 196.81 95.1176 195.207 95.1176V90.4154Z" fill="#D72B2B"/>
<circle cx="250.082" cy="20.5" r="19.5" fill="#26B4FC" stroke="#3F3F3F" stroke-width="2"/>
<path fill-rule="evenodd" clip-rule="evenodd" d="M260.668 16.5236L248.208 28.0551L239.496 19.9925L242.677 17.049L248.208 22.1682L257.487 13.5802L260.668 16.5236Z" fill="white"/>
</svg>
