<svg width="331" height="62" viewBox="0 0 331 62" fill="none" xmlns="http://www.w3.org/2000/svg">
<rect x="0.0820312" y="49.0001" width="330" height="13" fill="#FFEA05"/>
<path d="M309.81 34.5296L318.922 23.898H326.551L315.54 36.2555L326.689 53.1348H319.544L311.432 40.8809L309.81 42.6759V53.1348H303.631V23.898H309.81V34.5296Z" fill="#D72B2B"/>
<path d="M287.522 23.3457C296.221 23.3457 300.363 30.629 300.363 38.5336C300.363 46.4383 296.255 53.7216 287.522 53.7216C278.824 53.7216 274.682 46.4383 274.682 38.5336C274.682 30.5945 278.824 23.3457 287.522 23.3457ZM287.522 28.696C282.379 28.696 281.067 34.3915 281.067 38.5336C281.067 42.6413 282.379 48.3713 287.522 48.3713C292.666 48.3713 294.012 42.6413 294.012 38.5336C294.012 34.3915 292.666 28.696 287.522 28.696Z" fill="#D72B2B"/>
<path d="M244.237 24.7264H258.596C258.596 29.5244 258.872 34.3915 260.495 38.9134C262.566 44.6434 267.226 48.682 272.576 51.2363L269.055 56.3795C262.359 52.7551 257.457 47.5084 255.662 40.156C253.556 47.5429 248.758 52.6861 242.131 56.3795L238.783 51.4434C243.097 49.3378 246.411 46.7144 249.138 42.7103C251.762 38.7753 253.039 34.7022 253.211 29.9732H244.237V24.7264Z" fill="#D72B2B"/>
<path d="M206.474 41.3986C205.887 42.089 205.507 42.5377 204.886 43.159L203.505 35.6686C206.232 32.3549 207.544 27.764 208.027 23.5528L213.136 23.967C212.756 26.6594 212.238 29.1447 211.41 31.7336V56.3449H206.474V41.3986ZM217.105 23.7254H222.111V26.7975H227.012V23.7254H232.121V26.7975H235.814V31.2848H232.121V33.9772H236.608V38.4646H212.515V33.9772H217.105V31.2848H213.343V26.7975H217.105V23.7254ZM227.012 31.2848H222.111V33.9772H227.012V31.2848ZM234.434 40.0869V56.3449H229.359V55.2058H219.729V56.3449H214.655V40.0869H234.434ZM229.359 43.7459H219.729V45.6789H229.359V43.7459ZM229.359 49.0962H219.729V51.0637H229.359V49.0962Z" fill="#D72B2B"/>
<path d="M194.614 40.9338L196.208 39.82C197.044 40.706 197.727 41.6679 198.335 42.7057L196.664 43.8195C196.082 42.7817 195.398 41.8451 194.614 40.9338ZM197.17 39.2378L198.765 38.124C199.575 39.01 200.258 39.9719 200.866 41.0098L199.221 42.1235C198.638 41.0857 197.955 40.1238 197.17 39.2378ZM177.147 34.5043C178.692 34.4789 180.261 34.4536 181.805 34.3524L199.98 33.0614L200.309 37.1875C197.373 37.2634 194.791 37.6937 192.285 39.2885C190.083 40.6554 188.184 42.8576 188.184 45.5915C188.184 49.5909 192.892 50.8566 196.107 51.1351L194.133 55.2105C191.956 54.932 189.829 54.2486 187.931 53.1348C185.222 51.5401 183.78 48.9075 183.78 45.794C183.78 42.1995 185.729 39.415 188.589 37.4153L177.477 38.7822L177.147 34.5043Z" fill="#D72B2B"/>
<path d="M165.651 39.5691C166.306 37.36 166.755 35.1163 166.928 32.8036L172.416 34.1498C172.071 37.0493 171.415 39.8453 170.483 42.6067C171.933 43.7113 173.383 44.8159 174.798 46.024L171.829 51.3398C170.621 50.2352 169.344 49.1306 168.067 48.0606C166.376 51.2707 164.132 54.2048 161.37 56.552L156.572 53.3073C159.472 50.9601 161.75 48.0951 163.511 44.7813C161.647 43.6077 159.714 42.5032 157.573 41.8473C156.365 44.4016 154.916 46.9215 153.259 49.1997C151.843 51.0981 149.979 53.1002 147.391 53.1002C143.801 53.1002 142.213 49.5794 142.213 46.4727C142.213 40.4666 147.218 35.6686 153.155 35.6686C153.638 35.6686 154.122 35.7376 154.605 35.7721C155.33 34.0808 156.02 32.3894 156.676 30.6635C154.191 30.9396 151.671 31.1122 149.151 31.1122C148.668 31.1122 148.185 31.1122 147.701 31.1122L147.632 25.5893C149.013 25.6583 150.428 25.6929 151.843 25.6929C154.743 25.6929 157.677 25.6238 160.507 24.968L163.856 27.5568C162.51 30.6635 161.232 33.8046 159.921 36.9458C161.888 37.6361 163.821 38.5336 165.651 39.5691ZM152.189 40.8463C151.326 40.9153 150.497 41.0879 149.738 41.5712C148.081 42.5377 146.942 44.5052 146.942 46.4037C146.942 46.7489 146.976 47.5428 147.46 47.5428C148.392 47.5428 150.187 44.6433 152.189 40.8463Z" fill="#D72B2B"/>
<path d="M123.435 50.7185C128.613 49.0962 132.997 45.7825 132.997 39.8799C132.997 35.0473 130.442 31.5955 125.679 30.6981C124.816 36.9458 123.435 43.9185 120.363 49.4759C119.155 51.5815 117.395 53.549 114.771 53.549C113.011 53.549 111.492 52.617 110.353 51.3399C107.971 48.751 107.074 45.1266 107.074 41.7093C107.074 32.1823 114.184 25.3823 123.677 25.3823C132.272 25.3823 138.83 31.1123 138.83 39.9489C138.83 44.4708 137.001 48.7855 133.584 51.7886C131.547 53.6181 128.993 54.8262 126.438 55.6546L123.435 50.7185ZM120.053 30.9742C115.255 32.5275 112.562 36.9804 112.562 41.8819C112.562 43.3662 112.735 44.9195 113.356 46.2657C113.598 46.749 113.977 47.4393 114.564 47.4393C115.634 47.4393 116.67 44.5053 117.118 43.1936C118.534 39.224 119.397 35.1164 120.053 30.9742Z" fill="#D72B2B"/>
<path d="M98.7201 41.4676V50.5114H104.105V55.4474H85.0165V50.5114H86.2246V33.0798H91.1607V50.5114H93.6115V29.5589H85.6378V24.6573H103.622V29.5589H98.7201V36.7387H102.828V41.4676H98.7201ZM72.2793 24.6573H84.0154V28.3163H72.2793V24.6573ZM71.3818 29.5934H85.12V33.563H71.3818V29.5934ZM72.2793 34.8057H84.0154V38.6026H72.2793V34.8057ZM72.2793 39.9834H84.0154V43.7803H72.2793V39.9834ZM72.2793 45.1266H84.0154V55.2058H77.0083V56.4485H72.2793V45.1266ZM79.7352 48.8545H77.0083V51.3743H79.7352V48.8545Z" fill="#D72B2B"/>
<path d="M41.3511 37.9468C40.5572 38.6716 39.7288 39.362 38.9003 40.0179L35.5176 35.2544C40.143 32.2513 43.3187 28.6959 45.2172 23.4492L50.3603 24.4847C48.9451 28.4888 47.0121 31.9406 44.1471 35.1508H60.9574C58.334 32.0442 56.2974 28.4543 54.7786 24.6573L59.9218 23.4147C62.062 28.3853 65.0305 32.4239 69.5179 35.4615L66.066 39.9488C65.2031 39.3275 64.5127 38.7752 63.7188 38.0503C63.7188 41.3986 63.4082 46.1621 62.9594 49.5103C62.7523 51.1672 62.4417 53.1692 61.5787 54.619C60.7158 56.0342 59.197 56.4139 57.6436 56.4139H51.4649L50.4294 51.2017H55.4345C56.4355 51.2017 57.0914 50.7875 57.402 49.8555C58.0233 47.9915 58.2305 42.3306 58.334 40.1559H51.9482C51.0162 48.5093 46.5979 53.2383 39.0729 56.483L36.0353 51.5814C41.6618 49.4758 46.0456 46.6108 46.5979 40.1559H41.3511V37.9468Z" fill="#D72B2B"/>
<path d="M17.0505 45.2992C11.8728 45.955 6.69507 46.3692 1.51736 46.6799L0.965071 41.7783C2.48386 41.7438 4.00266 41.7093 5.48693 41.6748V25.9H13.9093C14.151 25.0716 14.3236 24.3812 14.4616 23.5183L20.4333 23.5873C20.1571 24.3812 19.9155 25.1751 19.5703 25.9H29.3734V34.0118C29.6151 33.6666 29.8567 33.3214 30.0983 32.9762L33.9988 36.2209C32.5146 38.0504 31.0303 39.8108 29.3734 41.4677V52.8586C29.3734 55.1713 28.0617 56.3795 25.7835 56.3795H18.7073L17.7754 51.1327L23.2637 51.2018C24.0922 51.2018 24.1612 50.8566 24.1612 50.1317V46.1276C17.8444 50.9946 10.8372 53.8942 3.17423 55.8617L0.79248 50.8911C6.52248 49.8556 12.0108 48.2332 17.0505 45.2992ZM24.1612 29.9386H10.7682V31.5955H24.1612V29.9386ZM24.1612 34.6676H10.7682V36.359H24.1612V34.6676ZM22.9876 41.0535C23.3673 40.7083 23.7815 40.3631 24.1612 39.9834V39.5001H10.7682V41.5367C14.8413 41.4677 18.9145 41.3986 22.9876 41.0535Z" fill="#D72B2B"/>
<line x1="82.582" y1="17.8457" x2="199.582" y2="17.8457" stroke="black"/>
<path d="M84.337 11.1857L84.262 0.850702L86.212 0.820703L86.257 10.4807C87.517 10.0157 88.762 9.5507 89.977 8.9957L90.322 10.6757C88.732 11.4857 85.012 12.9707 83.302 13.5257L82.942 11.6057C83.422 11.4857 83.872 11.3357 84.337 11.1857ZM94.762 10.0757C95.692 10.9907 96.592 11.9357 97.357 13.0007L95.872 14.6957C95.257 13.6007 94.477 12.6257 93.697 11.6657C92.347 13.2257 90.772 14.1257 88.822 14.7407L87.757 12.9107C89.947 12.3557 91.882 11.2457 92.977 9.2057C93.847 7.6007 93.982 5.8307 93.997 4.0307L94.042 0.895702H96.067L96.022 4.2557C95.992 6.3257 95.722 8.2007 94.762 10.0757ZM89.002 1.3007C90.232 2.4557 91.312 3.7607 92.212 5.1857L90.532 6.4607C89.677 4.9907 88.672 3.7157 87.532 2.4557L89.002 1.3007ZM98.032 1.0457H112.132V2.9357H105.622V4.5407C107.722 5.5007 109.972 6.7307 111.742 8.2157L110.407 10.0607C108.952 8.5907 107.422 7.6007 105.622 6.5957V14.7257H103.642V2.9357H98.032V1.0457ZM117.772 2.4707C118.117 1.8407 118.447 1.2107 118.747 0.565702L120.727 1.0757L119.902 2.3807C121.507 2.3057 123.112 2.0807 124.687 1.7657L124.672 3.6407C122.707 3.9257 120.727 4.1357 118.747 4.2257L118.087 5.2907C118.552 5.0957 119.047 4.9907 119.557 4.9907C120.697 4.9907 121.597 5.5457 122.062 6.5957C123.277 6.0707 124.507 5.5757 125.752 5.1107L126.487 6.8957C125.122 7.4057 123.742 7.8857 122.407 8.4407C122.422 8.8157 122.422 9.1757 122.422 9.5507C122.422 10.1507 122.407 10.7507 122.392 11.3657L120.472 11.3507C120.532 10.6457 120.562 9.9557 120.577 9.2507C119.842 9.6107 118.282 10.4057 118.282 11.3657C118.282 12.3707 120.067 12.4307 121.027 12.4307C122.482 12.4307 123.877 12.3257 125.482 12.0557L125.287 14.0357C124.117 14.1707 122.932 14.2457 121.762 14.2457C119.917 14.2457 116.452 14.1557 116.422 11.4707C116.422 9.3707 118.777 8.1107 120.412 7.3457C120.217 6.7907 119.677 6.5807 119.122 6.5807C117.232 6.5807 116.047 8.3507 115.102 9.7457L113.557 8.6657C114.697 7.2857 115.792 5.8307 116.707 4.2857C116.437 4.3007 116.152 4.3007 115.867 4.3007C115.327 4.3007 114.772 4.2857 114.232 4.2857L114.277 2.4107C115.342 2.4407 116.407 2.4707 117.472 2.4707C117.577 2.4707 117.667 2.4707 117.772 2.4707ZM137.497 11.1857H138.202V8.9357H139.327V12.6857H134.242V8.9357H135.382V11.1857H136.087V8.2757H133.642V14.7107H131.947V6.7907H136.042V5.8457H131.797V4.2707H133.552V3.1607H131.632V1.5857H133.552V0.580703H135.337V1.5857H138.247V0.580703H140.017V1.5857H142.012V3.1607H140.017V4.2707H141.847V5.8457H137.542V6.7907H141.637V13.3757C141.637 14.2757 141.097 14.7107 140.227 14.7107H138.142L137.842 12.9707H139.432C139.912 12.9707 139.927 12.9257 139.927 12.5207V8.2757H137.497V11.1857ZM129.277 0.640702C129.952 0.910702 131.017 1.5407 131.602 1.9907L130.492 3.5207C129.787 2.9357 129.052 2.4707 128.242 2.0507L129.277 0.640702ZM138.247 3.1607H135.337V4.2707H138.247V3.1607ZM128.752 4.5407C129.607 4.9157 130.402 5.4107 131.122 6.0257L130.057 7.5107C129.352 6.9107 128.587 6.4007 127.747 5.9957L128.752 4.5407ZM131.347 9.3857C130.972 10.9007 129.967 13.2857 129.097 14.5907L127.747 13.0607C128.722 11.6657 129.337 10.0757 129.862 8.4557L131.347 9.3857ZM148.372 4.9907C147.532 8.1107 146.572 11.2007 145.297 14.1857L143.287 13.4057C143.917 12.1007 144.487 10.7807 144.982 9.4307C145.492 8.0207 145.897 6.5807 146.302 5.1407C145.687 5.1707 145.087 5.1857 144.472 5.1857C144.217 5.1857 143.962 5.1857 143.707 5.1707L143.677 3.1607C144.217 3.1757 144.757 3.1907 145.297 3.1907C145.792 3.1907 146.287 3.1757 146.782 3.1607C146.977 2.2907 147.157 1.4207 147.307 0.550702L149.347 0.835702C149.182 1.5557 149.017 2.2757 148.837 2.9957C149.872 2.8757 150.892 2.6957 151.912 2.4707L151.987 4.4507C150.787 4.6907 149.587 4.8707 148.372 4.9907ZM150.742 10.2407C150.412 10.5707 149.962 11.0207 149.962 11.5307C149.962 12.3407 151.777 12.3857 152.632 12.3857C153.937 12.3857 155.047 12.2957 156.562 12.0857V14.0957C155.437 14.2007 154.327 14.2757 153.202 14.2757C151.402 14.2757 148.012 14.2607 148.012 11.6807C148.012 10.7657 148.567 9.9857 149.182 9.3557L150.742 10.2407ZM150.157 5.3507C151.237 5.2157 152.317 5.1257 153.397 5.1257C154.387 5.1257 155.377 5.1857 156.367 5.3057L156.172 7.2107C155.227 7.0907 154.267 7.0307 153.307 7.0307C152.182 7.0307 151.057 7.1207 149.947 7.2857L150.157 5.3507ZM167.722 4.2557L167.767 8.9957C167.812 12.1607 166.267 13.8857 163.432 15.0257L162.082 13.3757C163.372 12.9257 164.722 12.2207 165.487 11.0507C165.007 11.3357 164.467 11.5007 163.897 11.5007C162.097 11.5007 160.912 10.0007 160.912 8.2757C160.912 6.4007 162.277 5.0507 164.137 5.0507C164.737 5.0507 165.292 5.1857 165.802 5.4707L165.787 4.3157L161.467 4.4207C160.387 4.4507 159.322 4.4807 158.242 4.5557V2.5457C158.707 2.5607 159.157 2.5757 159.622 2.5757C160.192 2.5757 160.777 2.6057 161.347 2.5907L165.742 2.5007L165.697 0.595703H167.677L167.692 2.4557L168.982 2.4407C169.957 2.4107 170.947 2.3507 171.922 2.2457V4.3007C171.397 4.2707 170.872 4.2557 170.332 4.2557C169.882 4.2407 169.417 4.2107 168.967 4.2257L167.722 4.2557ZM164.272 9.8057C165.172 9.8057 165.712 9.0707 165.712 8.2157C165.712 7.3907 165.127 6.7457 164.287 6.7457C163.447 6.7457 162.847 7.4657 162.847 8.2757C162.847 9.1007 163.387 9.8057 164.272 9.8057ZM179.287 10.0757C178.642 10.6307 178.072 10.9457 177.307 11.2907L177.052 10.8857C175.702 11.4557 174.397 11.9807 172.987 12.4007L172.792 10.4507C173.302 10.3307 173.812 10.2107 174.322 10.0457V5.5157H172.972V3.7307H174.322V0.595703H176.107V3.7307H177.097V5.5157H176.107V9.4607C176.452 9.3407 176.782 9.2057 177.097 9.0557L177.142 9.7607C178.132 9.3257 178.747 8.8007 179.407 7.9607H177.082V6.5507H187.177V7.9607H181.102C180.937 8.2157 180.817 8.4257 180.637 8.6807H186.802C186.787 9.7457 186.697 12.9557 186.322 13.8107C186.037 14.4707 185.587 14.6807 184.882 14.6807H182.722L182.452 13.0457H184.237C184.702 13.0457 184.762 12.8207 184.837 12.4457C184.942 11.9357 185.002 10.6457 185.032 10.0757H184.402C183.487 12.3257 181.867 13.8857 179.662 14.8607L178.582 13.6157C180.322 12.8957 181.957 11.7707 182.872 10.0757H181.987C180.592 11.9957 179.137 12.9407 176.887 13.6157L176.197 12.3107C177.832 11.8757 179.062 11.2607 180.277 10.0757H179.287ZM177.757 1.0307H186.262V5.9057H177.757V1.0307ZM184.507 2.2457H179.497V3.0407H184.507V2.2457ZM184.507 3.9857H179.497V4.7957H184.507V3.9857ZM191.242 5.2607C190.462 5.7107 189.667 6.1007 188.842 6.4607L187.852 4.5707C189.007 4.1957 190.147 3.6857 191.197 3.0407C192.292 2.3657 193.282 1.5407 194.077 0.550702H196.117C196.852 1.4357 197.692 2.1407 198.607 2.7407C199.747 3.4907 201.007 4.0607 202.342 4.5707L201.307 6.4607C200.527 6.1157 199.762 5.7407 199.027 5.3057V6.3857H191.242V5.2607ZM192.157 4.6907H198.022C196.882 3.9107 195.982 3.1457 195.052 2.1107C194.227 3.1307 193.267 3.9707 192.157 4.6907ZM189.382 7.6757H200.752V14.6957H198.877V14.1407H191.272V14.6957H189.382V7.6757ZM198.877 9.3707H191.272V12.4607H198.877V9.3707ZM212.152 3.7907L212.077 0.910702H214.072L214.117 3.6557C214.942 3.5957 215.737 3.4907 216.547 3.3407V5.3057C215.752 5.4107 214.957 5.5157 214.162 5.5757L214.237 9.3707C215.302 9.7607 216.277 10.3307 217.177 11.0057L216.367 12.8057C215.722 12.2507 215.002 11.7857 214.252 11.3807C214.252 12.0857 214.162 12.8357 213.667 13.3907C213.037 14.1107 212.032 14.3207 211.132 14.3207C209.392 14.3207 207.637 13.4657 207.637 11.5157C207.637 10.7657 207.952 10.0457 208.507 9.5357C209.182 8.9207 210.082 8.7257 210.982 8.7257C211.402 8.7257 211.837 8.7707 212.272 8.8307L212.197 5.7107C211.597 5.7407 211.012 5.7407 210.412 5.7407C209.527 5.7407 208.642 5.6957 207.757 5.6357L207.772 3.6707C208.792 3.7607 209.827 3.8057 210.862 3.8057C211.297 3.8057 211.717 3.7907 212.152 3.7907ZM212.317 10.6307C211.867 10.5407 211.402 10.4657 210.922 10.4657C210.277 10.4657 209.392 10.6607 209.392 11.4857C209.392 12.3407 210.367 12.5507 211.042 12.5507C212.167 12.5507 212.332 12.0407 212.332 11.0507C212.332 10.9157 212.317 10.7807 212.317 10.6307ZM204.682 1.0157L206.707 1.3007C206.152 3.7457 205.777 6.2807 205.777 8.7857C205.777 9.4907 205.822 10.1957 205.912 10.9007C206.107 10.5107 206.302 10.1207 206.497 9.7307L207.442 10.6007C206.887 11.6957 206.332 12.8657 206.257 14.1107L204.607 14.2907C204.082 12.4457 203.857 10.5407 203.857 8.6207C203.857 6.0707 204.187 3.5207 204.682 1.0157ZM225.517 10.0157H221.872V3.8507H225.097C225.187 3.5357 225.262 3.1457 225.322 2.8157H220.957V7.9607C220.957 8.9957 220.837 10.2557 220.582 11.5457C220.327 12.8357 219.952 13.6457 219.352 14.6207L217.777 13.2257C218.737 11.6357 219.112 10.0307 219.112 7.6307V1.1357H232.072V2.8157H227.332C227.227 3.1607 227.137 3.5057 227.002 3.8507H231.142V10.0157H227.422V13.4657C227.422 14.3657 227.032 14.6657 226.177 14.6657H224.137L223.702 12.8957H225.172C225.427 12.8957 225.517 12.7907 225.517 12.4757V10.0157ZM229.357 5.3357H223.657V6.2807H229.357V5.3357ZM229.357 7.5707H223.657V8.5157H229.357V7.5707ZM221.917 14.5007L220.492 13.2107C221.362 12.5807 222.337 11.3657 222.847 10.4057L224.482 11.1707C223.852 12.4157 222.967 13.5857 221.917 14.5007ZM232.297 13.1957L230.812 14.4407C229.882 13.5557 228.952 12.3107 228.367 11.1707L230.002 10.4207C230.752 11.5157 231.322 12.2807 232.297 13.1957ZM244.807 0.580703H246.697V13.3457C246.697 14.3207 246.187 14.7257 245.242 14.7257H242.437L242.152 12.8357H244.267C244.672 12.8357 244.807 12.7157 244.807 12.2807V0.580703ZM233.512 0.940703H240.097V11.1557H233.512V0.940703ZM241.387 11.6057V1.4207H243.217V11.6057H241.387ZM238.342 2.6207H235.267V3.9107H238.342V2.6207ZM238.342 5.3657H235.267V6.6707H238.342V5.3657ZM238.342 8.1407H235.267V9.4757H238.342V8.1407ZM234.007 14.7707L232.732 13.6457C233.542 13.0307 234.457 12.0707 234.937 11.1707L236.407 11.9657C235.807 13.0607 234.982 14.0057 234.007 14.7707ZM240.862 13.5857L239.452 14.6657C238.837 13.7807 238.102 12.9257 237.277 12.2207L238.597 11.2307C239.572 11.9957 240.127 12.6107 240.862 13.5857Z" fill="#3F3F3F"/>
</svg>
