<svg width="341" height="86" viewBox="0 0 341 86" fill="none" xmlns="http://www.w3.org/2000/svg">
<path d="M90.775 50.8762C88.5489 50.9999 86.2816 51.1235 84.0143 51.1648L83.2723 45.4759C89.5383 45.4759 95.6806 44.9812 101.864 43.662L103.637 49.2272C101.328 49.8044 99.1847 50.0517 96.8349 50.3403V54.5451H103.225V60.3164H97.2059C98.7312 63.2433 100.999 66.5412 103.348 68.8497L100.215 74.1264C98.8961 72.3538 97.7831 70.4987 96.8349 68.52V83.1544H90.775V69.0146C89.0436 72.5599 87.3534 74.9096 84.7151 77.8365L82.5303 70.2101C85.6221 67.6542 88.384 63.8617 90.1979 60.3164H83.0662V54.5451H90.775V50.8762ZM120.91 43.9094V78.3724C120.91 79.6091 120.786 80.9283 119.879 81.8764C119.013 82.7009 117.818 83.1544 116.622 83.1544H108.254L107.1 76.5586H113.448C114.396 76.5586 114.685 76.3937 114.685 75.4868V43.9094H120.91ZM111.098 47.0424V73.8378H104.956V47.0424H111.098Z" fill="white"/>
<path d="M49.7577 57.5544C48.0263 58.4201 46.2536 59.2446 44.481 59.9866L41.4717 53.8031C47.3667 51.9892 54.251 48.6089 58.3734 43.9918H64.8043C69.7512 48.5677 75.2752 51.6594 81.6236 53.8855L78.6555 60.234C76.8829 59.4507 75.1515 58.6262 73.4613 57.6781V60.234H64.6807V63.0372H79.5212V68.8497H64.6807V76.4349H67.2365C68.1847 74.0027 68.9679 71.5705 69.6275 69.0558L75.8935 70.746C75.1927 72.6835 74.4095 74.5798 73.6262 76.4349H80.4281V82.2886H42.5847V76.4349H49.2217C48.7683 74.7859 47.985 72.8484 47.0781 70.8697L53.138 69.1383C54.251 71.4468 55.0755 73.9202 55.7351 76.4349H58.4146V68.8497H43.5741V63.0372H58.4146V60.234H49.7577V57.5544ZM54.8282 54.6275H68.3908C65.8761 52.8961 63.7325 51.0823 61.5476 48.9387C59.4452 51.1647 57.384 52.9786 54.8282 54.6275Z" fill="white"/>
<path d="M3.54524 65.3458C2.92689 66.0879 2.30853 66.7887 1.64895 67.4895L0 58.4615C3.38035 54.4216 5.0293 49.1037 5.68888 43.9507L11.7075 44.363C11.1716 47.7846 10.4708 50.9588 9.39901 54.2154V83.1957H3.54524V65.3458ZM25.6824 62.3777H18.6744V68.8086C20.818 68.5613 22.9616 68.2315 25.064 67.8193L25.4351 73.2196C21.3539 74.1677 15.4177 74.7449 11.2129 75.0334L10.5121 69.427C11.2953 69.3858 12.0373 69.3446 12.8206 69.3033V45.9295H14.7581C21.0653 45.9295 30.3407 45.3936 36.4418 43.992L39.1213 49.5572C36.3593 50.2167 33.8035 50.5053 31.0003 50.7527C31.0415 52.6489 31.1239 54.5452 31.2476 56.4828H39.8634V62.3777H31.6598C32.0309 65.8818 32.3194 68.9323 33.3912 72.3127C33.7622 73.4257 34.2569 74.951 34.999 74.951C35.4524 74.951 35.7822 74.0441 36.112 73.0959C36.5242 71.9004 36.8953 70.6637 37.225 69.427L40.3168 75.5693C39.9046 77.2595 39.4511 78.6199 38.5854 80.1452C37.6373 81.7529 36.5242 83.1957 34.4631 83.1957C30.9178 83.1957 29.3513 79.4444 28.3619 76.5999C26.8779 72.2714 26.1359 66.9536 25.6824 62.3777ZM25.2289 56.4828C25.1877 54.6689 25.1053 52.8551 25.064 51.0412C22.9204 51.1237 20.818 51.2061 18.6744 51.2473V56.4828H25.2289ZM27.3726 82.3712H11.2953V76.6824H27.3726V82.3712Z" fill="white"/>
<path d="M258.461 57.6011C259.219 57.6292 259.977 57.6572 260.735 57.6572C265.169 57.6572 269.575 57.4327 273.925 56.7872L276.058 60.4917C273.56 62.0914 271.203 63.8314 268.789 65.5433C269.575 65.3749 270.389 65.2907 271.175 65.2907C275.833 65.2907 279.678 68.3497 279.678 73.1768C279.678 79.5474 273.925 82.7468 268.2 82.7468C264.804 82.7468 260.258 81.4277 260.258 77.3023C260.258 74.1871 263.401 72.391 266.207 72.391C269.182 72.391 271.96 74.0749 273.532 76.6007C274.318 75.7868 274.767 74.7484 274.767 73.5978C274.767 70.4826 271.96 69.2759 269.238 69.2759C266.937 69.2759 264.832 70.0897 262.924 71.3246C261.015 72.5875 259.303 74.131 257.648 75.7026L254.561 71.7736L266.937 61.8108C264.271 62.1756 261.577 62.4001 258.882 62.5124L258.461 57.6011ZM269.575 78.5652C268.733 77.3303 267.47 76.32 265.899 76.32C265.365 76.32 264.495 76.4884 264.495 77.19C264.495 78.509 267.049 78.7616 267.975 78.7616C268.537 78.7616 269.07 78.6774 269.575 78.5652Z" fill="white"/>
<path d="M237.356 69.5004C237.356 71.3807 237.328 73.2891 237.328 75.1694C237.328 77.6671 237.384 80.1368 237.412 82.6065H232.501L232.557 75.871C231.771 76.9936 231.014 78.1442 230.284 79.2949L226.72 75.9552L232.613 68.0411L232.641 66.1046C231.21 66.3291 229.779 66.4695 228.347 66.6098L227.814 61.5582C229.442 61.5301 231.07 61.474 232.669 61.3056L232.726 56.5627H237.637C237.553 58.8921 237.496 61.2214 237.44 63.5508C239.517 61.5301 241.903 59.8463 244.905 59.8463C248.105 59.8463 250.771 62.1476 250.771 65.4311C250.771 66.722 250.603 68.013 250.294 70.0336C250.097 71.4369 249.761 73.3733 249.761 74.7485C249.761 75.2255 249.901 75.843 250.49 75.843C251.136 75.843 252.034 75.3097 253.325 74.2433L254.419 78.9581C252.848 80.1929 251.052 81.1191 249.003 81.1191C246.196 81.1191 244.484 79.2388 244.484 76.4604C244.484 74.7204 244.934 71.7736 245.186 69.9775C245.439 68.2375 245.551 67.1991 245.551 66.273C245.551 65.2908 244.99 64.6733 243.979 64.6733C241.678 64.6733 238.815 67.8727 237.356 69.5004Z" fill="white"/>
<path d="M208.226 56.282C212.491 56.703 216.645 57.6011 220.714 58.9482L219.002 63.4946C214.989 62.0072 210.864 61.053 206.626 60.5198L208.226 56.282ZM204.633 61.1933L209.629 62.2317C209.124 64.1401 208.647 66.0765 208.254 68.0129C210.695 66.7781 213.446 65.9923 216.196 65.9923C220.883 65.9923 225.261 68.3217 225.261 73.5136C225.261 81.9048 215.803 82.5503 210.948 82.5503C209.32 82.5503 207.664 82.438 206.037 82.2416L205.082 77.1058C207.159 77.4987 209.236 77.6951 211.341 77.6951C214.063 77.6951 220.013 77.3584 220.013 73.5136C220.013 71.2684 217.936 70.6229 216.056 70.6229C212.407 70.6229 209.039 72.2226 206.401 74.6361L202.332 73.4574C202.949 69.332 203.707 65.2346 204.633 61.1933Z" fill="white"/>
<path d="M177.523 56.8714L182.686 57.4327C181.985 60.8846 181.62 64.3926 181.48 67.9288C182.069 66.8623 182.63 65.7959 183.192 64.7294L185.689 67.0307C184.09 69.781 182.743 72.6997 181.985 75.7868L177.859 76.2358C176.877 73.1768 176.568 69.9494 176.568 66.7501C176.568 63.4385 176.905 60.1269 177.523 56.8714ZM190.853 56.9275H196.185C196.494 60.2111 196.691 63.5227 196.691 66.8343C196.691 74.6923 194.698 79.5755 187.401 83.1958L183.107 79.5755C185.886 78.2564 188.748 76.4603 190.18 73.5978C191.302 71.3526 191.386 68.7146 191.386 66.2449C191.386 63.1298 191.134 60.0146 190.853 56.9275Z" fill="white"/>
<path d="M148.111 71.1843C147.662 71.7176 147.382 71.9982 146.905 72.4472L145.866 65.5153C147.522 63.5228 148.476 61.1373 149.009 58.6396C149.178 57.7976 149.318 56.9838 149.402 56.1418L153.921 56.5067C153.612 58.7238 153.163 60.7444 152.489 62.9054V82.9433H148.111V71.1843ZM156.839 56.3102H161.33V58.6396H164.81V56.3102H169.44V58.6396H172.247V62.6528H169.44V64.477H172.864V68.5182H153.331V64.477H156.839V62.6528H154.005V58.6396H156.839V56.3102ZM164.81 62.6528H161.33V64.477H164.81V62.6528ZM171.18 69.5847V82.9433H166.606V82.0453H159.534V82.9433H155.015V69.5847H171.18ZM166.606 72.784H159.534V74.103H166.606V72.784ZM166.606 77.0779H159.534V78.3969H166.606V77.0779Z" fill="white"/>
<path d="M139.255 70.9953L140.544 70.1363C141.168 70.8196 141.676 71.5614 142.144 72.3619L140.836 73.2209C140.368 72.4204 139.88 71.6981 139.255 70.9953ZM141.207 69.7067L142.496 68.8477C143.121 69.531 143.628 70.2729 144.097 71.0734L142.789 71.9324C142.34 71.1319 141.832 70.4096 141.207 69.7067ZM125.745 65.7631C127.053 65.7436 128.342 65.724 129.63 65.6264L143.433 64.6698L143.726 68.1644C141.539 68.2035 139.606 68.4768 137.713 69.6287C136.034 70.6634 134.589 72.3424 134.589 74.4313C134.589 77.4379 138.22 78.2969 140.602 78.4726L138.943 81.9477C134.745 81.3815 130.782 79.4097 130.782 74.607C130.782 71.9714 132.129 69.8434 134.218 68.3011L126.018 69.3944L125.745 65.7631Z" fill="white"/>
<path d="M284.707 57.3099C284.853 54.4579 285.289 51.6534 286.791 49.1817C289.552 44.5709 294.785 43.1924 299.97 43.1924C304.524 43.1924 309.321 44.5234 312.18 48.231C313.682 50.1799 314.409 52.6516 314.409 55.0758C314.409 58.5458 313.246 60.8274 310.484 62.8714C313.779 65.2956 315.378 68.3377 315.378 72.4256C315.378 76.8938 313.1 80.8866 309.273 83.2633C306.462 85.022 302.586 85.4023 299.34 85.4023C295.173 85.4023 291.151 84.4041 288.147 81.457C286.742 79.9834 285.676 78.2247 285.095 76.2758C284.465 74.2794 284.271 72.2355 284.223 70.144H294.979C294.979 73.9467 295.415 76.7036 300.067 76.7036C302.974 76.7036 305.009 75.2301 305.009 72.2355C305.009 68.6229 302.247 67.9574 299.146 67.9574H295.609V59.6391H299.97C302.247 59.6391 303.797 58.3081 303.797 56.074C303.797 53.5548 302.295 52.0337 299.776 52.0337C296.433 52.0337 295.512 54.5054 295.464 57.3099H284.707Z" fill="url(#paint0_linear_697_1014)"/>
<path d="M324.875 77.5009V85.4022H320.41V78.5295C319.709 79.1139 318.984 79.6516 318.236 80.1659L317.395 74.6724C319.218 73.6672 321.345 71.8438 322.374 70.0204H317.932V65.9996H320.41V63.101H324.875V65.9996H326.979V70.0204C326.605 71.1191 326.231 71.8438 325.6 72.8256C326.465 73.8074 327.47 74.5555 328.592 75.2334L326.441 79.3944C325.787 78.7633 325.389 78.2724 324.875 77.5009ZM331.046 63.101H335.605V68.2906H339.789V72.7321H335.605V80.4931H340V84.8412H326.067V80.4931H331.046V72.7321H327.353V68.2906H331.046V63.101Z" fill="url(#paint1_linear_697_1014)"/>
<path d="M331.337 44.6652C331 45.062 330.724 45.3454 330.325 45.6628L329.386 43.5996C330.029 43.0668 330.54 42.4547 330.959 41.6951L333.093 41.8878C333.032 42.0352 332.981 42.1599 332.92 42.3073H339.365V44.0757H331.817C331.735 44.1778 331.653 44.2798 331.571 44.3818H338.588V45.8102H331.337V44.6652ZM331.357 49.9819C330.918 49.6418 330.54 49.3697 330.06 49.0977L331.153 47.7827H329.57V46.1389H337.649C337.618 46.8531 337.598 47.5559 337.598 48.2588C337.598 48.7689 337.628 49.6871 337.741 50.1293C337.761 50.22 337.833 50.356 337.924 50.356C338.18 50.356 338.68 49.3244 338.823 48.9956L339.538 51.3196C339.15 51.9997 338.527 52.7706 337.741 52.7706C337.189 52.7706 336.668 52.3965 336.372 51.909C335.759 50.9001 335.708 48.9843 335.688 47.7827H334.145L335.33 48.5195C335.034 49.0637 334.748 49.4718 334.35 49.9365C334.748 50.3106 335.146 50.6847 335.534 51.0815L334.084 52.6006C333.696 52.1244 333.277 51.6937 332.838 51.2856C332.143 51.7957 331.408 52.2378 330.652 52.6459L329.641 50.8094C330.254 50.594 330.795 50.3446 331.357 49.9819ZM332.91 48.7122C333.195 48.4288 333.42 48.1228 333.655 47.7827H331.571C332.031 48.0661 332.481 48.3835 332.91 48.7122Z" fill="white"/>
<path d="M323.311 41.6951H325.37V43.7761C325.37 45.3022 325.597 46.6317 326.338 47.9265C327.09 49.2329 328.14 50.0769 329.386 50.7012L328.119 52.7706C326.194 51.4989 325.082 50.2156 324.33 47.8225C323.527 50.204 322.394 51.4642 320.49 52.7706L319.233 50.759C321.849 49.5451 323.311 46.9438 323.311 43.7877V41.6951Z" fill="white"/>
<path d="M317.388 43.0796V55.078H323.387L321.541 58.7698L327.079 55.078H340" stroke="white" stroke-linecap="round" stroke-linejoin="round"/>
<path d="M63.2066 13.44C62.6666 13.94 62.2866 14.24 61.6466 14.58L59.9466 12.24C61.3466 11.42 62.8266 10.24 63.5066 8.72L66.4866 9.08C66.3066 9.54 66.1666 9.8 65.9266 10.22H78.7266V12.92H77.1066V14.88H79.2266V17.62H77.1066V19.6H78.7266V22.3H60.7266V19.6H62.9666V17.62H60.2666V14.88H63.2066V13.44ZM66.9666 12.92H65.5266V14.88H66.9666V12.92ZM70.7066 12.92H69.2466V14.88H70.7066V12.92ZM74.4466 12.92H72.9866V14.88H74.4466V12.92ZM66.9666 17.62H65.5266V19.6H66.9666V17.62ZM70.7066 17.62H69.2466V19.6H70.7066V17.62ZM74.4466 17.62H72.9866V19.6H74.4466V17.62ZM64.9666 23.3C64.3866 25.12 63.7866 26.62 62.5666 28.1L60.0266 26.36C61.1266 25.2 61.8066 23.84 62.3466 22.34L64.9666 23.3ZM76.7266 22.34C77.8866 23.88 78.5466 24.98 79.3866 26.72L76.5866 28.06C75.9466 26.44 75.0666 24.9 74.1266 23.44L76.7266 22.34ZM72.5266 22.86C73.0666 24.14 73.8066 26.26 74.0066 27.6L71.0266 27.84C70.8266 26.16 70.4266 24.64 69.8666 23.06L72.5266 22.86ZM68.4466 23C68.6866 24.34 68.8266 26.36 68.8266 27.72L65.8066 27.8C65.9666 26.84 65.9666 25.6 65.9666 24.62C65.9666 24.08 65.9666 23.6 65.9266 23.08L68.4466 23ZM83.9066 12.24C82.8266 12.3 81.7266 12.36 80.6266 12.38L80.2666 9.62C83.3066 9.62 86.2866 9.38 89.2866 8.74L90.1466 11.44C89.0266 11.72 87.9866 11.84 86.8466 11.98V14.02H89.9466V16.82H87.0266C87.7666 18.24 88.8666 19.84 90.0066 20.96L88.4866 23.52C87.8466 22.66 87.3066 21.76 86.8466 20.8V27.9H83.9066V21.04C83.0666 22.76 82.2466 23.9 80.9666 25.32L79.9066 21.62C81.4066 20.38 82.7466 18.54 83.6266 16.82H80.1666V14.02H83.9066V12.24ZM98.5266 8.86V25.58C98.5266 26.18 98.4666 26.82 98.0266 27.28C97.6066 27.68 97.0266 27.9 96.4466 27.9H92.3866L91.8266 24.7H94.9066C95.3666 24.7 95.5066 24.62 95.5066 24.18V8.86H98.5266ZM93.7666 10.38V23.38H90.7866V10.38H93.7666ZM108.027 20.98H101.947V10.24H107.567C107.767 9.8 107.887 9.3 107.947 8.84H111.347C111.247 9.28 111.067 9.8 110.867 10.24H117.567V20.98H110.247C111.167 21.48 111.707 21.84 112.507 22.5L110.487 24.52C109.627 23.72 108.767 23.12 107.767 22.54V24.38C107.767 24.7 107.967 24.86 108.247 24.86H111.287C111.967 24.86 112.047 24.5 112.187 23.5L115.127 24.2C114.947 25.66 114.647 27.6 112.787 27.6H106.487C105.547 27.6 104.847 27.02 104.847 26.16V22.48H107.647C107.407 22.34 107.147 22.22 106.887 22.1L108.027 20.98ZM114.567 12.4H104.847V13.28H114.567V12.4ZM114.567 15.1H104.847V16H114.567V15.1ZM114.567 17.84H104.847V18.76H114.567V17.84ZM116.807 21.22C117.987 22.64 118.787 24.28 119.407 26L116.467 27.54C116.007 25.92 115.267 23.82 114.227 22.5L116.807 21.22ZM104.567 22.3C104.227 23.98 103.567 26.16 102.587 27.56L100.047 25.68C101.107 24.2 101.527 23.26 102.047 21.52L104.567 22.3ZM129.047 25.92L127.727 27.02C127.207 26.12 126.307 24.9 125.607 24.12L127.467 22.86H122.867L124.967 24C124.487 25.24 123.067 27.12 121.987 27.92L119.987 25.96C121.007 25.2 121.927 23.94 122.627 22.86H120.207V20.3H121.447V12.86H120.447V10.28H121.447V8.96H124.247V10.28H126.827V8.96H129.607V10.28H130.687V12.86H129.607V20.3H130.827C130.947 19.26 131.007 18.22 131.007 17.18V9.36H138.567V26C138.567 27.4 137.987 27.82 136.647 27.82H133.947L133.447 25H135.147C135.647 25 135.727 24.72 135.727 24.28V21.82H133.427C133.227 23.82 132.507 26.28 131.267 27.9L129.047 25.92ZM135.727 12.28H133.627V14.46H135.727V12.28ZM126.827 12.86H124.247V13.84H126.827V12.86ZM126.827 16.02H124.247V17.08H126.827V16.02ZM135.727 17.04H133.627L133.567 19.16H135.727V17.04ZM126.827 19.12H124.247V20.3H126.827V19.12ZM129.447 24.92C129.827 24.24 130.107 23.6 130.327 22.86H127.707C128.287 23.4 128.987 24.26 129.447 24.92ZM154.187 25H155.167C155.707 25 155.767 24.78 155.767 24.34V17.3H150.247V9.56H158.627V25.74C158.627 27.2 157.767 27.88 156.847 27.88H153.007L152.687 26.04H145.207V18.2H154.187V25ZM140.827 9.56H149.027V17.3H143.647V27.88H140.827V9.56ZM155.767 11.62H153.007V12.54H155.767V11.62ZM146.267 11.62H143.647V12.54H146.267V11.62ZM155.767 14.28H153.007V15.22H155.767V14.28ZM146.267 14.28H143.647V15.22H146.267V14.28ZM151.467 20.26H147.907V21.2H151.467V20.26ZM151.467 22.84H147.907V23.84H151.467V22.84ZM222.553 19.02C222.193 19.48 221.813 19.88 221.413 20.3L220.413 16.26C222.233 14.14 223.353 11.6 223.793 8.84L226.753 9.1C226.453 10.66 226.073 12.08 225.533 13.6V27.9H222.553V19.02ZM234.653 8.9H237.773V12.5H239.733V15.38H237.773V25.56C237.773 27.2 237.113 27.9 235.473 27.9H231.113L230.573 24.84H234.093C234.593 24.84 234.653 24.68 234.653 24.2V15.38H226.353V12.5H234.653V8.9ZM229.013 16.26C230.333 17.76 231.553 19.46 232.553 21.18L229.893 22.9C229.133 21.4 227.653 19.16 226.553 17.88L229.013 16.26ZM248.093 11.32C247.793 10.7 247.493 10.08 247.193 9.44L250.453 8.8C250.753 9.52 251.073 10.22 251.393 10.9C253.073 10.64 254.713 10.24 256.293 9.6L257.273 12.22C255.753 12.76 254.213 13.14 252.653 13.46C252.833 13.8 253.033 14.16 253.213 14.5C254.873 14.16 256.513 13.74 258.093 13.12L259.153 15.82C257.693 16.3 256.213 16.72 254.693 17.02C255.593 18.46 256.593 19.82 257.673 21.16L255.653 22.82C253.953 21.8 251.993 21.34 250.013 21.34C248.933 21.34 246.213 21.42 246.213 22.98C246.213 24.66 249.773 24.64 250.913 24.64C252.833 24.64 254.753 24.36 256.633 23.94L256.533 27.1C254.733 27.42 252.913 27.58 251.093 27.58C248.013 27.58 242.973 27.2 242.973 23.1C242.973 19.64 246.913 18.88 249.633 18.88C250.613 18.88 251.593 18.98 252.573 19.14C252.213 18.62 251.873 18.1 251.553 17.58C248.393 18.08 245.173 18.28 241.993 18.34L241.573 15.5C242.013 15.5 242.433 15.5 242.853 15.5C245.253 15.5 247.653 15.32 250.033 15.04C249.833 14.68 249.633 14.32 249.453 13.96C247.173 14.24 244.893 14.36 242.613 14.36L242.153 11.52C242.573 11.52 243.013 11.54 243.433 11.54C244.993 11.54 246.553 11.48 248.093 11.32ZM274.893 16.36L276.153 15.48C276.813 16.18 277.353 16.94 277.833 17.76L276.513 18.64C276.053 17.82 275.513 17.08 274.893 16.36ZM276.913 15.02L278.173 14.14C278.813 14.84 279.353 15.6 279.833 16.42L278.533 17.3C278.073 16.48 277.533 15.72 276.913 15.02ZM261.093 11.28C262.313 11.26 263.553 11.24 264.773 11.16L279.133 10.14L279.393 13.4C277.073 13.46 275.033 13.8 273.053 15.06C271.313 16.14 269.813 17.88 269.813 20.04C269.813 23.2 273.533 24.2 276.073 24.42L274.513 27.64C272.793 27.42 271.113 26.88 269.613 26C267.473 24.74 266.333 22.66 266.333 20.2C266.333 17.36 267.873 15.16 270.133 13.58L261.353 14.66L261.093 11.28Z" fill="white"/>
<path d="M161.077 8.93C161.167 7.31 161.287 5.75 162.007 4.28C163.507 1.16 166.747 0.109999 170.017 0.109999C174.457 0.109999 178.477 2.36 178.477 7.28C178.477 9.41 177.607 11.15 175.777 12.29C177.967 13.58 179.137 15.98 179.137 18.47C179.137 21.2 177.757 23.78 175.417 25.19C173.797 26.18 171.787 26.51 169.927 26.51C165.697 26.51 162.067 24.62 161.017 20.27C160.747 19.22 160.657 18.14 160.627 17.06H166.147C166.177 19.91 166.897 21.86 170.137 21.86C172.357 21.86 173.857 20.63 173.857 18.35C173.857 15.8 171.967 15.02 169.717 15.02H167.137V10.58H169.627C171.607 10.58 173.107 9.92 173.107 7.73C173.107 5.78 171.787 4.76 169.927 4.76C167.287 4.76 166.597 6.62 166.537 8.93H161.077ZM190.11 0.109999C197.46 0.109999 199.32 7.28 199.32 13.31C199.32 19.34 197.46 26.51 190.11 26.51C182.76 26.51 180.87 19.34 180.87 13.31C180.87 7.28 182.76 0.109999 190.11 0.109999ZM190.11 4.67C188.61 4.67 187.74 5.51 187.2 6.83C186.39 8.84 186.33 11.15 186.33 13.31C186.33 15.44 186.39 17.78 187.23 19.79C187.74 21.08 188.61 21.92 190.11 21.92C191.58 21.92 192.48 21.08 192.99 19.76C193.8 17.81 193.89 15.41 193.89 13.31C193.89 11.15 193.8 8.84 192.99 6.83C192.45 5.51 191.58 4.67 190.11 4.67ZM202.553 9.68H217.993V27.74H214.793V26.94H205.753V27.74H202.553V9.68ZM214.793 16.66V12.68H205.753V16.66H214.793ZM214.793 19.56H205.753V23.96H214.793V19.56Z" fill="#FFEA05"/>
<line x1="56.5" y1="32.9922" x2="283.5" y2="32.9922" stroke="white" stroke-width="2"/>
<defs>
<linearGradient id="paint0_linear_697_1014" x1="293.712" y1="43.1924" x2="317.183" y2="50.8695" gradientUnits="userSpaceOnUse">
<stop stop-color="white"/>
<stop offset="0.525" stop-color="#FAE60F"/>
<stop offset="0.585" stop-color="#E6D737"/>
<stop offset="1" stop-color="#FFEA05"/>
</linearGradient>
<linearGradient id="paint1_linear_697_1014" x1="324.279" y1="63.101" x2="339.967" y2="70.1474" gradientUnits="userSpaceOnUse">
<stop stop-color="white"/>
<stop offset="0.525" stop-color="#FAE60F"/>
<stop offset="0.585" stop-color="#E6D737"/>
<stop offset="1" stop-color="#FFEA05"/>
</linearGradient>
</defs>
</svg>
