<svg width="345" height="74" viewBox="0 0 345 74" fill="none" xmlns="http://www.w3.org/2000/svg">
<path d="M100.123 7.498C100.389 6.602 100.571 5.692 100.641 4.754L102.867 5.3C102.727 6.476 102.461 7.61 102.083 8.73C102.671 9.178 103.259 9.626 103.833 10.116L102.629 12.272C102.139 11.824 101.621 11.376 101.103 10.942C100.417 12.244 99.507 13.434 98.387 14.386L96.441 13.07C97.617 12.118 98.541 10.956 99.255 9.612C98.499 9.136 97.715 8.688 96.847 8.422C96.357 9.458 95.769 10.48 95.097 11.404C94.523 12.174 93.767 12.986 92.717 12.986C91.261 12.986 90.617 11.558 90.617 10.298C90.617 7.862 92.647 5.916 95.055 5.916C95.251 5.916 95.447 5.944 95.643 5.958C95.937 5.272 96.217 4.586 96.483 3.886C95.475 3.998 94.453 4.068 93.431 4.068C93.235 4.068 93.039 4.068 92.843 4.068L92.815 1.828C93.375 1.856 93.949 1.87 94.523 1.87C95.699 1.87 96.889 1.842 98.037 1.576L99.395 2.626C98.849 3.886 98.331 5.16 97.799 6.434C98.597 6.714 99.381 7.078 100.123 7.498ZM94.663 8.016C94.313 8.044 93.977 8.114 93.669 8.31C92.997 8.702 92.535 9.5 92.535 10.27C92.535 10.41 92.549 10.732 92.745 10.732C93.123 10.732 93.851 9.556 94.663 8.016ZM111.589 0.987999L113.731 2.01C112.905 3.466 112.107 4.936 111.365 6.434C111.827 6.168 112.331 6.014 112.863 6.014C114.081 6.014 115.089 6.826 115.089 8.086C115.089 8.716 114.977 9.332 114.893 9.934C114.837 10.326 114.753 10.732 114.753 11.124C114.753 11.474 114.963 11.726 115.327 11.726C116.517 11.726 117.231 9.64 117.469 8.702L119.373 9.92C118.729 11.908 117.469 13.994 115.117 13.994C113.465 13.994 112.457 13.028 112.457 11.376C112.457 10.69 112.597 10.004 112.709 9.332C112.737 9.122 112.779 8.926 112.779 8.73C112.779 8.38 112.485 8.17 112.163 8.17C111.729 8.17 111.295 8.422 110.945 8.646C110.385 9.024 109.979 9.542 109.629 10.116C108.915 11.306 108.327 12.72 107.767 13.994L105.709 12.874L111.589 0.987999ZM124.553 3.2C124.791 2.458 125.015 1.716 125.211 0.96L127.549 1.422C127.381 1.954 127.199 2.472 127.017 3.004C127.605 2.934 128.179 2.836 128.753 2.724L128.641 4.922C127.843 5.048 127.045 5.146 126.247 5.23C125.407 7.512 124.469 9.766 123.447 11.978L121.263 10.998C122.229 9.192 123.097 7.316 123.797 5.384C123.167 5.412 122.537 5.412 121.907 5.412L121.837 3.172C122.383 3.2 122.929 3.214 123.489 3.214C123.839 3.214 124.203 3.214 124.553 3.2ZM129.887 3.102C131.427 3.452 132.911 3.928 134.353 4.544L133.611 6.644C133.191 6.42 132.715 6.168 132.211 6.168C131.385 6.168 130.993 6.826 130.993 7.582C130.993 8.184 131.091 8.8 131.189 9.388C132.365 9.85 133.345 10.368 134.395 11.082L133.317 13.056C132.701 12.608 132.057 12.202 131.385 11.824C131.315 13.518 129.761 14.204 128.263 14.204C126.639 14.204 124.749 13.476 124.749 11.572C124.749 10.816 125.085 10.088 125.659 9.598C126.373 8.996 127.339 8.828 128.235 8.828C128.459 8.828 128.683 8.842 128.907 8.87C128.851 8.422 128.809 7.974 128.809 7.526C128.809 6.434 129.215 5.79 130.167 5.286C129.789 5.188 129.397 5.104 128.991 5.034L129.887 3.102ZM129.131 10.914C128.781 10.83 128.431 10.774 128.081 10.774C127.605 10.774 126.765 10.858 126.765 11.502C126.765 12.118 127.591 12.272 128.067 12.272C128.655 12.272 129.173 12.09 129.173 11.404C129.173 11.25 129.159 11.082 129.131 10.914ZM142.487 4.124C145.469 4.11 146.211 5.636 146.211 8.352C146.211 9.64 146.071 11.642 145.385 12.748C144.839 13.602 143.817 13.924 142.851 13.924C142.263 13.924 141.675 13.854 141.087 13.756L141.101 11.544C141.577 11.656 142.067 11.726 142.557 11.726C143.369 11.726 143.607 11.292 143.747 10.564C143.887 9.752 143.943 8.912 143.943 8.086C143.943 7.064 143.845 6.252 142.599 6.252C142.389 6.252 142.179 6.266 141.969 6.28C141.241 9.038 140.219 11.74 138.721 14.176L136.747 12.888C138.007 10.9 138.945 8.772 139.603 6.532C138.721 6.63 137.853 6.77 136.971 6.91L136.719 4.698L140.149 4.306C140.359 3.242 140.541 2.178 140.681 1.1L142.991 1.506C142.851 2.388 142.683 3.256 142.487 4.124ZM146.547 2.808C148.353 4.446 149.445 6.728 149.697 9.15L147.541 9.92C147.331 7.652 146.617 5.594 144.979 3.956L146.547 2.808ZM147.149 2.78L147.933 2.122C148.409 2.556 148.829 3.032 149.207 3.564L148.381 4.222C148.017 3.69 147.611 3.228 147.149 2.78ZM148.283 1.87L149.053 1.198C149.529 1.646 149.949 2.122 150.327 2.654L149.515 3.298C149.151 2.78 148.745 2.318 148.283 1.87ZM155.731 3.48L154.331 4.866C153.743 4.068 152.889 3.2 152.091 2.598L153.561 1.128C154.261 1.632 155.171 2.5 155.731 3.158V2.99H158.111V2.528H155.633V1.352H159.889V4.026H157.523V4.432C157.523 4.6 157.551 4.698 157.761 4.698H158.307C158.531 4.698 158.643 4.6 158.685 4.18L160.183 4.362C160.155 4.684 160.099 5.062 159.945 5.37C159.805 5.65 159.581 5.86 159.203 5.86H156.697C156.025 5.86 155.731 5.552 155.731 4.894V3.48ZM160.421 1.352H164.803V4.026H162.227V4.418C162.227 4.544 162.241 4.698 162.549 4.698H163.431C163.641 4.698 163.753 4.544 163.767 4.166L165.335 4.376C165.293 4.684 165.237 5.062 165.083 5.356C164.929 5.65 164.705 5.86 164.313 5.86H161.457C160.883 5.86 160.477 5.524 160.477 5.034V2.99H163.025V2.528H160.421V1.352ZM164.411 12.048H165.517L165.069 14.022H158.503C157.775 14.022 157.005 13.938 156.305 13.728C155.605 13.518 155.101 13.14 154.639 12.566C154.065 13.238 153.337 13.868 152.581 14.344L151.825 12.16C152.301 11.936 152.833 11.586 153.239 11.25V8.184H152.021V6.21H155.283V10.312C155.535 11.194 156.039 11.614 156.907 11.866L155.983 10.648C156.767 10.494 157.453 10.284 158.181 9.962H155.675V8.478H157.509V7.792H155.899V6.448H157.509V6.084H159.427V6.448H161.359V6.084H163.263V6.448H164.915V7.792H163.263V8.478H165.265V9.962H162.983C163.683 10.27 164.509 10.564 165.251 10.704L164.411 12.048ZM161.359 7.792H159.427V8.478H161.359V7.792ZM163.753 12.048C162.843 11.726 161.891 11.264 161.093 10.732L161.989 9.962H158.979L159.987 10.732C159.245 11.236 158.433 11.656 157.607 11.992C157.985 12.048 158.587 12.048 158.965 12.048H163.753ZM173.189 0.987999L175.331 2.01C174.505 3.466 173.707 4.936 172.965 6.434C173.427 6.168 173.931 6.014 174.463 6.014C175.681 6.014 176.689 6.826 176.689 8.086C176.689 8.716 176.577 9.332 176.493 9.934C176.437 10.326 176.353 10.732 176.353 11.124C176.353 11.474 176.563 11.726 176.927 11.726C178.117 11.726 178.831 9.64 179.069 8.702L180.973 9.92C180.329 11.908 179.069 13.994 176.717 13.994C175.065 13.994 174.057 13.028 174.057 11.376C174.057 10.69 174.197 10.004 174.309 9.332C174.337 9.122 174.379 8.926 174.379 8.73C174.379 8.38 174.085 8.17 173.763 8.17C173.329 8.17 172.895 8.422 172.545 8.646C171.985 9.024 171.579 9.542 171.229 10.116C170.515 11.306 169.927 12.72 169.367 13.994L167.309 12.874L173.189 0.987999ZM186.321 3.228C186.489 2.486 186.615 1.73 186.741 0.974L189.065 1.212C188.953 1.828 188.799 2.43 188.673 3.046C189.569 2.934 190.451 2.766 191.319 2.57L191.403 4.754C190.325 4.95 189.247 5.132 188.155 5.244C187.427 8.198 186.503 11.138 185.257 13.938L183.017 13.056C183.647 11.768 184.221 10.438 184.697 9.08C185.117 7.876 185.467 6.658 185.803 5.426C185.131 5.468 184.445 5.468 183.773 5.468C183.661 5.468 183.563 5.468 183.465 5.468L183.437 3.228C183.927 3.242 184.403 3.27 184.879 3.27C185.355 3.27 185.845 3.256 186.321 3.228ZM192.341 3.074L193.111 2.36C193.601 2.78 194.035 3.228 194.441 3.746L193.629 4.446C193.251 3.942 192.817 3.494 192.341 3.074ZM188.673 9.178L190.479 9.92C190.185 10.214 189.765 10.62 189.765 11.082C189.765 11.768 191.319 11.81 192.061 11.81C193.265 11.81 194.217 11.726 195.617 11.516V13.77C194.525 13.882 193.433 13.952 192.327 13.952C191.235 13.952 190.073 13.91 189.065 13.49C188.225 13.14 187.567 12.384 187.567 11.446C187.567 10.564 188.071 9.794 188.673 9.178ZM193.545 1.996L194.301 1.282C194.805 1.702 195.239 2.15 195.631 2.668L194.833 3.368C194.455 2.864 194.021 2.416 193.545 1.996ZM189.499 5.524C190.535 5.37 191.585 5.286 192.649 5.286C193.573 5.286 194.511 5.342 195.435 5.44L195.225 7.568C194.273 7.47 193.321 7.4 192.355 7.4C191.319 7.4 190.283 7.456 189.247 7.596L189.499 5.524ZM205.081 12.02C207.181 11.362 208.959 10.018 208.959 7.624C208.959 5.664 207.923 4.264 205.991 3.9C205.641 6.434 205.081 9.262 203.835 11.516C203.345 12.37 202.631 13.168 201.567 13.168C200.853 13.168 200.237 12.79 199.775 12.272C198.809 11.222 198.445 9.752 198.445 8.366C198.445 4.502 201.329 1.744 205.179 1.744C208.665 1.744 211.325 4.068 211.325 7.652C211.325 9.486 210.583 11.236 209.197 12.454C208.371 13.196 207.335 13.686 206.299 14.022L205.081 12.02ZM203.709 4.012C201.763 4.642 200.671 6.448 200.671 8.436C200.671 9.038 200.741 9.668 200.993 10.214C201.091 10.41 201.245 10.69 201.483 10.69C201.917 10.69 202.337 9.5 202.519 8.968C203.093 7.358 203.443 5.692 203.709 4.012ZM221.951 3.942L221.881 1.324H224.135L224.191 3.816C224.933 3.732 225.661 3.634 226.403 3.508L226.389 5.776C225.675 5.874 224.961 5.944 224.233 6.014L224.289 8.912C224.289 8.996 224.289 9.08 224.303 9.164C225.269 9.542 226.179 10.06 227.019 10.676L226.137 12.748C225.563 12.272 224.947 11.866 224.289 11.502C224.219 13.294 223.001 13.994 221.335 13.994C219.627 13.994 217.891 13.21 217.891 11.264C217.891 9.388 219.403 8.52 221.111 8.52C221.419 8.52 221.741 8.534 222.049 8.59C222.049 8.534 222.049 8.464 222.049 8.408L221.993 6.14C221.559 6.154 221.125 6.168 220.691 6.168C219.795 6.168 218.913 6.126 218.017 6.084L218.031 3.816C219.053 3.914 220.089 3.956 221.125 3.956C221.405 3.956 221.671 3.956 221.951 3.942ZM222.105 10.592C221.769 10.494 221.433 10.438 221.083 10.438C220.579 10.438 219.879 10.606 219.879 11.222C219.879 11.852 220.593 12.062 221.111 12.062C222.119 12.062 222.119 11.404 222.105 10.592ZM215.049 1.38L217.359 1.66C216.855 4.012 216.505 6.406 216.505 8.814C216.505 9.346 216.519 9.878 216.575 10.41C216.743 10.088 216.897 9.766 217.065 9.458L217.919 10.424C217.415 11.474 216.967 12.58 216.869 13.756L214.993 13.938C214.461 12.23 214.307 10.396 214.307 8.604C214.307 6.182 214.601 3.76 215.049 1.38ZM230.001 2.542H241.215V13.546H238.905V12.832H229.889V10.578H238.905V4.796H230.001V2.542ZM246.465 1.31H248.845V11.18C251.771 10.382 254.305 8.562 256.097 6.126L257.707 7.778C254.907 11.418 251.001 13.462 246.465 14.022V1.31Z" fill="white"/>
<line x1="88.085" y1="19.9285" x2="260.085" y2="19.9285" stroke="white" stroke-width="2"/>
<path d="M252.482 42.5093L258.29 43.2017C257.227 48.3368 256.6 53.5585 256.6 58.8378C256.6 59.6168 256.627 60.3957 256.654 61.1458C256.927 60.4534 257.227 59.7322 257.527 59.0109L259.108 61.492C258.209 63.6556 257.581 65.9059 257.172 68.2138L252.454 68.7042C251.336 65.0692 251.118 61.2035 251.118 57.4242C251.118 52.4334 251.636 47.4425 252.482 42.5093ZM260.472 44.9326C262.272 45.0768 264.099 45.1634 265.899 45.1634C268.735 45.1634 271.544 44.9614 274.326 44.5287L274.216 50.2697C271.435 50.6447 268.626 50.8467 265.79 50.8467C263.963 50.8467 262.163 50.7601 260.336 50.587L260.472 44.9326ZM264.944 57.5108C264.535 58.1743 264.154 58.9532 264.154 59.7899C264.154 61.5208 267.29 61.3477 268.408 61.3477C270.808 61.3477 273.207 61.0592 275.553 60.5976L275.335 66.5405C273.126 66.8867 270.917 67.0887 268.708 67.0887C264.59 67.0887 259.245 66.6559 259.245 61.0015C259.245 59.386 259.763 57.8858 260.499 56.5299L264.944 57.5108Z" fill="white"/>
<path d="M234.073 56.8473C233.446 59.8764 232.383 62.2998 230.474 64.6654C228.947 66.5694 227.283 68.0407 225.265 69.3678L222.102 63.8576C228.183 60.4534 229.192 56.6165 229.192 49.7216H222.647V44.3268H232.928V41.615H238.164V44.3268H248.663V49.7216H234.673C234.673 50.3274 234.673 50.9621 234.646 51.5679H246.345C246.263 54.7413 246.018 63.7711 244.954 66.3386C244.027 68.56 242.364 69.1658 240.237 69.1658H234.673L233.583 63.6268H237.646C238.819 63.6268 239.746 63.5691 240.237 61.9247C240.537 60.915 240.7 59.3572 240.7 56.8473H234.073Z" fill="white"/>
<path d="M201.458 45.6538C201.895 44.1825 202.249 42.6824 202.604 41.2111L208.33 42.3362C208.03 43.2882 207.73 44.2114 207.431 45.1634C208.33 45.0191 209.23 44.8749 210.158 44.6729L209.803 50.3851C208.385 50.587 206.967 50.7601 205.549 50.9332C203.967 55.5779 202.249 60.1937 200.258 64.6653L194.968 62.3863C196.768 58.809 198.322 55.1163 199.686 51.3082C198.622 51.3082 197.559 51.3371 196.522 51.3371L196.359 45.5673C197.695 45.625 199.031 45.6538 200.367 45.6538C200.749 45.6538 201.104 45.6538 201.458 45.6538ZM212.339 45.5096C215.448 46.2596 218.502 47.2694 221.448 48.5964L219.73 54.0489C218.83 53.5008 217.793 52.9238 216.73 52.9238C215.475 52.9238 215.094 53.9046 215.094 55.0586C215.094 56.1549 215.257 57.2223 215.421 58.2897C217.63 59.2417 219.675 60.5399 221.639 61.9535L219.075 66.9444C218.012 66.1655 216.921 65.4154 215.803 64.6653C215.284 68.0118 212.312 69.1369 209.476 69.1369C205.985 69.1369 202.358 67.3771 202.358 63.194C202.358 61.3765 203.149 59.5879 204.513 58.4916C205.849 57.4242 207.676 57.0203 209.312 57.0203C209.503 57.0203 209.694 57.0492 209.885 57.0492C209.803 56.3568 209.749 55.6644 209.749 54.9432C209.749 52.8949 210.348 51.741 212.094 50.7889C211.494 50.6158 210.894 50.4716 210.294 50.3562L212.339 45.5096ZM210.376 62.1266C209.858 61.9535 209.339 61.8381 208.794 61.8381C208.058 61.8381 206.994 62.1266 206.994 63.1075C206.994 64.0884 208.14 64.3191 208.876 64.3191C209.667 64.3191 210.458 64.0018 210.458 63.0209C210.458 62.7324 210.43 62.444 210.376 62.1266Z" fill="white"/>
<path d="M154.796 30.9532H169.789V28.2949H177.955V30.9532H192.823V42.6051H184.866V38.3962H162.837V42.6051H154.796V30.9532ZM173.726 43.7127H193.87V51.7317H188.216C187.379 54.5228 186.457 56.6494 184.824 59.0418C187.839 60.1937 190.52 61.4342 193.409 62.9406L188.342 70.6494C185.075 68.5229 181.934 66.8836 178.416 65.333C175.401 67.1494 171.799 68.3899 168.114 69.2317C164.219 70.1178 160.156 70.6051 156.555 70.871L154.042 61.9659C155.256 62.0102 156.513 62.0545 157.727 62.0545C160.91 62.0545 164.009 61.833 167.109 61.0798C163.507 59.9722 159.863 58.9975 156.136 58.2C157.769 56.0292 159.068 54.0798 160.408 51.7317H153.665V43.7127H164.386C165.098 42.0734 165.727 40.3899 166.355 38.7506L175.066 39.9911C174.689 41.276 174.228 42.4722 173.726 43.7127ZM169.998 51.7317C169.538 52.5735 169.077 53.3709 168.616 54.1684C171.213 54.833 173.809 55.4532 176.364 56.2507C177.704 54.833 178.5 53.5038 179.379 51.7317H169.998Z" fill="white"/>
<path d="M135.824 48.4533V70.7381H127.741V51.4659C124.182 55.5419 120.161 59.352 115.554 62.0103L111.366 53.5482C117.69 50.314 124.852 44.4216 128.118 37.6874H111.953V29.4026H151.906V37.6874H136.746C136.285 38.795 135.74 39.8583 135.154 40.9216H135.824V43.7127L140.431 41.2317C144.326 46.9026 146.964 50.0925 152.492 54.1242L147.76 62.1432C143.153 58.2887 139.049 53.6811 135.824 48.4533Z" fill="white"/>
<path d="M90.3718 48.1059C90.7809 45.9423 91.0809 43.7786 91.3809 41.5861L97.1077 42.4804C96.8077 44.2402 96.4805 45.9711 96.126 47.6732C97.6804 47.7309 99.3166 47.9328 100.598 48.9714C102.998 50.9331 103.216 53.9911 103.216 56.9337C103.216 59.5879 102.916 64.0595 101.389 66.1943C100.135 68.0118 98.3349 68.6176 96.2896 68.6176C95.0897 68.6176 93.8898 68.4734 92.6899 68.2137L92.7171 62.5305C93.5352 62.7613 94.4352 62.9632 95.3078 62.9632C96.0987 62.9632 96.835 62.7036 97.1077 61.8381C97.5986 60.3379 97.6531 57.6838 97.6531 56.0683C97.6531 54.2796 97.5168 53.068 95.526 53.068C95.3078 53.068 95.0897 53.0968 94.8715 53.0968C93.4262 58.7512 91.5172 64.2614 88.572 69.2523L83.7178 66.0212C85.9812 62.1843 87.8629 58.1166 89.0628 53.7892C87.6175 53.9911 86.1449 54.2219 84.6995 54.5104L84.0996 48.8272L90.3718 48.1059ZM107.334 43.0285L108.916 41.6149C109.898 42.4804 110.743 43.5189 111.479 44.6441L109.816 46.0288C109.107 44.9325 108.289 43.9228 107.334 43.0285ZM105.18 44.9325L106.762 43.5189C107.743 44.4133 108.589 45.423 109.325 46.5769L107.661 47.9617C106.952 46.8366 106.134 45.8269 105.18 44.9325ZM104.062 44.9037C107.825 48.2213 109.843 53.2699 110.198 58.3762L105.125 60.2514C104.798 55.2605 103.816 51.337 100.462 47.5867L104.062 44.9037Z" fill="white"/>
<path d="M48.4133 48.719C47.4082 49.3393 46.3612 49.9152 45.3142 50.4469L41.9219 42.6051C44.8535 41.4975 47.7432 39.9025 50.1723 37.8646H43.1783V30.6873H59.0508V28.3392H66.7149V30.6873H82.378V37.8646H75.4678C77.8131 39.9912 80.7447 41.4532 83.7182 42.295L80.4516 50.4469C79.3208 49.9595 78.2738 49.3836 77.1849 48.8076V62.0545H82.7131V69.4532H42.8432V62.0545H48.4133V48.719ZM56.6637 41.9405H59.0508V39.0608C58.297 40.0798 57.5013 41.0101 56.6637 41.9405ZM66.7149 41.9405H68.8927C68.1388 41.0545 67.4269 40.1241 66.7149 39.1494V41.9405ZM69.814 48.0988H55.9098V49.5165H69.814V48.0988ZM69.814 54.4342H55.9098V55.8519H69.814V54.4342ZM69.814 60.6811H55.9098V62.0988H69.814V60.6811Z" fill="white"/>
<path d="M6.95209 42.3835C6.36577 42.3392 5.82133 42.3392 5.27689 42.2506L4.77433 40.3456H1.96836V30.1114H16.9614V28.162H24.8349V30.1114H39.828V40.3456H35.7656L36.3938 41.3645C36.0169 41.4532 35.5981 41.4975 35.1374 41.4975C34.928 42.1177 34.4254 43.4025 34.1323 44.0228H40.7912V50.0481H33.3784C36.2263 51.4658 38.6553 52.3076 41.7545 53.0608L38.069 59.9279C37.4408 59.7064 36.9801 59.5291 36.3938 59.219V70.6937H28.7716V69.6747H12.6897V70.6937H5.27689V59.0418C4.69057 59.3076 4.14613 59.5734 3.55981 59.795L0 52.5734C2.63845 52.3076 5.36065 51.2443 7.74782 50.0481H0.921362V44.0228H7.53842C7.3709 43.4911 7.1615 42.9152 6.95209 42.3835ZM9.59054 37.1114C11.4751 37.1557 13.4016 37.1557 15.3281 37.1557C20.8982 37.1557 26.5101 37.1114 32.0801 36.4911V35.8266H9.59054V37.1114ZM24.2486 42.0734V44.0228H26.9289C27.1802 43.4025 27.4315 42.6494 27.6409 41.8962L24.2486 42.0734ZM14.4486 42.4278C14.6162 43.0038 14.7837 43.5797 14.9093 44.0228H17.2127V42.3835C16.2076 42.4278 15.37 42.4278 14.4486 42.4278ZM14.5743 52.8836H17.2127V50.0481H17.129C16.4589 50.9342 15.5375 51.9975 14.5743 52.8836ZM24.4161 50.0481H24.2486V52.8836H27.1802C26.1751 51.9975 25.2537 51.0671 24.4161 50.0481ZM17.2127 57.5355H12.6897V58.9532H17.2127V57.5355ZM28.7716 57.5355H24.2486V58.9532H28.7716V57.5355ZM17.2127 62.6747H12.6897V64.0924H17.2127V62.6747ZM28.7716 62.6747H24.2486V64.0924H28.7716V62.6747Z" fill="white"/>
<g filter="url(#filter0_d_837_2093)">
<path d="M324.993 56.631H324.217C322.892 56.631 322.573 56.1971 322.573 54.8953V52.6115L320.129 55.2379C318.918 53.7991 317.868 52.7942 316.223 51.8349L319.033 48.6832C320.494 49.5968 321.773 50.5331 322.961 51.7893H326.181V51.2411H322.573V49.14H329.63V53.662H326.044V54.2101C326.044 54.3929 326.044 54.6669 326.364 54.6669H326.592C326.958 54.6669 327.026 54.3015 327.049 53.8219L329.812 54.2101C329.721 55.215 329.515 56.4483 328.305 56.6082H328.853V57.202H331.457V56.6082C330.52 56.5168 330.292 55.9459 330.292 55.1009V51.7893H334.106V51.2411H330.292V49.14H337.532V53.662H333.741V54.2101C333.741 54.5299 333.809 54.6669 334.266 54.6669H334.974C335.316 54.6669 335.408 54.3472 335.431 53.7991L338.331 54.2101C338.217 55.6033 337.783 56.631 336.207 56.631H335.271V57.202H337.532V59.8284H335.271V60.3765H338.103V63.14H334.997C335.956 63.5511 337.075 63.8023 338.103 63.9165L336.732 66.1547H338.56L337.669 70.1514H327.186C326.113 70.1514 324.514 70.0372 323.486 69.7632C322.367 69.4663 321.408 68.804 320.54 68.0275C319.421 69.1237 318.507 69.9002 317.114 70.6539L315.881 66.246C316.635 65.9263 317.228 65.6294 317.913 65.1726V60.8105H316.223V56.8594H322.024V63.6881C322.436 64.8757 323.166 65.5152 324.354 65.8578L322.892 63.9394C323.943 63.7566 324.971 63.5054 325.953 63.14H322.573V60.3765H324.993V59.8284H322.755V57.202H324.993V56.631ZM331.457 59.6457H328.853V60.3765H331.457V59.6457ZM327.003 66.1547H333.992C332.896 65.6751 331.913 65.127 330.931 64.4875L332.416 63.14H328.305L329.904 64.4875C328.99 65.127 328.008 65.6751 327.003 66.1547Z" fill="url(#paint0_linear_837_2093)"/>
<path d="M282.567 43.5372C282.712 40.6993 283.146 37.9088 284.64 35.4493C287.388 30.8615 292.595 29.4899 297.754 29.4899C302.286 29.4899 307.059 30.8142 309.903 34.5034C311.398 36.4426 312.121 38.902 312.121 41.3142C312.121 44.7669 310.964 47.0372 308.216 49.0709C311.494 51.4831 313.085 54.5101 313.085 58.5777C313.085 63.0237 310.819 66.9966 307.01 69.3615C304.214 71.1115 300.357 71.4899 297.127 71.4899C292.981 71.4899 288.979 70.4966 285.99 67.5642C284.592 66.098 283.531 64.348 282.953 62.4088C282.326 60.4223 282.133 58.3885 282.085 56.3074H292.788C292.788 60.0912 293.222 62.8345 297.85 62.8345C300.743 62.8345 302.768 61.3682 302.768 58.3885C302.768 54.7939 300.02 54.1318 296.934 54.1318H293.415V45.8547H297.754C300.02 45.8547 301.562 44.5304 301.562 42.3074C301.562 39.8007 300.068 38.2872 297.561 38.2872C294.234 38.2872 293.318 40.7466 293.27 43.5372H282.567Z" fill="url(#paint1_linear_837_2093)"/>
<path d="M329.965 30.9553C329.629 31.3501 329.355 31.6321 328.958 31.9479L328.023 29.895C328.664 29.3649 329.172 28.7557 329.589 28L331.713 28.1918C331.652 28.3384 331.601 28.4625 331.54 28.6091H337.953V30.3688H330.442C330.361 30.4703 330.28 30.5718 330.198 30.6733H337.18V32.0946H329.965V30.9553ZM329.985 36.2456C329.548 35.9072 329.172 35.6365 328.694 35.3657L329.782 34.0573H328.206V32.4217H336.245C336.215 33.1323 336.195 33.8317 336.195 34.531C336.195 35.0386 336.225 35.9523 336.337 36.3922C336.357 36.4824 336.428 36.6178 336.52 36.6178C336.774 36.6178 337.272 35.5913 337.414 35.2642L338.125 37.5766C337.739 38.2534 337.119 39.0204 336.337 39.0204C335.788 39.0204 335.27 38.6482 334.975 38.1631C334.365 37.1592 334.314 35.2529 334.294 34.0573H332.759L333.938 34.7905C333.644 35.3319 333.359 35.738 332.963 36.2004C333.359 36.5727 333.755 36.9449 334.142 37.3397L332.698 38.8512C332.312 38.3775 331.896 37.9488 331.459 37.5427C330.767 38.0503 330.036 38.4903 329.284 38.8963L328.278 37.069C328.887 36.8547 329.426 36.6065 329.985 36.2456ZM331.53 34.9822C331.814 34.7002 332.038 34.3957 332.272 34.0573H330.198C330.656 34.3393 331.103 34.6551 331.53 34.9822Z" fill="white"/>
<path d="M321.979 28H324.028V30.0706C324.028 31.5891 324.254 32.912 324.991 34.2004C325.739 35.5003 326.784 36.3401 328.024 36.9613L326.764 39.0204C324.848 37.755 323.741 36.4781 322.993 34.0969C322.194 36.4666 321.067 37.7205 319.172 39.0204L317.922 37.0188C320.524 35.8109 321.979 33.2226 321.979 30.0821V28Z" fill="white"/>
<path d="M316.085 29.3776V41.3163H322.054L320.218 44.9898L325.728 41.3163H338.585" stroke="white" stroke-linecap="round" stroke-linejoin="round"/>
</g>
<defs>
<filter id="filter0_d_837_2093" x="282.085" y="28" width="59" height="45.4899" filterUnits="userSpaceOnUse" color-interpolation-filters="sRGB">
<feFlood flood-opacity="0" result="BackgroundImageFix"/>
<feColorMatrix in="SourceAlpha" type="matrix" values="0 0 0 0 0 0 0 0 0 0 0 0 0 0 0 0 0 0 127 0" result="hardAlpha"/>
<feOffset dx="2" dy="2"/>
<feComposite in2="hardAlpha" operator="out"/>
<feColorMatrix type="matrix" values="0 0 0 0 0.758333 0 0 0 0 0.126389 0 0 0 0 0.126389 0 0 0 1 0"/>
<feBlend mode="normal" in2="BackgroundImageFix" result="effect1_dropShadow_837_2093"/>
<feBlend mode="normal" in="SourceGraphic" in2="effect1_dropShadow_837_2093" result="shape"/>
</filter>
<linearGradient id="paint0_linear_837_2093" x1="322.788" y1="48.6832" x2="338.429" y2="55.8377" gradientUnits="userSpaceOnUse">
<stop stop-color="white"/>
<stop offset="0.525" stop-color="#FAE60F"/>
<stop offset="0.585" stop-color="#E6D737"/>
<stop offset="1" stop-color="#FFEA05"/>
</linearGradient>
<linearGradient id="paint1_linear_837_2093" x1="291.527" y1="29.4899" x2="314.882" y2="37.1288" gradientUnits="userSpaceOnUse">
<stop stop-color="white"/>
<stop offset="0.525" stop-color="#FAE60F"/>
<stop offset="0.585" stop-color="#E6D737"/>
<stop offset="1" stop-color="#FFEA05"/>
</linearGradient>
</defs>
</svg>
