<svg width="14" height="22" viewBox="0 0 14 22" fill="none" xmlns="http://www.w3.org/2000/svg">
<path d="M10.1525 10.2226L11.9811 8.50794C13.0655 7.49126 13.6806 6.07157 13.6806 4.58524V2.11217C13.681 1.53149 13.443 0.998508 13.0618 0.618836C12.6821 0.237575 12.1492 -0.000386248 11.5685 4.70639e-07H2.43171C1.85103 -0.000386248 1.3177 0.237575 0.937988 0.618793C0.556812 0.998508 0.318809 1.53145 0.319582 2.11213V4.58515C0.319582 6.07148 0.93468 7.49122 2.01908 8.50786L3.8474 10.2218C3.94804 10.3165 4.00544 10.4483 4.00544 10.5867V11.4131C4.00544 11.5515 3.94804 11.6829 3.84779 11.7773L2.01912 13.492C0.934722 14.5083 0.319625 15.9284 0.319625 17.4147V19.8877C0.318851 20.4685 0.556898 21.0014 0.938031 21.3811C1.31779 21.7623 1.85107 22.0003 2.43175 21.9999H11.5685C12.1492 22.0003 12.6821 21.7623 13.0618 21.3811C13.443 21.0014 13.681 20.4685 13.6807 19.8877V17.4148C13.6807 15.9285 13.0655 14.5084 11.9812 13.4921L10.1529 11.7778C10.0518 11.683 9.99481 11.5516 9.99481 11.4132V10.5868C9.99477 10.4484 10.0518 10.3166 10.1525 10.2226ZM12.0681 19.8878C12.0677 20.0285 12.0134 20.148 11.9215 20.2409C11.8286 20.3327 11.7091 20.3871 11.5684 20.3875H2.43171C2.29107 20.3871 2.17115 20.3327 2.07825 20.2409C1.98647 20.148 1.93246 20.0285 1.93207 19.8878V17.4148C1.93207 16.3744 2.36288 15.38 3.12192 14.6687L4.95024 12.954C5.37623 12.555 5.61793 11.9969 5.61793 11.4132V10.5868C5.61793 10.0027 5.37623 9.44466 4.94989 9.04565L3.12192 7.33137C2.36283 6.62007 1.93207 5.62594 1.93207 4.58524V2.11217C1.93246 1.97154 1.98647 1.852 2.07825 1.75871C2.17115 1.66732 2.29107 1.61288 2.43171 1.61253H11.5684C11.7091 1.61288 11.8286 1.66727 11.9215 1.75871C12.0133 1.852 12.0677 1.97149 12.0681 2.11217V4.5852C12.0681 5.6259 11.6373 6.62002 10.8782 7.33133L9.04989 9.04561C8.6239 9.44462 8.38224 10.0027 8.38224 10.5867V11.4132C8.38224 11.9969 8.62394 12.555 9.05027 12.9546L10.8782 14.6682C11.6373 15.3799 12.0681 16.3744 12.0681 17.4148V19.8878Z" fill="white"/>
<path d="M6.19484 16.283L2.87207 19.6058H11.1276L7.8048 16.283C7.36033 15.8389 6.63974 15.8389 6.19484 16.283Z" fill="white"/>
</svg>
