<svg width="26" height="31" viewBox="0 0 26 31" fill="none" xmlns="http://www.w3.org/2000/svg">
<path d="M4.89325 16.5762C4.62082 15.999 4.41112 15.3919 4.27043 14.7706C4.12525 14.1325 4.05266 13.475 4.05266 12.8158C4.05266 11.612 4.29194 10.4444 4.76331 9.34482C5.21856 8.28315 5.87095 7.32914 6.70168 6.50928C7.53241 5.68941 8.49936 5.04605 9.57653 4.59508C10.6922 4.12823 11.8769 3.89083 13.0984 3.88818H13.1181C14.3342 3.88818 15.5153 4.12205 16.6283 4.58273C17.7091 5.03017 18.6796 5.67176 19.5139 6.48986C20.3482 7.30796 21.0042 8.26109 21.4631 9.32364C21.938 10.4233 22.1809 11.5926 22.1836 12.7973C22.1854 13.4583 22.1128 14.1175 21.9685 14.7565C21.8287 15.3786 21.619 15.9876 21.3466 16.5665C21.0795 17.1349 20.7497 17.6767 20.3662 18.1789C19.9862 18.6766 19.5516 19.1364 19.0748 19.5468C18.184 20.3119 17.6732 21.4116 17.6732 22.5633V22.5756C17.6732 23.0734 17.4743 23.5261 17.1499 23.8606C17.4707 24.1439 17.6732 24.5542 17.6732 25.0114C17.6732 25.4209 17.5101 25.7933 17.2458 26.0704C17.511 26.3475 17.6732 26.7199 17.6732 27.1294C17.6732 27.9811 16.9698 28.6738 16.105 28.6738H15.5252C15.4302 29.1345 15.2008 29.559 14.8549 29.8988C14.3906 30.3559 13.7741 30.6074 13.1181 30.6074C12.4621 30.6074 11.8456 30.3559 11.3814 29.8988C11.0355 29.5581 10.806 29.1345 10.7111 28.6738H10.1312C9.26646 28.6738 8.56298 27.9811 8.56298 27.1294C8.56298 26.7199 8.72608 26.3475 8.99045 26.0704C8.72519 25.7933 8.56298 25.4209 8.56298 25.0114C8.56298 24.5542 8.76551 24.1439 9.08634 23.8606C8.76193 23.5261 8.56298 23.0734 8.56298 22.5756V22.5633C8.56298 21.4107 8.05308 20.3119 7.16499 19.5494C6.68914 19.1408 6.2545 18.6819 5.87454 18.1851C5.49098 17.6838 5.1612 17.1428 4.89325 16.5762Z" fill="#FFEA05"/>
<path fill-rule="evenodd" clip-rule="evenodd" d="M13.1177 2.71279C13.3885 2.71279 13.6075 2.49371 13.6075 2.22297V0.561116C13.6075 0.290375 13.3885 0.0712891 13.1177 0.0712891C12.847 0.0712891 12.6279 0.290375 12.6279 0.561116V2.22386C12.6279 2.49371 12.847 2.71279 13.1177 2.71279ZM8.64645 3.68851C8.46121 3.68851 8.28398 3.58253 8.20116 3.40263L7.50827 1.89129C7.39606 1.64549 7.50382 1.35516 7.74963 1.24205C7.99543 1.12983 8.28576 1.2376 8.39887 1.4834L9.09175 2.99474C9.20397 3.24055 9.09621 3.53088 8.8504 3.64399C8.7845 3.67427 8.71503 3.68851 8.64645 3.68851ZM5.1844 5.71193C5.2797 5.80722 5.40527 5.85532 5.53084 5.85532C5.65642 5.85532 5.78199 5.80722 5.87729 5.71193C6.06876 5.52045 6.06876 5.21053 5.87729 5.01905L4.7017 3.84346C4.51022 3.65198 4.2003 3.65198 4.00882 3.84346C3.81734 4.03494 3.81734 4.34487 4.00882 4.53634L5.1844 5.71193ZM21.2917 16.554C21.5624 15.9715 21.7708 15.3588 21.9106 14.7318C22.0549 14.0879 22.127 13.4244 22.127 12.7591C22.127 11.5444 21.8893 10.3661 21.4208 9.25642C20.9684 8.18503 20.32 7.2223 19.4944 6.39494C18.6689 5.56758 17.7079 4.91833 16.6374 4.46324C15.5286 3.99211 14.3513 3.75254 13.1374 3.74987H13.1178C11.9092 3.74987 10.7354 3.98588 9.62932 4.45077C8.55526 4.9023 7.59075 5.54976 6.7616 6.37535C5.93246 7.20093 5.28054 8.16277 4.82456 9.23505C4.35254 10.3447 4.11119 11.5248 4.10852 12.7404C4.10674 13.4075 4.17888 14.0728 4.32226 14.7175C4.4612 15.3454 4.6696 15.9599 4.94034 16.5442C5.20573 17.1177 5.53347 17.6645 5.91465 18.1713C6.29226 18.6736 6.7242 19.1376 7.19799 19.5517C8.08325 20.3238 8.59088 21.4335 8.59088 22.5958V22.6082C8.59088 23.1105 8.7886 23.5674 9.11099 23.9049C8.79216 24.1908 8.59088 24.6049 8.59088 25.0663C8.59088 25.4795 8.75297 25.8553 9.0157 26.135C8.75208 26.4146 8.59088 26.7905 8.59088 27.2037C8.59088 28.0631 9.29 28.7622 10.1494 28.7622H10.7256C10.82 29.2271 11.048 29.6555 11.3918 29.9984C11.8531 30.4597 12.4659 30.7135 13.1178 30.7135C13.7697 30.7135 14.3824 30.4597 14.8438 29.9984C15.1875 29.6546 15.4155 29.2271 15.5099 28.7622H16.0861C16.9456 28.7622 17.6447 28.0631 17.6447 27.2037C17.6447 26.7905 17.4826 26.4146 17.2199 26.135C17.4835 25.8553 17.6447 25.4795 17.6447 25.0663C17.6447 24.6049 17.4434 24.1908 17.1246 23.9049C17.447 23.5674 17.6447 23.1105 17.6447 22.6082V22.5958C17.6447 21.4326 18.1514 20.3238 19.034 19.5544C19.5069 19.142 19.9388 18.6789 20.3165 18.1775C20.6976 17.6717 21.0254 17.1257 21.2917 16.554ZM13.1178 29.733C12.4837 29.733 11.9431 29.3269 11.7409 28.7613H14.4946C14.2925 29.3269 13.7519 29.733 13.1178 29.733ZM16.0861 27.7817H15.0691H11.1665H10.1485C9.8297 27.7817 9.56965 27.5216 9.56965 27.2028C9.56965 26.884 9.8297 26.6239 10.1485 26.6239H16.0861C16.405 26.6239 16.665 26.884 16.665 27.2028C16.665 27.5216 16.4059 27.7817 16.0861 27.7817ZM16.0861 25.6443H10.1485C9.8297 25.6443 9.56965 25.3842 9.56965 25.0654C9.56965 24.7465 9.8297 24.4865 10.1485 24.4865H16.0861C16.405 24.4865 16.665 24.7465 16.665 25.0654C16.665 25.3842 16.4059 25.6443 16.0861 25.6443ZM18.391 18.8152C17.2947 19.7708 16.665 21.1485 16.665 22.5949V22.6073C16.665 23.1034 16.2616 23.5068 15.7655 23.5068H10.4691C9.97309 23.5068 9.56965 23.1034 9.56965 22.6073V22.5949C9.56965 21.1494 8.93911 19.7708 7.841 18.8125C7.41797 18.4438 7.03323 18.0297 6.6957 17.5817C6.35638 17.1302 6.06427 16.643 5.82737 16.1318C5.58602 15.6117 5.40166 15.0649 5.27698 14.5056C5.14963 13.9303 5.0855 13.3371 5.08639 12.7422C5.08906 11.6584 5.30281 10.6075 5.72406 9.618C6.13017 8.66239 6.71173 7.80475 7.45092 7.06912C8.19012 6.3326 9.05043 5.75549 10.0078 5.35294C10.9928 4.93882 12.0393 4.72864 13.1169 4.72864H13.1347C14.2168 4.73131 15.2668 4.94505 16.2545 5.36452C17.2083 5.76974 18.0659 6.34952 18.8016 7.08693C19.5372 7.82434 20.1152 8.68288 20.5186 9.6376C20.9363 10.6262 21.1483 11.6762 21.1483 12.7591C21.1483 13.3532 21.0833 13.9445 20.955 14.5181C20.8303 15.0765 20.6451 15.6224 20.4037 16.1407C20.1668 16.6501 19.8747 17.1373 19.5354 17.587C19.1979 18.0341 18.8131 18.4474 18.391 18.8152ZM25.51 12.4638H23.8473C23.5765 12.4638 23.3574 12.6828 23.3574 12.9536C23.3574 13.2243 23.5765 13.4434 23.8473 13.4434H25.51C25.7807 13.4434 25.9998 13.2243 25.9998 12.9536C25.9998 12.6828 25.7807 12.4638 25.51 12.4638ZM2.38792 12.4641C2.65866 12.4641 2.87775 12.6832 2.87775 12.9539C2.87775 13.2238 2.65777 13.4437 2.38792 13.4437H0.725179C0.454438 13.4437 0.235352 13.2247 0.235352 12.9539C0.235352 12.6832 0.454438 12.4641 0.725179 12.4641H2.38792ZM3.40122 8.37481L1.86673 7.73536C1.61736 7.63116 1.33059 7.74961 1.22639 7.99898C1.12219 8.24834 1.24064 8.53512 1.49 8.63931L3.0245 9.27876C3.08595 9.30459 3.15007 9.31617 3.21241 9.31617C3.40389 9.31617 3.58646 9.20306 3.66484 9.01426C3.76904 8.76489 3.65059 8.47812 3.40122 8.37481ZM20.3583 5.01976L21.5339 3.84417C21.7254 3.65359 22.0362 3.65359 22.2268 3.84417C22.4183 4.03565 22.4183 4.34558 22.2268 4.53706L21.0512 5.71264C20.9559 5.80794 20.8303 5.85603 20.7048 5.85603C20.5792 5.85603 20.4536 5.80794 20.3583 5.71264C20.1668 5.52116 20.1668 5.21124 20.3583 5.01976ZM17.3844 3.64437C17.4503 3.67465 17.5198 3.6889 17.5883 3.6889C17.7736 3.6889 17.9517 3.58292 18.0336 3.40302L18.7265 1.89168C18.8396 1.64587 18.731 1.35465 18.4852 1.24243C18.2394 1.12933 17.9481 1.23798 17.8359 1.48378L17.143 2.99512C17.0308 3.24093 17.1386 3.53215 17.3844 3.64437ZM23.2104 9.27865C23.149 9.30359 23.0848 9.31606 23.0225 9.31606C22.831 9.31606 22.6485 9.20295 22.5701 9.01503C22.4659 8.76567 22.5843 8.4789 22.8337 8.3747L24.3682 7.73525C24.6176 7.63105 24.9043 7.7495 25.0085 7.99887C25.1127 8.24823 24.9943 8.535 24.7449 8.6392L23.2104 9.27865ZM16.8026 8.8033C17.0395 8.48892 17.4857 8.42569 17.8001 8.66259C18.1145 8.89949 18.1777 9.34568 17.9417 9.65917L12.3336 17.1028C12.2098 17.2675 12.0201 17.3708 11.8144 17.3851C11.7975 17.386 11.7814 17.3869 11.7645 17.3869C11.5757 17.3869 11.3949 17.3129 11.2604 17.1785L8.35977 14.2778C8.08191 13.9999 8.08191 13.5484 8.35977 13.2705C8.63764 12.9927 9.08917 12.9927 9.36704 13.2705L11.6879 15.5914L16.8026 8.8033Z" fill="#231F20"/>
</svg>
