<svg width="351" height="141" viewBox="0 0 351 141" fill="none" xmlns="http://www.w3.org/2000/svg">
<rect x="1.08203" y="23.5" width="348" height="116.5" rx="4" fill="white" stroke="#3F3F3F" stroke-width="2"/>
<path d="M37.2108 84.82V91.88H34.1908V85.1C33.4908 85.68 32.9508 86.02 32.1908 86.48L31.3508 83C33.3108 81.96 34.9108 80.26 36.0508 78.38H31.7308V75.54H34.1908V72.94H37.2108V75.54H39.2708V78.38C38.6908 79.64 38.1308 80.58 37.3108 81.72C38.2708 82.62 39.3108 83.42 40.4708 84.04L38.9108 86.68C38.2908 86.1 37.7308 85.48 37.2108 84.82ZM50.2708 73.7C50.2708 74.3 50.2708 74.9 50.2708 75.5C50.2708 78.86 50.2508 82.24 50.0508 85.58C49.9708 86.92 49.9308 89.44 49.3508 90.56C48.8108 91.6 48.2908 91.88 46.5908 91.88H43.8108L43.2308 88.84H45.3708C46.1108 88.84 46.5708 88.84 46.7508 87.36C47.0108 85.12 47.1108 83.58 47.1508 81.32C47.1908 79.78 47.2108 78.22 47.2108 76.68H45.2908C45.2508 78.26 45.1708 79.84 45.0308 81.42C44.8308 83.78 44.4108 85.88 43.2308 87.94C42.3308 89.52 41.2308 90.72 39.8508 91.9L37.7508 89.34C39.7308 87.6 41.2108 85.62 41.7708 83C42.2308 80.94 42.2908 78.78 42.3108 76.68H39.7308V73.7H50.2708ZM41.7908 80.36C41.2508 81.4 40.8308 82.2 40.0908 83.14L38.2508 81.9C38.8108 81.16 39.4508 80.06 39.8508 79.2L41.7908 80.36ZM66.9908 90.9H55.4308V91.76H52.4508V73.84H70.0508V91.76H66.9908V90.9ZM66.9908 88.1V76.62H55.4308V88.1H66.9908ZM56.8108 78H65.5708V86.64H56.8108V78ZM59.3708 80.38V84.22H62.9508V80.38H59.3708ZM72.1508 78.62C72.2108 77.54 72.2908 76.5 72.7708 75.52C73.7708 73.44 75.9308 72.74 78.1108 72.74C81.0708 72.74 83.7508 74.24 83.7508 77.52C83.7508 78.94 83.1708 80.1 81.9508 80.86C83.4108 81.72 84.1908 83.32 84.1908 84.98C84.1908 86.8 83.2708 88.52 81.7108 89.46C80.6308 90.12 79.2908 90.34 78.0508 90.34C75.2308 90.34 72.8108 89.08 72.1108 86.18C71.9308 85.48 71.8708 84.76 71.8508 84.04H75.5308C75.5508 85.94 76.0308 87.24 78.1908 87.24C79.6708 87.24 80.6708 86.42 80.6708 84.9C80.6708 83.2 79.4108 82.68 77.9108 82.68H76.1908V79.72H77.8508C79.1708 79.72 80.1708 79.28 80.1708 77.82C80.1708 76.52 79.2908 75.84 78.0508 75.84C76.2908 75.84 75.8308 77.08 75.7908 78.62H72.1508ZM91.5064 72.74C96.4064 72.74 97.6464 77.52 97.6464 81.54C97.6464 85.56 96.4064 90.34 91.5064 90.34C86.6064 90.34 85.3464 85.56 85.3464 81.54C85.3464 77.52 86.6064 72.74 91.5064 72.74ZM91.5064 75.78C90.5064 75.78 89.9264 76.34 89.5664 77.22C89.0264 78.56 88.9864 80.1 88.9864 81.54C88.9864 82.96 89.0264 84.52 89.5864 85.86C89.9264 86.72 90.5064 87.28 91.5064 87.28C92.4864 87.28 93.0864 86.72 93.4264 85.84C93.9664 84.54 94.0264 82.94 94.0264 81.54C94.0264 80.1 93.9664 78.56 93.4264 77.22C93.0664 76.34 92.4864 75.78 91.5064 75.78ZM100.562 73.68H116.002V91.74H112.802V90.94H103.762V91.74H100.562V73.68ZM112.802 80.66V76.68H103.762V80.66H112.802ZM112.802 83.56H103.762V87.96H112.802V83.56ZM122.562 79.48C121.722 79.9 120.862 80.3 120.002 80.66L118.542 77.66C121.402 76.78 124.742 75.14 126.742 72.9H129.862C132.262 75.12 134.942 76.62 138.022 77.7L136.582 80.78C135.722 80.4 134.882 80 134.062 79.54V80.78H129.802V82.14H137.002V84.96H129.802V88.64H131.042C131.502 87.46 131.882 86.28 132.202 85.06L135.242 85.88C134.902 86.82 134.522 87.74 134.142 88.64H137.442V91.48H119.082V88.64H122.302C122.082 87.84 121.702 86.9 121.262 85.94L124.202 85.1C124.742 86.22 125.142 87.42 125.462 88.64H126.762V84.96H119.562V82.14H126.762V80.78H122.562V79.48ZM125.022 78.06H131.602C130.382 77.22 129.342 76.34 128.282 75.3C127.262 76.38 126.262 77.26 125.022 78.06ZM142.462 76.24C141.382 76.3 140.282 76.36 139.182 76.38L138.822 73.62C141.862 73.62 144.842 73.38 147.842 72.74L148.702 75.44C147.582 75.72 146.542 75.84 145.402 75.98V78.02H148.502V80.82H145.582C146.322 82.24 147.422 83.84 148.562 84.96L147.042 87.52C146.402 86.66 145.862 85.76 145.402 84.8V91.9H142.462V85.04C141.622 86.76 140.802 87.9 139.522 89.32L138.462 85.62C139.962 84.38 141.302 82.54 142.182 80.82H138.722V78.02H142.462V76.24ZM157.082 72.86V89.58C157.082 90.18 157.022 90.82 156.582 91.28C156.162 91.68 155.582 91.9 155.002 91.9H150.942L150.382 88.7H153.462C153.922 88.7 154.062 88.62 154.062 88.18V72.86H157.082ZM152.322 74.38V87.38H149.342V74.38H152.322ZM235.933 80.36L237.193 79.48C237.853 80.18 238.393 80.94 238.873 81.76L237.553 82.64C237.093 81.82 236.553 81.08 235.933 80.36ZM237.953 79.02L239.213 78.14C239.853 78.84 240.393 79.6 240.873 80.42L239.573 81.3C239.113 80.48 238.573 79.72 237.953 79.02ZM222.133 75.28C223.353 75.26 224.593 75.24 225.813 75.16L240.173 74.14L240.433 77.4C238.113 77.46 236.073 77.8 234.093 79.06C232.353 80.14 230.853 81.88 230.853 84.04C230.853 87.2 234.573 88.2 237.113 88.42L235.553 91.64C233.833 91.42 232.153 90.88 230.653 90C228.513 88.74 227.373 86.66 227.373 84.2C227.373 81.36 228.913 79.16 231.173 77.58L222.393 78.66L222.133 75.28ZM251.953 80.82L251.173 78.36C251.893 78.28 252.493 78.18 253.193 77.98C252.693 77.52 252.313 77.14 251.853 76.62L253.273 75.84H251.853V73.48H260.193V75.84C259.533 76.8 258.893 77.44 257.973 78.12C258.993 78.5 259.893 78.7 260.973 78.86L259.953 81.44C259.613 81.36 259.273 81.26 258.953 81.14V88.9H255.973C257.593 89.32 259.133 89.6 260.833 89.62L259.733 92.04C257.013 91.7 255.473 91.36 252.933 90.28L254.213 88.9H248.273L249.613 90.24C247.353 91.3 245.273 91.74 242.813 92.02L241.713 89.6C243.353 89.56 245.113 89.4 246.693 88.9H243.573V81.12H242.393V73.48H251.333V75.04H248.933V75.7H250.933V78.98H248.933V79.62H251.333V80.82H251.953ZM246.553 75.04H244.973V75.7H246.553V75.04ZM255.533 76.98C256.173 76.62 256.613 76.3 257.213 75.84H254.033C254.513 76.3 254.973 76.64 255.533 76.98ZM248.333 76.98H244.973V77.68H248.333V76.98ZM246.553 78.94H244.973V79.62H246.553V78.94ZM252.333 80.82H258.053C257.273 80.5 256.213 80.04 255.493 79.62C254.453 80.12 253.433 80.5 252.333 80.82ZM255.993 82.42H246.553V83.06H255.993V82.42ZM255.993 84.5H246.553V85.14H255.993V84.5ZM255.993 86.52H246.553V87.16H255.993V86.52ZM274.653 72.76L277.073 75.38C273.973 77.56 270.413 79.68 267.193 81.56C266.593 81.9 266.393 82.12 266.393 82.34C266.393 82.5 266.493 82.62 266.613 82.7C267.113 83 267.673 83.26 268.193 83.52C271.513 85.16 274.713 87.08 277.673 89.3L275.273 92.04C273.833 90.94 272.373 89.88 270.853 88.88C268.813 87.56 266.693 86.36 264.553 85.22C263.413 84.6 262.313 83.84 262.313 82.4C262.313 80.6 264.233 79.66 265.573 78.84C268.673 76.96 271.753 74.98 274.653 72.76ZM280.813 83.2C280.473 83.6 280.253 83.86 279.893 84.22L279.093 79.88C280.673 77.96 281.433 75.3 281.713 72.86L284.673 73.1C284.453 74.66 284.153 76.1 283.673 77.6V91.86H280.813V83.2ZM286.973 72.96H289.873V74.74H292.713V72.96H295.673V74.74H297.813V77.34H295.673V78.9H298.273V81.5H284.313V78.9H286.973V77.34H284.793V74.74H286.973V72.96ZM292.713 77.34H289.873V78.9H292.713V77.34ZM297.013 82.44V91.86H294.073V91.2H288.493V91.86H285.553V82.44H297.013ZM294.073 84.56H288.493V85.68H294.073V84.56ZM294.073 87.66H288.493V88.8H294.073V87.66ZM302.293 73.54H310.613C310.613 76.32 310.773 79.14 311.713 81.76C312.913 85.08 315.613 87.42 318.713 88.9L316.673 91.88C312.793 89.78 309.953 86.74 308.913 82.48C307.693 86.76 304.913 89.74 301.073 91.88L299.133 89.02C301.633 87.8 303.553 86.28 305.133 83.96C306.653 81.68 307.393 79.32 307.493 76.58H302.293V73.54ZM62.13 111.862L62.48 112.268C60.128 114.27 59.372 116.23 59.372 118.68C59.372 121.13 60.128 123.09 62.48 125.092L62.13 125.498C59.484 123.468 58.462 121.41 58.462 118.68C58.462 115.95 59.484 113.892 62.13 111.862ZM72.28 116.426H73.33C74.604 116.426 75.038 116.398 75.122 116.398C75.22 116.398 75.234 116.412 75.234 116.51C75.234 116.58 75.206 117.168 75.206 118.47V121.872C75.206 122.614 75.22 123.342 75.22 123.72C75.22 124.14 75.178 124.434 74.912 124.644C74.688 124.826 74.352 124.896 73.232 124.896C72.952 124.896 72.938 124.896 72.882 124.63C72.826 124.392 72.728 124.182 72.616 124.014C73.008 124.042 73.316 124.07 73.764 124.07C74.268 124.07 74.394 123.972 74.394 123.594V121.746H69.438V123.048C69.438 124.308 69.466 124.84 69.466 124.91C69.466 124.994 69.452 125.008 69.354 125.008H68.71C68.612 125.008 68.598 124.994 68.598 124.91C68.598 124.826 68.626 124.336 68.626 123.034V118.4C68.626 117.084 68.598 116.58 68.598 116.51C68.598 116.412 68.612 116.398 68.71 116.398C68.794 116.398 69.214 116.426 70.488 116.426H71.426V114.214C71.426 113.332 71.412 112.786 71.328 112.366C71.678 112.38 72.014 112.408 72.266 112.45C72.364 112.464 72.434 112.506 72.434 112.562C72.434 112.66 72.392 112.73 72.35 112.828C72.294 112.982 72.28 113.318 72.28 114.13V116.426ZM74.394 121.018V119.422H69.438V121.018H74.394ZM74.394 118.694V117.154H69.438V118.694H74.394ZM67.17 120.92C66.638 122.138 66.134 123.132 65.602 124.098C65.434 124.378 65.322 124.574 65.294 124.686C65.266 124.784 65.224 124.826 65.14 124.826C65.112 124.826 65.042 124.798 64.958 124.742C64.734 124.588 64.538 124.448 64.314 124.238C64.608 123.93 64.818 123.636 65.112 123.146C65.49 122.516 66.008 121.494 66.61 120.052C66.722 120.192 66.876 120.36 67.03 120.472C67.17 120.598 67.24 120.64 67.24 120.71C67.24 120.766 67.212 120.822 67.17 120.92ZM75.766 113.402C75.766 113.458 75.724 113.514 75.668 113.556C75.57 113.64 75.514 113.724 75.444 113.836C75.108 114.466 74.8 115.026 74.394 115.614C74.31 115.74 74.268 115.796 74.212 115.796C74.156 115.796 74.1 115.754 73.988 115.684C73.834 115.586 73.666 115.516 73.498 115.46C74.002 114.802 74.38 114.158 74.674 113.486C74.772 113.248 74.828 113.08 74.856 112.884C75.15 112.996 75.43 113.136 75.626 113.248C75.724 113.304 75.766 113.346 75.766 113.402ZM64.118 116.594L64.384 116.258C64.468 116.146 64.496 116.132 64.594 116.188C65.238 116.566 66.022 117.14 66.666 117.756C66.736 117.826 66.736 117.868 66.638 117.994L66.344 118.386C66.246 118.512 66.218 118.526 66.134 118.442C65.546 117.84 64.748 117.21 64.09 116.818C63.992 116.762 64.006 116.734 64.118 116.594ZM65 113.108L65.266 112.8C65.378 112.674 65.406 112.66 65.504 112.716C66.176 113.15 66.848 113.738 67.45 114.326C67.52 114.396 67.506 114.424 67.408 114.55L67.114 114.928C67.002 115.068 66.96 115.082 66.876 114.984C66.26 114.354 65.588 113.78 64.972 113.346C64.874 113.276 64.888 113.234 65 113.108ZM68.192 113.234L68.57 113.052C68.724 112.968 68.752 112.968 68.822 113.052C69.354 113.71 69.732 114.368 70.096 115.152C70.138 115.25 70.124 115.278 69.97 115.362L69.564 115.572C69.41 115.656 69.354 115.67 69.312 115.558C68.962 114.732 68.612 114.102 68.08 113.444C68.01 113.36 68.024 113.318 68.192 113.234ZM90.158 116.132L90.116 116.524C90.046 116.986 89.99 117.392 89.864 117.658C89.682 118.078 89.416 118.218 88.884 118.218C88.688 118.218 88.534 118.204 88.324 118.19C88.31 118.386 88.31 118.736 88.31 119.366V121.494C88.31 122.432 88.338 122.782 88.338 122.852C88.338 122.95 88.324 122.964 88.226 122.964C88.142 122.964 87.666 122.936 86.28 122.936H82.15C80.75 122.936 80.274 122.964 80.19 122.964C80.092 122.964 80.078 122.95 80.078 122.852C80.078 122.768 80.106 122.432 80.106 121.494V118.526C79.658 118.708 79.154 118.876 78.58 119.016C78.314 119.086 78.3 119.086 78.174 118.834C78.076 118.652 77.992 118.526 77.866 118.428C79.952 118.078 81.086 117.546 81.716 116.594H79.644L79.49 116.944C79.42 117.112 79.364 117.112 79.21 117.084L78.888 117.028C78.692 116.986 78.692 116.958 78.748 116.818C78.986 116.328 79.154 115.894 79.266 115.516C79.336 115.278 79.406 115.012 79.434 114.774C79.434 114.676 79.462 114.634 79.56 114.634C79.63 114.634 80.106 114.662 81.534 114.662H82.332C82.36 114.396 82.388 114.116 82.388 113.822H80.988C79.574 113.822 79.098 113.85 79.028 113.85C78.93 113.85 78.916 113.836 78.916 113.752V113.346C78.916 113.248 78.93 113.234 79.028 113.234C79.098 113.234 79.574 113.262 80.988 113.262H82.402V113.15C82.402 112.8 82.374 112.59 82.318 112.366C82.64 112.38 82.878 112.394 83.074 112.422C83.186 112.436 83.27 112.478 83.27 112.562C83.27 112.604 83.228 112.688 83.2 112.758C83.158 112.842 83.144 112.954 83.144 113.262H85.314C85.314 112.898 85.286 112.618 85.216 112.352C85.552 112.366 85.72 112.38 86 112.408C86.112 112.422 86.182 112.478 86.182 112.534C86.182 112.59 86.14 112.66 86.098 112.744C86.056 112.828 86.042 112.996 86.042 113.262H86.84C88.296 113.262 88.898 113.234 88.968 113.234C89.066 113.234 89.08 113.248 89.08 113.346C89.08 113.416 89.052 113.584 89.052 114.046V114.424C89.052 114.886 89.08 115.054 89.08 115.124C89.08 115.222 89.066 115.236 88.968 115.236C88.898 115.236 88.296 115.208 86.84 115.208H86.042V116.034H88.072C89.486 116.034 89.962 116.006 90.046 116.006C90.144 116.006 90.172 116.048 90.158 116.132ZM89.304 116.594H86.042C86.042 117.196 86.07 117.462 86.07 117.518C86.07 117.616 86.056 117.63 85.958 117.63H85.398C85.3 117.63 85.286 117.616 85.286 117.518C85.286 117.462 85.3 117.196 85.314 116.594H82.528C82.248 117.098 81.842 117.546 81.268 117.924H86.28C87.274 117.924 87.792 117.91 88.044 117.91C88.016 117.742 87.974 117.588 87.904 117.448C88.268 117.504 88.492 117.518 88.772 117.518C89.066 117.518 89.136 117.476 89.192 117.252C89.248 117.056 89.29 116.804 89.304 116.594ZM87.512 122.32V121.382H80.904V122.32H87.512ZM87.512 120.822V119.954H80.904V120.822H87.512ZM87.512 119.394V118.54H80.904V119.394H87.512ZM85.314 116.034V115.208H82.99C82.948 115.502 82.878 115.768 82.78 116.034H85.314ZM88.282 114.662V113.822H86.042V114.662H88.282ZM85.314 114.662V113.822H83.13C83.13 114.116 83.102 114.396 83.074 114.662H85.314ZM82.262 115.208H80.092C80.022 115.488 79.938 115.768 79.854 116.034H82.01C82.122 115.768 82.206 115.502 82.262 115.208ZM82.654 123.58C82.654 123.636 82.598 123.692 82.5 123.706C82.346 123.734 82.206 123.818 82.052 123.902C81.212 124.364 79.938 124.784 78.762 125.008C78.496 125.064 78.468 125.064 78.356 124.854C78.244 124.63 78.104 124.462 77.978 124.364C79.168 124.182 80.456 123.874 81.254 123.454C81.464 123.342 81.618 123.244 81.772 123.09C82.094 123.216 82.318 123.314 82.514 123.426C82.612 123.482 82.654 123.524 82.654 123.58ZM85.706 123.356L86.112 123.146C86.238 123.076 86.266 123.062 86.35 123.118C87.372 123.776 88.646 124.098 90.088 124.294C89.962 124.42 89.822 124.588 89.696 124.812C89.584 125.022 89.556 125.008 89.29 124.966C88.142 124.728 86.658 124.266 85.622 123.566C85.524 123.51 85.524 123.454 85.706 123.356ZM104.242 116.986V117.574C104.242 117.672 104.228 117.686 104.13 117.686C104.06 117.686 103.612 117.658 102.31 117.658H99.23C98.474 118.204 97.676 118.694 96.85 119.142H100.252C101.484 119.142 102.016 119.114 102.1 119.114C102.198 119.114 102.212 119.128 102.212 119.24C102.212 119.31 102.184 119.674 102.184 120.976V122.278C102.184 124.392 102.212 124.742 102.212 124.826C102.212 124.91 102.198 124.924 102.1 124.924H101.47C101.372 124.924 101.358 124.91 101.358 124.826V124.21H96.108V124.868C96.108 124.966 96.094 124.98 95.996 124.98H95.366C95.268 124.98 95.254 124.966 95.254 124.868C95.254 124.798 95.282 124.378 95.282 122.264V119.94C94.358 120.374 93.42 120.766 92.44 121.116C92.188 121.214 92.188 121.214 92.034 120.962C91.922 120.78 91.782 120.626 91.642 120.5C94.036 119.744 96.15 118.806 97.942 117.658H93.91C92.594 117.658 92.16 117.686 92.09 117.686C91.992 117.686 91.978 117.672 91.978 117.574V116.986C91.978 116.902 91.992 116.888 92.09 116.888C92.16 116.888 92.594 116.916 93.91 116.916H97.102V115.124H95.66C94.372 115.124 93.952 115.152 93.868 115.152C93.77 115.152 93.756 115.138 93.756 115.04V114.466C93.756 114.368 93.77 114.354 93.868 114.354C93.952 114.354 94.372 114.382 95.66 114.382H97.102V113.99C97.102 113.262 97.088 112.87 97.004 112.422C97.368 112.436 97.662 112.464 97.928 112.506C98.026 112.52 98.11 112.562 98.11 112.632C98.11 112.702 98.082 112.772 98.04 112.87C97.97 113.038 97.942 113.346 97.942 113.99V114.382H98.572C99.86 114.382 100.266 114.354 100.35 114.354C100.448 114.354 100.462 114.368 100.462 114.466V115.04C100.462 115.138 100.448 115.152 100.35 115.152C100.266 115.152 99.86 115.124 98.572 115.124H97.942V116.916H98.964C100.014 116.132 100.952 115.236 101.778 114.214C102.086 113.836 102.226 113.612 102.352 113.276C102.674 113.43 102.926 113.57 103.136 113.71C103.234 113.78 103.262 113.836 103.262 113.906C103.262 113.962 103.206 114.032 103.122 114.06C102.94 114.13 102.786 114.34 102.52 114.634C101.764 115.488 100.98 116.244 100.154 116.916H102.31C103.612 116.916 104.06 116.888 104.13 116.888C104.228 116.888 104.242 116.902 104.242 116.986ZM101.358 123.496V121.97H96.108V123.496H101.358ZM101.358 121.27V119.856H96.108V121.27H101.358ZM117.864 123.748V124.35C117.864 124.448 117.85 124.462 117.752 124.462C117.682 124.462 117.22 124.434 115.862 124.434H108.274C106.916 124.434 106.468 124.462 106.384 124.462C106.286 124.462 106.272 124.448 106.272 124.35V123.748C106.272 123.65 106.286 123.636 106.384 123.636C106.468 123.636 106.916 123.664 108.274 123.664H111.536V119.996H108.75C107.364 119.996 106.902 120.024 106.818 120.024C106.72 120.024 106.706 120.01 106.706 119.912V119.324C106.706 119.226 106.72 119.212 106.818 119.212C106.902 119.212 107.364 119.24 108.75 119.24H111.536V117.49H110.682C109.422 117.49 109.002 117.504 108.932 117.504C108.834 117.504 108.82 117.49 108.82 117.406V116.818C108.82 116.72 108.834 116.706 108.932 116.706C109.002 116.706 109.422 116.734 110.682 116.734H113.44C114.7 116.734 115.12 116.706 115.204 116.706C115.302 116.706 115.316 116.72 115.316 116.818V117.406C115.316 117.49 115.302 117.504 115.204 117.504C115.12 117.504 114.7 117.49 113.44 117.49H112.404V119.24H115.442C116.842 119.24 117.304 119.212 117.374 119.212C117.472 119.212 117.486 119.226 117.486 119.324V119.912C117.486 120.038 117.486 120.024 117.374 120.024C117.304 120.024 116.842 119.996 115.442 119.996H112.404V123.664H115.862C117.22 123.664 117.682 123.636 117.752 123.636C117.85 123.636 117.864 123.65 117.864 123.748ZM118.732 117C118.592 117.126 118.424 117.336 118.326 117.546C118.242 117.7 118.214 117.756 118.144 117.756C118.088 117.756 118.032 117.728 117.92 117.686C115.554 116.748 113.51 115.418 112.012 113.388C110.444 115.488 108.568 116.79 106.3 117.826C106.062 117.924 106.062 117.924 105.908 117.7C105.782 117.504 105.628 117.364 105.46 117.266C108.12 116.132 110.052 114.648 111.228 112.982C111.452 112.646 111.536 112.506 111.634 112.198C111.956 112.24 112.278 112.296 112.53 112.394C112.656 112.436 112.726 112.492 112.726 112.576C112.726 112.618 112.698 112.66 112.628 112.702C112.572 112.73 112.53 112.758 112.502 112.786C114.21 115.026 116.296 116.174 118.732 117ZM115.974 120.99C115.974 121.074 115.904 121.116 115.834 121.172C115.764 121.228 115.708 121.312 115.61 121.508C115.288 122.124 114.966 122.712 114.616 123.188C114.532 123.286 114.504 123.328 114.448 123.328C114.406 123.328 114.35 123.3 114.252 123.23C114.112 123.132 113.93 123.034 113.776 123.006C114.224 122.418 114.574 121.802 114.882 121.13C114.994 120.878 115.05 120.724 115.092 120.514C115.4 120.612 115.624 120.71 115.806 120.808C115.918 120.878 115.974 120.92 115.974 120.99ZM108.372 120.85L108.75 120.682C108.904 120.612 108.932 120.598 109.002 120.696C109.436 121.326 109.744 121.914 110.038 122.642C110.08 122.74 110.08 122.782 109.926 122.852L109.492 123.062C109.296 123.16 109.282 123.174 109.24 123.048C108.946 122.222 108.666 121.662 108.246 121.046C108.19 120.962 108.204 120.934 108.372 120.85ZM130.856 121.508L131.206 121.396C131.346 121.354 131.36 121.354 131.402 121.438C131.85 122.32 132.214 123.3 132.508 124.322C132.536 124.42 132.522 124.434 132.382 124.49L131.99 124.63C131.822 124.686 131.808 124.672 131.78 124.56C131.668 124.154 131.556 123.748 131.43 123.356C130.212 123.734 128.91 124.084 127.748 124.35C127.454 124.42 127.258 124.532 127.188 124.588C127.146 124.616 127.09 124.672 127.034 124.672C126.964 124.672 126.936 124.63 126.88 124.518C126.768 124.238 126.698 123.972 126.614 123.664C127.104 123.622 127.552 123.552 128.224 123.426C128.476 123.384 128.756 123.328 129.064 123.258V120.164H127.79V120.766C127.79 120.864 127.776 120.878 127.678 120.878H127.132C127.034 120.878 127.02 120.864 127.02 120.766C127.02 120.696 127.048 120.416 127.048 118.694V116.986C127.048 115.908 127.02 115.544 127.02 115.474C127.02 115.376 127.034 115.362 127.132 115.362C127.216 115.362 127.566 115.39 128.63 115.39H129.064V114.284C129.064 113.374 129.05 112.982 128.966 112.492C129.288 112.506 129.596 112.534 129.82 112.576C129.918 112.59 129.974 112.618 129.974 112.688C129.974 112.772 129.946 112.842 129.918 112.968C129.876 113.136 129.834 113.458 129.834 114.27V115.39H130.338C131.402 115.39 131.766 115.362 131.836 115.362C131.934 115.362 131.948 115.376 131.948 115.474C131.948 115.544 131.92 115.894 131.92 116.818V118.596C131.92 120.29 131.948 120.556 131.948 120.64C131.948 120.738 131.934 120.752 131.836 120.752H131.276C131.178 120.752 131.164 120.738 131.164 120.64V120.164H129.834V123.09C130.268 122.978 130.73 122.866 131.192 122.726C131.052 122.362 130.912 122.012 130.744 121.662C130.702 121.564 130.73 121.55 130.856 121.508ZM131.164 119.492V116.062H129.82V119.492H131.164ZM129.078 119.492V116.062H127.79V119.492H129.078ZM126.278 120.052V122.04C126.278 122.628 126.306 123.118 126.306 123.692C126.306 124.042 126.25 124.336 125.998 124.546C125.76 124.742 125.466 124.798 124.752 124.798C124.486 124.798 124.458 124.784 124.402 124.518C124.36 124.294 124.29 124.14 124.206 124C124.542 124.042 124.766 124.056 125.088 124.056C125.438 124.056 125.564 123.944 125.564 123.566V120.948C125.298 120.976 125.06 120.99 124.822 120.99C124.5 120.99 124.248 120.99 124.038 120.892C123.8 120.78 123.716 120.598 123.716 120.248V118.918H122.96C122.918 120.164 122.582 120.766 121.868 121.34C121.77 121.41 121.714 121.452 121.658 121.452C121.616 121.452 121.56 121.41 121.49 121.312C121.378 121.172 121.266 121.074 121.126 120.99C121.98 120.514 122.246 119.926 122.274 118.918H121.07V122.894C121.07 124.294 121.098 124.742 121.098 124.812C121.098 124.91 121.084 124.924 120.986 124.924H120.398C120.3 124.924 120.286 124.91 120.286 124.812C120.286 124.742 120.314 124.35 120.314 122.922V119.968C120.314 118.862 120.286 118.456 120.286 118.372C120.286 118.274 120.3 118.26 120.398 118.26C120.482 118.26 120.902 118.288 122.106 118.288H124.486C125.704 118.288 126.124 118.26 126.194 118.26C126.292 118.26 126.306 118.274 126.306 118.372C126.306 118.456 126.278 118.946 126.278 120.052ZM125.564 120.36V118.918H124.388V119.982C124.388 120.22 124.416 120.29 124.528 120.346C124.626 120.388 124.808 120.402 124.976 120.402C125.158 120.402 125.354 120.388 125.564 120.36ZM125.774 115.754V116.412C125.774 117.014 125.802 117.182 125.802 117.266C125.802 117.364 125.788 117.378 125.69 117.378C125.606 117.378 125.27 117.35 124.192 117.35H122.456C121.392 117.35 121.042 117.378 120.958 117.378C120.86 117.378 120.846 117.364 120.846 117.266C120.846 117.182 120.874 117.014 120.874 116.412V115.754C120.874 115.152 120.846 114.984 120.846 114.9C120.846 114.802 120.86 114.788 120.958 114.788C121.042 114.788 121.392 114.816 122.456 114.816H124.192C125.27 114.816 125.606 114.788 125.69 114.788C125.788 114.788 125.802 114.802 125.802 114.9C125.802 114.97 125.774 115.152 125.774 115.754ZM125.032 116.706V115.46H121.63V116.706H125.032ZM126.614 113.206V113.752C126.614 113.85 126.6 113.864 126.488 113.864C126.418 113.864 125.998 113.836 124.724 113.836H121.882C120.608 113.836 120.188 113.864 120.118 113.864C120.02 113.864 120.006 113.85 120.006 113.752V113.206C120.006 113.094 120.02 113.08 120.118 113.08C120.188 113.08 120.608 113.108 121.882 113.108H124.724C125.998 113.108 126.418 113.08 126.488 113.08C126.6 113.08 126.614 113.094 126.614 113.206ZM124.85 121.732V122.18C124.85 122.278 124.836 122.292 124.738 122.292C124.668 122.292 124.486 122.264 123.744 122.264H123.604V123.062C123.604 123.86 123.632 124.168 123.632 124.252C123.632 124.35 123.618 124.364 123.52 124.364H122.988C122.89 124.364 122.876 124.35 122.876 124.252C122.876 124.168 122.904 123.86 122.904 123.062V122.264H122.834C122.092 122.264 121.91 122.292 121.84 122.292C121.742 122.292 121.728 122.278 121.728 122.18V121.732C121.728 121.634 121.742 121.62 121.84 121.62C121.91 121.62 122.092 121.648 122.834 121.648H123.744C124.486 121.648 124.668 121.62 124.738 121.62C124.836 121.62 124.85 121.634 124.85 121.732ZM140.88 115.166H140.614C140.362 117.532 139.648 119.856 138.766 121.284C138.164 122.306 137.534 122.726 136.708 122.726C135.658 122.726 134.664 121.578 134.664 119.548C134.664 118.26 135.252 116.888 136.288 115.922C137.324 114.956 138.724 114.368 140.488 114.368C143.624 114.368 145.486 116.202 145.486 118.876C145.486 121.158 144.072 122.992 141.034 123.762C140.866 123.804 140.768 123.776 140.67 123.608C140.586 123.468 140.404 123.258 140.124 123.09C142.896 122.544 144.492 121.046 144.492 118.708C144.492 116.636 142.882 115.166 140.88 115.166ZM139.634 115.222C138.542 115.362 137.576 115.838 136.904 116.51C135.966 117.434 135.56 118.582 135.56 119.534C135.56 121.06 136.19 121.718 136.694 121.718C137.17 121.718 137.59 121.41 137.996 120.696C138.71 119.436 139.452 117.266 139.634 115.222ZM160.34 117.364V117.952C160.34 118.05 160.326 118.064 160.228 118.064C160.158 118.064 159.724 118.036 158.422 118.036H158.142V120.416C159.22 120.416 159.64 120.388 159.71 120.388C159.808 120.388 159.822 120.402 159.822 120.5V121.06C159.822 121.158 159.808 121.172 159.71 121.172C159.64 121.172 159.164 121.144 157.792 121.144H150.61C149.238 121.144 148.776 121.172 148.706 121.172C148.608 121.172 148.594 121.158 148.594 121.06V120.5C148.594 120.402 148.608 120.388 148.706 120.388C148.762 120.388 149.168 120.416 150.26 120.416V118.036H149.854C148.552 118.036 148.118 118.064 148.048 118.064C147.95 118.064 147.936 118.05 147.936 117.952V117.364C147.936 117.266 147.95 117.252 148.048 117.252C148.118 117.252 148.552 117.28 149.854 117.28H150.26V115.236C149.91 115.642 149.532 116.048 149.154 116.398C149.056 116.496 149 116.538 148.958 116.538C148.888 116.538 148.846 116.482 148.748 116.356C148.622 116.202 148.51 116.104 148.356 116.02C149.476 115.138 150.302 114.088 150.862 113.052C151.044 112.688 151.128 112.492 151.198 112.184C151.478 112.254 151.758 112.352 151.982 112.464C152.052 112.492 152.108 112.548 152.108 112.604C152.108 112.66 152.08 112.702 151.982 112.772C151.884 112.842 151.772 112.982 151.646 113.206C151.464 113.528 151.254 113.878 151.016 114.228H157.652C159.08 114.228 159.556 114.2 159.64 114.2C159.738 114.2 159.752 114.214 159.752 114.312V114.886C159.752 114.984 159.738 114.998 159.64 114.998C159.57 114.998 159.178 114.984 158.142 114.97V117.28H158.422C159.724 117.28 160.158 117.252 160.228 117.252C160.326 117.252 160.34 117.266 160.34 117.364ZM157.372 120.416V118.036H155.734V120.416H157.372ZM154.978 120.416V118.036H153.368V120.416H154.978ZM157.372 117.28V114.97H155.734V117.28H157.372ZM152.612 120.416V118.036H151.03V120.416H152.612ZM154.978 117.28V114.97H153.368V117.28H154.978ZM152.612 117.28V114.97H151.03V117.28H152.612ZM150.204 121.858L150.554 122.012C150.708 122.096 150.708 122.124 150.68 122.208C150.204 123.16 149.63 123.93 148.888 124.658C148.804 124.742 148.762 124.728 148.622 124.63L148.272 124.364C148.132 124.252 148.132 124.21 148.216 124.126C148.972 123.454 149.518 122.754 149.938 121.858C149.98 121.774 150.008 121.774 150.204 121.858ZM157.708 121.942L158.044 121.774C158.198 121.704 158.212 121.704 158.296 121.788C158.982 122.544 159.472 123.23 159.934 124.126C159.99 124.224 159.976 124.266 159.808 124.35L159.416 124.546C159.234 124.644 159.206 124.644 159.15 124.546C158.716 123.622 158.254 122.922 157.596 122.124C157.526 122.04 157.54 122.026 157.708 121.942ZM154.95 122.04L155.342 121.928C155.496 121.886 155.51 121.9 155.566 121.998C155.944 122.782 156.182 123.482 156.364 124.266C156.392 124.378 156.378 124.392 156.224 124.434L155.776 124.546C155.566 124.602 155.538 124.602 155.51 124.49C155.356 123.678 155.118 122.922 154.796 122.208C154.754 122.11 154.768 122.096 154.95 122.04ZM152.192 122.04L152.584 121.97C152.724 121.942 152.752 121.956 152.78 122.068C153.018 122.768 153.144 123.496 153.242 124.378C153.256 124.476 153.242 124.504 153.074 124.518L152.598 124.574C152.402 124.602 152.388 124.574 152.388 124.462C152.332 123.622 152.22 122.936 151.996 122.208C151.968 122.082 151.996 122.068 152.192 122.04ZM168.082 116.678V117.224C168.082 117.322 168.068 117.336 167.97 117.336C167.886 117.336 167.522 117.308 166.304 117.308H165.87C166.486 118.442 167.228 119.464 168.068 120.318C167.928 120.472 167.802 120.64 167.69 120.864C167.634 120.976 167.606 121.018 167.564 121.018C167.522 121.018 167.48 120.976 167.41 120.892C166.78 120.122 166.122 119.044 165.618 117.896C165.632 121.606 165.73 124.686 165.73 124.896C165.73 124.994 165.716 125.008 165.618 125.008H164.918C164.82 125.008 164.806 124.994 164.806 124.896C164.806 124.686 164.918 121.536 164.932 117.91C164.204 119.814 163.336 121.144 162.286 122.488C162.216 122.586 162.16 122.628 162.118 122.628C162.076 122.628 162.034 122.586 161.992 122.474C161.908 122.25 161.754 122.04 161.614 121.9C162.72 120.724 163.77 119.254 164.624 117.308H163.644C162.44 117.308 162.062 117.336 161.978 117.336C161.88 117.336 161.88 117.322 161.88 117.224V116.678C161.88 116.58 161.88 116.566 161.978 116.566C162.062 116.566 162.44 116.594 163.644 116.594H164.862V114.382C164.218 114.564 163.532 114.732 162.832 114.872C162.552 114.914 162.552 114.914 162.426 114.676C162.328 114.508 162.23 114.382 162.09 114.256C163.742 114.004 165.576 113.416 166.402 113.024C166.71 112.87 166.836 112.8 167.032 112.618C167.27 112.786 167.48 112.954 167.634 113.108C167.732 113.206 167.76 113.262 167.76 113.346C167.76 113.43 167.69 113.458 167.536 113.472C167.368 113.486 167.172 113.556 166.934 113.654C166.57 113.808 166.15 113.962 165.688 114.116V116.594H166.304C167.522 116.594 167.886 116.566 167.97 116.566C168.068 116.566 168.082 116.58 168.082 116.678ZM172.492 123.216V114.396C172.492 113.556 172.478 113.15 172.394 112.688C172.73 112.702 173.052 112.73 173.332 112.772C173.43 112.786 173.5 112.842 173.5 112.898C173.5 112.996 173.458 113.066 173.416 113.164C173.346 113.318 173.346 113.584 173.346 114.382V121.256C173.346 122.026 173.36 122.824 173.36 123.37C173.36 123.958 173.262 124.252 172.954 124.462C172.632 124.686 172.352 124.742 171.036 124.742C170.77 124.742 170.77 124.742 170.686 124.448C170.63 124.196 170.518 123.986 170.392 123.804C170.868 123.874 171.246 123.888 171.778 123.888C172.31 123.888 172.492 123.79 172.492 123.216ZM169.16 119.38V115.6C169.16 114.634 169.16 114.186 169.062 113.696C169.384 113.71 169.692 113.738 169.972 113.78C170.07 113.794 170.112 113.836 170.112 113.906C170.112 113.976 170.07 114.046 170.042 114.13C169.986 114.298 169.986 114.55 169.986 115.572V119.38C169.986 120.598 170.014 121.102 170.014 121.186C170.014 121.284 170 121.298 169.902 121.298H169.244C169.146 121.298 169.132 121.284 169.132 121.186C169.132 121.102 169.16 120.598 169.16 119.38ZM186.17 115.39V118.582C186.17 119.674 186.198 120.08 186.198 120.164C186.198 120.262 186.184 120.276 186.086 120.276C186.016 120.276 185.54 120.248 184.154 120.248H180.066C178.68 120.248 178.204 120.276 178.12 120.276C178.022 120.276 178.008 120.262 178.008 120.164C178.008 120.08 178.036 119.674 178.036 118.582V115.39C178.036 114.298 178.008 113.892 178.008 113.822C178.008 113.724 178.022 113.71 178.12 113.71C178.204 113.71 178.68 113.738 180.066 113.738H180.878C181.06 113.416 181.144 113.164 181.242 112.856C181.284 112.716 181.354 112.492 181.368 112.254C181.69 112.31 182.026 112.394 182.264 112.45C182.376 112.478 182.446 112.548 182.446 112.604C182.446 112.66 182.404 112.702 182.348 112.758C182.25 112.856 182.18 112.968 182.124 113.094L181.802 113.738H184.154C185.54 113.738 186.016 113.71 186.086 113.71C186.184 113.71 186.198 113.724 186.198 113.822C186.198 113.892 186.17 114.298 186.17 115.39ZM185.344 119.562V118.232H178.862V119.562H185.344ZM185.344 115.67V114.424H178.862V115.67H185.344ZM185.344 117.574V116.328H178.862V117.574H185.344ZM180.234 121.984V123.286C180.234 123.636 180.318 123.818 180.57 123.888C180.906 123.972 181.452 124 182.138 124C182.922 124 183.79 124.014 184.21 123.776C184.546 123.622 184.672 123.202 184.7 122.516C184.854 122.642 185.05 122.74 185.26 122.81C185.498 122.894 185.498 122.922 185.47 123.174C185.358 124.014 185.064 124.28 184.714 124.448C184.14 124.728 183.202 124.742 182.124 124.742C181.144 124.742 180.458 124.7 180.024 124.574C179.688 124.462 179.422 124.238 179.422 123.594V122.026C179.422 121.648 179.422 121.312 179.352 120.948C179.66 120.962 179.968 121.004 180.192 121.046C180.318 121.074 180.36 121.116 180.36 121.172C180.36 121.242 180.346 121.27 180.304 121.368C180.262 121.466 180.234 121.62 180.234 121.984ZM177.854 121.438L178.246 121.62C178.386 121.69 178.4 121.732 178.358 121.816C177.98 122.768 177.476 123.65 176.79 124.364C176.72 124.448 176.692 124.448 176.552 124.35L176.216 124.084C176.062 123.958 176.048 123.93 176.118 123.86C176.762 123.202 177.28 122.334 177.616 121.48C177.644 121.396 177.686 121.354 177.854 121.438ZM185.974 121.564L186.31 121.34C186.436 121.256 186.464 121.27 186.534 121.354C187.206 122.068 187.71 122.796 188.186 123.608C188.242 123.706 188.228 123.72 188.074 123.818L187.682 124.056C187.5 124.168 187.472 124.154 187.416 124.056C186.968 123.216 186.492 122.446 185.876 121.76C185.806 121.676 185.82 121.662 185.974 121.564ZM181.508 120.822L181.802 120.598C181.914 120.514 181.956 120.514 182.026 120.57C182.572 120.99 183.104 121.494 183.51 122.026C183.58 122.11 183.58 122.138 183.44 122.25L183.118 122.502C182.964 122.614 182.95 122.614 182.88 122.53C182.446 121.97 181.914 121.438 181.452 121.032C181.368 120.948 181.368 120.934 181.508 120.822ZM198.854 116.426H199.358C200.142 116.426 200.856 116.426 201.626 116.384C201.78 116.384 201.794 116.426 201.794 116.552C201.808 116.734 201.808 116.958 201.794 117.154C201.794 117.294 201.766 117.336 201.612 117.322C200.898 117.294 200.156 117.308 199.372 117.308H198.84C198.798 119.212 198.532 120.57 197.846 121.732C197.16 122.936 195.928 123.846 194.402 124.42C194.192 124.504 194.15 124.532 194.024 124.406C193.8 124.154 193.604 124.014 193.296 123.874C195.158 123.286 196.376 122.446 197.048 121.27C197.622 120.248 197.874 119.114 197.902 117.308H194.332V117.994C194.332 118.778 194.346 119.52 194.374 120.262C194.374 120.388 194.332 120.416 194.206 120.416C194.01 120.43 193.716 120.43 193.506 120.416C193.38 120.416 193.338 120.388 193.338 120.248C193.366 119.534 193.394 118.82 193.394 118.022V117.308H192.68C191.938 117.308 191.126 117.336 190.524 117.364C190.398 117.378 190.398 117.322 190.37 117.168C190.342 116.972 190.328 116.678 190.314 116.37C191.042 116.412 191.784 116.426 192.68 116.426H193.394V115.278C193.394 114.648 193.38 113.962 193.24 113.318C193.702 113.346 194.122 113.416 194.374 113.486C194.584 113.542 194.528 113.696 194.444 113.878C194.36 114.046 194.332 114.634 194.332 115.278V116.426H197.902L197.916 115.18C197.916 114.242 197.888 113.612 197.79 113.08C198.14 113.122 198.602 113.192 198.84 113.262C199.05 113.318 199.064 113.444 198.98 113.64C198.91 113.822 198.868 114.06 198.868 115.138L198.854 116.426ZM212.168 119.31H207.002C205.784 119.31 205.196 119.45 205.112 119.45C204.986 119.45 204.916 119.394 204.874 119.254C204.818 119.016 204.762 118.568 204.734 118.19C205.588 118.302 206.666 118.316 207.828 118.316H212.126C213.092 118.316 214.128 118.302 215.192 118.274C215.36 118.26 215.402 118.288 215.402 118.442C215.416 118.652 215.416 118.946 215.402 119.17C215.402 119.324 215.36 119.352 215.192 119.338C214.142 119.31 213.106 119.31 212.168 119.31ZM221.464 116.118V117.98C222.836 117.616 224.376 117.07 225.538 116.524C226.266 116.174 226.574 115.978 226.896 115.6C227.218 115.866 227.54 116.16 227.708 116.37C227.82 116.524 227.778 116.706 227.596 116.734C227.344 116.79 226.98 116.944 226.308 117.252C224.936 117.868 223.06 118.498 221.464 118.932V121.34C221.464 122.082 221.66 122.32 222.192 122.432C222.78 122.558 223.452 122.586 224.292 122.586C225.3 122.586 226.588 122.502 227.848 122.278C228.002 122.25 228.03 122.292 228.044 122.418C228.072 122.642 228.1 122.908 228.114 123.09C228.114 123.244 228.058 123.272 227.89 123.286C226.518 123.482 225.524 123.524 224.096 123.524C223.046 123.524 222.304 123.454 221.618 123.272C220.862 123.062 220.512 122.53 220.512 121.536V116.328C220.512 115.082 220.512 114.452 220.386 113.85C220.834 113.906 221.24 113.962 221.534 114.046C221.744 114.102 221.688 114.284 221.618 114.438C221.492 114.704 221.464 115.18 221.464 116.118ZM226.966 114.116L227.47 113.752C227.54 113.71 227.568 113.71 227.624 113.752C228.184 114.144 228.8 114.83 229.206 115.446C229.248 115.502 229.234 115.558 229.178 115.6L228.772 115.936C228.702 115.992 228.632 115.978 228.59 115.908C228.184 115.222 227.596 114.564 226.966 114.116ZM228.198 113.178L228.646 112.828C228.702 112.786 228.744 112.772 228.8 112.814C229.36 113.248 229.99 113.864 230.396 114.452C230.438 114.522 230.424 114.564 230.354 114.62L229.976 114.956C229.92 115.012 229.864 115.012 229.808 114.928C229.458 114.354 228.856 113.668 228.198 113.178ZM235.982 114.606H240.042C240.518 114.606 240.672 114.592 240.84 114.494C240.924 114.438 241.022 114.466 241.12 114.536C241.316 114.69 241.526 114.9 241.694 115.11C241.778 115.222 241.75 115.32 241.624 115.432C241.484 115.544 241.358 115.712 241.218 115.95C240.602 117 239.888 118.036 239.146 118.96C240.588 120.01 241.89 121.13 243.164 122.474C243.29 122.586 243.29 122.628 243.178 122.768C243.024 122.95 242.842 123.118 242.674 123.272C242.576 123.356 242.52 123.356 242.422 123.244C241.246 121.9 239.916 120.71 238.558 119.688C236.962 121.34 235.282 122.642 233.56 123.594C233.406 123.678 233.322 123.692 233.21 123.566C233.028 123.356 232.776 123.216 232.482 123.062C234.596 122.012 236.248 120.724 237.634 119.268C238.544 118.302 239.468 117.056 240.294 115.516H236.08C235.296 115.516 234.694 115.558 234.064 115.6C233.938 115.6 233.924 115.558 233.896 115.446C233.854 115.25 233.812 114.83 233.812 114.55C234.498 114.606 235.114 114.606 235.982 114.606ZM253.314 119.618V121.97C253.314 122.082 253.286 122.124 253.16 122.138C253.02 122.166 252.74 122.194 252.558 122.194C252.474 122.194 252.432 122.124 252.432 122.026C252.432 121.41 252.432 120.724 252.446 120.01C250.906 120.78 250.15 121.494 250.15 122.334C250.15 123.16 250.92 123.496 252.544 123.496C253.706 123.496 254.854 123.356 255.876 123.216C255.946 123.202 256.002 123.216 256.03 123.314C256.072 123.524 256.114 123.804 256.114 124C256.114 124.126 256.058 124.182 256.002 124.196C255.008 124.322 253.86 124.392 252.544 124.392C250.584 124.392 249.31 123.888 249.31 122.39C249.31 121.214 250.08 120.262 252.404 119.128C252.376 118.176 252.054 117.798 251.228 117.812C250.626 117.826 249.828 118.176 248.932 118.946C248.428 119.422 248.092 119.786 247.602 120.304C247.518 120.402 247.462 120.402 247.392 120.332C247.252 120.206 247.014 119.94 246.902 119.786C246.86 119.702 246.846 119.674 246.93 119.59C248.204 118.484 249.366 117.126 250.178 115.698C249.31 115.754 248.456 115.754 247.574 115.726C247.462 115.726 247.434 115.684 247.42 115.586C247.392 115.418 247.35 115.11 247.336 114.886C248.358 114.942 249.45 114.942 250.584 114.872C250.752 114.452 250.948 113.99 251.088 113.472C251.158 113.234 251.214 113.024 251.2 112.716C251.606 112.786 252.012 112.912 252.25 113.024C252.39 113.094 252.39 113.234 252.278 113.332C252.222 113.388 252.138 113.486 252.026 113.724C251.858 114.074 251.732 114.368 251.55 114.788C252.53 114.69 253.538 114.536 254.504 114.326C254.616 114.298 254.644 114.298 254.672 114.382C254.7 114.578 254.742 114.774 254.756 114.998C254.756 115.096 254.728 115.138 254.574 115.166C253.468 115.362 252.278 115.516 251.158 115.628C250.682 116.482 250.234 117.14 249.73 117.714L249.744 117.742C250.332 117.322 250.948 117.14 251.494 117.14C252.53 117.14 253.146 117.686 253.258 118.778C253.944 118.47 254.742 118.106 255.442 117.77C255.848 117.574 256.212 117.35 256.506 117.056C256.828 117.336 257.108 117.7 257.192 117.868C257.304 118.078 257.192 118.162 257.052 118.19C256.884 118.218 256.604 118.288 256.282 118.414C255.218 118.862 254.336 119.184 253.314 119.618ZM266.082 116.678V117.224C266.082 117.322 266.068 117.336 265.97 117.336C265.886 117.336 265.522 117.308 264.304 117.308H263.87C264.486 118.442 265.228 119.464 266.068 120.318C265.928 120.472 265.802 120.64 265.69 120.864C265.634 120.976 265.606 121.018 265.564 121.018C265.522 121.018 265.48 120.976 265.41 120.892C264.78 120.122 264.122 119.044 263.618 117.896C263.632 121.606 263.73 124.686 263.73 124.896C263.73 124.994 263.716 125.008 263.618 125.008H262.918C262.82 125.008 262.806 124.994 262.806 124.896C262.806 124.686 262.918 121.536 262.932 117.91C262.204 119.814 261.336 121.144 260.286 122.488C260.216 122.586 260.16 122.628 260.118 122.628C260.076 122.628 260.034 122.586 259.992 122.474C259.908 122.25 259.754 122.04 259.614 121.9C260.72 120.724 261.77 119.254 262.624 117.308H261.644C260.44 117.308 260.062 117.336 259.978 117.336C259.88 117.336 259.88 117.322 259.88 117.224V116.678C259.88 116.58 259.88 116.566 259.978 116.566C260.062 116.566 260.44 116.594 261.644 116.594H262.862V114.382C262.218 114.564 261.532 114.732 260.832 114.872C260.552 114.914 260.552 114.914 260.426 114.676C260.328 114.508 260.23 114.382 260.09 114.256C261.742 114.004 263.576 113.416 264.402 113.024C264.71 112.87 264.836 112.8 265.032 112.618C265.27 112.786 265.48 112.954 265.634 113.108C265.732 113.206 265.76 113.262 265.76 113.346C265.76 113.43 265.69 113.458 265.536 113.472C265.368 113.486 265.172 113.556 264.934 113.654C264.57 113.808 264.15 113.962 263.688 114.116V116.594H264.304C265.522 116.594 265.886 116.566 265.97 116.566C266.068 116.566 266.082 116.58 266.082 116.678ZM270.492 123.216V114.396C270.492 113.556 270.478 113.15 270.394 112.688C270.73 112.702 271.052 112.73 271.332 112.772C271.43 112.786 271.5 112.842 271.5 112.898C271.5 112.996 271.458 113.066 271.416 113.164C271.346 113.318 271.346 113.584 271.346 114.382V121.256C271.346 122.026 271.36 122.824 271.36 123.37C271.36 123.958 271.262 124.252 270.954 124.462C270.632 124.686 270.352 124.742 269.036 124.742C268.77 124.742 268.77 124.742 268.686 124.448C268.63 124.196 268.518 123.986 268.392 123.804C268.868 123.874 269.246 123.888 269.778 123.888C270.31 123.888 270.492 123.79 270.492 123.216ZM267.16 119.38V115.6C267.16 114.634 267.16 114.186 267.062 113.696C267.384 113.71 267.692 113.738 267.972 113.78C268.07 113.794 268.112 113.836 268.112 113.906C268.112 113.976 268.07 114.046 268.042 114.13C267.986 114.298 267.986 114.55 267.986 115.572V119.38C267.986 120.598 268.014 121.102 268.014 121.186C268.014 121.284 268 121.298 267.902 121.298H267.244C267.146 121.298 267.132 121.284 267.132 121.186C267.132 121.102 267.16 120.598 267.16 119.38ZM277.324 113.192H283.274C284.688 113.192 285.192 113.164 285.276 113.164C285.374 113.164 285.388 113.178 285.388 113.276C285.388 113.346 285.36 114.018 285.36 115.474V121.69C285.36 122.334 285.374 122.978 285.374 123.566C285.374 124 285.262 124.308 284.968 124.532C284.702 124.728 284.352 124.812 283.232 124.812C282.938 124.812 282.938 124.812 282.882 124.532C282.84 124.294 282.756 124.084 282.63 123.888C283.106 123.93 283.414 123.944 284.016 123.944C284.366 123.944 284.506 123.762 284.506 123.384V120.43H280.586V122.096C280.586 123.678 280.614 124.336 280.614 124.42C280.614 124.518 280.6 124.532 280.502 124.532H279.83C279.732 124.532 279.718 124.518 279.718 124.42C279.718 124.336 279.746 123.678 279.746 122.096V120.43H275.994C275.798 122.46 275.336 123.482 274.566 124.602C274.482 124.714 274.454 124.77 274.398 124.77C274.356 124.77 274.3 124.728 274.202 124.63C274.006 124.476 273.81 124.364 273.614 124.28C274.734 122.866 275.252 121.424 275.252 117.574V115.474C275.252 114.018 275.224 113.346 275.224 113.276C275.224 113.178 275.238 113.164 275.336 113.164C275.42 113.164 275.91 113.192 277.324 113.192ZM284.506 116.44V113.962H280.586V116.44H284.506ZM284.506 119.674V117.196H280.586V119.674H284.506ZM279.746 119.674V117.196H276.106V117.574C276.106 118.372 276.078 119.072 276.05 119.674H279.746ZM279.746 116.44V113.962H276.106V116.44H279.746ZM287.712 112.268L288.062 111.862C290.708 113.892 291.73 115.95 291.73 118.68C291.73 121.41 290.708 123.468 288.062 125.498L287.712 125.092C290.064 123.09 290.82 121.13 290.82 118.68C290.82 116.23 290.064 114.27 287.712 112.268Z" fill="#3F3F3F"/>
<path d="M174.522 78.16L173.042 75.44H165.562V71.04H170.642L163.482 57.84H171.242L178.282 72.36L185.362 57.84H193.082L185.922 71.04H191.042V75.44H183.562L182.082 78.16H191.042V82.52H181.842V91.72H174.722V82.52H165.562V78.16H174.522ZM207.762 55.48C217.562 55.48 220.042 65.04 220.042 73.08C220.042 81.12 217.562 90.68 207.762 90.68C197.962 90.68 195.442 81.12 195.442 73.08C195.442 65.04 197.962 55.48 207.762 55.48ZM207.762 61.56C205.762 61.56 204.602 62.68 203.882 64.44C202.802 67.12 202.722 70.2 202.722 73.08C202.722 75.92 202.802 79.04 203.922 81.72C204.602 83.44 205.762 84.56 207.762 84.56C209.722 84.56 210.922 83.44 211.602 81.68C212.682 79.08 212.802 75.88 212.802 73.08C212.802 70.2 212.682 67.12 211.602 64.44C210.882 62.68 209.722 61.56 207.762 61.56Z" fill="#D72B2B"/>
<rect x="36.082" y="1" width="278" height="43" rx="4" fill="white" stroke="#3F3F3F" stroke-width="2"/>
<path d="M51.3228 22.66C50.4628 23.06 49.5828 23.44 48.7028 23.78L47.0228 19.94C49.7628 19.22 52.9028 17.9 54.8828 15.82H58.9828C61.3428 17.86 63.7428 19.1 66.7428 19.94L65.0628 23.88C64.2228 23.54 63.4028 23.18 62.6028 22.76V23.88H58.7428V24.6H65.7428V28.14H61.2428L64.3428 29C64.1428 29.56 63.8028 30.4 63.5628 30.94H66.1628V34.5H47.6028V30.94H50.2428C50.0628 30.32 49.7628 29.58 49.4828 28.98L52.5228 28.14H48.1228V24.6H55.0828V23.88H51.3228V22.66ZM54.8828 20.52H59.0628C58.2828 19.92 57.6228 19.32 56.9428 18.64C56.2628 19.38 55.6828 19.92 54.8828 20.52ZM54.1428 30.94H55.0828V28.14H53.2428C53.6028 28.92 53.9428 30.1 54.1428 30.94ZM60.5428 28.14H58.7428V30.94H59.7428C60.0828 30.02 60.3228 29.1 60.5428 28.14ZM70.7228 19.6C69.7428 19.64 68.7828 19.66 67.8228 19.68L67.4028 16.28C68.0028 16.3 68.6228 16.3 69.2428 16.3C71.6428 16.3 74.1228 16.18 76.4028 15.62L77.3628 18.96C76.2828 19.16 75.3228 19.28 74.2428 19.38V20.8H77.1028V24.2H74.5628C74.8828 24.86 75.2228 25.54 75.6428 26.16C76.2628 27.08 76.6028 27.58 77.4028 28.38L75.5228 31.5C74.9628 30.68 74.6428 30.12 74.2428 29.24V34.96H70.7228V29.32C69.9028 30.8 69.2428 31.66 68.1628 32.94L67.0028 28.18C68.3028 27.22 69.6428 25.6 70.4228 24.2H67.3228V20.8H70.7228V19.6ZM85.8028 15.76V32.36C85.8028 32.98 85.7828 33.78 85.3828 34.28C84.9628 34.82 84.2028 34.96 83.5628 34.96H79.0828L78.4428 31.02H81.5828C81.9428 31.02 82.1628 30.88 82.1628 30.5V15.76H85.8028ZM81.3628 17.3V30.12H77.6428V17.3H81.3628ZM99.8028 23.38C101.363 22.7 102.963 22.1 104.563 21.5L105.943 24.9C104.143 25.5 102.343 26.1 100.583 26.82C100.603 27.98 100.623 29.16 100.623 30.34H96.9028C96.9228 29.72 96.9628 29.1 96.9628 28.5C96.0628 28.96 95.2828 29.46 95.2828 30.2C95.2828 31.18 96.7228 31.22 97.5028 31.22C99.8828 31.22 101.883 30.94 104.443 30.52L104.083 34.38C102.463 34.58 100.803 34.72 99.1628 34.72C96.8028 34.72 91.5428 34.62 91.5428 30.4C91.5428 27.68 94.2828 26 96.4228 24.92C96.1628 24.72 95.8228 24.64 95.5028 24.64C93.2828 24.64 91.7828 27.22 90.6828 28.82L87.6828 26.66C89.0628 25.06 90.2828 23.32 91.4028 21.52C90.5228 21.54 89.6428 21.54 88.7628 21.54L88.8428 17.86C90.0428 17.94 91.2628 17.98 92.4628 17.98C92.7828 17.98 93.0828 17.98 93.4028 17.98C93.8028 17.2 94.1828 16.44 94.5628 15.66L98.4028 16.52L97.6628 17.8C99.5628 17.64 101.463 17.38 103.343 17.04L103.243 20.66C100.683 21 98.1228 21.22 95.5628 21.38L95.1028 22.16C95.6428 22.02 96.1828 21.94 96.7428 21.94C97.9828 21.94 99.0828 22.28 99.8028 23.38ZM119.503 25.14H116.683V27.18C117.483 27.12 118.303 27.02 119.103 26.88L119.303 30.1C117.343 30.44 114.583 30.72 112.603 30.84L112.243 27.5C112.563 27.5 112.883 27.5 113.203 27.48V16.6C113.583 16.62 113.963 16.62 114.343 16.62C117.003 16.62 121.943 16.28 124.503 15.68L126.243 19.04C125.103 19.32 123.943 19.46 122.783 19.54C122.783 20.22 122.823 20.9 122.863 21.58H126.423V25.14H123.043C123.123 26.6 123.163 27.5 123.543 28.96C123.683 29.48 123.823 29.92 124.123 29.92C124.383 29.92 124.703 29.22 124.803 29C125.083 28.4 125.343 27.78 125.583 27.16L126.783 31.7C126.503 32.42 126.203 32.96 125.723 33.58C125.163 34.32 124.503 35.02 123.503 35.02C121.603 35.02 120.883 32.9 120.443 31.4C119.943 29.7 119.603 26.92 119.503 25.14ZM108.403 27C108.163 27.26 107.943 27.5 107.683 27.74L107.063 21.94C108.343 20.22 109.143 17.92 109.343 15.78L112.883 15.98C112.643 17.58 112.343 19.14 111.863 20.68V35H108.403V27ZM119.303 21.58C119.283 20.94 119.283 20.32 119.283 19.7C118.403 19.74 117.463 19.78 116.683 19.78V21.58H119.303ZM119.883 34.78H112.683V31.42H119.883V34.78ZM141.043 15.56L143.983 18.72C141.103 20.82 138.043 22.68 134.923 24.42C134.423 24.66 133.983 24.94 133.983 25.3C133.983 25.6 134.283 25.76 134.723 25.96C138.183 27.68 141.583 29.56 144.663 31.9L141.683 35.26C138.603 32.88 135.303 30.76 131.883 28.88C130.263 28.04 128.863 27.3 128.863 25.4C128.863 24.36 129.403 23.46 130.183 22.8C130.923 22.2 132.103 21.56 132.943 21.04C135.703 19.32 138.463 17.56 141.043 15.56ZM158.683 35.02V19.12C158.103 19.28 157.783 19.36 157.203 19.46V28.38C157.583 28.28 157.943 28.18 158.303 28.08V31.5C157.143 31.88 154.483 32.52 153.243 32.76L152.903 29.16C153.223 29.14 153.543 29.1 153.843 29.04V16.82C155.023 16.62 156.883 16.12 158.003 15.7L158.683 16.88V16.72H166.023V30.4C166.023 31.78 165.643 32.56 164.143 32.56H162.723L161.943 28.86V35.02H158.683ZM152.343 24.22C152.703 24.12 153.043 24.02 153.403 23.92V27.52C153.023 27.68 152.743 27.8 152.343 27.92V33.08C152.343 34.62 151.703 35.02 150.223 35.02H147.983L147.443 31.12H148.143C148.803 31.12 148.963 31.1 148.963 30.54V28.9C148.523 29.04 148.083 29.16 147.643 29.28L147.343 25.48C147.883 25.36 148.423 25.22 148.963 25.1V22.42H147.443V18.88H148.963V15.86H152.343V18.88H153.403V22.42H152.343V24.22ZM161.943 20.22V28.78H162.343C162.703 28.78 162.723 28.72 162.723 28.06V20.22H161.943ZM181.163 19.56C181.503 19.5 181.823 19.42 182.163 19.34L183.703 21.82C181.843 23.1 180.083 24.54 178.383 26.04C179.863 26.28 180.403 27.06 180.403 28.5C180.403 28.8 180.403 29.1 180.403 29.4C180.403 30.74 181.003 30.82 182.163 30.82C183.523 30.82 184.903 30.64 186.243 30.44L186.063 34.46C184.603 34.6 183.143 34.68 181.683 34.68C179.223 34.68 176.543 34.38 176.543 31.24C176.543 30.94 176.563 30.66 176.583 30.36C176.603 30.16 176.623 29.94 176.623 29.72C176.623 29.38 176.483 29.02 176.103 29.02C175.723 29.02 175.443 29.26 175.203 29.5C174.463 30.18 173.723 31.1 173.063 31.86C172.143 32.92 171.263 34 170.403 35.1L167.083 32.26C169.963 29.3 172.883 26.4 175.943 23.66C173.763 23.98 171.583 24.2 169.383 24.38L169.063 20.5C172.643 20.38 176.203 20.2 179.743 19.78C178.463 19.7 177.163 19.62 175.883 19.5C174.443 19.34 173.003 19.12 171.583 18.86L172.483 15.5C175.443 16.08 178.403 16.38 181.423 16.44L181.163 19.56ZM188.721 16.72C189.361 16.76 190.021 16.78 190.681 16.78C193.761 16.78 196.861 16.62 199.901 16.14L201.581 19.12C199.981 20.12 198.401 21.18 196.861 22.26C197.281 22.2 197.721 22.16 198.161 22.16C201.481 22.16 204.141 24.52 204.141 27.9C204.141 30.28 202.921 32.44 200.861 33.64C199.281 34.54 197.501 34.9 195.701 34.9C194.161 34.9 192.541 34.62 191.301 33.66C190.441 32.98 189.941 31.92 189.941 30.84C189.941 28.48 192.341 27.14 194.461 27.14C196.541 27.14 198.341 28.16 199.541 29.82C199.881 29.32 200.081 28.74 200.081 28.14C200.081 26.16 198.221 25.28 196.481 25.28C193.301 25.28 190.461 27.88 188.301 29.94L185.861 26.78L194.241 20.2C192.501 20.42 190.781 20.58 189.041 20.68L188.721 16.72ZM196.641 31.58C196.081 30.76 195.241 30.08 194.201 30.08C193.801 30.08 193.281 30.26 193.281 30.76C193.281 31.6 194.801 31.7 195.401 31.7C195.821 31.7 196.221 31.64 196.641 31.58Z" fill="#D72B2B"/>
<path d="M214.121 26.38C213.661 28.48 212.881 30.16 211.481 31.8C210.361 33.12 209.141 34.14 207.661 35.06L205.341 31.24C209.801 28.88 210.541 26.22 210.541 21.44H205.741V17.7H213.281V15.82H217.121V17.7H224.821V21.44H214.561C214.561 21.86 214.561 22.3 214.541 22.72H223.121C223.061 24.92 222.881 31.18 222.101 32.96C221.421 34.5 220.201 34.92 218.641 34.92H214.561L213.761 31.08H216.741C217.601 31.08 218.281 31.04 218.641 29.9C218.861 29.2 218.981 28.12 218.981 26.38H214.121ZM227.741 15.76C228.801 16.04 230.661 17.02 231.481 17.74L229.281 20.76C228.261 19.9 226.961 19.06 225.721 18.54L227.741 15.76ZM232.421 31.04C232.961 29.68 233.441 28.3 233.881 26.9H231.101V23.44H236.081V21.5H231.821V17.94H236.081V15.92H239.801V17.94H244.101V21.5H239.801V23.44H244.721V26.9H241.221C242.741 28.92 244.021 31.26 244.881 33.64L241.361 35.28C241.221 34.82 241.061 34.38 240.881 33.96C237.601 34.36 234.301 34.6 231.001 34.7L230.581 31.12C231.201 31.08 231.801 31.06 232.421 31.04ZM227.461 20.48C228.701 21 230.021 21.82 231.001 22.72L228.861 25.72C227.841 24.8 226.701 23.96 225.461 23.36L227.461 20.48ZM231.821 28.14C231.201 29.96 229.021 33.54 227.741 35L225.401 31.62C226.541 30.32 228.201 27.66 229.001 26.08L231.821 28.14ZM236.401 30.9C237.421 30.86 238.441 30.78 239.461 30.7C239.061 29.9 238.641 29.12 238.141 28.38L241.201 26.9H237.921C237.701 27.52 236.661 30.24 236.401 30.9ZM257.361 22.08C259.701 21.76 262.041 21.46 264.381 21.14L264.681 24.82C263.021 24.92 261.321 25.1 259.701 25.6C258.241 26.08 255.681 27.34 255.681 29.14C255.681 30.76 258.581 30.8 259.721 30.8C260.221 30.8 260.701 30.76 261.181 30.72L260.241 34.78C258.361 34.76 256.101 34.62 254.381 33.82C252.701 33.02 251.461 31.6 251.461 29.66C251.461 28.02 252.241 26.84 253.481 25.84C251.081 26.36 248.701 26.9 246.321 27.48L245.841 23.64C247.481 23.42 249.101 23.2 250.721 22.98L254.801 20.1C253.021 20.38 251.221 20.54 249.421 20.64L248.821 16.74C249.841 16.78 250.881 16.8 251.921 16.8C254.821 16.8 257.721 16.64 260.601 16.24L262.041 18.86L257.361 22.08ZM275.161 31.28C278.141 30.46 280.481 28.7 280.481 25.36C280.481 23.16 279.501 21.14 277.301 20.44C276.781 24 275.861 28.26 273.921 31.32C273.181 32.5 272.141 33.5 270.661 33.5C269.301 33.5 268.201 32.62 267.421 31.58C266.301 30.06 265.841 28.18 265.841 26.32C265.841 20.62 270.021 16.66 275.661 16.66C280.881 16.66 284.701 20.02 284.701 25.36C284.701 30.14 281.741 33.44 277.301 34.76L275.161 31.28ZM273.241 20.68C270.941 21.66 269.801 24.06 269.801 26.48C269.801 26.92 269.921 29.02 270.501 29.02C270.901 29.02 271.321 27.96 271.581 27.22C272.361 25.12 272.881 22.88 273.241 20.68Z" fill="#3F3F3F"/>
<mask id="path-5-outside-1_665_11472" maskUnits="userSpaceOnUse" x="286.582" y="8" width="14" height="26" fill="black">
<rect fill="white" x="286.582" y="8" width="14" height="26"/>
<path d="M288.835 14.325C291.56 14.325 293.685 14.05 294.035 10.825H297.885V32H293.41V17.5C291.935 17.95 290.36 18 288.835 18V14.325Z"/>
</mask>
<path d="M288.835 14.325C291.56 14.325 293.685 14.05 294.035 10.825H297.885V32H293.41V17.5C291.935 17.95 290.36 18 288.835 18V14.325Z" fill="#FFEA05"/>
<path d="M288.835 14.325V12.325C287.73 12.325 286.835 13.2204 286.835 14.325H288.835ZM294.035 10.825V8.825C293.014 8.825 292.157 9.59412 292.046 10.6092L294.035 10.825ZM297.885 10.825H299.885C299.885 9.72043 298.989 8.825 297.885 8.825V10.825ZM297.885 32V34C298.989 34 299.885 33.1046 299.885 32H297.885ZM293.41 32H291.41C291.41 33.1046 292.305 34 293.41 34V32ZM293.41 17.5H295.41C295.41 16.8661 295.109 16.2698 294.6 15.8926C294.09 15.5155 293.432 15.4021 292.826 15.587L293.41 17.5ZM288.835 18H286.835C286.835 19.1046 287.73 20 288.835 20V18ZM288.835 16.325C290.15 16.325 291.837 16.2861 293.242 15.5622C294.897 14.7093 295.795 13.1442 296.023 11.0408L292.046 10.6092C291.981 11.2095 291.848 11.5296 291.748 11.6944C291.661 11.838 291.562 11.928 291.409 12.0066C290.983 12.2264 290.244 12.325 288.835 12.325V16.325ZM294.035 12.825H297.885V8.825H294.035V12.825ZM295.885 10.825V32H299.885V10.825H295.885ZM297.885 30H293.41V34H297.885V30ZM295.41 32V17.5H291.41V32H295.41ZM292.826 15.587C291.662 15.9422 290.352 16 288.835 16V20C290.368 20 292.207 19.9578 293.993 19.413L292.826 15.587ZM290.835 18V14.325H286.835V18H290.835Z" fill="#3F3F3F" mask="url(#path-5-outside-1_665_11472)"/>
</svg>
