<svg width="282" height="63" viewBox="0 0 282 63" fill="none" xmlns="http://www.w3.org/2000/svg">
<path d="M7.03384 4.63955C8.64384 4.07955 10.2958 3.63155 11.9478 3.16955L12.6478 5.43755C11.6118 5.67555 10.5898 5.92755 9.56784 6.20755C8.40584 6.52955 7.24384 6.86555 6.13784 7.32755C5.28384 7.69155 3.86984 8.37755 3.86984 9.46955C3.86984 10.7995 6.23584 10.8415 7.17384 10.8415C9.00784 10.8415 10.8418 10.6315 12.6478 10.3235L12.8158 12.7175C11.0798 12.9135 9.34384 13.0675 7.59384 13.0675C6.27784 13.0675 4.82184 13.0255 3.58984 12.5495C2.31584 12.0455 1.46184 11.0935 1.46184 9.66555C1.46184 7.67755 3.18384 6.34755 4.80784 5.54955C4.65384 5.05955 4.54184 4.55555 4.42984 4.05155L3.75784 0.747546L6.15184 0.271547L6.75384 3.51955C6.82384 3.89755 6.93584 4.27555 7.03384 4.63955ZM15.5318 0.817546L17.9258 1.08355C17.3378 3.49155 17.0018 5.96955 17.0018 8.46155C17.0018 8.90955 17.0298 9.37155 17.0578 9.81955C17.2258 9.42755 17.3798 9.03555 17.5338 8.65755L18.4158 9.66555C17.9818 10.7295 17.6038 11.8635 17.4918 13.0115L15.5738 13.2075C14.9438 11.5135 14.7758 9.67955 14.7758 7.87355C14.7758 5.50755 15.0838 3.14155 15.5318 0.817546ZM19.4658 1.93755C20.3618 2.02155 21.2578 2.06355 22.1538 2.06355C23.5398 2.06355 24.9258 1.96555 26.2978 1.75555L26.2558 4.05155C24.8558 4.20555 23.4558 4.30355 22.0418 4.30355C21.1598 4.30355 20.2778 4.26155 19.4098 4.17755L19.4658 1.93755ZM21.1598 8.12555C20.9918 8.48955 20.8378 8.88155 20.8378 9.28755C20.8378 10.0995 22.2938 10.1415 23.0498 10.1415C24.4918 10.1415 25.5418 10.0295 26.9138 9.79155L26.8858 12.1155C25.7098 12.2695 24.5338 12.3815 23.3438 12.3815C21.3838 12.3815 18.7518 12.1715 18.7518 9.59555C18.7518 8.95155 18.9478 8.34955 19.2278 7.77555L21.1598 8.12555ZM31.2258 3.50555C31.4358 2.44155 31.6178 1.36355 31.7578 0.285547L34.0678 0.691546C33.9278 1.57355 33.7598 2.44155 33.5638 3.30955C34.3198 3.30955 35.1038 3.36555 35.7758 3.72955C37.2038 4.51355 37.3438 6.08155 37.3438 7.53755C37.3438 8.82555 37.2038 10.8275 36.5178 11.9335C35.9718 12.7875 34.9498 13.1095 33.9838 13.1095C33.3958 13.1095 32.8078 13.0395 32.2198 12.9415L32.2338 10.7295C32.7098 10.8415 33.1998 10.9115 33.6898 10.9115C34.5018 10.9115 34.7398 10.4775 34.8798 9.74955C35.0198 8.93755 35.0758 8.09755 35.0758 7.27155C35.0758 6.24955 34.9778 5.43755 33.7318 5.43755C33.5078 5.43755 33.2838 5.45155 33.0458 5.46555C32.6818 6.90755 32.2058 8.32155 31.6458 9.69355C31.1278 10.9675 30.5118 12.1995 29.7978 13.3615L27.8238 12.0735C29.0838 10.0995 30.0218 7.95755 30.6798 5.71755C29.8118 5.82955 28.9578 5.95555 28.1038 6.09555L27.8518 3.88355L31.2258 3.50555ZM38.0578 1.81155C39.8218 3.54755 40.7318 5.88555 40.8998 8.33555L38.7158 9.03555C38.5898 6.78155 37.9318 4.65355 36.3498 3.00155L38.0578 1.81155ZM51.0078 0.117546L52.7018 1.95155C50.5318 3.47755 48.0398 4.96155 45.7858 6.27755C45.3658 6.51555 45.2258 6.66955 45.2258 6.82355C45.2258 6.93555 45.2958 7.01955 45.3798 7.07555C45.7298 7.28555 46.1218 7.46755 46.4858 7.64955C48.8098 8.79755 51.0498 10.1415 53.1218 11.6955L51.4418 13.6135C50.4338 12.8435 49.4118 12.1015 48.3478 11.4015C46.9198 10.4775 45.4358 9.63755 43.9378 8.83955C43.1398 8.40555 42.3698 7.87355 42.3698 6.86555C42.3698 5.60555 43.7138 4.94755 44.6518 4.37355C46.8218 3.05755 48.9778 1.67155 51.0078 0.117546ZM55.7118 7.46755C55.5018 7.71955 55.2918 7.95755 55.0678 8.19555L54.5078 5.12955C55.6558 3.75755 56.2158 1.95155 56.4398 0.201546L58.4838 0.341547C58.3018 1.50355 58.0638 2.58155 57.6998 3.68755V13.5295H55.7118V7.46755ZM63.2298 6.45955H60.8498V8.64355C61.5778 8.55955 62.3058 8.44755 63.0198 8.30755L63.1458 10.1415C61.7598 10.4635 59.7438 10.6595 58.3158 10.7575L58.0778 8.85355C58.3438 8.83955 58.5958 8.82555 58.8618 8.81155V0.873546H59.5198C61.6618 0.873546 64.8118 0.691546 66.8838 0.215547L67.7938 2.10555C66.8558 2.32955 65.9878 2.42755 65.0358 2.51155C65.0498 3.15555 65.0778 3.79955 65.1198 4.45755H68.0458V6.45955H65.2598C65.3858 7.64955 65.4838 8.68555 65.8478 9.83355C65.9738 10.2115 66.1418 10.7295 66.3938 10.7295C66.5478 10.7295 66.6598 10.4215 66.7718 10.0995C66.9118 9.69355 67.0378 9.27355 67.1498 8.85355L68.1998 10.9395C68.0598 11.5135 67.9058 11.9755 67.6118 12.4935C67.2898 13.0395 66.9118 13.5295 66.2118 13.5295C65.0078 13.5295 64.4758 12.2555 64.1398 11.2895C63.6358 9.81955 63.3838 8.01355 63.2298 6.45955ZM63.0758 4.45755C63.0618 3.84155 63.0338 3.22555 63.0198 2.60955C62.2918 2.63755 61.5778 2.66555 60.8498 2.67955V4.45755H63.0758ZM63.8038 13.2495H58.3438V11.3175H63.8038V13.2495ZM70.9858 4.82155C70.3978 5.11555 69.7958 5.39555 69.1938 5.64755L68.1718 3.54755C70.1738 2.93155 72.5118 1.78355 73.9118 0.215547H76.0958C77.7758 1.76955 79.6518 2.81955 81.8078 3.57555L80.7998 5.73155C80.1978 5.46555 79.6098 5.18555 79.0358 4.86355V5.73155H76.0538V6.68355H81.0938V8.65755H76.0538V11.2335H76.9218C77.2438 10.4075 77.5098 9.58155 77.7338 8.72755L79.8618 9.30155C79.6238 9.95955 79.3578 10.6035 79.0918 11.2335H81.4018V13.2215H68.5498V11.2335H70.8038C70.6498 10.6735 70.3838 10.0155 70.0758 9.34355L72.1338 8.75555C72.5118 9.53955 72.7918 10.3795 73.0158 11.2335H73.9258V8.65755H68.8858V6.68355H73.9258V5.73155H70.9858V4.82155ZM72.7078 3.82755H77.3138C76.4598 3.23955 75.7318 2.62355 74.9898 1.89555C74.2758 2.65155 73.5758 3.26755 72.7078 3.82755ZM84.4958 2.55355C83.7398 2.59555 82.9698 2.63755 82.1998 2.65155L81.9478 0.719546C84.0758 0.719546 86.1618 0.551546 88.2618 0.103546L88.8638 1.99355C88.0798 2.18955 87.3518 2.27355 86.5538 2.37155V3.79955H88.7238V5.75955H86.6798C87.1978 6.75355 87.9678 7.87355 88.7658 8.65755L87.7018 10.4495C87.2538 9.84755 86.8758 9.21755 86.5538 8.54555V13.5155H84.4958V8.71355C83.9078 9.91755 83.3338 10.7155 82.4378 11.7095L81.6958 9.11955C82.7458 8.25155 83.6838 6.96355 84.2998 5.75955H81.8778V3.79955H84.4958V2.55355ZM94.7298 0.187546V11.8915C94.7298 12.3115 94.6878 12.7595 94.3798 13.0815C94.0858 13.3615 93.6798 13.5155 93.2738 13.5155H90.4318L90.0398 11.2755H92.1958C92.5178 11.2755 92.6158 11.2195 92.6158 10.9115V0.187546H94.7298ZM91.3978 1.25155V10.3515H89.3118V1.25155H91.3978ZM105.384 5.43755L106.266 4.82155C106.728 5.31155 107.106 5.84355 107.442 6.41755L106.518 7.03355C106.196 6.45955 105.818 5.94155 105.384 5.43755ZM106.798 4.49955L107.68 3.88355C108.128 4.37355 108.506 4.90555 108.842 5.47955L107.932 6.09555C107.61 5.52155 107.232 4.98955 106.798 4.49955ZM95.7238 1.88155C96.5778 1.86755 97.4458 1.85355 98.2998 1.79755L108.352 1.08355L108.534 3.36555C106.91 3.40755 105.482 3.64555 104.096 4.52755C102.878 5.28355 101.828 6.50155 101.828 8.01355C101.828 10.2255 104.432 10.9255 106.21 11.0795L105.118 13.3335C103.914 13.1795 102.738 12.8015 101.688 12.1855C100.19 11.3035 99.3918 9.84755 99.3918 8.12555C99.3918 6.13755 100.47 4.59755 102.052 3.49155L95.9058 4.24755L95.7238 1.88155ZM110.06 7.42555C109.822 7.70555 109.668 7.88755 109.416 8.13955L108.856 5.10155C109.962 3.75755 110.494 1.89555 110.69 0.187546L112.762 0.355546C112.608 1.44755 112.398 2.45555 112.062 3.50555V13.4875H110.06V7.42555ZM114.372 0.257546H116.402V1.50355H118.39V0.257546H120.462V1.50355H121.96V3.32355H120.462V4.41555H122.282V6.23555H112.51V4.41555H114.372V3.32355H112.846V1.50355H114.372V0.257546ZM118.39 3.32355H116.402V4.41555H118.39V3.32355ZM121.4 6.89355V13.4875H119.342V13.0255H115.436V13.4875H113.378V6.89355H121.4ZM119.342 8.37755H115.436V9.16155H119.342V8.37755ZM119.342 10.5475H115.436V11.3455H119.342V10.5475ZM124.844 0.579546L127.154 0.831546C126.79 2.65155 126.608 4.48555 126.58 6.33355C126.888 5.74555 127.182 5.14355 127.49 4.55555L128.68 5.64755C127.924 7.00555 127.252 8.43355 126.874 9.94555L125.012 10.1415C124.522 8.61555 124.368 7.00555 124.368 5.40955C124.368 3.78555 124.536 2.17555 124.844 0.579546ZM131.564 0.579546H133.958C134.098 2.21755 134.224 3.86955 134.224 5.50755C134.224 9.39955 133.188 11.8355 129.576 13.6135L127.644 11.9755C128.834 11.4155 130.01 10.7015 130.794 9.63755C131.718 8.36355 131.83 6.79555 131.83 5.28355C131.83 3.71555 131.704 2.14755 131.564 0.579546ZM139.726 2.41355C139.894 1.67155 140.02 0.915546 140.146 0.159546L142.47 0.397546C142.358 1.01355 142.204 1.61555 142.078 2.23155C142.974 2.11955 143.856 1.95155 144.724 1.75555L144.808 3.93955C143.73 4.13555 142.652 4.31755 141.56 4.42955C140.832 7.38355 139.908 10.3235 138.662 13.1235L136.422 12.2415C137.052 10.9535 137.626 9.62355 138.102 8.26555C138.522 7.06155 138.872 5.84355 139.208 4.61155C138.536 4.65355 137.85 4.65355 137.178 4.65355C137.066 4.65355 136.968 4.65355 136.87 4.65355L136.842 2.41355C137.332 2.42755 137.808 2.45555 138.284 2.45555C138.76 2.45555 139.25 2.44155 139.726 2.41355ZM142.078 8.36355L143.884 9.10555C143.59 9.39955 143.17 9.80555 143.17 10.2675C143.17 10.9675 144.822 10.9955 145.466 10.9955C146.838 10.9955 147.916 10.8695 149.022 10.7015V12.9555C147.93 13.0675 146.838 13.1375 145.732 13.1375C144.64 13.1375 143.478 13.0955 142.47 12.6755C141.63 12.3255 140.972 11.5695 140.972 10.6315C140.972 9.74955 141.476 8.97955 142.078 8.36355ZM142.904 4.70955C143.94 4.55555 144.99 4.47155 146.054 4.47155C146.978 4.47155 147.916 4.52755 148.84 4.62555L148.63 6.75355C147.678 6.65555 146.726 6.58555 145.76 6.58555C144.724 6.58555 143.688 6.64155 142.652 6.78155L142.904 4.70955ZM150.744 1.26555L153.138 1.64355C152.886 2.95955 152.732 4.31755 152.732 5.66155C152.732 6.92155 152.816 8.55955 153.432 9.67955C153.558 9.88955 153.726 10.1135 153.992 10.1135C154.356 10.1135 154.594 9.56755 154.762 9.17555C155.028 8.61555 155.224 8.01355 155.392 7.41155L157.254 8.71355C156.75 10.2395 155.784 12.8435 153.838 12.8435C152.648 12.8435 151.822 11.8215 151.36 10.8415C150.548 9.16155 150.31 7.27155 150.31 5.42355C150.31 4.02355 150.464 2.62355 150.744 1.26555ZM160.32 2.09155C162.336 4.27555 163.078 7.03355 163.078 9.95955L160.642 10.6455C160.642 10.4915 160.656 10.3375 160.656 10.1835C160.656 7.77555 160.04 5.10155 158.416 3.25355L160.32 2.09155ZM166.718 2.38555C166.956 1.64355 167.18 0.901546 167.376 0.145547L169.714 0.607547C169.546 1.13955 169.364 1.65755 169.182 2.18955C169.77 2.11955 170.344 2.02155 170.918 1.90955L170.806 4.10755C170.008 4.23355 169.21 4.33155 168.412 4.41555C167.572 6.69755 166.634 8.95155 165.612 11.1635L163.428 10.1835C164.394 8.37755 165.262 6.50155 165.962 4.56955C165.332 4.59755 164.702 4.59755 164.072 4.59755L164.002 2.35755C164.548 2.38555 165.094 2.39955 165.654 2.39955C166.004 2.39955 166.368 2.39955 166.718 2.38555ZM172.052 2.28755C173.592 2.63755 175.076 3.11355 176.518 3.72955L175.776 5.82955C175.356 5.60555 174.88 5.35355 174.376 5.35355C173.55 5.35355 173.158 6.01155 173.158 6.76755C173.158 7.36955 173.256 7.98555 173.354 8.57355C174.53 9.03555 175.51 9.55355 176.56 10.2675L175.482 12.2415C174.866 11.7935 174.222 11.3875 173.55 11.0095C173.48 12.7035 171.926 13.3895 170.428 13.3895C168.804 13.3895 166.914 12.6615 166.914 10.7575C166.914 10.0015 167.25 9.27355 167.824 8.78355C168.538 8.18155 169.504 8.01355 170.4 8.01355C170.624 8.01355 170.848 8.02755 171.072 8.05555C171.016 7.60755 170.974 7.15955 170.974 6.71155C170.974 5.61955 171.38 4.97555 172.332 4.47155C171.954 4.37355 171.562 4.28955 171.156 4.21955L172.052 2.28755ZM171.296 10.0995C170.946 10.0155 170.596 9.95955 170.246 9.95955C169.77 9.95955 168.93 10.0435 168.93 10.6875C168.93 11.3035 169.756 11.4575 170.232 11.4575C170.82 11.4575 171.338 11.2755 171.338 10.5895C171.338 10.4355 171.324 10.2675 171.296 10.0995ZM180.956 0.313546C183.042 0.537547 185.086 0.971546 187.074 1.62955L186.29 3.70155C184.316 2.97355 182.286 2.52555 180.2 2.28755L180.956 0.313546ZM179.234 2.65155L181.502 3.14155C181.222 4.17755 180.984 5.21355 180.76 6.26355C182.048 5.60555 183.476 5.18555 184.918 5.18555C187.2 5.18555 189.37 6.30555 189.37 8.85355C189.37 10.6875 188.208 12.0735 186.528 12.6755C185.212 13.1515 183.756 13.2635 182.356 13.2635C181.53 13.2635 180.718 13.2075 179.906 13.0955L179.458 10.7575C180.494 10.9535 181.53 11.0655 182.58 11.0655C184.036 11.0655 187.004 10.8415 187.004 8.82555C187.004 7.63555 185.898 7.27155 184.89 7.27155C183.028 7.27155 181.292 8.08355 179.934 9.31555L178.072 8.76955C178.394 6.71155 178.772 4.68155 179.234 2.65155Z" fill="white"/>
<path d="M9.16308 33.5421V38.3521H4.82108V57.5401H0.0110795V33.5421H9.16308ZM7.81108 37.0001V34.8941H1.36308V56.1881H3.46908V37.0001H7.81108ZM17.1451 53.8221V47.5301H13.0631V44.2021H17.1451V42.7721H14.8831V41.4981C14.4151 41.8621 13.9471 42.2001 13.4791 42.5641L12.4911 38.5861C14.5711 37.2341 16.0011 35.7261 17.2231 33.5681H20.8111C21.9551 35.4661 22.9171 36.5061 24.7631 37.7801V34.1661H36.8011V46.4641H32.6411C32.7711 47.3741 32.9271 48.0501 33.2131 48.9081C34.0971 48.2581 34.8511 47.5821 35.5791 46.7501L37.7631 49.6881C36.7491 50.6501 35.9171 51.2221 34.7471 51.9501C35.7091 53.2761 36.6451 54.1341 37.9451 55.0961L35.5011 58.3721C33.6551 56.9941 32.3811 55.5121 31.3411 53.4581V56.5781C29.1831 57.2021 25.6211 57.8001 23.3591 58.1121L23.1251 56.4221C19.8751 57.0981 16.5731 57.5661 13.2451 57.9301L12.7771 54.2381C14.2331 54.1601 15.7411 54.0301 17.1451 53.8221ZM17.0151 39.4441H21.0451C20.2391 38.5861 19.6671 37.7281 19.0431 36.7141C18.4191 37.8061 17.8471 38.5081 17.0151 39.4441ZM33.1091 37.4421H28.2731V39.0021H33.1091V37.4421ZM20.2911 53.4581C21.3831 53.3021 22.4491 53.1721 23.5151 52.9121L23.6711 54.1601C24.0351 54.1341 24.3991 54.0821 24.7631 54.0301V38.2221L22.8391 41.0561C22.7611 40.9781 22.6831 40.9261 22.5791 40.8481V42.7721H20.2911V44.2021H23.9051V47.5301H20.2911V53.4581ZM33.1091 41.7321H28.2731V43.3181H33.1091V41.7321ZM31.1071 52.9641C30.1191 50.8321 29.6251 48.8301 29.4431 46.4641H28.2731V53.5621C29.2091 53.3801 30.1711 53.1981 31.1071 52.9641ZM23.8271 48.5961C23.6711 49.8961 23.4371 51.2221 23.0471 52.4961L20.8631 52.0541C21.2271 50.8581 21.4351 49.3761 21.5391 48.2321L23.8271 48.5961ZM15.6371 48.2321C16.1051 49.7661 16.4171 51.0921 16.5471 52.7041L13.9211 53.4061C13.7911 51.8721 13.5311 50.3381 13.0891 48.8561L15.6371 48.2321ZM48.4491 34.4521C47.0191 37.2861 44.5751 40.1201 41.8971 41.8361L40.1291 37.9361C42.0791 36.7921 43.6911 35.1541 44.8871 33.2561L48.4491 34.4521ZM64.3091 34.4261V38.1181H50.2171V34.4261H64.3091ZM46.8371 44.8521V58.1641H42.8851V49.2201C42.3391 49.6881 41.7931 50.1301 41.2211 50.5721L40.1031 45.7101C42.4691 44.1501 44.8351 41.4721 46.2131 39.0021L49.4891 40.6141C48.7091 42.0961 47.8511 43.5261 46.8371 44.8521ZM65.2451 41.4981V45.2421H61.7091V55.2521C61.7091 56.0061 61.6571 56.8121 61.1111 57.3841C60.5911 57.9561 59.6551 58.1641 58.9271 58.1641H53.5191L52.8691 54.1861H56.8731C57.4711 54.1861 57.6791 54.0041 57.6791 53.3801V45.2421H49.2031V41.4981H65.2451ZM66.9871 58.1901V53.3801H71.3291V34.1921H76.1391V58.1901H66.9871ZM68.3391 54.7321V56.8381H74.7871V35.5441H72.6811V54.7321H68.3391ZM90.2351 42.4861C90.2951 41.2461 90.3351 39.9861 90.3351 38.7261H93.6151C93.6151 39.9861 93.6151 41.2461 93.5351 42.4861H100.755C100.635 45.3861 100.355 52.1061 99.2951 54.5861C98.4751 56.4861 96.9751 56.9461 95.0351 56.9461C94.4751 56.9461 93.8951 56.9261 93.3151 56.8861L92.6551 53.6061C93.4151 53.6861 94.1551 53.7661 94.9151 53.7661C96.1751 53.7661 96.4751 52.9261 96.6951 51.8461C97.1351 49.8261 97.2751 47.7061 97.3751 45.6461H93.2351C92.6151 50.7261 90.5351 54.4061 86.1951 57.2061L83.7751 54.8061C85.5751 53.6861 87.2351 52.2461 88.3351 50.4061C89.2151 48.9461 89.6751 47.3261 89.9551 45.6461H83.8551V42.4861H90.2351ZM104.815 46.5861H123.055V49.7661H104.815V46.5861ZM132.275 46.6861L133.335 44.6661C136.175 46.0061 138.855 47.6261 141.375 49.4861L139.455 52.3661C137.215 50.6061 134.815 49.0261 132.275 47.7661V57.4061H128.895V38.8861H132.275V46.6861ZM136.795 42.1061L137.935 41.0261C138.715 41.6661 139.395 42.3461 140.015 43.1261L138.795 44.2261C138.195 43.4461 137.535 42.7661 136.795 42.1061ZM138.695 40.4461L139.855 39.3461C140.615 39.9861 141.295 40.6861 141.915 41.4661L140.715 42.5661C140.095 41.7861 139.455 41.0861 138.695 40.4461ZM158.715 55.5861H149.155V56.7061H145.875V40.5261H161.995V56.7061H158.715V55.5861ZM158.715 52.4661V43.7061H149.155V52.4661H158.715ZM165.815 46.5861H184.055V49.7661H165.815V46.5861ZM188.715 39.4861C190.915 40.5661 192.975 41.9061 194.875 43.4861L192.735 46.1661C190.895 44.6061 188.915 43.2661 186.815 42.1261L188.715 39.4861ZM187.055 53.9861C194.015 52.6861 198.715 49.3661 202.315 43.2861L204.655 45.9861C200.955 51.9261 195.495 55.8461 188.595 57.2661L187.055 53.9861Z" fill="white"/>
<g filter="url(#filter0_d_665_12261)">
<path d="M263.633 39.6062H262.739C261.214 39.6062 260.846 39.1067 260.846 37.6084V34.9798L258.034 38.0027C256.641 36.3467 255.431 35.1901 253.539 34.086L256.772 30.4585C258.454 31.51 259.926 32.5877 261.293 34.0335H265V33.4026H260.846V30.9842H268.969V36.1889H264.842V36.8198C264.842 37.0301 264.842 37.3456 265.21 37.3456H265.473C265.893 37.3456 265.972 36.925 265.999 36.373L269.179 36.8198C269.074 37.9764 268.838 39.3959 267.444 39.5799H268.075V40.2633H271.072V39.5799C269.994 39.4748 269.731 38.8176 269.731 37.845V34.0335H274.121V33.4026H269.731V30.9842H278.064V36.1889H273.701V36.8198C273.701 37.1878 273.779 37.3456 274.305 37.3456H275.12C275.514 37.3456 275.619 36.9775 275.646 36.3467L278.984 36.8198C278.853 38.4233 278.353 39.6062 276.539 39.6062H275.462V40.2633H278.064V43.2863H275.462V43.9172H278.721V47.0978H275.146C276.25 47.571 277.538 47.8601 278.721 47.9916L277.144 50.5676H279.247L278.222 55.1678H266.156C264.921 55.1678 263.081 55.0363 261.898 54.7209C260.61 54.3792 259.506 53.6169 258.507 52.7231C257.219 53.9849 256.167 54.8786 254.564 55.7461L253.145 50.6728C254.012 50.3048 254.695 49.9631 255.484 49.4373V44.4166H253.539V39.8691H260.216V47.7287C260.689 49.0956 261.53 49.8316 262.897 50.2259L261.214 48.0179C262.424 47.8076 263.607 47.5184 264.737 47.0978H260.846V43.9172H263.633V43.2863H261.057V40.2633H263.633V39.6062ZM271.072 43.076H268.075V43.9172H271.072V43.076ZM265.946 50.5676H273.99C272.728 50.0156 271.598 49.3848 270.467 48.6487L272.176 47.0978H267.444L269.284 48.6487C268.233 49.3848 267.103 50.0156 265.946 50.5676Z" fill="url(#paint0_linear_665_12261)"/>
<path d="M214.055 26.1081C214.055 25.5861 213.997 25.0641 213.997 24.5421C213.997 12.4201 220.319 5.17009 232.731 5.17009C236.965 5.17009 241.315 6.21409 244.621 9.05609C248.043 11.9561 249.841 16.3641 249.841 20.8301C249.841 29.1241 244.273 33.1841 238.125 37.4761L232.209 41.6521C230.817 42.5801 229.541 43.6821 228.845 45.2481H250.131V55.7461H212.721C212.837 52.6721 213.011 49.5981 213.997 46.6981C215.795 41.5941 219.391 37.3021 223.799 34.2281L231.339 28.9501C234.181 26.9781 237.313 24.6001 237.313 20.8301C237.313 17.8141 235.457 15.7261 232.441 15.7261C226.699 15.7261 226.641 21.8741 226.641 26.1081H214.055Z" fill="url(#paint1_linear_665_12261)"/>
</g>
<line x1="0.0898438" y1="23.1855" x2="204.468" y2="23.1855" stroke="white" stroke-width="2"/>
<defs>
<filter id="filter0_d_665_12261" x="212.721" y="5.17017" width="68.5264" height="52.5759" filterUnits="userSpaceOnUse" color-interpolation-filters="sRGB">
<feFlood flood-opacity="0" result="BackgroundImageFix"/>
<feColorMatrix in="SourceAlpha" type="matrix" values="0 0 0 0 0 0 0 0 0 0 0 0 0 0 0 0 0 0 127 0" result="hardAlpha"/>
<feOffset dx="2" dy="2"/>
<feComposite in2="hardAlpha" operator="out"/>
<feColorMatrix type="matrix" values="0 0 0 0 0.758333 0 0 0 0 0.126389 0 0 0 0 0.126389 0 0 0 1 0"/>
<feBlend mode="normal" in2="BackgroundImageFix" result="effect1_dropShadow_665_12261"/>
<feBlend mode="normal" in="SourceGraphic" in2="effect1_dropShadow_665_12261" result="shape"/>
</filter>
<linearGradient id="paint0_linear_665_12261" x1="261.095" y1="30.4585" x2="279.097" y2="38.6931" gradientUnits="userSpaceOnUse">
<stop stop-color="white"/>
<stop offset="0.525" stop-color="#FAE60F"/>
<stop offset="0.585" stop-color="#E6D737"/>
<stop offset="1" stop-color="#FFEA05"/>
</linearGradient>
<linearGradient id="paint1_linear_665_12261" x1="223.512" y1="4.74609" x2="254.022" y2="14.0703" gradientUnits="userSpaceOnUse">
<stop stop-color="white"/>
<stop offset="0.525" stop-color="#FAE60F"/>
<stop offset="0.585" stop-color="#E6D737"/>
<stop offset="1" stop-color="#FFEA05"/>
</linearGradient>
</defs>
</svg>
