<svg width="331" height="92" viewBox="0 0 331 92" fill="none" xmlns="http://www.w3.org/2000/svg">
<rect x="1.08203" y="7" width="328" height="84" rx="3" stroke="#3F3F3F" stroke-width="2"/>
<path d="M4.08203 1H326.082C327.739 1 329.082 2.34314 329.082 4V31H1.08203V4C1.08203 2.34315 2.42518 1 4.08203 1Z" fill="#EBEBEB" stroke="#3F3F3F" stroke-width="2"/>
<path d="M31.11 54.768V55.212C31.11 55.296 31.098 55.308 31.014 55.308C30.954 55.308 30.546 55.284 29.334 55.284H27.654V55.332C27.654 56.016 27.678 56.28 27.678 56.352C27.678 56.424 27.666 56.448 27.582 56.448H27.078C27.006 56.448 26.982 56.424 26.982 56.352C26.982 56.28 27.006 56.016 27.006 55.332V55.284H25.518C24.318 55.284 23.91 55.308 23.838 55.308C23.754 55.308 23.742 55.296 23.742 55.212V54.768C23.742 54.684 23.754 54.672 23.838 54.672C23.91 54.672 24.318 54.696 25.518 54.696H27.006V53.94H26.142C25.038 53.94 24.654 53.964 24.582 53.964C24.51 53.964 24.498 53.952 24.498 53.868C24.498 53.796 24.51 53.556 24.51 52.848V51.66C24.51 50.952 24.498 50.712 24.498 50.652C24.498 50.568 24.51 50.556 24.582 50.556C24.654 50.556 25.038 50.58 26.142 50.58H27.006V49.848H26.154C25.206 49.848 24.846 49.872 24.786 49.872C24.702 49.872 24.69 49.86 24.69 49.776V49.356C24.69 49.272 24.702 49.26 24.786 49.26C24.846 49.26 25.206 49.284 26.154 49.284H27.006C27.006 48.996 26.982 48.732 26.934 48.48C27.21 48.492 27.39 48.504 27.642 48.54C27.714 48.552 27.774 48.576 27.774 48.624C27.774 48.684 27.762 48.72 27.726 48.792C27.678 48.888 27.654 48.996 27.654 49.236V49.284H28.698C29.646 49.284 30.006 49.26 30.066 49.26C30.15 49.26 30.162 49.272 30.162 49.356V49.776C30.162 49.86 30.15 49.872 30.066 49.872C30.006 49.872 29.646 49.848 28.698 49.848H27.654V50.58H28.662C29.766 50.58 30.15 50.556 30.222 50.556C30.306 50.556 30.318 50.568 30.318 50.652C30.318 50.712 30.294 50.952 30.294 51.66V52.848C30.294 53.556 30.318 53.796 30.318 53.868C30.318 53.952 30.306 53.964 30.222 53.964C30.15 53.964 29.766 53.94 28.662 53.94H27.654V54.696H29.334C30.546 54.696 30.954 54.672 31.014 54.672C31.098 54.672 31.11 54.684 31.11 54.768ZM29.646 53.412V52.476H27.654V53.412H29.646ZM27.006 53.412V52.476H25.146V53.412H27.006ZM29.646 51.96V51.108H27.654V51.96H29.646ZM27.006 51.96V51.108H25.146V51.96H27.006ZM23.214 52.944V55.452C23.454 56.04 23.73 56.352 24.282 56.604C24.714 56.796 25.626 56.916 26.766 56.916C28.302 56.916 29.958 56.844 31.734 56.676C31.614 56.82 31.542 56.988 31.518 57.168C31.47 57.408 31.47 57.408 31.23 57.432C29.682 57.528 28.242 57.576 27.03 57.576C25.662 57.576 24.594 57.444 24.018 57.18C23.466 56.928 23.154 56.568 22.878 56.004C22.506 56.4 22.086 56.772 21.606 57.156C21.462 57.264 21.378 57.348 21.342 57.408C21.294 57.48 21.246 57.516 21.198 57.516C21.15 57.516 21.102 57.48 21.054 57.408C20.934 57.216 20.826 57.036 20.718 56.796C21.03 56.64 21.21 56.532 21.462 56.352C21.81 56.1 22.17 55.788 22.518 55.404V52.404H21.666C21.054 52.404 20.898 52.428 20.85 52.428C20.754 52.428 20.742 52.416 20.742 52.32V51.804C20.742 51.72 20.754 51.708 20.85 51.708C20.898 51.708 21.054 51.732 21.666 51.732H22.29C22.914 51.732 23.082 51.708 23.142 51.708C23.226 51.708 23.238 51.72 23.238 51.804C23.238 51.864 23.214 52.176 23.214 52.944ZM31.146 48.156V48.516C31.146 49.44 31.17 49.548 31.17 49.62C31.17 49.692 31.158 49.704 31.074 49.704H30.558C30.474 49.704 30.462 49.692 30.462 49.62V48.216H24.39V49.62C24.39 49.692 24.378 49.704 24.294 49.704H23.79C23.706 49.704 23.694 49.692 23.694 49.62C23.694 49.548 23.718 49.44 23.718 48.516V48.216C23.718 47.904 23.694 47.76 23.694 47.688C23.694 47.604 23.706 47.592 23.79 47.592C23.85 47.592 24.282 47.616 25.494 47.616H29.37C30.582 47.616 31.014 47.592 31.074 47.592C31.158 47.592 31.17 47.604 31.17 47.688C31.17 47.76 31.146 47.904 31.146 48.156ZM21.318 47.772L21.594 47.58C21.726 47.496 21.738 47.484 21.81 47.556C22.302 48.036 22.746 48.588 23.178 49.236C23.226 49.308 23.214 49.332 23.094 49.428L22.806 49.656C22.65 49.764 22.638 49.764 22.578 49.668C22.17 48.996 21.714 48.408 21.246 47.94C21.174 47.88 21.186 47.868 21.318 47.772ZM37.986 48.492V48.948C37.986 49.032 37.974 49.044 37.89 49.044C37.818 49.044 37.494 49.02 36.438 49.02H35.754V50.052H36.198C37.11 50.052 37.422 50.028 37.482 50.028C37.566 50.028 37.578 50.04 37.578 50.124C37.578 50.184 37.554 50.472 37.554 51.252V52.932C37.554 53.712 37.578 54 37.578 54.06C37.578 54.144 37.566 54.156 37.482 54.156C37.422 54.156 37.11 54.132 36.198 54.132H35.754V55.164H36.342C37.398 55.164 37.734 55.14 37.794 55.14C37.878 55.14 37.89 55.152 37.89 55.236V55.692C37.89 55.776 37.878 55.788 37.794 55.788C37.734 55.788 37.398 55.764 36.342 55.764H35.754C35.754 57.084 35.778 57.684 35.778 57.744C35.778 57.828 35.766 57.84 35.682 57.84H35.166C35.082 57.84 35.07 57.828 35.07 57.744C35.07 57.684 35.094 57.084 35.094 55.764H34.266C33.222 55.764 32.874 55.788 32.814 55.788C32.73 55.788 32.718 55.776 32.718 55.692V55.236C32.718 55.152 32.73 55.14 32.814 55.14C32.874 55.14 33.222 55.164 34.266 55.164H35.094V54.132H34.686C33.774 54.132 33.462 54.156 33.402 54.156C33.318 54.156 33.306 54.144 33.306 54.06C33.306 53.988 33.33 53.712 33.33 52.932V51.252C33.33 50.472 33.306 50.184 33.306 50.124C33.306 50.04 33.318 50.028 33.402 50.028C33.462 50.028 33.774 50.052 34.686 50.052H35.094V49.02H34.374C33.342 49.02 32.994 49.044 32.934 49.044C32.85 49.044 32.838 49.032 32.838 48.948V48.492C32.838 48.408 32.85 48.396 32.934 48.396C32.994 48.396 33.342 48.42 34.374 48.42H35.094C35.094 47.748 35.07 47.424 35.01 47.04C35.298 47.052 35.514 47.064 35.742 47.1C35.838 47.112 35.886 47.148 35.886 47.208C35.886 47.256 35.85 47.328 35.826 47.4C35.79 47.52 35.754 47.772 35.754 48.42H36.438C37.494 48.42 37.818 48.396 37.89 48.396C37.974 48.396 37.986 48.408 37.986 48.492ZM36.942 53.592V52.308H35.742V53.592H36.942ZM35.106 53.592V52.308H33.954V53.592H35.106ZM36.942 51.78V50.592H35.742V51.78H36.942ZM35.106 51.78V50.592H33.954V51.78H35.106ZM41.286 53.652L41.61 53.52C41.718 53.472 41.742 53.46 41.79 53.532C42.51 54.744 43.014 55.848 43.494 57.204C43.518 57.276 43.518 57.3 43.398 57.348L42.99 57.504C42.858 57.552 42.822 57.552 42.798 57.468C42.702 57.144 42.594 56.832 42.474 56.52C41.082 56.76 39.87 56.928 38.406 57.096C38.07 57.132 37.974 57.168 37.914 57.204C37.842 57.24 37.818 57.264 37.77 57.264C37.71 57.264 37.674 57.228 37.65 57.144C37.578 56.916 37.506 56.652 37.458 56.424C37.818 56.436 38.13 56.424 38.454 56.4C38.958 54.996 39.378 53.532 39.69 52.08H39.582C38.514 52.08 38.154 52.104 38.094 52.104C37.998 52.104 37.986 52.092 37.986 51.996V51.504C37.986 51.42 37.998 51.408 38.094 51.408C38.154 51.408 38.514 51.432 39.582 51.432H41.886C42.954 51.432 43.314 51.408 43.374 51.408C43.458 51.408 43.47 51.42 43.47 51.504V51.996C43.47 52.092 43.458 52.104 43.374 52.104C43.314 52.104 42.954 52.08 41.886 52.08H40.458C40.074 53.64 39.69 54.984 39.198 56.328C40.242 56.22 41.286 56.088 42.246 55.932C41.958 55.212 41.598 54.516 41.178 53.82C41.13 53.736 41.142 53.712 41.286 53.652ZM43.074 48.324V48.828C43.074 48.912 43.062 48.924 42.978 48.924C42.906 48.924 42.594 48.9 41.634 48.9H39.906C38.922 48.9 38.622 48.924 38.562 48.924C38.478 48.924 38.466 48.912 38.466 48.828V48.324C38.466 48.228 38.478 48.216 38.562 48.216C38.622 48.216 38.922 48.24 39.906 48.24H41.634C42.594 48.24 42.906 48.216 42.978 48.216C43.062 48.216 43.074 48.228 43.074 48.324ZM51.462 53.832V56.4C51.462 56.76 51.57 56.856 51.774 56.928C51.954 56.976 52.362 57 52.998 57C53.67 57 54.126 56.928 54.354 56.712C54.618 56.496 54.726 56.124 54.75 55.332C54.894 55.44 55.05 55.536 55.242 55.608C55.446 55.692 55.446 55.692 55.422 55.896C55.326 56.664 55.17 56.976 54.87 57.228C54.486 57.54 53.898 57.648 53.022 57.648C52.014 57.648 51.57 57.612 51.246 57.492C51.006 57.396 50.742 57.228 50.742 56.544V53.832H49.29C49.11 56.184 47.898 57.18 45.546 57.816C45.474 57.828 45.414 57.84 45.378 57.84C45.306 57.84 45.282 57.804 45.21 57.66C45.126 57.492 45.018 57.348 44.886 57.228C47.25 56.7 48.402 55.884 48.558 53.832H48.138C46.938 53.832 46.506 53.856 46.434 53.856C46.35 53.856 46.338 53.844 46.338 53.76C46.338 53.688 46.362 53.448 46.362 52.764V51.612C46.362 51 46.338 50.748 46.338 50.652C46.062 50.856 45.774 51.06 45.462 51.264C45.378 51.312 45.33 51.348 45.294 51.348C45.246 51.348 45.21 51.3 45.15 51.192C45.054 51.024 44.946 50.916 44.826 50.808C46.254 50.04 47.382 48.936 48.054 47.832C48.246 47.508 48.354 47.256 48.402 47.028C48.702 47.088 48.894 47.148 49.086 47.22C49.206 47.268 49.242 47.328 49.242 47.388C49.242 47.448 49.218 47.484 49.146 47.532C49.05 47.592 48.942 47.712 48.834 47.892L48.546 48.336H51.09C51.246 48.336 51.294 48.324 51.354 48.3C51.39 48.288 51.426 48.276 51.462 48.276C51.522 48.276 51.606 48.312 51.798 48.468C51.978 48.636 52.026 48.696 52.026 48.768C52.026 48.84 51.978 48.888 51.882 48.948C51.798 48.996 51.69 49.092 51.582 49.248C51.222 49.704 50.874 50.112 50.466 50.544H52.254C53.466 50.544 53.886 50.52 53.958 50.52C54.042 50.52 54.054 50.532 54.054 50.616C54.054 50.688 54.03 50.916 54.03 51.612V52.764C54.03 53.448 54.054 53.688 54.054 53.76C54.054 53.844 54.042 53.856 53.958 53.856C53.886 53.856 53.466 53.832 52.254 53.832H51.462ZM53.322 53.22V51.156H50.454V53.22H53.322ZM49.758 53.22V51.156H47.058V53.22H49.758ZM50.934 48.948H48.102C47.646 49.524 47.142 50.028 46.506 50.52C46.686 50.532 47.154 50.544 48.138 50.544H49.674C50.094 50.088 50.49 49.584 50.934 48.948ZM67.53 52.56V53.076C67.53 53.172 67.518 53.184 67.434 53.184C67.374 53.184 66.978 53.16 65.814 53.16H64.758V55.836C64.758 57.12 64.782 57.672 64.782 57.732C64.782 57.816 64.77 57.828 64.686 57.828H64.098C64.014 57.828 64.002 57.816 64.002 57.732C64.002 57.672 64.026 57.12 64.026 55.836V53.16H62.778C61.614 53.16 61.23 53.184 61.158 53.184C61.074 53.184 61.062 53.172 61.062 53.076V52.56C61.062 52.476 61.074 52.464 61.158 52.464C61.23 52.464 61.614 52.488 62.778 52.488H64.026V49.692H62.694C62.418 50.184 62.082 50.676 61.698 51.108C61.626 51.192 61.578 51.24 61.542 51.24C61.494 51.24 61.446 51.204 61.362 51.132C61.218 50.988 61.086 50.916 60.942 50.868C61.842 49.992 62.55 48.672 62.838 47.652C62.898 47.448 62.922 47.232 62.934 47.04C63.198 47.1 63.45 47.172 63.63 47.244C63.738 47.292 63.774 47.34 63.774 47.4C63.774 47.46 63.726 47.508 63.678 47.556C63.606 47.628 63.558 47.748 63.486 47.94C63.366 48.276 63.222 48.648 63.042 49.032H65.67C66.654 49.032 66.966 49.008 67.038 49.008C67.122 49.008 67.134 49.02 67.134 49.104V49.62C67.134 49.704 67.122 49.716 67.038 49.716C66.966 49.716 66.654 49.692 65.67 49.692H64.758V52.488H65.814C66.978 52.488 67.374 52.464 67.434 52.464C67.518 52.464 67.53 52.476 67.53 52.56ZM60.63 54.924V55.608C60.63 57.012 60.654 57.228 60.654 57.288C60.654 57.372 60.642 57.384 60.558 57.384H60.066C59.982 57.384 59.97 57.372 59.97 57.288V56.904H58.038V57.504C58.038 57.588 58.026 57.6 57.942 57.6H57.45C57.366 57.6 57.354 57.588 57.354 57.504C57.354 57.444 57.378 57.216 57.378 55.752V55.116C57.378 54.384 57.354 54.132 57.354 54.072C57.354 53.988 57.366 53.976 57.45 53.976C57.51 53.976 57.75 54 58.506 54H59.49C60.258 54 60.486 53.976 60.558 53.976C60.642 53.976 60.654 53.988 60.654 54.072C60.654 54.12 60.63 54.372 60.63 54.924ZM59.97 56.316V54.588H58.038V56.316H59.97ZM61.11 49.308V49.8C61.11 49.896 61.098 49.908 61.014 49.908C60.954 49.908 60.666 49.884 59.754 49.884H58.17C57.258 49.884 56.97 49.908 56.91 49.908C56.826 49.908 56.814 49.896 56.814 49.8V49.308C56.814 49.224 56.826 49.212 56.91 49.212C56.97 49.212 57.258 49.236 58.17 49.236H59.754C60.666 49.236 60.954 49.212 61.014 49.212C61.098 49.212 61.11 49.224 61.11 49.308ZM60.714 47.7V48.18C60.714 48.264 60.702 48.276 60.618 48.276C60.546 48.276 60.33 48.252 59.562 48.252H58.53C57.762 48.252 57.534 48.276 57.474 48.276C57.39 48.276 57.378 48.264 57.378 48.18V47.7C57.378 47.616 57.39 47.604 57.474 47.604C57.534 47.604 57.762 47.628 58.53 47.628H59.562C60.33 47.628 60.546 47.604 60.618 47.604C60.702 47.604 60.714 47.616 60.714 47.7ZM60.558 52.488V52.956C60.558 53.04 60.546 53.052 60.45 53.052C60.39 53.052 60.198 53.028 59.466 53.028H58.554C57.822 53.028 57.618 53.052 57.558 53.052C57.474 53.052 57.462 53.04 57.462 52.956V52.488C57.462 52.404 57.474 52.392 57.558 52.392C57.618 52.392 57.822 52.416 58.554 52.416H59.466C60.198 52.416 60.39 52.392 60.45 52.392C60.546 52.392 60.558 52.404 60.558 52.488ZM60.558 50.928V51.396C60.558 51.48 60.546 51.492 60.45 51.492C60.39 51.492 60.198 51.468 59.466 51.468H58.554C57.822 51.468 57.618 51.492 57.558 51.492C57.474 51.492 57.462 51.48 57.462 51.396V50.928C57.462 50.844 57.474 50.832 57.558 50.832C57.618 50.832 57.822 50.856 58.554 50.856H59.466C60.198 50.856 60.39 50.832 60.45 50.832C60.546 50.832 60.558 50.844 60.558 50.928ZM79.506 56.688V57.204C79.506 57.288 79.494 57.3 79.422 57.3C79.35 57.3 78.954 57.276 77.79 57.276H74.73C73.554 57.276 73.17 57.3 73.11 57.3C73.026 57.3 73.014 57.288 73.014 57.204V56.688C73.014 56.604 73.026 56.592 73.11 56.592C73.146 56.592 73.386 56.616 73.974 56.616V52.656C73.974 51.852 73.962 51.408 73.89 51.024C74.178 51.036 74.394 51.048 74.67 51.096C74.766 51.108 74.814 51.144 74.814 51.192C74.814 51.288 74.778 51.336 74.742 51.42C74.694 51.552 74.682 51.864 74.682 52.656V56.616H76.134V48.54H75.042C73.938 48.54 73.566 48.564 73.506 48.564C73.422 48.564 73.41 48.552 73.41 48.468V47.952C73.41 47.868 73.422 47.856 73.506 47.856C73.566 47.856 73.938 47.88 75.042 47.88H77.634C78.75 47.88 79.122 47.856 79.182 47.856C79.266 47.856 79.278 47.868 79.278 47.952V48.468C79.278 48.552 79.266 48.564 79.182 48.564C79.122 48.564 78.75 48.54 77.634 48.54H76.854V51.912H78.078C78.738 51.912 78.918 51.888 78.99 51.888C79.074 51.888 79.086 51.9 79.086 51.984V52.5C79.086 52.584 79.074 52.596 78.99 52.596C78.918 52.596 78.738 52.572 78.078 52.572H76.854V56.616H77.79C78.954 56.616 79.35 56.592 79.422 56.592C79.494 56.592 79.506 56.604 79.506 56.688ZM72.606 55.092V55.872C72.606 57.276 72.63 57.504 72.63 57.564C72.63 57.648 72.618 57.66 72.534 57.66H72.042C71.958 57.66 71.946 57.648 71.946 57.564V57.168H70.038V57.78C70.038 57.864 70.026 57.876 69.942 57.876H69.45C69.366 57.876 69.354 57.864 69.354 57.78C69.354 57.72 69.378 57.48 69.378 56.016V55.284C69.378 54.552 69.354 54.3 69.354 54.24C69.354 54.156 69.366 54.144 69.45 54.144C69.51 54.144 69.75 54.168 70.506 54.168H71.466C72.234 54.168 72.462 54.144 72.534 54.144C72.618 54.144 72.63 54.156 72.63 54.24C72.63 54.288 72.606 54.54 72.606 55.092ZM71.946 56.58V54.756H70.038V56.58H71.946ZM73.062 49.368V49.86C73.062 49.956 73.05 49.968 72.966 49.968C72.906 49.968 72.618 49.944 71.706 49.944H70.17C69.258 49.944 68.97 49.968 68.91 49.968C68.826 49.968 68.814 49.956 68.814 49.86V49.368C68.814 49.284 68.826 49.272 68.91 49.272C68.97 49.272 69.258 49.296 70.17 49.296H71.706C72.618 49.296 72.906 49.272 72.966 49.272C73.05 49.272 73.062 49.284 73.062 49.368ZM72.69 47.724V48.204C72.69 48.288 72.678 48.3 72.594 48.3C72.522 48.3 72.306 48.276 71.538 48.276H70.53C69.762 48.276 69.534 48.3 69.474 48.3C69.39 48.3 69.378 48.288 69.378 48.204V47.724C69.378 47.64 69.39 47.628 69.474 47.628C69.534 47.628 69.762 47.652 70.53 47.652H71.538C72.306 47.652 72.522 47.628 72.594 47.628C72.678 47.628 72.69 47.64 72.69 47.724ZM72.522 51.024V51.492C72.522 51.576 72.51 51.588 72.414 51.588C72.354 51.588 72.162 51.564 71.43 51.564H70.554C69.822 51.564 69.618 51.588 69.558 51.588C69.474 51.588 69.462 51.576 69.462 51.492V51.024C69.462 50.94 69.474 50.928 69.558 50.928C69.618 50.928 69.822 50.952 70.554 50.952H71.43C72.162 50.952 72.354 50.928 72.414 50.928C72.51 50.928 72.522 50.94 72.522 51.024ZM72.522 52.62V53.088C72.522 53.172 72.51 53.184 72.414 53.184C72.354 53.184 72.162 53.16 71.43 53.16H70.554C69.822 53.16 69.618 53.184 69.558 53.184C69.474 53.184 69.462 53.172 69.462 53.088V52.62C69.462 52.536 69.474 52.524 69.558 52.524C69.618 52.524 69.822 52.548 70.554 52.548H71.43C72.162 52.548 72.354 52.524 72.414 52.524C72.51 52.524 72.522 52.536 72.522 52.62ZM86.082 51.444C86.634 51.444 87.078 51.888 87.078 52.44C87.078 52.98 86.634 53.436 86.082 53.436C85.542 53.436 85.086 52.98 85.086 52.44C85.086 51.888 85.542 51.444 86.082 51.444ZM103.578 49.968V50.376C103.578 50.46 103.566 50.472 103.482 50.472C103.422 50.472 102.99 50.448 102.654 50.448H102.582V50.88C102.582 51.648 102.606 51.924 102.606 51.984C102.606 52.08 102.594 52.092 102.51 52.092C102.45 52.092 102.078 52.068 101.106 52.068H100.482V53.064H101.382C102.39 53.064 102.714 53.04 102.774 53.04C102.858 53.04 102.87 53.052 102.87 53.136V53.544C102.87 53.628 102.858 53.64 102.774 53.64C102.714 53.64 102.39 53.616 101.382 53.616H100.482V54.588H101.73C102.834 54.588 103.206 54.564 103.266 54.564C103.35 54.564 103.362 54.576 103.362 54.66V55.08C103.362 55.164 103.35 55.176 103.266 55.176C103.206 55.176 102.834 55.152 101.73 55.152H100.482C100.482 55.848 100.506 56.196 100.506 56.232C100.506 56.316 100.494 56.328 100.41 56.328H99.93C99.846 56.328 99.834 56.316 99.834 56.232C99.834 56.196 99.846 55.848 99.858 55.152H99.21C98.106 55.152 97.746 55.176 97.674 55.176C97.59 55.176 97.59 55.164 97.59 55.08V54.66C97.59 54.576 97.59 54.564 97.674 54.564C97.746 54.564 98.106 54.588 99.21 54.588H99.858V53.616H99.498C98.49 53.616 98.166 53.64 98.106 53.64C98.022 53.64 98.01 53.628 98.01 53.544V53.136C98.01 53.052 98.022 53.04 98.106 53.04C98.166 53.04 98.49 53.064 99.498 53.064H99.858V52.068H99.438C98.586 52.068 98.334 52.092 98.274 52.092C98.19 52.092 98.178 52.08 98.178 51.984V51.6C98.178 51.516 98.19 51.504 98.274 51.504C98.334 51.504 98.586 51.528 99.438 51.528H99.858V50.448H99.366C98.19 50.448 97.806 50.472 97.734 50.472C97.65 50.472 97.638 50.46 97.638 50.376V49.968C97.638 49.884 97.65 49.872 97.734 49.872C97.806 49.872 98.19 49.896 99.366 49.896H99.858V48.864H99.522C98.574 48.864 98.298 48.888 98.238 48.888C98.154 48.888 98.142 48.876 98.142 48.792V48.384C98.142 48.3 98.154 48.288 98.238 48.288C98.298 48.288 98.574 48.312 99.522 48.312H99.858V48.264C99.858 47.64 99.846 47.376 99.774 47.1C100.086 47.112 100.266 47.136 100.47 47.16C100.554 47.172 100.614 47.208 100.614 47.268C100.614 47.328 100.602 47.376 100.566 47.436C100.518 47.52 100.482 47.712 100.482 48.204V48.312H101.106C102.078 48.312 102.45 48.288 102.51 48.288C102.594 48.288 102.606 48.3 102.606 48.384C102.606 48.444 102.582 48.744 102.582 49.512V49.896H102.654C102.99 49.896 103.422 49.872 103.482 49.872C103.566 49.872 103.578 49.884 103.578 49.968ZM101.97 51.528V50.448H100.482V51.528H101.97ZM101.97 49.896V48.864H100.482V49.896H101.97ZM96.234 51.312H96.966C97.086 51.312 97.146 51.3 97.194 51.276C97.242 51.252 97.266 51.24 97.302 51.24C97.35 51.24 97.422 51.276 97.59 51.456C97.71 51.588 97.758 51.66 97.758 51.72C97.758 51.78 97.722 51.816 97.686 51.852C97.626 51.912 97.602 52.008 97.59 52.14C97.458 53.4 97.194 54.444 96.798 55.368C96.966 55.572 97.146 55.776 97.362 55.956C98.202 56.688 99.618 56.772 100.782 56.772C101.934 56.772 102.69 56.736 103.698 56.628C103.59 56.76 103.506 56.94 103.47 57.12C103.422 57.372 103.422 57.372 103.182 57.384C102.474 57.42 101.802 57.456 100.854 57.456C99.438 57.456 97.974 57.324 97.062 56.52C96.858 56.352 96.678 56.16 96.51 55.956C96.198 56.544 95.814 57.084 95.37 57.612C95.31 57.696 95.274 57.732 95.238 57.732C95.202 57.732 95.154 57.684 95.082 57.588C94.974 57.444 94.866 57.336 94.734 57.24C95.274 56.736 95.73 56.112 96.09 55.38C95.682 54.732 95.394 54.012 95.202 53.244C95.178 53.16 95.202 53.136 95.334 53.076L95.562 52.968C95.694 52.908 95.718 52.92 95.742 53.004C95.874 53.64 96.078 54.216 96.366 54.72C96.69 53.892 96.894 52.956 96.99 51.9H95.898L95.646 52.32C95.622 52.368 95.598 52.404 95.55 52.404C95.502 52.404 95.418 52.368 95.274 52.296C95.01 52.164 94.998 52.152 95.082 52.032C95.73 51.036 96.318 49.824 96.798 48.708H96.15C95.67 48.708 95.55 48.732 95.478 48.732C95.394 48.732 95.382 48.72 95.382 48.636V48.18C95.382 48.096 95.394 48.084 95.478 48.084C95.55 48.084 95.682 48.108 96.246 48.108H96.858C97.002 48.108 97.062 48.096 97.122 48.072C97.158 48.06 97.194 48.048 97.23 48.048C97.302 48.048 97.362 48.072 97.542 48.264C97.662 48.384 97.698 48.456 97.698 48.504C97.698 48.564 97.662 48.6 97.59 48.66C97.518 48.72 97.41 48.936 97.314 49.14C97.014 49.836 96.654 50.556 96.234 51.312ZM93.81 55.86V52.74C93.81 52.332 93.822 51.732 93.834 51.192C93.558 51.684 93.258 52.164 92.922 52.62C92.862 52.692 92.826 52.74 92.79 52.74C92.754 52.74 92.718 52.692 92.682 52.62C92.586 52.404 92.49 52.248 92.382 52.14C93.39 50.856 94.11 49.32 94.542 47.784C94.626 47.484 94.674 47.244 94.686 46.98C94.95 47.04 95.202 47.112 95.37 47.184C95.466 47.22 95.514 47.256 95.514 47.328C95.514 47.376 95.454 47.436 95.406 47.484C95.334 47.556 95.274 47.7 95.202 47.976C94.998 48.624 94.77 49.26 94.494 49.884V55.86C94.494 57.132 94.518 57.684 94.518 57.744C94.518 57.816 94.506 57.828 94.422 57.828H93.894C93.798 57.828 93.786 57.816 93.786 57.744C93.786 57.672 93.81 57.132 93.81 55.86ZM112.146 53.472H111.174C111.546 54.048 111.942 54.528 112.386 54.948C112.902 54.612 113.274 54.336 113.754 53.94C113.934 53.784 114.066 53.616 114.138 53.46C114.378 53.604 114.534 53.736 114.666 53.844C114.75 53.916 114.774 53.94 114.774 54C114.774 54.06 114.726 54.096 114.642 54.12C114.558 54.156 114.474 54.192 114.318 54.324C113.862 54.696 113.43 54.996 112.842 55.356C113.586 55.956 114.426 56.412 115.362 56.784C115.218 56.88 115.098 57.012 114.99 57.168C114.906 57.288 114.87 57.336 114.81 57.336C114.774 57.336 114.726 57.312 114.63 57.276C113.334 56.64 111.978 55.716 110.982 54.036C111.006 54.972 111.03 55.824 111.03 56.796C111.03 57.192 110.934 57.444 110.634 57.6C110.406 57.708 110.082 57.78 109.326 57.78C109.086 57.78 109.086 57.78 109.026 57.54C108.966 57.36 108.882 57.192 108.786 57.036C109.074 57.06 109.362 57.072 109.638 57.072C110.118 57.072 110.322 56.964 110.322 56.64V55.464C109.506 55.908 108.522 56.388 107.538 56.76C107.31 56.844 107.154 56.916 107.094 56.976C107.046 57.024 106.998 57.06 106.95 57.06C106.914 57.06 106.878 57.024 106.842 56.952C106.746 56.784 106.65 56.556 106.566 56.316C106.914 56.268 107.178 56.208 107.454 56.1C108.318 55.788 109.398 55.308 110.322 54.804V53.472H109.11C108.006 53.472 107.634 53.496 107.574 53.496C107.49 53.496 107.478 53.484 107.478 53.4V52.98C107.478 52.896 107.49 52.884 107.574 52.884C107.634 52.884 108.006 52.908 109.11 52.908H110.322V51.912H108.522C107.334 51.912 106.95 51.936 106.878 51.936C106.794 51.936 106.782 51.924 106.782 51.84V51.408C106.782 51.324 106.794 51.312 106.878 51.312C106.95 51.312 107.334 51.336 108.522 51.336H110.322V50.412H109.218C108.054 50.412 107.67 50.436 107.61 50.436C107.526 50.436 107.514 50.424 107.514 50.34V49.92C107.514 49.836 107.526 49.824 107.61 49.824C107.67 49.824 108.054 49.848 109.218 49.848H110.322C110.322 49.464 110.31 49.188 110.25 48.876C110.562 48.888 110.766 48.912 110.982 48.948C111.066 48.96 111.126 48.996 111.126 49.044C111.126 49.104 111.102 49.164 111.066 49.26C111.03 49.356 110.994 49.548 110.994 49.848H112.146C113.334 49.848 113.814 49.824 113.874 49.824C113.958 49.824 113.97 49.836 113.97 49.92C113.97 49.98 113.946 50.28 113.946 51.012V51.336C114.822 51.336 115.182 51.312 115.242 51.312C115.326 51.312 115.338 51.324 115.338 51.408V51.852C115.338 51.924 115.326 51.936 115.242 51.936C115.182 51.936 114.822 51.912 113.946 51.912V52.296C113.946 53.028 113.97 53.328 113.97 53.4C113.97 53.484 113.958 53.496 113.874 53.496C113.814 53.496 113.334 53.472 112.146 53.472ZM113.274 52.908V51.912H110.994V52.908H113.274ZM113.274 51.336V50.412H110.994V51.336H113.274ZM115.242 48.228V48.672C115.242 48.768 115.23 48.78 115.146 48.78C115.086 48.78 114.678 48.756 113.49 48.756H106.458V51.24C106.458 53.04 106.398 53.976 106.242 54.864C106.062 55.884 105.798 56.64 105.282 57.588C105.234 57.684 105.21 57.732 105.174 57.732C105.138 57.732 105.102 57.684 105.03 57.6C104.91 57.456 104.706 57.3 104.562 57.228C105.078 56.412 105.39 55.608 105.546 54.636C105.702 53.7 105.762 53.016 105.762 50.628C105.762 48.984 105.738 48.288 105.738 48.228C105.738 48.144 105.75 48.132 105.834 48.132C105.894 48.132 106.314 48.156 107.502 48.156H110.058V47.892C110.058 47.388 110.058 47.22 109.986 46.992C110.274 47.004 110.466 47.016 110.718 47.04C110.814 47.052 110.874 47.076 110.874 47.136C110.874 47.208 110.838 47.244 110.802 47.316C110.766 47.4 110.742 47.544 110.742 47.904V48.156H113.49C114.678 48.156 115.086 48.132 115.146 48.132C115.23 48.132 115.242 48.144 115.242 48.228ZM107.454 54.048L107.634 53.844C107.73 53.76 107.754 53.736 107.826 53.796C108.294 54.06 108.642 54.312 109.062 54.66C109.134 54.72 109.122 54.732 109.026 54.852L108.834 55.092C108.714 55.212 108.69 55.212 108.606 55.14C108.21 54.78 107.862 54.504 107.406 54.24C107.334 54.192 107.346 54.18 107.454 54.048ZM125.646 53.364H124.134C125.022 54.684 126.03 55.512 127.662 56.256C127.53 56.4 127.422 56.568 127.338 56.76C127.29 56.88 127.266 56.916 127.218 56.916C127.182 56.916 127.122 56.892 127.038 56.844C125.598 56.064 124.554 55.08 123.762 53.688C123.762 55.548 123.822 57.252 123.822 57.732C123.822 57.816 123.81 57.828 123.726 57.828H123.174C123.09 57.828 123.078 57.816 123.078 57.732C123.078 57.252 123.126 55.56 123.138 53.712C122.418 55.056 121.458 56.028 119.922 56.868C119.838 56.916 119.79 56.94 119.742 56.94C119.694 56.94 119.646 56.892 119.574 56.772C119.478 56.616 119.346 56.484 119.214 56.376C120.786 55.668 121.914 54.66 122.706 53.364H121.386C120.162 53.364 119.754 53.388 119.682 53.388C119.598 53.388 119.586 53.376 119.586 53.292V52.8C119.586 52.716 119.598 52.704 119.682 52.704C119.754 52.704 120.162 52.728 121.386 52.728H123.102V51.336H122.346C121.266 51.336 120.894 51.36 120.834 51.36C120.75 51.36 120.738 51.348 120.738 51.264C120.738 51.192 120.762 50.94 120.762 50.22V48.888C120.762 48.168 120.738 47.916 120.738 47.856C120.738 47.772 120.75 47.76 120.834 47.76C120.894 47.76 121.266 47.784 122.346 47.784H124.686C125.766 47.784 126.126 47.76 126.186 47.76C126.27 47.76 126.282 47.772 126.282 47.856C126.282 47.916 126.258 48.168 126.258 48.888V50.22C126.258 50.94 126.282 51.204 126.282 51.264C126.282 51.348 126.27 51.36 126.186 51.36C126.126 51.36 125.766 51.336 124.686 51.336H123.798V52.728H125.646C126.87 52.728 127.278 52.704 127.338 52.704C127.422 52.704 127.434 52.716 127.434 52.8V53.292C127.434 53.376 127.422 53.388 127.338 53.388C127.278 53.388 126.87 53.364 125.646 53.364ZM125.538 50.724V48.42H121.47V50.724H125.538ZM118.122 55.92V52.896C118.122 52.44 118.134 51.768 118.146 51.18C117.846 51.648 117.498 52.128 117.114 52.584C117.054 52.656 117.018 52.692 116.982 52.692C116.934 52.692 116.91 52.644 116.862 52.56C116.766 52.356 116.658 52.2 116.55 52.104C117.726 50.76 118.47 49.428 118.998 47.856C119.094 47.556 119.154 47.28 119.166 47.052C119.454 47.124 119.682 47.196 119.91 47.304C119.994 47.34 120.042 47.376 120.042 47.436C120.042 47.508 120.018 47.544 119.946 47.604C119.874 47.664 119.802 47.784 119.694 48.06C119.442 48.72 119.166 49.368 118.83 50.016V55.92C118.83 57.18 118.854 57.72 118.854 57.78C118.854 57.864 118.842 57.876 118.758 57.876H118.182C118.11 57.876 118.098 57.864 118.098 57.78C118.098 57.72 118.122 57.18 118.122 55.92ZM137.046 54.42H136.122C136.758 55.668 138.186 56.772 139.602 57.228C139.482 57.324 139.338 57.48 139.242 57.66C139.17 57.792 139.134 57.84 139.074 57.84C139.038 57.84 138.99 57.816 138.906 57.78C137.586 57.144 136.386 56.16 135.678 54.792L135.606 54.984C135.138 56.172 134.118 57.168 132.174 57.828C131.958 57.9 131.934 57.912 131.826 57.72C131.73 57.54 131.61 57.408 131.478 57.312C133.47 56.748 134.538 55.86 134.97 54.78C135.018 54.66 135.054 54.54 135.09 54.42H134.49C133.374 54.42 132.978 54.444 132.906 54.444C132.834 54.444 132.822 54.432 132.822 54.348C132.822 54.288 132.846 54.096 132.846 53.472V52.608C132.846 51.996 132.822 51.792 132.822 51.732C132.822 51.648 132.834 51.636 132.906 51.636C132.978 51.636 133.374 51.66 134.49 51.66H135.366V50.52H135.138C134.25 50.52 133.998 50.544 133.926 50.544C133.842 50.544 133.83 50.532 133.83 50.448V49.992C133.83 49.908 133.842 49.896 133.926 49.896C133.998 49.896 134.25 49.92 135.138 49.92H136.434C137.31 49.92 137.574 49.896 137.634 49.896C137.718 49.896 137.73 49.908 137.73 49.992V50.448C137.73 50.532 137.718 50.544 137.634 50.544C137.574 50.544 137.31 50.52 136.434 50.52H136.05V51.66H137.046C138.15 51.66 138.546 51.636 138.606 51.636C138.69 51.636 138.702 51.648 138.702 51.732C138.702 51.792 138.678 51.996 138.678 52.608V53.472C138.678 54.096 138.702 54.288 138.702 54.348C138.702 54.432 138.69 54.444 138.606 54.444C138.546 54.444 138.15 54.42 137.046 54.42ZM138.006 53.856V52.236H136.038C136.026 52.848 135.99 53.388 135.918 53.856H138.006ZM135.354 52.236H133.506V53.856H135.234C135.318 53.388 135.342 52.86 135.354 52.236ZM130.242 47.58H131.646C131.79 47.58 131.886 47.568 131.934 47.544C131.958 47.532 132.006 47.52 132.054 47.52C132.126 47.52 132.186 47.556 132.354 47.724C132.522 47.904 132.57 48 132.57 48.048C132.57 48.108 132.534 48.156 132.474 48.204C132.39 48.288 132.33 48.408 132.258 48.6C131.91 49.488 131.634 50.196 131.13 51.156C132.162 52.428 132.354 53.124 132.354 53.904C132.354 54.78 131.994 55.416 130.782 55.488C130.542 55.488 130.542 55.488 130.494 55.248C130.458 55.068 130.41 54.936 130.314 54.828C131.286 54.888 131.682 54.576 131.682 53.844C131.682 53.16 131.406 52.5 130.41 51.204C131.01 50.04 131.298 49.296 131.658 48.216H129.99V55.296C129.99 56.964 130.014 57.708 130.014 57.78C130.014 57.852 130.002 57.864 129.918 57.864H129.366C129.282 57.864 129.27 57.852 129.27 57.78C129.27 57.708 129.294 57.012 129.294 55.32V50.136C129.294 48.432 129.27 47.712 129.27 47.652C129.27 47.568 129.282 47.556 129.366 47.556C129.438 47.556 129.678 47.58 130.242 47.58ZM139.758 50.016C139.638 50.136 139.518 50.28 139.446 50.436C139.386 50.568 139.35 50.616 139.29 50.616C139.242 50.616 139.182 50.592 139.098 50.556C137.826 49.968 136.554 49.068 135.666 47.952C134.922 49.044 133.83 49.968 132.498 50.736C132.414 50.784 132.366 50.82 132.318 50.82C132.27 50.82 132.234 50.76 132.162 50.64C132.09 50.532 131.982 50.4 131.85 50.304C133.362 49.5 134.322 48.66 135.066 47.64C135.222 47.424 135.318 47.172 135.378 46.956C135.642 47.004 135.858 47.064 136.062 47.124C136.158 47.16 136.206 47.196 136.206 47.256C136.206 47.304 136.182 47.352 136.122 47.388C136.074 47.412 136.026 47.436 136.002 47.46C136.962 48.6 138.246 49.452 139.758 50.016ZM151.506 56.688V57.204C151.506 57.288 151.494 57.3 151.422 57.3C151.35 57.3 150.954 57.276 149.79 57.276H146.73C145.554 57.276 145.17 57.3 145.11 57.3C145.026 57.3 145.014 57.288 145.014 57.204V56.688C145.014 56.604 145.026 56.592 145.11 56.592C145.146 56.592 145.386 56.616 145.974 56.616V52.656C145.974 51.852 145.962 51.408 145.89 51.024C146.178 51.036 146.394 51.048 146.67 51.096C146.766 51.108 146.814 51.144 146.814 51.192C146.814 51.288 146.778 51.336 146.742 51.42C146.694 51.552 146.682 51.864 146.682 52.656V56.616H148.134V48.54H147.042C145.938 48.54 145.566 48.564 145.506 48.564C145.422 48.564 145.41 48.552 145.41 48.468V47.952C145.41 47.868 145.422 47.856 145.506 47.856C145.566 47.856 145.938 47.88 147.042 47.88H149.634C150.75 47.88 151.122 47.856 151.182 47.856C151.266 47.856 151.278 47.868 151.278 47.952V48.468C151.278 48.552 151.266 48.564 151.182 48.564C151.122 48.564 150.75 48.54 149.634 48.54H148.854V51.912H150.078C150.738 51.912 150.918 51.888 150.99 51.888C151.074 51.888 151.086 51.9 151.086 51.984V52.5C151.086 52.584 151.074 52.596 150.99 52.596C150.918 52.596 150.738 52.572 150.078 52.572H148.854V56.616H149.79C150.954 56.616 151.35 56.592 151.422 56.592C151.494 56.592 151.506 56.604 151.506 56.688ZM144.606 55.092V55.872C144.606 57.276 144.63 57.504 144.63 57.564C144.63 57.648 144.618 57.66 144.534 57.66H144.042C143.958 57.66 143.946 57.648 143.946 57.564V57.168H142.038V57.78C142.038 57.864 142.026 57.876 141.942 57.876H141.45C141.366 57.876 141.354 57.864 141.354 57.78C141.354 57.72 141.378 57.48 141.378 56.016V55.284C141.378 54.552 141.354 54.3 141.354 54.24C141.354 54.156 141.366 54.144 141.45 54.144C141.51 54.144 141.75 54.168 142.506 54.168H143.466C144.234 54.168 144.462 54.144 144.534 54.144C144.618 54.144 144.63 54.156 144.63 54.24C144.63 54.288 144.606 54.54 144.606 55.092ZM143.946 56.58V54.756H142.038V56.58H143.946ZM145.062 49.368V49.86C145.062 49.956 145.05 49.968 144.966 49.968C144.906 49.968 144.618 49.944 143.706 49.944H142.17C141.258 49.944 140.97 49.968 140.91 49.968C140.826 49.968 140.814 49.956 140.814 49.86V49.368C140.814 49.284 140.826 49.272 140.91 49.272C140.97 49.272 141.258 49.296 142.17 49.296H143.706C144.618 49.296 144.906 49.272 144.966 49.272C145.05 49.272 145.062 49.284 145.062 49.368ZM144.69 47.724V48.204C144.69 48.288 144.678 48.3 144.594 48.3C144.522 48.3 144.306 48.276 143.538 48.276H142.53C141.762 48.276 141.534 48.3 141.474 48.3C141.39 48.3 141.378 48.288 141.378 48.204V47.724C141.378 47.64 141.39 47.628 141.474 47.628C141.534 47.628 141.762 47.652 142.53 47.652H143.538C144.306 47.652 144.522 47.628 144.594 47.628C144.678 47.628 144.69 47.64 144.69 47.724ZM144.522 51.024V51.492C144.522 51.576 144.51 51.588 144.414 51.588C144.354 51.588 144.162 51.564 143.43 51.564H142.554C141.822 51.564 141.618 51.588 141.558 51.588C141.474 51.588 141.462 51.576 141.462 51.492V51.024C141.462 50.94 141.474 50.928 141.558 50.928C141.618 50.928 141.822 50.952 142.554 50.952H143.43C144.162 50.952 144.354 50.928 144.414 50.928C144.51 50.928 144.522 50.94 144.522 51.024ZM144.522 52.62V53.088C144.522 53.172 144.51 53.184 144.414 53.184C144.354 53.184 144.162 53.16 143.43 53.16H142.554C141.822 53.16 141.618 53.184 141.558 53.184C141.474 53.184 141.462 53.172 141.462 53.088V52.62C141.462 52.536 141.474 52.524 141.558 52.524C141.618 52.524 141.822 52.548 142.554 52.548H143.43C144.162 52.548 144.354 52.524 144.414 52.524C144.51 52.524 144.522 52.536 144.522 52.62ZM158.082 51.444C158.634 51.444 159.078 51.888 159.078 52.44C159.078 52.98 158.634 53.436 158.082 53.436C157.542 53.436 157.086 52.98 157.086 52.44C157.086 51.888 157.542 51.444 158.082 51.444ZM175.506 56.64V57.156C175.506 57.252 175.494 57.264 175.41 57.264C175.35 57.264 174.942 57.24 173.718 57.24H169.278C168.066 57.24 167.646 57.264 167.574 57.264C167.49 57.264 167.478 57.252 167.478 57.156V56.64C167.478 56.556 167.49 56.544 167.574 56.544C167.646 56.544 168.066 56.568 169.278 56.568H170.982V53.58H170.034C168.894 53.58 168.51 53.604 168.45 53.604C168.354 53.604 168.342 53.592 168.342 53.508V53.004C168.342 52.92 168.354 52.908 168.45 52.908C168.51 52.908 168.894 52.932 170.034 52.932H170.982V50.436H169.698C168.498 50.436 168.102 50.46 168.042 50.46C167.958 50.46 167.946 50.448 167.946 50.364V49.848C167.946 49.764 167.958 49.752 168.042 49.752C168.102 49.752 168.498 49.776 169.698 49.776H173.286C174.474 49.776 174.882 49.752 174.942 49.752C175.038 49.752 175.05 49.764 175.05 49.848V50.364C175.05 50.448 175.038 50.46 174.942 50.46C174.882 50.46 174.474 50.436 173.286 50.436H171.714V52.932H172.866C174.006 52.932 174.378 52.908 174.45 52.908C174.534 52.908 174.546 52.92 174.546 53.004V53.508C174.546 53.592 174.534 53.604 174.45 53.604C174.378 53.604 174.006 53.58 172.866 53.58H171.714V56.568H173.718C174.942 56.568 175.35 56.544 175.41 56.544C175.494 56.544 175.506 56.556 175.506 56.64ZM166.11 55.872V52.812C166.11 52.356 166.122 51.708 166.134 51.132C165.81 51.612 165.438 52.08 165.03 52.536C164.958 52.62 164.922 52.656 164.886 52.656C164.862 52.656 164.826 52.62 164.79 52.536C164.706 52.344 164.598 52.188 164.478 52.056C165.678 50.736 166.47 49.392 167.022 47.844C167.13 47.544 167.202 47.28 167.214 47.04C167.502 47.124 167.742 47.196 167.958 47.304C168.054 47.352 168.09 47.376 168.09 47.448C168.09 47.508 168.054 47.556 167.982 47.604C167.91 47.652 167.838 47.784 167.73 48.06C167.466 48.708 167.178 49.344 166.83 49.98V55.872C166.83 57.144 166.854 57.684 166.854 57.744C166.854 57.828 166.842 57.84 166.77 57.84H166.182C166.098 57.84 166.086 57.828 166.086 57.744C166.086 57.684 166.11 57.144 166.11 55.872ZM170.034 47.544L170.286 47.268C170.37 47.172 170.394 47.184 170.478 47.22C171.162 47.532 171.858 48.012 172.458 48.504C172.53 48.564 172.53 48.6 172.446 48.708L172.194 49.008C172.074 49.152 172.05 49.164 171.978 49.092C171.402 48.54 170.67 48.06 170.01 47.736C169.926 47.688 169.926 47.664 170.034 47.544ZM184.938 53.316L183.198 53.364C183.366 53.952 183.582 54.444 183.822 54.9C184.398 56.052 185.322 56.796 185.838 56.796C186.186 56.796 186.39 56.328 186.438 55.056C186.57 55.188 186.726 55.308 186.882 55.38C187.098 55.5 187.122 55.512 187.086 55.752C186.918 57.072 186.546 57.612 185.874 57.612C185.118 57.612 184.026 56.832 183.222 55.344C182.922 54.78 182.658 54.144 182.442 53.388L179.07 53.484V56.388C180.138 56.124 181.422 55.752 182.562 55.344C182.526 55.464 182.478 55.62 182.466 55.8C182.442 56.052 182.43 56.064 182.214 56.136C180.762 56.652 179.286 57.06 177.93 57.384C177.678 57.444 177.606 57.468 177.534 57.528C177.462 57.588 177.402 57.612 177.33 57.612C177.27 57.612 177.234 57.552 177.198 57.468C177.126 57.276 177.066 57 177.018 56.748C177.354 56.736 177.726 56.688 178.158 56.592L178.326 56.556V50.004C178.326 48.624 178.302 48 178.302 47.928C178.302 47.844 178.314 47.832 178.398 47.832C178.47 47.832 178.998 47.856 180.198 47.856H184.17C185.394 47.856 185.898 47.832 185.958 47.832C186.042 47.832 186.054 47.844 186.054 47.928C186.054 48 186.03 48.252 186.03 48.912V49.836C186.03 50.496 186.054 50.76 186.054 50.82C186.054 50.904 186.042 50.916 185.958 50.916C185.898 50.916 185.394 50.892 184.17 50.892H182.754C182.814 51.6 182.91 52.188 183.018 52.716L184.926 52.656C186.114 52.62 186.534 52.572 186.618 52.572C186.714 52.572 186.714 52.584 186.714 52.668L186.726 53.196C186.726 53.28 186.714 53.292 186.63 53.292C186.546 53.292 186.126 53.28 184.938 53.316ZM185.298 50.256V48.516H179.07V50.256H185.298ZM179.07 52.824L182.286 52.728C182.166 52.188 182.07 51.576 182.01 50.892H179.07V52.824ZM197.73 53.592H196.494C197.298 54.288 198.234 54.732 199.71 55.044C199.59 55.164 199.47 55.308 199.398 55.476C199.302 55.692 199.278 55.68 199.062 55.608C197.49 55.128 196.53 54.528 195.678 53.592H192.462C191.706 54.372 190.734 55.08 189.234 55.668C189.018 55.752 189.006 55.752 188.886 55.56C188.79 55.404 188.694 55.284 188.562 55.176C189.978 54.732 190.938 54.168 191.598 53.592H190.458C189.33 53.592 188.97 53.616 188.898 53.616C188.826 53.616 188.814 53.604 188.814 53.508V53.064C188.814 52.98 188.826 52.968 188.898 52.968C188.97 52.968 189.33 52.992 190.458 52.992H191.49V49.128H191.046C189.87 49.128 189.462 49.152 189.402 49.152C189.318 49.152 189.306 49.14 189.306 49.056V48.588C189.306 48.504 189.318 48.492 189.402 48.492C189.462 48.492 189.87 48.516 191.046 48.516H191.49V48.468C191.49 47.76 191.478 47.364 191.418 47.052C191.706 47.064 191.934 47.088 192.186 47.124C192.258 47.136 192.318 47.172 192.318 47.22C192.318 47.304 192.27 47.364 192.246 47.436C192.21 47.556 192.186 47.832 192.186 48.468V48.516H195.894V48.468C195.894 47.76 195.882 47.364 195.822 47.052C196.098 47.064 196.338 47.088 196.59 47.124C196.674 47.136 196.722 47.172 196.722 47.22C196.722 47.304 196.686 47.364 196.65 47.448C196.614 47.556 196.59 47.832 196.59 48.468V48.516H197.178C198.354 48.516 198.75 48.492 198.822 48.492C198.906 48.492 198.918 48.504 198.918 48.588V49.056C198.918 49.14 198.906 49.152 198.822 49.152C198.75 49.152 198.354 49.128 197.178 49.128H196.59V52.992H197.73C198.858 52.992 199.218 52.968 199.29 52.968C199.374 52.968 199.386 52.98 199.386 53.064V53.508C199.386 53.604 199.374 53.616 199.29 53.616C199.218 53.616 198.858 53.592 197.73 53.592ZM195.894 52.992V52.032H192.186V52.992H195.894ZM195.894 51.468V50.568H192.186V51.468H195.894ZM195.894 50.004V49.128H192.186V50.004H195.894ZM198.726 56.904V57.384C198.726 57.468 198.714 57.48 198.63 57.48C198.558 57.48 198.174 57.456 196.974 57.456H191.214C190.014 57.456 189.618 57.48 189.546 57.48C189.462 57.48 189.45 57.468 189.45 57.384V56.904C189.45 56.82 189.462 56.808 189.546 56.808C189.618 56.808 190.014 56.832 191.214 56.832H193.722V55.74H192.774C191.646 55.74 191.286 55.764 191.226 55.764C191.142 55.764 191.13 55.752 191.13 55.668V55.212C191.13 55.128 191.142 55.116 191.226 55.116C191.286 55.116 191.646 55.14 192.774 55.14H193.722V55.044C193.722 54.576 193.698 54.3 193.65 54.012C193.95 54.024 194.166 54.048 194.394 54.072C194.466 54.084 194.514 54.12 194.514 54.168C194.514 54.216 194.49 54.264 194.466 54.336C194.43 54.432 194.406 54.648 194.406 55.02V55.14H195.402C196.518 55.14 196.89 55.116 196.962 55.116C197.046 55.116 197.058 55.128 197.058 55.212V55.668C197.058 55.752 197.046 55.764 196.962 55.764C196.89 55.764 196.518 55.74 195.402 55.74H194.406V56.832H196.974C198.174 56.832 198.558 56.808 198.63 56.808C198.714 56.808 198.726 56.82 198.726 56.904ZM209.478 50.304H206.682C207.798 52.272 209.454 53.988 211.638 55.152C211.518 55.272 211.386 55.428 211.29 55.608C211.218 55.728 211.194 55.788 211.146 55.788C211.098 55.788 211.05 55.752 210.966 55.704C208.95 54.432 207.342 52.728 206.298 50.664C206.298 52.152 206.31 53.616 206.322 54.816H207.186C208.266 54.816 208.614 54.792 208.686 54.792C208.77 54.792 208.782 54.804 208.782 54.888V55.404C208.782 55.488 208.77 55.5 208.686 55.5C208.614 55.5 208.266 55.476 207.186 55.476H206.334C206.358 56.724 206.382 57.6 206.382 57.744C206.382 57.828 206.37 57.84 206.286 57.84H205.65C205.566 57.84 205.554 57.828 205.554 57.744C205.554 57.6 205.578 56.736 205.59 55.476H204.858C203.778 55.476 203.43 55.5 203.37 55.5C203.286 55.5 203.274 55.488 203.274 55.404V54.888C203.274 54.804 203.286 54.792 203.37 54.792C203.43 54.792 203.778 54.816 204.858 54.816H205.602C205.626 53.652 205.638 52.236 205.638 50.784C204.63 52.812 203.046 54.564 201.258 55.752C201.162 55.812 201.114 55.848 201.066 55.848C201.006 55.848 200.97 55.788 200.922 55.68C200.826 55.5 200.718 55.368 200.562 55.248C202.362 54.252 204.162 52.38 205.242 50.304H202.698C201.558 50.304 201.162 50.328 201.102 50.328C201.018 50.328 201.006 50.316 201.006 50.232V49.692C201.006 49.608 201.018 49.596 201.102 49.596C201.162 49.596 201.558 49.62 202.698 49.62H205.59V48.552C205.59 47.796 205.59 47.544 205.506 47.1C205.794 47.112 206.094 47.136 206.334 47.172C206.418 47.184 206.478 47.22 206.478 47.268C206.478 47.364 206.43 47.436 206.406 47.532C206.37 47.676 206.346 47.88 206.346 48.54V49.62H209.478C210.63 49.62 211.026 49.596 211.086 49.596C211.17 49.596 211.182 49.608 211.182 49.692V50.232C211.182 50.316 211.17 50.328 211.086 50.328C211.026 50.328 210.63 50.304 209.478 50.304ZM221.526 54.336V55.5C221.526 57.276 221.55 57.576 221.55 57.636C221.55 57.72 221.538 57.732 221.442 57.732H220.866C220.794 57.732 220.782 57.72 220.782 57.636V57.072H215.382V57.684C215.382 57.768 215.37 57.78 215.286 57.78H214.722C214.638 57.78 214.626 57.768 214.626 57.684C214.626 57.624 214.65 57.336 214.65 55.536V54.492C214.65 53.46 214.626 53.148 214.626 53.076C214.626 52.992 214.638 52.98 214.722 52.98C214.794 52.98 215.202 53.004 216.378 53.004H219.798C220.974 53.004 221.382 52.98 221.442 52.98C221.538 52.98 221.55 52.992 221.55 53.076C221.55 53.136 221.526 53.46 221.526 54.336ZM220.782 56.4V53.676H215.382V56.4H220.782ZM219.546 48.864L219.81 48.684C219.918 48.6 219.954 48.588 220.038 48.648C221.07 49.476 222.138 50.568 222.966 51.624C223.026 51.708 223.014 51.732 222.882 51.828L222.534 52.056C222.39 52.152 222.366 52.152 222.306 52.068C222.078 51.744 221.826 51.42 221.55 51.096C219.294 51.384 216.378 51.648 214.242 51.756C213.834 51.78 213.738 51.804 213.654 51.852C213.594 51.888 213.534 51.924 213.45 51.924C213.378 51.924 213.33 51.864 213.306 51.78C213.246 51.576 213.174 51.252 213.126 50.988C213.618 51.012 214.014 51.012 214.362 51L215.214 50.964C215.838 49.908 216.282 48.96 216.762 47.82C216.882 47.52 216.954 47.22 216.978 47.004C217.278 47.064 217.566 47.136 217.746 47.208C217.866 47.256 217.926 47.316 217.926 47.376C217.926 47.448 217.878 47.508 217.83 47.556C217.758 47.628 217.614 47.868 217.518 48.084C217.038 49.104 216.582 50.04 216.042 50.928C217.746 50.832 219.618 50.676 221.034 50.52C220.53 49.98 220.002 49.488 219.486 49.056C219.414 48.996 219.414 48.96 219.546 48.864ZM233.73 53.172H231.978C232.206 53.82 232.482 54.384 232.818 54.876C233.25 54.516 233.586 54.204 233.934 53.82C234.066 53.676 234.162 53.544 234.246 53.364C234.438 53.484 234.642 53.64 234.786 53.772C234.834 53.82 234.87 53.868 234.87 53.904C234.87 53.964 234.822 53.988 234.738 54.012C234.654 54.036 234.57 54.084 234.378 54.276C234.006 54.636 233.658 54.948 233.166 55.32C233.85 56.112 234.714 56.664 235.83 57C235.674 57.132 235.566 57.264 235.47 57.444C235.398 57.576 235.374 57.624 235.326 57.624C235.29 57.624 235.242 57.6 235.146 57.564C233.202 56.772 232.038 55.332 231.342 53.172H230.43V56.484C231.042 56.316 231.738 56.088 232.494 55.824C232.458 55.932 232.434 56.1 232.434 56.244C232.434 56.484 232.434 56.496 232.206 56.568C231.174 56.916 230.118 57.24 229.266 57.48C229.002 57.552 228.858 57.612 228.81 57.648C228.75 57.696 228.69 57.732 228.642 57.732C228.594 57.732 228.546 57.684 228.51 57.612C228.414 57.396 228.33 57.156 228.258 56.94C228.642 56.904 229.098 56.808 229.554 56.7C229.626 56.688 229.698 56.676 229.77 56.652V53.172H228.738C228.75 53.496 228.75 53.832 228.75 54.132C228.75 54.516 228.726 54.708 228.57 54.876C228.402 55.044 228.198 55.092 227.766 55.104C227.538 55.116 227.538 55.116 227.514 54.912C227.49 54.708 227.442 54.564 227.358 54.42C227.55 54.456 227.718 54.468 227.874 54.468C228.042 54.468 228.126 54.396 228.126 54.084V49.86H227.166V55.656C227.166 57.036 227.19 57.636 227.19 57.696C227.19 57.78 227.178 57.792 227.106 57.792H226.59C226.506 57.792 226.494 57.78 226.494 57.696C226.494 57.636 226.518 57.036 226.518 55.668V49.86H225.618V53.856C225.618 54.816 225.642 55.212 225.642 55.272C225.642 55.356 225.63 55.368 225.546 55.368H225.078C224.994 55.368 224.994 55.356 224.994 55.272C224.994 55.2 225.006 54.852 225.006 53.868V50.736C225.006 49.752 224.994 49.38 224.994 49.32C224.994 49.224 224.994 49.212 225.078 49.212C225.15 49.212 225.414 49.236 226.266 49.236H226.518V48.66C226.518 47.856 226.506 47.544 226.434 47.076C226.722 47.088 226.926 47.112 227.166 47.148C227.25 47.16 227.298 47.196 227.298 47.244C227.298 47.316 227.262 47.376 227.238 47.484C227.202 47.628 227.166 47.892 227.166 48.636V49.236H227.478C228.33 49.236 228.594 49.212 228.666 49.212C228.75 49.212 228.762 49.224 228.762 49.32C228.762 49.38 228.738 49.8 228.738 50.784V52.548H229.77V49.104C229.77 48.192 229.746 47.82 229.746 47.748C229.746 47.664 229.758 47.652 229.842 47.652C229.902 47.652 230.25 47.676 231.294 47.676H233.31C234.354 47.676 234.678 47.652 234.726 47.652C234.81 47.652 234.822 47.664 234.822 47.748V48.24C234.822 48.324 234.81 48.336 234.726 48.336C234.678 48.336 234.354 48.312 233.31 48.312H230.43V49.332H232.842C233.826 49.332 234.15 49.308 234.21 49.308C234.294 49.308 234.306 49.32 234.306 49.392V49.848C234.306 49.932 234.294 49.944 234.21 49.944C234.15 49.944 233.826 49.92 232.842 49.92H230.43V50.88H232.83C233.814 50.88 234.138 50.856 234.198 50.856C234.282 50.856 234.294 50.868 234.294 50.952V51.408C234.294 51.492 234.282 51.504 234.198 51.504C234.138 51.504 233.814 51.48 232.83 51.48H230.43V52.548H233.73C234.918 52.548 235.314 52.524 235.386 52.524C235.47 52.524 235.482 52.536 235.482 52.62V53.1C235.482 53.184 235.47 53.196 235.386 53.196C235.314 53.196 234.918 53.172 233.73 53.172ZM239.874 50.268H241.386C241.422 49.824 241.458 49.464 241.47 48.984C241.494 48.528 241.482 48.12 241.41 47.688C241.818 47.724 242.13 47.784 242.37 47.868C242.538 47.928 242.574 48.048 242.466 48.24C242.382 48.396 242.346 48.684 242.31 49.032C242.286 49.452 242.25 49.8 242.202 50.268H244.242C244.758 50.268 245.25 50.244 245.754 50.244C245.91 50.244 245.934 50.268 245.934 50.388C245.934 50.652 245.922 51.048 245.898 51.492C245.85 52.836 245.67 54.456 245.454 55.284C245.214 56.184 244.938 56.532 244.35 56.724C244.074 56.82 243.57 56.868 243.102 56.868C242.994 56.868 242.934 56.82 242.91 56.724C242.838 56.448 242.706 56.256 242.49 56.052C243.234 56.088 243.702 56.04 244.026 55.932C244.374 55.812 244.458 55.692 244.65 54.948C244.89 54.012 245.022 52.584 245.058 51.012H242.106C241.902 52.404 241.566 53.484 241.026 54.384C240.534 55.248 239.55 56.208 238.482 56.856C238.374 56.928 238.278 56.94 238.194 56.844C238.062 56.688 237.81 56.544 237.546 56.448C238.818 55.8 239.73 54.96 240.306 54.036C240.762 53.268 241.122 52.26 241.29 51.024H239.886C239.346 51.024 238.818 51.036 238.23 51.084C238.122 51.096 238.11 51.06 238.086 50.928C238.062 50.76 238.026 50.448 238.014 50.208C238.686 50.256 239.238 50.268 239.874 50.268ZM255.87 52.98H251.442C250.398 52.98 249.894 53.1 249.822 53.1C249.714 53.1 249.654 53.052 249.618 52.932C249.57 52.728 249.522 52.344 249.498 52.02C250.23 52.116 251.154 52.128 252.15 52.128H255.834C256.662 52.128 257.55 52.116 258.462 52.092C258.606 52.08 258.642 52.104 258.642 52.236C258.654 52.416 258.654 52.668 258.642 52.86C258.642 52.992 258.606 53.016 258.462 53.004C257.562 52.98 256.674 52.98 255.87 52.98ZM265.314 49.344V51.084C266.694 51.48 268.026 52.044 269.226 52.752C269.322 52.8 269.346 52.86 269.31 52.944C269.226 53.16 269.118 53.376 269.022 53.532C268.95 53.628 268.902 53.652 268.794 53.58C267.678 52.848 266.394 52.284 265.302 51.972V54.756C265.302 55.488 265.326 56.424 265.338 57.204C265.35 57.324 265.314 57.36 265.182 57.36C265.002 57.372 264.762 57.372 264.57 57.36C264.438 57.36 264.402 57.324 264.402 57.192C264.438 56.424 264.45 55.488 264.45 54.756V49.416C264.45 48.516 264.402 47.904 264.318 47.496C264.738 47.532 265.098 47.58 265.314 47.652C265.506 47.7 265.458 47.832 265.398 48.012C265.326 48.216 265.314 48.576 265.314 49.344ZM267.858 48.264L268.29 47.952C268.338 47.916 268.374 47.916 268.422 47.952C268.902 48.288 269.43 48.876 269.778 49.404C269.814 49.452 269.802 49.5 269.754 49.536L269.406 49.824C269.346 49.872 269.286 49.86 269.25 49.8C268.902 49.212 268.398 48.648 267.858 48.264ZM268.914 47.46L269.298 47.16C269.346 47.124 269.382 47.112 269.43 47.148C269.91 47.52 270.45 48.048 270.798 48.552C270.834 48.612 270.822 48.648 270.762 48.696L270.438 48.984C270.39 49.032 270.342 49.032 270.294 48.96C269.994 48.468 269.478 47.88 268.914 47.46ZM278.082 51.444C278.634 51.444 279.078 51.888 279.078 52.44C279.078 52.98 278.634 53.436 278.082 53.436C277.542 53.436 277.086 52.98 277.086 52.44C277.086 51.888 277.542 51.444 278.082 51.444ZM294.114 48.084C294.786 48.084 295.326 48.624 295.326 49.296C295.326 49.968 294.786 50.508 294.114 50.508C293.442 50.508 292.902 49.968 292.902 49.296C292.902 48.624 293.442 48.084 294.114 48.084ZM294.114 48.54C293.694 48.54 293.358 48.876 293.358 49.296C293.358 49.716 293.694 50.052 294.114 50.052C294.534 50.052 294.87 49.716 294.87 49.296C294.87 48.876 294.534 48.54 294.114 48.54ZM284.802 55.092C286.218 53.892 287.154 52.464 287.61 51.348C287.862 50.736 287.982 50.388 287.994 49.992C288.39 50.124 288.738 50.256 288.942 50.388C289.11 50.484 289.074 50.616 288.966 50.724C288.834 50.856 288.714 51.024 288.546 51.408C287.97 52.716 287.154 54.06 285.834 55.356C285.714 55.476 285.57 55.5 285.462 55.404C285.33 55.284 285.09 55.164 284.802 55.092ZM290.994 50.472C291.198 50.328 291.402 50.184 291.522 50.112C291.63 50.052 291.678 50.04 291.774 50.136C293.058 51.408 294.066 52.98 294.774 54.444C294.834 54.552 294.834 54.624 294.726 54.696C294.594 54.792 294.378 54.96 294.162 55.068C294.054 55.128 294.018 55.104 293.97 54.996C293.238 53.328 292.278 51.804 290.994 50.472ZM300.282 48.948H303.762C304.17 48.948 304.302 48.936 304.446 48.852C304.518 48.804 304.602 48.828 304.686 48.888C304.854 49.02 305.034 49.2 305.178 49.38C305.25 49.476 305.226 49.56 305.118 49.656C304.998 49.752 304.89 49.896 304.77 50.1C304.242 51 303.63 51.888 302.994 52.68C304.23 53.58 305.346 54.54 306.438 55.692C306.546 55.788 306.546 55.824 306.45 55.944C306.318 56.1 306.162 56.244 306.018 56.376C305.934 56.448 305.886 56.448 305.802 56.352C304.794 55.2 303.654 54.18 302.49 53.304C301.122 54.72 299.682 55.836 298.206 56.652C298.074 56.724 298.002 56.736 297.906 56.628C297.75 56.448 297.534 56.328 297.282 56.196C299.094 55.296 300.51 54.192 301.698 52.944C302.478 52.116 303.27 51.048 303.978 49.728H300.366C299.694 49.728 299.178 49.764 298.638 49.8C298.53 49.8 298.518 49.764 298.494 49.668C298.458 49.5 298.422 49.14 298.422 48.9C299.01 48.948 299.538 48.948 300.282 48.948ZM25.662 70.364V69.572C25.662 68.9 25.626 68.312 25.53 67.916C25.902 67.94 26.31 67.988 26.526 68.048C26.694 68.096 26.718 68.228 26.622 68.384C26.526 68.54 26.502 68.924 26.502 69.632V70.364H28.062C28.926 70.364 29.814 70.34 30.522 70.304C30.63 70.292 30.666 70.34 30.666 70.448C30.666 70.616 30.666 70.82 30.654 70.988C30.654 71.108 30.63 71.156 30.51 71.156C29.73 71.12 28.794 71.108 28.026 71.108H26.502V73.196C26.502 74.216 26.538 75.008 26.538 75.776C26.538 76.292 26.358 76.676 25.938 76.88C25.506 77.096 24.942 77.204 24.558 77.228C24.462 77.24 24.39 77.192 24.354 77.084C24.246 76.82 24.09 76.604 23.85 76.412C24.462 76.412 25.002 76.328 25.338 76.196C25.59 76.1 25.662 75.944 25.662 75.5V71.108H23.742C23.07 71.108 22.326 71.144 21.69 71.192C21.582 71.204 21.546 71.144 21.534 71.024C21.522 70.88 21.486 70.508 21.486 70.28C22.338 70.352 23.058 70.364 23.718 70.364H25.662ZM22.77 72.476C23.07 72.584 23.334 72.704 23.574 72.86C23.766 72.98 23.73 73.052 23.586 73.196C23.502 73.28 23.406 73.388 23.262 73.664C22.974 74.216 22.518 74.948 22.026 75.512C21.918 75.632 21.846 75.668 21.702 75.584C21.51 75.464 21.294 75.368 21.078 75.32C21.786 74.612 22.194 73.964 22.494 73.352C22.626 73.088 22.722 72.8 22.77 72.476ZM28.326 72.992C28.518 72.848 28.686 72.728 28.854 72.608C28.938 72.548 28.998 72.572 29.082 72.644C29.718 73.208 30.27 73.964 30.762 74.816C30.834 74.948 30.81 74.996 30.714 75.092C30.594 75.2 30.414 75.344 30.258 75.44C30.162 75.5 30.102 75.5 30.054 75.392C29.646 74.564 29.046 73.688 28.326 72.992ZM29.97 67.244C30.642 67.244 31.182 67.784 31.182 68.456C31.182 69.128 30.642 69.668 29.97 69.668C29.298 69.668 28.758 69.128 28.758 68.456C28.758 67.784 29.298 67.244 29.97 67.244ZM29.97 67.7C29.55 67.7 29.214 68.036 29.214 68.456C29.214 68.876 29.55 69.212 29.97 69.212C30.39 69.212 30.726 68.876 30.726 68.456C30.726 68.036 30.39 67.7 29.97 67.7ZM39.87 72.98H35.442C34.398 72.98 33.894 73.1 33.822 73.1C33.714 73.1 33.654 73.052 33.618 72.932C33.57 72.728 33.522 72.344 33.498 72.02C34.23 72.116 35.154 72.128 36.15 72.128H39.834C40.662 72.128 41.55 72.116 42.462 72.092C42.606 72.08 42.642 72.104 42.642 72.236C42.654 72.416 42.654 72.668 42.642 72.86C42.642 72.992 42.606 73.016 42.462 73.004C41.562 72.98 40.674 72.98 39.87 72.98ZM49.494 69.344V71.084C50.874 71.48 52.206 72.044 53.406 72.752C53.502 72.8 53.526 72.86 53.49 72.944C53.406 73.16 53.298 73.376 53.202 73.532C53.13 73.628 53.082 73.652 52.974 73.58C51.858 72.848 50.574 72.284 49.482 71.972V74.756C49.482 75.488 49.506 76.424 49.518 77.204C49.53 77.324 49.494 77.36 49.362 77.36C49.182 77.372 48.942 77.372 48.75 77.36C48.618 77.36 48.582 77.324 48.582 77.192C48.618 76.424 48.63 75.488 48.63 74.756V69.416C48.63 68.516 48.582 67.904 48.498 67.496C48.918 67.532 49.278 67.58 49.494 67.652C49.686 67.7 49.638 67.832 49.578 68.012C49.506 68.216 49.494 68.576 49.494 69.344ZM62.082 71.444C62.634 71.444 63.078 71.888 63.078 72.44C63.078 72.98 62.634 73.436 62.082 73.436C61.542 73.436 61.086 72.98 61.086 72.44C61.086 71.888 61.542 71.444 62.082 71.444ZM72.102 69.692H76.974C77.514 69.692 77.742 69.656 77.85 69.596C77.958 69.536 78.066 69.548 78.15 69.632C78.354 69.812 78.522 69.992 78.666 70.196C78.774 70.352 78.726 70.472 78.606 70.556C78.426 70.688 78.306 70.748 78.042 71.06C77.154 72.104 75.894 73.388 74.622 74.408C75.03 74.816 75.486 75.332 75.858 75.812C75.942 75.908 75.942 75.968 75.858 76.064C75.726 76.208 75.57 76.34 75.414 76.448C75.318 76.508 75.282 76.52 75.21 76.412C74.13 75.02 72.894 73.808 71.502 72.812C71.646 72.668 71.85 72.464 71.982 72.344C72.066 72.272 72.102 72.284 72.21 72.344C72.906 72.872 73.506 73.352 74.058 73.856C75.306 72.824 76.578 71.504 77.382 70.448L72.102 70.472C71.13 70.472 70.386 70.52 69.726 70.568C69.594 70.58 69.558 70.544 69.534 70.436C69.498 70.196 69.45 69.896 69.438 69.596C70.23 69.68 71.058 69.692 72.102 69.692ZM87.126 70.676V74.948C87.126 75.668 87.138 76.352 87.162 77.12C87.174 77.228 87.138 77.264 87.042 77.264C86.826 77.276 86.562 77.276 86.346 77.264C86.25 77.264 86.226 77.228 86.226 77.12C86.25 76.4 86.274 75.68 86.274 74.984V71.432C85.014 72.548 83.838 73.364 82.506 74.144C82.398 74.204 82.314 74.18 82.23 74.096C82.074 73.94 81.858 73.82 81.63 73.712C83.118 72.896 84.366 72.032 85.362 71.18C86.274 70.4 87.126 69.548 87.69 68.864C88.194 68.252 88.41 67.892 88.518 67.508C88.842 67.676 89.166 67.868 89.346 68.048C89.466 68.168 89.442 68.312 89.298 68.384C89.154 68.456 88.926 68.672 88.626 69.02C88.122 69.632 87.69 70.112 87.126 70.676ZM98.766 70.736H100.518C101.166 70.736 101.874 70.736 102.558 70.712C102.702 70.7 102.738 70.724 102.738 70.856C102.75 71.024 102.75 71.228 102.738 71.384C102.738 71.516 102.714 71.54 102.57 71.54C101.958 71.528 101.19 71.504 100.53 71.504H98.742C98.67 73.064 98.502 73.976 97.914 74.948C97.302 75.956 96.306 76.772 95.37 77.276C95.238 77.36 95.118 77.336 95.034 77.24C94.89 77.084 94.686 76.976 94.446 76.868C95.622 76.28 96.57 75.56 97.134 74.624C97.686 73.736 97.854 72.776 97.902 71.504H95.382C94.77 71.504 94.23 71.528 93.654 71.564C93.534 71.576 93.51 71.54 93.498 71.408C93.474 71.264 93.438 70.928 93.426 70.688C94.158 70.748 94.758 70.748 95.394 70.748H97.938C97.938 70.1 97.938 69.656 97.926 68.984C97.914 68.492 97.89 68.096 97.794 67.7C98.166 67.724 98.562 67.76 98.802 67.832C98.97 67.88 98.958 68 98.898 68.12C98.826 68.3 98.778 68.552 98.778 68.828C98.778 69.5 98.778 70.064 98.766 70.736ZM106.098 69.44C106.254 69.248 106.434 69.032 106.566 68.888C106.65 68.804 106.71 68.816 106.782 68.864C107.454 69.236 108.246 69.8 108.942 70.46C109.026 70.544 109.038 70.592 108.978 70.688C108.882 70.832 108.666 71.108 108.57 71.204C108.498 71.288 108.462 71.3 108.378 71.216C107.67 70.52 106.878 69.908 106.098 69.44ZM106.386 75.74C106.854 75.608 107.214 75.464 107.646 75.248C108.942 74.564 109.998 73.916 111.114 73.016C112.326 72.02 113.322 71.132 114.354 69.788C114.402 70.124 114.474 70.352 114.558 70.58C114.63 70.736 114.618 70.832 114.474 71C113.67 71.948 112.614 72.908 111.558 73.76C110.538 74.576 109.338 75.344 107.958 76.1C107.634 76.292 107.406 76.472 107.298 76.568C107.178 76.676 107.082 76.676 106.974 76.556C106.794 76.364 106.578 76.076 106.386 75.74ZM116.778 75.068C118.194 73.868 119.13 72.44 119.586 71.324C119.838 70.712 119.958 70.364 119.97 69.968C120.366 70.1 120.714 70.232 120.918 70.364C121.086 70.46 121.05 70.592 120.942 70.7C120.81 70.832 120.69 71 120.522 71.384C119.946 72.692 119.13 74.036 117.81 75.332C117.69 75.452 117.546 75.476 117.438 75.38C117.306 75.26 117.066 75.14 116.778 75.068ZM122.97 70.448C123.174 70.304 123.378 70.16 123.498 70.088C123.606 70.028 123.654 70.016 123.75 70.112C125.034 71.384 126.042 72.956 126.75 74.42C126.81 74.528 126.81 74.6 126.702 74.672C126.57 74.768 126.354 74.936 126.138 75.044C126.03 75.104 125.994 75.08 125.946 74.972C125.214 73.304 124.254 71.78 122.97 70.448ZM124.41 68.9L124.842 68.588C124.89 68.552 124.926 68.552 124.974 68.588C125.454 68.924 125.982 69.512 126.33 70.04C126.366 70.088 126.354 70.136 126.306 70.172L125.958 70.46C125.898 70.508 125.838 70.496 125.802 70.436C125.454 69.848 124.95 69.284 124.41 68.9ZM125.466 68.096L125.85 67.796C125.898 67.76 125.934 67.748 125.982 67.784C126.462 68.156 127.002 68.684 127.35 69.188C127.386 69.248 127.374 69.284 127.314 69.332L126.99 69.62C126.942 69.668 126.894 69.668 126.846 69.596C126.546 69.104 126.03 68.516 125.466 68.096ZM135.87 72.98H131.442C130.398 72.98 129.894 73.1 129.822 73.1C129.714 73.1 129.654 73.052 129.618 72.932C129.57 72.728 129.522 72.344 129.498 72.02C130.23 72.116 131.154 72.128 132.15 72.128H135.834C136.662 72.128 137.55 72.116 138.462 72.092C138.606 72.08 138.642 72.104 138.642 72.236C138.654 72.416 138.654 72.668 138.642 72.86C138.642 72.992 138.606 73.016 138.462 73.004C137.562 72.98 136.674 72.98 135.87 72.98ZM143.874 70.268H145.386C145.422 69.824 145.458 69.464 145.47 68.984C145.494 68.528 145.482 68.12 145.41 67.688C145.818 67.724 146.13 67.784 146.37 67.868C146.538 67.928 146.574 68.048 146.466 68.24C146.382 68.396 146.346 68.684 146.31 69.032C146.286 69.452 146.25 69.8 146.202 70.268H148.242C148.758 70.268 149.25 70.244 149.754 70.244C149.91 70.244 149.934 70.268 149.934 70.388C149.934 70.652 149.922 71.048 149.898 71.492C149.85 72.836 149.67 74.456 149.454 75.284C149.214 76.184 148.938 76.532 148.35 76.724C148.074 76.82 147.57 76.868 147.102 76.868C146.994 76.868 146.934 76.82 146.91 76.724C146.838 76.448 146.706 76.256 146.49 76.052C147.234 76.088 147.702 76.04 148.026 75.932C148.374 75.812 148.458 75.692 148.65 74.948C148.89 74.012 149.022 72.584 149.058 71.012H146.106C145.902 72.404 145.566 73.484 145.026 74.384C144.534 75.248 143.55 76.208 142.482 76.856C142.374 76.928 142.278 76.94 142.194 76.844C142.062 76.688 141.81 76.544 141.546 76.448C142.818 75.8 143.73 74.96 144.306 74.036C144.762 73.268 145.122 72.26 145.29 71.024H143.886C143.346 71.024 142.818 71.036 142.23 71.084C142.122 71.096 142.11 71.06 142.086 70.928C142.062 70.76 142.026 70.448 142.014 70.208C142.686 70.256 143.238 70.268 143.874 70.268ZM159.87 72.98H155.442C154.398 72.98 153.894 73.1 153.822 73.1C153.714 73.1 153.654 73.052 153.618 72.932C153.57 72.728 153.522 72.344 153.498 72.02C154.23 72.116 155.154 72.128 156.15 72.128H159.834C160.662 72.128 161.55 72.116 162.462 72.092C162.606 72.08 162.642 72.104 162.642 72.236C162.654 72.416 162.654 72.668 162.642 72.86C162.642 72.992 162.606 73.016 162.462 73.004C161.562 72.98 160.674 72.98 159.87 72.98ZM169.314 69.344V71.084C170.694 71.48 172.026 72.044 173.226 72.752C173.322 72.8 173.346 72.86 173.31 72.944C173.226 73.16 173.118 73.376 173.022 73.532C172.95 73.628 172.902 73.652 172.794 73.58C171.678 72.848 170.394 72.284 169.302 71.972V74.756C169.302 75.488 169.326 76.424 169.338 77.204C169.35 77.324 169.314 77.36 169.182 77.36C169.002 77.372 168.762 77.372 168.57 77.36C168.438 77.36 168.402 77.324 168.402 77.192C168.438 76.424 168.45 75.488 168.45 74.756V69.416C168.45 68.516 168.402 67.904 168.318 67.496C168.738 67.532 169.098 67.58 169.314 67.652C169.506 67.7 169.458 67.832 169.398 68.012C169.326 68.216 169.314 68.576 169.314 69.344ZM171.858 68.264L172.29 67.952C172.338 67.916 172.374 67.916 172.422 67.952C172.902 68.288 173.43 68.876 173.778 69.404C173.814 69.452 173.802 69.5 173.754 69.536L173.406 69.824C173.346 69.872 173.286 69.86 173.25 69.8C172.902 69.212 172.398 68.648 171.858 68.264ZM172.914 67.46L173.298 67.16C173.346 67.124 173.382 67.112 173.43 67.148C173.91 67.52 174.45 68.048 174.798 68.552C174.834 68.612 174.822 68.648 174.762 68.696L174.438 68.984C174.39 69.032 174.342 69.032 174.294 68.96C173.994 68.468 173.478 67.88 172.914 67.46Z" fill="#3F3F3F"/>
<path d="M119.679 17.6V19.232C119.679 19.952 119.727 20.72 119.727 21.36C119.727 21.936 119.551 22.448 119.199 22.704C118.751 23.008 118.111 23.072 116.735 23.088C116.255 23.104 116.255 23.104 116.143 22.608C116.031 22.16 115.887 21.808 115.727 21.488C116.303 21.552 116.863 21.568 117.503 21.568C117.871 21.568 118.079 21.408 118.079 20.992V18.864C115.663 20.592 112.847 21.872 109.727 22.864C109.551 22.912 109.439 22.944 109.343 22.944C109.183 22.944 109.119 22.848 108.991 22.544C108.815 22.144 108.559 21.808 108.319 21.6C111.567 20.752 114.399 19.632 116.719 18.144C114.399 18.464 112.239 18.688 109.967 18.88C109.711 18.896 109.503 18.96 109.391 19.024C109.311 19.072 109.231 19.12 109.119 19.12C109.023 19.12 108.943 19.024 108.895 18.88C108.783 18.464 108.687 17.92 108.623 17.44C109.231 17.44 109.711 17.424 110.303 17.392C110.527 17.392 110.767 17.376 111.007 17.36V12.272C111.007 11.056 110.975 10.464 110.975 10.368C110.975 10.208 110.991 10.192 111.151 10.192C111.263 10.192 111.775 10.224 113.263 10.224H113.567C113.743 9.92 113.871 9.632 113.983 9.36C114.095 9.072 114.159 8.816 114.207 8.448C114.719 8.496 115.471 8.592 115.919 8.688C116.063 8.72 116.143 8.816 116.143 8.912C116.143 9.008 116.079 9.072 115.999 9.136C115.903 9.216 115.807 9.328 115.743 9.456C115.599 9.76 115.487 10 115.359 10.224H117.423C118.911 10.224 119.423 10.192 119.535 10.192C119.695 10.192 119.711 10.208 119.711 10.368C119.711 10.464 119.679 11.152 119.679 12.496V15.712C120.047 15.328 120.383 14.928 120.703 14.496C120.911 14.24 121.167 13.856 121.375 13.456C121.839 13.824 122.111 14.048 122.383 14.336C122.511 14.48 122.591 14.576 122.591 14.672C122.591 14.768 122.527 14.88 122.399 14.928C122.223 15.008 122.047 15.152 121.759 15.488C121.119 16.256 120.415 16.96 119.679 17.6ZM118.079 11.536H112.591V12.528H118.079V11.536ZM112.591 14.768H118.079V13.776H112.591V14.768ZM118.079 16.704V16.016H112.591V17.248C114.239 17.136 116.127 16.944 118.079 16.704ZM132.335 9.36L133.471 8.912C133.679 8.816 133.711 8.832 133.775 8.992C134.815 11.44 136.783 13.648 138.959 14.896C138.671 15.152 138.303 15.632 138.031 16.096C137.887 16.336 137.823 16.448 137.727 16.448C137.647 16.448 137.551 16.368 137.391 16.24C136.847 15.84 136.335 15.408 135.871 14.944C135.839 15.408 135.839 15.968 135.823 16.528C135.775 18.24 135.663 19.52 135.423 21.008C135.215 22.272 134.607 22.976 133.039 22.976C132.639 22.976 132.335 22.976 131.951 22.944C131.455 22.912 131.471 22.912 131.359 22.384C131.247 21.84 131.087 21.408 130.863 21.104C131.663 21.216 132.127 21.248 132.687 21.248C133.359 21.248 133.631 20.992 133.759 20.256C133.919 19.328 134.031 18.096 134.063 16.288H131.215C130.911 19.488 129.311 21.76 126.351 23.072C126.175 23.152 126.063 23.2 125.967 23.2C125.839 23.2 125.791 23.088 125.631 22.816C125.423 22.432 125.119 22.08 124.815 21.856C127.727 20.8 129.135 19.104 129.439 16.288H129.247C127.743 16.288 127.231 16.32 127.135 16.32C126.975 16.32 126.959 16.304 126.959 16.144V14.976C126.463 15.456 125.951 15.888 125.407 16.304C125.231 16.432 125.135 16.512 125.055 16.512C124.943 16.512 124.879 16.4 124.719 16.16C124.463 15.76 124.095 15.36 123.823 15.184C125.983 13.792 127.535 11.904 128.447 9.904C128.591 9.584 128.687 9.28 128.767 8.88C129.343 9.024 129.999 9.248 130.431 9.44C130.607 9.52 130.655 9.6 130.655 9.712C130.655 9.808 130.607 9.872 130.527 9.952C130.367 10.08 130.271 10.224 130.159 10.464C129.359 12.192 128.383 13.552 127.231 14.704C127.455 14.72 128.015 14.736 129.247 14.736H133.551C134.943 14.736 135.471 14.72 135.631 14.704C134.143 13.2 132.991 11.456 132.191 9.632C132.127 9.456 132.159 9.44 132.335 9.36ZM149.903 11.024H148.575C147.135 11.024 146.623 11.056 146.543 11.056C146.383 11.056 146.367 11.04 146.367 10.88V9.616C146.367 9.456 146.383 9.44 146.543 9.44C146.623 9.44 147.135 9.472 148.575 9.472H152.239C153.679 9.472 154.191 9.44 154.287 9.44C154.447 9.44 154.463 9.456 154.463 9.616V10.88C154.463 11.04 154.447 11.056 154.287 11.056C154.191 11.056 153.679 11.024 152.239 11.024H151.535V14.912H152.799C153.695 14.912 153.951 14.88 154.047 14.88C154.207 14.88 154.223 14.896 154.223 15.056V16.336C154.223 16.496 154.207 16.512 154.047 16.512C153.951 16.512 153.695 16.48 152.799 16.48H151.535V21.12H152.399C153.903 21.12 154.431 21.088 154.527 21.088C154.671 21.088 154.687 21.104 154.687 21.264V22.528C154.687 22.688 154.671 22.704 154.527 22.704C154.431 22.704 153.903 22.672 152.399 22.672H148.223C146.703 22.672 146.207 22.704 146.111 22.704C145.951 22.704 145.935 22.688 145.935 22.528V21.264C145.935 21.104 145.951 21.088 146.111 21.088C146.175 21.088 146.399 21.104 146.943 21.12V16.16C146.943 15.056 146.927 14.464 146.815 13.744C147.423 13.76 147.919 13.792 148.495 13.856C148.655 13.872 148.751 13.936 148.751 14.016C148.751 14.16 148.703 14.24 148.655 14.352C148.559 14.544 148.559 14.96 148.559 16.128V21.12H149.903V11.024ZM145.439 19.36V20.512C145.439 22.368 145.471 22.72 145.471 22.816C145.471 22.976 145.455 22.992 145.295 22.992H144.127C143.967 22.992 143.951 22.976 143.951 22.816V22.384H142.303V23.12C142.303 23.28 142.287 23.296 142.127 23.296H140.959C140.783 23.296 140.767 23.28 140.767 23.12C140.767 23.008 140.799 22.64 140.799 20.704V19.632C140.799 18.624 140.767 18.24 140.767 18.128C140.767 17.968 140.783 17.952 140.959 17.952C141.055 17.952 141.391 17.984 142.415 17.984H143.823C144.863 17.984 145.183 17.952 145.295 17.952C145.455 17.952 145.471 17.968 145.471 18.128C145.471 18.224 145.439 18.624 145.439 19.36ZM143.951 19.312H142.303V21.072H143.951V19.312ZM141.983 11.424H144.047C145.263 11.424 145.663 11.392 145.759 11.392C145.919 11.392 145.935 11.408 145.935 11.568V12.704C145.935 12.88 145.919 12.896 145.759 12.896C145.663 12.896 145.263 12.864 144.047 12.864H141.983C140.767 12.864 140.367 12.896 140.271 12.896C140.127 12.896 140.111 12.88 140.111 12.704V11.568C140.111 11.408 140.127 11.392 140.271 11.392C140.367 11.392 140.767 11.424 141.983 11.424ZM142.463 9.232H143.871C144.911 9.232 145.215 9.2 145.311 9.2C145.487 9.2 145.503 9.216 145.503 9.376V10.448C145.503 10.608 145.487 10.624 145.311 10.624C145.215 10.624 144.911 10.592 143.871 10.592H142.463C141.423 10.592 141.103 10.624 141.007 10.624C140.847 10.624 140.831 10.608 140.831 10.448V9.376C140.831 9.216 140.847 9.2 141.007 9.2C141.103 9.2 141.423 9.232 142.463 9.232ZM142.495 15.824H143.775C144.751 15.824 145.023 15.792 145.119 15.792C145.295 15.792 145.311 15.808 145.311 15.968V17.008C145.311 17.152 145.295 17.168 145.119 17.168C145.023 17.168 144.751 17.136 143.775 17.136H142.495C141.519 17.136 141.231 17.168 141.135 17.168C140.975 17.168 140.959 17.152 140.959 17.008V15.968C140.959 15.808 140.975 15.792 141.135 15.792C141.231 15.792 141.519 15.824 142.495 15.824ZM142.495 13.696H143.775C144.751 13.696 145.023 13.664 145.119 13.664C145.295 13.664 145.311 13.68 145.311 13.84V14.864C145.311 15.024 145.295 15.04 145.119 15.04C145.023 15.04 144.751 15.008 143.775 15.008H142.495C141.519 15.008 141.231 15.04 141.135 15.04C140.975 15.04 140.959 15.024 140.959 14.864V13.84C140.959 13.68 140.975 13.664 141.135 13.664C141.231 13.664 141.519 13.696 142.495 13.696ZM169.919 11.584V19.136C169.919 19.888 169.951 20.704 169.951 21.344C169.951 21.968 169.839 22.352 169.487 22.656C169.119 22.976 168.479 23.072 167.343 23.072C166.847 23.072 166.847 23.072 166.735 22.576C166.639 22.144 166.479 21.696 166.287 21.376C166.831 21.424 167.359 21.44 167.663 21.44C168.159 21.44 168.287 21.296 168.287 20.88V17.808H165.007C164.607 20.32 163.711 21.68 162.159 22.944C161.967 23.104 161.871 23.184 161.775 23.184C161.695 23.184 161.599 23.088 161.423 22.896C161.119 22.576 160.831 22.32 160.447 22.096C162.879 20.336 163.631 18.928 163.631 13.552V11.584C163.631 10.176 163.599 9.456 163.599 9.344C163.599 9.184 163.615 9.168 163.791 9.168C163.887 9.168 164.303 9.2 165.583 9.2H167.967C169.231 9.2 169.663 9.168 169.759 9.168C169.935 9.168 169.951 9.184 169.951 9.344C169.951 9.44 169.919 10.176 169.919 11.584ZM165.183 16.336H168.287V14.24H165.279C165.263 15.008 165.231 15.712 165.183 16.336ZM168.287 10.704H165.279V12.768H168.287V10.704ZM158.191 20.176H156.959C156.799 20.176 156.783 20.176 156.783 20.016C156.783 19.904 156.815 19.248 156.815 15.68V13.136C156.815 10.608 156.783 9.904 156.783 9.808C156.783 9.648 156.799 9.632 156.959 9.632C157.071 9.632 157.439 9.664 158.575 9.664H160.431C161.567 9.664 161.935 9.632 162.047 9.632C162.207 9.632 162.223 9.648 162.223 9.808C162.223 9.904 162.191 10.576 162.191 12.672V15.424C162.191 18.816 162.223 19.456 162.223 19.552C162.223 19.712 162.207 19.728 162.047 19.728H160.847C160.671 19.728 160.655 19.712 160.655 19.552V18.768H158.383V20.016C158.383 20.176 158.367 20.176 158.191 20.176ZM158.383 17.312H160.655V14.88H158.383V17.312ZM160.655 11.104H158.383V13.44H160.655V11.104ZM184.383 17.68H174.335C172.927 17.68 172.447 17.712 172.351 17.712C172.207 17.712 172.191 17.696 172.191 17.536V16.656C172.191 16.512 172.207 16.496 172.351 16.496C172.447 16.496 172.927 16.528 174.335 16.528H178.479V15.888H176.095C174.527 15.888 173.999 15.92 173.887 15.92C173.743 15.92 173.727 15.904 173.727 15.744V15.056C173.727 14.896 173.743 14.88 173.887 14.88C173.999 14.88 174.527 14.912 176.095 14.912H178.479V14.272H176.255C174.719 14.272 174.191 14.304 174.095 14.304C173.919 14.304 173.903 14.288 173.903 14.128V13.376C173.903 13.216 173.919 13.2 174.095 13.2C174.191 13.2 174.719 13.232 176.255 13.232H178.479V12.544H174.703C173.183 12.544 172.639 12.576 172.543 12.576C172.383 12.576 172.367 12.56 172.367 12.4V11.552C172.367 11.392 172.383 11.376 172.543 11.376C172.639 11.376 173.183 11.408 174.703 11.408H178.479V10.736H176.335C174.767 10.736 174.223 10.768 174.111 10.768C173.951 10.768 173.935 10.752 173.935 10.592V9.776C173.935 9.6 173.951 9.584 174.111 9.584C174.223 9.584 174.767 9.616 176.335 9.616H178.479C178.463 9.088 178.431 8.816 178.367 8.512C178.959 8.528 179.487 8.56 180.047 8.624C180.175 8.64 180.271 8.704 180.271 8.8C180.271 8.896 180.239 8.96 180.191 9.088C180.159 9.184 180.111 9.312 180.111 9.616H181.967C183.663 9.616 184.511 9.584 184.607 9.584C184.767 9.584 184.783 9.6 184.783 9.776C184.783 9.872 184.751 10.288 184.751 11.168V11.328C185.599 11.328 186.095 11.296 186.191 11.296C186.367 11.296 186.383 11.312 186.383 11.488V12.464C186.383 12.624 186.367 12.64 186.191 12.64C186.095 12.64 185.599 12.608 184.751 12.608V12.704C184.751 13.552 184.783 14.032 184.783 14.128C184.783 14.288 184.767 14.304 184.607 14.304C184.511 14.304 183.663 14.272 181.967 14.272H180.111V14.912H182.671C184.223 14.912 184.767 14.88 184.863 14.88C185.007 14.88 185.023 14.896 185.023 15.056V15.744C185.023 15.904 185.007 15.92 184.863 15.92C184.767 15.92 184.223 15.888 182.671 15.888H180.111V16.528H184.383C185.791 16.528 186.271 16.496 186.367 16.496C186.527 16.496 186.543 16.512 186.543 16.656V17.536C186.543 17.696 186.527 17.712 186.367 17.712C186.271 17.712 185.791 17.68 184.383 17.68ZM183.183 13.232V12.544H180.111V13.232H183.183ZM183.183 10.736H180.111V11.408H183.183V10.736ZM175.727 23.232H174.447C174.287 23.232 174.271 23.216 174.271 23.056C174.271 22.96 174.303 22.64 174.303 20.816V19.792C174.303 18.912 174.271 18.544 174.271 18.448C174.271 18.272 174.287 18.256 174.447 18.256C174.559 18.256 175.119 18.288 176.671 18.288H182.079C183.631 18.288 184.191 18.256 184.303 18.256C184.463 18.256 184.479 18.272 184.479 18.448C184.479 18.544 184.447 18.912 184.447 19.6V20.784C184.447 22.576 184.479 22.912 184.479 23.008C184.479 23.152 184.463 23.168 184.303 23.168H183.023C182.863 23.168 182.847 23.152 182.847 23.008V22.64H175.903V23.056C175.903 23.216 175.887 23.232 175.727 23.232ZM175.903 21.616H182.847V20.928H175.903V21.616ZM175.903 19.328V20H182.847V19.328H175.903ZM196.447 12.192H196.383C196.015 14.912 195.343 17.408 194.383 19.088C193.695 20.288 192.863 20.928 191.663 20.928C190.255 20.928 188.831 19.424 188.831 16.816C188.831 15.28 189.487 13.808 190.639 12.656C191.983 11.312 193.679 10.608 195.839 10.608C199.679 10.608 201.935 12.976 201.935 16.16C201.935 19.136 200.255 21.008 197.007 21.984C196.671 22.08 196.527 22.016 196.319 21.696C196.143 21.424 195.807 21.056 195.199 20.688C197.903 20.048 200.031 18.928 200.031 15.904C200.031 14 198.591 12.192 196.447 12.192ZM194.527 12.288C193.407 12.512 192.511 12.96 191.791 13.744C191.023 14.608 190.543 15.68 190.543 16.704C190.543 18.176 191.135 18.992 191.631 18.992C192.047 18.992 192.399 18.784 192.831 18.016C193.535 16.72 194.255 14.416 194.527 12.288ZM210.703 12.816H211.887C212.047 12.816 212.175 12.784 212.255 12.736C212.351 12.688 212.399 12.656 212.479 12.656C212.607 12.656 212.735 12.736 213.135 13.104C213.503 13.456 213.583 13.568 213.583 13.712C213.583 13.808 213.551 13.904 213.471 14C213.391 14.096 213.343 14.256 213.263 14.768C212.575 18.576 211.231 20.64 208.959 22.672C208.799 22.8 208.703 22.88 208.623 22.88C208.527 22.88 208.431 22.768 208.255 22.528C207.983 22.16 207.743 21.952 207.455 21.744C208.831 20.752 209.871 19.632 210.607 18.24C210.175 17.744 209.871 17.44 209.487 17.136C209.327 17.008 209.343 16.96 209.439 16.816L209.999 15.968C210.095 15.824 210.159 15.808 210.287 15.92C210.655 16.224 210.959 16.48 211.247 16.784C211.519 16.016 211.727 15.168 211.871 14.224H210.271C209.807 15.552 209.215 16.64 208.495 17.552C208.383 17.696 208.287 17.776 208.207 17.776C208.127 17.776 208.047 17.68 207.935 17.488C207.727 17.136 207.487 16.848 207.231 16.624C208.559 15.088 209.311 13.152 209.583 11.024C208.751 11.04 208.447 11.056 208.367 11.056C208.207 11.056 208.191 11.04 208.191 10.88V9.76C208.191 9.6 208.207 9.584 208.367 9.584C208.463 9.584 208.815 9.616 209.935 9.616H211.743C212.847 9.616 213.199 9.584 213.311 9.584C213.455 9.584 213.471 9.6 213.471 9.76V10.88C213.471 11.04 213.455 11.056 213.311 11.056C213.199 11.056 212.847 11.024 211.743 11.024H211.071C210.959 11.664 210.847 12.256 210.703 12.816ZM205.423 20.624V17.232C205.423 16.672 205.423 15.936 205.439 15.216C205.183 15.616 204.911 16.016 204.623 16.416C204.527 16.544 204.431 16.624 204.367 16.624C204.255 16.624 204.175 16.496 204.111 16.208C204.015 15.776 203.839 15.344 203.615 15.008C204.767 13.52 205.679 11.888 206.239 9.824C206.351 9.456 206.431 9.008 206.447 8.64C207.007 8.8 207.439 8.912 207.935 9.104C208.111 9.168 208.207 9.248 208.207 9.36C208.207 9.472 208.143 9.552 208.031 9.664C207.935 9.76 207.871 9.904 207.743 10.32C207.519 11.024 207.263 11.68 206.991 12.32V20.624C206.991 22.208 207.007 22.992 207.007 23.072C207.007 23.232 207.007 23.248 206.831 23.248H205.567C205.423 23.248 205.407 23.232 205.407 23.072C205.407 22.976 205.423 22.208 205.423 20.624ZM218.127 11.024V17.776C218.127 18.896 218.159 20.272 218.159 21.072C218.159 21.856 218.079 22.288 217.599 22.624C217.167 22.928 216.863 23.04 215.567 23.04C215.055 23.04 215.055 23.04 214.959 22.528C214.879 22.048 214.719 21.6 214.495 21.296C215.119 21.376 215.663 21.408 215.951 21.408C216.383 21.408 216.543 21.296 216.543 20.784V11.056C216.543 10.032 216.527 9.52 216.431 8.8C217.023 8.816 217.567 8.832 218.079 8.896C218.223 8.912 218.319 8.992 218.319 9.072C218.319 9.2 218.271 9.296 218.223 9.408C218.127 9.6 218.127 9.936 218.127 11.024ZM213.967 16.8V12.512C213.967 11.456 213.951 10.864 213.871 10.128C214.399 10.144 215.039 10.192 215.407 10.24C215.567 10.256 215.631 10.336 215.631 10.4C215.631 10.544 215.551 10.656 215.519 10.784C215.471 11.008 215.471 11.312 215.471 12.496V16.8C215.471 18.16 215.503 18.8 215.503 18.896C215.503 19.056 215.487 19.072 215.327 19.072H214.111C213.951 19.072 213.935 19.056 213.935 18.896C213.935 18.784 213.967 18.16 213.967 16.8Z" fill="#3F3F3F"/>
</svg>
