<svg width="361" height="73" viewBox="0 0 361 73" fill="none" xmlns="http://www.w3.org/2000/svg">
<path d="M203.635 42.6799L205.315 39.664C209.37 41.5597 212.991 43.6853 216.582 46.3278L213.28 51.4406C210.239 49.1427 207.024 47.1033 203.635 45.3225V58.6501H197.582V31.6501H203.635V42.6799Z" fill="#D72B2B"/>
<path d="M169.092 32.6501C172.369 34.2045 175.411 36.1545 178.219 38.4436L174.241 43.0219C171.55 40.8175 168.683 38.8958 165.582 37.2567L169.092 32.6501ZM166.021 52.9132C170.555 52.1501 174.943 50.7936 178.746 48.2784C182.782 45.6219 185.854 41.948 188.282 37.8784L192.582 42.5697C189.949 46.6958 186.556 50.3415 182.431 53.111C178.336 55.8806 173.656 57.7458 168.741 58.6501L166.021 52.9132Z" fill="#D72B2B"/>
<path d="M153.515 42.7287V59.6501H147.393V46.1997C144.534 47.6171 141.531 48.7452 138.527 49.7576L135.582 44.551C139.885 43.1336 144.072 41.4849 147.999 39.1997C151.638 37.0882 154.93 34.4849 158.019 31.6501L162.582 35.4973C159.752 38.1584 156.778 40.6171 153.515 42.7287Z" fill="#D72B2B"/>
<path d="M123.437 37.0588H133.532V42.7359H123.437V54.6168C123.437 56.636 123 58.304 120.957 59.1527C119.761 59.6501 117.281 59.6501 115.385 59.6501L113.984 53.7975C114.772 53.8267 115.589 53.8853 116.377 53.8853C117.252 53.8853 117.515 53.5926 117.515 52.7147V42.7359H106.778V37.0588H117.515V32.1133H123.437V37.0588ZM130.848 30.6501C132.511 30.6501 133.911 32.0548 133.911 33.7228C133.911 35.3908 132.511 36.7955 130.848 36.7955C129.185 36.7955 127.784 35.3908 127.784 33.7228C127.784 32.0548 129.185 30.6501 130.848 30.6501ZM130.848 32.523C130.177 32.523 129.622 33.0497 129.622 33.7228C129.622 34.3666 130.177 34.9226 130.848 34.9226C131.489 34.9226 132.044 34.3959 132.044 33.7228C132.044 33.0497 131.489 32.523 130.848 32.523ZM128.922 43.7601C131.023 46.9206 132.948 50.1981 134.582 53.6512L129.301 56.636C127.784 53.1537 126.063 49.8177 124.021 46.6279L128.922 43.7601ZM110.542 56.9872L105.582 53.6804C108.12 50.7248 110.221 47.4473 111.65 43.8187L116.814 46.189C115.356 50.1396 113.138 53.7097 110.542 56.9872Z" fill="#D72B2B"/>
<path d="M95.477 54.3816C98.3212 53.6115 100.554 51.9584 100.554 48.8214C100.554 46.7551 99.6191 44.8579 97.5195 44.2004C97.0232 47.5441 96.1451 51.5452 94.2936 54.4192C93.5873 55.5275 92.5948 56.4667 91.1822 56.4667C89.8843 56.4667 88.8344 55.6402 88.09 54.6634C87.0211 53.2358 86.582 51.47 86.582 49.7231C86.582 44.3695 90.5714 40.6501 95.9543 40.6501C100.936 40.6501 104.582 43.8059 104.582 48.8214C104.582 53.3109 101.757 56.4104 97.5195 57.6501L95.477 54.3816ZM93.6446 44.4258C91.4495 45.3463 90.3615 47.6004 90.3615 49.8734C90.3615 50.2866 90.476 52.259 91.0295 52.259C91.4113 52.259 91.8122 51.2634 92.0603 50.5684C92.8047 48.596 93.301 46.4921 93.6446 44.4258Z" fill="#D72B2B"/>
<path d="M83.2624 47.4557C84.4171 48.2878 85.514 49.1199 86.582 50.0093L83.6088 55.6905C82.6851 54.8297 81.7326 53.9976 80.7511 53.1942C79.3078 55.6331 77.6047 57.8425 75.4109 59.6501L70.5037 56.3792C72.813 54.6002 74.6027 52.3622 76.0748 49.8372C74.7759 49.0625 73.4769 48.3738 72.0624 47.8574C71.1387 49.8085 70.0996 51.7022 68.8295 53.4525C67.5594 55.2027 65.914 56.8669 63.5758 56.8669C60.1985 56.8669 58.582 53.8255 58.582 50.8127C58.582 45.5046 62.9119 41.4876 68.1944 41.4876C68.4253 41.4876 68.6563 41.5162 68.8872 41.5162C69.3202 40.5407 69.6954 39.5364 70.0707 38.5322C68.1655 38.7617 66.2315 38.9052 64.2975 38.9052C63.9511 38.9052 63.5758 38.9052 63.2006 38.9052L63.1717 33.1666C64.3841 33.2527 65.6253 33.3101 66.8666 33.3101C69.3202 33.3101 71.8893 33.2527 74.2851 32.6501L77.6047 35.2325C76.5367 37.7288 75.4975 40.2251 74.4295 42.75C75.7573 43.1804 77.0274 43.7543 78.2686 44.3855C78.7016 42.664 78.9903 40.9711 79.0769 39.1921L84.7057 40.5407C84.4748 42.8935 83.9841 45.1889 83.2624 47.4557ZM66.6645 46.8244C65.6831 47.0827 64.846 47.5131 64.182 48.2878C63.6336 48.9477 63.2872 49.8085 63.2872 50.698C63.2872 50.8701 63.2583 51.3292 63.547 51.3292C64.2975 51.3292 66.2892 47.5418 66.6645 46.8244Z" fill="#D72B2B"/>
<path d="M32.5073 31.6501C34.4113 32.841 36.579 34.4676 38.0729 36.1522L34.3527 40.48C33.0931 38.8244 30.7497 37.0236 28.9921 35.9199L32.5073 31.6501ZM53.979 53.8701H57.5234L56.4982 58.9821H41.2952C38.5123 58.9821 36.6376 58.2269 34.6164 56.3389C33.5032 57.5879 31.8335 58.7497 30.3982 59.6501L28.582 53.8701C29.4315 53.5506 30.7497 53.0277 31.482 52.563V47.1896H29.1093V42.2809H36.7255V51.2269C37.3406 52.8825 38.5123 53.5796 40.2406 53.841L36.9012 49.0485C39.9184 47.6543 41.9982 45.3306 43.5214 42.6294C44.3709 41.119 45.074 39.4925 45.6305 37.8078H39.0396V32.5215H50.7568C50.7568 34.9614 50.874 37.1979 51.3133 39.2601C52.1043 42.9489 53.8618 46.0858 57.582 48.8742L53.979 53.8701ZM40.5043 53.8701H53.9497C50.8154 51.3431 48.9113 48.6418 47.7396 44.6916C46.2164 48.3514 43.6386 51.6916 40.2699 53.841L40.5043 53.8701Z" fill="#D72B2B"/>
<path d="M16.6742 34.9297H26.582V52.9674H21.2825V51.8083H16.6742V58.6501H11.4323V51.8083H6.85277V52.9674H1.58203V34.9297H11.4323V31.6501H16.6742V34.9297ZM6.85277 39.5946V41.1779H11.4323V39.5946H6.85277ZM21.2825 39.5946H16.6742V41.1779H21.2825V39.5946ZM21.2825 45.4187H16.6742V47.002H21.2825V45.4187ZM6.85277 45.4187V47.002H11.4323V45.4187H6.85277Z" fill="#D72B2B"/>
<path d="M342.176 40.55H330.582V36.7069H342.205V37.3715H344.031C343.654 35.8689 342.93 34.193 342.176 32.8349L346.988 31.679C347.828 33.0371 348.872 35.2043 349.336 36.7069L347.017 37.3715H350.408C351.104 35.4933 351.77 33.6151 352.263 31.6501L357.973 32.5748C357.539 33.9329 356.669 36.1579 355.915 37.3715H357.278V49.0454H354.031V53.4087C354.031 54.0155 354.06 54.0733 354.292 54.0733H354.64C354.843 54.0733 354.93 53.7843 354.959 53.6109C355.017 53.322 355.075 51.7327 355.075 51.386V51.097L358.582 52.3106C358.466 54.2177 358.379 56.2982 357.915 57.5697C357.51 58.6966 356.785 59.2167 355.452 59.2167H351.654C350.118 59.2167 349.191 58.3787 349.191 56.8184V49.0454H348.437C348.321 53.7554 347.539 56.5872 343.741 59.6501L341.423 56.7028V58.4654H336.06V59.3901H331.22V49.9701H341.423V55.0846C343.191 53.7265 343.886 51.9928 343.886 49.7967C343.886 49.5366 343.886 49.3055 343.857 49.0454H342.176V40.55ZM331.22 32.3147H341.423V36.0134H331.22V32.3147ZM331.22 41.2435H341.423V44.9133H331.22V41.2435ZM352.06 42.2549H347.278V44.1909H352.06V42.2549ZM331.22 45.6068H341.423V49.2766H331.22V45.6068ZM337.336 53.5242H336.06V54.7957H337.336V53.5242Z" fill="#3F3F3F"/>
<path d="M318.866 42.7746L320.393 42.9199C320.393 43.4717 320.364 44.0526 320.306 44.5174H321.113V42.5713H326.154V44.5174H329.15V49.368H326.154V50.4427H329.582V55.4966H326.154V59.3306H321.113V55.4966H316.331V50.4427H318.607L315.87 48.758V56.4551C315.87 57.8784 314.919 59.3306 313.393 59.3306H309.734L308.812 54.48H311.319C311.895 54.48 312.269 54.3929 312.269 53.6087V52.9406H307.487C307.372 55.2352 306.652 57.646 305.557 59.6501L301.582 56.368C303.109 54.0443 303.627 50.2103 303.627 47.48V41.9323C303.368 42.1356 303.109 42.3389 302.85 42.5713L301.668 36.9074C303.397 35.4261 304.491 33.7705 305.327 31.6501L310.714 31.8535C310.598 32.202 310.483 32.5506 310.339 32.8991H315.265V37.314C315.006 37.7788 314.747 38.2726 314.459 38.7373H315.87V39.5506C316.763 38.8535 317.598 37.8659 318.031 36.7912H316.043V32.4344H329.323C329.323 33.6833 329.265 34.9614 329.179 36.2394C329.092 37.4593 328.948 39.3182 328.487 40.3348C327.94 41.5257 326.759 41.9613 325.52 41.9613H322.409L321.891 39.4925C321.113 40.7705 320.076 41.8742 318.866 42.7746ZM322.928 36.7912C322.841 37.285 322.755 37.6335 322.582 38.0692H323.331C324.224 38.0692 324.282 37.7207 324.368 36.7912H322.928ZM306.796 38.7373H308.812C309.187 38.2435 309.389 37.8659 309.561 37.314H307.891C307.545 37.7788 307.171 38.2726 306.796 38.7373ZM317.973 42.6875L315.87 40.2767V47.9738C316.561 46.2601 316.705 44.4012 316.792 42.5713L317.973 42.6875ZM308.812 42.9199H307.804V44.0817H308.812V42.9199ZM312.269 42.9199H311.261V44.0817H312.269V42.9199ZM308.812 47.9448H307.804V49.1356H308.812V47.9448ZM312.269 47.9448H311.261V49.1356H312.269V47.9448ZM319.096 50.4427H321.113V49.368H319.471C319.356 49.7456 319.24 50.0651 319.096 50.4427Z" fill="#3F3F3F"/>
<path d="M294.529 46.9408C296.067 46.2986 297.644 45.732 299.222 45.1654L300.582 48.3763C298.808 48.9429 297.033 49.5095 295.298 50.1895C295.318 51.285 295.338 52.3994 295.338 53.5137H291.671C291.69 52.9282 291.73 52.3427 291.73 51.7761C290.843 52.2105 290.074 52.6827 290.074 53.3815C290.074 54.307 291.493 54.3448 292.262 54.3448C294.608 54.3448 296.58 54.0804 299.103 53.6837L298.749 57.3291C297.152 57.5179 295.515 57.6501 293.899 57.6501C291.572 57.6501 286.387 57.5557 286.387 53.5704C286.387 51.0017 289.088 49.4151 291.198 48.3952C290.941 48.2063 290.606 48.1307 290.291 48.1307C288.102 48.1307 286.624 50.5672 285.539 52.0783L282.582 50.0384C283.942 48.5274 285.145 46.8841 286.249 45.1842C285.382 45.2031 284.514 45.2031 283.647 45.2031L283.726 41.7278C284.908 41.8033 286.111 41.8411 287.294 41.8411C287.609 41.8411 287.905 41.8411 288.221 41.8411C288.615 41.1045 288.989 40.3868 289.364 39.6501L293.149 40.4623L292.42 41.6711C294.293 41.52 296.166 41.2745 298.019 40.9534L297.92 44.3721C295.397 44.6932 292.873 44.9009 290.35 45.052L289.896 45.7887C290.429 45.6564 290.961 45.5809 291.513 45.5809C292.735 45.5809 293.82 45.902 294.529 46.9408Z" fill="#3F3F3F"/>
<path d="M262.582 43.5463L269.014 42.1758C270.533 41.8567 272.092 41.6501 273.651 41.6501C275.722 41.6501 277.814 42.1195 279.372 43.4712C280.891 44.7853 281.582 46.6627 281.582 48.5776C281.582 55.3548 274.637 56.6501 268.915 56.6501C268.797 56.6501 268.679 56.6501 268.56 56.6501L267.692 52.6889C268.166 52.7265 268.659 52.7453 269.132 52.7453C271.224 52.7453 273.789 52.5012 275.604 51.4124C276.63 50.7928 277.202 49.704 277.202 48.54C277.202 47.545 276.788 46.4562 275.88 45.9117C275.229 45.5175 274.44 45.4048 273.69 45.4048C270.711 45.4048 266.607 46.6439 263.726 47.4887L262.582 43.5463Z" fill="#3F3F3F"/>
<g filter="url(#filter0_d_665_6291)">
<path d="M223.064 30.6974C223.209 27.8596 223.643 25.0691 225.137 22.6096C227.885 18.0218 233.092 16.6501 238.251 16.6501C242.783 16.6501 247.556 17.9745 250.4 21.6637C251.895 23.6028 252.618 26.0623 252.618 28.4745C252.618 31.9272 251.461 34.1974 248.713 36.2312C251.991 38.6434 253.582 41.6704 253.582 45.738C253.582 50.1839 251.316 54.1569 247.507 56.5218C244.711 58.2718 240.854 58.6501 237.624 58.6501C233.478 58.6501 229.476 57.6569 226.487 54.7245C225.089 53.2583 224.028 51.5083 223.45 49.5691C222.823 47.5826 222.63 45.5488 222.582 43.4677H233.285C233.285 47.2515 233.719 49.9947 238.347 49.9947C241.24 49.9947 243.265 48.5285 243.265 45.5488C243.265 41.9542 240.517 41.292 237.431 41.292H233.912V33.015H238.251C240.517 33.015 242.059 31.6907 242.059 29.4677C242.059 26.961 240.565 25.4474 238.058 25.4474C234.731 25.4474 233.815 27.9069 233.767 30.6974H223.064Z" fill="#FFEA05"/>
<path fill-rule="evenodd" clip-rule="evenodd" d="M221.714 32.711C221.272 32.2557 221.04 31.6426 221.072 31.0149C221.224 28.034 221.687 24.7631 223.49 21.7938C226.9 16.11 233.243 14.6501 238.753 14.6501C243.694 14.6501 249.394 16.0864 252.893 20.6231C254.753 23.0344 255.608 26.0227 255.608 28.8848C255.608 30.8837 255.271 32.6974 254.433 34.3568C254.002 35.2108 253.459 35.9818 252.815 36.6903C255.319 39.2671 256.582 42.4342 256.582 46.3171C256.582 51.6024 253.874 56.3402 249.359 59.1434C245.932 61.2853 241.447 61.6501 238.119 61.6501C233.577 61.6501 228.83 60.5609 225.213 57.014C225.194 56.996 225.176 56.9776 225.159 56.959C223.52 55.2411 222.254 53.1693 221.558 50.8473C220.837 48.5554 220.633 46.2667 220.583 44.0767C220.568 43.4592 220.808 42.8622 221.249 42.4205C221.689 41.9789 222.292 41.7299 222.922 41.7299H232.028V33.4697C232.028 33.4545 232.029 33.4393 232.029 33.4242H223.409C222.768 33.4242 222.156 33.1664 221.714 32.711ZM236.562 31.175H238.753C239.439 31.175 239.788 30.9793 239.943 30.8384C240.076 30.7173 240.26 30.4649 240.26 29.8877C240.26 29.0657 240.022 28.6808 239.853 28.5101C239.691 28.3471 239.338 28.1229 238.558 28.1229C238.013 28.1229 237.699 28.2223 237.523 28.3093C237.356 28.3916 237.222 28.5068 237.099 28.6896C236.808 29.1203 236.584 29.919 236.563 31.1684C236.563 31.1706 236.563 31.1728 236.562 31.175ZM234.369 41.8276H237.924C241.042 41.8276 243.818 42.4963 243.818 46.126C243.818 49.1349 241.772 50.6154 238.85 50.6154C234.179 50.6154 233.737 47.8515 233.736 44.0374C233.736 44.0331 233.736 44.0288 233.736 44.0246H222.922C222.94 44.7959 222.978 45.5608 223.049 46.3193C223.173 47.6272 223.398 48.916 223.799 50.1856C224.384 52.1437 225.455 53.9108 226.868 55.3914C229.888 58.3525 233.93 59.3554 238.119 59.3554C241.383 59.3554 245.279 58.9734 248.105 57.2063C251.952 54.8183 254.242 50.8065 254.242 46.3171C254.242 43.0335 253.214 40.4214 251.11 38.2612C250.582 37.7193 249.986 37.2059 249.322 36.7174C250.003 36.2137 250.587 35.6957 251.081 35.1492C252.602 33.4674 253.268 31.5162 253.268 28.8848C253.268 26.449 252.537 23.9655 251.027 22.0074C248.153 18.2821 243.331 16.9449 238.753 16.9449C233.541 16.9449 228.28 18.3299 225.504 22.9626C224.4 24.7786 223.869 26.7733 223.606 28.8348C223.509 29.5925 223.449 30.3593 223.409 31.1295H234.223C234.271 28.3117 235.197 25.8282 238.558 25.8282C241.091 25.8282 242.6 27.3565 242.6 29.8877C242.6 32.1324 241.042 33.4697 238.753 33.4697H234.369V41.8276ZM236.076 44.1223C236.081 46.0451 236.236 47.0492 236.562 47.5991C236.694 47.821 237.014 48.3207 238.85 48.3207C239.936 48.3207 240.568 48.045 240.896 47.7661C241.173 47.5302 241.478 47.0883 241.478 46.126C241.478 45.5037 241.36 45.1678 241.267 44.9956C241.182 44.8387 241.065 44.7144 240.86 44.597C240.347 44.3031 239.415 44.1223 237.924 44.1223H236.076Z" fill="#3F3F3F"/>
</g>
<path d="M144.898 7.17359C145.323 7.17359 145.766 7.17359 146.209 7.17359C148.865 7.17359 151.538 7.05146 154.177 6.65015L155.352 8.74393C153.751 9.82572 152.219 11.0122 150.669 12.1812C151.248 12.0416 151.827 11.9544 152.423 11.9544C155.301 11.9544 157.582 13.7865 157.582 16.8573C157.582 20.6436 154.194 22.6501 150.84 22.6501C148.882 22.6501 146.021 21.865 146.021 19.3699C146.021 17.5204 147.792 16.456 149.427 16.456C151.282 16.456 152.968 17.5553 153.87 19.178C154.517 18.6545 154.892 17.8693 154.892 17.0144C154.892 14.938 153.104 14.2401 151.385 14.2401C149.733 14.2401 148.337 14.8682 147.026 15.8279C146.055 16.5433 145.153 17.3633 144.285 18.2009L142.582 16.0024L150.38 9.47675C148.643 9.72103 146.89 9.86062 145.136 9.91296L144.898 7.17359ZM151.657 20.2597C151.18 19.3873 150.312 18.6545 149.29 18.6545C148.916 18.6545 148.388 18.8115 148.388 19.3001C148.388 20.1725 150.091 20.3819 150.721 20.3819C151.027 20.3819 151.333 20.3295 151.657 20.2597Z" fill="#D72B2B"/>
<path d="M137.102 12.4572L137.152 13.4221C137.169 14.001 137.203 14.5624 137.203 15.1238C137.203 18.3168 136.443 20.6677 133.942 22.6501L131.408 20.8958C133.689 19.2993 134.398 17.4045 134.398 14.6326C134.398 14.2642 134.381 13.9133 134.365 13.5624L134.314 12.7028C133.216 12.773 132.101 12.808 130.985 12.808C130.31 12.808 129.651 12.7905 128.975 12.7554L128.89 9.94839C129.853 10.001 130.833 10.0186 131.796 10.0186C132.59 10.0186 133.368 10.001 134.162 9.96594L133.959 6.194L136.764 6.12383L136.95 9.72032C137.879 9.6326 138.791 9.45716 139.703 9.26418L139.839 12.0537C138.926 12.2116 138.014 12.3519 137.102 12.4572ZM136.882 7.08874L137.929 6.49225C138.352 7.15892 138.724 7.82559 139.011 8.56243L137.862 9.14137C137.575 8.42208 137.271 7.73786 136.882 7.08874ZM138.386 6.24664L139.501 5.65015C139.923 6.29927 140.295 6.96594 140.582 7.70278L139.433 8.28172C139.146 7.56243 138.791 6.9133 138.386 6.24664ZM125.427 6.3519L128.265 6.70278C127.657 9.33436 127.252 12.0537 127.252 14.773C127.252 15.7203 127.319 16.6677 127.454 17.5975C127.657 17.0361 127.877 16.4747 128.113 15.9133L129.448 16.9835C128.755 18.4747 128.198 20.0887 128.063 21.7379L125.782 21.9659C124.835 19.6677 124.582 17.0712 124.582 14.58C124.582 11.8256 124.937 9.05366 125.427 6.3519Z" fill="#D72B2B"/>
<path d="M115.544 5.65015V10.1742H121.721V12.9165H115.544V18.9253H122.582V21.6501H106.582V18.9253H112.827V5.65015H115.544Z" fill="#D72B2B"/>
<path d="M98.0742 8.81433C98.0221 9.08298 97.9386 9.43124 97.8239 9.8591C97.7092 10.287 97.5423 10.7695 97.3233 11.3069C97.1564 11.675 96.9635 12.0581 96.7445 12.4561C96.5359 12.8442 96.3221 13.1924 96.1031 13.5009C96.2387 13.4412 96.4108 13.3914 96.6193 13.3516C96.8279 13.3019 97.0417 13.2671 97.2607 13.2472C97.4902 13.2173 97.6935 13.2024 97.8708 13.2024C98.5279 13.2024 99.0702 13.3815 99.4978 13.7397C99.9358 14.0979 100.155 14.6302 100.155 15.3367C100.155 15.5357 100.155 15.7795 100.155 16.0681C100.165 16.3566 100.176 16.6601 100.186 16.9785C100.197 17.287 100.207 17.5904 100.217 17.889C100.228 18.1875 100.233 18.4561 100.233 18.6949H98.3558C98.3767 18.5258 98.3871 18.3268 98.3871 18.0979C98.3975 17.8591 98.4027 17.6103 98.4027 17.3516C98.4132 17.0929 98.4184 16.8442 98.4184 16.6054C98.4288 16.3566 98.434 16.1327 98.434 15.9337C98.434 15.4561 98.2984 15.1278 98.0273 14.9487C97.7665 14.7596 97.4745 14.6651 97.1512 14.6651C96.7132 14.6651 96.27 14.7695 95.8215 14.9785C95.3835 15.1775 95.0132 15.4163 94.7108 15.6949C94.4813 15.9138 94.2467 16.1576 94.0068 16.4263C93.7774 16.6949 93.5271 16.9984 93.2559 17.3367L91.582 16.1427C92.2599 15.5457 92.844 14.9686 93.3341 14.4113C93.8347 13.8541 94.2571 13.3019 94.6013 12.7546C94.9454 12.2074 95.227 11.6601 95.446 11.1128C95.6025 10.7148 95.7276 10.3019 95.8215 9.87403C95.9258 9.43622 95.9884 9.02826 96.0092 8.65015L98.0742 8.81433ZM92.1921 10.1875C92.5884 10.2472 93.0473 10.2919 93.5688 10.3218C94.0903 10.3516 94.5491 10.3666 94.9454 10.3666C95.6338 10.3666 96.3847 10.3516 97.1982 10.3218C98.0221 10.2919 98.8564 10.2422 99.7012 10.1725C100.546 10.0929 101.349 9.99343 102.11 9.87403L102.095 11.6054C101.542 11.675 100.942 11.7397 100.296 11.7994C99.6594 11.8492 99.0076 11.8939 98.3402 11.9337C97.6831 11.9636 97.0521 11.9885 96.4473 12.0084C95.8424 12.0183 95.3053 12.0233 94.8359 12.0233C94.6274 12.0233 94.3666 12.0233 94.0538 12.0233C93.7513 12.0133 93.4384 12.0034 93.1151 11.9934C92.7918 11.9735 92.4842 11.9536 92.1921 11.9337V10.1875ZM104.582 14.4263C104.415 14.476 104.217 14.5407 103.988 14.6203C103.769 14.6899 103.544 14.7646 103.315 14.8442C103.096 14.9138 102.898 14.9835 102.72 15.0531C102.22 15.2422 101.625 15.471 100.937 15.7397C100.259 16.0084 99.5499 16.3218 98.8095 16.68C98.3402 16.9188 97.9438 17.1526 97.6205 17.3815C97.2972 17.6103 97.0521 17.8442 96.8853 18.083C96.7184 18.3118 96.635 18.5656 96.635 18.8442C96.635 19.0531 96.6819 19.2273 96.7758 19.3666C96.8696 19.4959 97.0104 19.6004 97.1982 19.68C97.3859 19.7596 97.6205 19.8143 97.9021 19.8442C98.1837 19.874 98.5175 19.889 98.9033 19.889C99.5708 19.889 100.306 19.8541 101.109 19.7845C101.912 19.7049 102.658 19.6004 103.346 19.471L103.284 21.3964C102.95 21.4362 102.527 21.476 102.016 21.5158C101.505 21.5656 100.974 21.6004 100.421 21.6203C99.8785 21.6402 99.357 21.6501 98.8564 21.6501C98.0429 21.6501 97.3129 21.5755 96.6663 21.4263C96.0197 21.277 95.5086 21.0233 95.1332 20.6651C94.7681 20.2969 94.5856 19.7944 94.5856 19.1576C94.5856 18.6402 94.7056 18.1725 94.9454 17.7546C95.1957 17.3367 95.5243 16.9586 95.931 16.6203C96.3377 16.282 96.781 15.9785 97.2607 15.7098C97.7509 15.4312 98.2306 15.1775 98.7 14.9487C99.1797 14.7098 99.6125 14.5059 99.9984 14.3367C100.384 14.1676 100.744 14.0183 101.078 13.889C101.422 13.7496 101.751 13.6103 102.063 13.471C102.366 13.3417 102.658 13.2173 102.939 13.0979C103.221 12.9686 103.508 12.8342 103.8 12.6949L104.582 14.4263Z" fill="black"/>
<path d="M73.4241 16.4346L72.6999 14.1969C74.2157 13.6417 75.6978 12.9688 77.0957 12.1612L77.4999 13.8941H77.9378C78.2747 13.5408 78.6115 13.1875 78.9315 12.8173C78.1399 12.1612 77.702 11.8079 76.742 11.2022L75.8999 12.3126C75.041 11.5387 74.0641 10.9498 73.0199 10.4283L74.2662 8.64489H72.9526V6.55866H79.302V5.65015H81.862V6.55866H88.262V8.64489H86.9147L88.4641 10.361C87.5378 11.0844 86.3252 11.7574 85.2473 12.2453C86.7462 13.1538 87.2515 13.524 88.582 14.6512L87.1168 16.4346H88.5484V18.7564H81.8115V21.6501H79.302V18.7564H72.582V16.4346H73.4241ZM80.2789 11.1349C80.8347 10.4114 81.3399 9.67118 81.8452 8.91408L83.8494 10.0077C82.822 11.3873 81.6599 12.6154 80.4641 13.8268C81.0536 13.81 81.6262 13.7763 82.1989 13.7595C82.0305 13.4567 81.862 13.1707 81.6768 12.9015L83.4284 11.9425C83.7147 12.3463 83.9673 12.75 84.2368 13.2043L85.0283 12.279L83.9505 10.3946C84.9441 9.92354 85.921 9.35151 86.7968 8.64489H81.0199C80.5652 9.40199 80.1947 9.92354 79.6389 10.6302C79.8578 10.7984 80.0768 10.9667 80.2789 11.1349ZM77.0115 10.2264L77.6852 9.28422C77.8031 9.35151 77.9378 9.43564 78.0557 9.50293C78.2747 9.18327 78.3926 8.9982 78.561 8.64489H74.3673C75.462 9.23374 75.9841 9.48611 77.0115 10.2264ZM73.6936 16.4346H79.302V15.7448C78.5441 15.7953 77.7694 15.8289 77.0115 15.8794L76.9105 14.6848C75.8831 15.3578 74.7884 15.8962 73.6936 16.4346ZM81.8115 15.6102V16.4346H86.982C86.4262 15.8121 85.7694 15.2905 85.0957 14.8026C85.1631 14.9372 85.2136 15.055 85.281 15.2232L83.361 16.2832C83.2768 16.0308 83.1757 15.7784 83.0747 15.5261C82.6536 15.5597 82.2326 15.5765 81.8115 15.6102Z" fill="#D72B2B"/>
<path d="M56.5194 6.65015C57.6539 7.43229 58.4742 8.23144 59.3469 9.26864L57.4794 11.173C56.7638 10.1868 55.8387 9.13261 54.8438 8.40147L56.5194 6.65015ZM67.62 17.1921H67.9691C68.2134 17.1921 68.3356 17.1411 68.3356 16.8181V13.5194H61.7032V19.3005H59.8007C60.621 19.7086 61.3192 19.7936 62.2093 19.7936H71.582L71.041 22.2081H62.2966C60.5163 22.2081 59.1724 21.868 58.003 20.4737C57.2874 21.3239 56.4321 22.038 55.4896 22.6501L54.582 19.7936C55.158 19.5216 55.6991 19.1985 56.1878 18.8074V15.1517H54.8089V12.7713H58.5964V17.7872C58.6837 18.3313 58.8757 18.6204 59.2946 18.9775V11.6321H60.0451V6.82018H70.0461V11.6321H70.7617V18.0253C70.7617 18.8584 70.2381 19.3515 69.3828 19.3515H66.695L66.5553 18.2123H62.4711V14.1996H67.62V17.1921ZM67.6375 8.77554H62.4362V11.6321H63.4311V9.55769H67.6375V8.77554ZM67.6375 10.7819H65.6477V11.6321H67.6375V10.7819ZM65.8048 15.6788H64.2863V16.631H65.8048V15.6788Z" fill="#D72B2B"/>
<path d="M39.6808 5.65015C40.6952 6.34067 41.8495 7.38488 42.5841 8.34488L40.6427 10.2144C39.7158 9.10278 39.0687 8.32804 37.8794 7.45225L39.6808 5.65015ZM43.0738 18.3659C43.6859 18.6354 44.5429 18.7701 45.225 18.7701H54.582L54.0399 21.1954H44.8578C44.2106 21.1954 43.2662 20.9428 42.689 20.6565C42.0419 20.3533 41.6222 19.9659 41.1674 19.4438C40.4329 20.2354 39.4884 21.0775 38.5615 21.6501L37.582 18.9217C38.2292 18.6354 38.8063 18.2817 39.3485 17.8438V14.1891H37.7919V11.7975H41.8845V16.7154C42.0244 17.4396 42.2518 17.9449 42.9514 18.2986V9.30488H45.4174C45.0676 9.08594 44.7003 8.88383 44.3331 8.68172L45.3824 7.9912H42.8814V6.03751H53.2878V7.9912C52.5357 8.53015 51.8187 8.90067 50.9792 9.30488H53.725V16.9007C53.725 17.2544 53.6551 17.7259 53.3927 17.9786C53.1654 18.2144 52.6931 18.3659 52.3608 18.3659H50.2271L49.8248 16.4291H50.8742C51.1715 16.4291 51.259 16.2944 51.259 16.0249V15.6038H49.5275V18.2986H47.0789V15.6038H45.3999V18.3659H43.0738ZM46.9915 7.9912C47.3938 8.29436 47.8485 8.6312 48.2333 8.96804C48.8804 8.61436 49.1952 8.46278 49.7899 7.9912H46.9915ZM47.0789 11.0228H45.3999V11.848H47.0789V11.0228ZM51.259 11.0228H49.5275V11.848H51.259V11.0228ZM47.0789 13.2796H45.3999V14.1049H47.0789V13.2796ZM51.259 13.2796H49.5275V14.1049H51.259V13.2796Z" fill="#D72B2B"/>
<path d="M22.2253 13.1785C21.7243 13.458 21.2406 13.6851 20.705 13.9122L19.582 11.3794C21.1887 10.8554 22.6745 10.1742 24.0048 9.0912H20.083V6.78552H26.8381V5.65015H29.3605V6.78552H36.0465V9.0912H32.2111C33.4896 10.1392 34.9753 10.9427 36.582 11.3445L35.4072 13.9122C34.8889 13.6676 34.3706 13.4056 33.8696 13.1087V19.2921H36.1674V21.6501H19.9103V19.2921H22.2253V13.1785ZM29.3605 11.3619H31.3818C30.6389 10.7506 29.9479 10.1043 29.3605 9.33574V11.3619ZM24.8686 11.3619H26.8381V9.3532C26.268 10.1043 25.5942 10.7506 24.8686 11.3619ZM31.4164 13.4231H24.7131V14.244H31.4164V13.4231ZM31.4164 15.9558H24.7131V16.7943H31.4164V15.9558ZM31.4164 18.4711H24.7131V19.2921H31.4164V18.4711Z" fill="#D72B2B"/>
<path d="M6.21682 21.2295V21.6501H3.76108V16.9561C3.43249 17.1076 3.1212 17.2422 2.79261 17.3599L1.58203 15.1559C3.08661 14.8363 4.47013 14.3315 5.76718 13.524H1.91062V11.606H5.33483C5.16189 11.2527 5.00624 11.0003 4.81601 10.6638L5.62883 10.4787H4.15884L4.07237 10.2432H2.34297V6.40724H8.68986V5.65015H11.3186V6.40724H17.8384V10.2432H15.2962V10.1423C14.8465 10.1927 14.3969 10.2264 13.9299 10.26L15.3826 10.5292C15.227 10.8994 15.0368 11.2695 14.8292 11.606H18.2362V13.524H14.2931C15.6248 14.2979 17.0429 14.954 18.582 15.2401L17.3023 17.3599C16.991 17.2253 16.6797 17.0907 16.3684 16.9393V21.6501H13.8435V21.2295H6.21682ZM4.8506 8.81313C6.58 8.82996 8.3094 8.82996 10.0388 8.82996C11.4396 8.82996 13.5841 8.79631 14.9503 8.54394L15.2962 9.11597V8.22428H4.8506V8.81313ZM11.1975 10.4283V11.606H12.287C12.5291 11.2527 12.754 10.7311 12.9096 10.3442C12.3389 10.3778 11.7682 10.4115 11.1975 10.4283ZM7.28905 10.4787C7.46199 10.8489 7.61764 11.2358 7.79058 11.606H8.84551V10.4619L7.28905 10.4787ZM6.96046 15.0045H8.84551V13.524H8.55151C8.06728 14.0623 7.53117 14.5503 6.96046 15.0045ZM11.6126 13.524H11.1975V15.0045H13.2382C12.6502 14.5503 12.1314 14.0623 11.6126 13.524ZM8.84551 16.5355H6.21682V17.2926H8.84551V16.5355ZM13.8435 16.5355H11.1975V17.2926H13.8435V16.5355ZM8.84551 18.5713H6.21682V19.4125H8.84551V18.5713ZM13.8435 18.5713H11.1975V19.4125H13.8435V18.5713Z" fill="#D72B2B"/>
<path fill-rule="evenodd" clip-rule="evenodd" d="M175.007 3.67087C175.552 3.55641 176.083 3.92756 176.192 4.49985C177.5 11.3645 175.367 15.933 172.049 18.7605C168.81 21.52 164.552 22.5357 161.626 22.6494C161.071 22.671 160.603 22.2157 160.583 21.6325C160.562 21.0493 160.996 20.559 161.552 20.5374C164.196 20.4346 167.983 19.5018 170.779 17.1197C173.495 14.8056 175.384 11.0392 174.217 4.91434C174.108 4.34205 174.462 3.78533 175.007 3.67087Z" fill="#3F3F3F"/>
<path fill-rule="evenodd" clip-rule="evenodd" d="M188.007 3.67087C188.552 3.55641 189.083 3.92756 189.192 4.49985C190.5 11.3645 188.367 15.933 185.049 18.7605C181.81 21.52 177.552 22.5357 174.626 22.6494C174.071 22.671 173.603 22.2157 173.583 21.6325C173.562 21.0493 173.996 20.559 174.552 20.5374C177.196 20.4346 180.983 19.5018 183.779 17.1197C186.495 14.8056 188.384 11.0392 187.217 4.91434C187.108 4.34205 187.462 3.78533 188.007 3.67087Z" fill="#3F3F3F"/>
<path d="M174.697 1.1469C175.09 0.484562 176.074 0.484562 176.467 1.1469L179.444 6.15989C179.837 6.82222 179.345 7.65015 178.559 7.65015H172.605C171.819 7.65015 171.327 6.82222 171.72 6.15989L174.697 1.1469Z" fill="#3F3F3F"/>
<path d="M187.697 1.1469C188.09 0.484562 189.074 0.484562 189.467 1.1469L192.444 6.15989C192.837 6.82222 192.345 7.65015 191.559 7.65015H185.605C184.819 7.65015 184.327 6.82222 184.72 6.15989L187.697 1.1469Z" fill="#3F3F3F"/>
<circle cx="9.58203" cy="1.65015" r="1" fill="#D72B2B"/>
<circle cx="46.582" cy="1.65015" r="1" fill="#D72B2B"/>
<circle cx="27.582" cy="1.65015" r="1" fill="#D72B2B"/>
<circle cx="63.582" cy="1.65015" r="1" fill="#D72B2B"/>
<circle cx="80.582" cy="1.65015" r="1" fill="#D72B2B"/>
<path fill-rule="evenodd" clip-rule="evenodd" d="M0.0820312 71.6501C0.0820312 71.0979 0.604799 70.6501 1.24967 70.6501H358.914C359.559 70.6501 360.082 71.0979 360.082 71.6501C360.082 72.2024 359.559 72.6501 358.914 72.6501H1.24967C0.604799 72.6501 0.0820312 72.2024 0.0820312 71.6501Z" fill="#3F3F3F"/>
<defs>
<filter id="filter0_d_665_6291" x="220.582" y="14.6501" width="38" height="49" filterUnits="userSpaceOnUse" color-interpolation-filters="sRGB">
<feFlood flood-opacity="0" result="BackgroundImageFix"/>
<feColorMatrix in="SourceAlpha" type="matrix" values="0 0 0 0 0 0 0 0 0 0 0 0 0 0 0 0 0 0 127 0" result="hardAlpha"/>
<feOffset dx="2" dy="2"/>
<feComposite in2="hardAlpha" operator="out"/>
<feColorMatrix type="matrix" values="0 0 0 0 0.841667 0 0 0 0 0.168333 0 0 0 0 0.168333 0 0 0 1 0"/>
<feBlend mode="normal" in2="BackgroundImageFix" result="effect1_dropShadow_665_6291"/>
<feBlend mode="normal" in="SourceGraphic" in2="effect1_dropShadow_665_6291" result="shape"/>
</filter>
</defs>
</svg>
