<svg width="270" height="31" viewBox="0 0 270 31" fill="none" xmlns="http://www.w3.org/2000/svg">
<path d="M17.37 10.62C20.88 10.14 24.39 9.69 27.9 9.21L28.35 14.73C25.86 14.88 23.31 15.15 20.88 15.9C18.69 16.62 14.85 18.51 14.85 21.21C14.85 23.64 19.2 23.7 20.91 23.7C21.66 23.7 22.38 23.64 23.1 23.58L21.69 29.67C18.87 29.64 15.48 29.43 12.9 28.23C10.38 27.03 8.52 24.9 8.52 21.99C8.52 19.53 9.69 17.76 11.55 16.26C7.95 17.04 4.38 17.85 0.81 18.72L0.09 12.96C2.55 12.63 4.98 12.3 7.41 11.97L13.53 7.65C10.86 8.07 8.16 8.31 5.46 8.46L4.56 2.61C6.09 2.67 7.65 2.7 9.21 2.7C13.56 2.7 17.91 2.46 22.23 1.86L24.39 5.79L17.37 10.62ZM45.57 24.42C50.04 23.19 53.55 20.55 53.55 15.54C53.55 12.24 52.08 9.21 48.78 8.16C48 13.5 46.62 19.89 43.71 24.48C42.6 26.25 41.04 27.75 38.82 27.75C36.78 27.75 35.13 26.43 33.96 24.87C32.28 22.59 31.59 19.77 31.59 16.98C31.59 8.43 37.86 2.49 46.32 2.49C54.15 2.49 59.88 7.53 59.88 15.54C59.88 22.71 55.44 27.66 48.78 29.64L45.57 24.42ZM42.69 8.52C39.24 9.99 37.53 13.59 37.53 17.22C37.53 17.88 37.71 21.03 38.58 21.03C39.18 21.03 39.81 19.44 40.2 18.33C41.37 15.18 42.15 11.82 42.69 8.52ZM76.86 8.31L78.63 7.86V1.2H83.82V6.6L90.81 4.92C90.78 8.79 90.84 16.65 90.27 19.32C90.06 20.34 89.46 21.27 88.38 21.57L91.71 23.01C91.35 25.92 91.02 27.6 90.39 28.53C89.76 29.46 88.8 29.67 87.15 29.67H75.3C72.6 29.67 71.73 29.13 71.73 26.31V15.21L70.44 15.54L69.96 9.99L71.73 9.57V2.49H76.86V8.31ZM64.41 18.09C64.05 18.48 63.72 18.75 63.3 19.08L62.34 10.44C64.41 7.92 65.58 4.44 65.91 1.2L71.19 1.44C70.89 4.02 70.44 6.27 69.63 8.73V29.94H64.41V18.09ZM76.86 13.95V23.19C76.86 24.03 76.92 24.45 78.42 24.45H85.11C85.65 24.45 85.92 24.24 86.13 23.67C86.28 23.25 86.34 22.47 86.37 21.66H85.11L84 16.59H84.57C85.11 16.59 85.35 16.47 85.41 15.9C85.5 15.09 85.59 13.02 85.59 12.18V11.85L83.82 12.27V23.19H78.63V13.53L76.86 13.95ZM190.59 10.44L194.85 10.92C194.07 14.48 193.61 18.1 193.61 21.76C193.61 22.3 193.63 22.84 193.65 23.36C193.85 22.88 194.07 22.38 194.29 21.88L195.45 23.6C194.79 25.1 194.33 26.66 194.03 28.26L190.57 28.6C189.75 26.08 189.59 23.4 189.59 20.78C189.59 17.32 189.97 13.86 190.59 10.44ZM196.45 12.12C197.77 12.22 199.11 12.28 200.43 12.28C202.51 12.28 204.57 12.14 206.61 11.84L206.53 15.82C204.49 16.08 202.43 16.22 200.35 16.22C199.01 16.22 197.69 16.16 196.35 16.04L196.45 12.12ZM199.73 20.84C199.43 21.3 199.15 21.84 199.15 22.42C199.15 23.62 201.45 23.5 202.27 23.5C204.03 23.5 205.79 23.3 207.51 22.98L207.35 27.1C205.73 27.34 204.11 27.48 202.49 27.48C199.47 27.48 195.55 27.18 195.55 23.26C195.55 22.14 195.93 21.1 196.47 20.16L199.73 20.84ZM216.78 29.07C216.3 29.76 215.37 30 214.56 30H210.66L209.91 24.12H211.44C212.16 24.12 212.19 23.82 212.19 23.22V20.91C211.56 21.06 210.96 21.21 210.33 21.36L209.73 15.72C210.57 15.6 211.38 15.45 212.19 15.27V11.1H209.91V5.91H212.19V1.38H217.35V5.91H218.85V2.13H237.9V8.4H233.22V6.96H232.44V9.12C232.44 9.54 232.53 9.87 233.13 9.87H233.61C234 9.87 234.33 9.72 234.36 9.36C234.39 9.06 234.39 8.79 234.39 8.49L238.47 9.33C238.44 10.05 238.29 11.76 238.05 12.36C237.63 13.47 236.79 13.95 235.65 13.95H230.82V15.09H238.47V20.28H232.8C234.42 22.23 236.79 23.88 239.1 24.96L236.28 30C234 28.53 232.53 27.27 230.82 25.14V30H225.57V25.02C223.74 27.24 221.91 28.62 219.39 30L217.35 25.92V27.24C217.35 27.96 217.17 28.53 216.78 29.07ZM218.88 15.09H225.57V13.2H228.81C228.57 12.87 228.42 12.45 228.42 12.03V6.96H227.79C227.67 9.15 227.01 10.8 225.9 12.03C224.73 13.35 222.99 14.19 220.83 14.79L218.88 10.26V11.1H217.35V13.92C217.86 13.77 218.37 13.59 218.88 13.41V15.09ZM218.88 10.2C220.32 10.2 221.52 9.99 222.45 9.33C223.17 8.82 223.74 8.07 224.13 6.96H222.96V8.4H218.88V10.2ZM223.68 20.28H218.85V18.78C218.34 18.96 217.86 19.17 217.35 19.35V25.11C219.72 23.88 221.85 22.23 223.68 20.28ZM261.9 4.29L263.4 4.26C265.47 4.2 267.57 4.11 269.67 3.96L269.79 9.84C268.65 9.78 267.51 9.78 266.37 9.78C265.41 9.78 264.45 9.78 263.49 9.81L261.96 9.84L262.05 18.15C262.08 20.67 261.84 23.31 260.49 25.47C258.81 28.14 255.78 29.73 252.81 30.6L248.16 26.43C250.47 25.74 252.78 24.87 254.73 23.46C254.19 23.61 253.62 23.67 253.05 23.67C249.39 23.67 246.75 20.94 246.75 17.31C246.75 13.11 250.02 10.8 253.98 10.8C254.64 10.8 255.3 10.86 255.96 10.98L255.93 9.96L248.13 10.14C246.03 10.17 243.93 10.26 241.83 10.44L241.71 4.56C242.79 4.59 243.87 4.62 244.95 4.62C245.97 4.62 246.99 4.59 248.01 4.59L255.81 4.41L255.75 1.35H261.87L261.9 4.29ZM255.81 17.19C255.81 16.2 255.15 15.3 254.1 15.3C253.05 15.3 252.36 16.2 252.36 17.19C252.36 18.24 253.08 19.11 254.16 19.11C255.27 19.11 255.81 18.21 255.81 17.19Z" fill="#3F3F3F"/>
<path d="M102.69 9.87C102.09 9.39 101.52 8.88 100.95 8.37C99.24 8.94 97.53 9.36 95.79 9.72L93.99 4.35C97.62 4.05 100.71 3.27 103.56 0.929999L111.18 1.14C110.97 1.47 110.76 1.77 110.52 2.07H120V6.93C119.01 8.34 117.78 9.36 116.34 10.26C118.02 10.47 119.73 10.56 121.41 10.56C122.19 10.56 122.97 10.53 123.75 10.5L121.95 16.02H123.15V21.06H115.98C118.41 22.59 120.84 23.43 123.6 24.03L120.63 29.52C117.06 28.02 114.39 26.43 111.6 23.7V30H105.99V23.7C103.14 26.22 100.23 27.99 96.75 29.4L93.75 23.91C96.42 23.37 99.15 22.53 101.49 21.06H94.35V16.02H95.61L93.87 10.44H94.86C97.5 10.44 100.11 10.23 102.69 9.87ZM106.35 6.93C107.22 7.5 108.06 8.01 109.02 8.43C110.34 7.95 110.97 7.68 112.17 6.93H106.35ZM121.92 16.02C117.24 15.69 113.55 15.12 109.11 13.53C105.24 14.67 101.31 15.54 97.29 16.02H105.99V14.58H111.6V16.02H121.92ZM132.81 12.63V29.91H127.41V18.09C127.02 18.51 126.72 18.72 126.27 19.05L125.37 10.62C127.68 7.44 128.55 4.89 129.12 1.05L134.55 1.35C134.16 3.9 133.62 6.15 132.81 8.58V11.85C134.67 8.82 135.6 5.64 135.96 2.16L141.18 2.49C141.06 3.51 140.91 4.5 140.73 5.49H142.35V1.23H148.02V5.49H153.75V10.74H148.02V15.54H154.38V21.09H148.02V29.91H142.35V21.09H133.44V15.54H136.92L132.81 12.63ZM139.32 10.74C138.63 12.66 138.12 13.8 137.04 15.54H142.35V10.74H139.32ZM180.09 1.26H185.31V26.7C185.31 28.86 184.08 29.91 181.98 29.91H177.12L176.22 24.18H179.01C180.06 24.18 180.09 24 180.09 23.1V1.26ZM163.8 25.71C162.93 27.42 162.03 28.65 160.74 30.03L156.9 25.68C160.32 21.81 160.68 18.09 160.74 13.14H158.16V2.04H173.04V13.14H165.93C165.93 13.62 165.93 14.13 165.9 14.61H173.01C172.95 17.49 172.86 21.54 172.65 24.39C172.56 25.71 172.47 27.18 171.9 28.38C171.3 29.61 169.95 29.91 168.69 29.91H164.46L163.8 25.71ZM174.03 2.97H179.01V22.71H174.03V2.97ZM167.91 6.81H163.29V8.52H167.91V6.81ZM164.31 24.66H165.84C167.55 24.66 167.61 24.66 167.76 19.5H165.57C165.36 21.36 165.03 22.92 164.31 24.66Z" fill="#D72B2B"/>
</svg>
