<svg width="350" height="97" viewBox="0 0 350 97" fill="none" xmlns="http://www.w3.org/2000/svg">
<path d="M343.041 64.583H350V74.1212L348.678 86.105H344.363L343.041 74.1212V64.583ZM343.215 87.8169H349.826V94.3155H343.215V87.8169Z" fill="#3F3F3F"/>
<path d="M319.116 73.0382H305.093V68.7757H319.116V69.719H321.551C321.064 67.7625 320.16 65.8758 319.15 64.1638L324.231 62.7314C325.309 64.3735 326.562 66.8192 327.154 68.7058L324.022 69.719H329.137C330.146 67.5529 330.946 64.9674 331.642 62.6615L337.732 63.7446C337.14 65.5614 336.096 68.0769 335.122 69.719H337.036V83.4847H332.965V89.529C332.965 89.9133 332.965 90.3326 333.487 90.3326H333.869C334.356 90.3326 334.496 89.4941 334.53 88.2363C334.565 87.6074 334.565 87.0833 334.6 86.4894L338.671 87.7821C338.567 89.5989 338.428 92.5337 337.732 94.1758C337.105 95.6781 335.957 95.8528 334.461 95.8528H330.216C328.998 95.8528 327.71 94.9095 327.71 92.9879V83.4847H326.353C325.971 89.4242 325.275 92.6385 320.299 96.342L317.898 93.3023V94.8746H311.078V96.0974H305.928V84.6726H317.898V91.2759C320.751 89.2146 321.203 86.8388 321.343 83.4847H319.116V73.0382ZM305.928 63.535H317.898V67.6227H305.928V63.535ZM305.928 74.1562H317.898V78.244H305.928V74.1562ZM331.503 74.9598H324.718V78.244H331.503V74.9598ZM305.928 79.3969H317.898V83.5196H305.928V79.3969ZM313.444 88.6556H311.078V90.7169H313.444V88.6556Z" fill="#D72B2B"/>
<path d="M289.921 75.9029L292.322 76.1825C292.287 76.9162 292.183 77.6149 292.114 78.3137H293.61V75.7981H298.794V78.3137H302.761V83.3099H298.794V85.4411H303.353V90.8216H298.794V96.0973H293.645V90.8216H287.381V85.4411H293.61V83.3099H291.139C290.896 84.1484 290.722 84.6026 290.339 85.4061L286.755 83.1352V92.8131C286.755 95.3985 285.537 96.0973 283.136 96.0973H279.448L278.439 90.8565H281.64C282.197 90.8565 282.753 90.8565 282.753 89.8782V88.2361H276.351C276.142 90.8915 275.272 94.1058 273.915 96.3768L269.67 92.7082C271.445 90.018 272.106 85.6158 272.106 82.4015V74.75C271.793 75.0295 271.445 75.309 271.097 75.5885L269.705 69.649C272.001 67.7274 273.289 65.5962 274.472 62.871L280.178 63.1854C280.004 63.6396 279.83 64.0938 279.656 64.548H285.711V69.2647C285.224 70.1731 285.05 70.4176 284.458 71.2212H286.755V72.1995C288.008 71.4308 289.295 70.0683 289.713 68.6358H286.998V63.9191H302.9C302.9 68.5659 302.622 72.3043 301.717 73.5621C300.987 74.5753 299.943 74.9945 298.794 74.9945H294.723L293.958 71.6754C292.879 73.4223 291.626 74.75 289.921 75.9029ZM295.106 68.6358C295.071 69.2996 294.758 70.1032 294.48 70.7321H296.254C297.507 70.7321 297.542 70.0683 297.577 68.6358H295.106ZM275.585 71.2212H278.334C278.926 70.5574 279.308 70.1032 279.622 69.2647H277.082C276.525 70.0333 276.177 70.4875 275.585 71.2212ZM289.191 75.7981L286.755 72.7585V82.646C287.799 80.5148 288.042 78.0691 288.251 75.6933L289.191 75.7981ZM278.195 75.7283H276.699V77.8245H278.195V75.7283ZM282.753 75.7283H281.153V77.8245H282.753V75.7283ZM278.195 82.0171H276.699V84.1134H278.195V82.0171ZM282.753 82.0171H281.153V84.1134H282.753V82.0171Z" fill="#D72B2B"/>
<path d="M240.197 68.3211C239.571 66.9934 238.771 65.7357 237.971 64.5128L243.677 62.696C245.208 64.7923 245.834 65.9802 246.878 68.3211H249.871C249.175 66.7489 248.479 65.1766 247.644 63.7092L253.559 62.5563C254.568 64.1984 255.647 66.4694 256.204 68.3211H258.083C259.022 66.5043 259.857 64.6176 260.519 62.6611L266.608 64.0237C266.155 65.1766 265.077 67.238 264.45 68.3211H266.851V84.8119H255.056V86.454H268.765V91.6948H255.056V96.1319H249.349V91.6948H235.5V86.454H249.349V84.8119H237.518V68.3211H240.197ZM249.349 73.0727H243.19V74.6798H249.349V73.0727ZM261.214 73.0727H255.056V74.6798H261.214V73.0727ZM249.349 78.3833H243.19V80.0254H249.349V78.3833ZM261.214 78.3833H255.056V80.0254H261.214V78.3833Z" fill="#D72B2B"/>
<path d="M214.414 70.6273H216.606V80.8642H207.698V96.0973H202.305V70.6273H202.513L200.217 68.0768C202.374 66.5745 203.905 64.9673 205.193 62.6614L211.282 63.0806C211.143 63.43 211.073 63.6397 210.899 63.989H216.815V67.0287C218.067 65.5613 218.972 64.3035 219.668 62.4867L225.548 62.9409C225.409 63.2903 225.305 63.6397 225.166 63.989H233.76V68.7057H228.993C229.341 69.3346 229.654 69.9635 230.002 70.6273H232.369V92.4637C232.369 94.56 231.916 96.0973 229.48 96.0973H223.495L223.148 94.0709H209.473V81.9473H225.131V90.2277H226.07C226.523 90.2277 226.871 90.2277 226.871 89.3193V80.8642H218.102V70.7321L215.736 68.7057H213.579C213.892 69.3346 214.17 69.9635 214.414 70.6273ZM208.777 70.6273C208.603 69.9635 208.394 69.3695 208.116 68.7057H207.837C207.28 69.3695 206.724 69.9984 206.097 70.6273H208.777ZM220.816 70.6273H223.809C223.6 69.9984 223.356 69.3346 223.078 68.7057H222.486C221.964 69.3695 221.408 69.9984 220.816 70.6273ZM211.595 73.3176H207.698V74.5753H211.595V73.3176ZM226.871 73.3176H223.182V74.5055H226.871V73.3176ZM211.595 76.7066H207.698V77.9643H211.595V76.7066ZM226.871 76.7415H223.182V77.9643H226.871V76.7415ZM220.155 85.2664H214.448V86.5592H220.155V85.2664ZM220.155 89.2843H214.448V90.612H220.155V89.2843Z" fill="#D72B2B"/>
<path d="M185.45 75.5303C185.938 74.5986 186.401 73.6669 186.842 72.7352L190.832 73.6669C190.507 74.2259 190.183 74.7849 189.835 75.344C192.131 75.1809 194.428 74.8548 196.701 74.4356L196.608 78.2089C193.616 78.6049 190.623 78.8844 187.608 79.0707C187.469 79.3036 187.329 79.5598 187.167 79.7928C187.677 79.7229 188.165 79.653 188.675 79.653C190.415 79.653 191.76 80.2819 192.642 81.8192C194.474 81.0505 196.33 80.3285 198.186 79.6297L199.624 83.1934C197.536 83.9155 195.425 84.6142 193.384 85.476C193.407 86.8969 193.407 88.2944 193.407 89.7152H189.533C189.58 88.8767 189.626 88.0382 189.626 87.1997C188.234 87.945 187.167 88.6904 187.167 89.6221C187.167 90.9031 189.278 90.9497 190.345 90.9497C192.897 90.9497 195.17 90.6935 197.954 90.2044L197.583 94.2339C195.634 94.4668 193.662 94.6066 191.691 94.6066C189.371 94.6066 183.316 94.6066 183.316 89.855C183.316 86.5708 186.657 84.7074 189.185 83.403C188.837 83.0071 188.304 82.8207 187.77 82.8207C185.126 82.8207 183.293 85.7556 181.971 87.7121L178.862 85.476C180.509 83.4962 181.971 81.3766 183.339 79.2105C182.643 79.2105 181.924 79.2337 181.228 79.2337C180.811 79.2337 180.417 79.2337 180.022 79.2105L180.115 75.4138C181.669 75.4837 183.223 75.5303 184.778 75.5303C185.01 75.5303 185.218 75.5303 185.45 75.5303Z" fill="#3F3F3F"/>
<path d="M168.544 90.2275H170.249C171.188 90.2275 171.258 90.0528 171.258 89.1444V78.9774H162.246V64.0238H176.999V92.2539C176.999 94.7695 175.955 96.2369 173.346 96.2369H166.491L165.969 93.1623H154.103V80.7592H168.544V90.2275ZM145.683 64.0238H160.297V78.9774H151.424V96.2369H145.683V64.0238ZM171.258 68.4959H167.883V69.9982H171.258V68.4959ZM154.695 68.4959H151.459V69.9982H154.695V68.4959ZM171.258 73.3174H167.883V74.8547H171.258V73.3174ZM154.695 73.3174H151.459V74.8547H154.695V73.3174ZM163.255 85.441H159.358V88.236H163.255V85.441Z" fill="#D72B2B"/>
<path d="M122.995 93.4768L122.125 94.5598C120.873 93.5466 119.829 92.1491 118.959 90.7865C117.462 93.2322 115.444 94.7695 112.939 96.0622L109.564 91.2058C111.617 90.4371 113.983 89.1444 115.201 87.2578H110.086V82.4712H113.322L109.494 80.1304C110.747 78.4184 111.686 76.357 112.208 74.2957C111.269 73.6668 110.921 72.8283 110.921 71.7102V63.0106H116.349V64.8973C118.785 64.5129 120.803 63.8841 123.03 62.8708L125.535 67.0285C124.317 67.5176 123.273 67.867 122.021 68.1815L126.301 69.2296C126.127 70.2778 125.709 72.3391 125.187 73.2475C124.596 74.2607 123.726 74.7848 122.508 74.7848H117.08C116.975 75.239 116.871 75.6932 116.732 76.1124H124.77V80.7942H121.464C121.429 81.3532 121.429 81.9122 121.394 82.4712H125.605V86.6289C126.022 84.7771 126.196 82.9953 126.196 81.1086V80.34L130.755 80.4797C130.72 81.9821 130.65 83.4844 130.511 84.9868C130.859 85.9301 131.277 86.6987 131.903 87.4674V79.1521H125.744V74.0162H131.729C130.302 73.0728 128.771 72.2343 127.24 71.5006L130.163 68.7754H126.162V63.8142H142.481V68.6357C141.089 70.0681 139.523 71.3608 137.888 72.4789C138.375 72.8283 138.862 73.1776 139.315 73.527L138.723 74.0162H142.933V79.187C142.655 80.2701 142.377 80.8641 141.82 81.8074L137.784 81.1436C138.097 80.5496 138.41 79.8159 138.619 79.1521H136.67V82.4712H142.237V87.4324H136.67V90.1227C137.262 90.1576 137.61 90.1576 138.201 90.1576H143.838L143.073 95.8875H138.688C134.756 95.8875 131.52 95.0839 129.258 91.5901C128.667 93.372 127.936 94.8394 126.683 96.2718L122.995 93.4768ZM120.003 70.4874C120.699 70.4874 120.977 70.3476 121.464 68.3212C119.655 68.7055 118.228 68.985 116.349 69.2296V69.8934C116.349 70.2778 116.558 70.4874 116.941 70.4874H120.003ZM131.137 68.7754C132.147 69.2646 133.156 69.7886 134.13 70.3127C134.861 69.8236 135.383 69.4043 135.974 68.7754H131.137ZM113.948 82.4712H116.488C116.558 81.9122 116.558 81.3532 116.558 80.7942H114.957C114.609 81.4231 114.366 81.8773 113.948 82.4712ZM124.457 89.8432C124.874 89.0047 125.187 88.1661 125.431 87.2578H121.673C122.508 88.1312 123.517 89.1444 124.457 89.8432Z" fill="#D72B2B"/>
<path d="M89.1846 72.1366C89.8736 72.1622 90.5625 72.1878 91.2515 72.1878C95.2832 72.1878 99.2894 71.9828 103.245 71.3936L105.184 74.7756C102.913 76.236 100.769 77.8245 98.5749 79.3874C99.2894 79.2337 100.029 79.1568 100.744 79.1568C104.98 79.1568 108.476 81.9496 108.476 86.3564C108.476 92.1725 103.245 95.0933 98.0391 95.0933C94.9515 95.0933 90.8177 93.8891 90.8177 90.1228C90.8177 87.2788 93.6756 85.639 96.2274 85.639C98.9322 85.639 101.458 87.1763 102.887 89.4823C103.602 88.7392 104.01 87.7912 104.01 86.7408C104.01 83.8968 101.458 82.7951 98.9832 82.7951C96.8908 82.7951 94.977 83.5381 93.2418 84.6654C91.5067 85.8184 89.9501 87.2276 88.4446 88.6624L85.6377 85.0754L96.8908 75.9798C94.4667 76.3129 92.017 76.5178 89.5674 76.6203L89.1846 72.1366ZM99.2894 91.2757C98.5239 90.1484 97.3756 89.226 95.9467 89.226C95.4618 89.226 94.6708 89.3798 94.6708 90.0203C94.6708 91.2245 96.9929 91.4551 97.8349 91.4551C98.3453 91.4551 98.8301 91.3782 99.2894 91.2757Z" fill="#D72B2B"/>
<path d="M65.6324 74.6731C66.0662 73.3408 66.449 71.9828 66.7807 70.6505L71.5014 71.5473C71.2207 72.444 70.9145 73.3664 70.6083 74.2631C71.578 74.135 72.5221 73.9813 73.4917 73.8019L73.2366 78.2601C71.8331 78.4907 70.4552 78.6444 69.0517 78.7981C67.5462 82.9744 65.8876 87.0738 63.9993 91.0964L59.6104 89.2004C61.3455 85.9465 62.8766 82.5645 64.1269 79.1056C63.0552 79.1312 61.9835 79.1568 60.8862 79.1312L60.7586 74.5962C61.8559 74.6474 62.9531 74.6987 64.0759 74.6987C64.5862 74.6987 65.1221 74.6731 65.6324 74.6731ZM75.5586 74.4937C78.3911 75.1855 81.1724 76.0566 83.8518 77.184L82.3973 81.4627C81.5807 81.0272 80.6621 80.5404 79.718 80.5404C78.3655 80.5404 77.8042 81.6677 77.8042 82.8719C77.8042 83.7174 77.9062 84.5117 78.1359 85.9465C80.2283 86.792 82.1166 87.8425 83.9793 89.1235L81.8359 93.0692C80.7386 92.3262 79.6414 91.6088 78.4931 90.9426C78.2635 94.0428 75.3035 95.1189 72.6242 95.1189C69.4855 95.1189 66.0662 93.6585 66.0662 90.0203C66.0662 86.4589 69.1793 84.8704 72.3435 84.8704C72.7517 84.8704 73.1345 84.896 73.5428 84.9472C73.4662 84.2042 73.3897 83.4356 73.3897 82.6926C73.3897 80.8991 74.1297 79.5668 75.7628 78.7981C75.0993 78.6444 74.4614 78.4907 73.798 78.3882L75.5586 74.4937ZM73.9766 89.021C73.4407 88.8417 72.9048 88.7392 72.3179 88.7392C71.5269 88.7392 70.1745 88.9442 70.1745 89.9947C70.1745 91.0195 71.5014 91.2501 72.2924 91.2501C73.2111 91.2501 74.0531 90.917 74.0531 89.8666C74.0531 89.5847 74.0276 89.3029 73.9766 89.021Z" fill="#D72B2B"/>
<path d="M36.824 71.8289L41.6467 72.3669C41.1874 74.4166 40.7791 76.4407 40.524 78.516C40.1922 80.9501 40.0136 83.3841 40.0136 85.8438C40.0136 86.5612 40.0391 87.2786 40.0647 88.0216C40.3198 87.4067 40.575 86.7917 40.8047 86.1768L42.4888 88.3034C41.7233 90.1481 41.0088 92.3772 40.7536 94.3757L36.875 94.76C35.7522 91.6086 35.4971 88.2009 35.4971 84.8701C35.4971 80.4889 36.0329 76.1333 36.824 71.8289ZM44.1219 73.9298C45.755 74.0835 47.4136 74.1604 49.0467 74.1604C51.6495 74.1604 54.2267 73.9554 56.804 73.5711L56.7274 78.1573C54.0991 78.4648 51.4709 78.6441 48.8171 78.6441C47.2095 78.6441 45.6019 78.5673 44.0198 78.4392L44.1219 73.9298ZM47.6943 85.1776C47.3626 85.8181 47.0309 86.5099 47.0309 87.2273C47.0309 88.6621 49.3529 88.7646 50.7564 88.7646C53.3847 88.7646 55.2729 88.5596 57.9267 88.0984L57.7992 92.7872C55.6557 93.0946 53.5123 93.274 51.3433 93.274C47.6433 93.274 42.8971 92.8384 42.8971 88.0216C42.8971 86.7405 43.3054 85.5619 43.8922 84.4346L47.6943 85.1776Z" fill="#D72B2B"/>
<path d="M33.822 69.5792H7.93355C7.58559 69.9635 7.20283 70.3827 6.85486 70.7671H31.2122V74.8548H6.61129V71.0116C5.49781 72.1646 4.31474 73.2826 3.09687 74.4006L0 68.9503C2.40094 67.1335 4.24514 65.1071 5.70659 62.4867L12.1091 63.1855C11.8655 63.6746 11.622 64.1637 11.3436 64.6179H33.822V69.5792ZM7.55079 87.8519C5.95016 86.7688 4.31474 85.7206 2.57492 84.8122L6.19373 80.7245H0.695925V76.0777H29.5072C29.1593 78.8378 28.9505 82.9954 28.9505 85.7905C28.9505 88.1314 28.9505 89.7036 29.6464 89.7036C29.9944 89.7036 30.3423 89.3542 30.6903 88.7952C31.2122 87.9567 31.7342 86.5591 32.1865 85.2315L34.4135 90.9963C33.9264 92.1842 33.2304 93.4769 32.2909 94.4901C31.3166 95.5383 30.0988 96.3069 28.6373 96.3069C27.2803 96.3069 26.132 95.8178 25.1925 94.8046C23.9398 93.407 23.6267 91.7999 23.3831 89.9831C23.1395 88.2012 23.0003 86.3845 23.0003 84.5677C23.0003 83.275 23.1047 82.0172 23.2439 80.7245H16.5978L20.843 83.0653C19.5555 84.7424 18.3376 86.105 16.7718 87.5724C18.4072 88.8301 19.9731 90.0879 21.4345 91.5204L17.085 95.7828C15.7279 94.1757 13.8489 92.6384 12.2135 91.3108C9.56897 93.2324 6.78527 94.7347 3.86239 96.0973L0.661129 91.0312C3.20126 90.2277 5.28903 89.2145 7.55079 87.8519ZM12.3527 84.393C13.327 83.5195 15.1364 81.8075 15.7975 80.7245H6.22853C8.4207 81.8075 10.3345 83.0304 12.3527 84.393Z" fill="#D72B2B"/>
<g filter="url(#filter0_d_525_848)">
<path fill-rule="evenodd" clip-rule="evenodd" d="M85.1904 19.8484C82.429 19.8484 80.1904 22.087 80.1904 24.8484V48.2694C80.1904 51.0308 82.429 53.2694 85.1904 53.2694H187.481L186.052 61.1606L195.697 53.2694H264.731C267.493 53.2694 269.731 51.0308 269.731 48.2694V24.8484C269.731 22.087 267.493 19.8484 264.731 19.8484H85.1904Z" fill="white"/>
<path d="M187.481 53.2694L188.465 53.4476C188.517 53.1559 188.438 52.8559 188.248 52.6284C188.058 52.4009 187.777 52.2694 187.481 52.2694V53.2694ZM186.052 61.1606L185.068 60.9824C184.993 61.3947 185.183 61.8098 185.544 62.0223C185.905 62.2349 186.361 62.1999 186.685 61.9346L186.052 61.1606ZM195.697 53.2694V52.2694C195.466 52.2694 195.242 52.3493 195.064 52.4954L195.697 53.2694ZM81.1904 24.8484C81.1904 22.6392 82.9813 20.8484 85.1904 20.8484V18.8484C81.8767 18.8484 79.1904 21.5347 79.1904 24.8484H81.1904ZM81.1904 48.2694V24.8484H79.1904V48.2694H81.1904ZM85.1904 52.2694C82.9813 52.2694 81.1904 50.4786 81.1904 48.2694H79.1904C79.1904 51.5831 81.8767 54.2694 85.1904 54.2694V52.2694ZM187.481 52.2694H85.1904V54.2694H187.481V52.2694ZM187.036 61.3388L188.465 53.4476L186.497 53.0912L185.068 60.9824L187.036 61.3388ZM195.064 52.4954L185.418 60.3866L186.685 61.9346L196.33 54.0434L195.064 52.4954ZM264.731 52.2694H195.697V54.2694H264.731V52.2694ZM268.731 48.2694C268.731 50.4786 266.94 52.2694 264.731 52.2694V54.2694C268.045 54.2694 270.731 51.5831 270.731 48.2694H268.731ZM268.731 24.8484V48.2694H270.731V24.8484H268.731ZM264.731 20.8484C266.94 20.8484 268.731 22.6393 268.731 24.8484H270.731C270.731 21.5347 268.045 18.8484 264.731 18.8484V20.8484ZM85.1904 20.8484H264.731V18.8484H85.1904V20.8484Z" fill="#3F3F3F"/>
</g>
<g clip-path="url(#clip0_525_848)">
<path d="M114.96 33.7642C114.31 35.7701 112.85 40.249 111.633 41.971C110.759 43.1983 109.65 43.4181 108.46 43.4181C108.136 43.4181 107.811 43.3907 107.496 43.3632L107.604 41.5313C108.037 41.5771 108.469 41.6138 108.911 41.6138C109.93 41.6138 110.236 41.2199 110.714 40.2765C111.435 38.8568 112.111 36.9975 112.589 35.5228H109.434C108.812 37.0799 108.018 38.5912 106.865 39.9559C105.63 41.4306 104.052 42.6304 102.403 43.5281L101.456 42.1633C104.539 40.4872 106.279 38.6461 107.604 35.5137H103.349L103.845 33.7551H108.253C108.55 32.8849 108.821 31.9965 109.064 31.1172H110.894C110.651 31.9873 110.38 32.8758 110.083 33.7551H114.96V33.7642Z" fill="#D72B2B"/>
<path d="M128.256 36.6127L127.751 38.3987H115.681L116.185 36.6127H128.256Z" fill="#D72B2B"/>
<path d="M135.611 35.3029C137.297 36.2464 138.82 37.3638 140.181 38.6736L138.604 40.2948C137.378 39.0216 136.017 37.895 134.457 36.9791L132.546 43.7478H130.653L134.196 31.2362H136.089L134.566 36.6402L135.62 35.3029H135.611ZM139.677 32.6834C140.055 33.1047 140.371 33.5535 140.632 34.0756L139.686 34.7717C139.442 34.2679 139.136 33.8191 138.775 33.3978L139.686 32.6925L139.677 32.6834ZM141.29 31.5385C141.669 31.9781 141.975 32.4269 142.237 32.9307L141.281 33.6451C141.038 33.1413 140.731 32.6742 140.371 32.2529L141.281 31.5385H141.29Z" fill="#D72B2B"/>
<path d="M143.976 42.4655L143.76 43.2165H141.948L144.995 32.436H155.56L152.513 43.2165H150.683L150.899 42.4655H143.976ZM151.395 40.7069L153.216 34.2496H146.293L144.472 40.7069H151.395Z" fill="#D72B2B"/>
<path d="M168.568 36.6127L168.063 38.3987H155.993L156.498 36.6127H168.568Z" fill="#D72B2B"/>
<path d="M175.644 39.3056C177.87 37.9958 179.754 36.3196 181.458 34.3779L182.305 35.935C178.7 39.9467 174.301 42.5663 169.469 43.5738L169.108 41.7145C171.326 41.2932 173.534 40.5421 175.644 39.2964V39.3056ZM176.158 34.4328L174.553 35.9716C173.625 34.9183 172.552 34.0023 171.344 33.2421L172.813 31.74C174.066 32.4727 175.202 33.3612 176.158 34.4328Z" fill="#D72B2B"/>
<path d="M184.424 43.9124H182.81L184.226 38.9023C183.622 39.3236 183.081 39.6716 182.459 40.0197L182.387 38.1604C184.099 37.3269 185.731 36.1819 186.831 34.5608H183.649L184.099 32.967H185.902L186.443 31.0527H188.057L187.516 32.967H189.021L188.571 34.5608C187.976 35.4309 187.2 36.3651 186.416 37.0979C186.84 37.739 187.453 38.426 188.057 38.8839L186.741 40.3036C186.398 39.864 186.083 39.406 185.83 38.8931L184.415 43.9033L184.424 43.9124ZM193.655 41.8516C193.393 42.5019 193.042 43.198 192.321 43.6102C191.906 43.8391 191.428 43.9124 191.013 43.9124H189.211L189.337 42.163H190.761C191.581 42.163 191.762 42.0439 192.257 40.9448C192.654 40.0563 192.988 39.0305 193.267 38.1237C193.772 36.5117 194.241 34.8996 194.691 33.3059H192.943C192.438 35.1103 191.807 36.988 190.932 38.7557C189.869 40.899 188.273 42.566 186.236 43.9582L185.479 42.4836C187.245 41.2379 188.679 39.7724 189.589 37.8673C190.274 36.4384 190.824 34.7714 191.248 33.3059H189.328L189.797 31.6389H196.828C196.061 34.3684 194.673 39.2778 193.628 41.8516H193.655ZM187.985 38.0688L187.092 37.2902C187.687 36.7407 188.21 36.1453 188.688 35.5316L189.643 36.2919C189.111 36.933 188.616 37.51 187.985 38.0688Z" fill="#3F3F3F"/>
<path d="M196.332 42.0164L195.16 40.7891C196.386 39.2228 197.224 37.162 197.828 35.4217L199.46 35.5958C198.685 37.7665 197.801 40.0014 196.332 42.0073V42.0164ZM202.39 34.8355L200.461 41.6592C200.434 41.7691 200.388 41.9981 200.713 41.9981H202.552C202.849 41.9981 203.075 41.8607 203.273 41.4486C203.462 41.0639 203.706 40.4227 204.075 39.4152L205.581 40.0014C205.265 40.8349 204.652 42.337 204.039 43.0331C203.571 43.5644 203.174 43.6926 202.561 43.6926H199.442C198.513 43.6926 198.27 43.2255 198.532 42.3095L200.641 34.8264H202.39V34.8355ZM206.798 32.6831L205.554 34.4142C204.012 33.4433 202.498 33.022 200.623 32.6098L201.641 31.0527C203.742 31.4374 204.977 31.813 206.798 32.6739V32.6831ZM207.951 41.5401L205.986 42.0348C206.275 39.7266 206.338 37.5833 206.013 35.4584L207.789 34.8447C208.168 36.9147 208.231 39.2778 207.951 41.5493V41.5401Z" fill="#3F3F3F"/>
<path d="M209.998 36.3929L210.422 34.8908H214.911L215.271 33.6084H211.792L212.197 32.1613H215.677L215.992 31.0438H217.669L217.354 32.1613H220.121L219.86 33.1047C220.689 32.4361 221.392 31.7674 222.131 31.0072L223.42 31.8224C222.275 32.9673 221.158 33.9199 219.851 34.8908H223.06L222.636 36.3929H217.57C217.02 36.7226 216.452 37.0157 215.875 37.318H220.95L219.084 43.9218H217.417L217.57 43.3814H212.098L211.945 43.9218H210.295L211.63 39.1865C210.935 39.4429 210.241 39.6628 209.538 39.8826L209.259 38.2431C211.08 37.7943 212.837 37.2355 214.604 36.3837H209.98L209.998 36.3929ZM212.801 40.9267L212.504 41.9892H217.976L218.273 40.9267H212.801ZM213.441 38.6735L213.153 39.6811H218.625L218.913 38.6735H213.441ZM219.22 33.6084H216.948L216.587 34.8908H217.372C218.003 34.4786 218.616 34.0573 219.229 33.6084H219.22Z" fill="#3F3F3F"/>
<path d="M227.575 40.7527L227.341 41.5862C227.242 41.9251 227.314 41.9526 227.584 41.9526H229.414C229.721 41.9526 229.919 41.8427 230.09 41.5679C230.388 41.1191 230.784 39.9742 230.956 39.4521L232.488 39.9192C232.218 40.6428 231.605 42.2365 231.055 42.9052C230.586 43.4822 230.144 43.6562 229.567 43.6562H226.07C225.682 43.6562 225.141 43.3814 225.358 42.6212L225.52 42.0533C224.348 42.6945 223.329 43.1891 222.104 43.5921L221.752 41.9892C223.311 41.4946 224.655 40.8443 226.124 39.9284L227.71 34.3229H229.405L228.242 38.4629C230.838 36.457 233.02 34.0389 234.742 31.3369L236.184 31.9873C235.301 33.3154 234.372 34.4969 233.308 35.6968L235.048 35.1106C235.201 37.1073 235.165 39.4338 234.733 41.5679L232.786 42.035C233.29 39.7818 233.317 37.895 233.254 35.7701C231.578 37.6294 229.658 39.333 227.602 40.7527H227.575ZM223.537 41.0367L222.248 40.0841C223.411 38.6186 224.168 37.0249 224.808 35.4037L226.403 35.6876C225.709 37.4187 224.745 39.4704 223.537 41.0367ZM232.758 32.4452L231.415 34.0573C230.406 33.3062 228.936 32.7566 227.611 32.5002L228.792 30.9889C230.225 31.2728 231.578 31.7216 232.758 32.4452Z" fill="#3F3F3F"/>
<path d="M241.241 39.8185C240.241 42.2091 237.645 43.5555 235.391 43.986L235.139 42.2274C237.5 41.7603 238.681 41.3389 239.592 39.8276H237.455L239.808 31.5018H249.399L247.047 39.8276H244.342L243.801 41.7511C243.72 42.0534 243.774 42.145 244.027 42.145H245.803C246.208 42.145 246.325 42.0534 246.659 40.8626C246.704 40.6978 246.758 40.5054 246.821 40.3039L248.336 40.7802C248.011 41.8702 247.732 42.5938 247.452 42.9968C247.11 43.5005 246.722 43.7295 246.154 43.7295H242.792C242.089 43.7295 241.674 43.3448 241.89 42.5938L242.675 39.8185H241.241ZM239.781 37.4004L239.493 38.4354H245.794L246.091 37.4004H239.79H239.781ZM240.412 35.1656L240.142 36.1364H246.443L246.713 35.1656H240.412ZM241.043 32.9307L240.773 33.8833H247.074L247.344 32.9307H241.043Z" fill="#3F3F3F"/>
</g>
<path fill-rule="evenodd" clip-rule="evenodd" d="M271.358 30.1847L262.354 33.0433L262.354 33.0433L262.354 33.0434L262.354 33.0432L262.353 33.0431L262.353 33.0429L258.432 24.4172C257.739 22.8931 257.742 21.1022 258.44 19.5253L264.825 5.09645C265.212 4.22255 266.387 4.17793 266.771 5.02208L270.334 12.8578C270.635 13.5208 270.639 14.298 270.345 14.9867C270.657 14.3058 271.234 13.7877 271.925 13.5677L280.105 10.9712C280.986 10.6917 281.741 11.5979 281.354 12.4713L274.969 26.9002C274.271 28.4771 272.949 29.6796 271.358 30.1847Z" fill="#338A33"/>
<path fill-rule="evenodd" clip-rule="evenodd" d="M262.354 33.0435L271.358 30.1848C272.949 29.6797 274.271 28.4772 274.969 26.9002L281.354 12.4713C281.741 11.5979 280.987 10.6917 280.105 10.9712L271.926 13.5678C271.234 13.7877 270.657 14.3059 270.345 14.9868C270.639 14.298 270.635 13.5208 270.334 12.8579L266.772 5.02211C266.387 4.17796 265.212 4.22258 264.825 5.09648L258.44 19.5254C257.742 21.1023 257.739 22.8932 258.432 24.4173L262.354 33.0435ZM259.571 34.2773C259.84 34.8881 260.308 35.4128 260.933 35.7437C261.368 35.9741 261.859 36.1 262.37 36.0972C262.692 36.0954 263.004 36.0429 263.3 35.9458L272.275 33.0964C272.275 33.0964 272.275 33.0964 272.275 33.0964C274.725 32.3186 276.709 30.4886 277.748 28.1403L284.134 13.7114C285.451 10.7337 282.877 6.88989 279.189 8.05935L272.466 10.1936L269.538 3.75395C267.932 0.223465 263.365 0.876902 262.046 3.85643L255.66 18.2853C254.621 20.6342 254.598 23.3388 255.665 25.6854C255.665 25.6854 255.665 25.6854 255.665 25.6854L259.571 34.2773Z" fill="#3F3F3F"/>
<path d="M261.635 33.0435L257.723 24.4172C257.032 22.8931 257.034 21.1022 257.731 19.5253L264.1 5.09643C264.486 4.22252 265.658 4.17791 266.041 5.02205L269.595 12.8578C269.9 13.5312 269.899 14.3225 269.591 15.0192L261.635 33.0435Z" fill="#FFEA05"/>
<path d="M261.635 33.0434L270.616 30.1847C272.203 29.6797 273.521 28.4771 274.217 26.9002L280.587 12.4713C280.972 11.5979 280.22 10.6917 279.341 10.9712L271.182 13.5677C270.481 13.7911 269.898 14.3222 269.591 15.0189L261.635 33.0434Z" fill="#57ED68"/>
<path d="M95.8072 9.02187L72.7157 16.1022C72.1623 16.2719 71.8482 16.8589 72.0174 17.4186L76.4735 32.1567C76.5148 32.2934 76.5833 32.4146 76.6683 32.5201C76.9306 32.838 77.3676 32.9849 77.7818 32.8579L100.877 25.7766C101.433 25.6059 101.743 25.0166 101.575 24.4602L97.1187 9.72205C96.9495 9.16233 96.3671 8.8502 95.8104 9.02088L95.8072 9.02187Z" fill="white"/>
<path d="M95.8102 9.02088L72.7157 16.1021C72.1623 16.2717 71.8482 16.8587 72.0174 17.4184L76.4735 32.1563C76.5148 32.293 76.5833 32.4142 76.6682 32.5197L80.3257 28.511L79.3548 28.8087L78.8668 27.1946L82.5562 26.0634L88.615 19.4231C87.9797 19.1699 87.4587 18.6398 87.2442 17.9304C86.8723 16.7004 87.5583 15.402 88.7849 15.0259C89.1894 14.9018 89.5941 14.8951 89.9757 14.9879C89.9991 14.9949 90.0247 14.9977 90.0481 15.0048C89.8084 15.6508 89.7741 16.3796 89.9876 17.0857C90.0486 17.2874 90.1271 17.4767 90.224 17.6568L90.9359 16.8767C90.928 16.8507 90.9146 16.8299 90.9068 16.8039C90.7661 16.3385 90.7796 15.8686 90.9131 15.433C91.1363 14.7209 91.6879 14.1358 92.4484 13.9026C92.8627 13.7756 93.2864 13.7736 93.6798 13.8699L97.204 10.0051L97.1184 9.72204C96.9492 9.16233 96.3668 8.85021 95.8102 9.02088ZM83.0933 20.8922C83.1671 21.1362 83.0297 21.3953 82.787 21.4697L79.515 22.4729L78.8037 20.1202C78.783 20.0519 78.8236 19.9754 78.8948 19.9536L82.4742 18.8561L83.0911 20.8964L83.0933 20.8922ZM82.3574 18.4581L78.778 19.5556C78.4964 19.6419 78.3268 19.9464 78.4143 20.236L79.1257 22.5887L78.294 22.8438C78.0092 22.9311 77.6998 22.7735 77.6122 22.4839L76.7287 19.5617C76.6411 19.2721 76.8088 18.9611 77.0936 18.8737L81.5112 17.5192C81.7992 17.4309 82.1018 17.6013 82.1884 17.8876L82.3606 18.4571L82.3574 18.4581Z" fill="#D72B2B"/>
<path d="M93.6792 13.87C94.4434 14.0586 95.0947 14.634 95.3395 15.4443C95.7111 16.6744 95.0173 17.9826 93.794 18.3579C93.0335 18.5912 92.2499 18.4085 91.6716 17.9459C91.3396 17.6779 91.0798 17.3096 90.9351 16.8775L90.2232 17.6578C90.4603 18.1149 90.7989 18.4982 91.1977 18.7883C90.9241 19.0998 90.5611 19.3499 90.1307 19.4819C89.613 19.6408 89.0822 19.6045 88.6164 19.4203L82.5573 26.0622L93.492 22.707L93.9797 24.3211L80.3234 28.5114L76.6656 32.5212C76.9279 32.839 77.3647 32.9858 77.779 32.8587L100.872 25.773C101.428 25.6022 101.738 25.0128 101.57 24.4564L97.2037 10.0042L93.6792 13.87ZM97.3258 23.2944L95.0865 23.9815L94.5988 22.3674L96.8382 21.6803L97.3258 23.2944Z" fill="#C1C1C1"/>
<path d="M75.8979 33.1492L75.8979 33.1493L75.9056 33.1586C76.4121 33.7726 77.2614 34.066 78.0796 33.8154L101.166 26.7444C102.258 26.4101 102.856 25.2563 102.53 24.1778L98.066 9.42984C97.7379 8.34613 96.6011 7.7296 95.5116 8.06329L95.5084 8.06428L72.4251 15.1343C71.3409 15.4664 70.7327 16.6151 71.0613 17.7009L75.5253 32.4489C75.6084 32.7233 75.7432 32.9569 75.8979 33.1492Z" stroke="#3F3F3F" stroke-width="2"/>
<defs>
<filter id="filter0_d_525_848" x="79.1904" y="18.8484" width="193.541" height="45.3123" filterUnits="userSpaceOnUse" color-interpolation-filters="sRGB">
<feFlood flood-opacity="0" result="BackgroundImageFix"/>
<feColorMatrix in="SourceAlpha" type="matrix" values="0 0 0 0 0 0 0 0 0 0 0 0 0 0 0 0 0 0 127 0" result="hardAlpha"/>
<feOffset dx="2" dy="2"/>
<feComposite in2="hardAlpha" operator="out"/>
<feColorMatrix type="matrix" values="0 0 0 0 0.245833 0 0 0 0 0.245833 0 0 0 0 0.245833 0 0 0 1 0"/>
<feBlend mode="normal" in2="BackgroundImageFix" result="effect1_dropShadow_525_848"/>
<feBlend mode="normal" in="SourceGraphic" in2="effect1_dropShadow_525_848" result="shape"/>
</filter>
<clipPath id="clip0_525_848">
<rect width="147.934" height="12.9971" fill="white" transform="translate(101.456 30.9889)"/>
</clipPath>
</defs>
</svg>
