<svg width="339" height="126" viewBox="0 0 339 126" fill="none" xmlns="http://www.w3.org/2000/svg">
<circle cx="171.5" cy="25.5" r="25.5" fill="#D72B2B"/>
<path d="M181.207 16.8498C180.932 16.7532 180.643 16.7098 180.316 16.7098C179.853 16.7098 179.405 16.8015 178.972 16.8932C178.823 16.9222 178.673 16.956 178.529 16.9801L177.797 17.1056C177.903 16.8449 177.999 16.5746 178.081 16.2995C178.587 14.5713 178.529 12.7515 177.941 11.5688C177.479 10.6034 176.515 10 175.436 10C175.171 10 174.897 10.0386 174.603 10.1159C173.548 10.4151 172.676 11.3178 172.378 12.4088C172.281 12.7708 172.238 13.1135 172.204 13.4176C172.195 13.5142 172.185 13.6059 172.175 13.6783C172.146 13.8666 172.122 14.0693 172.103 14.2721C172.098 14.3155 172.093 14.3638 172.089 14.4072C172.05 14.4458 171.804 14.7113 171.804 14.7113C171.641 14.8899 171.467 15.0975 171.308 15.2858L171.111 15.5175C169.858 17.0139 168.726 18.4669 167.922 20.2095C167.749 20.1661 167.566 20.1419 167.373 20.1419C167.036 20.1419 166.708 20.2047 166.448 20.2578L166.265 20.2916L164.107 20.6584C164.025 20.6729 163.934 20.6874 163.842 20.697C163.51 20.7453 163.129 20.8032 162.778 20.9143C162.084 21.1363 161.511 21.648 161.231 22.29C161.068 22.6569 161.039 23.0141 161.015 23.2748L160.128 31.6596C160.119 31.7417 160.104 31.8334 160.09 31.9299C160.008 32.4609 159.921 33.0691 160.128 33.6436L160.157 33.7256L160.196 33.8029C160.379 34.1794 160.798 34.6766 161.395 34.8841C161.607 34.9614 161.829 35 162.065 35C162.301 35 162.513 34.9614 162.667 34.9324L165.629 34.4256C165.697 34.4159 165.769 34.4063 165.846 34.3918C166.308 34.329 166.886 34.2518 167.358 33.9332C167.493 33.8463 167.652 33.7304 167.821 33.5518C167.946 33.5712 168.076 33.5856 168.211 33.5856C168.582 33.5856 168.934 33.5084 169.242 33.4408C169.348 33.4167 169.463 33.3925 169.569 33.3732L170.461 33.2236C172.792 32.8278 175.094 32.4319 177.325 32.0409C177.455 32.0168 177.58 32.0023 177.71 31.983C178.033 31.9396 178.399 31.8913 178.774 31.7851C179.661 31.5437 180.494 30.8052 180.903 29.9025C181.164 29.3232 181.241 28.6716 181.149 28.0682C181.785 27.262 182.06 26.1614 181.838 25.1574C182.329 24.5347 182.623 23.7333 182.633 22.8982C182.633 22.4783 182.551 22.0776 182.387 21.7156C182.758 21.1074 182.97 20.3881 182.999 19.6158C183.033 18.2931 182.344 17.2311 181.207 16.8498ZM166.906 31.1576C166.858 31.6065 166.829 32.1133 166.655 32.3402C166.573 32.4368 166.52 32.4754 166.453 32.5188C166.222 32.6733 165.701 32.7071 165.35 32.765L162.479 33.2526C162.277 33.2863 162.065 33.3443 161.964 33.296C161.872 33.2719 161.742 33.1319 161.713 33.0643C161.626 32.8229 161.766 32.2051 161.805 31.8285L162.676 23.5692C162.701 23.3375 162.71 23.1106 162.778 22.961C162.864 22.7534 163.076 22.5845 163.293 22.5169C163.601 22.4155 164.044 22.3721 164.391 22.3142L166.549 21.9473C166.882 21.8894 167.32 21.7735 167.551 21.8411C167.662 21.8652 167.773 21.9473 167.811 22.068C167.888 22.2948 167.782 22.8982 167.739 23.3134L166.911 31.1527L166.906 31.1576ZM180.557 21.3198C180.422 21.4453 180.321 21.4839 180.099 21.6432C180.099 21.788 180.253 21.7976 180.335 21.8604C180.634 22.039 180.961 22.3673 180.956 22.8886C180.947 23.5451 180.61 24.1485 180.171 24.4526C179.998 24.5733 179.805 24.6312 179.617 24.7615C179.617 24.9015 179.743 24.9257 179.8 24.9739C179.945 25.0608 180.104 25.2298 180.176 25.4132C180.417 26.0938 180.056 26.9289 179.55 27.3103C179.405 27.4213 179.251 27.4744 179.121 27.5806C179.107 27.7303 179.242 27.7303 179.285 27.793C179.502 28.0247 179.617 28.6667 179.377 29.217C179.194 29.6273 178.774 30.0425 178.346 30.1632C177.917 30.2838 177.479 30.308 177.045 30.3852C174.536 30.8245 171.93 31.2686 169.3 31.7175C168.683 31.8237 168.038 32.0699 167.831 31.7416C167.7 31.5051 167.797 30.9983 167.84 30.5831L168.25 26.7165C168.341 25.8573 168.404 24.9643 168.524 24.1292C168.987 20.8032 170.672 18.6745 172.411 16.5988C172.604 16.3767 172.845 16.0823 173.066 15.8361C173.293 15.5851 173.625 15.2713 173.702 15.0348C173.765 14.8658 173.755 14.6679 173.784 14.4796C173.803 14.2962 173.823 14.1031 173.847 13.9342C173.9 13.5673 173.919 13.1908 174.011 12.8529C174.155 12.3219 174.598 11.8681 175.075 11.733C175.778 11.5447 176.25 11.9067 176.438 12.2977C176.824 13.0749 176.877 14.4748 176.482 15.8264C176.308 16.4009 176.043 16.9753 175.788 17.5111C175.615 17.8731 175.407 18.3172 175.196 18.7131C175.133 18.8434 175.008 19.0365 175.008 19.1041C175.022 19.3165 175.571 19.1958 175.812 19.1572C176.828 18.9834 177.806 18.8096 178.823 18.6358C179.497 18.52 180.244 18.2883 180.667 18.4379C181.082 18.5779 181.351 18.9544 181.332 19.5723C181.308 20.3012 181.024 20.9143 180.571 21.3198H180.557Z" fill="white"/>
<path d="M98.038 56.498C98.304 55.602 98.486 54.692 98.556 53.754L100.782 54.3C100.642 55.476 100.376 56.61 99.998 57.73C100.586 58.178 101.174 58.626 101.748 59.116L100.544 61.272C100.054 60.824 99.536 60.376 99.018 59.942C98.332 61.244 97.422 62.434 96.302 63.386L94.356 62.07C95.532 61.118 96.456 59.956 97.17 58.612C96.414 58.136 95.63 57.688 94.762 57.422C94.272 58.458 93.684 59.48 93.012 60.404C92.438 61.174 91.682 61.986 90.632 61.986C89.176 61.986 88.532 60.558 88.532 59.298C88.532 56.862 90.562 54.916 92.97 54.916C93.166 54.916 93.362 54.944 93.558 54.958C93.852 54.272 94.132 53.586 94.398 52.886C93.39 52.998 92.368 53.068 91.346 53.068C91.15 53.068 90.954 53.068 90.758 53.068L90.73 50.828C91.29 50.856 91.864 50.87 92.438 50.87C93.614 50.87 94.804 50.842 95.952 50.576L97.31 51.626C96.764 52.886 96.246 54.16 95.714 55.434C96.512 55.714 97.296 56.078 98.038 56.498ZM92.578 57.016C92.228 57.044 91.892 57.114 91.584 57.31C90.912 57.702 90.45 58.5 90.45 59.27C90.45 59.41 90.464 59.732 90.66 59.732C91.038 59.732 91.766 58.556 92.578 57.016ZM109.504 49.988L111.646 51.01C110.82 52.466 110.022 53.936 109.28 55.434C109.742 55.168 110.246 55.014 110.778 55.014C111.996 55.014 113.004 55.826 113.004 57.086C113.004 57.716 112.892 58.332 112.808 58.934C112.752 59.326 112.668 59.732 112.668 60.124C112.668 60.474 112.878 60.726 113.242 60.726C114.432 60.726 115.146 58.64 115.384 57.702L117.288 58.92C116.644 60.908 115.384 62.994 113.032 62.994C111.38 62.994 110.372 62.028 110.372 60.376C110.372 59.69 110.512 59.004 110.624 58.332C110.652 58.122 110.694 57.926 110.694 57.73C110.694 57.38 110.4 57.17 110.078 57.17C109.644 57.17 109.21 57.422 108.86 57.646C108.3 58.024 107.894 58.542 107.544 59.116C106.83 60.306 106.242 61.72 105.682 62.994L103.624 61.874L109.504 49.988ZM122.468 52.2C122.706 51.458 122.93 50.716 123.126 49.96L125.464 50.422C125.296 50.954 125.114 51.472 124.932 52.004C125.52 51.934 126.094 51.836 126.668 51.724L126.556 53.922C125.758 54.048 124.96 54.146 124.162 54.23C123.322 56.512 122.384 58.766 121.362 60.978L119.178 59.998C120.144 58.192 121.012 56.316 121.712 54.384C121.082 54.412 120.452 54.412 119.822 54.412L119.752 52.172C120.298 52.2 120.844 52.214 121.404 52.214C121.754 52.214 122.118 52.214 122.468 52.2ZM127.802 52.102C129.342 52.452 130.826 52.928 132.268 53.544L131.526 55.644C131.106 55.42 130.63 55.168 130.126 55.168C129.3 55.168 128.908 55.826 128.908 56.582C128.908 57.184 129.006 57.8 129.104 58.388C130.28 58.85 131.26 59.368 132.31 60.082L131.232 62.056C130.616 61.608 129.972 61.202 129.3 60.824C129.23 62.518 127.676 63.204 126.178 63.204C124.554 63.204 122.664 62.476 122.664 60.572C122.664 59.816 123 59.088 123.574 58.598C124.288 57.996 125.254 57.828 126.15 57.828C126.374 57.828 126.598 57.842 126.822 57.87C126.766 57.422 126.724 56.974 126.724 56.526C126.724 55.434 127.13 54.79 128.082 54.286C127.704 54.188 127.312 54.104 126.906 54.034L127.802 52.102ZM127.046 59.914C126.696 59.83 126.346 59.774 125.996 59.774C125.52 59.774 124.68 59.858 124.68 60.502C124.68 61.118 125.506 61.272 125.982 61.272C126.57 61.272 127.088 61.09 127.088 60.404C127.088 60.25 127.074 60.082 127.046 59.914ZM140.402 53.124C143.384 53.11 144.126 54.636 144.126 57.352C144.126 58.64 143.986 60.642 143.3 61.748C142.754 62.602 141.732 62.924 140.766 62.924C140.178 62.924 139.59 62.854 139.002 62.756L139.016 60.544C139.492 60.656 139.982 60.726 140.472 60.726C141.284 60.726 141.522 60.292 141.662 59.564C141.802 58.752 141.858 57.912 141.858 57.086C141.858 56.064 141.76 55.252 140.514 55.252C140.304 55.252 140.094 55.266 139.884 55.28C139.156 58.038 138.134 60.74 136.636 63.176L134.662 61.888C135.922 59.9 136.86 57.772 137.518 55.532C136.636 55.63 135.768 55.77 134.886 55.91L134.634 53.698L138.064 53.306C138.274 52.242 138.456 51.178 138.596 50.1L140.906 50.506C140.766 51.388 140.598 52.256 140.402 53.124ZM144.462 51.808C146.268 53.446 147.36 55.728 147.612 58.15L145.456 58.92C145.246 56.652 144.532 54.594 142.894 52.956L144.462 51.808ZM145.064 51.78L145.848 51.122C146.324 51.556 146.744 52.032 147.122 52.564L146.296 53.222C145.932 52.69 145.526 52.228 145.064 51.78ZM146.198 50.87L146.968 50.198C147.444 50.646 147.864 51.122 148.242 51.654L147.43 52.298C147.066 51.78 146.66 51.318 146.198 50.87ZM153.646 52.48L152.246 53.866C151.658 53.068 150.804 52.2 150.006 51.598L151.476 50.128C152.176 50.632 153.086 51.5 153.646 52.158V51.99H156.026V51.528H153.548V50.352H157.804V53.026H155.438V53.432C155.438 53.6 155.466 53.698 155.676 53.698H156.222C156.446 53.698 156.558 53.6 156.6 53.18L158.098 53.362C158.07 53.684 158.014 54.062 157.86 54.37C157.72 54.65 157.496 54.86 157.118 54.86H154.612C153.94 54.86 153.646 54.552 153.646 53.894V52.48ZM158.336 50.352H162.718V53.026H160.142V53.418C160.142 53.544 160.156 53.698 160.464 53.698H161.346C161.556 53.698 161.668 53.544 161.682 53.166L163.25 53.376C163.208 53.684 163.152 54.062 162.998 54.356C162.844 54.65 162.62 54.86 162.228 54.86H159.372C158.798 54.86 158.392 54.524 158.392 54.034V51.99H160.94V51.528H158.336V50.352ZM162.326 61.048H163.432L162.984 63.022H156.418C155.69 63.022 154.92 62.938 154.22 62.728C153.52 62.518 153.016 62.14 152.554 61.566C151.98 62.238 151.252 62.868 150.496 63.344L149.74 61.16C150.216 60.936 150.748 60.586 151.154 60.25V57.184H149.936V55.21H153.198V59.312C153.45 60.194 153.954 60.614 154.822 60.866L153.898 59.648C154.682 59.494 155.368 59.284 156.096 58.962H153.59V57.478H155.424V56.792H153.814V55.448H155.424V55.084H157.342V55.448H159.274V55.084H161.178V55.448H162.83V56.792H161.178V57.478H163.18V58.962H160.898C161.598 59.27 162.424 59.564 163.166 59.704L162.326 61.048ZM159.274 56.792H157.342V57.478H159.274V56.792ZM161.668 61.048C160.758 60.726 159.806 60.264 159.008 59.732L159.904 58.962H156.894L157.902 59.732C157.16 60.236 156.348 60.656 155.522 60.992C155.9 61.048 156.502 61.048 156.88 61.048H161.668ZM171.104 49.988L173.246 51.01C172.42 52.466 171.622 53.936 170.88 55.434C171.342 55.168 171.846 55.014 172.378 55.014C173.596 55.014 174.604 55.826 174.604 57.086C174.604 57.716 174.492 58.332 174.408 58.934C174.352 59.326 174.268 59.732 174.268 60.124C174.268 60.474 174.478 60.726 174.842 60.726C176.032 60.726 176.746 58.64 176.984 57.702L178.888 58.92C178.244 60.908 176.984 62.994 174.632 62.994C172.98 62.994 171.972 62.028 171.972 60.376C171.972 59.69 172.112 59.004 172.224 58.332C172.252 58.122 172.294 57.926 172.294 57.73C172.294 57.38 172 57.17 171.678 57.17C171.244 57.17 170.81 57.422 170.46 57.646C169.9 58.024 169.494 58.542 169.144 59.116C168.43 60.306 167.842 61.72 167.282 62.994L165.224 61.874L171.104 49.988ZM184.236 52.228C184.404 51.486 184.53 50.73 184.656 49.974L186.98 50.212C186.868 50.828 186.714 51.43 186.588 52.046C187.484 51.934 188.366 51.766 189.234 51.57L189.318 53.754C188.24 53.95 187.162 54.132 186.07 54.244C185.342 57.198 184.418 60.138 183.172 62.938L180.932 62.056C181.562 60.768 182.136 59.438 182.612 58.08C183.032 56.876 183.382 55.658 183.718 54.426C183.046 54.468 182.36 54.468 181.688 54.468C181.576 54.468 181.478 54.468 181.38 54.468L181.352 52.228C181.842 52.242 182.318 52.27 182.794 52.27C183.27 52.27 183.76 52.256 184.236 52.228ZM190.256 52.074L191.026 51.36C191.516 51.78 191.95 52.228 192.356 52.746L191.544 53.446C191.166 52.942 190.732 52.494 190.256 52.074ZM186.588 58.178L188.394 58.92C188.1 59.214 187.68 59.62 187.68 60.082C187.68 60.768 189.234 60.81 189.976 60.81C191.18 60.81 192.132 60.726 193.532 60.516V62.77C192.44 62.882 191.348 62.952 190.242 62.952C189.15 62.952 187.988 62.91 186.98 62.49C186.14 62.14 185.482 61.384 185.482 60.446C185.482 59.564 185.986 58.794 186.588 58.178ZM191.46 50.996L192.216 50.282C192.72 50.702 193.154 51.15 193.546 51.668L192.748 52.368C192.37 51.864 191.936 51.416 191.46 50.996ZM187.414 54.524C188.45 54.37 189.5 54.286 190.564 54.286C191.488 54.286 192.426 54.342 193.35 54.44L193.14 56.568C192.188 56.47 191.236 56.4 190.27 56.4C189.234 56.4 188.198 56.456 187.162 56.596L187.414 54.524ZM202.996 61.02C205.096 60.362 206.874 59.018 206.874 56.624C206.874 54.664 205.838 53.264 203.906 52.9C203.556 55.434 202.996 58.262 201.75 60.516C201.26 61.37 200.546 62.168 199.482 62.168C198.768 62.168 198.152 61.79 197.69 61.272C196.724 60.222 196.36 58.752 196.36 57.366C196.36 53.502 199.244 50.744 203.094 50.744C206.58 50.744 209.24 53.068 209.24 56.652C209.24 58.486 208.498 60.236 207.112 61.454C206.286 62.196 205.25 62.686 204.214 63.022L202.996 61.02ZM201.624 53.012C199.678 53.642 198.586 55.448 198.586 57.436C198.586 58.038 198.656 58.668 198.908 59.214C199.006 59.41 199.16 59.69 199.398 59.69C199.832 59.69 200.252 58.5 200.434 57.968C201.008 56.358 201.358 54.692 201.624 53.012ZM219.866 52.942L219.796 50.324H222.05L222.106 52.816C222.848 52.732 223.576 52.634 224.318 52.508L224.304 54.776C223.59 54.874 222.876 54.944 222.148 55.014L222.204 57.912C222.204 57.996 222.204 58.08 222.218 58.164C223.184 58.542 224.094 59.06 224.934 59.676L224.052 61.748C223.478 61.272 222.862 60.866 222.204 60.502C222.134 62.294 220.916 62.994 219.25 62.994C217.542 62.994 215.806 62.21 215.806 60.264C215.806 58.388 217.318 57.52 219.026 57.52C219.334 57.52 219.656 57.534 219.964 57.59C219.964 57.534 219.964 57.464 219.964 57.408L219.908 55.14C219.474 55.154 219.04 55.168 218.606 55.168C217.71 55.168 216.828 55.126 215.932 55.084L215.946 52.816C216.968 52.914 218.004 52.956 219.04 52.956C219.32 52.956 219.586 52.956 219.866 52.942ZM220.02 59.592C219.684 59.494 219.348 59.438 218.998 59.438C218.494 59.438 217.794 59.606 217.794 60.222C217.794 60.852 218.508 61.062 219.026 61.062C220.034 61.062 220.034 60.404 220.02 59.592ZM212.964 50.38L215.274 50.66C214.77 53.012 214.42 55.406 214.42 57.814C214.42 58.346 214.434 58.878 214.49 59.41C214.658 59.088 214.812 58.766 214.98 58.458L215.834 59.424C215.33 60.474 214.882 61.58 214.784 62.756L212.908 62.938C212.376 61.23 212.222 59.396 212.222 57.604C212.222 55.182 212.516 52.76 212.964 50.38ZM227.916 51.542H239.13V62.546H236.82V61.832H227.804V59.578H236.82V53.796H227.916V51.542ZM244.38 50.31H246.76V60.18C249.686 59.382 252.22 57.562 254.012 55.126L255.622 56.778C252.822 60.418 248.916 62.462 244.38 63.022V50.31Z" fill="white"/>
<line x1="88" y1="71" x2="260" y2="71" stroke="white" stroke-width="2"/>
<path d="M249.747 86.2972C250.876 86.3757 252.04 86.415 253.204 86.415C258.636 86.415 264.103 86.101 269.465 85.1589L272.428 91.0074C269.606 92.97 266.82 95.0503 264.103 97.1699C264.844 97.0521 265.62 96.9736 266.396 96.9736C272.252 96.9736 276.943 101.605 276.943 108.239C276.943 112.91 274.791 117.149 271.158 119.504C268.372 121.27 265.232 121.977 262.058 121.977C259.342 121.977 256.484 121.427 254.297 119.543C252.781 118.209 251.899 116.128 251.899 114.009C251.899 109.377 256.132 106.747 259.871 106.747C263.539 106.747 266.714 108.749 268.83 112.007C269.43 111.026 269.783 109.887 269.783 108.71C269.783 104.824 266.502 103.097 263.433 103.097C257.825 103.097 252.816 108.2 249.006 112.242L244.703 106.041L259.483 93.127C256.414 93.5588 253.38 93.8728 250.312 94.069L249.747 86.2972ZM263.715 115.461C262.728 113.852 261.246 112.517 259.412 112.517C258.707 112.517 257.79 112.87 257.79 113.852C257.79 115.5 260.47 115.697 261.529 115.697C262.269 115.697 262.975 115.579 263.715 115.461Z" fill="white"/>
<path d="M218.671 91.4391L218.706 84.9626H225.69C225.62 87.9065 225.549 90.8111 225.479 93.7157C227.842 91.2036 230.805 89.3981 234.156 89.3981C238.318 89.3981 242.022 92.3812 242.022 97.2876C242.022 99.3287 241.74 101.37 241.458 103.411C241.105 105.962 240.787 108.435 240.787 110.005C240.787 110.633 240.964 111.261 241.634 111.261C242.622 111.261 243.892 110.084 244.914 109.102L246.431 116.442C244.385 118.326 241.952 119.7 239.235 119.7C235.285 119.7 233.31 116.796 233.31 112.596C233.31 111.614 233.345 110.672 233.451 109.691C233.839 106.826 234.156 103.921 234.509 101.056C234.544 100.31 234.615 99.6034 234.615 98.8577C234.615 97.6801 234.121 97.0521 233.063 97.0521C230.452 97.0521 227.066 101.134 225.373 103.175C225.373 106.158 225.338 109.181 225.338 112.164C225.338 115.383 225.408 118.562 225.444 121.741H218.424L218.495 113.263C217.683 114.598 216.837 115.932 216.026 117.267L211.264 111.732L218.601 101.095V99.0539C216.872 99.3287 215.108 99.5249 213.38 99.7212L212.675 91.7139C214.685 91.7139 216.661 91.6354 218.671 91.4391Z" fill="white"/>
<path d="M189.571 84.3738C195.074 84.9626 200.4 86.2578 205.62 88.1419L203.292 95.2857C198.142 93.1269 192.851 91.6746 187.384 90.8895L189.571 84.3738ZM184.844 91.6746L191.899 93.2446C191.299 95.639 190.77 98.0333 190.276 100.467C193.204 98.8968 196.449 97.9155 199.694 97.9155C205.797 97.9155 211.299 101.291 211.299 108.788C211.299 113.302 209.289 117.267 205.62 119.308C201.917 121.349 197.014 121.741 192.922 121.741C190.876 121.741 188.795 121.623 186.749 121.349L185.409 113.302C187.984 113.812 190.559 114.126 193.169 114.126C196.308 114.126 203.821 113.812 203.821 108.827C203.821 105.923 201.458 105.177 199.271 105.177C194.862 105.177 190.876 107.414 187.666 110.672L182.022 108.867C182.763 103.097 183.716 97.366 184.844 91.6746Z" fill="white"/>
<path d="M155.99 85.3552L163.398 86.2188C162.516 90.7327 162.092 95.3251 161.846 99.9175C162.48 98.6615 163.151 97.4054 163.786 96.1494L167.031 99.525C164.879 103.45 163.221 107.65 162.269 112.085L156.449 112.753C155.179 108.435 154.826 103.764 154.826 99.211C154.826 94.5793 155.249 89.9476 155.99 85.3552ZM172.498 85.5122H180.117C180.505 90.1047 180.752 94.7363 180.752 99.368C180.752 110.555 178.389 117.345 169.077 122.566L162.939 116.874C166.502 115.029 170.205 112.439 171.898 108.317C173.133 105.256 173.239 101.723 173.239 98.4652C173.239 94.1083 172.886 89.7906 172.498 85.5122Z" fill="white"/>
<path d="M121.397 106.472C120.938 107.022 120.55 107.414 120.021 107.925L118.893 96.6202C121.573 93.0091 122.632 88.9662 123.125 84.3738L129.369 84.9233C129.016 88.1419 128.452 91.0465 127.57 94.1474V122.134H121.397V106.472ZM132.543 84.727H138.928V87.6317H142.455V84.727H149.016V87.6317H152.226V93.9904H149.016V95.8745H152.967V102.155H128.487V95.8745H132.543V93.9904H129.369V87.6317H132.543V84.727ZM142.455 93.9904H138.928V95.8745H142.455V93.9904ZM150.956 103.293V122.134H144.501V121.035H136.882V122.134H130.498V103.293H150.956ZM144.501 108.121H136.882V109.416H144.501V108.121ZM144.501 113.93H136.882V115.304H144.501V113.93Z" fill="white"/>
<path d="M97.3707 100.968L101.879 101.533C101.053 105.725 100.566 109.988 100.566 114.297C100.566 114.933 100.588 115.569 100.609 116.182C100.82 115.616 101.053 115.028 101.286 114.439L102.514 116.464C101.815 118.23 101.328 120.067 101.011 121.951L97.3495 122.352C96.4818 119.384 96.3125 116.229 96.3125 113.143C96.3125 109.069 96.7146 104.995 97.3707 100.968ZM103.572 102.946C104.969 103.064 106.387 103.134 107.783 103.134C109.984 103.134 112.164 102.969 114.323 102.616L114.238 107.303C112.08 107.609 109.9 107.774 107.699 107.774C106.281 107.774 104.884 107.703 103.466 107.562L103.572 102.946ZM107.043 113.214C106.725 113.756 106.429 114.392 106.429 115.075C106.429 116.488 108.863 116.346 109.731 116.346C111.593 116.346 113.455 116.111 115.275 115.734L115.106 120.586C113.392 120.868 111.678 121.033 109.963 121.033C106.768 121.033 102.619 120.68 102.619 116.064C102.619 114.745 103.022 113.52 103.593 112.413L107.043 113.214Z" fill="white"/>
<path d="M98.5604 88.613C98.8425 88.613 99.16 88.5737 99.4422 88.5737L99.5833 95.953C98.2429 95.8745 96.9025 95.8745 95.5621 95.8745C94.4334 95.8745 93.3046 95.8745 92.1759 95.9137L90.3769 95.953L90.4827 106.669C90.518 109.966 90.2358 113.42 88.6485 116.246C86.6732 119.739 83.1106 121.82 79.6185 122.958L74.1512 117.502C76.8672 116.599 79.5833 115.461 81.876 113.616C81.2411 113.812 80.5709 113.891 79.9007 113.891C75.5974 113.891 72.4933 110.319 72.4933 105.57C72.4933 100.074 76.3381 97.052 80.9942 97.052C81.7702 97.052 82.5462 97.1305 83.3222 97.2875L83.287 96.11L74.1159 96.3455C71.6468 96.3848 69.1776 96.5025 66.7085 96.738L66.5674 89.0447C67.943 89.084 69.3187 89.1232 70.6944 89.1232C71.7878 89.1232 72.8813 89.084 73.9748 89.084L83.1459 88.927L83.0753 84.6878H90.2711L90.3064 88.8092H92.0701C92.6697 88.77 93.2693 88.77 93.869 88.77C93.093 87.4354 92.2464 86.2186 91.2235 85.1196L93.4457 83.2748C94.5039 84.4131 95.421 85.6691 96.1618 87.0822L94.1864 88.77C95.5974 88.7307 97.0083 88.6915 98.384 88.613C97.6785 87.1999 96.8672 85.9046 95.9148 84.7271L98.2076 83C99.1953 84.2168 100.042 85.5513 100.747 87.0037L98.5604 88.613ZM83.1459 105.413C83.1459 104.117 82.3699 102.94 81.1353 102.94C79.9007 102.94 79.0894 104.117 79.0894 105.413C79.0894 106.786 79.936 107.925 81.2058 107.925C82.511 107.925 83.1459 106.747 83.1459 105.413Z" fill="white"/>
<path d="M38.5449 85.1195H46.0229V111.771C52.8306 109.534 58.6155 104.667 62.7777 98.308L67.8218 104.235C60.5555 114.558 50.2204 120.407 38.5449 121.623V85.1195Z" fill="white"/>
<path d="M16.4374 89.5548C15.2381 100.27 12.5221 111.339 7.08995 120.446L0 116.442C4.903 108.003 7.58378 98.0724 8.88889 88.181L16.4374 89.5548ZM25.1852 87.6315C29.9471 96.7771 33.0159 106.08 34.6737 116.481L26.9841 119.15C25.5027 109.338 22.9277 99.9957 18.8713 91.0856L25.1852 87.6315ZM30.5115 87.3568L32.9453 85.6689C34.0741 87.0035 34.9559 88.5343 35.6967 90.1829L33.2628 91.8707C32.5573 90.2221 31.605 88.7306 30.5115 87.3568ZM27.2311 89.6726L29.6649 87.9455C30.7584 89.3193 31.6755 90.8501 32.4162 92.4987L29.9471 94.1865C29.2416 92.538 28.3245 91.0071 27.2311 89.6726Z" fill="white"/>
<g filter="url(#filter0_d_648_928)">
<path d="M322.907 109.141H322.131C320.806 109.141 320.487 108.707 320.487 107.406V105.122L318.043 107.748C316.832 106.309 315.782 105.304 314.138 104.345L316.947 101.193C318.408 102.107 319.687 103.043 320.875 104.3H324.095V103.751H320.487V101.65H327.544V106.172H323.958V106.72C323.958 106.903 323.958 107.177 324.278 107.177H324.506C324.872 107.177 324.94 106.812 324.963 106.332L327.726 106.72C327.635 107.725 327.43 108.959 326.219 109.118H326.767V109.712H329.371V109.118C328.434 109.027 328.206 108.456 328.206 107.611V104.3H332.02V103.751H328.206V101.65H335.446V106.172H331.655V106.72C331.655 107.04 331.723 107.177 332.18 107.177H332.888C333.23 107.177 333.322 106.857 333.345 106.309L336.245 106.72C336.131 108.114 335.697 109.141 334.121 109.141H333.185V109.712H335.446V112.339H333.185V112.887H336.017V115.65H332.911C333.87 116.061 334.989 116.313 336.017 116.427L334.646 118.665H336.474L335.583 122.662H325.1C324.027 122.662 322.428 122.547 321.4 122.273C320.281 121.977 319.322 121.314 318.454 120.538C317.335 121.634 316.421 122.41 315.028 123.164L313.795 118.756C314.549 118.437 315.142 118.14 315.828 117.683V113.321H314.138V109.37H319.938V116.198C320.35 117.386 321.08 118.025 322.268 118.368L320.806 116.45C321.857 116.267 322.885 116.016 323.867 115.65H320.487V112.887H322.907V112.339H320.669V109.712H322.907V109.141ZM329.371 112.156H326.767V112.887H329.371V112.156ZM324.917 118.665H331.906C330.81 118.185 329.828 117.637 328.846 116.998L330.33 115.65H326.219L327.818 116.998C326.904 117.637 325.922 118.185 324.917 118.665Z" fill="url(#paint0_linear_648_928)"/>
<path d="M280.482 96.0474C280.627 93.2096 281.061 90.419 282.555 87.9596C285.303 83.3717 290.51 82.0001 295.669 82.0001C300.201 82.0001 304.974 83.3244 307.818 87.0136C309.313 88.9528 310.036 91.4123 310.036 93.8244C310.036 97.2771 308.879 99.5474 306.131 101.581C309.409 103.993 311 107.02 311 111.088C311 115.534 308.734 119.507 304.925 121.872C302.129 123.622 298.272 124 295.042 124C290.896 124 286.894 123.007 283.905 120.074C282.507 118.608 281.446 116.858 280.868 114.919C280.241 112.933 280.048 110.899 280 108.818H290.703C290.703 112.601 291.137 115.345 295.765 115.345C298.658 115.345 300.683 113.879 300.683 110.899C300.683 107.304 297.935 106.642 294.849 106.642H291.33V98.365H295.669C297.935 98.365 299.477 97.0407 299.477 94.8177C299.477 92.3109 297.983 90.7974 295.476 90.7974C292.149 90.7974 291.233 93.2569 291.185 96.0474H280.482Z" fill="url(#paint1_linear_648_928)"/>
<path d="M327.88 83.4656C327.544 83.8604 327.27 84.1424 326.873 84.4582L325.938 82.4053C326.579 81.8751 327.087 81.266 327.504 80.5103L329.628 80.702C329.567 80.8486 329.516 80.9727 329.455 81.1194H335.868V82.879H328.357C328.276 82.9805 328.195 83.0821 328.113 83.1836H335.095V84.6048H327.88V83.4656ZM327.9 88.7558C327.463 88.4174 327.087 88.1467 326.609 87.876L327.697 86.5675H326.121V84.932H334.16C334.13 85.6426 334.11 86.3419 334.11 87.0413C334.11 87.5489 334.14 88.4625 334.252 88.9025C334.272 88.9927 334.343 89.1281 334.435 89.1281C334.689 89.1281 335.187 88.1016 335.329 87.7745L336.041 90.0868C335.654 90.7636 335.034 91.5307 334.252 91.5307C333.703 91.5307 333.185 91.1584 332.89 90.6734C332.28 89.6695 332.229 87.7632 332.209 86.5675H330.674L331.853 87.3007C331.559 87.8422 331.274 88.2482 330.878 88.7107C331.274 89.0829 331.67 89.4552 332.057 89.85L330.613 91.3615C330.227 90.8877 329.811 90.4591 329.374 90.053C328.682 90.5606 327.951 91.0005 327.199 91.4066L326.193 89.5793C326.802 89.3649 327.341 89.1168 327.9 88.7558ZM329.445 87.4925C329.729 87.2105 329.953 86.9059 330.187 86.5675H328.113C328.571 86.8495 329.018 87.1654 329.445 87.4925Z" fill="white"/>
<path d="M319.894 80.5103H321.943V82.5809C321.943 84.0994 322.169 85.4223 322.906 86.7107C323.654 88.0106 324.699 88.8503 325.939 89.4715L324.679 91.5307C322.763 90.2653 321.656 88.9884 320.908 86.6071C320.109 88.9769 318.982 90.2308 317.087 91.5307L315.837 89.529C318.439 88.3212 319.894 85.7329 319.894 82.5924V80.5103Z" fill="white"/>
<path d="M314 81.8878V93.8266H319.969L318.133 97.5001L323.643 93.8266H336.5" stroke="white" stroke-linecap="round" stroke-linejoin="round"/>
</g>
<defs>
<filter id="filter0_d_648_928" x="280" y="80.5103" width="59" height="45.4899" filterUnits="userSpaceOnUse" color-interpolation-filters="sRGB">
<feFlood flood-opacity="0" result="BackgroundImageFix"/>
<feColorMatrix in="SourceAlpha" type="matrix" values="0 0 0 0 0 0 0 0 0 0 0 0 0 0 0 0 0 0 127 0" result="hardAlpha"/>
<feOffset dx="2" dy="2"/>
<feComposite in2="hardAlpha" operator="out"/>
<feColorMatrix type="matrix" values="0 0 0 0 0.758333 0 0 0 0 0.126389 0 0 0 0 0.126389 0 0 0 1 0"/>
<feBlend mode="normal" in2="BackgroundImageFix" result="effect1_dropShadow_648_928"/>
<feBlend mode="normal" in="SourceGraphic" in2="effect1_dropShadow_648_928" result="shape"/>
</filter>
<linearGradient id="paint0_linear_648_928" x1="320.702" y1="101.193" x2="336.343" y2="108.348" gradientUnits="userSpaceOnUse">
<stop stop-color="white"/>
<stop offset="0.525" stop-color="#FAE60F"/>
<stop offset="0.585" stop-color="#E6D737"/>
<stop offset="1" stop-color="#FFEA05"/>
</linearGradient>
<linearGradient id="paint1_linear_648_928" x1="289.442" y1="82.0001" x2="312.797" y2="89.6391" gradientUnits="userSpaceOnUse">
<stop stop-color="white"/>
<stop offset="0.525" stop-color="#FAE60F"/>
<stop offset="0.585" stop-color="#E6D737"/>
<stop offset="1" stop-color="#FFEA05"/>
</linearGradient>
</defs>
</svg>
