<svg width="39" height="39" viewBox="0 0 39 39" fill="none" xmlns="http://www.w3.org/2000/svg">
<mask id="path-1-outside-1_525_411" maskUnits="userSpaceOnUse" x="-0.599799" y="-1.18973" width="40.4507" height="40.4507" fill="black">
<rect fill="white" x="-0.599799" y="-1.18973" width="40.4507" height="40.4507"/>
<path fill-rule="evenodd" clip-rule="evenodd" d="M16.2242 34.6699C24.8588 36.5484 33.3813 31.0715 35.2598 22.4369C37.1383 13.8024 31.6614 5.27983 23.0269 3.40133C14.3923 1.52283 5.86975 6.99971 3.99125 15.6343C2.96598 20.347 4.13181 25.0263 6.80626 28.6103L4.92996 31.5832L8.47579 30.514C10.5477 32.5303 13.1911 34.01 16.2242 34.6699Z"/>
</mask>
<path fill-rule="evenodd" clip-rule="evenodd" d="M16.2242 34.6699C24.8588 36.5484 33.3813 31.0715 35.2598 22.4369C37.1383 13.8024 31.6614 5.27983 23.0269 3.40133C14.3923 1.52283 5.86975 6.99971 3.99125 15.6343C2.96598 20.347 4.13181 25.0263 6.80626 28.6103L4.92996 31.5832L8.47579 30.514C10.5477 32.5303 13.1911 34.01 16.2242 34.6699Z" fill="white"/>
<path d="M6.80626 28.6103L7.65192 29.144C7.87284 28.7939 7.85526 28.3439 7.6077 28.0122L6.80626 28.6103ZM4.92996 31.5832L4.0843 31.0495C3.86157 31.4024 3.88141 31.8565 4.13409 32.1887C4.38676 32.5208 4.81912 32.6611 5.21867 32.5406L4.92996 31.5832ZM8.47579 30.514L9.17324 29.7973C8.91272 29.5438 8.53513 29.4516 8.18708 29.5565L8.47579 30.514ZM34.2827 22.2244C32.5216 30.3193 24.5317 35.4539 16.4368 33.6928L16.0116 35.647C25.1859 37.643 34.2411 31.8238 36.237 22.6495L34.2827 22.2244ZM22.8143 4.37847C30.9092 6.13956 36.0438 14.1294 34.2827 22.2244L36.237 22.6495C38.2329 13.4753 32.4137 4.42009 23.2394 2.42418L22.8143 4.37847ZM4.9684 15.8469C6.72949 7.75195 14.7194 2.61737 22.8143 4.37847L23.2394 2.42418C14.0652 0.428276 5.01002 6.24747 3.01411 15.4217L4.9684 15.8469ZM7.6077 28.0122C5.09904 24.6504 4.00724 20.2648 4.9684 15.8469L3.01411 15.4217C1.92471 20.4291 3.16458 25.4022 6.00481 29.2083L7.6077 28.0122ZM5.77563 32.1169L7.65192 29.144L5.96059 28.0765L4.0843 31.0495L5.77563 32.1169ZM8.18708 29.5565L4.64125 30.6258L5.21867 32.5406L8.7645 31.4714L8.18708 29.5565ZM16.4368 33.6928C13.5918 33.0738 11.1149 31.687 9.17324 29.7973L7.77834 31.2306C9.98039 33.3737 12.7905 34.9463 16.0116 35.647L16.4368 33.6928Z" fill="#3F3F3F" mask="url(#path-1-outside-1_525_411)"/>
<path d="M19.3135 8.89111L24.124 9.93768L22.7987 16.0295L20.3514 23.3841L17.1589 22.6895L17.9882 14.983L19.3135 8.89111ZM16.2147 23.6613L20.8065 24.6602L19.8284 29.1561L15.2366 28.1571L16.2147 23.6613Z" fill="#3F3F3F"/>
</svg>
