<svg width="283" height="59" viewBox="0 0 283 59" fill="none" xmlns="http://www.w3.org/2000/svg">
<path d="M7.86588 4.63222C9.47588 4.07222 11.1279 3.62422 12.7799 3.16222L13.4799 5.43022C12.4439 5.66822 11.4219 5.92022 10.3999 6.20022C9.23788 6.52222 8.07588 6.85822 6.96988 7.32022C6.11588 7.68422 4.70188 8.37022 4.70188 9.46222C4.70188 10.7922 7.06788 10.8342 8.00588 10.8342C9.83988 10.8342 11.6739 10.6242 13.4799 10.3162L13.6479 12.7102C11.9119 12.9062 10.1759 13.0602 8.42588 13.0602C7.10988 13.0602 5.65388 13.0182 4.42188 12.5422C3.14788 12.0382 2.29388 11.0862 2.29388 9.65822C2.29388 7.67022 4.01588 6.34022 5.63988 5.54222C5.48588 5.05222 5.37388 4.54822 5.26188 4.04422L4.58988 0.740222L6.98388 0.264223L7.58588 3.51222C7.65588 3.89022 7.76788 4.26822 7.86588 4.63222ZM16.3639 0.810222L18.7579 1.07622C18.1699 3.48422 17.8339 5.96222 17.8339 8.45422C17.8339 8.90222 17.8619 9.36422 17.8899 9.81222C18.0579 9.42022 18.2119 9.02822 18.3659 8.65022L19.2479 9.65822C18.8139 10.7222 18.4359 11.8562 18.3239 13.0042L16.4059 13.2002C15.7759 11.5062 15.6079 9.67222 15.6079 7.86622C15.6079 5.50022 15.9159 3.13422 16.3639 0.810222ZM20.2979 1.93022C21.1939 2.01422 22.0899 2.05622 22.9859 2.05622C24.3719 2.05622 25.7579 1.95822 27.1299 1.74822L27.0879 4.04422C25.6879 4.19822 24.2879 4.29622 22.8739 4.29622C21.9919 4.29622 21.1099 4.25422 20.2419 4.17022L20.2979 1.93022ZM21.9919 8.11822C21.8239 8.48222 21.6699 8.87422 21.6699 9.28022C21.6699 10.0922 23.1259 10.1342 23.8819 10.1342C25.3239 10.1342 26.3739 10.0222 27.7459 9.78422L27.7179 12.1082C26.5419 12.2622 25.3659 12.3742 24.1759 12.3742C22.2159 12.3742 19.5839 12.1642 19.5839 9.58822C19.5839 8.94422 19.7799 8.34222 20.0599 7.76822L21.9919 8.11822ZM32.0579 3.49822C32.2679 2.43422 32.4499 1.35622 32.5899 0.278222L34.8999 0.684222C34.7599 1.56622 34.5919 2.43422 34.3959 3.30222C35.1519 3.30222 35.9359 3.35822 36.6079 3.72222C38.0359 4.50622 38.1759 6.07422 38.1759 7.53022C38.1759 8.81822 38.0359 10.8202 37.3499 11.9262C36.8039 12.7802 35.7819 13.1022 34.8159 13.1022C34.2279 13.1022 33.6399 13.0322 33.0519 12.9342L33.0659 10.7222C33.5419 10.8342 34.0319 10.9042 34.5219 10.9042C35.3339 10.9042 35.5719 10.4702 35.7119 9.74222C35.8519 8.93022 35.9079 8.09022 35.9079 7.26422C35.9079 6.24222 35.8099 5.43022 34.5639 5.43022C34.3399 5.43022 34.1159 5.44422 33.8779 5.45822C33.5139 6.90022 33.0379 8.31422 32.4779 9.68622C31.9599 10.9602 31.3439 12.1922 30.6299 13.3542L28.6559 12.0662C29.9159 10.0922 30.8539 7.95022 31.5119 5.71022C30.6439 5.82222 29.7899 5.94822 28.9359 6.08822L28.6839 3.87622L32.0579 3.49822ZM38.8899 1.80422C40.6539 3.54022 41.5639 5.87822 41.7319 8.32822L39.5479 9.02822C39.4219 6.77422 38.7639 4.64622 37.1819 2.99422L38.8899 1.80422ZM51.8399 0.110222L53.5339 1.94422C51.3639 3.47022 48.8719 4.95422 46.6179 6.27022C46.1979 6.50822 46.0579 6.66222 46.0579 6.81622C46.0579 6.92822 46.1279 7.01222 46.2119 7.06822C46.5619 7.27822 46.9539 7.46022 47.3179 7.64222C49.6419 8.79022 51.8819 10.1342 53.9539 11.6882L52.2739 13.6062C51.2659 12.8362 50.2439 12.0942 49.1799 11.3942C47.7519 10.4702 46.2679 9.63022 44.7699 8.83222C43.9719 8.39822 43.2019 7.86622 43.2019 6.85822C43.2019 5.59822 44.5459 4.94022 45.4839 4.36622C47.6539 3.05022 49.8099 1.66422 51.8399 0.110222ZM56.5439 7.46022C56.3339 7.71222 56.1239 7.95022 55.8999 8.18822L55.3399 5.12222C56.4879 3.75022 57.0479 1.94422 57.2719 0.194222L59.3159 0.334222C59.1339 1.49622 58.8959 2.57422 58.5319 3.68022V13.5222H56.5439V7.46022ZM64.0619 6.45222H61.6819V8.63622C62.4099 8.55222 63.1379 8.44022 63.8519 8.30022L63.9779 10.1342C62.5919 10.4562 60.5759 10.6522 59.1479 10.7502L58.9099 8.84622C59.1759 8.83222 59.4279 8.81822 59.6939 8.80422V0.866222H60.3519C62.4939 0.866222 65.6439 0.684222 67.7159 0.208222L68.6259 2.09822C67.6879 2.32222 66.8199 2.42022 65.8679 2.50422C65.8819 3.14822 65.9099 3.79222 65.9519 4.45022H68.8779V6.45222H66.0919C66.2179 7.64222 66.3159 8.67822 66.6799 9.82622C66.8059 10.2042 66.9739 10.7222 67.2259 10.7222C67.3799 10.7222 67.4919 10.4142 67.6039 10.0922C67.7439 9.68622 67.8699 9.26622 67.9819 8.84622L69.0319 10.9322C68.8919 11.5062 68.7379 11.9682 68.4439 12.4862C68.1219 13.0322 67.7439 13.5222 67.0439 13.5222C65.8399 13.5222 65.3079 12.2482 64.9719 11.2822C64.4679 9.81222 64.2159 8.00622 64.0619 6.45222ZM63.9079 4.45022C63.8939 3.83422 63.8659 3.21822 63.8519 2.60222C63.1239 2.63022 62.4099 2.65822 61.6819 2.67222V4.45022H63.9079ZM64.6359 13.2422H59.1759V11.3102H64.6359V13.2422ZM71.8179 4.81422C71.2299 5.10822 70.6279 5.38822 70.0259 5.64022L69.0039 3.54022C71.0059 2.92422 73.3439 1.77622 74.7439 0.208222H76.9279C78.6079 1.76222 80.4839 2.81222 82.6399 3.56822L81.6319 5.72422C81.0299 5.45822 80.4419 5.17822 79.8679 4.85622V5.72422H76.8859V6.67622H81.9259V8.65022H76.8859V11.2262H77.7539C78.0759 10.4002 78.3419 9.57422 78.5659 8.72022L80.6939 9.29422C80.4559 9.95222 80.1899 10.5962 79.9239 11.2262H82.2339V13.2142H69.3819V11.2262H71.6359C71.4819 10.6662 71.2159 10.0082 70.9079 9.33622L72.9659 8.74822C73.3439 9.53222 73.6239 10.3722 73.8479 11.2262H74.7579V8.65022H69.7179V6.67622H74.7579V5.72422H71.8179V4.81422ZM73.5399 3.82022H78.1459C77.2919 3.23222 76.5639 2.61622 75.8219 1.88822C75.1079 2.64422 74.4079 3.26022 73.5399 3.82022ZM85.3279 2.54622C84.5719 2.58822 83.8019 2.63022 83.0319 2.64422L82.7799 0.712222C84.9079 0.712222 86.9939 0.544222 89.0939 0.0962222L89.6959 1.98622C88.9119 2.18222 88.1839 2.26622 87.3859 2.36422V3.79222H89.5559V5.75222H87.5119C88.0299 6.74622 88.7999 7.86622 89.5979 8.65022L88.5339 10.4422C88.0859 9.84022 87.7079 9.21022 87.3859 8.53822V13.5082H85.3279V8.70622C84.7399 9.91022 84.1659 10.7082 83.2699 11.7022L82.5279 9.11222C83.5779 8.24422 84.5159 6.95622 85.1319 5.75222H82.7099V3.79222H85.3279V2.54622ZM95.5619 0.180222V11.8842C95.5619 12.3042 95.5199 12.7522 95.2119 13.0742C94.9179 13.3542 94.5119 13.5082 94.1059 13.5082H91.2639L90.8719 11.2682H93.0279C93.3499 11.2682 93.4479 11.2122 93.4479 10.9042V0.180222H95.5619ZM92.2299 1.24422V10.3442H90.1439V1.24422H92.2299ZM106.216 5.43022L107.098 4.81422C107.56 5.30422 107.938 5.83622 108.274 6.41022L107.35 7.02622C107.028 6.45222 106.65 5.93422 106.216 5.43022ZM107.63 4.49222L108.512 3.87622C108.96 4.36622 109.338 4.89822 109.674 5.47222L108.764 6.08822C108.442 5.51422 108.064 4.98222 107.63 4.49222ZM96.5559 1.87422C97.4099 1.86022 98.2779 1.84622 99.1319 1.79022L109.184 1.07622L109.366 3.35822C107.742 3.40022 106.314 3.63822 104.928 4.52022C103.71 5.27622 102.66 6.49422 102.66 8.00622C102.66 10.2182 105.264 10.9182 107.042 11.0722L105.95 13.3262C104.746 13.1722 103.57 12.7942 102.52 12.1782C101.022 11.2962 100.224 9.84022 100.224 8.11822C100.224 6.13022 101.302 4.59022 102.884 3.48422L96.7379 4.24022L96.5559 1.87422ZM110.892 7.41822C110.654 7.69822 110.5 7.88022 110.248 8.13222L109.688 5.09422C110.794 3.75022 111.326 1.88822 111.522 0.180222L113.594 0.348222C113.44 1.44022 113.23 2.44822 112.894 3.49822V13.4802H110.892V7.41822ZM115.204 0.250222H117.234V1.49622H119.222V0.250222H121.294V1.49622H122.792V3.31622H121.294V4.40822H123.114V6.22822H113.342V4.40822H115.204V3.31622H113.678V1.49622H115.204V0.250222ZM119.222 3.31622H117.234V4.40822H119.222V3.31622ZM122.232 6.88622V13.4802H120.174V13.0182H116.268V13.4802H114.21V6.88622H122.232ZM120.174 8.37022H116.268V9.15422H120.174V8.37022ZM120.174 10.5402H116.268V11.3382H120.174V10.5402ZM125.676 0.572222L127.986 0.824222C127.622 2.64422 127.44 4.47822 127.412 6.32622C127.72 5.73822 128.014 5.13622 128.322 4.54822L129.512 5.64022C128.756 6.99822 128.084 8.42622 127.706 9.93822L125.844 10.1342C125.354 8.60822 125.2 6.99822 125.2 5.40222C125.2 3.77822 125.368 2.16822 125.676 0.572222ZM132.396 0.572222H134.79C134.93 2.21022 135.056 3.86222 135.056 5.50022C135.056 9.39222 134.02 11.8282 130.408 13.6062L128.476 11.9682C129.666 11.4082 130.842 10.6942 131.626 9.63022C132.55 8.35622 132.662 6.78822 132.662 5.27622C132.662 3.70822 132.536 2.14022 132.396 0.572222ZM140.558 2.40622C140.726 1.66422 140.852 0.908222 140.978 0.152222L143.302 0.390222C143.19 1.00622 143.036 1.60822 142.91 2.22422C143.806 2.11222 144.688 1.94422 145.556 1.74822L145.64 3.93222C144.562 4.12822 143.484 4.31022 142.392 4.42222C141.664 7.37622 140.74 10.3162 139.494 13.1162L137.254 12.2342C137.884 10.9462 138.458 9.61622 138.934 8.25822C139.354 7.05422 139.704 5.83622 140.04 4.60422C139.368 4.64622 138.682 4.64622 138.01 4.64622C137.898 4.64622 137.8 4.64622 137.702 4.64622L137.674 2.40622C138.164 2.42022 138.64 2.44822 139.116 2.44822C139.592 2.44822 140.082 2.43422 140.558 2.40622ZM142.91 8.35622L144.716 9.09822C144.422 9.39222 144.002 9.79822 144.002 10.2602C144.002 10.9602 145.654 10.9882 146.298 10.9882C147.67 10.9882 148.748 10.8622 149.854 10.6942V12.9482C148.762 13.0602 147.67 13.1302 146.564 13.1302C145.472 13.1302 144.31 13.0882 143.302 12.6682C142.462 12.3182 141.804 11.5622 141.804 10.6242C141.804 9.74222 142.308 8.97222 142.91 8.35622ZM143.736 4.70222C144.772 4.54822 145.822 4.46422 146.886 4.46422C147.81 4.46422 148.748 4.52022 149.672 4.61822L149.462 6.74622C148.51 6.64822 147.558 6.57822 146.592 6.57822C145.556 6.57822 144.52 6.63422 143.484 6.77422L143.736 4.70222ZM151.576 1.25822L153.97 1.63622C153.718 2.95222 153.564 4.31022 153.564 5.65422C153.564 6.91422 153.648 8.55222 154.264 9.67222C154.39 9.88222 154.558 10.1062 154.824 10.1062C155.188 10.1062 155.426 9.56022 155.594 9.16822C155.86 8.60822 156.056 8.00622 156.224 7.40422L158.086 8.70622C157.582 10.2322 156.616 12.8362 154.67 12.8362C153.48 12.8362 152.654 11.8142 152.192 10.8342C151.38 9.15422 151.142 7.26422 151.142 5.41622C151.142 4.01622 151.296 2.61622 151.576 1.25822ZM161.152 2.08422C163.168 4.26822 163.91 7.02622 163.91 9.95222L161.474 10.6382C161.474 10.4842 161.488 10.3302 161.488 10.1762C161.488 7.76822 160.872 5.09422 159.248 3.24622L161.152 2.08422ZM167.55 2.37822C167.788 1.63622 168.012 0.894222 168.208 0.138222L170.546 0.600222C170.378 1.13222 170.196 1.65022 170.014 2.18222C170.602 2.11222 171.176 2.01422 171.75 1.90222L171.638 4.10022C170.84 4.22622 170.042 4.32422 169.244 4.40822C168.404 6.69022 167.466 8.94422 166.444 11.1562L164.26 10.1762C165.226 8.37022 166.094 6.49422 166.794 4.56222C166.164 4.59022 165.534 4.59022 164.904 4.59022L164.834 2.35022C165.38 2.37822 165.926 2.39222 166.486 2.39222C166.836 2.39222 167.2 2.39222 167.55 2.37822ZM172.884 2.28022C174.424 2.63022 175.908 3.10622 177.35 3.72222L176.608 5.82222C176.188 5.59822 175.712 5.34622 175.208 5.34622C174.382 5.34622 173.99 6.00422 173.99 6.76022C173.99 7.36222 174.088 7.97822 174.186 8.56622C175.362 9.02822 176.342 9.54622 177.392 10.2602L176.314 12.2342C175.698 11.7862 175.054 11.3802 174.382 11.0022C174.312 12.6962 172.758 13.3822 171.26 13.3822C169.636 13.3822 167.746 12.6542 167.746 10.7502C167.746 9.99422 168.082 9.26622 168.656 8.77622C169.37 8.17422 170.336 8.00622 171.232 8.00622C171.456 8.00622 171.68 8.02022 171.904 8.04822C171.848 7.60022 171.806 7.15222 171.806 6.70422C171.806 5.61222 172.212 4.96822 173.164 4.46422C172.786 4.36622 172.394 4.28222 171.988 4.21222L172.884 2.28022ZM172.128 10.0922C171.778 10.0082 171.428 9.95222 171.078 9.95222C170.602 9.95222 169.762 10.0362 169.762 10.6802C169.762 11.2962 170.588 11.4502 171.064 11.4502C171.652 11.4502 172.17 11.2682 172.17 10.5822C172.17 10.4282 172.156 10.2602 172.128 10.0922ZM181.788 0.306222C183.874 0.530222 185.918 0.964222 187.906 1.62222L187.122 3.69422C185.148 2.96622 183.118 2.51822 181.032 2.28022L181.788 0.306222ZM180.066 2.64422L182.334 3.13422C182.054 4.17022 181.816 5.20622 181.592 6.25622C182.88 5.59822 184.308 5.17822 185.75 5.17822C188.032 5.17822 190.202 6.29822 190.202 8.84622C190.202 10.6802 189.04 12.0662 187.36 12.6682C186.044 13.1442 184.588 13.2562 183.188 13.2562C182.362 13.2562 181.55 13.2002 180.738 13.0882L180.29 10.7502C181.326 10.9462 182.362 11.0582 183.412 11.0582C184.868 11.0582 187.836 10.8342 187.836 8.81822C187.836 7.62822 186.73 7.26422 185.722 7.26422C183.86 7.26422 182.124 8.07622 180.766 9.30822L178.904 8.76222C179.226 6.70422 179.604 4.67422 180.066 2.64422Z" fill="white"/>
<path d="M9.99511 33.5348V38.3448H5.65311V57.5328H0.843111V33.5348H9.99511ZM8.64311 36.9928V34.8868H2.19511V56.1808H4.30111V36.9928H8.64311ZM17.9771 53.8148V47.5228H13.8951V44.1948H17.9771V42.7648H15.7151V41.4908C15.2471 41.8548 14.7791 42.1928 14.3111 42.5568L13.3231 38.5788C15.4031 37.2268 16.8331 35.7188 18.0551 33.5608H21.6431C22.7871 35.4588 23.7491 36.4988 25.5951 37.7728V34.1588H37.6331V46.4568H33.4731C33.6031 47.3668 33.7591 48.0428 34.0451 48.9008C34.9291 48.2508 35.6831 47.5748 36.4111 46.7428L38.5951 49.6808C37.5811 50.6428 36.7491 51.2148 35.5791 51.9428C36.5411 53.2688 37.4771 54.1268 38.7771 55.0888L36.3331 58.3648C34.4871 56.9868 33.2131 55.5048 32.1731 53.4508V56.5708C30.0151 57.1948 26.4531 57.7928 24.1911 58.1048L23.9571 56.4148C20.7071 57.0908 17.4051 57.5588 14.0771 57.9228L13.6091 54.2308C15.0651 54.1528 16.5731 54.0228 17.9771 53.8148ZM17.8471 39.4368H21.8771C21.0711 38.5788 20.4991 37.7208 19.8751 36.7068C19.2511 37.7988 18.6791 38.5008 17.8471 39.4368ZM33.9411 37.4348H29.1051V38.9948H33.9411V37.4348ZM21.1231 53.4508C22.2151 53.2948 23.2811 53.1648 24.3471 52.9048L24.5031 54.1528C24.8671 54.1268 25.2311 54.0748 25.5951 54.0228V38.2148L23.6711 41.0488C23.5931 40.9708 23.5151 40.9188 23.4111 40.8408V42.7648H21.1231V44.1948H24.7371V47.5228H21.1231V53.4508ZM33.9411 41.7248H29.1051V43.3108H33.9411V41.7248ZM31.9391 52.9568C30.9511 50.8248 30.4571 48.8228 30.2751 46.4568H29.1051V53.5548C30.0411 53.3728 31.0031 53.1908 31.9391 52.9568ZM24.6591 48.5888C24.5031 49.8888 24.2691 51.2148 23.8791 52.4888L21.6951 52.0468C22.0591 50.8508 22.2671 49.3688 22.3711 48.2248L24.6591 48.5888ZM16.4691 48.2248C16.9371 49.7588 17.2491 51.0848 17.3791 52.6968L14.7531 53.3988C14.6231 51.8648 14.3631 50.3308 13.9211 48.8488L16.4691 48.2248ZM49.2811 34.4448C47.8511 37.2788 45.4071 40.1128 42.7291 41.8288L40.9611 37.9288C42.9111 36.7848 44.5231 35.1468 45.7191 33.2488L49.2811 34.4448ZM65.1411 34.4188V38.1108H51.0491V34.4188H65.1411ZM47.6691 44.8448V58.1568H43.7171V49.2128C43.1711 49.6808 42.6251 50.1228 42.0531 50.5648L40.9351 45.7028C43.3011 44.1428 45.6671 41.4648 47.0451 38.9948L50.3211 40.6068C49.5411 42.0888 48.6831 43.5188 47.6691 44.8448ZM66.0771 41.4908V45.2348H62.5411V55.2448C62.5411 55.9988 62.4891 56.8048 61.9431 57.3768C61.4231 57.9488 60.4871 58.1568 59.7591 58.1568H54.3511L53.7011 54.1788H57.7051C58.3031 54.1788 58.5111 53.9968 58.5111 53.3728V45.2348H50.0351V41.4908H66.0771ZM67.8191 58.1828V53.3728H72.1611V34.1848H76.9711V58.1828H67.8191ZM69.1711 54.7248V56.8308H75.6191V35.5368H73.5131V54.7248H69.1711ZM91.0671 42.4788C91.1271 41.2388 91.1671 39.9788 91.1671 38.7188H94.4471C94.4471 39.9788 94.4471 41.2388 94.3671 42.4788H101.587C101.467 45.3788 101.187 52.0988 100.127 54.5788C99.3071 56.4788 97.8071 56.9388 95.8671 56.9388C95.3071 56.9388 94.7271 56.9188 94.1471 56.8788L93.4871 53.5988C94.2471 53.6788 94.9871 53.7588 95.7471 53.7588C97.0071 53.7588 97.3071 52.9188 97.5271 51.8388C97.9671 49.8188 98.1071 47.6988 98.2071 45.6388H94.0671C93.4471 50.7188 91.3671 54.3988 87.0271 57.1988L84.6071 54.7988C86.4071 53.6788 88.0671 52.2388 89.1671 50.3988C90.0471 48.9388 90.5071 47.3188 90.7871 45.6388H84.6871V42.4788H91.0671ZM105.647 46.5788H123.887V49.7588H105.647V46.5788ZM133.107 46.6788L134.167 44.6588C137.007 45.9988 139.687 47.6188 142.207 49.4788L140.287 52.3588C138.047 50.5988 135.647 49.0188 133.107 47.7588V57.3988H129.727V38.8788H133.107V46.6788ZM137.627 42.0988L138.767 41.0188C139.547 41.6588 140.227 42.3388 140.847 43.1188L139.627 44.2188C139.027 43.4388 138.367 42.7588 137.627 42.0988ZM139.527 40.4388L140.687 39.3388C141.447 39.9788 142.127 40.6788 142.747 41.4588L141.547 42.5588C140.927 41.7788 140.287 41.0788 139.527 40.4388ZM159.547 55.5788H149.987V56.6988H146.707V40.5188H162.827V56.6988H159.547V55.5788ZM159.547 52.4588V43.6988H149.987V52.4588H159.547ZM166.647 46.5788H184.887V49.7588H166.647V46.5788ZM189.547 39.4788C191.747 40.5588 193.807 41.8988 195.707 43.4788L193.567 46.1588C191.727 44.5988 189.747 43.2588 187.647 42.1188L189.547 39.4788ZM187.887 53.9788C194.847 52.6788 199.547 49.3588 203.147 43.2788L205.487 45.9788C201.787 51.9188 196.327 55.8388 189.427 57.2588L187.887 53.9788Z" fill="white"/>
<g filter="url(#filter0_d_665_11954)">
<path d="M264.465 39.5989H263.571C262.047 39.5989 261.678 39.0994 261.678 37.6011V34.9724L258.866 37.9954C257.473 36.3393 256.263 35.1827 254.371 34.0787L257.604 30.4512C259.286 31.5026 260.758 32.5804 262.125 34.0261H265.832V33.3953H261.678V30.9769H269.801V36.1816H265.674V36.8125C265.674 37.0228 265.674 37.3382 266.042 37.3382H266.305C266.725 37.3382 266.804 36.9176 266.831 36.3656L270.011 36.8125C269.906 37.9691 269.67 39.3886 268.276 39.5726H268.907V40.256H271.904V39.5726C270.826 39.4674 270.563 38.8103 270.563 37.8377V34.0261H274.953V33.3953H270.563V30.9769H278.896V36.1816H274.533V36.8125C274.533 37.1805 274.611 37.3382 275.137 37.3382H275.952C276.346 37.3382 276.451 36.9702 276.478 36.3393L279.816 36.8125C279.685 38.416 279.185 39.5989 277.372 39.5989H276.294V40.256H278.896V43.279H276.294V43.9098H279.553V47.0905H275.978C277.082 47.5637 278.37 47.8528 279.553 47.9842L277.976 50.5603H280.079L279.054 55.1605H266.988C265.753 55.1605 263.913 55.029 262.73 54.7136C261.442 54.3719 260.338 53.6095 259.339 52.7158C258.051 53.9776 257 54.8713 255.396 55.7388L253.977 50.6655C254.844 50.2975 255.527 49.9557 256.316 49.43V44.4093H254.371V39.8617H261.048V47.7214C261.521 49.0883 262.362 49.8243 263.729 50.2186L262.047 48.0105C263.256 47.8002 264.439 47.5111 265.569 47.0905H261.678V43.9098H264.465V43.279H261.889V40.256H264.465V39.5989ZM271.904 43.0687H268.907V43.9098H271.904V43.0687ZM266.778 50.5603H274.822C273.56 50.0083 272.43 49.3774 271.299 48.6414L273.008 47.0905H268.276L270.116 48.6414C269.065 49.3774 267.935 50.0083 266.778 50.5603Z" fill="url(#paint0_linear_665_11954)"/>
<path d="M215.634 24.5281C215.8 21.2619 216.3 18.05 218.02 15.2193C221.183 9.9388 227.176 8.36011 233.113 8.36011C238.329 8.36011 243.823 9.88437 247.097 14.1305C248.817 16.3625 249.649 19.1932 249.649 21.9696C249.649 25.9435 248.318 28.5565 245.155 30.8974C248.928 33.6737 250.759 37.1577 250.759 41.8394C250.759 46.9565 248.151 51.5293 243.767 54.2512C240.549 56.2654 236.11 56.7009 232.392 56.7009C227.62 56.7009 223.014 55.5577 219.574 52.1825C217.965 50.495 216.744 48.4808 216.078 46.2488C215.357 43.9624 215.135 41.6216 215.079 39.2263H227.398C227.398 43.5814 227.897 46.7388 233.224 46.7388C236.554 46.7388 238.884 45.0512 238.884 41.6216C238.884 37.4843 235.721 36.7222 232.17 36.7222H228.119V27.1956H233.113C235.721 27.1956 237.497 25.6713 237.497 23.1128C237.497 20.2275 235.777 18.4855 232.891 18.4855C229.063 18.4855 228.008 21.3163 227.953 24.5281H215.634Z" fill="url(#paint1_linear_665_11954)"/>
</g>
<line x1="0.921875" y1="23.1782" x2="205.3" y2="23.1782" stroke="white" stroke-width="2"/>
<defs>
<filter id="filter0_d_665_11954" x="215.079" y="8.36011" width="67" height="50.3408" filterUnits="userSpaceOnUse" color-interpolation-filters="sRGB">
<feFlood flood-opacity="0" result="BackgroundImageFix"/>
<feColorMatrix in="SourceAlpha" type="matrix" values="0 0 0 0 0 0 0 0 0 0 0 0 0 0 0 0 0 0 127 0" result="hardAlpha"/>
<feOffset dx="2" dy="2"/>
<feComposite in2="hardAlpha" operator="out"/>
<feColorMatrix type="matrix" values="0 0 0 0 0.758333 0 0 0 0 0.126389 0 0 0 0 0.126389 0 0 0 1 0"/>
<feBlend mode="normal" in2="BackgroundImageFix" result="effect1_dropShadow_665_11954"/>
<feBlend mode="normal" in="SourceGraphic" in2="effect1_dropShadow_665_11954" result="shape"/>
</filter>
<linearGradient id="paint0_linear_665_11954" x1="261.927" y1="30.4512" x2="279.929" y2="38.6858" gradientUnits="userSpaceOnUse">
<stop stop-color="white"/>
<stop offset="0.525" stop-color="#FAE60F"/>
<stop offset="0.585" stop-color="#E6D737"/>
<stop offset="1" stop-color="#FFEA05"/>
</linearGradient>
<linearGradient id="paint1_linear_665_11954" x1="225.946" y1="8.36011" x2="252.827" y2="17.1523" gradientUnits="userSpaceOnUse">
<stop stop-color="white"/>
<stop offset="0.525" stop-color="#FAE60F"/>
<stop offset="0.585" stop-color="#E6D737"/>
<stop offset="1" stop-color="#FFEA05"/>
</linearGradient>
</defs>
</svg>
