<svg width="352" height="49" viewBox="0 0 352 49" fill="none" xmlns="http://www.w3.org/2000/svg">
<path d="M13.1949 20.0402C12.5149 25.5002 10.9749 31.1402 7.89491 35.7802L3.87491 33.7402C6.65491 29.4402 8.17491 24.3802 8.91491 19.3402L13.1949 20.0402ZM18.1549 19.0602C20.8549 23.7202 22.5949 28.4602 23.5349 33.7602L19.1749 35.1202C18.3349 30.1202 16.8749 25.3602 14.5749 20.8202L18.1549 19.0602ZM21.1749 18.9202L22.5549 18.0602C23.1949 18.7402 23.6949 19.5202 24.1149 20.3602L22.7349 21.2202C22.3349 20.3802 21.7949 19.6202 21.1749 18.9202ZM19.3149 20.1002L20.6949 19.2202C21.3149 19.9202 21.8349 20.7002 22.2549 21.5402L20.8549 22.4002C20.4549 21.5602 19.9349 20.7802 19.3149 20.1002ZM26.8949 17.7802H31.1349V31.3602C34.9949 30.2202 38.2749 27.7402 40.6349 24.5002L43.4949 27.5202C39.3749 32.7802 33.5149 35.7602 26.8949 36.3802V17.7802ZM62.6549 19.5602C62.8149 19.5602 62.9949 19.5402 63.1549 19.5402L63.2349 23.3002C62.4749 23.2602 61.7149 23.2602 60.9549 23.2602C60.3149 23.2602 59.6749 23.2602 59.0349 23.2802L58.0149 23.3002L58.0749 28.7602C58.0949 30.4402 57.9349 32.2002 57.0349 33.6402C55.9149 35.4202 53.8949 36.4802 51.9149 37.0602L48.8149 34.2802C50.3549 33.8202 51.8949 33.2402 53.1949 32.3002C52.8349 32.4002 52.4549 32.4402 52.0749 32.4402C49.6349 32.4402 47.8749 30.6202 47.8749 28.2002C47.8749 25.4002 50.0549 23.8602 52.6949 23.8602C53.1349 23.8602 53.5749 23.9002 54.0149 23.9802L53.9949 23.3802L48.7949 23.5002C47.3949 23.5202 45.9949 23.5802 44.5949 23.7002L44.5149 19.7802C45.2949 19.8002 46.0749 19.8202 46.8549 19.8202C47.4749 19.8202 48.0949 19.8002 48.7149 19.8002L53.9149 19.7202L53.8749 17.5602H57.9549L57.9749 19.6602H58.9749C59.3149 19.6402 59.6549 19.6402 59.9949 19.6402C59.5549 18.9602 59.0749 18.3402 58.4949 17.7802L59.7549 16.8402C60.3549 17.4202 60.8749 18.0602 61.2949 18.7802L60.1749 19.6402C60.9749 19.6202 61.7749 19.6002 62.5549 19.5602C62.1549 18.8402 61.6949 18.1802 61.1549 17.5802L62.4549 16.7002C63.0149 17.3202 63.4949 18.0002 63.8949 18.7402L62.6549 19.5602ZM53.9149 28.1202C53.9149 27.4602 53.4749 26.8602 52.7749 26.8602C52.0749 26.8602 51.6149 27.4602 51.6149 28.1202C51.6149 28.8202 52.0949 29.4002 52.8149 29.4002C53.5549 29.4002 53.9149 28.8002 53.9149 28.1202ZM145.375 28.6602C145.115 28.9402 144.895 29.1402 144.595 29.4002L143.955 23.6402C145.475 21.8002 146.075 19.7402 146.355 17.4002L149.895 17.6802C149.695 19.3202 149.375 20.8002 148.875 22.3802V36.6402H145.375V28.6602ZM151.695 17.5802H155.315V19.0602H157.315V17.5802H161.035V19.0602H162.855V22.3002H161.035V23.2602H163.275V26.4602H149.395V23.2602H151.695V22.3002H149.895V19.0602H151.695V17.5802ZM157.315 22.3002H155.315V23.2602H157.315V22.3002ZM162.135 27.0402V36.6402H158.475V36.0802H154.155V36.6402H150.535V27.0402H162.135ZM158.475 29.5002H154.155V30.1602H158.475V29.5002ZM158.475 32.4602H154.155V33.1602H158.475V32.4602ZM166.555 17.9002L170.755 18.3402C170.255 20.6402 170.015 22.9802 169.875 25.3202C170.235 24.6802 170.615 24.0402 170.975 23.4002L172.815 25.1202C171.595 27.1202 170.655 29.2602 170.115 31.5202L166.815 31.8602C166.095 29.6602 165.895 27.2802 165.895 24.9602C165.895 22.6002 166.135 20.2402 166.555 17.9002ZM175.915 17.9802H180.235C180.455 20.3202 180.595 22.6802 180.595 25.0402C180.595 30.7402 179.255 34.2002 173.975 36.8602L170.495 33.9602C172.515 33.0202 174.615 31.7002 175.575 29.6002C176.275 28.0402 176.335 26.2402 176.335 24.5802C176.335 22.3602 176.135 20.1602 175.915 17.9802ZM185.915 18.3802C186.555 18.4202 187.215 18.4402 187.875 18.4402C190.955 18.4402 194.055 18.2802 197.095 17.8002L198.775 20.7802C197.175 21.7802 195.595 22.8402 194.055 23.9202C194.475 23.8602 194.915 23.8202 195.355 23.8202C198.675 23.8202 201.335 26.1802 201.335 29.5602C201.335 31.9402 200.115 34.1002 198.055 35.3002C196.475 36.2002 194.695 36.5602 192.895 36.5602C191.355 36.5602 189.735 36.2802 188.495 35.3202C187.635 34.6402 187.135 33.5802 187.135 32.5002C187.135 30.1402 189.535 28.8002 191.655 28.8002C193.735 28.8002 195.535 29.8202 196.735 31.4802C197.075 30.9802 197.275 30.4002 197.275 29.8002C197.275 27.8202 195.415 26.9402 193.675 26.9402C190.495 26.9402 187.655 29.5402 185.495 31.6002L183.055 28.4402L191.435 21.8602C189.695 22.0802 187.975 22.2402 186.235 22.3402L185.915 18.3802ZM193.835 33.2402C193.275 32.4202 192.435 31.7402 191.395 31.7402C190.995 31.7402 190.475 31.9202 190.475 32.4202C190.475 33.2602 191.995 33.3602 192.595 33.3602C193.015 33.3602 193.415 33.3002 193.835 33.2402Z" fill="#D72B2B"/>
<path d="M66.2149 18.1002L70.4749 18.5802C69.6949 22.1402 69.2349 25.7602 69.2349 29.4202C69.2349 29.9602 69.2549 30.5002 69.2749 31.0202C69.4749 30.5402 69.6949 30.0402 69.9149 29.5402L71.0749 31.2602C70.4149 32.7602 69.9549 34.3202 69.6549 35.9202L66.1949 36.2602C65.3749 33.7402 65.2149 31.0602 65.2149 28.4402C65.2149 24.9802 65.5949 21.5202 66.2149 18.1002ZM72.0749 19.7802C73.3949 19.8802 74.7349 19.9402 76.0549 19.9402C78.1349 19.9402 80.1949 19.8002 82.2349 19.5002L82.1549 23.4802C80.1149 23.7402 78.0549 23.8802 75.9749 23.8802C74.6349 23.8802 73.3149 23.8202 71.9749 23.7002L72.0749 19.7802ZM75.3549 28.5002C75.0549 28.9602 74.7749 29.5002 74.7749 30.0802C74.7749 31.2802 77.0749 31.1602 77.8949 31.1602C79.6549 31.1602 81.4149 30.9602 83.1349 30.6402L82.9749 34.7602C81.3549 35.0002 79.7349 35.1402 78.1149 35.1402C75.0949 35.1402 71.1749 34.8402 71.1749 30.9202C71.1749 29.8002 71.5549 28.7602 72.0949 27.8202L75.3549 28.5002ZM89.1549 20.6202V17.5202H93.1749V20.3202C94.3349 20.1802 95.4749 19.9802 96.6149 19.7202L96.7149 23.6402C95.5349 23.8202 94.3549 23.9602 93.1749 24.1002V24.8602C94.1949 24.6002 95.2349 24.4602 96.2749 24.4602C97.7949 24.4602 99.3549 24.7402 100.615 25.5802C102.195 26.6602 102.995 28.5202 102.995 30.3802C102.995 33.4002 100.835 36.0602 97.6949 36.0602C95.8149 36.0602 94.2549 35.0402 93.5149 33.3202L96.0949 31.0402C96.3549 31.5802 96.7549 32.0602 97.4149 32.0602C98.3349 32.0602 98.8549 31.1002 98.8549 30.2802C98.8549 28.6602 97.4149 28.0602 96.0149 28.0602C95.0349 28.0602 94.0949 28.2402 93.1749 28.5402V31.7002C93.1749 32.9202 93.1349 34.1802 92.4349 35.2002C91.8149 36.1002 90.5949 36.4402 89.5549 36.4402C88.2749 36.4402 86.9749 35.9002 85.9949 35.0802C85.0349 34.2802 84.4549 33.1202 84.4549 31.8602C84.4549 29.1002 86.9349 27.3602 89.1549 26.2202V24.4602C87.8949 24.5202 86.6349 24.5802 85.3549 24.5802L85.2949 20.6202C85.9749 20.6202 86.6549 20.6402 87.3549 20.6402C87.9549 20.6402 88.5549 20.6202 89.1549 20.6202ZM89.3349 30.1002C88.5349 30.6402 87.8749 31.1802 87.8749 31.8602C87.8749 32.3402 88.4749 32.8002 88.9149 32.8002C89.2949 32.8002 89.3349 32.4202 89.3349 32.0802V30.1002ZM96.6949 21.2802L99.0949 18.7002C100.895 19.8802 102.475 21.3002 103.875 22.9402L101.215 25.5602C99.9149 23.9202 98.4149 22.4802 96.6949 21.2802ZM108.315 24.3202C107.455 24.7202 106.575 25.1002 105.695 25.4402L104.015 21.6002C106.755 20.8802 109.895 19.5602 111.875 17.4802H115.975C118.335 19.5202 120.735 20.7602 123.735 21.6002L122.055 25.5402C121.215 25.2002 120.395 24.8402 119.595 24.4202V25.5402H115.735V26.2602H122.735V29.8002H118.235L121.335 30.6602C121.135 31.2202 120.795 32.0602 120.555 32.6002H123.155V36.1602H104.595V32.6002H107.235C107.055 31.9802 106.755 31.2402 106.475 30.6402L109.515 29.8002H105.115V26.2602H112.075V25.5402H108.315V24.3202ZM111.875 22.1802H116.055C115.275 21.5802 114.615 20.9802 113.935 20.3002C113.255 21.0402 112.675 21.5802 111.875 22.1802ZM111.135 32.6002H112.075V29.8002H110.235C110.595 30.5802 110.935 31.7602 111.135 32.6002ZM117.535 29.8002H115.735V32.6002H116.735C117.075 31.6802 117.315 30.7602 117.535 29.8002ZM136.795 25.0402C138.355 24.3602 139.955 23.7602 141.555 23.1602L142.935 26.5602C141.135 27.1602 139.335 27.7602 137.575 28.4802C137.595 29.6402 137.615 30.8202 137.615 32.0002H133.895C133.915 31.3802 133.955 30.7602 133.955 30.1602C133.055 30.6202 132.275 31.1202 132.275 31.8602C132.275 32.8402 133.715 32.8802 134.495 32.8802C136.875 32.8802 138.875 32.6002 141.435 32.1802L141.075 36.0402C139.455 36.2402 137.795 36.3802 136.155 36.3802C133.795 36.3802 128.535 36.2802 128.535 32.0602C128.535 29.3402 131.275 27.6602 133.415 26.5802C133.155 26.3802 132.815 26.3002 132.495 26.3002C130.275 26.3002 128.775 28.8802 127.675 30.4802L124.675 28.3202C126.055 26.7202 127.275 24.9802 128.395 23.1802C127.515 23.2002 126.635 23.2002 125.755 23.2002L125.835 19.5202C127.035 19.6002 128.255 19.6402 129.455 19.6402C129.775 19.6402 130.075 19.6402 130.395 19.6402C130.795 18.8602 131.175 18.1002 131.555 17.3202L135.395 18.1802L134.655 19.4602C136.555 19.3002 138.455 19.0402 140.335 18.7002L140.235 22.3202C137.675 22.6602 135.115 22.8802 132.555 23.0402L132.095 23.8202C132.635 23.6802 133.175 23.6002 133.735 23.6002C134.975 23.6002 136.075 23.9402 136.795 25.0402ZM235.876 21.4802L242.396 20.0202C243.936 19.6802 245.516 19.4602 247.096 19.4602C249.196 19.4602 251.316 19.9602 252.896 21.4002C254.436 22.8002 255.136 24.8002 255.136 26.8402C255.136 34.0602 248.096 35.4402 242.296 35.4402C242.176 35.4402 242.056 35.4402 241.936 35.4402L241.056 31.2202C241.536 31.2602 242.036 31.2802 242.516 31.2802C244.636 31.2802 247.236 31.0202 249.076 29.8602C250.116 29.2002 250.696 28.0402 250.696 26.8002C250.696 25.7402 250.276 24.5802 249.356 24.0002C248.696 23.5802 247.896 23.4602 247.136 23.4602C244.116 23.4602 239.956 24.7802 237.036 25.6802L235.876 21.4802ZM265.656 32.9402C268.636 32.1202 270.976 30.3602 270.976 27.0202C270.976 24.8202 269.996 22.8002 267.796 22.1002C267.276 25.6602 266.356 29.9202 264.416 32.9802C263.676 34.1602 262.636 35.1602 261.156 35.1602C259.796 35.1602 258.696 34.2802 257.916 33.2402C256.796 31.7202 256.336 29.8402 256.336 27.9802C256.336 22.2802 260.516 18.3202 266.156 18.3202C271.376 18.3202 275.196 21.6802 275.196 27.0202C275.196 31.8002 272.236 35.1002 267.796 36.4202L265.656 32.9402ZM263.736 22.3402C261.436 23.3202 260.296 25.7202 260.296 28.1402C260.296 28.5802 260.416 30.6802 260.996 30.6802C261.396 30.6802 261.816 29.6202 262.076 28.8802C262.856 26.7802 263.376 24.5402 263.736 22.3402ZM288.016 21.0402H294.936V24.9202H288.016V33.0402C288.016 34.4202 287.716 35.5602 286.316 36.1402C285.496 36.4802 283.796 36.4802 282.496 36.4802L281.536 32.4802C282.076 32.5002 282.636 32.5402 283.176 32.5402C283.776 32.5402 283.956 32.3402 283.956 31.7402V24.9202H276.596V21.0402H283.956V17.6602H288.016V21.0402ZM293.096 16.6602C294.236 16.6602 295.196 17.6202 295.196 18.7602C295.196 19.9002 294.236 20.8602 293.096 20.8602C291.956 20.8602 290.996 19.9002 290.996 18.7602C290.996 17.6202 291.956 16.6602 293.096 16.6602ZM293.096 17.9402C292.636 17.9402 292.256 18.3002 292.256 18.7602C292.256 19.2002 292.636 19.5802 293.096 19.5802C293.536 19.5802 293.916 19.2202 293.916 18.7602C293.916 18.3002 293.536 17.9402 293.096 17.9402ZM291.776 25.6202C293.216 27.7802 294.536 30.0202 295.656 32.3802L292.036 34.4202C290.996 32.0402 289.816 29.7602 288.416 27.5802L291.776 25.6202ZM279.176 34.6602L275.776 32.4002C277.516 30.3802 278.956 28.1402 279.936 25.6602L283.476 27.2802C282.476 29.9802 280.956 32.4202 279.176 34.6602ZM308.576 24.7602V36.4602H304.336V27.1602C302.356 28.1402 300.276 28.9202 298.196 29.6202L296.156 26.0202C299.136 25.0402 302.036 23.9002 304.756 22.3202C307.276 20.8602 309.556 19.0602 311.696 17.1002L314.856 19.7602C312.896 21.6002 310.836 23.3002 308.576 24.7602ZM318.116 18.0602C320.356 19.1602 322.436 20.5402 324.356 22.1602L321.636 25.4002C319.796 23.8402 317.836 22.4802 315.716 21.3202L318.116 18.0602ZM316.016 32.4002C319.116 31.8602 322.116 30.9002 324.716 29.1202C327.476 27.2402 329.576 24.6402 331.236 21.7602L334.176 25.0802C332.376 28.0002 330.056 30.5802 327.236 32.5402C324.436 34.5002 321.236 35.8202 317.876 36.4602L316.016 32.4002ZM340.176 25.3202L341.336 23.2202C344.136 24.5402 346.636 26.0202 349.116 27.8602L346.836 31.4202C344.736 29.8202 342.516 28.4002 340.176 27.1602V36.4402H335.996V17.6402H340.176V25.3202Z" fill="#3F3F3F"/>
<mask id="path-2-outside-1_665_5139" maskUnits="userSpaceOnUse" x="204.865" y="7.4718" width="27" height="37" fill="black">
<rect fill="white" x="204.865" y="7.4718" width="27" height="37"/>
<path d="M206.69 22.5918C206.73 19.5118 206.97 16.4318 208.73 13.7918C211.01 10.3518 214.65 8.9518 218.65 8.9518C225.05 8.9518 229.77 12.7518 229.77 19.4318C229.77 24.8318 226.21 27.9918 222.09 30.7918L217.77 33.7518C216.41 34.6718 215.05 35.7518 214.61 37.4318H229.97V43.4718H205.89C205.97 41.3118 206.17 39.1518 206.89 37.0718C208.09 33.6318 210.65 30.9918 213.61 28.9518L217.97 25.9918C220.33 24.4318 222.65 22.6318 222.65 19.5518C222.65 16.9518 221.13 15.1118 218.45 15.1118C214.17 15.1118 213.89 19.3118 213.89 22.5918H206.69Z"/>
</mask>
<path d="M206.69 22.5918C206.73 19.5118 206.97 16.4318 208.73 13.7918C211.01 10.3518 214.65 8.9518 218.65 8.9518C225.05 8.9518 229.77 12.7518 229.77 19.4318C229.77 24.8318 226.21 27.9918 222.09 30.7918L217.77 33.7518C216.41 34.6718 215.05 35.7518 214.61 37.4318H229.97V43.4718H205.89C205.97 41.3118 206.17 39.1518 206.89 37.0718C208.09 33.6318 210.65 30.9918 213.61 28.9518L217.97 25.9918C220.33 24.4318 222.65 22.6318 222.65 19.5518C222.65 16.9518 221.13 15.1118 218.45 15.1118C214.17 15.1118 213.89 19.3118 213.89 22.5918H206.69Z" fill="#FFEA05"/>
<path d="M206.69 22.5918L205.69 22.5788C205.686 22.8463 205.79 23.1039 205.978 23.2943C206.166 23.4847 206.422 23.5918 206.69 23.5918V22.5918ZM208.73 13.7918L209.562 14.3465L209.563 14.3443L208.73 13.7918ZM222.09 30.7918L221.528 29.9647L221.525 29.9669L222.09 30.7918ZM217.77 33.7518L218.33 34.5801L218.335 34.5767L217.77 33.7518ZM214.61 37.4318L213.642 37.1784C213.564 37.4782 213.629 37.7975 213.818 38.0428C214.008 38.2881 214.3 38.4318 214.61 38.4318V37.4318ZM229.97 37.4318H230.97C230.97 36.8795 230.522 36.4318 229.97 36.4318V37.4318ZM229.97 43.4718V44.4718C230.522 44.4718 230.97 44.0241 230.97 43.4718H229.97ZM205.89 43.4718L204.891 43.4348C204.88 43.7062 204.981 43.9701 205.17 44.1657C205.358 44.3613 205.618 44.4718 205.89 44.4718V43.4718ZM206.89 37.0718L205.946 36.7424L205.945 36.7447L206.89 37.0718ZM213.61 28.9518L213.048 28.1244L213.042 28.1284L213.61 28.9518ZM217.97 25.9918L217.418 25.1575L217.408 25.1645L217.97 25.9918ZM213.89 22.5918V23.5918C214.442 23.5918 214.89 23.1441 214.89 22.5918H213.89ZM207.69 22.6048C207.73 19.5351 207.978 16.7219 209.562 14.3465L207.898 13.2371C205.961 16.1417 205.73 19.4885 205.69 22.5788L207.69 22.6048ZM209.563 14.3443C211.61 11.2568 214.887 9.9518 218.65 9.9518V7.9518C214.413 7.9518 210.41 9.44681 207.896 13.2393L209.563 14.3443ZM218.65 9.9518C221.657 9.9518 224.181 10.8432 225.94 12.4295C227.687 14.0039 228.77 16.342 228.77 19.4318H230.77C230.77 15.8416 229.493 12.9397 227.279 10.9441C225.079 8.96039 222.043 7.9518 218.65 7.9518V9.9518ZM228.77 19.4318C228.77 24.2846 225.622 27.1823 221.528 29.9647L222.652 31.6189C226.798 28.8013 230.77 25.379 230.77 19.4318H228.77ZM221.525 29.9669L217.205 32.9269L218.335 34.5767L222.655 31.6167L221.525 29.9669ZM217.21 32.9235C215.85 33.8435 214.186 35.1044 213.642 37.1784L215.577 37.6852C215.914 36.3992 216.97 35.5001 218.33 34.5801L217.21 32.9235ZM214.61 38.4318H229.97V36.4318H214.61V38.4318ZM228.97 37.4318V43.4718H230.97V37.4318H228.97ZM229.97 42.4718H205.89V44.4718H229.97V42.4718ZM206.889 43.5088C206.968 41.3764 207.164 39.336 207.835 37.3989L205.945 36.7447C205.175 38.9676 204.972 41.2472 204.891 43.4348L206.889 43.5088ZM207.834 37.4012C208.939 34.234 211.316 31.747 214.177 29.7752L213.042 28.1284C209.983 30.2366 207.241 33.0296 205.946 36.7424L207.834 37.4012ZM214.172 29.7792L218.532 26.8192L217.408 25.1645L213.048 28.1245L214.172 29.7792ZM218.521 26.826C220.845 25.29 223.65 23.222 223.65 19.5518H221.65C221.65 22.0416 219.815 23.5736 217.418 25.1576L218.521 26.826ZM223.65 19.5518C223.65 18.0617 223.213 16.692 222.294 15.6834C221.364 14.6626 220.031 14.1118 218.45 14.1118V16.1118C219.548 16.1118 220.315 16.481 220.816 17.0302C221.327 17.5916 221.65 18.4419 221.65 19.5518H223.65ZM218.45 14.1118C217.21 14.1118 216.179 14.4189 215.354 15.0033C214.534 15.5838 213.996 16.3828 213.641 17.239C212.95 18.9063 212.89 20.9662 212.89 22.5918H214.89C214.89 20.9374 214.97 19.2573 215.489 18.0046C215.739 17.4008 216.073 16.9448 216.51 16.6353C216.941 16.3297 217.55 16.1118 218.45 16.1118V14.1118ZM213.89 21.5918H206.69V23.5918H213.89V21.5918Z" fill="#3F3F3F" mask="url(#path-2-outside-1_665_5139)"/>
<path d="M1.08203 43.4175H196.698" stroke="#3F3F3F" stroke-width="2" stroke-linecap="round"/>
<path d="M235.714 11.5046H350.08" stroke="#3F3F3F" stroke-width="2" stroke-linecap="round"/>
<path d="M2.0835 11.3167H197.699" stroke="#3F3F3F" stroke-width="2" stroke-linecap="round" stroke-dasharray="4 4"/>
<path d="M235.714 43.4176H350.08" stroke="#3F3F3F" stroke-width="2" stroke-linecap="round" stroke-dasharray="4 4"/>
<mask id="path-8-outside-2_665_5139" maskUnits="userSpaceOnUse" x="213.023" y="0.40979" width="12" height="12" fill="black">
<rect fill="white" x="213.023" y="0.40979" width="12" height="12"/>
<path fill-rule="evenodd" clip-rule="evenodd" d="M217.15 3.00113C216.947 3.32144 216.862 3.7032 216.847 4.01852C216.905 4.01517 216.964 4.01347 217.023 4.01347H220.277C220.336 4.01347 220.394 4.01517 220.452 4.01852C220.437 3.7032 220.353 3.32144 220.15 3.00113C219.907 2.61793 219.473 2.28285 218.65 2.28285C217.826 2.28285 217.392 2.61793 217.15 3.00113ZM216.409 2.53513C216.057 3.0917 215.957 3.73348 215.97 4.20336C214.833 4.6297 214.023 5.72702 214.023 7.01347V8.31662C214.023 9.97348 215.366 11.3166 217.023 11.3166H220.277C221.934 11.3166 223.277 9.97347 223.277 8.31662V7.01347C223.277 5.72702 222.467 4.6297 221.329 4.20336C221.342 3.73348 221.243 3.0917 220.89 2.53513C220.485 1.89409 219.769 1.40979 218.65 1.40979C217.531 1.40979 216.815 1.89409 216.409 2.53513ZM219.602 7.31236C219.602 7.68347 219.388 8.00484 219.077 8.16091V9.69679H218.223V8.16088C217.911 8.0048 217.698 7.68345 217.698 7.31236C217.698 6.78813 218.124 6.36315 218.65 6.36315C219.176 6.36315 219.602 6.78813 219.602 7.31236Z"/>
</mask>
<path fill-rule="evenodd" clip-rule="evenodd" d="M217.15 3.00113C216.947 3.32144 216.862 3.7032 216.847 4.01852C216.905 4.01517 216.964 4.01347 217.023 4.01347H220.277C220.336 4.01347 220.394 4.01517 220.452 4.01852C220.437 3.7032 220.353 3.32144 220.15 3.00113C219.907 2.61793 219.473 2.28285 218.65 2.28285C217.826 2.28285 217.392 2.61793 217.15 3.00113ZM216.409 2.53513C216.057 3.0917 215.957 3.73348 215.97 4.20336C214.833 4.6297 214.023 5.72702 214.023 7.01347V8.31662C214.023 9.97348 215.366 11.3166 217.023 11.3166H220.277C221.934 11.3166 223.277 9.97347 223.277 8.31662V7.01347C223.277 5.72702 222.467 4.6297 221.329 4.20336C221.342 3.73348 221.243 3.0917 220.89 2.53513C220.485 1.89409 219.769 1.40979 218.65 1.40979C217.531 1.40979 216.815 1.89409 216.409 2.53513ZM219.602 7.31236C219.602 7.68347 219.388 8.00484 219.077 8.16091V9.69679H218.223V8.16088C217.911 8.0048 217.698 7.68345 217.698 7.31236C217.698 6.78813 218.124 6.36315 218.65 6.36315C219.176 6.36315 219.602 6.78813 219.602 7.31236Z" fill="#EBEBEB"/>
<path d="M216.847 4.01852L215.848 3.97067L215.795 5.08091L216.905 5.01686L216.847 4.01852ZM217.15 3.00113L217.995 3.53604L217.995 3.53604L217.15 3.00113ZM220.452 4.01852L220.395 5.01686L221.504 5.08091L221.451 3.97067L220.452 4.01852ZM220.15 3.00113L219.305 3.53604L219.305 3.53604L220.15 3.00113ZM215.97 4.20336L216.321 5.13975L216.989 4.88936L216.97 4.17611L215.97 4.20336ZM216.409 2.53513L215.564 2.00022L215.564 2.00022L216.409 2.53513ZM221.329 4.20336L220.33 4.17611L220.31 4.88936L220.978 5.13975L221.329 4.20336ZM220.89 2.53513L220.045 3.07004L220.045 3.07004L220.89 2.53513ZM219.077 8.16091L218.629 7.26695L218.077 7.54359V8.16091H219.077ZM219.077 9.69679V10.6968H220.077V9.69679H219.077ZM218.223 9.69679H217.223V10.6968H218.223V9.69679ZM218.223 8.16088H219.223V7.54361L218.671 7.26695L218.223 8.16088ZM217.846 4.06638C217.856 3.8707 217.909 3.67076 217.995 3.53604L216.305 2.46622C215.985 2.97211 215.869 3.53571 215.848 3.97067L217.846 4.06638ZM217.023 3.01347C216.945 3.01347 216.867 3.01573 216.79 3.02019L216.905 5.01686C216.944 5.01462 216.983 5.01347 217.023 5.01347V3.01347ZM220.277 3.01347H217.023V5.01347H220.277V3.01347ZM220.51 3.02019C220.433 3.01573 220.355 3.01347 220.277 3.01347V5.01347C220.316 5.01347 220.356 5.01462 220.395 5.01686L220.51 3.02019ZM219.305 3.53604C219.39 3.67076 219.444 3.8707 219.453 4.06638L221.451 3.97067C221.43 3.53571 221.315 2.97211 220.995 2.46622L219.305 3.53604ZM218.65 3.28285C218.923 3.28285 219.068 3.33745 219.139 3.37647C219.209 3.41461 219.26 3.46506 219.305 3.53604L220.995 2.46622C220.565 1.78775 219.809 1.28285 218.65 1.28285V3.28285ZM217.995 3.53604C218.04 3.46506 218.09 3.41461 218.16 3.37647C218.232 3.33745 218.376 3.28285 218.65 3.28285V1.28285C217.49 1.28285 216.734 1.78775 216.305 2.46622L217.995 3.53604ZM216.97 4.17611C216.961 3.84618 217.036 3.41522 217.254 3.07004L215.564 2.00022C215.078 2.76818 214.954 3.62079 214.971 4.2306L216.97 4.17611ZM215.023 7.01347C215.023 6.15741 215.561 5.42457 216.321 5.13975L215.619 3.26696C214.104 3.83482 213.023 5.29663 213.023 7.01347H215.023ZM215.023 8.31662V7.01347H213.023V8.31662H215.023ZM217.023 10.3166C215.918 10.3166 215.023 9.42119 215.023 8.31662H213.023C213.023 10.5258 214.814 12.3166 217.023 12.3166V10.3166ZM220.277 10.3166H217.023V12.3166H220.277V10.3166ZM222.277 8.31662C222.277 9.42119 221.381 10.3166 220.277 10.3166V12.3166C222.486 12.3166 224.277 10.5258 224.277 8.31662H222.277ZM222.277 7.01347V8.31662H224.277V7.01347H222.277ZM220.978 5.13975C221.738 5.42457 222.277 6.15741 222.277 7.01347H224.277C224.277 5.29663 223.196 3.83483 221.68 3.26696L220.978 5.13975ZM220.045 3.07004C220.264 3.41522 220.339 3.84618 220.33 4.17611L222.329 4.2306C222.346 3.62079 222.221 2.76818 221.735 2.00022L220.045 3.07004ZM218.65 2.40979C219.433 2.40979 219.827 2.72451 220.045 3.07004L221.735 2.00022C221.142 1.06368 220.104 0.40979 218.65 0.40979V2.40979ZM217.254 3.07004C217.473 2.72451 217.867 2.40979 218.65 2.40979V0.40979C217.196 0.40979 216.157 1.06368 215.564 2.00022L217.254 3.07004ZM219.525 9.05487C220.161 8.73635 220.602 8.07751 220.602 7.31236H218.602C218.602 7.30331 218.605 7.29214 218.611 7.28344C218.615 7.27626 218.621 7.27083 218.629 7.26695L219.525 9.05487ZM220.077 9.69679V8.16091H218.077V9.69679H220.077ZM218.223 10.6968H219.077V8.69679H218.223V10.6968ZM217.223 8.16088V9.69679H219.223V8.16088H217.223ZM216.698 7.31236C216.698 8.07746 217.139 8.73627 217.774 9.05482L218.671 7.26695C218.679 7.27083 218.685 7.27626 218.689 7.28345C218.695 7.29214 218.698 7.30331 218.698 7.31236H216.698ZM218.65 5.36315C217.575 5.36315 216.698 6.23298 216.698 7.31236H218.698C218.698 7.34327 218.673 7.36315 218.65 7.36315V5.36315ZM220.602 7.31236C220.602 6.23298 219.725 5.36315 218.65 5.36315V7.36315C218.626 7.36315 218.602 7.34327 218.602 7.31236H220.602Z" fill="#3F3F3F" mask="url(#path-8-outside-2_665_5139)"/>
</svg>
