<svg width="340" height="122" viewBox="0 0 340 122" fill="none" xmlns="http://www.w3.org/2000/svg">
<circle cx="170" cy="25.5" r="25.5" fill="#D72B2B"/>
<path d="M179.707 16.8498C179.432 16.7532 179.143 16.7098 178.816 16.7098C178.353 16.7098 177.905 16.8015 177.472 16.8932C177.323 16.9222 177.173 16.956 177.029 16.9801L176.297 17.1056C176.403 16.8449 176.499 16.5746 176.581 16.2995C177.087 14.5713 177.029 12.7515 176.441 11.5688C175.979 10.6034 175.015 10 173.936 10C173.671 10 173.397 10.0386 173.103 10.1159C172.048 10.4151 171.176 11.3178 170.878 12.4088C170.781 12.7708 170.738 13.1135 170.704 13.4176C170.695 13.5142 170.685 13.6059 170.675 13.6783C170.646 13.8666 170.622 14.0693 170.603 14.2721C170.598 14.3155 170.593 14.3638 170.589 14.4072C170.55 14.4458 170.304 14.7113 170.304 14.7113C170.141 14.8899 169.967 15.0975 169.808 15.2858L169.611 15.5175C168.358 17.0139 167.226 18.4669 166.422 20.2095C166.249 20.1661 166.066 20.1419 165.873 20.1419C165.536 20.1419 165.208 20.2047 164.948 20.2578L164.765 20.2916L162.607 20.6584C162.525 20.6729 162.434 20.6874 162.342 20.697C162.01 20.7453 161.629 20.8032 161.278 20.9143C160.584 21.1363 160.011 21.648 159.731 22.29C159.568 22.6569 159.539 23.0141 159.515 23.2748L158.628 31.6596C158.619 31.7417 158.604 31.8334 158.59 31.9299C158.508 32.4609 158.421 33.0691 158.628 33.6436L158.657 33.7256L158.696 33.8029C158.879 34.1794 159.298 34.6766 159.895 34.8841C160.107 34.9614 160.329 35 160.565 35C160.801 35 161.013 34.9614 161.167 34.9324L164.129 34.4256C164.197 34.4159 164.269 34.4063 164.346 34.3918C164.808 34.329 165.386 34.2518 165.858 33.9332C165.993 33.8463 166.152 33.7304 166.321 33.5518C166.446 33.5712 166.576 33.5856 166.711 33.5856C167.082 33.5856 167.434 33.5084 167.742 33.4408C167.848 33.4167 167.963 33.3925 168.069 33.3732L168.961 33.2236C171.292 32.8278 173.594 32.4319 175.825 32.0409C175.955 32.0168 176.08 32.0023 176.21 31.983C176.533 31.9396 176.899 31.8913 177.274 31.7851C178.161 31.5437 178.994 30.8052 179.403 29.9025C179.664 29.3232 179.741 28.6716 179.649 28.0682C180.285 27.262 180.56 26.1614 180.338 25.1574C180.829 24.5347 181.123 23.7333 181.133 22.8982C181.133 22.4783 181.051 22.0776 180.887 21.7156C181.258 21.1074 181.47 20.3881 181.499 19.6158C181.533 18.2931 180.844 17.2311 179.707 16.8498ZM165.406 31.1576C165.358 31.6065 165.329 32.1133 165.155 32.3402C165.073 32.4368 165.02 32.4754 164.953 32.5188C164.722 32.6733 164.201 32.7071 163.85 32.765L160.979 33.2526C160.777 33.2863 160.565 33.3443 160.464 33.296C160.372 33.2719 160.242 33.1319 160.213 33.0643C160.126 32.8229 160.266 32.2051 160.305 31.8285L161.176 23.5692C161.201 23.3375 161.21 23.1106 161.278 22.961C161.364 22.7534 161.576 22.5845 161.793 22.5169C162.101 22.4155 162.544 22.3721 162.891 22.3142L165.049 21.9473C165.382 21.8894 165.82 21.7735 166.051 21.8411C166.162 21.8652 166.273 21.9473 166.311 22.068C166.388 22.2948 166.282 22.8982 166.239 23.3134L165.411 31.1527L165.406 31.1576ZM179.057 21.3198C178.922 21.4453 178.821 21.4839 178.599 21.6432C178.599 21.788 178.753 21.7976 178.835 21.8604C179.134 22.039 179.461 22.3673 179.456 22.8886C179.447 23.5451 179.11 24.1485 178.671 24.4526C178.498 24.5733 178.305 24.6312 178.117 24.7615C178.117 24.9015 178.243 24.9257 178.3 24.9739C178.445 25.0608 178.604 25.2298 178.676 25.4132C178.917 26.0938 178.556 26.9289 178.05 27.3103C177.905 27.4213 177.751 27.4744 177.621 27.5806C177.607 27.7303 177.742 27.7303 177.785 27.793C178.002 28.0247 178.117 28.6667 177.877 29.217C177.694 29.6273 177.274 30.0425 176.846 30.1632C176.417 30.2838 175.979 30.308 175.545 30.3852C173.036 30.8245 170.43 31.2686 167.8 31.7175C167.183 31.8237 166.538 32.0699 166.331 31.7416C166.2 31.5051 166.297 30.9983 166.34 30.5831L166.75 26.7165C166.841 25.8573 166.904 24.9643 167.024 24.1292C167.487 20.8032 169.172 18.6745 170.911 16.5988C171.104 16.3767 171.345 16.0823 171.566 15.8361C171.793 15.5851 172.125 15.2713 172.202 15.0348C172.265 14.8658 172.255 14.6679 172.284 14.4796C172.303 14.2962 172.323 14.1031 172.347 13.9342C172.4 13.5673 172.419 13.1908 172.511 12.8529C172.655 12.3219 173.098 11.8681 173.575 11.733C174.278 11.5447 174.75 11.9067 174.938 12.2977C175.324 13.0749 175.377 14.4748 174.982 15.8264C174.808 16.4009 174.543 16.9753 174.288 17.5111C174.115 17.8731 173.907 18.3172 173.696 18.7131C173.633 18.8434 173.508 19.0365 173.508 19.1041C173.522 19.3165 174.071 19.1958 174.312 19.1572C175.328 18.9834 176.306 18.8096 177.323 18.6358C177.997 18.52 178.744 18.2883 179.167 18.4379C179.582 18.5779 179.851 18.9544 179.832 19.5723C179.808 20.3012 179.524 20.9143 179.071 21.3198H179.057Z" fill="white"/>
<path d="M96.038 49.498C96.304 48.602 96.486 47.692 96.556 46.754L98.782 47.3C98.642 48.476 98.376 49.61 97.998 50.73C98.586 51.178 99.174 51.626 99.748 52.116L98.544 54.272C98.054 53.824 97.536 53.376 97.018 52.942C96.332 54.244 95.422 55.434 94.302 56.386L92.356 55.07C93.532 54.118 94.456 52.956 95.17 51.612C94.414 51.136 93.63 50.688 92.762 50.422C92.272 51.458 91.684 52.48 91.012 53.404C90.438 54.174 89.682 54.986 88.632 54.986C87.176 54.986 86.532 53.558 86.532 52.298C86.532 49.862 88.562 47.916 90.97 47.916C91.166 47.916 91.362 47.944 91.558 47.958C91.852 47.272 92.132 46.586 92.398 45.886C91.39 45.998 90.368 46.068 89.346 46.068C89.15 46.068 88.954 46.068 88.758 46.068L88.73 43.828C89.29 43.856 89.864 43.87 90.438 43.87C91.614 43.87 92.804 43.842 93.952 43.576L95.31 44.626C94.764 45.886 94.246 47.16 93.714 48.434C94.512 48.714 95.296 49.078 96.038 49.498ZM90.578 50.016C90.228 50.044 89.892 50.114 89.584 50.31C88.912 50.702 88.45 51.5 88.45 52.27C88.45 52.41 88.464 52.732 88.66 52.732C89.038 52.732 89.766 51.556 90.578 50.016ZM107.504 42.988L109.646 44.01C108.82 45.466 108.022 46.936 107.28 48.434C107.742 48.168 108.246 48.014 108.778 48.014C109.996 48.014 111.004 48.826 111.004 50.086C111.004 50.716 110.892 51.332 110.808 51.934C110.752 52.326 110.668 52.732 110.668 53.124C110.668 53.474 110.878 53.726 111.242 53.726C112.432 53.726 113.146 51.64 113.384 50.702L115.288 51.92C114.644 53.908 113.384 55.994 111.032 55.994C109.38 55.994 108.372 55.028 108.372 53.376C108.372 52.69 108.512 52.004 108.624 51.332C108.652 51.122 108.694 50.926 108.694 50.73C108.694 50.38 108.4 50.17 108.078 50.17C107.644 50.17 107.21 50.422 106.86 50.646C106.3 51.024 105.894 51.542 105.544 52.116C104.83 53.306 104.242 54.72 103.682 55.994L101.624 54.874L107.504 42.988ZM120.468 45.2C120.706 44.458 120.93 43.716 121.126 42.96L123.464 43.422C123.296 43.954 123.114 44.472 122.932 45.004C123.52 44.934 124.094 44.836 124.668 44.724L124.556 46.922C123.758 47.048 122.96 47.146 122.162 47.23C121.322 49.512 120.384 51.766 119.362 53.978L117.178 52.998C118.144 51.192 119.012 49.316 119.712 47.384C119.082 47.412 118.452 47.412 117.822 47.412L117.752 45.172C118.298 45.2 118.844 45.214 119.404 45.214C119.754 45.214 120.118 45.214 120.468 45.2ZM125.802 45.102C127.342 45.452 128.826 45.928 130.268 46.544L129.526 48.644C129.106 48.42 128.63 48.168 128.126 48.168C127.3 48.168 126.908 48.826 126.908 49.582C126.908 50.184 127.006 50.8 127.104 51.388C128.28 51.85 129.26 52.368 130.31 53.082L129.232 55.056C128.616 54.608 127.972 54.202 127.3 53.824C127.23 55.518 125.676 56.204 124.178 56.204C122.554 56.204 120.664 55.476 120.664 53.572C120.664 52.816 121 52.088 121.574 51.598C122.288 50.996 123.254 50.828 124.15 50.828C124.374 50.828 124.598 50.842 124.822 50.87C124.766 50.422 124.724 49.974 124.724 49.526C124.724 48.434 125.13 47.79 126.082 47.286C125.704 47.188 125.312 47.104 124.906 47.034L125.802 45.102ZM125.046 52.914C124.696 52.83 124.346 52.774 123.996 52.774C123.52 52.774 122.68 52.858 122.68 53.502C122.68 54.118 123.506 54.272 123.982 54.272C124.57 54.272 125.088 54.09 125.088 53.404C125.088 53.25 125.074 53.082 125.046 52.914ZM138.402 46.124C141.384 46.11 142.126 47.636 142.126 50.352C142.126 51.64 141.986 53.642 141.3 54.748C140.754 55.602 139.732 55.924 138.766 55.924C138.178 55.924 137.59 55.854 137.002 55.756L137.016 53.544C137.492 53.656 137.982 53.726 138.472 53.726C139.284 53.726 139.522 53.292 139.662 52.564C139.802 51.752 139.858 50.912 139.858 50.086C139.858 49.064 139.76 48.252 138.514 48.252C138.304 48.252 138.094 48.266 137.884 48.28C137.156 51.038 136.134 53.74 134.636 56.176L132.662 54.888C133.922 52.9 134.86 50.772 135.518 48.532C134.636 48.63 133.768 48.77 132.886 48.91L132.634 46.698L136.064 46.306C136.274 45.242 136.456 44.178 136.596 43.1L138.906 43.506C138.766 44.388 138.598 45.256 138.402 46.124ZM142.462 44.808C144.268 46.446 145.36 48.728 145.612 51.15L143.456 51.92C143.246 49.652 142.532 47.594 140.894 45.956L142.462 44.808ZM143.064 44.78L143.848 44.122C144.324 44.556 144.744 45.032 145.122 45.564L144.296 46.222C143.932 45.69 143.526 45.228 143.064 44.78ZM144.198 43.87L144.968 43.198C145.444 43.646 145.864 44.122 146.242 44.654L145.43 45.298C145.066 44.78 144.66 44.318 144.198 43.87ZM151.646 45.48L150.246 46.866C149.658 46.068 148.804 45.2 148.006 44.598L149.476 43.128C150.176 43.632 151.086 44.5 151.646 45.158V44.99H154.026V44.528H151.548V43.352H155.804V46.026H153.438V46.432C153.438 46.6 153.466 46.698 153.676 46.698H154.222C154.446 46.698 154.558 46.6 154.6 46.18L156.098 46.362C156.07 46.684 156.014 47.062 155.86 47.37C155.72 47.65 155.496 47.86 155.118 47.86H152.612C151.94 47.86 151.646 47.552 151.646 46.894V45.48ZM156.336 43.352H160.718V46.026H158.142V46.418C158.142 46.544 158.156 46.698 158.464 46.698H159.346C159.556 46.698 159.668 46.544 159.682 46.166L161.25 46.376C161.208 46.684 161.152 47.062 160.998 47.356C160.844 47.65 160.62 47.86 160.228 47.86H157.372C156.798 47.86 156.392 47.524 156.392 47.034V44.99H158.94V44.528H156.336V43.352ZM160.326 54.048H161.432L160.984 56.022H154.418C153.69 56.022 152.92 55.938 152.22 55.728C151.52 55.518 151.016 55.14 150.554 54.566C149.98 55.238 149.252 55.868 148.496 56.344L147.74 54.16C148.216 53.936 148.748 53.586 149.154 53.25V50.184H147.936V48.21H151.198V52.312C151.45 53.194 151.954 53.614 152.822 53.866L151.898 52.648C152.682 52.494 153.368 52.284 154.096 51.962H151.59V50.478H153.424V49.792H151.814V48.448H153.424V48.084H155.342V48.448H157.274V48.084H159.178V48.448H160.83V49.792H159.178V50.478H161.18V51.962H158.898C159.598 52.27 160.424 52.564 161.166 52.704L160.326 54.048ZM157.274 49.792H155.342V50.478H157.274V49.792ZM159.668 54.048C158.758 53.726 157.806 53.264 157.008 52.732L157.904 51.962H154.894L155.902 52.732C155.16 53.236 154.348 53.656 153.522 53.992C153.9 54.048 154.502 54.048 154.88 54.048H159.668ZM169.104 42.988L171.246 44.01C170.42 45.466 169.622 46.936 168.88 48.434C169.342 48.168 169.846 48.014 170.378 48.014C171.596 48.014 172.604 48.826 172.604 50.086C172.604 50.716 172.492 51.332 172.408 51.934C172.352 52.326 172.268 52.732 172.268 53.124C172.268 53.474 172.478 53.726 172.842 53.726C174.032 53.726 174.746 51.64 174.984 50.702L176.888 51.92C176.244 53.908 174.984 55.994 172.632 55.994C170.98 55.994 169.972 55.028 169.972 53.376C169.972 52.69 170.112 52.004 170.224 51.332C170.252 51.122 170.294 50.926 170.294 50.73C170.294 50.38 170 50.17 169.678 50.17C169.244 50.17 168.81 50.422 168.46 50.646C167.9 51.024 167.494 51.542 167.144 52.116C166.43 53.306 165.842 54.72 165.282 55.994L163.224 54.874L169.104 42.988ZM182.236 45.228C182.404 44.486 182.53 43.73 182.656 42.974L184.98 43.212C184.868 43.828 184.714 44.43 184.588 45.046C185.484 44.934 186.366 44.766 187.234 44.57L187.318 46.754C186.24 46.95 185.162 47.132 184.07 47.244C183.342 50.198 182.418 53.138 181.172 55.938L178.932 55.056C179.562 53.768 180.136 52.438 180.612 51.08C181.032 49.876 181.382 48.658 181.718 47.426C181.046 47.468 180.36 47.468 179.688 47.468C179.576 47.468 179.478 47.468 179.38 47.468L179.352 45.228C179.842 45.242 180.318 45.27 180.794 45.27C181.27 45.27 181.76 45.256 182.236 45.228ZM188.256 45.074L189.026 44.36C189.516 44.78 189.95 45.228 190.356 45.746L189.544 46.446C189.166 45.942 188.732 45.494 188.256 45.074ZM184.588 51.178L186.394 51.92C186.1 52.214 185.68 52.62 185.68 53.082C185.68 53.768 187.234 53.81 187.976 53.81C189.18 53.81 190.132 53.726 191.532 53.516V55.77C190.44 55.882 189.348 55.952 188.242 55.952C187.15 55.952 185.988 55.91 184.98 55.49C184.14 55.14 183.482 54.384 183.482 53.446C183.482 52.564 183.986 51.794 184.588 51.178ZM189.46 43.996L190.216 43.282C190.72 43.702 191.154 44.15 191.546 44.668L190.748 45.368C190.37 44.864 189.936 44.416 189.46 43.996ZM185.414 47.524C186.45 47.37 187.5 47.286 188.564 47.286C189.488 47.286 190.426 47.342 191.35 47.44L191.14 49.568C190.188 49.47 189.236 49.4 188.27 49.4C187.234 49.4 186.198 49.456 185.162 49.596L185.414 47.524ZM200.996 54.02C203.096 53.362 204.874 52.018 204.874 49.624C204.874 47.664 203.838 46.264 201.906 45.9C201.556 48.434 200.996 51.262 199.75 53.516C199.26 54.37 198.546 55.168 197.482 55.168C196.768 55.168 196.152 54.79 195.69 54.272C194.724 53.222 194.36 51.752 194.36 50.366C194.36 46.502 197.244 43.744 201.094 43.744C204.58 43.744 207.24 46.068 207.24 49.652C207.24 51.486 206.498 53.236 205.112 54.454C204.286 55.196 203.25 55.686 202.214 56.022L200.996 54.02ZM199.624 46.012C197.678 46.642 196.586 48.448 196.586 50.436C196.586 51.038 196.656 51.668 196.908 52.214C197.006 52.41 197.16 52.69 197.398 52.69C197.832 52.69 198.252 51.5 198.434 50.968C199.008 49.358 199.358 47.692 199.624 46.012ZM217.866 45.942L217.796 43.324H220.05L220.106 45.816C220.848 45.732 221.576 45.634 222.318 45.508L222.304 47.776C221.59 47.874 220.876 47.944 220.148 48.014L220.204 50.912C220.204 50.996 220.204 51.08 220.218 51.164C221.184 51.542 222.094 52.06 222.934 52.676L222.052 54.748C221.478 54.272 220.862 53.866 220.204 53.502C220.134 55.294 218.916 55.994 217.25 55.994C215.542 55.994 213.806 55.21 213.806 53.264C213.806 51.388 215.318 50.52 217.026 50.52C217.334 50.52 217.656 50.534 217.964 50.59C217.964 50.534 217.964 50.464 217.964 50.408L217.908 48.14C217.474 48.154 217.04 48.168 216.606 48.168C215.71 48.168 214.828 48.126 213.932 48.084L213.946 45.816C214.968 45.914 216.004 45.956 217.04 45.956C217.32 45.956 217.586 45.956 217.866 45.942ZM218.02 52.592C217.684 52.494 217.348 52.438 216.998 52.438C216.494 52.438 215.794 52.606 215.794 53.222C215.794 53.852 216.508 54.062 217.026 54.062C218.034 54.062 218.034 53.404 218.02 52.592ZM210.964 43.38L213.274 43.66C212.77 46.012 212.42 48.406 212.42 50.814C212.42 51.346 212.434 51.878 212.49 52.41C212.658 52.088 212.812 51.766 212.98 51.458L213.834 52.424C213.33 53.474 212.882 54.58 212.784 55.756L210.908 55.938C210.376 54.23 210.222 52.396 210.222 50.604C210.222 48.182 210.516 45.76 210.964 43.38ZM225.916 44.542H237.13V55.546H234.82V54.832H225.804V52.578H234.82V46.796H225.916V44.542ZM242.38 43.31H244.76V53.18C247.686 52.382 250.22 50.562 252.012 48.126L253.622 49.778C250.822 53.418 246.916 55.462 242.38 56.022V43.31Z" fill="white"/>
<line x1="84" y1="66" x2="256" y2="66" stroke="white" stroke-width="2"/>
<path d="M336.681 87.675C336.681 88.043 336.385 88.339 336.017 88.339C335.649 88.339 335.353 88.043 335.353 87.675C335.353 87.307 335.649 87.011 336.017 87.011C336.385 87.011 336.681 87.307 336.681 87.675ZM338.921 92.467L338.545 92.843L336.017 90.307L333.489 92.843L333.113 92.467L335.649 89.939L333.113 87.411L333.489 87.035L336.017 89.571L338.545 87.035L338.921 87.411L336.385 89.939L338.921 92.467ZM334.417 89.939C334.417 90.307 334.121 90.603 333.753 90.603C333.385 90.603 333.089 90.307 333.089 89.939C333.089 89.571 333.385 89.275 333.753 89.275C334.121 89.275 334.417 89.571 334.417 89.939ZM338.945 89.939C338.945 90.307 338.649 90.603 338.281 90.603C337.913 90.603 337.617 90.307 337.617 89.939C337.617 89.571 337.913 89.275 338.281 89.275C338.649 89.275 338.945 89.571 338.945 89.939ZM336.681 92.203C336.681 92.571 336.385 92.867 336.017 92.867C335.649 92.867 335.353 92.571 335.353 92.203C335.353 91.835 335.649 91.539 336.017 91.539C336.385 91.539 336.681 91.835 336.681 92.203Z" fill="white"/>
<path d="M232.605 80.5391L242.316 82.0507C241.354 86.4939 240.804 91.0287 240.804 95.6094C240.804 97.6706 241.262 108.298 243.965 108.298C245.477 108.298 247.217 102.114 247.584 100.785L255.004 105.962C253.905 109.168 252.668 112.466 250.699 115.214C248.866 117.734 246.576 119.474 243.37 119.474C240.255 119.474 237.552 117.459 235.766 115.031C231.735 109.489 230.956 101.931 230.956 95.2887C230.956 90.2958 231.552 85.3945 232.605 80.5391ZM264.486 83.0126C271.724 90.7081 273.922 99.1822 273.968 109.534L264.028 112.42C264.074 111.687 264.12 110.909 264.12 110.176C264.12 102.572 262.059 93.4106 256.699 87.7765L264.486 83.0126Z" fill="white"/>
<path d="M202.967 91.5326C201.593 97.0293 200.128 102.526 198.341 107.885C196.921 112.191 195.364 116.451 193.348 120.528L184.37 117.001C188.172 109.076 191.241 100.877 193.394 92.3571C190.92 92.4945 188.493 92.5403 186.019 92.5861V83.5623C187.76 83.6539 189.455 83.6997 191.195 83.6997C192.569 83.6997 193.944 83.6539 195.364 83.6539C195.73 81.4094 196.097 79.2107 196.417 77.012L205.945 77.6991C205.624 79.3939 205.304 81.0887 204.937 82.7836C207.502 82.4171 209.976 81.959 212.495 81.4094L212.77 89.9752C209.518 90.6164 206.266 91.1203 202.967 91.5326ZM203.471 103.763L211.121 105.916C210.159 106.786 208.785 108.023 208.785 109.397C208.785 111.413 213.182 111.504 215.152 111.504C219.549 111.504 223.031 111.092 226.604 110.496V119.658C222.802 120.024 219 120.253 215.198 120.253C211.213 120.253 206.724 120.253 203.288 117.963C201.181 116.543 199.898 114.253 199.898 111.733C199.898 108.71 201.456 105.916 203.471 103.763ZM205.807 92.2197C209.518 91.6242 213.228 91.3494 216.938 91.3494C219.962 91.3494 222.939 91.5326 225.962 91.8074L225.092 100.373C221.656 100.007 218.221 99.8235 214.786 99.8235C211.487 99.8235 208.144 99.9609 204.8 100.327L205.807 92.2197Z" fill="white"/>
<path d="M144.886 78.3861L154.505 79.3938C153.36 84.6616 152.81 90.0209 152.489 95.3803C153.314 93.9145 154.184 92.4487 155.009 90.9829L159.223 94.9222C156.429 99.5028 154.276 104.404 153.039 109.58L145.481 110.359C143.832 105.32 143.374 99.8693 143.374 94.5558C143.374 89.1506 143.924 83.7455 144.886 78.3861ZM166.323 78.5693H176.217C176.721 83.9287 177.042 89.3338 177.042 94.739C177.042 107.794 173.973 115.718 161.88 121.811L153.909 115.169C158.536 113.016 163.346 109.992 165.544 105.183C167.148 101.61 167.285 97.4874 167.285 93.6854C167.285 88.6009 166.827 83.5622 166.323 78.5693Z" fill="white"/>
<path d="M95.0023 103.03C94.4068 103.671 93.9029 104.129 93.2158 104.725L91.75 91.5326C95.2313 87.3184 96.6055 82.6003 97.2468 77.241L105.354 77.8823C104.896 81.6384 104.164 85.0281 103.018 88.6468V121.307H95.0023V103.03ZM109.477 77.6532H117.768V81.0429H122.349V77.6532H130.869V81.0429H135.037V88.4635H130.869V90.6622H135.999V97.9912H104.209V90.6622H109.477V88.4635H105.354V81.0429H109.477V77.6532ZM122.349 88.4635H117.768V90.6622H122.349V88.4635ZM133.388 99.3196V121.307H125.005V120.024H115.111V121.307H106.82V99.3196H133.388ZM125.005 104.954H115.111V106.465H125.005V104.954ZM125.005 111.733H115.111V113.336H125.005V111.733Z" fill="white"/>
<path d="M84.5589 111.642C86.8492 112.878 88.9105 113.52 91.5215 113.932L88.2234 121.673C84.6505 120.391 81.8563 118.65 79.0621 116.085C76.268 118.742 73.2905 120.436 69.5802 121.582L67.977 118.421V119.841H56.5254V121.307H48.7841V108.023L45.8525 101.335C48.4635 101.06 50.7538 100.511 53.1816 99.4571C52.6777 98.9074 52.2654 98.3578 51.8074 97.8081C51.1203 98.2661 50.4332 98.6784 49.7461 99.0449L45.99 92.5404C48.0512 91.8991 49.517 91.1204 51.1203 89.7004H47.5016V79.8062H54.5557V77.5159H62.8467V79.8062H69.7635V78.4778H90.4221V86.0359H83.4596C83.2305 86.6771 83.0931 86.952 82.8641 87.5475H89.3686V111.642H84.5589ZM69.8093 86.0359V87.5475H74.9396C75.2144 86.9978 75.3976 86.6313 75.5809 86.0359H69.8093ZM60.0067 88.601H62.8467V86.2649H55.197V87.0436H60.7854C60.5564 87.5933 60.2815 88.0971 60.0067 88.601ZM64.0835 99.6861C66.0073 100.511 67.7022 101.06 69.7635 101.473V89.7004H68.6641V94.2352C67.4731 95.8842 65.5035 98.3578 64.0835 99.6861ZM81.1234 92.7694H77.5505V94.2352H81.1234V92.7694ZM58.4951 96.2507C59.3196 95.6094 60.0067 94.9681 60.7854 94.2352H56.2964C56.9835 94.9681 57.7164 95.6552 58.4951 96.2507ZM81.1234 98.6326H77.5505V100.098H81.1234V98.6326ZM69.7635 103.167L67.977 106.832V114.39C70.3131 113.795 72.2828 113.016 74.2983 111.642H69.7635V103.167ZM81.1234 104.221H77.5505V105.687H81.1234V104.221ZM55.1512 106.557H61.7473C60.6022 105.916 59.5486 105.183 58.4951 104.45C57.4416 105.183 56.2964 105.87 55.1512 106.557ZM82.8183 111.642H75.7183L79.0163 115.581L82.8183 111.642ZM60.4648 112.054H56.5254V113.932H60.4648V112.054Z" fill="white"/>
<path d="M27.2548 77.47V97.7164C27.2548 99.8693 26.9799 102.343 25.2851 103.809C23.7277 105.137 21.8038 105.641 19.7883 105.641H13.1464L11.7264 96.9835H17.2232C18.1851 96.9835 18.3225 96.5254 18.3225 95.7009V77.47H27.2548ZM40.5844 103.305C35.1335 98.2661 31.1025 90.0667 28.4916 83.1958L36.0954 79.9435C38.2025 85.0738 41.6838 91.2577 45.6689 95.1512L40.5844 103.305ZM6.09225 103.442L0 96.1132C3.48128 92.5403 7.23741 84.8906 8.42837 80.0351L16.2155 83.0583C14.4748 89.3338 10.398 98.5867 6.09225 103.442ZM39.3019 103.671C35.8206 109.58 31.0567 114.161 24.7354 116.863C18.0477 119.703 11.2684 121.032 4.07677 121.627L0.870321 112.787C8.97805 112.374 20.2006 110.863 26.6135 105.503C28.9954 103.534 30.6903 101.427 32.2935 98.7699L39.3019 103.671Z" fill="white"/>
<g filter="url(#filter0_d_837_2303)">
<path d="M322.907 104.631H322.131C320.806 104.631 320.487 104.197 320.487 102.895V100.611L318.043 103.238C316.832 101.799 315.782 100.794 314.138 99.8349L316.947 96.6832C318.408 97.5968 319.687 98.5331 320.875 99.7893H324.095V99.2411H320.487V97.14H327.544V101.662H323.958V102.21C323.958 102.393 323.958 102.667 324.278 102.667H324.506C324.872 102.667 324.94 102.302 324.963 101.822L327.726 102.21C327.635 103.215 327.43 104.448 326.219 104.608H326.767V105.202H329.371V104.608C328.434 104.517 328.206 103.946 328.206 103.101V99.7893H332.02V99.2411H328.206V97.14H335.446V101.662H331.655V102.21C331.655 102.53 331.723 102.667 332.18 102.667H332.888C333.23 102.667 333.322 102.347 333.345 101.799L336.245 102.21C336.131 103.603 335.697 104.631 334.121 104.631H333.185V105.202H335.446V107.828H333.185V108.377H336.017V111.14H332.911C333.87 111.551 334.989 111.802 336.017 111.917L334.646 114.155H336.474L335.583 118.151H325.1C324.027 118.151 322.428 118.037 321.4 117.763C320.281 117.466 319.322 116.804 318.454 116.027C317.335 117.124 316.421 117.9 315.028 118.654L313.795 114.246C314.549 113.926 315.142 113.629 315.828 113.173V108.81H314.138V104.859H319.938V111.688C320.35 112.876 321.08 113.515 322.268 113.858L320.806 111.939C321.857 111.757 322.885 111.505 323.867 111.14H320.487V108.377H322.907V107.828H320.669V105.202H322.907V104.631ZM329.371 107.646H326.767V108.377H329.371V107.646ZM324.917 114.155H331.906C330.81 113.675 329.828 113.127 328.846 112.487L330.33 111.14H326.219L327.818 112.487C326.904 113.127 325.922 113.675 324.917 114.155Z" fill="url(#paint0_linear_837_2303)"/>
<path d="M280.482 91.5372C280.627 88.6993 281.061 85.9088 282.555 83.4493C285.303 78.8615 290.51 77.4899 295.669 77.4899C300.201 77.4899 304.974 78.8142 307.818 82.5034C309.313 84.4426 310.036 86.902 310.036 89.3142C310.036 92.7669 308.879 95.0372 306.131 97.0709C309.409 99.4831 311 102.51 311 106.578C311 111.024 308.734 114.997 304.925 117.361C302.129 119.111 298.272 119.49 295.042 119.49C290.896 119.49 286.894 118.497 283.905 115.564C282.507 114.098 281.446 112.348 280.868 110.409C280.241 108.422 280.048 106.389 280 104.307H290.703C290.703 108.091 291.137 110.834 295.765 110.834C298.658 110.834 300.683 109.368 300.683 106.389C300.683 102.794 297.935 102.132 294.849 102.132H291.33V93.8547H295.669C297.935 93.8547 299.477 92.5304 299.477 90.3074C299.477 87.8007 297.983 86.2872 295.476 86.2872C292.149 86.2872 291.233 88.7466 291.185 91.5372H280.482Z" fill="url(#paint1_linear_837_2303)"/>
<path d="M327.88 78.9553C327.544 79.3501 327.27 79.6321 326.873 79.9479L325.938 77.895C326.579 77.3649 327.087 76.7557 327.504 76L329.628 76.1918C329.567 76.3384 329.516 76.4625 329.455 76.6091H335.868V78.3688H328.357C328.276 78.4703 328.195 78.5718 328.113 78.6733H335.095V80.0946H327.88V78.9553ZM327.9 84.2456C327.463 83.9072 327.087 83.6365 326.609 83.3657L327.697 82.0573H326.121V80.4217H334.16C334.13 81.1323 334.11 81.8317 334.11 82.531C334.11 83.0386 334.14 83.9523 334.252 84.3922C334.272 84.4824 334.343 84.6178 334.435 84.6178C334.689 84.6178 335.187 83.5913 335.329 83.2642L336.041 85.5766C335.654 86.2534 335.034 87.0204 334.252 87.0204C333.703 87.0204 333.185 86.6482 332.89 86.1631C332.28 85.1592 332.229 83.2529 332.209 82.0573H330.674L331.853 82.7905C331.559 83.3319 331.274 83.738 330.878 84.2004C331.274 84.5727 331.67 84.9449 332.057 85.3397L330.613 86.8512C330.227 86.3775 329.811 85.9488 329.374 85.5427C328.682 86.0503 327.951 86.4903 327.199 86.8963L326.193 85.069C326.802 84.8547 327.341 84.6065 327.9 84.2456ZM329.445 82.9822C329.729 82.7002 329.953 82.3957 330.187 82.0573H328.113C328.571 82.3393 329.018 82.6551 329.445 82.9822Z" fill="white"/>
<path d="M319.894 76H321.943V78.0706C321.943 79.5891 322.169 80.912 322.906 82.2004C323.654 83.5003 324.699 84.3401 325.939 84.9613L324.679 87.0204C322.763 85.755 321.656 84.4781 320.908 82.0969C320.109 84.4666 318.982 85.7205 317.087 87.0204L315.837 85.0188C318.439 83.8109 319.894 81.2226 319.894 78.0821V76Z" fill="white"/>
<path d="M314 77.3776V89.3163H319.969L318.133 92.9898L323.643 89.3163H336.5" stroke="white" stroke-linecap="round" stroke-linejoin="round"/>
</g>
<defs>
<filter id="filter0_d_837_2303" x="280" y="76" width="59" height="45.49" filterUnits="userSpaceOnUse" color-interpolation-filters="sRGB">
<feFlood flood-opacity="0" result="BackgroundImageFix"/>
<feColorMatrix in="SourceAlpha" type="matrix" values="0 0 0 0 0 0 0 0 0 0 0 0 0 0 0 0 0 0 127 0" result="hardAlpha"/>
<feOffset dx="2" dy="2"/>
<feComposite in2="hardAlpha" operator="out"/>
<feColorMatrix type="matrix" values="0 0 0 0 0.758333 0 0 0 0 0.126389 0 0 0 0 0.126389 0 0 0 1 0"/>
<feBlend mode="normal" in2="BackgroundImageFix" result="effect1_dropShadow_837_2303"/>
<feBlend mode="normal" in="SourceGraphic" in2="effect1_dropShadow_837_2303" result="shape"/>
</filter>
<linearGradient id="paint0_linear_837_2303" x1="320.702" y1="96.6832" x2="336.343" y2="103.838" gradientUnits="userSpaceOnUse">
<stop stop-color="white"/>
<stop offset="0.525" stop-color="#FAE60F"/>
<stop offset="0.585" stop-color="#E6D737"/>
<stop offset="1" stop-color="#FFEA05"/>
</linearGradient>
<linearGradient id="paint1_linear_837_2303" x1="289.442" y1="77.4899" x2="312.797" y2="85.1288" gradientUnits="userSpaceOnUse">
<stop stop-color="white"/>
<stop offset="0.525" stop-color="#FAE60F"/>
<stop offset="0.585" stop-color="#E6D737"/>
<stop offset="1" stop-color="#FFEA05"/>
</linearGradient>
</defs>
</svg>
