<svg width="352" height="80" viewBox="0 0 352 80" fill="none" xmlns="http://www.w3.org/2000/svg">
<path d="M63.038 13.498C63.304 12.602 63.486 11.692 63.556 10.754L65.782 11.3C65.642 12.476 65.376 13.61 64.998 14.73C65.586 15.178 66.174 15.626 66.748 16.116L65.544 18.272C65.054 17.824 64.536 17.376 64.018 16.942C63.332 18.244 62.422 19.434 61.302 20.386L59.356 19.07C60.532 18.118 61.456 16.956 62.17 15.612C61.414 15.136 60.63 14.688 59.762 14.422C59.272 15.458 58.684 16.48 58.012 17.404C57.438 18.174 56.682 18.986 55.632 18.986C54.176 18.986 53.532 17.558 53.532 16.298C53.532 13.862 55.562 11.916 57.97 11.916C58.166 11.916 58.362 11.944 58.558 11.958C58.852 11.272 59.132 10.586 59.398 9.886C58.39 9.998 57.368 10.068 56.346 10.068C56.15 10.068 55.954 10.068 55.758 10.068L55.73 7.828C56.29 7.856 56.864 7.87 57.438 7.87C58.614 7.87 59.804 7.842 60.952 7.576L62.31 8.626C61.764 9.886 61.246 11.16 60.714 12.434C61.512 12.714 62.296 13.078 63.038 13.498ZM57.578 14.016C57.228 14.044 56.892 14.114 56.584 14.31C55.912 14.702 55.45 15.5 55.45 16.27C55.45 16.41 55.464 16.732 55.66 16.732C56.038 16.732 56.766 15.556 57.578 14.016ZM74.504 6.988L76.646 8.01C75.82 9.466 75.022 10.936 74.28 12.434C74.742 12.168 75.246 12.014 75.778 12.014C76.996 12.014 78.004 12.826 78.004 14.086C78.004 14.716 77.892 15.332 77.808 15.934C77.752 16.326 77.668 16.732 77.668 17.124C77.668 17.474 77.878 17.726 78.242 17.726C79.432 17.726 80.146 15.64 80.384 14.702L82.288 15.92C81.644 17.908 80.384 19.994 78.032 19.994C76.38 19.994 75.372 19.028 75.372 17.376C75.372 16.69 75.512 16.004 75.624 15.332C75.652 15.122 75.694 14.926 75.694 14.73C75.694 14.38 75.4 14.17 75.078 14.17C74.644 14.17 74.21 14.422 73.86 14.646C73.3 15.024 72.894 15.542 72.544 16.116C71.83 17.306 71.242 18.72 70.682 19.994L68.624 18.874L74.504 6.988ZM87.468 9.2C87.706 8.458 87.93 7.716 88.126 6.96L90.464 7.422C90.296 7.954 90.114 8.472 89.932 9.004C90.52 8.934 91.094 8.836 91.668 8.724L91.556 10.922C90.758 11.048 89.96 11.146 89.162 11.23C88.322 13.512 87.384 15.766 86.362 17.978L84.178 16.998C85.144 15.192 86.012 13.316 86.712 11.384C86.082 11.412 85.452 11.412 84.822 11.412L84.752 9.172C85.298 9.2 85.844 9.214 86.404 9.214C86.754 9.214 87.118 9.214 87.468 9.2ZM92.802 9.102C94.342 9.452 95.826 9.928 97.268 10.544L96.526 12.644C96.106 12.42 95.63 12.168 95.126 12.168C94.3 12.168 93.908 12.826 93.908 13.582C93.908 14.184 94.006 14.8 94.104 15.388C95.28 15.85 96.26 16.368 97.31 17.082L96.232 19.056C95.616 18.608 94.972 18.202 94.3 17.824C94.23 19.518 92.676 20.204 91.178 20.204C89.554 20.204 87.664 19.476 87.664 17.572C87.664 16.816 88 16.088 88.574 15.598C89.288 14.996 90.254 14.828 91.15 14.828C91.374 14.828 91.598 14.842 91.822 14.87C91.766 14.422 91.724 13.974 91.724 13.526C91.724 12.434 92.13 11.79 93.082 11.286C92.704 11.188 92.312 11.104 91.906 11.034L92.802 9.102ZM92.046 16.914C91.696 16.83 91.346 16.774 90.996 16.774C90.52 16.774 89.68 16.858 89.68 17.502C89.68 18.118 90.506 18.272 90.982 18.272C91.57 18.272 92.088 18.09 92.088 17.404C92.088 17.25 92.074 17.082 92.046 16.914ZM105.402 10.124C108.384 10.11 109.126 11.636 109.126 14.352C109.126 15.64 108.986 17.642 108.3 18.748C107.754 19.602 106.732 19.924 105.766 19.924C105.178 19.924 104.59 19.854 104.002 19.756L104.016 17.544C104.492 17.656 104.982 17.726 105.472 17.726C106.284 17.726 106.522 17.292 106.662 16.564C106.802 15.752 106.858 14.912 106.858 14.086C106.858 13.064 106.76 12.252 105.514 12.252C105.304 12.252 105.094 12.266 104.884 12.28C104.156 15.038 103.134 17.74 101.636 20.176L99.662 18.888C100.922 16.9 101.86 14.772 102.518 12.532C101.636 12.63 100.768 12.77 99.886 12.91L99.634 10.698L103.064 10.306C103.274 9.242 103.456 8.178 103.596 7.1L105.906 7.506C105.766 8.388 105.598 9.256 105.402 10.124ZM109.462 8.808C111.268 10.446 112.36 12.728 112.612 15.15L110.456 15.92C110.246 13.652 109.532 11.594 107.894 9.956L109.462 8.808ZM110.064 8.78L110.848 8.122C111.324 8.556 111.744 9.032 112.122 9.564L111.296 10.222C110.932 9.69 110.526 9.228 110.064 8.78ZM111.198 7.87L111.968 7.198C112.444 7.646 112.864 8.122 113.242 8.654L112.43 9.298C112.066 8.78 111.66 8.318 111.198 7.87ZM118.646 9.48L117.246 10.866C116.658 10.068 115.804 9.2 115.006 8.598L116.476 7.128C117.176 7.632 118.086 8.5 118.646 9.158V8.99H121.026V8.528H118.548V7.352H122.804V10.026H120.438V10.432C120.438 10.6 120.466 10.698 120.676 10.698H121.222C121.446 10.698 121.558 10.6 121.6 10.18L123.098 10.362C123.07 10.684 123.014 11.062 122.86 11.37C122.72 11.65 122.496 11.86 122.118 11.86H119.612C118.94 11.86 118.646 11.552 118.646 10.894V9.48ZM123.336 7.352H127.718V10.026H125.142V10.418C125.142 10.544 125.156 10.698 125.464 10.698H126.346C126.556 10.698 126.668 10.544 126.682 10.166L128.25 10.376C128.208 10.684 128.152 11.062 127.998 11.356C127.844 11.65 127.62 11.86 127.228 11.86H124.372C123.798 11.86 123.392 11.524 123.392 11.034V8.99H125.94V8.528H123.336V7.352ZM127.326 18.048H128.432L127.984 20.022H121.418C120.69 20.022 119.92 19.938 119.22 19.728C118.52 19.518 118.016 19.14 117.554 18.566C116.98 19.238 116.252 19.868 115.496 20.344L114.74 18.16C115.216 17.936 115.748 17.586 116.154 17.25V14.184H114.936V12.21H118.198V16.312C118.45 17.194 118.954 17.614 119.822 17.866L118.898 16.648C119.682 16.494 120.368 16.284 121.096 15.962H118.59V14.478H120.424V13.792H118.814V12.448H120.424V12.084H122.342V12.448H124.274V12.084H126.178V12.448H127.83V13.792H126.178V14.478H128.18V15.962H125.898C126.598 16.27 127.424 16.564 128.166 16.704L127.326 18.048ZM124.274 13.792H122.342V14.478H124.274V13.792ZM126.668 18.048C125.758 17.726 124.806 17.264 124.008 16.732L124.904 15.962H121.894L122.902 16.732C122.16 17.236 121.348 17.656 120.522 17.992C120.9 18.048 121.502 18.048 121.88 18.048H126.668ZM136.104 6.988L138.246 8.01C137.42 9.466 136.622 10.936 135.88 12.434C136.342 12.168 136.846 12.014 137.378 12.014C138.596 12.014 139.604 12.826 139.604 14.086C139.604 14.716 139.492 15.332 139.408 15.934C139.352 16.326 139.268 16.732 139.268 17.124C139.268 17.474 139.478 17.726 139.842 17.726C141.032 17.726 141.746 15.64 141.984 14.702L143.888 15.92C143.244 17.908 141.984 19.994 139.632 19.994C137.98 19.994 136.972 19.028 136.972 17.376C136.972 16.69 137.112 16.004 137.224 15.332C137.252 15.122 137.294 14.926 137.294 14.73C137.294 14.38 137 14.17 136.678 14.17C136.244 14.17 135.81 14.422 135.46 14.646C134.9 15.024 134.494 15.542 134.144 16.116C133.43 17.306 132.842 18.72 132.282 19.994L130.224 18.874L136.104 6.988ZM149.236 9.228C149.404 8.486 149.53 7.73 149.656 6.974L151.98 7.212C151.868 7.828 151.714 8.43 151.588 9.046C152.484 8.934 153.366 8.766 154.234 8.57L154.318 10.754C153.24 10.95 152.162 11.132 151.07 11.244C150.342 14.198 149.418 17.138 148.172 19.938L145.932 19.056C146.562 17.768 147.136 16.438 147.612 15.08C148.032 13.876 148.382 12.658 148.718 11.426C148.046 11.468 147.36 11.468 146.688 11.468C146.576 11.468 146.478 11.468 146.38 11.468L146.352 9.228C146.842 9.242 147.318 9.27 147.794 9.27C148.27 9.27 148.76 9.256 149.236 9.228ZM155.256 9.074L156.026 8.36C156.516 8.78 156.95 9.228 157.356 9.746L156.544 10.446C156.166 9.942 155.732 9.494 155.256 9.074ZM151.588 15.178L153.394 15.92C153.1 16.214 152.68 16.62 152.68 17.082C152.68 17.768 154.234 17.81 154.976 17.81C156.18 17.81 157.132 17.726 158.532 17.516V19.77C157.44 19.882 156.348 19.952 155.242 19.952C154.15 19.952 152.988 19.91 151.98 19.49C151.14 19.14 150.482 18.384 150.482 17.446C150.482 16.564 150.986 15.794 151.588 15.178ZM156.46 7.996L157.216 7.282C157.72 7.702 158.154 8.15 158.546 8.668L157.748 9.368C157.37 8.864 156.936 8.416 156.46 7.996ZM152.414 11.524C153.45 11.37 154.5 11.286 155.564 11.286C156.488 11.286 157.426 11.342 158.35 11.44L158.14 13.568C157.188 13.47 156.236 13.4 155.27 13.4C154.234 13.4 153.198 13.456 152.162 13.596L152.414 11.524ZM166.19 9.718C166.232 8.85 166.26 7.968 166.26 7.086H168.556C168.556 7.968 168.556 8.85 168.5 9.718H173.554C173.47 11.748 173.274 16.452 172.532 18.188C171.958 19.518 170.908 19.84 169.55 19.84C169.158 19.84 168.752 19.826 168.346 19.798L167.884 17.502C168.416 17.558 168.934 17.614 169.466 17.614C170.348 17.614 170.558 17.026 170.712 16.27C171.02 14.856 171.118 13.372 171.188 11.93H168.29C167.856 15.486 166.4 18.062 163.362 20.022L161.668 18.342C162.928 17.558 164.09 16.55 164.86 15.262C165.476 14.24 165.798 13.106 165.994 11.93H161.724V9.718H166.19ZM176.816 12.588H189.584V14.814H176.816V12.588ZM197.718 12.658L198.46 11.244C200.448 12.182 202.324 13.316 204.088 14.618L202.744 16.634C201.176 15.402 199.496 14.296 197.718 13.414V20.162H195.352V7.198H197.718V12.658ZM200.882 9.452L201.68 8.696C202.226 9.144 202.702 9.62 203.136 10.166L202.282 10.936C201.862 10.39 201.4 9.914 200.882 9.452ZM202.212 8.29L203.024 7.52C203.556 7.968 204.032 8.458 204.466 9.004L203.626 9.774C203.192 9.228 202.744 8.738 202.212 8.29ZM217.346 18.888H210.654V19.672H208.358V8.346H219.642V19.672H217.346V18.888ZM217.346 16.704V10.572H210.654V16.704H217.346ZM223.016 12.588H235.784V14.814H223.016V12.588ZM240.166 7.618C241.706 8.374 243.148 9.312 244.478 10.418L242.98 12.294C241.692 11.202 240.306 10.264 238.836 9.466L240.166 7.618ZM239.004 17.768C243.876 16.858 247.166 14.534 249.686 10.278L251.324 12.168C248.734 16.326 244.912 19.07 240.082 20.064L239.004 17.768ZM261.866 9.942L261.796 7.324H264.05L264.106 9.816C264.848 9.732 265.576 9.634 266.318 9.508L266.304 11.776C265.59 11.874 264.876 11.944 264.148 12.014L264.204 14.912C264.204 14.996 264.204 15.08 264.218 15.164C265.184 15.542 266.094 16.06 266.934 16.676L266.052 18.748C265.478 18.272 264.862 17.866 264.204 17.502C264.134 19.294 262.916 19.994 261.25 19.994C259.542 19.994 257.806 19.21 257.806 17.264C257.806 15.388 259.318 14.52 261.026 14.52C261.334 14.52 261.656 14.534 261.964 14.59C261.964 14.534 261.964 14.464 261.964 14.408L261.908 12.14C261.474 12.154 261.04 12.168 260.606 12.168C259.71 12.168 258.828 12.126 257.932 12.084L257.946 9.816C258.968 9.914 260.004 9.956 261.04 9.956C261.32 9.956 261.586 9.956 261.866 9.942ZM262.02 16.592C261.684 16.494 261.348 16.438 260.998 16.438C260.494 16.438 259.794 16.606 259.794 17.222C259.794 17.852 260.508 18.062 261.026 18.062C262.034 18.062 262.034 17.404 262.02 16.592ZM254.964 7.38L257.274 7.66C256.77 10.012 256.42 12.406 256.42 14.814C256.42 15.346 256.434 15.878 256.49 16.41C256.658 16.088 256.812 15.766 256.98 15.458L257.834 16.424C257.33 17.474 256.882 18.58 256.784 19.756L254.908 19.938C254.376 18.23 254.222 16.396 254.222 14.604C254.222 12.182 254.516 9.76 254.964 7.38ZM269.916 8.542H281.13V19.546H278.82V18.832H269.804V16.578H278.82V10.796H269.916V8.542ZM286.38 7.31H288.76V17.18C291.686 16.382 294.22 14.562 296.012 12.126L297.622 13.778C294.822 17.418 290.916 19.462 286.38 20.022V7.31Z" fill="white"/>
<line x1="53" y1="26" x2="300" y2="26" stroke="white" stroke-width="2"/>
<path d="M277.206 50.8599L283.117 40.8549H290.534L282.151 54.4664L290.449 74.0499H283.43L278.087 61.0588L277.206 62.4937V74.0499H270.869V40.8549H277.206V50.8599Z" fill="white"/>
<path d="M259.06 40.2344C266.278 40.2344 269.944 48.4168 269.944 57.4524C269.944 66.4879 266.25 74.6703 259.06 74.6703C251.87 74.6703 248.176 66.4879 248.176 57.4524C248.176 48.4168 251.842 40.2344 259.06 40.2344ZM259.06 47.4085C255.394 47.4085 254.712 53.6132 254.712 57.4524C254.712 61.2915 255.394 67.4962 259.06 67.4962C262.726 67.4962 263.408 61.2915 263.408 57.4524C263.408 53.6132 262.726 47.4085 259.06 47.4085Z" fill="white"/>
<path d="M225.607 41.8018H238.168C238.139 42.5672 238.139 43.369 238.139 44.1345C238.139 48.3625 238.48 52.2625 239.446 56.126C240.953 62.2129 244.619 66.6232 249.137 69.0652L245.613 75.7353C239.844 71.6531 237.912 68.4821 235.042 61.0101C233.081 67.7167 229.472 72.5643 224.47 75.7353L221.23 69.3568C228.25 64.4363 231.916 59.2606 232.768 48.7634H225.607V41.8018Z" fill="white"/>
<path d="M195.724 61.083C195.354 61.5933 195.042 61.9578 194.615 62.4316L193.706 51.9344C195.866 48.5812 196.718 44.827 197.116 40.5625L202.146 41.0728C201.862 44.0616 201.407 46.7588 200.697 49.6382V75.626H195.724V61.083ZM204.704 40.8905H209.848V43.5877H212.689V40.8905H217.975V43.5877H220.561V49.4924H217.975V51.2419H221.158V57.0737H201.436V51.2419H204.704V49.4924H202.146V43.5877H204.704V40.8905ZM212.689 49.4924H209.848V51.2419H212.689V49.4924ZM219.538 58.1307V75.626H214.338V74.6054H208.199V75.626H203.056V58.1307H219.538ZM214.338 62.6139H208.199V63.8167H214.338V62.6139ZM214.338 68.0082H208.199V69.2839H214.338V68.0082Z" fill="white"/>
<path d="M189.58 61.7504L190.685 60.8126C191.221 61.542 191.643 62.3339 192.001 63.2091L190.88 64.126C190.539 63.2508 190.1 62.4589 189.58 61.7504ZM187.972 63.0841L189.076 62.1463C189.596 62.8757 190.035 63.6676 190.392 64.522L189.271 65.4597C188.93 64.5845 188.475 63.7926 187.972 63.0841ZM176.712 57.0825C177.882 57.0616 179.068 57.0616 180.238 56.9574L191.513 55.9572L191.773 60.1249C190.067 60.1458 188.475 60.3958 186.997 61.5003C185.599 62.5423 184.413 64.2927 184.413 66.46C184.413 68.0437 185.161 69.0648 186.249 69.6483C187.208 70.1693 188.264 70.3985 189.304 70.4819L187.793 74.6705C184.186 74.1287 180.79 72.0031 180.79 66.7309C180.79 63.8968 181.684 62.0213 183.325 60.25L176.956 61.417L176.712 57.0825Z" fill="white"/>
<path d="M163.095 54.8247L166.787 55.0854L166.415 67.0984C166.415 67.2504 166.415 67.4025 166.415 67.5546C166.415 69.5748 166.838 70.8131 168.583 70.8131C171.53 70.8131 172.817 67.0549 173.613 64.0137L176.712 66.186C175.341 71.0303 172.918 75.2881 168.532 75.2881C166.567 75.2881 164.619 74.506 163.535 72.2468C162.909 70.9651 162.739 69.4662 162.739 67.9673C162.739 67.7066 162.756 67.446 162.756 67.1636L163.095 54.8247Z" fill="white"/>
<path d="M146.772 55.9385C147.072 54.7142 147.315 53.4658 147.558 52.2415L151.489 53.1777C151.283 53.97 151.077 54.7382 150.871 55.5304C151.489 55.4104 152.107 55.2904 152.743 55.1223L152.5 59.8757C151.527 60.0438 150.553 60.1878 149.58 60.3318C148.494 64.197 147.315 68.0381 145.949 71.7592L142.317 69.8626C143.553 66.8858 144.62 63.8129 145.556 60.6439C144.826 60.6439 144.096 60.6679 143.384 60.6679L143.272 55.8665C144.189 55.9145 145.106 55.9385 146.023 55.9385C146.286 55.9385 146.529 55.9385 146.772 55.9385ZM154.241 55.8185C156.374 56.4427 158.471 57.2829 160.492 58.3873L159.313 62.9246C158.695 62.4685 157.984 61.9883 157.254 61.9883C156.393 61.9883 156.131 62.8046 156.131 63.7648C156.131 64.6771 156.243 65.5654 156.356 66.4536C157.872 67.2459 159.276 68.3262 160.623 69.5025L158.864 73.6558C158.134 73.0076 157.385 72.3834 156.618 71.7592C156.262 74.544 154.222 75.4803 152.275 75.4803C149.879 75.4803 147.39 74.0159 147.39 70.5348C147.39 69.0224 147.933 67.534 148.869 66.6217C149.786 65.7334 151.04 65.3973 152.163 65.3973C152.294 65.3973 152.425 65.4213 152.556 65.4213C152.5 64.8452 152.462 64.269 152.462 63.6688C152.462 61.9643 152.874 61.004 154.072 60.2118C153.66 60.0678 153.249 59.9477 152.837 59.8517L154.241 55.8185ZM152.893 69.6466C152.537 69.5025 152.182 69.4065 151.807 69.4065C151.302 69.4065 150.572 69.6466 150.572 70.4628C150.572 71.2791 151.358 71.4711 151.863 71.4711C152.406 71.4711 152.949 71.207 152.949 70.3908C152.949 70.1507 152.93 69.9107 152.893 69.6466Z" fill="white"/>
<path d="M114.099 45.7019H124.585V44.8271H116.315V41.6196H124.585V40.3804H130.297V41.6196H139.646V45.4832H141.664V50.0392H139.646V53.5747H130.297V54.4495H140.414V57.0738H130.297V57.9486H141.664V62.2495H114.099V57.9486H124.585V57.0738H115.804V54.4495H124.585V53.5747H116.315V50.7682H124.585V49.8934H114.099V45.7019ZM134.02 44.8271H130.297V45.9934H134.02V44.8271ZM134.02 49.6018H130.297V50.7682H134.02V49.6018ZM116.685 63.1242H138.964V75.8448H133.366V75.1158H122.226V75.8448H116.685V63.1242ZM133.366 66.2588H122.226V67.2794H133.366V66.2588ZM133.366 70.2317H122.226V71.2523H133.366V70.2317Z" fill="white"/>
<path d="M96.1953 68.0446H91.3643V70.5595H86.5332V42.0568H97.9004V65.2745C98.753 63.124 99.0087 60.1353 99.0087 57.7661V41.7288H112.394V71.5801C112.394 74.1315 111.74 75.6623 109.552 75.6623H104.721L103.726 68.8829H106.483C107.193 68.8829 107.364 68.5549 107.364 67.6801V64.6549H103.414C102.362 70.0857 100.43 73.2932 96.6784 76.1362L92.842 70.7782C94.0924 70.0493 95.1439 69.2109 96.1953 68.0446ZM107.364 47.925H103.868V50.2942H107.364V47.925ZM93.2967 48.2895H91.3643V52.0801H93.2967V48.2895ZM107.364 56.1624H103.868V58.6773H107.364V56.1624ZM93.2967 57.6932H91.3643V61.9577H93.2967V57.6932Z" fill="white"/>
<path d="M75.507 48.1437H69.3403V41.7288H84.0892V48.1437H80.4801V54.2306H83.3788V60.354H80.4801V68.2268H84.5155V74.7511H68.8287V68.2268H69.5676V50.8409H74.3134V68.2268H75.507V48.1437ZM58.2004 41.7288H68.0899V46.1026H58.2004V41.7288ZM57.5752 46.9773H68.9708V51.8614H57.5752V46.9773ZM58.2004 52.7362H68.0899V57.3287H58.2004V52.7362ZM58.2004 58.2035H68.0899V62.9054H58.2004V58.2035ZM58.2004 63.7801H68.0899V74.5324H62.9462V75.6623H58.2004V63.7801ZM64.0545 68.2268H62.9462V69.7577H64.0545V68.2268Z" fill="white"/>
<path d="M33.0785 41.8018H45.6393C45.6109 42.5672 45.6109 43.369 45.6109 44.1345C45.6109 48.3625 45.9519 52.2625 46.9181 56.126C48.4243 62.2129 52.0902 66.6232 56.6087 69.0652L53.0848 75.7353C47.316 71.6531 45.3835 68.4821 42.5133 61.0101C40.5525 67.7167 36.9434 72.5643 31.9418 75.7353L28.7021 69.3568C35.7214 64.4363 39.3873 59.2606 40.2399 48.7634H33.0785V41.8018Z" fill="white"/>
<path d="M1.25039 63.853V43.4783H6.10988V62.0306C6.50773 61.8484 6.76349 61.7026 7.16134 61.4839V40.7811H12.3334V68.5549C13.8964 67.4614 15.2605 66.1857 16.5393 64.6185C14.6353 60.5727 13.4701 56.1988 12.6744 51.5699L17.3634 48.7998C17.8749 52.3353 18.6138 55.5428 19.8926 58.7138C21.0862 55.5063 21.5409 52.2989 21.7114 48.7634H13.1007V42.0933H27.1676C27.1392 48.3624 26.5993 54.6316 24.8374 60.354C24.4111 61.7755 23.8427 63.1605 23.1891 64.4362C24.8658 66.5138 26.3719 67.8624 28.3896 69.3203L25.1215 75.5895C23.047 73.8399 21.4272 72.2362 19.7221 69.9035C18.017 72.1633 16.1983 73.9857 14.1806 75.6988L12.3334 72.0175V75.5895H7.16134V67.4979C5.28575 68.81 2.92706 70.0493 0.909377 70.9969L0 64.2175C0.426271 64.1082 0.824123 63.9988 1.25039 63.853Z" fill="white"/>
<g filter="url(#filter0_d_837_2122)">
<path d="M335.825 62.8963H335.049C333.724 62.8963 333.405 62.4624 333.405 61.1606V58.8767L330.961 61.5031C329.75 60.0643 328.7 59.0594 327.055 58.1002L329.865 54.9485C331.326 55.862 332.605 56.7984 333.793 58.0545H337.013V57.5064H333.405V55.4053H340.462V59.9273H336.876V60.4754C336.876 60.6581 336.876 60.9322 337.196 60.9322H337.424C337.79 60.9322 337.858 60.5668 337.881 60.0872L340.644 60.4754C340.553 61.4803 340.347 62.7136 339.137 62.8735H339.685V63.4673H342.289V62.8735C341.352 62.7821 341.124 62.2111 341.124 61.3661V58.0545H344.938V57.5064H341.124V55.4053H348.364V59.9273H344.573V60.4754C344.573 60.7951 344.641 60.9322 345.098 60.9322H345.806C346.148 60.9322 346.24 60.6124 346.263 60.0643L349.163 60.4754C349.049 61.8686 348.615 62.8963 347.039 62.8963H346.103V63.4673H348.364V66.0937H346.103V66.6418H348.935V69.4053H345.829C346.788 69.8164 347.907 70.0676 348.935 70.1818L347.564 72.42H349.392L348.501 76.4167H338.018C336.945 76.4167 335.346 76.3025 334.318 76.0284C333.199 75.7315 332.24 75.0692 331.372 74.2927C330.253 75.389 329.339 76.1655 327.946 76.9191L326.713 72.5113C327.467 72.1916 328.06 71.8947 328.746 71.4379V67.0757H327.055V63.1247H332.856V69.9534C333.268 71.141 333.998 71.7805 335.186 72.1231L333.724 70.2046C334.775 70.0219 335.803 69.7707 336.785 69.4053H333.405V66.6418H335.825V66.0937H333.587V63.4673H335.825V62.8963ZM342.289 65.911H339.685V66.6418H342.289V65.911ZM337.835 72.42H344.824C343.728 71.9403 342.746 71.3922 341.763 70.7527L343.248 69.4053H339.137L340.736 70.7527C339.822 71.3922 338.84 71.9403 337.835 72.42Z" fill="url(#paint0_linear_837_2122)"/>
<path d="M293.4 49.8024C293.545 46.9646 293.979 44.174 295.473 41.7146C298.221 37.1267 303.428 35.7551 308.587 35.7551C313.119 35.7551 317.892 37.0795 320.736 40.7686C322.231 42.7078 322.954 45.1673 322.954 47.5795C322.954 51.0322 321.797 53.3024 319.049 55.3362C322.327 57.7484 323.918 60.7754 323.918 64.843C323.918 69.2889 321.652 73.2619 317.843 75.6267C315.047 77.3767 311.19 77.7551 307.96 77.7551C303.814 77.7551 299.812 76.7619 296.823 73.8295C295.425 72.3632 294.364 70.6132 293.786 68.674C293.159 66.6876 292.966 64.6538 292.918 62.5727H303.621C303.621 66.3565 304.055 69.0997 308.683 69.0997C311.576 69.0997 313.601 67.6335 313.601 64.6538C313.601 61.0592 310.853 60.397 307.767 60.397H304.248V52.12H308.587C310.853 52.12 312.395 50.7957 312.395 48.5727C312.395 46.0659 310.901 44.5524 308.394 44.5524C305.067 44.5524 304.151 47.0119 304.103 49.8024H293.4Z" fill="url(#paint1_linear_837_2122)"/>
<path d="M340.798 37.2206C340.462 37.6154 340.188 37.8974 339.791 38.2132L338.856 36.1603C339.497 35.6301 340.005 35.021 340.422 34.2653L342.546 34.457C342.485 34.6037 342.434 34.7277 342.373 34.8744H348.786V36.634H341.275C341.194 36.7355 341.113 36.8371 341.031 36.9386H348.013V38.3598H340.798V37.2206ZM340.818 42.5108C340.381 42.1724 340.005 41.9017 339.527 41.631L340.615 40.3225H339.039V38.687H347.078C347.048 39.3976 347.028 40.0969 347.028 40.7963C347.028 41.3039 347.058 42.2175 347.17 42.6575C347.19 42.7477 347.261 42.8831 347.353 42.8831C347.607 42.8831 348.105 41.8566 348.247 41.5295L348.958 43.8418C348.572 44.5186 347.952 45.2857 347.17 45.2857C346.621 45.2857 346.103 44.9134 345.808 44.4284C345.198 43.4245 345.147 41.5182 345.127 40.3225H343.592L344.771 41.0557C344.477 41.5972 344.192 42.0032 343.796 42.4657C344.192 42.8379 344.588 43.2102 344.975 43.605L343.531 45.1165C343.145 44.6427 342.729 44.2141 342.292 43.808C341.6 44.3156 340.869 44.7555 340.117 45.1616L339.111 43.3343C339.72 43.1199 340.259 42.8718 340.818 42.5108ZM342.363 41.2475C342.647 40.9655 342.871 40.6609 343.105 40.3225H341.031C341.489 40.6045 341.936 40.9204 342.363 41.2475Z" fill="white"/>
<path d="M332.812 34.2653H334.861V36.3359C334.861 37.8544 335.087 39.1773 335.824 40.4657C336.572 41.7656 337.617 42.6053 338.857 43.2265L337.597 45.2857C335.681 44.0203 334.574 42.7434 333.826 40.3621C333.027 42.7319 331.9 43.9858 330.005 45.2857L328.755 43.284C331.357 42.0762 332.812 39.4879 332.812 36.3474V34.2653Z" fill="white"/>
<path d="M326.918 35.6428V47.5816H332.887L331.051 51.2551L336.561 47.5816H349.418" stroke="white" stroke-linecap="round" stroke-linejoin="round"/>
</g>
<defs>
<filter id="filter0_d_837_2122" x="292.918" y="34.2653" width="59" height="45.4899" filterUnits="userSpaceOnUse" color-interpolation-filters="sRGB">
<feFlood flood-opacity="0" result="BackgroundImageFix"/>
<feColorMatrix in="SourceAlpha" type="matrix" values="0 0 0 0 0 0 0 0 0 0 0 0 0 0 0 0 0 0 127 0" result="hardAlpha"/>
<feOffset dx="2" dy="2"/>
<feComposite in2="hardAlpha" operator="out"/>
<feColorMatrix type="matrix" values="0 0 0 0 0.758333 0 0 0 0 0.126389 0 0 0 0 0.126389 0 0 0 1 0"/>
<feBlend mode="normal" in2="BackgroundImageFix" result="effect1_dropShadow_837_2122"/>
<feBlend mode="normal" in="SourceGraphic" in2="effect1_dropShadow_837_2122" result="shape"/>
</filter>
<linearGradient id="paint0_linear_837_2122" x1="333.62" y1="54.9485" x2="349.261" y2="62.103" gradientUnits="userSpaceOnUse">
<stop stop-color="white"/>
<stop offset="0.525" stop-color="#FAE60F"/>
<stop offset="0.585" stop-color="#E6D737"/>
<stop offset="1" stop-color="#FFEA05"/>
</linearGradient>
<linearGradient id="paint1_linear_837_2122" x1="302.36" y1="35.7551" x2="325.715" y2="43.3941" gradientUnits="userSpaceOnUse">
<stop stop-color="white"/>
<stop offset="0.525" stop-color="#FAE60F"/>
<stop offset="0.585" stop-color="#E6D737"/>
<stop offset="1" stop-color="#FFEA05"/>
</linearGradient>
</defs>
</svg>
