<svg width="343" height="117" viewBox="0 0 343 117" fill="none" xmlns="http://www.w3.org/2000/svg">
<circle cx="172" cy="25.5" r="25.5" fill="#D72B2B"/>
<path d="M181.707 16.8498C181.432 16.7532 181.143 16.7098 180.816 16.7098C180.353 16.7098 179.905 16.8015 179.472 16.8932C179.323 16.9222 179.173 16.956 179.029 16.9801L178.297 17.1056C178.403 16.8449 178.499 16.5746 178.581 16.2995C179.087 14.5713 179.029 12.7515 178.441 11.5688C177.979 10.6034 177.015 10 175.936 10C175.671 10 175.397 10.0386 175.103 10.1159C174.048 10.4151 173.176 11.3178 172.878 12.4088C172.781 12.7708 172.738 13.1135 172.704 13.4176C172.695 13.5142 172.685 13.6059 172.675 13.6783C172.646 13.8666 172.622 14.0693 172.603 14.2721C172.598 14.3155 172.593 14.3638 172.589 14.4072C172.55 14.4458 172.304 14.7113 172.304 14.7113C172.141 14.8899 171.967 15.0975 171.808 15.2858L171.611 15.5175C170.358 17.0139 169.226 18.4669 168.422 20.2095C168.249 20.1661 168.066 20.1419 167.873 20.1419C167.536 20.1419 167.208 20.2047 166.948 20.2578L166.765 20.2916L164.607 20.6584C164.525 20.6729 164.434 20.6874 164.342 20.697C164.01 20.7453 163.629 20.8032 163.278 20.9143C162.584 21.1363 162.011 21.648 161.731 22.29C161.568 22.6569 161.539 23.0141 161.515 23.2748L160.628 31.6596C160.619 31.7417 160.604 31.8334 160.59 31.9299C160.508 32.4609 160.421 33.0691 160.628 33.6436L160.657 33.7256L160.696 33.8029C160.879 34.1794 161.298 34.6766 161.895 34.8841C162.107 34.9614 162.329 35 162.565 35C162.801 35 163.013 34.9614 163.167 34.9324L166.129 34.4256C166.197 34.4159 166.269 34.4063 166.346 34.3918C166.808 34.329 167.386 34.2518 167.858 33.9332C167.993 33.8463 168.152 33.7304 168.321 33.5518C168.446 33.5712 168.576 33.5856 168.711 33.5856C169.082 33.5856 169.434 33.5084 169.742 33.4408C169.848 33.4167 169.963 33.3925 170.069 33.3732L170.961 33.2236C173.292 32.8278 175.594 32.4319 177.825 32.0409C177.955 32.0168 178.08 32.0023 178.21 31.983C178.533 31.9396 178.899 31.8913 179.274 31.7851C180.161 31.5437 180.994 30.8052 181.403 29.9025C181.664 29.3232 181.741 28.6716 181.649 28.0682C182.285 27.262 182.56 26.1614 182.338 25.1574C182.829 24.5347 183.123 23.7333 183.133 22.8982C183.133 22.4783 183.051 22.0776 182.887 21.7156C183.258 21.1074 183.47 20.3881 183.499 19.6158C183.533 18.2931 182.844 17.2311 181.707 16.8498ZM167.406 31.1576C167.358 31.6065 167.329 32.1133 167.155 32.3402C167.073 32.4368 167.02 32.4754 166.953 32.5188C166.722 32.6733 166.201 32.7071 165.85 32.765L162.979 33.2526C162.777 33.2863 162.565 33.3443 162.464 33.296C162.372 33.2719 162.242 33.1319 162.213 33.0643C162.126 32.8229 162.266 32.2051 162.305 31.8285L163.176 23.5692C163.201 23.3375 163.21 23.1106 163.278 22.961C163.364 22.7534 163.576 22.5845 163.793 22.5169C164.101 22.4155 164.544 22.3721 164.891 22.3142L167.049 21.9473C167.382 21.8894 167.82 21.7735 168.051 21.8411C168.162 21.8652 168.273 21.9473 168.311 22.068C168.388 22.2948 168.282 22.8982 168.239 23.3134L167.411 31.1527L167.406 31.1576ZM181.057 21.3198C180.922 21.4453 180.821 21.4839 180.599 21.6432C180.599 21.788 180.753 21.7976 180.835 21.8604C181.134 22.039 181.461 22.3673 181.456 22.8886C181.447 23.5451 181.11 24.1485 180.671 24.4526C180.498 24.5733 180.305 24.6312 180.117 24.7615C180.117 24.9015 180.243 24.9257 180.3 24.9739C180.445 25.0608 180.604 25.2298 180.676 25.4132C180.917 26.0938 180.556 26.9289 180.05 27.3103C179.905 27.4213 179.751 27.4744 179.621 27.5806C179.607 27.7303 179.742 27.7303 179.785 27.793C180.002 28.0247 180.117 28.6667 179.877 29.217C179.694 29.6273 179.274 30.0425 178.846 30.1632C178.417 30.2838 177.979 30.308 177.545 30.3852C175.036 30.8245 172.43 31.2686 169.8 31.7175C169.183 31.8237 168.538 32.0699 168.331 31.7416C168.2 31.5051 168.297 30.9983 168.34 30.5831L168.75 26.7165C168.841 25.8573 168.904 24.9643 169.024 24.1292C169.487 20.8032 171.172 18.6745 172.911 16.5988C173.104 16.3767 173.345 16.0823 173.566 15.8361C173.793 15.5851 174.125 15.2713 174.202 15.0348C174.265 14.8658 174.255 14.6679 174.284 14.4796C174.303 14.2962 174.323 14.1031 174.347 13.9342C174.4 13.5673 174.419 13.1908 174.511 12.8529C174.655 12.3219 175.098 11.8681 175.575 11.733C176.278 11.5447 176.75 11.9067 176.938 12.2977C177.324 13.0749 177.377 14.4748 176.982 15.8264C176.808 16.4009 176.543 16.9753 176.288 17.5111C176.115 17.8731 175.907 18.3172 175.696 18.7131C175.633 18.8434 175.508 19.0365 175.508 19.1041C175.522 19.3165 176.071 19.1958 176.312 19.1572C177.328 18.9834 178.306 18.8096 179.323 18.6358C179.997 18.52 180.744 18.2883 181.167 18.4379C181.582 18.5779 181.851 18.9544 181.832 19.5723C181.808 20.3012 181.524 20.9143 181.071 21.3198H181.057Z" fill="white"/>
<path d="M249.747 79.2972C250.876 79.3757 252.04 79.415 253.204 79.415C258.636 79.415 264.103 79.101 269.465 78.1589L272.428 84.0074C269.606 85.97 266.82 88.0503 264.103 90.1699C264.844 90.0521 265.62 89.9736 266.396 89.9736C272.252 89.9736 276.943 94.6053 276.943 101.239C276.943 105.91 274.791 110.149 271.158 112.504C268.372 114.27 265.232 114.977 262.058 114.977C259.342 114.977 256.484 114.427 254.297 112.543C252.781 111.209 251.899 109.128 251.899 107.009C251.899 102.377 256.132 99.7473 259.871 99.7473C263.539 99.7473 266.714 101.749 268.83 105.007C269.43 104.026 269.783 102.887 269.783 101.71C269.783 97.8239 266.502 96.0969 263.433 96.0969C257.825 96.0969 252.816 101.2 249.006 105.242L244.703 99.0407L259.483 86.127C256.414 86.5588 253.38 86.8728 250.312 87.069L249.747 79.2972ZM263.715 108.461C262.728 106.852 261.246 105.517 259.412 105.517C258.707 105.517 257.79 105.87 257.79 106.852C257.79 108.5 260.47 108.697 261.529 108.697C262.269 108.697 262.975 108.579 263.715 108.461Z" fill="white"/>
<path d="M218.671 84.4391L218.706 77.9626H225.69C225.62 80.9065 225.549 83.8111 225.479 86.7157C227.842 84.2036 230.805 82.3981 234.156 82.3981C238.318 82.3981 242.022 85.3812 242.022 90.2876C242.022 92.3287 241.74 94.3698 241.458 96.4108C241.105 98.9622 240.787 101.435 240.787 103.005C240.787 103.633 240.964 104.261 241.634 104.261C242.622 104.261 243.892 103.084 244.914 102.102L246.431 109.442C244.385 111.326 241.952 112.7 239.235 112.7C235.285 112.7 233.31 109.796 233.31 105.596C233.31 104.614 233.345 103.672 233.451 102.691C233.839 99.8257 234.156 96.9211 234.509 94.0558C234.544 93.31 234.615 92.6034 234.615 91.8577C234.615 90.6801 234.121 90.0521 233.063 90.0521C230.452 90.0521 227.066 94.1343 225.373 96.1753C225.373 99.1584 225.338 102.181 225.338 105.164C225.338 108.383 225.408 111.562 225.444 114.741H218.424L218.495 106.263C217.683 107.598 216.837 108.932 216.026 110.267L211.264 104.732L218.601 94.095V92.0539C216.872 92.3287 215.108 92.5249 213.38 92.7212L212.675 84.7139C214.685 84.7139 216.661 84.6354 218.671 84.4391Z" fill="white"/>
<path d="M189.571 77.3738C195.074 77.9626 200.4 79.2578 205.62 81.1419L203.292 88.2857C198.142 86.1269 192.851 84.6746 187.384 83.8895L189.571 77.3738ZM184.844 84.6746L191.899 86.2446C191.299 88.639 190.77 91.0333 190.276 93.4669C193.204 91.8968 196.449 90.9155 199.694 90.9155C205.797 90.9155 211.299 94.2912 211.299 101.788C211.299 106.302 209.289 110.267 205.62 112.308C201.917 114.349 197.014 114.741 192.922 114.741C190.876 114.741 188.795 114.623 186.749 114.349L185.409 106.302C187.984 106.812 190.559 107.126 193.169 107.126C196.308 107.126 203.821 106.812 203.821 101.827C203.821 98.9228 201.458 98.1771 199.271 98.1771C194.862 98.1771 190.876 100.414 187.666 103.672L182.022 101.867C182.763 96.0967 183.716 90.366 184.844 84.6746Z" fill="white"/>
<path d="M155.99 78.3552L163.398 79.2188C162.516 83.7327 162.092 88.3251 161.846 92.9175C162.48 91.6615 163.151 90.4054 163.786 89.1494L167.031 92.525C164.879 96.4502 163.221 100.65 162.269 105.085L156.449 105.753C155.179 101.435 154.826 96.7642 154.826 92.211C154.826 87.5793 155.249 82.9476 155.99 78.3552ZM172.498 78.5122H180.117C180.505 83.1047 180.752 87.7363 180.752 92.368C180.752 103.555 178.389 110.345 169.077 115.566L162.939 109.874C166.502 108.029 170.205 105.439 171.898 101.317C173.133 98.2557 173.239 94.7231 173.239 91.4652C173.239 87.1083 172.886 82.7906 172.498 78.5122Z" fill="white"/>
<path d="M121.397 99.4724C120.938 100.022 120.55 100.414 120.021 100.925L118.893 89.6202C121.573 86.0091 122.632 81.9662 123.125 77.3738L129.369 77.9233C129.016 81.1419 128.452 84.0465 127.57 87.1474V115.134H121.397V99.4724ZM132.543 77.727H138.928V80.6317H142.455V77.727H149.016V80.6317H152.226V86.9904H149.016V88.8745H152.967V95.1547H128.487V88.8745H132.543V86.9904H129.369V80.6317H132.543V77.727ZM142.455 86.9904H138.928V88.8745H142.455V86.9904ZM150.956 96.293V115.134H144.501V114.035H136.882V115.134H130.498V96.293H150.956ZM144.501 101.121H136.882V102.416H144.501V101.121ZM144.501 106.93H136.882V108.304H144.501V106.93Z" fill="white"/>
<path d="M97.3707 93.9677L101.879 94.5329C101.053 98.7249 100.566 102.988 100.566 107.297C100.566 107.933 100.588 108.569 100.609 109.182C100.82 108.616 101.053 108.028 101.286 107.439L102.514 109.464C101.815 111.23 101.328 113.067 101.011 114.951L97.3495 115.352C96.4818 112.384 96.3125 109.229 96.3125 106.143C96.3125 102.069 96.7146 97.9949 97.3707 93.9677ZM103.572 95.9459C104.969 96.0637 106.387 96.1343 107.783 96.1343C109.984 96.1343 112.164 95.9695 114.323 95.6162L114.238 100.303C112.08 100.609 109.9 100.774 107.699 100.774C106.281 100.774 104.884 100.703 103.466 100.562L103.572 95.9459ZM107.043 106.214C106.725 106.756 106.429 107.392 106.429 108.075C106.429 109.488 108.863 109.346 109.731 109.346C111.593 109.346 113.455 109.111 115.275 108.734L115.106 113.586C113.392 113.868 111.678 114.033 109.963 114.033C106.768 114.033 102.619 113.68 102.619 109.064C102.619 107.745 103.022 106.52 103.593 105.413L107.043 106.214Z" fill="white"/>
<path d="M98.5604 81.613C98.8425 81.613 99.16 81.5737 99.4422 81.5737L99.5833 88.953C98.2429 88.8745 96.9025 88.8745 95.5621 88.8745C94.4334 88.8745 93.3046 88.8745 92.1759 88.9137L90.3769 88.953L90.4827 99.6686C90.518 102.966 90.2358 106.42 88.6485 109.246C86.6732 112.739 83.1106 114.82 79.6185 115.958L74.1512 110.502C76.8672 109.599 79.5833 108.461 81.876 106.616C81.2411 106.812 80.5709 106.891 79.9007 106.891C75.5974 106.891 72.4933 103.319 72.4933 98.5696C72.4933 93.0744 76.3381 90.052 80.9942 90.052C81.7702 90.052 82.5462 90.1305 83.3222 90.2875L83.287 89.11L74.1159 89.3455C71.6468 89.3848 69.1776 89.5025 66.7085 89.738L66.5674 82.0447C67.943 82.084 69.3187 82.1232 70.6944 82.1232C71.7878 82.1232 72.8813 82.084 73.9748 82.084L83.1459 81.927L83.0753 77.6878H90.2711L90.3064 81.8092H92.0701C92.6697 81.77 93.2693 81.77 93.869 81.77C93.093 80.4354 92.2464 79.2186 91.2235 78.1196L93.4457 76.2748C94.5039 77.4131 95.421 78.6691 96.1618 80.0822L94.1864 81.77C95.5974 81.7307 97.0083 81.6915 98.384 81.613C97.6785 80.1999 96.8672 78.9046 95.9148 77.7271L98.2076 76C99.1953 77.2168 100.042 78.5513 100.747 80.0037L98.5604 81.613ZM83.1459 98.4126C83.1459 97.1173 82.3699 95.9398 81.1353 95.9398C79.9007 95.9398 79.0894 97.1173 79.0894 98.4126C79.0894 99.7864 79.936 100.925 81.2058 100.925C82.511 100.925 83.1459 99.7471 83.1459 98.4126Z" fill="white"/>
<path d="M38.5449 78.1195H46.0229V104.771C52.8306 102.534 58.6155 97.6667 62.7777 91.308L67.8218 97.235C60.5555 107.558 50.2204 113.407 38.5449 114.623V78.1195Z" fill="white"/>
<path d="M16.4374 82.5548C15.2381 93.2705 12.5221 104.339 7.08995 113.446L0 109.442C4.903 101.003 7.58378 91.0724 8.88889 81.181L16.4374 82.5548ZM25.1852 80.6315C29.9471 89.7771 33.0159 99.0797 34.6737 109.481L26.9841 112.15C25.5027 102.338 22.9277 92.9957 18.8713 84.0856L25.1852 80.6315ZM30.5115 80.3568L32.9453 78.6689C34.0741 80.0035 34.9559 81.5343 35.6967 83.1829L33.2628 84.8707C32.5573 83.2221 31.605 81.7306 30.5115 80.3568ZM27.2311 82.6726L29.6649 80.9455C30.7584 82.3193 31.6755 83.8501 32.4162 85.4987L29.9471 87.1865C29.2416 85.538 28.3245 84.0071 27.2311 82.6726Z" fill="white"/>
<g filter="url(#filter0_d_525_2994)">
<path d="M337.192 110.308L336.253 114.645L332.194 113.766L333.133 109.429L337.192 110.308ZM340.893 93.2096L337.328 107.66L334.076 106.956L336.834 92.3309L340.893 93.2096Z" fill="white"/>
<path d="M329.111 86.2266V91.5198V113.982H323.119V91.5198H318.831V86.2266H323.119H329.111Z" fill="url(#paint0_linear_525_2994)"/>
<path d="M307.549 108.24C307.549 109.892 308.27 110.718 309.711 110.718C310.197 110.718 310.69 110.718 311.192 110.718C311.678 110.718 312.164 110.718 312.65 110.718C314.107 110.718 314.844 109.892 314.86 108.24C314.86 107.673 314.86 107.123 314.86 106.589C314.86 106.022 314.86 105.471 314.86 104.937C314.86 103.301 314.131 102.476 312.674 102.459C312.188 102.459 311.694 102.459 311.192 102.459C310.707 102.459 310.213 102.459 309.711 102.459C308.253 102.459 307.533 103.285 307.549 104.937C307.549 105.487 307.549 106.038 307.549 106.589C307.549 107.139 307.549 107.69 307.549 108.24ZM308.059 98.9133C309.112 98.9133 310.156 98.9133 311.192 98.9133C312.213 98.9133 313.249 98.9133 314.301 98.9133C317.443 98.9133 319.005 100.444 318.989 103.504C318.989 104.54 318.989 105.568 318.989 106.589C318.989 107.609 318.989 108.629 318.989 109.649C318.989 112.742 317.426 114.288 314.301 114.288C313.265 114.288 312.229 114.288 311.192 114.288C310.156 114.288 309.112 114.288 308.059 114.288C304.95 114.288 303.404 112.742 303.42 109.649C303.42 108.629 303.42 107.609 303.42 106.589C303.42 105.536 303.42 104.508 303.42 103.504C303.42 100.444 304.966 98.9133 308.059 98.9133Z" fill="url(#paint1_linear_525_2994)"/>
<path d="M286.32 94.4198H286.781L296.812 108.507V94.4198H300.917V114.288H296.812H296.715L286.32 100.079V114.288H282.215V94.4198H286.32Z" fill="url(#paint2_linear_525_2994)"/>
<path d="M302.523 80.1654C301.998 80.7218 301.569 81.1193 300.949 81.5645L299.486 78.6709C300.488 77.9237 301.283 77.0652 301.935 76L305.257 76.2703C305.162 76.477 305.083 76.6518 304.987 76.8585H315.019V79.3387H303.27C303.143 79.4818 303.016 79.6248 302.889 79.7679H313.811V81.7711H302.523V80.1654ZM302.555 87.6218C301.871 87.1448 301.283 86.7632 300.536 86.3817L302.237 84.5375H299.772V82.2322H312.348C312.3 83.2338 312.269 84.2195 312.269 85.2052C312.269 85.9206 312.316 87.2084 312.491 87.8284C312.523 87.9556 312.634 88.1464 312.777 88.1464C313.175 88.1464 313.954 86.6996 314.176 86.2386L315.289 89.4978C314.685 90.4517 313.715 91.5328 312.491 91.5328C311.633 91.5328 310.822 91.0081 310.361 90.3245C309.407 88.9095 309.327 86.2227 309.296 84.5375H306.895L308.739 85.5709C308.278 86.334 307.833 86.9063 307.213 87.5582C307.833 88.0828 308.453 88.6075 309.057 89.1639L306.8 91.2943C306.195 90.6266 305.544 90.0224 304.86 89.4501C303.779 90.1655 302.634 90.7855 301.458 91.3579L299.884 88.7823C300.838 88.4803 301.68 88.1305 302.555 87.6218ZM304.971 85.8411C305.416 85.4437 305.766 85.0144 306.132 84.5375H302.889C303.604 84.9349 304.304 85.3801 304.971 85.8411Z" fill="white"/>
<path d="M288.12 76.2385H291.3V79.1002C291.3 81.1988 291.649 83.0272 292.794 84.8078C293.955 86.6043 295.576 87.7649 297.5 88.6234L295.545 91.4692C292.572 89.7204 290.855 87.9557 289.694 84.6647C288.454 87.9398 286.705 89.6727 283.764 91.4692L281.824 88.7029C285.862 87.0336 288.12 83.4564 288.12 79.1161V76.2385Z" fill="white"/>
</g>
<path d="M339.123 83.6987C339.123 84.0667 338.827 84.3627 338.459 84.3627C338.091 84.3627 337.795 84.0667 337.795 83.6987C337.795 83.3307 338.091 83.0347 338.459 83.0347C338.827 83.0347 339.123 83.3307 339.123 83.6987ZM341.363 88.4907L340.987 88.8667L338.459 86.3307L335.931 88.8667L335.555 88.4907L338.091 85.9627L335.555 83.4347L335.931 83.0587L338.459 85.5947L340.987 83.0587L341.363 83.4347L338.827 85.9627L341.363 88.4907ZM336.859 85.9627C336.859 86.3307 336.563 86.6267 336.195 86.6267C335.827 86.6267 335.531 86.3307 335.531 85.9627C335.531 85.5947 335.827 85.2987 336.195 85.2987C336.563 85.2987 336.859 85.5947 336.859 85.9627ZM341.387 85.9627C341.387 86.3307 341.091 86.6267 340.723 86.6267C340.355 86.6267 340.059 86.3307 340.059 85.9627C340.059 85.5947 340.355 85.2987 340.723 85.2987C341.091 85.2987 341.387 85.5947 341.387 85.9627ZM339.123 88.2267C339.123 88.5947 338.827 88.8907 338.459 88.8907C338.091 88.8907 337.795 88.5947 337.795 88.2267C337.795 87.8587 338.091 87.5627 338.459 87.5627C338.827 87.5627 339.123 87.8587 339.123 88.2267Z" fill="white"/>
<path d="M100.038 51.498C100.304 50.602 100.486 49.692 100.556 48.754L102.782 49.3C102.642 50.476 102.376 51.61 101.998 52.73C102.586 53.178 103.174 53.626 103.748 54.116L102.544 56.272C102.054 55.824 101.536 55.376 101.018 54.942C100.332 56.244 99.422 57.434 98.302 58.386L96.356 57.07C97.532 56.118 98.456 54.956 99.17 53.612C98.414 53.136 97.63 52.688 96.762 52.422C96.272 53.458 95.684 54.48 95.012 55.404C94.438 56.174 93.682 56.986 92.632 56.986C91.176 56.986 90.532 55.558 90.532 54.298C90.532 51.862 92.562 49.916 94.97 49.916C95.166 49.916 95.362 49.944 95.558 49.958C95.852 49.272 96.132 48.586 96.398 47.886C95.39 47.998 94.368 48.068 93.346 48.068C93.15 48.068 92.954 48.068 92.758 48.068L92.73 45.828C93.29 45.856 93.864 45.87 94.438 45.87C95.614 45.87 96.804 45.842 97.952 45.576L99.31 46.626C98.764 47.886 98.246 49.16 97.714 50.434C98.512 50.714 99.296 51.078 100.038 51.498ZM94.578 52.016C94.228 52.044 93.892 52.114 93.584 52.31C92.912 52.702 92.45 53.5 92.45 54.27C92.45 54.41 92.464 54.732 92.66 54.732C93.038 54.732 93.766 53.556 94.578 52.016ZM111.504 44.988L113.646 46.01C112.82 47.466 112.022 48.936 111.28 50.434C111.742 50.168 112.246 50.014 112.778 50.014C113.996 50.014 115.004 50.826 115.004 52.086C115.004 52.716 114.892 53.332 114.808 53.934C114.752 54.326 114.668 54.732 114.668 55.124C114.668 55.474 114.878 55.726 115.242 55.726C116.432 55.726 117.146 53.64 117.384 52.702L119.288 53.92C118.644 55.908 117.384 57.994 115.032 57.994C113.38 57.994 112.372 57.028 112.372 55.376C112.372 54.69 112.512 54.004 112.624 53.332C112.652 53.122 112.694 52.926 112.694 52.73C112.694 52.38 112.4 52.17 112.078 52.17C111.644 52.17 111.21 52.422 110.86 52.646C110.3 53.024 109.894 53.542 109.544 54.116C108.83 55.306 108.242 56.72 107.682 57.994L105.624 56.874L111.504 44.988ZM124.468 47.2C124.706 46.458 124.93 45.716 125.126 44.96L127.464 45.422C127.296 45.954 127.114 46.472 126.932 47.004C127.52 46.934 128.094 46.836 128.668 46.724L128.556 48.922C127.758 49.048 126.96 49.146 126.162 49.23C125.322 51.512 124.384 53.766 123.362 55.978L121.178 54.998C122.144 53.192 123.012 51.316 123.712 49.384C123.082 49.412 122.452 49.412 121.822 49.412L121.752 47.172C122.298 47.2 122.844 47.214 123.404 47.214C123.754 47.214 124.118 47.214 124.468 47.2ZM129.802 47.102C131.342 47.452 132.826 47.928 134.268 48.544L133.526 50.644C133.106 50.42 132.63 50.168 132.126 50.168C131.3 50.168 130.908 50.826 130.908 51.582C130.908 52.184 131.006 52.8 131.104 53.388C132.28 53.85 133.26 54.368 134.31 55.082L133.232 57.056C132.616 56.608 131.972 56.202 131.3 55.824C131.23 57.518 129.676 58.204 128.178 58.204C126.554 58.204 124.664 57.476 124.664 55.572C124.664 54.816 125 54.088 125.574 53.598C126.288 52.996 127.254 52.828 128.15 52.828C128.374 52.828 128.598 52.842 128.822 52.87C128.766 52.422 128.724 51.974 128.724 51.526C128.724 50.434 129.13 49.79 130.082 49.286C129.704 49.188 129.312 49.104 128.906 49.034L129.802 47.102ZM129.046 54.914C128.696 54.83 128.346 54.774 127.996 54.774C127.52 54.774 126.68 54.858 126.68 55.502C126.68 56.118 127.506 56.272 127.982 56.272C128.57 56.272 129.088 56.09 129.088 55.404C129.088 55.25 129.074 55.082 129.046 54.914ZM142.402 48.124C145.384 48.11 146.126 49.636 146.126 52.352C146.126 53.64 145.986 55.642 145.3 56.748C144.754 57.602 143.732 57.924 142.766 57.924C142.178 57.924 141.59 57.854 141.002 57.756L141.016 55.544C141.492 55.656 141.982 55.726 142.472 55.726C143.284 55.726 143.522 55.292 143.662 54.564C143.802 53.752 143.858 52.912 143.858 52.086C143.858 51.064 143.76 50.252 142.514 50.252C142.304 50.252 142.094 50.266 141.884 50.28C141.156 53.038 140.134 55.74 138.636 58.176L136.662 56.888C137.922 54.9 138.86 52.772 139.518 50.532C138.636 50.63 137.768 50.77 136.886 50.91L136.634 48.698L140.064 48.306C140.274 47.242 140.456 46.178 140.596 45.1L142.906 45.506C142.766 46.388 142.598 47.256 142.402 48.124ZM146.462 46.808C148.268 48.446 149.36 50.728 149.612 53.15L147.456 53.92C147.246 51.652 146.532 49.594 144.894 47.956L146.462 46.808ZM147.064 46.78L147.848 46.122C148.324 46.556 148.744 47.032 149.122 47.564L148.296 48.222C147.932 47.69 147.526 47.228 147.064 46.78ZM148.198 45.87L148.968 45.198C149.444 45.646 149.864 46.122 150.242 46.654L149.43 47.298C149.066 46.78 148.66 46.318 148.198 45.87ZM155.646 47.48L154.246 48.866C153.658 48.068 152.804 47.2 152.006 46.598L153.476 45.128C154.176 45.632 155.086 46.5 155.646 47.158V46.99H158.026V46.528H155.548V45.352H159.804V48.026H157.438V48.432C157.438 48.6 157.466 48.698 157.676 48.698H158.222C158.446 48.698 158.558 48.6 158.6 48.18L160.098 48.362C160.07 48.684 160.014 49.062 159.86 49.37C159.72 49.65 159.496 49.86 159.118 49.86H156.612C155.94 49.86 155.646 49.552 155.646 48.894V47.48ZM160.336 45.352H164.718V48.026H162.142V48.418C162.142 48.544 162.156 48.698 162.464 48.698H163.346C163.556 48.698 163.668 48.544 163.682 48.166L165.25 48.376C165.208 48.684 165.152 49.062 164.998 49.356C164.844 49.65 164.62 49.86 164.228 49.86H161.372C160.798 49.86 160.392 49.524 160.392 49.034V46.99H162.94V46.528H160.336V45.352ZM164.326 56.048H165.432L164.984 58.022H158.418C157.69 58.022 156.92 57.938 156.22 57.728C155.52 57.518 155.016 57.14 154.554 56.566C153.98 57.238 153.252 57.868 152.496 58.344L151.74 56.16C152.216 55.936 152.748 55.586 153.154 55.25V52.184H151.936V50.21H155.198V54.312C155.45 55.194 155.954 55.614 156.822 55.866L155.898 54.648C156.682 54.494 157.368 54.284 158.096 53.962H155.59V52.478H157.424V51.792H155.814V50.448H157.424V50.084H159.342V50.448H161.274V50.084H163.178V50.448H164.83V51.792H163.178V52.478H165.18V53.962H162.898C163.598 54.27 164.424 54.564 165.166 54.704L164.326 56.048ZM161.274 51.792H159.342V52.478H161.274V51.792ZM163.668 56.048C162.758 55.726 161.806 55.264 161.008 54.732L161.904 53.962H158.894L159.902 54.732C159.16 55.236 158.348 55.656 157.522 55.992C157.9 56.048 158.502 56.048 158.88 56.048H163.668ZM173.104 44.988L175.246 46.01C174.42 47.466 173.622 48.936 172.88 50.434C173.342 50.168 173.846 50.014 174.378 50.014C175.596 50.014 176.604 50.826 176.604 52.086C176.604 52.716 176.492 53.332 176.408 53.934C176.352 54.326 176.268 54.732 176.268 55.124C176.268 55.474 176.478 55.726 176.842 55.726C178.032 55.726 178.746 53.64 178.984 52.702L180.888 53.92C180.244 55.908 178.984 57.994 176.632 57.994C174.98 57.994 173.972 57.028 173.972 55.376C173.972 54.69 174.112 54.004 174.224 53.332C174.252 53.122 174.294 52.926 174.294 52.73C174.294 52.38 174 52.17 173.678 52.17C173.244 52.17 172.81 52.422 172.46 52.646C171.9 53.024 171.494 53.542 171.144 54.116C170.43 55.306 169.842 56.72 169.282 57.994L167.224 56.874L173.104 44.988ZM186.236 47.228C186.404 46.486 186.53 45.73 186.656 44.974L188.98 45.212C188.868 45.828 188.714 46.43 188.588 47.046C189.484 46.934 190.366 46.766 191.234 46.57L191.318 48.754C190.24 48.95 189.162 49.132 188.07 49.244C187.342 52.198 186.418 55.138 185.172 57.938L182.932 57.056C183.562 55.768 184.136 54.438 184.612 53.08C185.032 51.876 185.382 50.658 185.718 49.426C185.046 49.468 184.36 49.468 183.688 49.468C183.576 49.468 183.478 49.468 183.38 49.468L183.352 47.228C183.842 47.242 184.318 47.27 184.794 47.27C185.27 47.27 185.76 47.256 186.236 47.228ZM192.256 47.074L193.026 46.36C193.516 46.78 193.95 47.228 194.356 47.746L193.544 48.446C193.166 47.942 192.732 47.494 192.256 47.074ZM188.588 53.178L190.394 53.92C190.1 54.214 189.68 54.62 189.68 55.082C189.68 55.768 191.234 55.81 191.976 55.81C193.18 55.81 194.132 55.726 195.532 55.516V57.77C194.44 57.882 193.348 57.952 192.242 57.952C191.15 57.952 189.988 57.91 188.98 57.49C188.14 57.14 187.482 56.384 187.482 55.446C187.482 54.564 187.986 53.794 188.588 53.178ZM193.46 45.996L194.216 45.282C194.72 45.702 195.154 46.15 195.546 46.668L194.748 47.368C194.37 46.864 193.936 46.416 193.46 45.996ZM189.414 49.524C190.45 49.37 191.5 49.286 192.564 49.286C193.488 49.286 194.426 49.342 195.35 49.44L195.14 51.568C194.188 51.47 193.236 51.4 192.27 51.4C191.234 51.4 190.198 51.456 189.162 51.596L189.414 49.524ZM204.996 56.02C207.096 55.362 208.874 54.018 208.874 51.624C208.874 49.664 207.838 48.264 205.906 47.9C205.556 50.434 204.996 53.262 203.75 55.516C203.26 56.37 202.546 57.168 201.482 57.168C200.768 57.168 200.152 56.79 199.69 56.272C198.724 55.222 198.36 53.752 198.36 52.366C198.36 48.502 201.244 45.744 205.094 45.744C208.58 45.744 211.24 48.068 211.24 51.652C211.24 53.486 210.498 55.236 209.112 56.454C208.286 57.196 207.25 57.686 206.214 58.022L204.996 56.02ZM203.624 48.012C201.678 48.642 200.586 50.448 200.586 52.436C200.586 53.038 200.656 53.668 200.908 54.214C201.006 54.41 201.16 54.69 201.398 54.69C201.832 54.69 202.252 53.5 202.434 52.968C203.008 51.358 203.358 49.692 203.624 48.012ZM221.866 47.942L221.796 45.324H224.05L224.106 47.816C224.848 47.732 225.576 47.634 226.318 47.508L226.304 49.776C225.59 49.874 224.876 49.944 224.148 50.014L224.204 52.912C224.204 52.996 224.204 53.08 224.218 53.164C225.184 53.542 226.094 54.06 226.934 54.676L226.052 56.748C225.478 56.272 224.862 55.866 224.204 55.502C224.134 57.294 222.916 57.994 221.25 57.994C219.542 57.994 217.806 57.21 217.806 55.264C217.806 53.388 219.318 52.52 221.026 52.52C221.334 52.52 221.656 52.534 221.964 52.59C221.964 52.534 221.964 52.464 221.964 52.408L221.908 50.14C221.474 50.154 221.04 50.168 220.606 50.168C219.71 50.168 218.828 50.126 217.932 50.084L217.946 47.816C218.968 47.914 220.004 47.956 221.04 47.956C221.32 47.956 221.586 47.956 221.866 47.942ZM222.02 54.592C221.684 54.494 221.348 54.438 220.998 54.438C220.494 54.438 219.794 54.606 219.794 55.222C219.794 55.852 220.508 56.062 221.026 56.062C222.034 56.062 222.034 55.404 222.02 54.592ZM214.964 45.38L217.274 45.66C216.77 48.012 216.42 50.406 216.42 52.814C216.42 53.346 216.434 53.878 216.49 54.41C216.658 54.088 216.812 53.766 216.98 53.458L217.834 54.424C217.33 55.474 216.882 56.58 216.784 57.756L214.908 57.938C214.376 56.23 214.222 54.396 214.222 52.604C214.222 50.182 214.516 47.76 214.964 45.38ZM229.916 46.542H241.13V57.546H238.82V56.832H229.804V54.578H238.82V48.796H229.916V46.542ZM246.38 45.31H248.76V55.18C251.686 54.382 254.22 52.562 256.012 50.126L257.622 51.778C254.822 55.418 250.916 57.462 246.38 58.022V45.31Z" fill="white"/>
<line x1="88" y1="68" x2="260" y2="68" stroke="white" stroke-width="2"/>
<defs>
<filter id="filter0_d_525_2994" x="281.824" y="76" width="61.0684" height="40.6448" filterUnits="userSpaceOnUse" color-interpolation-filters="sRGB">
<feFlood flood-opacity="0" result="BackgroundImageFix"/>
<feColorMatrix in="SourceAlpha" type="matrix" values="0 0 0 0 0 0 0 0 0 0 0 0 0 0 0 0 0 0 127 0" result="hardAlpha"/>
<feOffset dx="2" dy="2"/>
<feComposite in2="hardAlpha" operator="out"/>
<feColorMatrix type="matrix" values="0 0 0 0 0.758333 0 0 0 0 0.126389 0 0 0 0 0.126389 0 0 0 1 0"/>
<feBlend mode="normal" in2="BackgroundImageFix" result="effect1_dropShadow_525_2994"/>
<feBlend mode="normal" in="SourceGraphic" in2="effect1_dropShadow_525_2994" result="shape"/>
</filter>
<linearGradient id="paint0_linear_525_2994" x1="321.962" y1="86.2266" x2="330.31" y2="87.5967" gradientUnits="userSpaceOnUse">
<stop stop-color="white"/>
<stop offset="0.525" stop-color="#FAE60F"/>
<stop offset="0.585" stop-color="#E6D737"/>
<stop offset="1" stop-color="#FFEA05"/>
</linearGradient>
<linearGradient id="paint1_linear_525_2994" x1="308.162" y1="98.9133" x2="318.97" y2="103.763" gradientUnits="userSpaceOnUse">
<stop stop-color="white"/>
<stop offset="0.525" stop-color="#FAE60F"/>
<stop offset="0.585" stop-color="#E6D737"/>
<stop offset="1" stop-color="#FFEA05"/>
</linearGradient>
<linearGradient id="paint2_linear_525_2994" x1="287.911" y1="94.4198" x2="301.197" y2="99.9617" gradientUnits="userSpaceOnUse">
<stop stop-color="white"/>
<stop offset="0.525" stop-color="#FAE60F"/>
<stop offset="0.585" stop-color="#E6D737"/>
<stop offset="1" stop-color="#FFEA05"/>
</linearGradient>
</defs>
</svg>
