<svg width="341" height="117" viewBox="0 0 341 117" fill="none" xmlns="http://www.w3.org/2000/svg">
<circle cx="170" cy="25.5" r="25.5" fill="#D72B2B"/>
<path d="M179.707 16.8498C179.432 16.7532 179.143 16.7098 178.816 16.7098C178.353 16.7098 177.905 16.8015 177.472 16.8932C177.323 16.9222 177.173 16.956 177.029 16.9801L176.297 17.1056C176.403 16.8449 176.499 16.5746 176.581 16.2995C177.087 14.5713 177.029 12.7515 176.441 11.5688C175.979 10.6034 175.015 10 173.936 10C173.671 10 173.397 10.0386 173.103 10.1159C172.048 10.4151 171.176 11.3178 170.878 12.4088C170.781 12.7708 170.738 13.1135 170.704 13.4176C170.695 13.5142 170.685 13.6059 170.675 13.6783C170.646 13.8666 170.622 14.0693 170.603 14.2721C170.598 14.3155 170.593 14.3638 170.589 14.4072C170.55 14.4458 170.304 14.7113 170.304 14.7113C170.141 14.8899 169.967 15.0975 169.808 15.2858L169.611 15.5175C168.358 17.0139 167.226 18.4669 166.422 20.2095C166.249 20.1661 166.066 20.1419 165.873 20.1419C165.536 20.1419 165.208 20.2047 164.948 20.2578L164.765 20.2916L162.607 20.6584C162.525 20.6729 162.434 20.6874 162.342 20.697C162.01 20.7453 161.629 20.8032 161.278 20.9143C160.584 21.1363 160.011 21.648 159.731 22.29C159.568 22.6569 159.539 23.0141 159.515 23.2748L158.628 31.6596C158.619 31.7417 158.604 31.8334 158.59 31.9299C158.508 32.4609 158.421 33.0691 158.628 33.6436L158.657 33.7256L158.696 33.8029C158.879 34.1794 159.298 34.6766 159.895 34.8841C160.107 34.9614 160.329 35 160.565 35C160.801 35 161.013 34.9614 161.167 34.9324L164.129 34.4256C164.197 34.4159 164.269 34.4063 164.346 34.3918C164.808 34.329 165.386 34.2518 165.858 33.9332C165.993 33.8463 166.152 33.7304 166.321 33.5518C166.446 33.5712 166.576 33.5856 166.711 33.5856C167.082 33.5856 167.434 33.5084 167.742 33.4408C167.848 33.4167 167.963 33.3925 168.069 33.3732L168.961 33.2236C171.292 32.8278 173.594 32.4319 175.825 32.0409C175.955 32.0168 176.08 32.0023 176.21 31.983C176.533 31.9396 176.899 31.8913 177.274 31.7851C178.161 31.5437 178.994 30.8052 179.403 29.9025C179.664 29.3232 179.741 28.6716 179.649 28.0682C180.285 27.262 180.56 26.1614 180.338 25.1574C180.829 24.5347 181.123 23.7333 181.133 22.8982C181.133 22.4783 181.051 22.0776 180.887 21.7156C181.258 21.1074 181.47 20.3881 181.499 19.6158C181.533 18.2931 180.844 17.2311 179.707 16.8498ZM165.406 31.1576C165.358 31.6065 165.329 32.1133 165.155 32.3402C165.073 32.4368 165.02 32.4754 164.953 32.5188C164.722 32.6733 164.201 32.7071 163.85 32.765L160.979 33.2526C160.777 33.2863 160.565 33.3443 160.464 33.296C160.372 33.2719 160.242 33.1319 160.213 33.0643C160.126 32.8229 160.266 32.2051 160.305 31.8285L161.176 23.5692C161.201 23.3375 161.21 23.1106 161.278 22.961C161.364 22.7534 161.576 22.5845 161.793 22.5169C162.101 22.4155 162.544 22.3721 162.891 22.3142L165.049 21.9473C165.382 21.8894 165.82 21.7735 166.051 21.8411C166.162 21.8652 166.273 21.9473 166.311 22.068C166.388 22.2948 166.282 22.8982 166.239 23.3134L165.411 31.1527L165.406 31.1576ZM179.057 21.3198C178.922 21.4453 178.821 21.4839 178.599 21.6432C178.599 21.788 178.753 21.7976 178.835 21.8604C179.134 22.039 179.461 22.3673 179.456 22.8886C179.447 23.5451 179.11 24.1485 178.671 24.4526C178.498 24.5733 178.305 24.6312 178.117 24.7615C178.117 24.9015 178.243 24.9257 178.3 24.9739C178.445 25.0608 178.604 25.2298 178.676 25.4132C178.917 26.0938 178.556 26.9289 178.05 27.3103C177.905 27.4213 177.751 27.4744 177.621 27.5806C177.607 27.7303 177.742 27.7303 177.785 27.793C178.002 28.0247 178.117 28.6667 177.877 29.217C177.694 29.6273 177.274 30.0425 176.846 30.1632C176.417 30.2838 175.979 30.308 175.545 30.3852C173.036 30.8245 170.43 31.2686 167.8 31.7175C167.183 31.8237 166.538 32.0699 166.331 31.7416C166.2 31.5051 166.297 30.9983 166.34 30.5831L166.75 26.7165C166.841 25.8573 166.904 24.9643 167.024 24.1292C167.487 20.8032 169.172 18.6745 170.911 16.5988C171.104 16.3767 171.345 16.0823 171.566 15.8361C171.793 15.5851 172.125 15.2713 172.202 15.0348C172.265 14.8658 172.255 14.6679 172.284 14.4796C172.303 14.2962 172.323 14.1031 172.347 13.9342C172.4 13.5673 172.419 13.1908 172.511 12.8529C172.655 12.3219 173.098 11.8681 173.575 11.733C174.278 11.5447 174.75 11.9067 174.938 12.2977C175.324 13.0749 175.377 14.4748 174.982 15.8264C174.808 16.4009 174.543 16.9753 174.288 17.5111C174.115 17.8731 173.907 18.3172 173.696 18.7131C173.633 18.8434 173.508 19.0365 173.508 19.1041C173.522 19.3165 174.071 19.1958 174.312 19.1572C175.328 18.9834 176.306 18.8096 177.323 18.6358C177.997 18.52 178.744 18.2883 179.167 18.4379C179.582 18.5779 179.851 18.9544 179.832 19.5723C179.808 20.3012 179.524 20.9143 179.071 21.3198H179.057Z" fill="white"/>
<path d="M100.022 49.498C100.288 48.602 100.47 47.692 100.54 46.754L102.766 47.3C102.626 48.476 102.36 49.61 101.982 50.73C102.57 51.178 103.158 51.626 103.732 52.116L102.528 54.272C102.038 53.824 101.52 53.376 101.002 52.942C100.316 54.244 99.4064 55.434 98.2864 56.386L96.3404 55.07C97.5164 54.118 98.4404 52.956 99.1544 51.612C98.3984 51.136 97.6144 50.688 96.7464 50.422C96.2564 51.458 95.6684 52.48 94.9964 53.404C94.4224 54.174 93.6664 54.986 92.6164 54.986C91.1604 54.986 90.5164 53.558 90.5164 52.298C90.5164 49.862 92.5464 47.916 94.9544 47.916C95.1504 47.916 95.3464 47.944 95.5424 47.958C95.8364 47.272 96.1164 46.586 96.3824 45.886C95.3744 45.998 94.3524 46.068 93.3304 46.068C93.1344 46.068 92.9384 46.068 92.7424 46.068L92.7144 43.828C93.2744 43.856 93.8484 43.87 94.4224 43.87C95.5984 43.87 96.7884 43.842 97.9364 43.576L99.2944 44.626C98.7484 45.886 98.2304 47.16 97.6984 48.434C98.4964 48.714 99.2804 49.078 100.022 49.498ZM94.5624 50.016C94.2124 50.044 93.8764 50.114 93.5684 50.31C92.8964 50.702 92.4344 51.5 92.4344 52.27C92.4344 52.41 92.4484 52.732 92.6444 52.732C93.0224 52.732 93.7504 51.556 94.5624 50.016ZM111.488 42.988L113.63 44.01C112.804 45.466 112.006 46.936 111.264 48.434C111.726 48.168 112.23 48.014 112.762 48.014C113.98 48.014 114.988 48.826 114.988 50.086C114.988 50.716 114.876 51.332 114.792 51.934C114.736 52.326 114.652 52.732 114.652 53.124C114.652 53.474 114.862 53.726 115.226 53.726C116.416 53.726 117.13 51.64 117.368 50.702L119.272 51.92C118.628 53.908 117.368 55.994 115.016 55.994C113.364 55.994 112.356 55.028 112.356 53.376C112.356 52.69 112.496 52.004 112.608 51.332C112.636 51.122 112.678 50.926 112.678 50.73C112.678 50.38 112.384 50.17 112.062 50.17C111.628 50.17 111.194 50.422 110.844 50.646C110.284 51.024 109.878 51.542 109.528 52.116C108.814 53.306 108.226 54.72 107.666 55.994L105.608 54.874L111.488 42.988ZM124.452 45.2C124.69 44.458 124.914 43.716 125.11 42.96L127.448 43.422C127.28 43.954 127.098 44.472 126.916 45.004C127.504 44.934 128.078 44.836 128.652 44.724L128.54 46.922C127.742 47.048 126.944 47.146 126.146 47.23C125.306 49.512 124.368 51.766 123.346 53.978L121.162 52.998C122.128 51.192 122.996 49.316 123.696 47.384C123.066 47.412 122.436 47.412 121.806 47.412L121.736 45.172C122.282 45.2 122.828 45.214 123.388 45.214C123.738 45.214 124.102 45.214 124.452 45.2ZM129.786 45.102C131.326 45.452 132.81 45.928 134.252 46.544L133.51 48.644C133.09 48.42 132.614 48.168 132.11 48.168C131.284 48.168 130.892 48.826 130.892 49.582C130.892 50.184 130.99 50.8 131.088 51.388C132.264 51.85 133.244 52.368 134.294 53.082L133.216 55.056C132.6 54.608 131.956 54.202 131.284 53.824C131.214 55.518 129.66 56.204 128.162 56.204C126.538 56.204 124.648 55.476 124.648 53.572C124.648 52.816 124.984 52.088 125.558 51.598C126.272 50.996 127.238 50.828 128.134 50.828C128.358 50.828 128.582 50.842 128.806 50.87C128.75 50.422 128.708 49.974 128.708 49.526C128.708 48.434 129.114 47.79 130.066 47.286C129.688 47.188 129.296 47.104 128.89 47.034L129.786 45.102ZM129.03 52.914C128.68 52.83 128.33 52.774 127.98 52.774C127.504 52.774 126.664 52.858 126.664 53.502C126.664 54.118 127.49 54.272 127.966 54.272C128.554 54.272 129.072 54.09 129.072 53.404C129.072 53.25 129.058 53.082 129.03 52.914ZM142.386 46.124C145.368 46.11 146.11 47.636 146.11 50.352C146.11 51.64 145.97 53.642 145.284 54.748C144.738 55.602 143.716 55.924 142.75 55.924C142.162 55.924 141.574 55.854 140.986 55.756L141 53.544C141.476 53.656 141.966 53.726 142.456 53.726C143.268 53.726 143.506 53.292 143.646 52.564C143.786 51.752 143.842 50.912 143.842 50.086C143.842 49.064 143.744 48.252 142.498 48.252C142.288 48.252 142.078 48.266 141.868 48.28C141.14 51.038 140.118 53.74 138.62 56.176L136.646 54.888C137.906 52.9 138.844 50.772 139.502 48.532C138.62 48.63 137.752 48.77 136.87 48.91L136.618 46.698L140.048 46.306C140.258 45.242 140.44 44.178 140.58 43.1L142.89 43.506C142.75 44.388 142.582 45.256 142.386 46.124ZM146.446 44.808C148.252 46.446 149.344 48.728 149.596 51.15L147.44 51.92C147.23 49.652 146.516 47.594 144.878 45.956L146.446 44.808ZM147.048 44.78L147.832 44.122C148.308 44.556 148.728 45.032 149.106 45.564L148.28 46.222C147.916 45.69 147.51 45.228 147.048 44.78ZM148.182 43.87L148.952 43.198C149.428 43.646 149.848 44.122 150.226 44.654L149.414 45.298C149.05 44.78 148.644 44.318 148.182 43.87ZM155.63 45.48L154.23 46.866C153.642 46.068 152.788 45.2 151.99 44.598L153.46 43.128C154.16 43.632 155.07 44.5 155.63 45.158V44.99H158.01V44.528H155.532V43.352H159.788V46.026H157.422V46.432C157.422 46.6 157.45 46.698 157.66 46.698H158.206C158.43 46.698 158.542 46.6 158.584 46.18L160.082 46.362C160.054 46.684 159.998 47.062 159.844 47.37C159.704 47.65 159.48 47.86 159.102 47.86H156.596C155.924 47.86 155.63 47.552 155.63 46.894V45.48ZM160.32 43.352H164.702V46.026H162.126V46.418C162.126 46.544 162.14 46.698 162.448 46.698H163.33C163.54 46.698 163.652 46.544 163.666 46.166L165.234 46.376C165.192 46.684 165.136 47.062 164.982 47.356C164.828 47.65 164.604 47.86 164.212 47.86H161.356C160.782 47.86 160.376 47.524 160.376 47.034V44.99H162.924V44.528H160.32V43.352ZM164.31 54.048H165.416L164.968 56.022H158.402C157.674 56.022 156.904 55.938 156.204 55.728C155.504 55.518 155 55.14 154.538 54.566C153.964 55.238 153.236 55.868 152.48 56.344L151.724 54.16C152.2 53.936 152.732 53.586 153.138 53.25V50.184H151.92V48.21H155.182V52.312C155.434 53.194 155.938 53.614 156.806 53.866L155.882 52.648C156.666 52.494 157.352 52.284 158.08 51.962H155.574V50.478H157.408V49.792H155.798V48.448H157.408V48.084H159.326V48.448H161.258V48.084H163.162V48.448H164.814V49.792H163.162V50.478H165.164V51.962H162.882C163.582 52.27 164.408 52.564 165.15 52.704L164.31 54.048ZM161.258 49.792H159.326V50.478H161.258V49.792ZM163.652 54.048C162.742 53.726 161.79 53.264 160.992 52.732L161.888 51.962H158.878L159.886 52.732C159.144 53.236 158.332 53.656 157.506 53.992C157.884 54.048 158.486 54.048 158.864 54.048H163.652ZM173.088 42.988L175.23 44.01C174.404 45.466 173.606 46.936 172.864 48.434C173.326 48.168 173.83 48.014 174.362 48.014C175.58 48.014 176.588 48.826 176.588 50.086C176.588 50.716 176.476 51.332 176.392 51.934C176.336 52.326 176.252 52.732 176.252 53.124C176.252 53.474 176.462 53.726 176.826 53.726C178.016 53.726 178.73 51.64 178.968 50.702L180.872 51.92C180.228 53.908 178.968 55.994 176.616 55.994C174.964 55.994 173.956 55.028 173.956 53.376C173.956 52.69 174.096 52.004 174.208 51.332C174.236 51.122 174.278 50.926 174.278 50.73C174.278 50.38 173.984 50.17 173.662 50.17C173.228 50.17 172.794 50.422 172.444 50.646C171.884 51.024 171.478 51.542 171.128 52.116C170.414 53.306 169.826 54.72 169.266 55.994L167.208 54.874L173.088 42.988ZM186.22 45.228C186.388 44.486 186.514 43.73 186.64 42.974L188.964 43.212C188.852 43.828 188.698 44.43 188.572 45.046C189.468 44.934 190.35 44.766 191.218 44.57L191.302 46.754C190.224 46.95 189.146 47.132 188.054 47.244C187.326 50.198 186.402 53.138 185.156 55.938L182.916 55.056C183.546 53.768 184.12 52.438 184.596 51.08C185.016 49.876 185.366 48.658 185.702 47.426C185.03 47.468 184.344 47.468 183.672 47.468C183.56 47.468 183.462 47.468 183.364 47.468L183.336 45.228C183.826 45.242 184.302 45.27 184.778 45.27C185.254 45.27 185.744 45.256 186.22 45.228ZM192.24 45.074L193.01 44.36C193.5 44.78 193.934 45.228 194.34 45.746L193.528 46.446C193.15 45.942 192.716 45.494 192.24 45.074ZM188.572 51.178L190.378 51.92C190.084 52.214 189.664 52.62 189.664 53.082C189.664 53.768 191.218 53.81 191.96 53.81C193.164 53.81 194.116 53.726 195.516 53.516V55.77C194.424 55.882 193.332 55.952 192.226 55.952C191.134 55.952 189.972 55.91 188.964 55.49C188.124 55.14 187.466 54.384 187.466 53.446C187.466 52.564 187.97 51.794 188.572 51.178ZM193.444 43.996L194.2 43.282C194.704 43.702 195.138 44.15 195.53 44.668L194.732 45.368C194.354 44.864 193.92 44.416 193.444 43.996ZM189.398 47.524C190.434 47.37 191.484 47.286 192.548 47.286C193.472 47.286 194.41 47.342 195.334 47.44L195.124 49.568C194.172 49.47 193.22 49.4 192.254 49.4C191.218 49.4 190.182 49.456 189.146 49.596L189.398 47.524ZM204.98 54.02C207.08 53.362 208.858 52.018 208.858 49.624C208.858 47.664 207.822 46.264 205.89 45.9C205.54 48.434 204.98 51.262 203.734 53.516C203.244 54.37 202.53 55.168 201.466 55.168C200.752 55.168 200.136 54.79 199.674 54.272C198.708 53.222 198.344 51.752 198.344 50.366C198.344 46.502 201.228 43.744 205.078 43.744C208.564 43.744 211.224 46.068 211.224 49.652C211.224 51.486 210.482 53.236 209.096 54.454C208.27 55.196 207.234 55.686 206.198 56.022L204.98 54.02ZM203.608 46.012C201.662 46.642 200.57 48.448 200.57 50.436C200.57 51.038 200.64 51.668 200.892 52.214C200.99 52.41 201.144 52.69 201.382 52.69C201.816 52.69 202.236 51.5 202.418 50.968C202.992 49.358 203.342 47.692 203.608 46.012ZM221.85 45.942L221.78 43.324H224.034L224.09 45.816C224.832 45.732 225.56 45.634 226.302 45.508L226.288 47.776C225.574 47.874 224.86 47.944 224.132 48.014L224.188 50.912C224.188 50.996 224.188 51.08 224.202 51.164C225.168 51.542 226.078 52.06 226.918 52.676L226.036 54.748C225.462 54.272 224.846 53.866 224.188 53.502C224.118 55.294 222.9 55.994 221.234 55.994C219.526 55.994 217.79 55.21 217.79 53.264C217.79 51.388 219.302 50.52 221.01 50.52C221.318 50.52 221.64 50.534 221.948 50.59C221.948 50.534 221.948 50.464 221.948 50.408L221.892 48.14C221.458 48.154 221.024 48.168 220.59 48.168C219.694 48.168 218.812 48.126 217.916 48.084L217.93 45.816C218.952 45.914 219.988 45.956 221.024 45.956C221.304 45.956 221.57 45.956 221.85 45.942ZM222.004 52.592C221.668 52.494 221.332 52.438 220.982 52.438C220.478 52.438 219.778 52.606 219.778 53.222C219.778 53.852 220.492 54.062 221.01 54.062C222.018 54.062 222.018 53.404 222.004 52.592ZM214.948 43.38L217.258 43.66C216.754 46.012 216.404 48.406 216.404 50.814C216.404 51.346 216.418 51.878 216.474 52.41C216.642 52.088 216.796 51.766 216.964 51.458L217.818 52.424C217.314 53.474 216.866 54.58 216.768 55.756L214.892 55.938C214.36 54.23 214.206 52.396 214.206 50.604C214.206 48.182 214.5 45.76 214.948 43.38ZM229.9 44.542H241.114V55.546H238.804V54.832H229.788V52.578H238.804V46.796H229.9V44.542ZM246.364 43.31H248.744V53.18C251.67 52.382 254.204 50.562 255.996 48.126L257.606 49.778C254.806 53.418 250.9 55.462 246.364 56.022V43.31Z" fill="white"/>
<line x1="87.9844" y1="66" x2="259.984" y2="66" stroke="white" stroke-width="2"/>
<g filter="url(#filter0_d_680_606)">
<path d="M334.782 110.095L333.843 114.433L329.783 113.555L330.722 109.217L334.782 110.095ZM338.484 92.9937L334.919 107.447L331.665 106.743L334.424 92.1149L338.484 92.9937Z" fill="white"/>
<path d="M326.699 86.0093V91.3036V113.77H320.707V91.3036H316.417V86.0093H320.707H326.699Z" fill="url(#paint0_linear_680_606)"/>
<path d="M305.132 108.027C305.132 109.679 305.853 110.505 307.295 110.505C307.78 110.505 308.274 110.505 308.777 110.505C309.262 110.505 309.748 110.505 310.234 110.505C311.692 110.505 312.429 109.679 312.445 108.027C312.445 107.461 312.445 106.91 312.445 106.375C312.445 105.809 312.445 105.258 312.445 104.723C312.445 103.088 311.716 102.262 310.258 102.246C309.773 102.246 309.279 102.246 308.777 102.246C308.291 102.246 307.797 102.246 307.295 102.246C305.837 102.246 305.116 103.072 305.132 104.723C305.132 105.274 305.132 105.825 305.132 106.375C305.132 106.926 305.132 107.477 305.132 108.027ZM305.643 98.6987C306.695 98.6987 307.74 98.6987 308.777 98.6987C309.797 98.6987 310.833 98.6987 311.886 98.6987C315.028 98.6987 316.591 100.229 316.575 103.29C316.575 104.327 316.575 105.355 316.575 106.375C316.575 107.396 316.575 108.416 316.575 109.436C316.575 112.53 315.012 114.077 311.886 114.077C310.85 114.077 309.813 114.077 308.777 114.077C307.74 114.077 306.695 114.077 305.643 114.077C302.533 114.077 300.986 112.53 301.003 109.436C301.003 108.416 301.003 107.396 301.003 106.375C301.003 105.323 301.003 104.294 301.003 103.29C301.003 100.229 302.549 98.6987 305.643 98.6987Z" fill="url(#paint1_linear_680_606)"/>
<path d="M283.899 94.2042H284.36L294.393 108.295V94.2042H298.499V114.076H294.393H294.296L283.899 99.8646V114.076H279.793V94.2042H283.899Z" fill="url(#paint2_linear_680_606)"/>
<path d="M301.105 79.9468C300.58 80.5033 300.151 80.9009 299.531 81.3461L298.068 78.452C299.07 77.7046 299.865 76.8459 300.517 75.7805L303.84 76.0508C303.745 76.2576 303.665 76.4325 303.57 76.6392H313.604V79.1199H301.852C301.725 79.263 301.598 79.4061 301.471 79.5492H312.395V81.5529H301.105V79.9468ZM301.137 87.4047C300.453 86.9276 299.865 86.546 299.117 86.1644L300.819 84.3198H298.354V82.014H310.932C310.885 83.0158 310.853 84.0017 310.853 84.9876C310.853 85.7032 310.901 86.9912 311.075 87.6114C311.107 87.7386 311.219 87.9294 311.362 87.9294C311.759 87.9294 312.538 86.4824 312.761 86.0212L313.874 89.2811C313.27 90.2352 312.3 91.3165 311.075 91.3165C310.217 91.3165 309.406 90.7918 308.945 90.108C307.991 88.6927 307.911 86.0053 307.879 84.3198H305.478L307.323 85.3534C306.862 86.1167 306.416 86.6891 305.796 87.3411C306.416 87.8658 307.036 88.3906 307.641 88.9472L305.383 91.078C304.778 90.4101 304.126 89.8059 303.443 89.2334C302.361 89.949 301.216 90.5691 300.04 91.1416L298.465 88.5655C299.42 88.2634 300.262 87.9135 301.137 87.4047ZM303.554 85.6237C303.999 85.2262 304.349 84.7968 304.715 84.3198H301.471C302.186 84.7173 302.886 85.1625 303.554 85.6237Z" fill="white"/>
<path d="M286.699 76.0191H289.88V78.8814C289.88 80.9804 290.23 82.8091 291.375 84.5901C292.535 86.387 294.157 87.5479 296.081 88.4066L294.126 91.253C291.152 89.5038 289.435 87.7387 288.274 84.447C287.033 87.7228 285.284 89.4561 282.342 91.253L280.402 88.4861C284.441 86.8164 286.699 83.2385 286.699 78.8973V76.0191Z" fill="white"/>
</g>
<path d="M336.663 83.6965C336.663 84.0645 336.367 84.3605 335.999 84.3605C335.631 84.3605 335.335 84.0645 335.335 83.6965C335.335 83.3285 335.631 83.0325 335.999 83.0325C336.367 83.0325 336.663 83.3285 336.663 83.6965ZM338.903 88.4885L338.527 88.8645L335.999 86.3285L333.471 88.8645L333.095 88.4885L335.631 85.9605L333.095 83.4325L333.471 83.0565L335.999 85.5925L338.527 83.0565L338.903 83.4325L336.367 85.9605L338.903 88.4885ZM334.399 85.9605C334.399 86.3285 334.103 86.6245 333.735 86.6245C333.367 86.6245 333.071 86.3285 333.071 85.9605C333.071 85.5925 333.367 85.2965 333.735 85.2965C334.103 85.2965 334.399 85.5925 334.399 85.9605ZM338.927 85.9605C338.927 86.3285 338.631 86.6245 338.263 86.6245C337.895 86.6245 337.599 86.3285 337.599 85.9605C337.599 85.5925 337.895 85.2965 338.263 85.2965C338.631 85.2965 338.927 85.5925 338.927 85.9605ZM336.663 88.2245C336.663 88.5925 336.367 88.8885 335.999 88.8885C335.631 88.8885 335.335 88.5925 335.335 88.2245C335.335 87.8565 335.631 87.5605 335.999 87.5605C336.367 87.5605 336.663 87.8565 336.663 88.2245Z" fill="white"/>
<path d="M241.871 78.8633C243.129 78.9441 244.427 78.9846 245.724 78.9846C251.778 78.9846 257.872 78.6611 263.847 77.6906L267.149 83.7158C264.004 85.7377 260.899 87.8809 257.872 90.0646C258.697 89.9433 259.562 89.8624 260.427 89.8624C266.953 89.8624 272.181 94.6341 272.181 101.468C272.181 106.28 269.783 110.648 265.734 113.074C262.628 114.894 259.13 115.621 255.591 115.621C252.564 115.621 249.38 115.055 246.943 113.114C245.252 111.739 244.269 109.596 244.269 107.413C244.269 102.641 248.987 99.9315 253.154 99.9315C257.243 99.9315 260.781 101.994 263.14 105.35C263.808 104.339 264.201 103.167 264.201 101.953C264.201 97.95 260.545 96.1707 257.125 96.1707C250.874 96.1707 245.291 101.428 241.046 105.593L236.25 99.2036L252.722 85.8995C249.301 86.3443 245.92 86.6678 242.5 86.87L241.871 78.8633ZM257.439 108.909C256.338 107.251 254.687 105.876 252.643 105.876C251.857 105.876 250.835 106.24 250.835 107.251C250.835 108.949 253.822 109.151 255.002 109.151C255.827 109.151 256.614 109.03 257.439 108.909Z" fill="white"/>
<path d="M221.646 86.6273C221.921 87.153 222.157 87.6383 222.432 88.164C225.695 87.4361 228.919 86.5464 231.986 85.1715L234.108 91.8438C231.435 92.7335 228.683 93.4613 225.931 94.0679C227.504 96.6155 229.273 99.0418 231.121 101.387L226.364 105.431C223.101 104.016 219.72 103.247 216.182 103.247C214.57 103.247 209.459 103.247 209.459 105.674C209.459 107.776 213.98 107.857 215.985 107.857C220.428 107.857 224.319 107.412 229.037 106.442L228.919 114.368C225.184 114.974 221.45 115.379 217.676 115.379C213.784 115.379 209.616 115.177 206 113.478C203.248 112.144 201.361 109.273 201.361 106.118C201.361 98.88 209.263 97.303 215.317 97.303C216.732 97.303 218.147 97.4243 219.523 97.586C219.052 96.8581 218.619 96.1707 218.147 95.4428C211.936 96.3729 205.646 96.8986 199.395 97.1816L198.688 90.3072C204.034 90.3476 209.341 90.105 214.609 89.458C214.334 88.9323 214.059 88.4066 213.784 87.8809C209.381 88.4066 204.978 88.5683 200.575 88.6088L199.749 81.7747C200.81 81.7747 201.872 81.8152 202.894 81.8152C205.489 81.8152 208.083 81.6939 210.639 81.4917C210.128 80.3998 209.616 79.2676 209.105 78.1353L217.125 76.4774C217.636 77.8118 218.187 79.1463 218.737 80.4807C222.039 79.8742 225.302 79.0654 228.369 77.7309L230.374 84.0797C227.543 85.2524 224.634 86.0612 221.646 86.6273Z" fill="white"/>
<path d="M189.803 90.469L192.476 88.6493C193.773 90.0646 194.796 91.6013 195.66 93.2997L192.948 95.079C192.122 93.3806 191.061 91.8439 189.803 90.469ZM185.911 93.0571L188.584 91.2373C189.842 92.6527 190.904 94.1893 191.768 95.8473L189.056 97.667C188.23 95.9686 187.13 94.4319 185.911 93.0571ZM158.667 81.4109C161.498 81.3705 164.367 81.3705 167.198 81.1683L194.481 79.2272L195.11 87.3148C190.982 87.3553 187.13 87.8405 183.552 89.9838C180.171 92.0057 177.301 95.4025 177.301 99.608C177.301 102.681 179.11 104.663 181.744 105.795C184.063 106.806 186.618 107.251 189.134 107.413L185.478 115.541C176.751 114.489 168.535 110.365 168.535 100.134C168.535 94.6341 170.697 90.9947 174.667 87.5575L159.257 89.822L158.667 81.4109Z" fill="white"/>
<path d="M121.634 94.5129C121.084 94.7555 120.534 94.9981 119.983 95.2408L118.529 87.8406C120.927 87.2745 123.246 86.5061 125.526 85.6569C123.6 84.4842 120.887 83.352 118.725 82.6645L121.949 77.1245C124.465 77.812 126.942 78.6612 129.3 79.8339L125.841 85.5356C126.902 85.1312 127.846 84.7673 128.868 84.2416L129.536 90.6713C128.868 91.0756 128.278 91.3992 127.61 91.7631H131.777L130.165 88.1237C131.816 88.0024 133.546 87.7193 135.197 86.951C136.691 86.2635 137.831 85.3739 138.421 83.9181H136.377C134.804 85.2526 133.467 86.1422 131.659 87.0723L128.082 81.9366C130.401 80.8448 132.799 79.2677 134.332 77.1245H141.802C141.527 77.6906 141.369 78.0142 141.055 78.5398H155.758V82.9072C155.286 84.4438 154.578 86.2231 153.871 87.6788L147.424 85.7378C147.856 85.1313 148.21 84.5651 148.485 83.9181H145.419C146.126 85.293 147.306 86.5061 148.76 87.0723C151.276 88.0832 154.225 88.3259 156.898 88.5685L154.264 95.443C153.949 95.4025 153.635 95.3216 153.32 95.2408V108.909H147.699C149.9 109.435 152.731 109.798 154.972 109.798C155.601 109.798 156.269 109.758 156.898 109.718L154.028 116.147C148.092 115.177 145.458 114.489 139.954 111.942L142.667 108.909H132.327L135.237 112.103C130.087 114.732 126.902 115.5 121.241 116.228L118.332 110.001H119.944C122.853 110.001 125.408 109.798 128.2 108.909H121.634V94.5129ZM145.261 91.7631C143.964 90.833 142.942 89.7412 141.998 88.4472C141.016 89.7412 139.797 90.8735 138.46 91.7631H145.261ZM129.064 95.2408V96.373H145.93V95.2408H129.064ZM129.064 99.4463V100.579H145.93V99.4463H129.064ZM129.064 103.733V104.865H145.93V103.733H129.064Z" fill="white"/>
<path d="M112.749 113.842C108.818 114.732 104.808 115.5 100.798 116.026L100.012 107.979C101.781 107.938 103.55 107.776 105.358 107.615V102.034H100.444V83.6349H79.4512V78.0949H100.484V82.0982H105.358V77.0839H111.766V82.0982H116.445V102.034H111.216V106.846C111.609 106.765 111.963 106.725 112.317 106.644C112.238 105.633 112.159 104.663 112.081 103.652L116.445 103.166C117.113 106.644 117.585 111.942 117.624 115.5L112.631 115.985C112.71 115.136 112.749 114.732 112.749 113.842ZM80.7878 84.6054H99.0683V93.8657H80.7878V84.6054ZM92.2279 88.3257H87.4317V89.6197H92.2279V88.3257ZM105.634 89.0132H104.533V95.0789H105.634V89.0132ZM112.356 89.0132H111.216V95.0789H112.356V89.0132ZM87.6676 105.108L85.3481 103.45V115.783H80.1588V94.8362H99.7759V112.346C99.7759 114.408 98.9897 115.783 96.8275 115.783H93.9576L92.6996 109.96H94.1935C94.6653 109.96 94.9404 109.92 94.9404 109.313V104.299H91.7954C90.8912 104.299 90.1443 103.571 90.1443 102.034V99.6079H89.5153C89.4366 101.387 89.1614 103.571 88.2179 105.108H94.3507V108.787H92.503V114.408H87.5889V108.787H85.8985V105.108H87.6676ZM85.3481 102.479C86.0164 101.589 86.3702 100.74 86.5275 99.6079H85.3481V102.479ZM94.9404 99.6079H93.6038V100.336C93.6038 100.7 93.6431 101.064 94.3507 101.064H94.9404V99.6079Z" fill="white"/>
<path d="M43.1655 115.379V78.4185H74.7731V115.379H66.9891V114.125H50.7922V115.379H43.1655ZM50.7922 85.7782V92.5718H66.9891V85.7782H50.7922ZM50.7922 106.685H66.9891V99.7293H50.7922V106.685Z" fill="white"/>
<path d="M13.3664 111.739C9.27784 112.71 5.14999 113.64 1.02213 114.327L0 106.766C0.668319 106.725 1.37595 106.685 2.04427 106.604V78.0949H19.5778V98.7992H8.92402V105.835C9.82822 105.714 10.7324 105.593 11.6366 105.471C11.1649 104.016 10.811 103.005 10.2607 101.63L16.6293 99.8506C18.3591 103.692 19.7351 107.736 20.7179 111.82V78.0949H37.19V107.332C37.19 110.162 34.9098 111.375 32.6297 111.375H28.9343L27.4404 104.501V115.783H20.7179V112.629L13.8381 114.449C13.7202 113.397 13.6023 112.75 13.3664 111.739ZM12.3836 84.5246H8.92402V85.8186H12.3836V84.5246ZM27.4404 85.6568V103.571H28.6591C29.7205 103.571 30.0743 103.207 30.0743 102.115V85.6568H27.4404ZM12.3836 90.8733H8.92402V92.1674H12.3836V90.8733Z" fill="white"/>
<defs>
<filter id="filter0_d_680_606" x="279.793" y="75.7805" width="60.6914" height="40.6529" filterUnits="userSpaceOnUse" color-interpolation-filters="sRGB">
<feFlood flood-opacity="0" result="BackgroundImageFix"/>
<feColorMatrix in="SourceAlpha" type="matrix" values="0 0 0 0 0 0 0 0 0 0 0 0 0 0 0 0 0 0 127 0" result="hardAlpha"/>
<feOffset dx="2" dy="2"/>
<feComposite in2="hardAlpha" operator="out"/>
<feColorMatrix type="matrix" values="0 0 0 0 0.758333 0 0 0 0 0.126389 0 0 0 0 0.126389 0 0 0 1 0"/>
<feBlend mode="normal" in2="BackgroundImageFix" result="effect1_dropShadow_680_606"/>
<feBlend mode="normal" in="SourceGraphic" in2="effect1_dropShadow_680_606" result="shape"/>
</filter>
<linearGradient id="paint0_linear_680_606" x1="319.549" y1="86.0093" x2="327.899" y2="87.3797" gradientUnits="userSpaceOnUse">
<stop stop-color="white"/>
<stop offset="0.525" stop-color="#FAE60F"/>
<stop offset="0.585" stop-color="#E6D737"/>
<stop offset="1" stop-color="#FFEA05"/>
</linearGradient>
<linearGradient id="paint1_linear_680_606" x1="305.745" y1="98.6987" x2="316.556" y2="103.55" gradientUnits="userSpaceOnUse">
<stop stop-color="white"/>
<stop offset="0.525" stop-color="#FAE60F"/>
<stop offset="0.585" stop-color="#E6D737"/>
<stop offset="1" stop-color="#FFEA05"/>
</linearGradient>
<linearGradient id="paint2_linear_680_606" x1="285.49" y1="94.2042" x2="298.779" y2="99.7473" gradientUnits="userSpaceOnUse">
<stop stop-color="white"/>
<stop offset="0.525" stop-color="#FAE60F"/>
<stop offset="0.585" stop-color="#E6D737"/>
<stop offset="1" stop-color="#FFEA05"/>
</linearGradient>
</defs>
</svg>
