<svg width="341" height="87" viewBox="0 0 341 87" fill="none" xmlns="http://www.w3.org/2000/svg">
<path d="M90.8571 51.6842C88.631 51.8079 86.3637 51.9316 84.0964 51.9728L83.3543 46.2839C89.6203 46.2839 95.7627 45.7892 101.946 44.4701L103.719 50.0353C101.41 50.6124 99.2667 50.8597 96.9169 51.1483V55.3531H103.307V61.1244H97.288C98.8132 64.0513 101.081 67.3492 103.43 69.6578L100.297 74.9344C98.9781 73.1618 97.8651 71.3067 96.9169 69.328V83.9624H90.8571V69.8226C89.1257 73.3679 87.4355 75.7176 84.7972 78.6445L82.6123 71.0181C85.7041 68.4623 88.4661 64.6697 90.2799 61.1244H83.1482V55.3531H90.8571V51.6842ZM120.992 44.7174V79.1804C120.992 80.4171 120.868 81.7363 119.961 82.6844C119.095 83.5089 117.9 83.9624 116.704 83.9624H108.336L107.182 77.3666H113.53C114.478 77.3666 114.767 77.2017 114.767 76.2948V44.7174H120.992ZM111.18 47.8504V74.6458H105.038V47.8504H111.18Z" fill="white"/>
<path d="M49.8397 58.3624C48.1083 59.2281 46.3357 60.0526 44.563 60.7946L41.5537 54.6111C47.4487 52.7972 54.3331 49.4169 58.4555 44.7998H64.8864C69.8332 49.3757 75.3572 52.4674 81.7056 54.6935L78.7375 61.042C76.9649 60.2587 75.2335 59.4343 73.5433 58.4861V61.042H64.7627V63.8452H79.6032V69.6577H64.7627V77.2429H67.3186C68.2667 74.8107 69.0499 72.3785 69.7095 69.8639L75.9755 71.554C75.2747 73.4915 74.4915 75.3878 73.7082 77.2429H80.5102V83.0967H42.6668V77.2429H49.3038C48.8503 75.5939 48.0671 73.6564 47.1601 71.6777L53.22 69.9463C54.3331 72.2548 55.1575 74.7282 55.8171 77.2429H58.4967V69.6577H43.6561V63.8452H58.4967V61.042H49.8397V58.3624ZM54.9102 55.4356H68.4728C65.9582 53.7042 63.8145 51.8903 61.6297 49.7467C59.5273 51.9728 57.4661 53.7866 54.9102 55.4356Z" fill="white"/>
<path d="M3.62727 66.1538C3.00892 66.8959 2.39056 67.5967 1.73098 68.2975L0.0820312 59.2695C3.46238 55.2295 5.11133 49.9117 5.77091 44.7587L11.7896 45.171C11.2537 48.5925 10.5529 51.7668 9.48105 55.0234V84.0037H3.62727V66.1538ZM25.7644 63.1857H18.7564V69.6166C20.9 69.3693 23.0437 69.0395 25.1461 68.6273L25.5171 74.0276C21.4359 74.9757 15.4997 75.5528 11.2949 75.8414L10.5941 70.235C11.3773 70.1938 12.1194 70.1525 12.9026 70.1113V46.7375H14.8401C21.1474 46.7375 30.4227 46.2016 36.5238 44.8L39.2034 50.3652C36.4414 51.0247 33.8855 51.3133 31.0823 51.5606C31.1235 53.4569 31.206 55.3532 31.3296 57.2907H39.9454V63.1857H31.7419C32.1129 66.6897 32.4014 69.7403 33.4733 73.1206C33.8443 74.2337 34.339 75.759 35.081 75.759C35.5345 75.759 35.8642 74.852 36.194 73.9039C36.6063 72.7084 36.9773 71.4717 37.3071 70.235L40.3989 76.3773C39.9866 78.0675 39.5332 79.4279 38.6675 80.9531C37.7193 82.5609 36.6063 84.0037 34.5451 84.0037C30.9998 84.0037 29.4333 80.2523 28.444 77.4079C26.9599 73.0794 26.2179 67.7616 25.7644 63.1857ZM25.311 57.2907C25.2697 55.4769 25.1873 53.663 25.1461 51.8492C23.0024 51.9317 20.9 52.0141 18.7564 52.0553V57.2907H25.311ZM27.4546 83.1792H11.3773V77.4904H27.4546V83.1792Z" fill="white"/>
<path d="M258.544 58.4091C259.301 58.4372 260.059 58.4652 260.817 58.4652C265.251 58.4652 269.657 58.2407 274.007 57.5952L276.14 61.2997C273.642 62.8994 271.285 64.6394 268.871 66.3513C269.657 66.1829 270.471 66.0987 271.257 66.0987C275.915 66.0987 279.76 69.1578 279.76 73.9848C279.76 80.3554 274.007 83.5548 268.282 83.5548C264.886 83.5548 260.34 82.2358 260.34 78.1103C260.34 74.9951 263.483 73.199 266.289 73.199C269.264 73.199 272.042 74.8829 273.614 77.4087C274.4 76.5948 274.849 75.5564 274.849 74.4058C274.849 71.2907 272.042 70.0839 269.32 70.0839C267.019 70.0839 264.914 70.8978 263.006 72.1326C261.097 73.3955 259.385 74.939 257.73 76.5106L254.643 72.5816L267.019 62.6188C264.353 62.9836 261.659 63.2081 258.964 63.3204L258.544 58.4091ZM269.657 79.3732C268.815 78.1384 267.552 77.128 265.981 77.128C265.447 77.128 264.577 77.2964 264.577 77.998C264.577 79.3171 267.131 79.5696 268.057 79.5696C268.619 79.5696 269.152 79.4854 269.657 79.3732Z" fill="white"/>
<path d="M237.438 70.3084C237.438 72.1887 237.41 74.0971 237.41 75.9774C237.41 78.4752 237.466 80.9448 237.494 83.4145H232.583L232.639 76.679C231.853 77.8016 231.096 78.9523 230.366 80.1029L226.802 76.7632L232.695 68.8491L232.723 66.9126C231.292 67.1372 229.861 67.2775 228.429 67.4178L227.896 62.3662C229.524 62.3381 231.152 62.282 232.751 62.1136L232.808 57.3708H237.719C237.635 59.7001 237.578 62.0294 237.522 64.3588C239.599 62.3381 241.985 60.6543 244.987 60.6543C248.187 60.6543 250.853 62.9556 250.853 66.2391C250.853 67.5301 250.685 68.821 250.376 70.8417C250.179 72.2449 249.843 74.1813 249.843 75.5565C249.843 76.0336 249.983 76.651 250.572 76.651C251.218 76.651 252.116 76.1178 253.407 75.0513L254.501 79.7661C252.93 81.001 251.134 81.9271 249.085 81.9271C246.278 81.9271 244.567 80.0468 244.567 77.2684C244.567 75.5284 245.016 72.5816 245.268 70.7855C245.521 69.0455 245.633 68.0072 245.633 67.081C245.633 66.0988 245.072 65.4814 244.061 65.4814C241.76 65.4814 238.898 68.6807 237.438 70.3084Z" fill="white"/>
<path d="M208.308 57.0901C212.573 57.511 216.727 58.4091 220.796 59.7562L219.084 64.3026C215.071 62.8152 210.946 61.861 206.708 61.3278L208.308 57.0901ZM204.715 62.0013L209.711 63.0397C209.206 64.9481 208.729 66.8845 208.336 68.821C210.777 67.5861 213.528 66.8003 216.278 66.8003C220.965 66.8003 225.343 69.1297 225.343 74.3216C225.343 82.7128 215.885 83.3583 211.03 83.3583C209.402 83.3583 207.746 83.246 206.119 83.0496L205.164 77.9138C207.241 78.3067 209.318 78.5032 211.423 78.5032C214.145 78.5032 220.095 78.1664 220.095 74.3216C220.095 72.0764 218.018 71.4309 216.138 71.4309C212.489 71.4309 209.121 73.0306 206.483 75.4441L202.414 74.2654C203.031 70.14 203.789 66.0426 204.715 62.0013Z" fill="white"/>
<path d="M177.605 57.6794L182.768 58.2407C182.067 61.6926 181.702 65.2007 181.562 68.7368C182.151 67.6703 182.712 66.6039 183.274 65.5374L185.771 67.8387C184.172 70.589 182.825 73.5077 182.067 76.5948L177.941 77.0438C176.959 73.9848 176.65 70.7574 176.65 67.5581C176.65 64.2465 176.987 60.9349 177.605 57.6794ZM190.935 57.7355H196.267C196.576 61.0191 196.773 64.3307 196.773 67.6423C196.773 75.5003 194.78 80.3835 187.483 84.0038L183.189 80.3835C185.968 79.0645 188.83 77.2683 190.262 74.4058C191.384 72.1606 191.468 69.5226 191.468 67.0529C191.468 63.9378 191.216 60.8226 190.935 57.7355Z" fill="white"/>
<path d="M148.193 71.9923C147.744 72.5256 147.464 72.8062 146.987 73.2552L145.948 66.3233C147.604 64.3308 148.558 61.9453 149.091 59.4476C149.26 58.6056 149.4 57.7918 149.484 56.9498L154.003 57.3147C153.694 59.5318 153.245 61.5524 152.571 63.7133V83.7513H148.193V71.9923ZM156.921 57.1182H161.412V59.4476H164.892V57.1182H169.522V59.4476H172.329V63.4608H169.522V65.2849H172.946V69.3262H153.413V65.2849H156.921V63.4608H154.087V59.4476H156.921V57.1182ZM164.892 63.4608H161.412V65.2849H164.892V63.4608ZM171.262 70.3927V83.7513H166.688V82.8532H159.616V83.7513H155.097V70.3927H171.262ZM166.688 73.592H159.616V74.911H166.688V73.592ZM166.688 77.8858H159.616V79.2049H166.688V77.8858Z" fill="white"/>
<path d="M139.337 71.8033L140.626 70.9443C141.25 71.6276 141.758 72.3694 142.227 73.1699L140.918 74.0289C140.45 73.2285 139.962 72.5061 139.337 71.8033ZM141.289 70.5148L142.578 69.6557C143.203 70.3391 143.71 71.0809 144.179 71.8814L142.871 72.7404C142.422 71.9399 141.914 71.2176 141.289 70.5148ZM125.827 66.5711C127.135 66.5516 128.424 66.5321 129.712 66.4344L143.515 65.4778L143.808 68.9724C141.621 69.0115 139.689 69.2848 137.795 70.4367C136.116 71.4714 134.671 73.1504 134.671 75.2393C134.671 78.2459 138.302 79.1049 140.684 79.2806L139.025 82.7557C134.827 82.1895 130.864 80.2177 130.864 75.415C130.864 72.7794 132.211 70.6514 134.3 69.1091L126.1 70.2024L125.827 66.5711Z" fill="white"/>
<path d="M284.789 58.1179C284.935 55.2659 285.371 52.4614 286.873 49.9897C289.634 45.3789 294.867 44.0005 300.052 44.0005C304.606 44.0005 309.403 45.3314 312.262 49.039C313.764 50.9879 314.491 53.4596 314.491 55.8839C314.491 59.3538 313.328 61.6354 310.566 63.6794C313.861 66.1036 315.46 69.1457 315.46 73.2336C315.46 77.7018 313.182 81.6946 309.355 84.0713C306.544 85.83 302.668 86.2103 299.422 86.2103C295.255 86.2103 291.233 85.2121 288.229 82.265C286.824 80.7915 285.758 79.0327 285.177 77.0838C284.547 75.0874 284.353 73.0435 284.305 70.952H295.061C295.061 74.7547 295.497 77.5116 300.149 77.5116C303.056 77.5116 305.091 76.0381 305.091 73.0435C305.091 69.4309 302.329 68.7655 299.228 68.7655H295.691V60.4471H300.052C302.329 60.4471 303.879 59.1161 303.879 56.8821C303.879 54.3628 302.377 52.8417 299.858 52.8417C296.515 52.8417 295.594 55.3135 295.546 58.1179H284.789Z" fill="url(#paint0_linear_665_11329)"/>
<path d="M324.957 78.309V86.2103H320.492V79.3375C319.791 79.922 319.066 80.4596 318.318 80.9739L317.477 75.4804C319.3 74.4752 321.427 72.6518 322.456 70.8285H318.014V66.8077H320.492V63.909H324.957V66.8077H327.061V70.8285C326.687 71.9272 326.313 72.6518 325.682 73.6337C326.547 74.6155 327.552 75.3635 328.674 76.0414L326.523 80.2025C325.869 79.5713 325.471 79.0804 324.957 78.309ZM331.128 63.909H335.687V69.0986H339.871V73.5401H335.687V81.3012H340.082V85.6492H326.149V81.3012H331.128V73.5401H327.435V69.0986H331.128V63.909Z" fill="url(#paint1_linear_665_11329)"/>
<path d="M331.419 45.4732C331.082 45.87 330.806 46.1534 330.407 46.4708L329.468 44.4076C330.111 43.8748 330.622 43.2627 331.041 42.5031L333.175 42.6959C333.114 42.8432 333.063 42.9679 333.002 43.1153H339.447V44.8837H331.899C331.817 44.9858 331.735 45.0878 331.654 45.1898H338.67V46.6182H331.419V45.4732ZM331.439 50.7899C331 50.4498 330.622 50.1778 330.142 49.9057L331.235 48.5907H329.652V46.9469H337.731C337.7 47.6611 337.68 48.364 337.68 49.0668C337.68 49.5769 337.71 50.4952 337.823 50.9373C337.843 51.028 337.915 51.164 338.007 51.164C338.262 51.164 338.762 50.1324 338.905 49.8037L339.62 52.1276C339.232 52.8077 338.609 53.5786 337.823 53.5786C337.271 53.5786 336.75 53.2045 336.454 52.7171C335.841 51.7081 335.79 49.7923 335.77 48.5907H334.227L335.412 49.3275C335.116 49.8717 334.83 50.2798 334.432 50.7446C334.83 51.1187 335.228 51.4927 335.616 51.8895L334.166 53.4086C333.778 52.9324 333.359 52.5017 332.92 52.0936C332.225 52.6037 331.49 53.0458 330.734 53.4539L329.723 51.6174C330.336 51.4021 330.877 51.1527 331.439 50.7899ZM332.992 49.5203C333.278 49.2368 333.502 48.9308 333.737 48.5907H331.654C332.113 48.8741 332.563 49.1915 332.992 49.5203Z" fill="white"/>
<path d="M323.393 42.5031H325.452V44.5841C325.452 46.1102 325.679 47.4397 326.42 48.7345C327.172 50.0409 328.222 50.8849 329.468 51.5092L328.201 53.5786C326.276 52.3069 325.164 51.0236 324.412 48.6305C323.609 51.0121 322.477 52.2722 320.572 53.5786L319.315 51.567C321.931 50.3531 323.393 47.7519 323.393 44.5957V42.5031Z" fill="white"/>
<path d="M317.47 43.8876V55.886H323.469L321.623 59.5778L327.161 55.886H340.082" stroke="white" stroke-linecap="round" stroke-linejoin="round"/>
<path d="M63.2886 14.248C62.7486 14.748 62.3686 15.048 61.7286 15.388L60.0286 13.048C61.4286 12.228 62.9086 11.048 63.5886 9.52798L66.5686 9.88798C66.3886 10.348 66.2486 10.608 66.0086 11.028H78.8086V13.728H77.1886V15.688H79.3086V18.428H77.1886V20.408H78.8086V23.108H60.8086V20.408H63.0486V18.428H60.3486V15.688H63.2886V14.248ZM67.0486 13.728H65.6086V15.688H67.0486V13.728ZM70.7886 13.728H69.3286V15.688H70.7886V13.728ZM74.5286 13.728H73.0686V15.688H74.5286V13.728ZM67.0486 18.428H65.6086V20.408H67.0486V18.428ZM70.7886 18.428H69.3286V20.408H70.7886V18.428ZM74.5286 18.428H73.0686V20.408H74.5286V18.428ZM65.0486 24.108C64.4686 25.928 63.8686 27.428 62.6486 28.908L60.1086 27.168C61.2086 26.008 61.8886 24.648 62.4286 23.148L65.0486 24.108ZM76.8086 23.148C77.9686 24.688 78.6286 25.788 79.4686 27.528L76.6686 28.868C76.0286 27.248 75.1486 25.708 74.2086 24.248L76.8086 23.148ZM72.6086 23.668C73.1486 24.948 73.8886 27.068 74.0886 28.408L71.1086 28.648C70.9086 26.968 70.5086 25.448 69.9486 23.868L72.6086 23.668ZM68.5286 23.808C68.7686 25.148 68.9086 27.168 68.9086 28.528L65.8886 28.608C66.0486 27.648 66.0486 26.408 66.0486 25.428C66.0486 24.888 66.0486 24.408 66.0086 23.888L68.5286 23.808ZM83.9886 13.048C82.9086 13.108 81.8086 13.168 80.7086 13.188L80.3486 10.428C83.3886 10.428 86.3686 10.188 89.3686 9.54798L90.2286 12.248C89.1086 12.528 88.0686 12.648 86.9286 12.788V14.828H90.0286V17.628H87.1086C87.8486 19.048 88.9486 20.648 90.0886 21.768L88.5686 24.328C87.9286 23.468 87.3886 22.568 86.9286 21.608V28.708H83.9886V21.848C83.1486 23.568 82.3286 24.708 81.0486 26.128L79.9886 22.428C81.4886 21.188 82.8286 19.348 83.7086 17.628H80.2486V14.828H83.9886V13.048ZM98.6086 9.66798V26.388C98.6086 26.988 98.5486 27.628 98.1086 28.088C97.6886 28.488 97.1086 28.708 96.5286 28.708H92.4686L91.9086 25.508H94.9886C95.4486 25.508 95.5886 25.428 95.5886 24.988V9.66798H98.6086ZM93.8486 11.188V24.188H90.8686V11.188H93.8486ZM108.109 21.788H102.029V11.048H107.649C107.849 10.608 107.969 10.108 108.029 9.64798H111.429C111.329 10.088 111.149 10.608 110.949 11.048H117.649V21.788H110.329C111.249 22.288 111.789 22.648 112.589 23.308L110.569 25.328C109.709 24.528 108.849 23.928 107.849 23.348V25.188C107.849 25.508 108.049 25.668 108.329 25.668H111.369C112.049 25.668 112.129 25.308 112.269 24.308L115.209 25.008C115.029 26.468 114.729 28.408 112.869 28.408H106.569C105.629 28.408 104.929 27.828 104.929 26.968V23.288H107.729C107.489 23.148 107.229 23.028 106.969 22.908L108.109 21.788ZM114.649 13.208H104.929V14.088H114.649V13.208ZM114.649 15.908H104.929V16.808H114.649V15.908ZM114.649 18.648H104.929V19.568H114.649V18.648ZM116.889 22.028C118.069 23.448 118.869 25.088 119.489 26.808L116.549 28.348C116.089 26.728 115.349 24.628 114.309 23.308L116.889 22.028ZM104.649 23.108C104.309 24.788 103.649 26.968 102.669 28.368L100.129 26.488C101.189 25.008 101.609 24.068 102.129 22.328L104.649 23.108ZM129.129 26.728L127.809 27.828C127.289 26.928 126.389 25.708 125.689 24.928L127.549 23.668H122.949L125.049 24.808C124.569 26.048 123.149 27.928 122.069 28.728L120.069 26.768C121.089 26.008 122.009 24.748 122.709 23.668H120.289V21.108H121.529V13.668H120.529V11.088H121.529V9.76798H124.329V11.088H126.909V9.76798H129.689V11.088H130.769V13.668H129.689V21.108H130.909C131.029 20.068 131.089 19.028 131.089 17.988V10.168H138.649V26.808C138.649 28.208 138.069 28.628 136.729 28.628H134.029L133.529 25.808H135.229C135.729 25.808 135.809 25.528 135.809 25.088V22.628H133.509C133.309 24.628 132.589 27.088 131.349 28.708L129.129 26.728ZM135.809 13.088H133.709V15.268H135.809V13.088ZM126.909 13.668H124.329V14.648H126.909V13.668ZM126.909 16.828H124.329V17.888H126.909V16.828ZM135.809 17.848H133.709L133.649 19.968H135.809V17.848ZM126.909 19.928H124.329V21.108H126.909V19.928ZM129.529 25.728C129.909 25.048 130.189 24.408 130.409 23.668H127.789C128.369 24.208 129.069 25.068 129.529 25.728ZM154.269 25.808H155.249C155.789 25.808 155.849 25.588 155.849 25.148V18.108H150.329V10.368H158.709V26.548C158.709 28.008 157.849 28.688 156.929 28.688H153.089L152.769 26.848H145.289V19.008H154.269V25.808ZM140.909 10.368H149.109V18.108H143.729V28.688H140.909V10.368ZM155.849 12.428H153.089V13.348H155.849V12.428ZM146.349 12.428H143.729V13.348H146.349V12.428ZM155.849 15.088H153.089V16.028H155.849V15.088ZM146.349 15.088H143.729V16.028H146.349V15.088ZM151.549 21.068H147.989V22.008H151.549V21.068ZM151.549 23.648H147.989V24.648H151.549V23.648ZM222.635 19.828C222.275 20.288 221.895 20.688 221.495 21.108L220.495 17.068C222.315 14.948 223.435 12.408 223.875 9.64798L226.835 9.90798C226.535 11.468 226.155 12.888 225.615 14.408V28.708H222.635V19.828ZM234.735 9.70798H237.855V13.308H239.815V16.188H237.855V26.368C237.855 28.008 237.195 28.708 235.555 28.708H231.195L230.655 25.648H234.175C234.675 25.648 234.735 25.488 234.735 25.008V16.188H226.435V13.308H234.735V9.70798ZM229.095 17.068C230.415 18.568 231.635 20.268 232.635 21.988L229.975 23.708C229.215 22.208 227.735 19.968 226.635 18.688L229.095 17.068ZM248.175 12.128C247.875 11.508 247.575 10.888 247.275 10.248L250.535 9.60798C250.835 10.328 251.155 11.028 251.475 11.708C253.155 11.448 254.795 11.048 256.375 10.408L257.355 13.028C255.835 13.568 254.295 13.948 252.735 14.268C252.915 14.608 253.115 14.968 253.295 15.308C254.955 14.968 256.595 14.548 258.175 13.928L259.235 16.628C257.775 17.108 256.295 17.528 254.775 17.828C255.675 19.268 256.675 20.628 257.755 21.968L255.735 23.628C254.035 22.608 252.075 22.148 250.095 22.148C249.015 22.148 246.295 22.228 246.295 23.788C246.295 25.468 249.855 25.448 250.995 25.448C252.915 25.448 254.835 25.168 256.715 24.748L256.615 27.908C254.815 28.228 252.995 28.388 251.175 28.388C248.095 28.388 243.055 28.008 243.055 23.908C243.055 20.448 246.995 19.688 249.715 19.688C250.695 19.688 251.675 19.788 252.655 19.948C252.295 19.428 251.955 18.908 251.635 18.388C248.475 18.888 245.255 19.088 242.075 19.148L241.655 16.308C242.095 16.308 242.515 16.308 242.935 16.308C245.335 16.308 247.735 16.128 250.115 15.848C249.915 15.488 249.715 15.128 249.535 14.768C247.255 15.048 244.975 15.168 242.695 15.168L242.235 12.328C242.655 12.328 243.095 12.348 243.515 12.348C245.075 12.348 246.635 12.288 248.175 12.128ZM274.975 17.168L276.235 16.288C276.895 16.988 277.435 17.748 277.915 18.568L276.595 19.448C276.135 18.628 275.595 17.888 274.975 17.168ZM276.995 15.828L278.255 14.948C278.895 15.648 279.435 16.408 279.915 17.228L278.615 18.108C278.155 17.288 277.615 16.528 276.995 15.828ZM261.175 12.088C262.395 12.068 263.635 12.048 264.855 11.968L279.215 10.948L279.475 14.208C277.155 14.268 275.115 14.608 273.135 15.868C271.395 16.948 269.895 18.688 269.895 20.848C269.895 24.008 273.615 25.008 276.155 25.228L274.595 28.448C272.875 28.228 271.195 27.688 269.695 26.808C267.555 25.548 266.415 23.468 266.415 21.008C266.415 18.168 267.955 15.968 270.215 14.388L261.435 15.468L261.175 12.088Z" fill="white"/>
<path d="M161.159 9.73798C161.249 8.11798 161.369 6.55798 162.089 5.08798C163.589 1.96798 166.829 0.917982 170.099 0.917982C174.539 0.917982 178.559 3.16798 178.559 8.08798C178.559 10.218 177.689 11.958 175.859 13.098C178.049 14.388 179.219 16.788 179.219 19.278C179.219 22.008 177.839 24.588 175.499 25.998C173.879 26.988 171.869 27.318 170.009 27.318C165.779 27.318 162.149 25.428 161.099 21.078C160.829 20.028 160.739 18.948 160.709 17.868H166.229C166.259 20.718 166.979 22.668 170.219 22.668C172.439 22.668 173.939 21.438 173.939 19.158C173.939 16.608 172.049 15.828 169.799 15.828H167.219V11.388H169.709C171.689 11.388 173.189 10.728 173.189 8.53798C173.189 6.58798 171.869 5.56798 170.009 5.56798C167.369 5.56798 166.679 7.42798 166.619 9.73798H161.159ZM190.192 0.917982C197.542 0.917982 199.402 8.08798 199.402 14.118C199.402 20.148 197.542 27.318 190.192 27.318C182.842 27.318 180.952 20.148 180.952 14.118C180.952 8.08798 182.842 0.917982 190.192 0.917982ZM190.192 5.47798C188.692 5.47798 187.822 6.31798 187.282 7.63798C186.472 9.64798 186.412 11.958 186.412 14.118C186.412 16.248 186.472 18.588 187.312 20.598C187.822 21.888 188.692 22.728 190.192 22.728C191.662 22.728 192.562 21.888 193.072 20.568C193.882 18.618 193.972 16.218 193.972 14.118C193.972 11.958 193.882 9.64798 193.072 7.63798C192.532 6.31798 191.662 5.47798 190.192 5.47798ZM202.635 10.488H218.075V28.548H214.875V27.748H205.835V28.548H202.635V10.488ZM214.875 17.468V13.488H205.835V17.468H214.875ZM214.875 20.368H205.835V24.768H214.875V20.368Z" fill="#FFEA05"/>
<line x1="56.582" y1="33.8003" x2="283.582" y2="33.8002" stroke="white" stroke-width="2"/>
<defs>
<linearGradient id="paint0_linear_665_11329" x1="293.794" y1="44.0005" x2="317.266" y2="51.6776" gradientUnits="userSpaceOnUse">
<stop stop-color="white"/>
<stop offset="0.525" stop-color="#FAE60F"/>
<stop offset="0.585" stop-color="#E6D737"/>
<stop offset="1" stop-color="#FFEA05"/>
</linearGradient>
<linearGradient id="paint1_linear_665_11329" x1="324.361" y1="63.909" x2="340.049" y2="70.9554" gradientUnits="userSpaceOnUse">
<stop stop-color="white"/>
<stop offset="0.525" stop-color="#FAE60F"/>
<stop offset="0.585" stop-color="#E6D737"/>
<stop offset="1" stop-color="#FFEA05"/>
</linearGradient>
</defs>
</svg>
