<svg width="207" height="60" viewBox="0 0 207 60" fill="none" xmlns="http://www.w3.org/2000/svg">
<path d="M8.97197 4.94106C10.582 4.38106 12.234 3.93306 13.886 3.47106L14.586 5.73906C13.55 5.97706 12.528 6.22906 11.506 6.50906C10.344 6.83106 9.18197 7.16706 8.07597 7.62906C7.22197 7.99306 5.80797 8.67906 5.80797 9.77106C5.80797 11.1011 8.17397 11.1431 9.11197 11.1431C10.946 11.1431 12.78 10.9331 14.586 10.6251L14.754 13.0191C13.018 13.2151 11.282 13.3691 9.53197 13.3691C8.21597 13.3691 6.75997 13.3271 5.52797 12.8511C4.25397 12.3471 3.39997 11.3951 3.39997 9.96706C3.39997 7.97906 5.12197 6.64906 6.74597 5.85106C6.59197 5.36106 6.47997 4.85706 6.36797 4.35306L5.69597 1.04906L8.08997 0.57306L8.69197 3.82106C8.76197 4.19906 8.87397 4.57706 8.97197 4.94106ZM18.45 1.11906L20.844 1.38506C20.256 3.79306 19.92 6.27106 19.92 8.76306C19.92 9.21106 19.948 9.67306 19.976 10.1211C20.144 9.72906 20.298 9.33706 20.452 8.95906L21.334 9.96706C20.9 11.0311 20.522 12.1651 20.41 13.3131L18.492 13.5091C17.862 11.8151 17.694 9.98106 17.694 8.17506C17.694 5.80906 18.002 3.44306 18.45 1.11906ZM22.384 2.23906C23.28 2.32306 24.176 2.36506 25.072 2.36506C26.458 2.36506 27.844 2.26706 29.216 2.05706L29.174 4.35306C27.774 4.50706 26.374 4.60506 24.96 4.60506C24.078 4.60506 23.196 4.56306 22.328 4.47906L22.384 2.23906ZM24.078 8.42706C23.91 8.79106 23.756 9.18306 23.756 9.58906C23.756 10.4011 25.212 10.4431 25.968 10.4431C27.41 10.4431 28.46 10.3311 29.832 10.0931L29.804 12.4171C28.628 12.5711 27.452 12.6831 26.262 12.6831C24.302 12.6831 21.67 12.4731 21.67 9.89706C21.67 9.25306 21.866 8.65106 22.146 8.07706L24.078 8.42706ZM35.124 3.80706C35.334 2.74306 35.516 1.66506 35.656 0.58706L37.966 0.99306C37.826 1.87506 37.658 2.74306 37.462 3.61106C38.218 3.61106 39.002 3.66706 39.674 4.03106C41.102 4.81506 41.242 6.38306 41.242 7.83906C41.242 9.12706 41.102 11.1291 40.416 12.2351C39.87 13.0891 38.848 13.4111 37.882 13.4111C37.294 13.4111 36.706 13.3411 36.118 13.2431L36.132 11.0311C36.608 11.1431 37.098 11.2131 37.588 11.2131C38.4 11.2131 38.638 10.7791 38.778 10.0511C38.918 9.23906 38.974 8.39906 38.974 7.57306C38.974 6.55106 38.876 5.73906 37.63 5.73906C37.406 5.73906 37.182 5.75306 36.944 5.76706C36.58 7.20906 36.104 8.62306 35.544 9.99506C35.026 11.2691 34.41 12.5011 33.696 13.6631L31.722 12.3751C32.982 10.4011 33.92 8.25906 34.578 6.01906C33.71 6.13106 32.856 6.25706 32.002 6.39706L31.75 4.18506L35.124 3.80706ZM41.956 2.11306C43.72 3.84906 44.63 6.18706 44.798 8.63706L42.614 9.33706C42.488 7.08306 41.83 4.95506 40.248 3.30306L41.956 2.11306ZM55.886 0.41906L57.58 2.25306C55.41 3.77906 52.918 5.26306 50.664 6.57906C50.244 6.81706 50.104 6.97106 50.104 7.12506C50.104 7.23706 50.174 7.32106 50.258 7.37706C50.608 7.58706 51 7.76906 51.364 7.95106C53.688 9.09906 55.928 10.4431 58 11.9971L56.32 13.9151C55.312 13.1451 54.29 12.4031 53.226 11.7031C51.798 10.7791 50.314 9.93906 48.816 9.14106C48.018 8.70706 47.248 8.17506 47.248 7.16706C47.248 5.90706 48.592 5.24906 49.53 4.67506C51.7 3.35906 53.856 1.97306 55.886 0.41906ZM61.57 7.76906C61.36 8.02106 61.15 8.25906 60.926 8.49706L60.366 5.43106C61.514 4.05906 62.074 2.25306 62.298 0.50306L64.342 0.64306C64.16 1.80506 63.922 2.88306 63.558 3.98906V13.8311H61.57V7.76906ZM69.088 6.76106H66.708V8.94506C67.436 8.86106 68.164 8.74906 68.878 8.60906L69.004 10.4431C67.618 10.7651 65.602 10.9611 64.174 11.0591L63.936 9.15506C64.202 9.14106 64.454 9.12706 64.72 9.11306V1.17506H65.378C67.52 1.17506 70.67 0.99306 72.742 0.51706L73.652 2.40706C72.714 2.63106 71.846 2.72906 70.894 2.81306C70.908 3.45706 70.936 4.10106 70.978 4.75906H73.904V6.76106H71.118C71.244 7.95106 71.342 8.98706 71.706 10.1351C71.832 10.5131 72 11.0311 72.252 11.0311C72.406 11.0311 72.518 10.7231 72.63 10.4011C72.77 9.99506 72.896 9.57506 73.008 9.15506L74.058 11.2411C73.918 11.8151 73.764 12.2771 73.47 12.7951C73.148 13.3411 72.77 13.8311 72.07 13.8311C70.866 13.8311 70.334 12.5571 69.998 11.5911C69.494 10.1211 69.242 8.31506 69.088 6.76106ZM68.934 4.75906C68.92 4.14306 68.892 3.52706 68.878 2.91106C68.15 2.93906 67.436 2.96706 66.708 2.98106V4.75906H68.934ZM69.662 13.5511H64.202V11.6191H69.662V13.5511ZM77.824 5.12306C77.236 5.41706 76.634 5.69706 76.032 5.94906L75.01 3.84906C77.012 3.23306 79.35 2.08506 80.75 0.51706H82.934C84.614 2.07106 86.49 3.12106 88.646 3.87706L87.638 6.03306C87.036 5.76706 86.448 5.48706 85.874 5.16506V6.03306H82.892V6.98506H87.932V8.95906H82.892V11.5351H83.76C84.082 10.7091 84.348 9.88306 84.572 9.02906L86.7 9.60306C86.462 10.2611 86.196 10.9051 85.93 11.5351H88.24V13.5231H75.388V11.5351H77.642C77.488 10.9751 77.222 10.3171 76.914 9.64506L78.972 9.05706C79.35 9.84106 79.63 10.6811 79.854 11.5351H80.764V8.95906H75.724V6.98506H80.764V6.03306H77.824V5.12306ZM79.546 4.12906H84.152C83.298 3.54106 82.57 2.92506 81.828 2.19706C81.114 2.95306 80.414 3.56906 79.546 4.12906ZM92.314 2.85506C91.558 2.89706 90.788 2.93906 90.018 2.95306L89.766 1.02106C91.894 1.02106 93.98 0.85306 96.08 0.40506L96.682 2.29506C95.898 2.49106 95.17 2.57506 94.372 2.67306V4.10106H96.542V6.06106H94.498C95.016 7.05506 95.786 8.17506 96.584 8.95906L95.52 10.7511C95.072 10.1491 94.694 9.51906 94.372 8.84706V13.8171H92.314V9.01506C91.726 10.2191 91.152 11.0171 90.256 12.0111L89.514 9.42106C90.564 8.55306 91.502 7.26506 92.118 6.06106H89.696V4.10106H92.314V2.85506ZM102.548 0.48906V12.1931C102.548 12.6131 102.506 13.0611 102.198 13.3831C101.904 13.6631 101.498 13.8171 101.092 13.8171H98.25L97.858 11.5771H100.014C100.336 11.5771 100.434 11.5211 100.434 11.2131V0.48906H102.548ZM99.216 1.55306V10.6531H97.13V1.55306H99.216ZM114.182 5.73906L115.064 5.12306C115.526 5.61306 115.904 6.14506 116.24 6.71906L115.316 7.33506C114.994 6.76106 114.616 6.24306 114.182 5.73906ZM115.596 4.80106L116.478 4.18506C116.926 4.67506 117.304 5.20706 117.64 5.78106L116.73 6.39706C116.408 5.82306 116.03 5.29106 115.596 4.80106ZM104.522 2.18306C105.376 2.16906 106.244 2.15506 107.098 2.09906L117.15 1.38506L117.332 3.66706C115.708 3.70906 114.28 3.94706 112.894 4.82906C111.676 5.58506 110.626 6.80306 110.626 8.31506C110.626 10.5271 113.23 11.2271 115.008 11.3811L113.916 13.6351C112.712 13.4811 111.536 13.1031 110.486 12.4871C108.988 11.6051 108.19 10.1491 108.19 8.42706C108.19 6.43906 109.268 4.89906 110.85 3.79306L104.704 4.54906L104.522 2.18306ZM119.838 7.72706C119.6 8.00706 119.446 8.18906 119.194 8.44106L118.634 5.40306C119.74 4.05906 120.272 2.19706 120.468 0.48906L122.54 0.65706C122.386 1.74906 122.176 2.75706 121.84 3.80706V13.7891H119.838V7.72706ZM124.15 0.55906H126.18V1.80506H128.168V0.55906H130.24V1.80506H131.738V3.62506H130.24V4.71706H132.06V6.53706H122.288V4.71706H124.15V3.62506H122.624V1.80506H124.15V0.55906ZM128.168 3.62506H126.18V4.71706H128.168V3.62506ZM131.178 7.19506V13.7891H129.12V13.3271H125.214V13.7891H123.156V7.19506H131.178ZM129.12 8.67906H125.214V9.46306H129.12V8.67906ZM129.12 10.8491H125.214V11.6471H129.12V10.8491ZM135.602 0.88106L137.912 1.13306C137.548 2.95306 137.366 4.78706 137.338 6.63506C137.646 6.04706 137.94 5.44506 138.248 4.85706L139.438 5.94906C138.682 7.30706 138.01 8.73506 137.632 10.2471L135.77 10.4431C135.28 8.91706 135.126 7.30706 135.126 5.71106C135.126 4.08706 135.294 2.47706 135.602 0.88106ZM142.322 0.88106H144.716C144.856 2.51906 144.982 4.17106 144.982 5.80906C144.982 9.70106 143.946 12.1371 140.334 13.9151L138.402 12.2771C139.592 11.7171 140.768 11.0031 141.552 9.93906C142.476 8.66506 142.588 7.09706 142.588 5.58506C142.588 4.01706 142.462 2.44906 142.322 0.88106ZM151.464 2.71506C151.632 1.97306 151.758 1.21706 151.884 0.46106L154.208 0.69906C154.096 1.31506 153.942 1.91706 153.816 2.53306C154.712 2.42106 155.594 2.25306 156.462 2.05706L156.546 4.24106C155.468 4.43706 154.39 4.61906 153.298 4.73106C152.57 7.68506 151.646 10.6251 150.4 13.4251L148.16 12.5431C148.79 11.2551 149.364 9.92506 149.84 8.56706C150.26 7.36306 150.61 6.14506 150.946 4.91306C150.274 4.95506 149.588 4.95506 148.916 4.95506C148.804 4.95506 148.706 4.95506 148.608 4.95506L148.58 2.71506C149.07 2.72906 149.546 2.75706 150.022 2.75706C150.498 2.75706 150.988 2.74306 151.464 2.71506ZM153.816 8.66506L155.622 9.40706C155.328 9.70106 154.908 10.1071 154.908 10.5691C154.908 11.2691 156.56 11.2971 157.204 11.2971C158.576 11.2971 159.654 11.1711 160.76 11.0031V13.2571C159.668 13.3691 158.576 13.4391 157.47 13.4391C156.378 13.4391 155.216 13.3971 154.208 12.9771C153.368 12.6271 152.71 11.8711 152.71 10.9331C152.71 10.0511 153.214 9.28106 153.816 8.66506ZM154.642 5.01106C155.678 4.85706 156.728 4.77306 157.792 4.77306C158.716 4.77306 159.654 4.82906 160.578 4.92706L160.368 7.05506C159.416 6.95706 158.464 6.88706 157.498 6.88706C156.462 6.88706 155.426 6.94306 154.39 7.08306L154.642 5.01106ZM163.462 1.56706L165.856 1.94506C165.604 3.26106 165.45 4.61906 165.45 5.96306C165.45 7.22306 165.534 8.86106 166.15 9.98106C166.276 10.1911 166.444 10.4151 166.71 10.4151C167.074 10.4151 167.312 9.86906 167.48 9.47706C167.746 8.91706 167.942 8.31506 168.11 7.71306L169.972 9.01506C169.468 10.5411 168.502 13.1451 166.556 13.1451C165.366 13.1451 164.54 12.1231 164.078 11.1431C163.266 9.46306 163.028 7.57306 163.028 5.72506C163.028 4.32506 163.182 2.92506 163.462 1.56706ZM173.038 2.39306C175.054 4.57706 175.796 7.33506 175.796 10.2611L173.36 10.9471C173.36 10.7931 173.374 10.6391 173.374 10.4851C173.374 8.07706 172.758 5.40306 171.134 3.55506L173.038 2.39306ZM180.416 2.68706C180.654 1.94506 180.878 1.20306 181.074 0.44706L183.412 0.90906C183.244 1.44106 183.062 1.95906 182.88 2.49106C183.468 2.42106 184.042 2.32306 184.616 2.21106L184.504 4.40906C183.706 4.53506 182.908 4.63306 182.11 4.71706C181.27 6.99906 180.332 9.25306 179.31 11.4651L177.126 10.4851C178.092 8.67906 178.96 6.80306 179.66 4.87106C179.03 4.89906 178.4 4.89906 177.77 4.89906L177.7 2.65906C178.246 2.68706 178.792 2.70106 179.352 2.70106C179.702 2.70106 180.066 2.70106 180.416 2.68706ZM185.75 2.58906C187.29 2.93906 188.774 3.41506 190.216 4.03106L189.474 6.13106C189.054 5.90706 188.578 5.65506 188.074 5.65506C187.248 5.65506 186.856 6.31306 186.856 7.06906C186.856 7.67106 186.954 8.28706 187.052 8.87506C188.228 9.33706 189.208 9.85506 190.258 10.5691L189.18 12.5431C188.564 12.0951 187.92 11.6891 187.248 11.3111C187.178 13.0051 185.624 13.6911 184.126 13.6911C182.502 13.6911 180.612 12.9631 180.612 11.0591C180.612 10.3031 180.948 9.57506 181.522 9.08506C182.236 8.48306 183.202 8.31506 184.098 8.31506C184.322 8.31506 184.546 8.32906 184.77 8.35706C184.714 7.90906 184.672 7.46106 184.672 7.01306C184.672 5.92106 185.078 5.27706 186.03 4.77306C185.652 4.67506 185.26 4.59106 184.854 4.52106L185.75 2.58906ZM184.994 10.4011C184.644 10.3171 184.294 10.2611 183.944 10.2611C183.468 10.2611 182.628 10.3451 182.628 10.9891C182.628 11.6051 183.454 11.7591 183.93 11.7591C184.518 11.7591 185.036 11.5771 185.036 10.8911C185.036 10.7371 185.022 10.5691 184.994 10.4011ZM195.634 0.61506C197.72 0.83906 199.764 1.27306 201.752 1.93106L200.968 4.00306C198.994 3.27506 196.964 2.82706 194.878 2.58906L195.634 0.61506ZM193.912 2.95306L196.18 3.44306C195.9 4.47906 195.662 5.51506 195.438 6.56506C196.726 5.90706 198.154 5.48706 199.596 5.48706C201.878 5.48706 204.048 6.60706 204.048 9.15506C204.048 10.9891 202.886 12.3751 201.206 12.9771C199.89 13.4531 198.434 13.5651 197.034 13.5651C196.208 13.5651 195.396 13.5091 194.584 13.3971L194.136 11.0591C195.172 11.2551 196.208 11.3671 197.258 11.3671C198.714 11.3671 201.682 11.1431 201.682 9.12706C201.682 7.93706 200.576 7.57306 199.568 7.57306C197.706 7.57306 195.97 8.38506 194.612 9.61706L192.75 9.07106C193.072 7.01306 193.45 4.98306 193.912 2.95306Z" fill="white"/>
<path d="M10.0151 33.8436V38.6536H5.67307V57.8416H0.863069V33.8436H10.0151ZM8.66307 37.3016V35.1956H2.21507V56.4896H4.32107V37.3016H8.66307ZM17.9971 54.1236V47.8316H13.9151V44.5036H17.9971V43.0736H15.7351V41.7996C15.2671 42.1636 14.7991 42.5016 14.3311 42.8656L13.3431 38.8876C15.4231 37.5356 16.8531 36.0276 18.0751 33.8696H21.6631C22.8071 35.7676 23.7691 36.8076 25.6151 38.0816V34.4676H37.6531V46.7656H33.4931C33.6231 47.6756 33.7791 48.3516 34.0651 49.2096C34.9491 48.5596 35.7031 47.8836 36.4311 47.0516L38.6151 49.9896C37.6011 50.9516 36.7691 51.5236 35.5991 52.2516C36.5611 53.5776 37.4971 54.4356 38.7971 55.3976L36.3531 58.6736C34.5071 57.2956 33.2331 55.8136 32.1931 53.7596V56.8796C30.0351 57.5036 26.4731 58.1016 24.2111 58.4136L23.9771 56.7236C20.7271 57.3996 17.4251 57.8676 14.0971 58.2316L13.6291 54.5396C15.0851 54.4616 16.5931 54.3316 17.9971 54.1236ZM17.8671 39.7456H21.8971C21.0911 38.8876 20.5191 38.0296 19.8951 37.0156C19.2711 38.1076 18.6991 38.8096 17.8671 39.7456ZM33.9611 37.7436H29.1251V39.3036H33.9611V37.7436ZM21.1431 53.7596C22.2351 53.6036 23.3011 53.4736 24.3671 53.2136L24.5231 54.4616C24.8871 54.4356 25.2511 54.3836 25.6151 54.3316V38.5236L23.6911 41.3576C23.6131 41.2796 23.5351 41.2276 23.4311 41.1496V43.0736H21.1431V44.5036H24.7571V47.8316H21.1431V53.7596ZM33.9611 42.0336H29.1251V43.6196H33.9611V42.0336ZM31.9591 53.2656C30.9711 51.1336 30.4771 49.1316 30.2951 46.7656H29.1251V53.8636C30.0611 53.6816 31.0231 53.4996 31.9591 53.2656ZM24.6791 48.8976C24.5231 50.1976 24.2891 51.5236 23.8991 52.7976L21.7151 52.3556C22.0791 51.1596 22.2871 49.6776 22.3911 48.5336L24.6791 48.8976ZM16.4891 48.5336C16.9571 50.0676 17.2691 51.3936 17.3991 53.0056L14.7731 53.7076C14.6431 52.1736 14.3831 50.6396 13.9411 49.1576L16.4891 48.5336ZM49.3011 34.7536C47.8711 37.5876 45.4271 40.4216 42.7491 42.1376L40.9811 38.2376C42.9311 37.0936 44.5431 35.4556 45.7391 33.5576L49.3011 34.7536ZM65.1611 34.7276V38.4196H51.0691V34.7276H65.1611ZM47.6891 45.1536V58.4656H43.7371V49.5216C43.1911 49.9896 42.6451 50.4316 42.0731 50.8736L40.9551 46.0116C43.3211 44.4516 45.6871 41.7736 47.0651 39.3036L50.3411 40.9156C49.5611 42.3976 48.7031 43.8276 47.6891 45.1536ZM66.0971 41.7996V45.5436H62.5611V55.5536C62.5611 56.3076 62.5091 57.1136 61.9631 57.6856C61.4431 58.2576 60.5071 58.4656 59.7791 58.4656H54.3711L53.7211 54.4876H57.7251C58.3231 54.4876 58.5311 54.3056 58.5311 53.6816V45.5436H50.0551V41.7996H66.0971ZM67.8391 58.4916V53.6816H72.1811V34.4936H76.9911V58.4916H67.8391ZM69.1911 55.0336V57.1396H75.6391V35.8456H73.5331V55.0336H69.1911ZM91.0871 42.7876C91.1471 41.5476 91.1871 40.2876 91.1871 39.0276H94.4671C94.4671 40.2876 94.4671 41.5476 94.3871 42.7876H101.607C101.487 45.6876 101.207 52.4076 100.147 54.8876C99.3271 56.7876 97.8271 57.2476 95.8871 57.2476C95.3271 57.2476 94.7471 57.2276 94.1671 57.1876L93.5071 53.9076C94.2671 53.9876 95.0071 54.0676 95.7671 54.0676C97.0271 54.0676 97.3271 53.2276 97.5471 52.1476C97.9871 50.1276 98.1271 48.0076 98.2271 45.9476H94.0871C93.4671 51.0276 91.3871 54.7076 87.0471 57.5076L84.6271 55.1076C86.4271 53.9876 88.0871 52.5476 89.1871 50.7076C90.0671 49.2476 90.5271 47.6276 90.8071 45.9476H84.7071V42.7876H91.0871ZM105.667 46.8876H123.907V50.0676H105.667V46.8876ZM133.127 46.9876L134.187 44.9676C137.027 46.3076 139.707 47.9276 142.227 49.7876L140.307 52.6676C138.067 50.9076 135.667 49.3276 133.127 48.0676V57.7076H129.747V39.1876H133.127V46.9876ZM137.647 42.4076L138.787 41.3276C139.567 41.9676 140.247 42.6476 140.867 43.4276L139.647 44.5276C139.047 43.7476 138.387 43.0676 137.647 42.4076ZM139.547 40.7476L140.707 39.6476C141.467 40.2876 142.147 40.9876 142.767 41.7676L141.567 42.8676C140.947 42.0876 140.307 41.3876 139.547 40.7476ZM159.567 55.8876H150.007V57.0076H146.727V40.8276H162.847V57.0076H159.567V55.8876ZM159.567 52.7676V44.0076H150.007V52.7676H159.567ZM166.667 46.8876H184.907V50.0676H166.667V46.8876ZM189.567 39.7876C191.767 40.8676 193.827 42.2076 195.727 43.7876L193.587 46.4676C191.747 44.9076 189.767 43.5676 187.667 42.4276L189.567 39.7876ZM187.907 54.2876C194.867 52.9876 199.567 49.6676 203.167 43.5876L205.507 46.2876C201.807 52.2276 196.347 56.1476 189.447 57.5676L187.907 54.2876Z" fill="white"/>
<line x1="1.47852" y1="23.4871" x2="205.857" y2="23.4871" stroke="white" stroke-width="2"/>
</svg>
